<svg width="16" height="14" viewBox="0 0 16 14" fill="none" xmlns="http://www.w3.org/2000/svg">
<path d="M0.896757 0.263134C0.749409 0.431613 0.666626 0.660129 0.666626 0.898396C0.666626 1.13666 0.749409 1.36518 0.896757 1.53366C1.0441 1.70214 1.24396 1.79679 1.45234 1.79679H14.5476C14.7559 1.79679 14.9558 1.70214 15.1031 1.53366C15.2505 1.36518 15.3333 1.13666 15.3333 0.898396C15.3333 0.660129 15.2505 0.431613 15.1031 0.263134C14.9558 0.094655 14.7559 0 14.5476 0H1.45234C1.24396 0 1.0441 0.094655 0.896757 0.263134Z" fill="currentColor"/>
<path d="M0.666626 4.96613C0.666626 4.72787 0.749409 4.49935 0.896757 4.33087C1.0441 4.16239 1.24396 4.06774 1.45234 4.06774H8.89893C9.1073 4.06774 9.30719 4.16239 9.45448 4.33087C9.60188 4.49935 9.68464 4.72787 9.68464 4.96613C9.68464 5.2044 9.60188 5.43291 9.45448 5.60139C9.30719 5.76987 9.1073 5.86453 8.89893 5.86453H1.45234C1.24396 5.86453 1.0441 5.76987 0.896757 5.60139C0.749409 5.43291 0.666626 5.2044 0.666626 4.96613Z" fill="currentColor"/>
<path d="M0.896757 8.39864C1.0441 8.2301 1.24396 8.13547 1.45234 8.13547H12.1692C12.3776 8.13547 12.5775 8.2301 12.7247 8.39864C12.8721 8.56706 12.9549 8.79561 12.9549 9.03387C12.9549 9.27212 12.8721 9.50068 12.7247 9.66909C12.5775 9.83763 12.3776 9.93226 12.1692 9.93226H1.45234C1.24396 9.93226 1.0441 9.83763 0.896757 9.66909C0.749409 9.50068 0.666626 9.27212 0.666626 9.03387C0.666626 8.79561 0.749409 8.56706 0.896757 8.39864Z" fill="currentColor"/>
<path d="M0.666626 13.1016C0.666626 12.8633 0.749409 12.6348 0.896757 12.4663C1.0441 12.2979 1.24396 12.2032 1.45234 12.2032H8.89893C9.1073 12.2032 9.30719 12.2979 9.45448 12.4663C9.60188 12.6348 9.68464 12.8633 9.68464 13.1016C9.68464 13.3399 9.60188 13.5684 9.45448 13.7369C9.30719 13.9053 9.1073 14 8.89893 14H1.45234C1.24396 14 1.0441 13.9053 0.896757 13.7369C0.749409 13.5684 0.666626 13.3399 0.666626 13.1016Z" fill="currentColor"/>
</svg>
