<svg width="16" height="14" viewBox="0 0 16 14" fill="none" xmlns="http://www.w3.org/2000/svg">
<path d="M15.3333 0.898396C15.3333 0.660129 15.2505 0.431613 15.1032 0.263134C14.9558 0.094655 14.756 0 14.5476 0H1.45234C1.24397 0 1.04408 0.094655 0.896788 0.263134C0.749387 0.431613 0.666626 0.660129 0.666626 0.898396C0.666626 1.13666 0.749387 1.36518 0.896788 1.53366C1.04408 1.70214 1.24397 1.79679 1.45234 1.79679H14.5476C14.756 1.79679 14.9558 1.70214 15.1032 1.53366C15.2505 1.36518 15.3333 1.13666 15.3333 0.898396Z" fill="currentColor"/>
<path d="M12.2812 4.33084C12.4285 4.49932 12.5113 4.72784 12.5113 4.9661C12.5113 5.20437 12.4285 5.43289 12.2812 5.60137C12.1338 5.76985 11.934 5.8645 11.7256 5.8645H4.279C4.07063 5.8645 3.87074 5.76985 3.72345 5.60137C3.57605 5.43289 3.49329 5.20437 3.49329 4.9661C3.49329 4.72784 3.57605 4.49932 3.72345 4.33084C3.87074 4.16236 4.07063 4.06771 4.279 4.06771H11.7256C11.934 4.06771 12.1338 4.16236 12.2812 4.33084Z" fill="currentColor"/>
<path d="M13.9181 8.39859C13.7708 8.23005 13.5709 8.13542 13.3626 8.13542H2.6457C2.43733 8.13542 2.23744 8.23005 2.09015 8.39859C1.94275 8.56701 1.85999 8.79556 1.85999 9.03381C1.85999 9.27207 1.94275 9.50062 2.09015 9.66904C2.23744 9.83758 2.43733 9.93221 2.6457 9.93221H13.3626C13.5709 9.93221 13.7708 9.83758 13.9181 9.66904C14.0655 9.50062 14.1483 9.27207 14.1483 9.03381C14.1483 8.79556 14.0655 8.56701 13.9181 8.39859Z" fill="currentColor"/>
<path d="M12.2812 12.4664C12.4285 12.6349 12.5113 12.8634 12.5113 13.1017C12.5113 13.3399 12.4285 13.5685 12.2812 13.7369C12.1338 13.9054 11.934 14.0001 11.7256 14.0001H4.279C4.07063 14.0001 3.87074 13.9054 3.72345 13.7369C3.57605 13.5685 3.49329 13.3399 3.49329 13.1017C3.49329 12.8634 3.57605 12.6349 3.72345 12.4664C3.87074 12.2979 4.07063 12.2033 4.279 12.2033H11.7256C11.934 12.2033 12.1338 12.2979 12.2812 12.4664Z" fill="currentColor"/>
</svg>
