<svg width="16" height="14" viewBox="0 0 16 14" fill="none" xmlns="http://www.w3.org/2000/svg">
<path d="M15.1032 0.263134C15.2505 0.431613 15.3333 0.660129 15.3333 0.898396C15.3333 1.13666 15.2505 1.36518 15.1032 1.53366C14.9558 1.70214 14.756 1.79679 14.5476 1.79679H1.45234C1.24397 1.79679 1.04408 1.70214 0.896788 1.53366C0.749387 1.36518 0.666626 1.13666 0.666626 0.898396C0.666626 0.660129 0.749387 0.431613 0.896788 0.263134C1.04408 0.094655 1.24397 0 1.45234 0H14.5476C14.756 0 14.9558 0.094655 15.1032 0.263134Z" fill="currentColor"/>
<path d="M15.3333 4.96613C15.3333 4.72787 15.2505 4.49935 15.1032 4.33087C14.9558 4.16239 14.756 4.06774 14.5476 4.06774H7.10099C6.89262 4.06774 6.69273 4.16239 6.54544 4.33087C6.39804 4.49935 6.31527 4.72787 6.31527 4.96613C6.31527 5.2044 6.39804 5.43291 6.54544 5.60139C6.69273 5.76987 6.89262 5.86453 7.10099 5.86453H14.5476C14.756 5.86453 14.9558 5.76987 15.1032 5.60139C15.2505 5.43291 15.3333 5.2044 15.3333 4.96613Z" fill="currentColor"/>
<path d="M15.1032 8.39864C14.9558 8.2301 14.756 8.13547 14.5476 8.13547H3.83072C3.62235 8.13547 3.42246 8.2301 3.27517 8.39864C3.12777 8.56706 3.045 8.79561 3.045 9.03387C3.045 9.27212 3.12777 9.50068 3.27517 9.66909C3.42246 9.83763 3.62235 9.93226 3.83072 9.93226H14.5476C14.756 9.93226 14.9558 9.83763 15.1032 9.66909C15.2505 9.50068 15.3333 9.27212 15.3333 9.03387C15.3333 8.79561 15.2505 8.56706 15.1032 8.39864Z" fill="currentColor"/>
<path d="M15.3333 13.1016C15.3333 12.8633 15.2505 12.6348 15.1032 12.4663C14.9558 12.2979 14.756 12.2032 14.5476 12.2032H7.10099C6.89262 12.2032 6.69273 12.2979 6.54544 12.4663C6.39804 12.6348 6.31527 12.8633 6.31527 13.1016C6.31527 13.3399 6.39804 13.5684 6.54544 13.7369C6.69273 13.9053 6.89262 14 7.10099 14H14.5476C14.756 14 14.9558 13.9053 15.1032 13.7369C15.2505 13.5684 15.3333 13.3399 15.3333 13.1016Z" fill="currentColor"/>
</svg>
