<svg width="23" height="25" viewBox="0 0 23 25" fill="none" xmlns="http://www.w3.org/2000/svg">
<path fill-rule="evenodd" clip-rule="evenodd" d="M11.7088 2.40599C12.7076 1.40727 14.0621 0.846191 15.4745 0.846191C18.4157 0.846191 20.8 3.23049 20.8 6.17168C20.8 7.58408 20.2389 8.93864 19.2402 9.93736L10.0284 19.1491C9.45405 19.7235 8.67503 20.0462 7.86274 20.0462C6.17124 20.0462 4.8 18.675 4.8 16.9834C4.8 16.1712 5.12268 15.3921 5.69706 14.8178L14.6343 5.88051L15.7657 7.01188L6.82843 15.9491C6.55411 16.2235 6.4 16.5955 6.4 16.9834C6.4 17.7913 7.05489 18.4462 7.86274 18.4462C8.25068 18.4462 8.62274 18.2921 8.89706 18.0178L18.1088 8.80599C18.8075 8.10733 19.2 7.15973 19.2 6.17168C19.2 4.11415 17.532 2.44619 15.4745 2.44619C14.4865 2.44619 13.5389 2.83869 12.8402 3.53736L3.35391 13.0237C2.2309 14.1467 1.6 15.6698 1.6 17.258C1.6 20.5652 4.28102 23.2462 7.58823 23.2462C9.1764 23.2462 10.6995 22.6153 11.8225 21.4923L21.0343 12.2805L22.1657 13.4119L12.9539 22.6237C11.5308 24.0467 9.60075 24.8462 7.58823 24.8462C3.39736 24.8462 0 21.4488 0 17.258C0 15.2454 0.799471 13.3153 2.22254 11.8923L11.7088 2.40599Z" fill="currentColor"/>
</svg>
