<svg width="46" height="50" fill="none" version="1.1" viewBox="0 0 46 50" xmlns="http://www.w3.org/2000/svg">
 <g clip-path="url(#clip0_4098_191887)">
  <g fill="#1B1B36" opacity=".1">
   <path d="m7.0511 28.403c-0.0108-0.5147 0.01787-1.0294 0.08585-1.5397 0.0383-0.3199 0.09917-0.6371 0.1426-0.9566 0.01722-0.1282 0.04728-0.218 0.23749-0.1452-0.20288-0.0767-0.16314-0.2021-0.12688-0.3271 0.05429-0.161 0.09992-0.3247 0.13672-0.4905 0.02723-0.1548 0.09136-0.1794 0.24359-0.0837-0.25798-0.2532-0.05547-0.4985-0.02204-0.717 0.07039-0.4657 0.25273-0.9074 0.53151-1.2879 0.05756-0.0687 0.10324-0.1464 0.13527-0.2299 0.08067-0.2687 0.27322-0.4618 0.43989-0.6716 0.16336-0.215 0.33848-0.4208 0.52462-0.6166 0.32114-0.3236 0.5996-0.6845 0.93832-0.9944 0.3908-0.3578 0.7837-0.7155 1.1605-1.0872 0.9865-0.9733 2.1065-1.7756 3.2429-2.5575 0.9309-0.6406 1.8791-1.2563 2.8536-1.8287 1.1456-0.6636 2.3725-1.1775 3.6505-1.5291 1.4105-0.3988 2.8392-0.7351 4.2304-1.1988 0.7257-0.2418 1.4304-0.541 2.1369-0.8342 1.5286-0.6341 3.1121-1.0535 4.7701-1.1619 1.0434-0.0685 2.0851 0.0174 3.1263 0.076 1.2536 0.0706 2.5087 0.066 3.7632 0.0884 0.8813 0.0051 1.7576 0.132 2.6039 0.3771 0.7267 0.2189 1.4191 0.5215 2.0136 0.9919 0.6218 0.4919 1.2197 1.0157 1.6377 1.7098 0.1901 0.3184 0.3623 0.647 0.5159 0.9844 0.2166 0.4707 0.289 0.9552 0.3534 1.4448 0.1296 0.9863-0.0039 1.9516-0.2998 2.9002-0.2024 0.6493-0.4158 1.2933-0.7199 1.9031-0.4905 0.996-1.1325 1.9108-1.9035 2.7122-1.0912 1.1208-1.9329 2.4574-2.4703 3.9231-0.2715 0.7372-0.535 1.4802-0.7298 2.2358-0.4138 1.6057-0.7134 3.2387-1.0403 4.8648-0.2725 1.3555-0.5807 2.7029-1.1 3.9926-0.2605 0.6619-0.5674 1.3048-0.9185 1.9239-0.5561 0.9625-1.2839 1.7947-2.0727 2.5782-0.9103 0.9121-1.8822 1.7614-2.9089 2.542-1.6281 1.227-3.4533 1.8986-5.5 1.9425-1.6314 0.0351-3.2643 0.0086-4.878-0.2483-2.1526-0.3426-4.0635-1.2352-5.7635-2.6-0.8431-0.6769-1.6883-1.3508-2.4936-2.0706-0.9457-0.8452-1.8351-1.7474-2.5757-2.7808-0.6347-0.8683-1.1977-1.7863-1.6834-2.7449-0.75937-1.5336-1.4179-3.1071-1.8349-4.7681-0.22599-0.8999-0.40812-1.8107-0.42085-2.747-0.00439-0.3271-0.05242-0.6538-0.01359-0.9814 0.06922 0.041 0.07885 0.0919 0.07799 0.1768-0.00278 0.2643-0.0023 0.5315 0.08414 0.7878-0.02482 0.0252-0.04274 0.0564-0.05221 0.0903-0.00941 0.0341-0.01 0.0699-0.00171 0.1042 0.04958 0.2987 0.06905 0.6024 0.12345 0.9001 0.06478 0.3531 0.07226 0.7192 0.23 1.0523-0.01032 0.2291 0.04996 0.4559 0.17272 0.6501-0.05071-0.2188 0.0223-0.4737-0.18176-0.6484 0.02878-0.0669 0.0344-0.1415 0.016-0.2121-0.07687-0.3778-0.12832-0.7591-0.18556-1.1399-0.03979-0.2641 0.03071-0.5505-0.12682-0.796 0.08986-0.0573 0.05114-0.1446 0.04809-0.2207-0.0146-0.3604-0.03434-0.7205-0.01519-1.0816 0.01139-0.2153 0.01219-0.4314 0.01781-0.647l-0.06012-0.0021c-0.02145 0.2771-0.04878 0.5539-0.06071 0.8313-0.00364 0.0767 0.01936 0.1462-0.08478 0.1628zm0.47359 0.5191c-0.08195-0.0055-0.10142-0.0916-0.16437-0.1318 0.02225 0.1418-0.08788 0.2959 0.07654 0.4461 0.0207-0.1315-0.00364-0.2473 0.08612-0.324 0.08301 0.2195 0.02241 0.4693 0.18662 0.6809 0.08863 0.1146-0.01765 0.311 0.06001 0.4602-0.2316 0.0735-0.06445 0.1347 0.00765 0.1951 0.07488 0.0625 0.05648 0.1489 0.05606 0.2255 0.00379 0.0858 0.0192 0.1707 0.04578 0.2524 0.11206 0.4346 0.20101 0.875 0.30515 1.3117 0.0391 0.1638 0.05199 0.3431 0.1043 0.4888 0.05606 0.1558 0.13907 0.3128 0.19764 0.4755 0.21578 0.6008 0.39293 1.2195 0.66091 1.7965 0.32061 0.6907 0.6264 1.3912 1.0112 2.0521 0.3254 0.5589 0.6096 1.1439 1.0051 1.6585 0.2511 0.3267 0.4207 0.7048 0.7166 1.0057 0.3523 0.3582 0.6364 0.7774 1.0003 1.1317 0.4528 0.4408 0.8893 0.9019 1.3758 1.3028 0.6808 0.5609 1.3526 1.1328 2.0535 1.6708 1.0486 0.8049 2.1304 1.5476 3.3585 2.0583 0.6667 0.2773 1.3452 0.527 2.0552 0.6603 1.6669 0.3131 3.3558 0.331 5.0443 0.3279 1.8505-0.0032 3.5272-0.5208 5.0134-1.6436 1.051-0.8039 2.0411-1.6834 2.9624-2.6316 0.8997-0.9172 1.6255-1.9882 2.143-3.1615 0.6772-1.5134 1.0746-3.1039 1.3814-4.7218 0.3985-2.1009 0.7703-4.207 1.4239-6.2507 0.4175-1.3043 0.9591-2.5471 1.7475-3.6752 0.4196-0.6006 0.9338-1.1222 1.4165-1.669 1.2189-1.3808 1.9387-3.0002 2.3473-4.7709 0.2037-0.8836 0.2684-1.7766 0.0626-2.6703-0.3131-1.3597-1.1428-2.3768-2.2189-3.2136-1.1145-0.8669-2.4119-1.227-3.8059-1.2576-1.8328-0.0404-3.6669-0.0456-5.4964-0.1748-1.8942-0.1336-3.7064 0.193-5.4565 0.9012-1.1063 0.4477-2.2148 0.8876-3.3559 1.2442-1.0742 0.3356-2.1712 0.5862-3.2528 0.893-1.1908 0.3376-2.3713 0.7104-3.4272 1.3775-0.8939 0.5646-1.7785 1.1441-2.6632 1.723-0.8453 0.5526-1.6337 1.1844-2.4563 1.7684-0.2773 0.2024-0.5311 0.4348-0.7568 0.6929-0.2137 0.2395-0.5291 0.3091-0.7246 0.6139-0.1898 0.2956-0.5429 0.5457-0.8556 0.7835-0.1213 0.1117-0.2281 0.238-0.318 0.3759-0.1819 0.2649-0.3864 0.5138-0.61108 0.7439-0.2131 0.2097-0.2599 0.6154-0.6946 0.5883 0.14581 0.0062 0.24476 0.0696 0.27017 0.1856 0.02396 0.1096-0.05894 0.2009-0.14351 0.2646-0.16046 0.1211-0.2469 0.2925-0.35623 0.4525-0.16608 0.2428-0.14618 0.5549-0.32879 0.7918-0.0521 0.0675-0.16822 0.0933-0.15688 0.2122 0.01786 0.1869-0.11859 0.335-0.1495 0.4972-0.05777 0.3024-0.2912 0.5021-0.37667 0.7805-0.05643 0.1853-0.09467 0.3756-0.11409 0.5682-0.01808 0.1715-0.03691 0.3568-0.13533 0.5129-0.05022 0.0795 0.00755 0.1853-0.06723 0.2572 0.18159 0.1166 0.03985 0.2532 0.02674 0.3837-0.01642 0.1636-0.09039 0.3143-0.08007 0.4861 0.01936 0.3324 0.05071 0.6674-0.03578 0.9974zm38.074-11.68c0.1743-0.4509 0.0667-1.7833-0.1828-2.0329 0.1608 0.6651 0.2224 1.3501 0.1828 2.0329z"/>
   <path d="m57.57 32.584c1e-3 0.2842-0.0209 0.5603-0.0648 0.8259-0.0251 0.1674-0.0631 0.3286-0.0914 0.4948-0.0113 0.0667-0.0294 0.1097-0.1375 0.0308 0.1155 0.0836 0.0915 0.1442 0.0695 0.2052-0.0326 0.0771-0.0604 0.1574-0.0834 0.2407-0.0171 0.0792-0.054 0.0795-0.1401-0.0041 0.1449 0.1916 0.0267 0.2844 0.0053 0.3972-0.0449 0.2407-0.1535 0.4453-0.3172 0.5965-0.0337 0.0258-0.0604 0.059-0.0797 0.0982-0.0486 0.1307-0.161 0.1969-0.2583 0.2777-0.0958 0.0842-0.1979 0.1611-0.3065 0.2302-0.1872 0.1113-0.3504 0.2519-0.5472 0.3521-0.2273 0.1159-0.4557 0.2312-0.675 0.3575-0.5745 0.3308-1.2238 0.5405-1.8819 0.7357-0.5391 0.1598-1.088 0.3026-1.6515 0.4162-0.6623 0.1285-1.3696 0.1582-2.1045 0.0886-0.8112-0.0709-1.6322-0.1799-2.4331-0.2114-0.4177-0.0164-0.824 3e-3 -1.2313 0.0185-0.8812 0.0338-1.7916-0.0614-2.7415-0.3422-0.5978-0.1766-1.193-0.4374-1.7883-0.6831-0.7167-0.296-1.4349-0.551-2.1527-0.8207-0.5042-0.1836-1.0044-0.433-1.4862-0.7409-0.4137-0.269-0.8069-0.5769-1.1423-0.9566-0.3509-0.3971-0.6877-0.8067-0.9199-1.2727-0.1056-0.2135-0.2008-0.4289-0.2852-0.6451-0.1193-0.3024-0.1557-0.5827-0.1877-0.8641-0.0641-0.5669 0.0221-1.0683 0.201-1.5273 0.1224-0.3142 0.2511-0.6232 0.4312-0.8949 0.2908-0.445 0.6675-0.8144 1.1168-1.0952 0.6358-0.3901 1.131-0.9496 1.4534-1.6423 0.1629-0.3481 0.3212-0.7011 0.4403-1.0751 0.2531-0.7947 0.4411-1.6279 0.6446-2.4516 0.1697-0.6866 0.3598-1.3616 0.67-1.9615 0.1557-0.3092 0.3379-0.5984 0.5451-0.8655 0.328-0.4132 0.7529-0.7198 1.2122-0.9871 0.5302-0.3129 1.095-0.5788 1.6904-0.7957 0.9442-0.3381 1.9955-0.3315 3.1671 0.0645 0.934 0.3154 1.8682 0.6651 2.789 1.1369 1.2284 0.6294 2.3129 1.5106 3.272 2.607 0.4756 0.5439 0.9523 1.0865 1.4059 1.6461 0.5328 0.657 1.0323 1.3338 1.4458 2.0519 0.3546 0.6059 0.6675 1.2244 0.9355 1.8492 0.4194 0.996 0.7799 1.9931 1.0018 2.9886 0.1204 0.5394 0.2151 1.0757 0.2129 1.5913-5e-4 0.1801 0.0236 0.3689-0.0021 0.5404-0.0391-0.0367-0.0439-0.0665-0.0428-0.1129 0.0043-0.1442 7e-3 -0.2907-0.0401-0.4488 0.0144-0.0087 0.0251-0.0221 0.031-0.0388 0.0054-0.0167 0.0064-0.0362 0.0016-0.0567-0.0251-0.1738-0.0332-0.3442-0.0615-0.5184-0.0332-0.2068-0.0337-0.4088-0.1209-0.6237 0.0086-0.1234-0.0241-0.26-0.092-0.3916 0.0268 0.1303-0.0176 0.2549 0.0974 0.3925-0.0171 0.0308-0.0214 0.0705-0.0113 0.1129 0.0401 0.2228 0.0658 0.4422 0.0947 0.6626 0.0198 0.1528-0.0235 0.2952 0.0642 0.462-0.0519 0.013-0.0305 0.0688-0.0294 0.1111 0.0043 0.2004 0.0123 0.4018-0.0027 0.5956-0.0086 0.1157-0.0112 0.2339-0.0166 0.3509l0.0343 0.0135c0.0155-0.1474 0.0337-0.2935 0.0433-0.443 0.0027-0.0413-0.0096-0.0841 0.0503-0.0718zm-0.2659-0.3816c0.0471 0.0199 0.0573 0.071 0.0926 0.106-0.0113-0.0823 0.0534-0.1441-0.0391-0.2601-0.0134 0.0678-5e-4 0.1362-0.0524 0.1598-0.0455-0.1373-8e-3 -0.2617-0.1-0.4113-0.0498-0.081 0.0133-0.1668-0.03-0.2644 0.1337 0.0072 0.0385-0.0606-0.0021-0.1085-0.0423-0.0496-0.031-0.0932-0.03-0.135-1e-3 -0.0479-0.0091-0.0975-0.0235-0.1478-0.0599-0.261-0.1059-0.5205-0.1615-0.7811-0.0204-0.0978-0.0263-0.1986-0.0546-0.2892-0.0305-0.0968-0.0765-0.1999-0.1081-0.3011-0.1176-0.3733-0.2128-0.7487-0.3599-1.1197-0.1765-0.4442-0.3445-0.8907-0.5579-1.3318-0.1808-0.3729-0.3375-0.7517-0.5584-1.1148-0.1407-0.2304-0.2338-0.4724-0.4001-0.698-0.1979-0.2685-0.3563-0.5565-0.5611-0.8252-0.2546-0.3344-0.4996-0.6766-0.774-0.9961-0.3839-0.4469-0.7626-0.8981-1.1583-1.3366-0.5919-0.6561-1.2035-1.285-1.9011-1.8168-0.3787-0.2887-0.7644-0.5647-1.1694-0.7834-0.9507-0.5136-1.9171-0.87-2.8834-1.2148-1.059-0.378-2.0237-0.4384-2.8856-0.1283-0.6096 0.2247-1.1851 0.5034-1.7219 0.8338-0.5242 0.3178-0.9504 0.7556-1.2584 1.2922-0.4029 0.6901-0.6464 1.4799-0.8384 2.3032-0.2493 1.0692-0.4834 2.1467-0.8781 3.1322-0.2521 0.6289-0.5747 1.1986-1.0372 1.6549-0.2463 0.2429-0.5458 0.4231-0.8276 0.6236-0.7116 0.5063-1.1398 1.2458-1.3916 2.132-0.1255 0.4422-0.1716 0.9182-0.0629 1.45 0.1654 0.8091 0.6299 1.5366 1.2373 2.2158 0.6289 0.7037 1.3678 1.1671 2.1652 1.4699 1.0485 0.3983 2.098 0.7775 3.1436 1.2237 1.0827 0.4619 2.123 0.6548 3.1317 0.6259 0.6377-0.0182 1.2765-0.0317 1.9331 0.0071 0.6181 0.0365 1.2484 0.1243 1.8705 0.1782 0.6848 0.0594 1.3642 0.0974 1.9752-0.0514 0.5173-0.1259 1.0294-0.2618 1.5415-0.3974 0.4893-0.1293 0.9468-0.3136 1.4234-0.4647 0.161-0.054 0.3086-0.1293 0.4402-0.2243 0.1246-0.0874 0.306-0.0608 0.421-0.1876 0.1117-0.123 0.3161-0.1876 0.4974-0.2537 0.0706-0.0363 0.1332-0.0836 0.1861-0.1407 0.1065-0.1078 0.2263-0.2022 0.3568-0.2821 0.1241-0.0712 0.1551-0.2839 0.4038-0.1798-0.0834-0.0333-0.1396-0.0883-0.1529-0.1571-0.0123-0.065 0.0358-0.0979 0.085-0.1155 0.0931-0.0334 0.1439-0.1096 0.2081-0.1748 0.0979-0.099 0.0893-0.274 0.1963-0.3663 0.0305-0.0263 0.0973-0.0166 0.092-0.084-0.0086-0.1061 0.0711-0.1593 0.0904-0.2417 0.0363-0.1539 0.1717-0.2154 0.2236-0.3504 0.0342-0.0899 0.0583-0.1863 0.0711-0.2878 0.0123-0.0902 0.0246-0.188 0.0829-0.2532 0.0294-0.0333-0.0027-0.1031 0.0407-0.1271-0.1027-0.1012-0.0204-0.147-0.0113-0.2157 0.0113-0.0863 0.0551-0.1537 0.0508-0.2499-8e-3 -0.186-0.0224-0.376 0.0305-0.5391zm-21.907-1.4142c-0.1043 0.2112-0.0562 0.9633 0.084 1.1512-0.0853-0.3974-0.1135-0.7852-0.084-1.1512z"/>
  </g>
  <g fill="#5648FF">
   <path d="m27.615 22.512c-0.0463-0.7385-0.0346-2.3094 0.9165-3.8508 1.0252-1.6619 3.1118-3.2397 5.1936-2.9146 1.0581 0.1653 2.5241 0.8861 2.5277 1.8393 0.0023 0.6189-0.6126 1.0992-0.8932 1.2925-0.1739-0.0567-0.7941-0.2355-1.4928 0.0431-0.8513 0.3391-1.1668 1.0968-1.2195 1.2295-0.194-0.0402-0.8683-0.155-1.5798 0.2153-0.6068 0.3158-0.8966 0.8051-0.9954 0.993-0.237-0.0335-0.6422-0.0574-1.104 0.0907-0.8085 0.2594-1.2285 0.8657-1.3531 1.062z"/>
   <path d="m47.629 10.826c-0.6004-0.437-1.9371-1.2743-3.7553-1.309-1.9603-0.0374-4.4216 0.85915-5.2688 2.778-0.4306 0.9753-0.6107 2.5917 0.1946 3.1087 0.5228 0.3356 1.2611 0.0796 1.5761-0.051 0.0458-0.1762 0.2289-0.7921 0.8415-1.2271 0.7463-0.53 1.558-0.3858 1.6988-0.3582 0.0706-0.1841 0.337-0.8108 1.0343-1.207 0.5945-0.338 1.1652-0.3167 1.3776-0.2982 0.0993-0.2166 0.2975-0.5689 0.672-0.8758 0.6558-0.5372 1.3958-0.562 1.6292-0.5604z"/>
   <path d="m28.236 8.1342c1.1159-2.3556 3.5774-3.6013 5.9101-3.5442 2.6658 0.06513 5.2915 1.8344 5.9584 4.4076 0.6556 2.5296-0.8831 4.6744-1.198 5.1134-0.3412 0.4756-1.3361 1.8217-3.1992 2.4308-1.8789 0.6142-4.2768 0.3598-6.0235-1.1783-2.0285-1.7863-2.6008-4.7954-1.4478-7.2294z"/>
   <path d="m22.309 6.4905c0.5386 0.36207 1.2864 0.77931 2.2361 1.0804 1.6732 0.53054 3.1349 0.43495 3.9773 0.31155 0.3505 2.3568 0.7009 4.7136 1.0514 7.0704-2.8304 0.3888-5.5506-0.8595-6.8515-3.1152-1.3919-2.4133-0.557-4.9356-0.4133-5.3472z"/>
   <path d="m35.544-1.5957c0.0861 0.64083 0.1285 1.4924-0.0234 2.4721-0.2678 1.7261-1.0048 2.9849-1.4912 3.6799 1.9656 1.3618 3.9314 2.7238 5.8972 4.0856 1.6109-2.3468 1.6987-5.3249 0.2474-7.4878-1.5527-2.3141-4.1954-2.6943-4.63-2.7497z"/>
   <path d="m39.708 19.6c-0.2448 0.1672-0.9397 0.6418-1.8587 0.6433-1.6457 0.0025-2.6548-1.514-2.7426-1.6504-0.0328-0.4901-0.1392-1.114-0.4315-1.7779-0.0811-0.1842-0.1685-0.3533-0.2579-0.5074-0.0033-0.0048-0.0205-0.0303-0.0143-0.0649 0.0038-0.0218 0.0161-0.0422 0.0358-0.0559l3.8532-2.6799c0.0394-0.0274 0.0939-0.0178 0.1215 0.0214 0.6006 0.4454 1.2013 0.8909 1.8019 1.3364 0.0641 0.076 1.3709 1.6763 0.7448 3.2791-0.3203 0.8197-1.0093 1.2904-1.2522 1.4562z"/>
  </g>
  <path d="m31.918 14.589c0.7657 0 1.3864-0.6173 1.3864-1.3788 0-0.7614-0.6207-1.3787-1.3864-1.3787s-1.3865 0.6173-1.3865 1.3787c0 0.7615 0.6208 1.3788 1.3865 1.3788z" fill="#fff"/>
  <path d="m37.461 11.494c0.7657 0 1.3864-0.6173 1.3864-1.3788 0-0.76145-0.6207-1.3787-1.3864-1.3787s-1.3864 0.61729-1.3864 1.3787c0 0.7615 0.6207 1.3788 1.3864 1.3788z" fill="#fff"/>
  <g fill="#2C248D">
   <path d="m37.692 15.422c-0.6003 0.5275-1.5302 1.1601-2.8198 1.3487-0.8903 0.1301-1.8239 0.0239-2.6997-0.3072-0.1481-0.056-0.2224-0.2207-0.1661-0.3681 0.0563-0.147 0.222-0.2212 0.3702-0.1652 0.7843 0.2966 1.6185 0.3921 2.4123 0.2761 1.6241-0.2377 2.6324-1.2882 3.0632-1.7373 0.7087-0.7385 1.2371-1.6653 1.528-2.68 0.0436-0.1516 0.2023-0.2392 0.3546-0.196 0.1522 0.0432 0.2405 0.201 0.1972 0.3525-0.3166 1.1033-0.8921 2.1121-1.6647 2.9173-0.1373 0.1431-0.3284 0.3423-0.5752 0.5592z"/>
   <path d="m40.339 17.231c-0.0491 0.0431-0.113 0.0698-0.1837 0.0714-0.1584 0.0033-0.2894-0.1216-0.2929-0.2792-0.0081-0.3752-0.0945-0.9398-0.4608-1.4981-0.2216-0.338-0.5226-0.6315-0.8705-0.849-0.1341-0.0837-0.1744-0.2599-0.0901-0.3933 0.0845-0.1336 0.2614-0.1735 0.3955-0.0896 0.4176 0.2609 0.7792 0.6137 1.0456 1.0202 0.4403 0.6712 0.5442 1.3481 0.554 1.7977 0.0017 0.0872-0.036 0.1661-0.0971 0.2199z"/>
   <path d="m36.435 19.012c-0.0954 0.0838-0.2393 0.0968-0.35 0.0227-0.292-0.1957-0.6996-0.5462-0.9826-1.1061-0.1795-0.355-0.2821-0.7384-0.3049-1.1392-0.0089-0.1573 0.1118-0.2921 0.2702-0.3009 0.1581-9e-3 0.2936 0.1114 0.3025 0.2687 0.0183 0.3223 0.1008 0.6302 0.2449 0.9154 0.2272 0.4494 0.5551 0.7314 0.7904 0.8889 0.1313 0.088 0.1661 0.2653 0.0776 0.3959-0.0139 0.0206-0.0301 0.0389-0.0481 0.0546z"/>
   <path d="m32.267 6.4959c-0.0455 0.0399-0.1038 0.0658-0.1689 0.07059-0.4056 0.02973-1.1842 0.17277-1.8408 0.80686-0.4419 0.42585-0.6544 0.91-0.7548 1.2412-0.0456 0.15101-0.2056 0.23622-0.3574 0.19063-0.1517-0.04547-0.2376-0.20462-0.1917-0.35537 0.12-0.39585 0.3744-0.97505 0.9047-1.4862 0.7864-0.75628 1.715-0.9308 2.1981-0.96612 0.1579-0.0116 0.2954 0.10649 0.307 0.26356 0.0068 0.09234-0.0314 0.17788-0.0962 0.23484z"/>
   <path d="m36.269 6.4044c-0.0645 0.05665-0.1537 0.08399-0.2446 0.06644l-1.5396-0.2966c-0.1555-0.02995-0.2571-0.17957-0.227-0.33436 0.0301-0.15452 0.1805-0.25575 0.3361-0.22575l1.5397 0.29665c0.1554 0.02995 0.2571 0.17958 0.2271 0.33431-0.0126 0.06415-0.0458 0.1191-0.0917 0.15931z"/>
   <path d="m24.135 11.992c-0.0997 0.0877-0.2509 0.0968-0.3617 0.0143-0.3692-0.2748-1.0271-0.8894-1.2844-1.9157-0.2266-0.90448-0.0177-1.6725 0.127-2.0497 0.0566-0.14713 0.2223-0.22101 0.3703-0.16489 0.148 0.05617 0.2222 0.2209 0.1657 0.36824-0.1206 0.31474-0.295 0.95516-0.1063 1.7084 0.2142 0.85483 0.7633 1.3675 1.0716 1.597 0.1268 0.0945 0.1527 0.2731 0.0576 0.3993-0.0119 0.016-0.0254 0.0303-0.0398 0.043z"/>
   <path d="m29.772 20.489c-0.0395 0.0348-0.0892 0.0591-0.1451 0.0679-0.1566 0.0245-0.3034-0.0819-0.3279-0.2374-0.0504-0.3193-0.0554-0.6414-0.0145-0.9573 0.1097-0.8497 0.5232-1.477 0.8507-1.8535 0.104-0.1191 0.2847-0.1323 0.4045-0.0292 0.1199 0.103 0.133 0.2832 0.0294 0.4022-0.2759 0.3173-0.6239 0.8445-0.7156 1.5532-0.0339 0.2624-0.0297 0.5301 0.0122 0.7959 0.0157 0.0999-0.0228 0.1958-0.0937 0.2582z"/>
   <path d="m32.42 19.304c-0.0276 0.0242-0.0602 0.0436-0.0972 0.0561-0.1498 0.0509-0.313-0.0288-0.3642-0.1778l-0.4016-1.1698c-0.0511-0.1491 0.0289-0.3114 0.1788-0.3622 0.1498-0.0509 0.313 0.0288 0.3642 0.1777l0.4015 1.1699c0.0385 0.1123 0.0028 0.2321-0.0815 0.3061z"/>
   <path d="m42.158 13.03c-0.09 0.0792-0.2242 0.0962-0.3339 0.033l-0.7848-0.4524c-0.137-0.0789-0.1838-0.2534-0.1042-0.3898 0.0794-0.1365 0.2549-0.1827 0.392-0.1036l0.7848 0.4524c0.137 0.0789 0.1838 0.2535 0.1042 0.3897-0.0158 0.0273-0.0356 0.0509-0.0581 0.0707z"/>
   <path d="m45.02 11.657c-0.1056 0.0928-0.2666 0.0962-0.3767 0.0023-0.2757-0.2356-0.8618-0.6425-1.6876-0.7195-0.6112-0.057-1.1181 0.088-1.4359 0.2196-0.1462 0.0606-0.3141-0.0083-0.375-0.1537-0.0609-0.1453 8e-3 -0.3125 0.1545-0.3729 0.5418-0.2245 1.1331-0.3147 1.7099-0.2609 0.9841 0.0917 1.6805 0.5749 2.0081 0.8547 0.1201 0.1027 0.1338 0.2828 0.0306 0.4023-0.0086 0.0101-0.018 0.0195-0.0279 0.0281z"/>
  </g>
  <path d="m31.904 14.153c0.5134 0 0.9296-0.4139 0.9296-0.9244s-0.4162-0.9245-0.9296-0.9245-0.9296 0.414-0.9296 0.9245 0.4162 0.9244 0.9296 0.9244z" fill="#000"/>
  <path d="m37.51 11.043c0.5134 0 0.9296-0.4139 0.9296-0.9244 0-0.51059-0.4162-0.92447-0.9296-0.92447s-0.9296 0.41388-0.9296 0.92447c0 0.5105 0.4162 0.9244 0.9296 0.9244z" fill="#000"/>
  <g fill="#5648FF">
   <path d="m5.8838 36.453c0.85613-0.5378 2.7493-1.551 5.2213-1.4301 2.665 0.1305 5.9232 1.5753 6.8941 4.2591 0.4935 1.3639 0.5869 3.5753-0.555 4.2028-0.7412 0.4073-1.7197-0.0084-2.1352-0.215-0.0458-0.2436-0.2367-1.0965-1.0279-1.7439-0.9637-0.7886-2.0794-0.6677-2.2731-0.6436-0.0787-0.2565-0.3818-1.1319-1.2914-1.7344-0.77577-0.5138-1.5526-0.5377-1.8428-0.5323-0.11457-0.3033-0.35083-0.7998-0.83078-1.2511-0.83982-0.79-1.8421-0.892-2.1593-0.9115z"/>
   <path d="m32.996 52.569c0.1319-0.9984 0.2628-3.1325-0.8844-5.3132-1.2369-2.3513-3.9222-4.6867-6.7793-4.4376-1.4521 0.1266-3.51 0.9696-3.604 2.2636-0.061 0.84 0.729 1.549 1.0917 1.8374 0.2416-0.0608 1.1004-0.2462 2.0231 0.1966 1.1241 0.5392 1.4817 1.5971 1.5409 1.7822 0.2671-0.0367 1.1934-0.1301 2.1248 0.4384 0.7944 0.4847 1.142 1.176 1.2587 1.4402 0.3249-0.0237 0.8773-0.0187 1.4905 0.2252 1.0737 0.427 1.5872 1.2891 1.738 1.5672z"/>
   <path d="m23.547 27.791c3.5571-0.2158 6.6615 1.8916 8.1184 4.6978 1.6649 3.2068 1.2581 7.4803-1.3944 9.9544-2.6076 2.4321-6.1879 2.0082-6.9208 1.9213-0.7939-0.0939-3.06-0.3947-5.0094-2.208-1.9657-1.8285-3.2283-4.841-2.5243-7.9199 0.8176-3.5758 4.0551-6.2228 7.7305-6.4456z"/>
   <path d="m21.645 19.681c-0.0825 0.8761-0.0942 2.0363 0.1654 3.3606 0.4572 2.333 1.5277 4.0055 2.2266 4.9247-2.5997 1.957-5.1993 3.9139-7.7989 5.8709-2.3174-3.1054-2.5977-7.1505-0.7409-10.169 1.9865-3.2299 5.5599-3.8881 6.1478-3.9868z"/>
   <path d="m40.004 30.104c-0.7128 0.5212-1.7073 1.1284-2.9824 1.5886-2.2468 0.8108-4.2397 0.7589-5.3919 0.6361-0.3493 3.2237-0.6985 6.4475-1.0479 9.6711 3.8701 0.3777 7.5019-1.4653 9.1492-4.6024 1.7622-3.3559 0.4906-6.7413 0.273-7.2934z"/>
   <path d="m17.286 48.904c-0.3607-0.1812-1.3848-0.6957-1.9875-1.7858-1.0791-1.9516 0.0813-4.141 0.1876-4.3345 0.5668-0.3595 1.2461-0.8937 1.8518-1.6748 0.1682-0.2168 0.3139-0.431 0.4405-0.6378 0.0035-0.0071 0.0228-0.0442 0.0683-0.0595 0.0288-0.0096 0.0613-0.0084 0.0907 0.0061l5.7359 2.8214c0.0589 0.029 0.0829 0.0997 0.0539 0.1581-0.142 1.0042-0.2839 2.0085-0.4259 3.0127-0.0493 0.1257-1.1156 2.7234-3.4488 3.0282-1.1934 0.1558-2.2087-0.3544-2.5665-0.5341z"/>
  </g>
  <path d="m19.862 37.356c1.0421 0 1.8869-0.8401 1.8869-1.8764 0-1.0364-0.8448-1.8765-1.8869-1.8765s-1.887 0.8401-1.887 1.8765c0 1.0363 0.8449 1.8764 1.887 1.8764z" fill="#fff"/>
  <path d="m27.201 41.913c1.0422 0 1.887-0.8401 1.887-1.8764 0-1.0364-0.8448-1.8765-1.887-1.8765-1.0421 0-1.8869 0.8401-1.8869 1.8765 0 1.0363 0.8448 1.8764 1.8869 1.8764z" fill="#fff"/>
  <g fill="#090855">
   <path d="m20.983 43.779c-1.0256-0.3676-2.393-1.0578-3.4625-2.4652-0.7385-0.9718-1.2213-2.1493-1.3965-3.4053-0.0296-0.2124 0.1195-0.4084 0.3332-0.4379 0.2132-0.0293 0.4107 0.1189 0.4402 0.3314 0.1569 1.1249 0.5877 2.1774 1.2459 3.0437 1.3473 1.7724 3.2675 2.2824 4.0883 2.5002 1.3498 0.3583 2.8076 0.3794 4.2158 0.0613 0.2104-0.0473 0.4193 0.0837 0.4671 0.2926 0.0477 0.209-0.084 0.4171-0.2943 0.4646-1.5312 0.3458-3.1183 0.3223-4.59-0.0683-0.2616-0.0693-0.6257-0.166-1.0472-0.3171z"/>
   <path d="m20.542 48.103c-0.0838-0.03-0.1576-0.0886-0.2057-0.1714-0.1075-0.1858-0.0434-0.423 0.1435-0.5302 0.4451-0.2549 1.0662-0.7267 1.4969-1.5264 0.2607-0.484 0.4163-1.0333 0.4497-1.5883 0.0128-0.214 0.1978-0.3771 0.4131-0.3642 0.2156 0.013 0.3792 0.1968 0.3663 0.4108-0.0403 0.6663-0.2273 1.3262-0.5409 1.9082-0.5177 0.9614-1.2622 1.5275-1.7954 1.8329-0.1037 0.0591-0.2231 0.066-0.3275 0.0286z"/>
   <path d="m15.852 44.635c-0.1632-0.0585-0.2727-0.2209-0.2561-0.4008 0.0439-0.4745 0.1981-1.1874 0.6851-1.8894 0.3089-0.4453 0.7018-0.8178 1.1681-1.107 0.1828-0.1133 0.4234-0.0582 0.5377 0.1241 0.1142 0.1818 0.0583 0.4213-0.1246 0.5348-0.3749 0.2325-0.6907 0.5317-0.9387 0.8891-0.3908 0.5634-0.5149 1.1372-0.5502 1.5194-0.0196 0.2135-0.2097 0.3707-0.4244 0.3511-0.0339-3e-3 -0.0664-0.0104-0.0969-0.0213z"/>
   <path d="m28.149 31.503c-0.0776-0.0279-0.147-0.0802-0.1951-0.1542-0.3008-0.4621-0.9818-1.2927-2.1721-1.6575-0.8001-0.246-1.5201-0.1818-1.9834-0.0844-0.211 0.0448-0.418-0.0896-0.4625-0.2995-0.0447-0.2097 0.0903-0.4157 0.3012-0.46 0.5536-0.1164 1.4151-0.1932 2.3753 0.1021 1.4219 0.4389 2.2386 1.4269 2.5967 1.9774 0.1171 0.18 0.0654 0.4203-0.1155 0.5369-0.1063 0.0684-0.2339 0.0787-0.3446 0.0392z"/>
   <path d="m30.876 36.194c-0.1101-0.0395-0.2012-0.1275-0.2397-0.2469l-0.6507-2.0214c-0.0657-0.2041 0.0474-0.4227 0.2528-0.4881 0.2052-0.0653 0.425 0.0471 0.4908 0.2514l0.6507 2.0213c0.0656 0.2041-0.0475 0.4227-0.2528 0.4881-0.0852 0.0272-0.173 0.0237-0.2511-0.0044z"/>
   <path d="m16.236 25.446c-0.1705-0.0611-0.2803-0.2345-0.2538-0.4201 0.0885-0.618 0.396-1.8008 1.4595-2.7772 0.9375-0.8603 1.9958-1.1144 2.5431-1.1894 0.2136-0.029 0.4106 0.1193 0.4401 0.3317 0.0294 0.2125-0.1199 0.4083-0.3336 0.4376-0.4567 0.0625-1.3393 0.2744-2.1201 0.9908-0.8859 0.8132-1.1422 1.8001-1.2162 2.3163-0.0303 0.2122-0.228 0.3597-0.4415 0.3295-0.027-4e-3 -0.0529-0.0105-0.0775-0.0192z"/>
   <path d="m9.7225 37.692c-0.06761-0.0242-0.12918-0.0672-0.17635-0.1279-0.13174-0.1699-0.10008-0.4136 0.0706-0.5446 0.35019-0.2686 0.73362-0.485 1.1394-0.643 1.0917-0.4253 2.115-0.3448 2.781-0.2023 0.211 0.0454 0.3449 0.2515 0.2996 0.461-0.0452 0.2098-0.2529 0.3432-0.4637 0.298-0.5612-0.12-1.4214-0.1884-2.3321 0.1661-0.3371 0.1313-0.6556 0.3112-0.9473 0.5349-0.10956 0.0842-0.24997 0.1013-0.37117 0.0578z"/>
   <path d="m12.876 40.06c-0.0471-0.0169-0.0917-0.0431-0.1309-0.0787-0.1591-0.1447-0.1702-0.3903-0.0247-0.5485l1.1415-1.2415c0.1456-0.1583 0.3925-0.1694 0.5515-0.0247 0.1591 0.1447 0.1702 0.3903 0.0247 0.5486l-1.1415 1.2414c-0.1095 0.1191-0.2768 0.1549-0.4206 0.1034z"/>
   <path d="m26.773 47.516c-0.1539-0.0551-0.2619-0.2032-0.2578-0.3748l0.0298-1.2273c0.0051-0.2143 0.1841-0.384 0.3997-0.3786 0.2158 0.0049 0.386 0.183 0.3808 0.3974l-0.0299 1.2274c-0.0051 0.2143-0.1841 0.3839-0.3997 0.3786-0.0432-9e-4 -0.0845-0.0089-0.1229-0.0227z"/>
   <path d="m30.292 50.016c-0.1805-0.0648-0.29-0.2536-0.2491-0.4455 0.1025-0.4814 0.2075-1.443-0.24-2.4736-0.3313-0.7628-0.8368-1.2697-1.2024-1.5608-0.1683-0.134-0.1955-0.3783-0.0608-0.5458 0.1346-0.1673 0.3803-0.1948 0.5487-0.0605 0.6237 0.4963 1.1186 1.1392 1.4312 1.859 0.5334 1.2281 0.4088 2.3706 0.2871 2.9424-0.0447 0.2097-0.2518 0.3438-0.4628 0.2993-0.0179-0.0035-0.0353-0.0085-0.0519-0.0145z"/>
  </g>
  <path d="m19.83 36.733c0.6987 0 1.2651-0.5632 1.2651-1.2581 0-0.6948-0.5664-1.258-1.2651-1.258s-1.2651 0.5632-1.2651 1.258c0 0.6949 0.5664 1.2581 1.2651 1.2581z" fill="#1B1B36"/>
  <path d="m27.229 41.353c0.6986 0 1.2651-0.5633 1.2651-1.2581s-0.5665-1.258-1.2651-1.258c-0.6987 0-1.2652 0.5632-1.2652 1.258s0.5665 1.2581 1.2652 1.2581z" fill="#1B1B36"/>
 </g>
 <defs>
  <clipPath id="clip0_4098_191887">
   <rect width="46" height="50" fill="#fff"/>
  </clipPath>
 </defs>
</svg>
