<svg width="8" height="8" viewBox="0 0 8 8" fill="none" xmlns="http://www.w3.org/2000/svg">
  <path
    d="M7.79512 1.19413C8.0683 0.920955 8.0683 0.478053 7.79512 0.20488C7.52195 -0.0682933 7.07905 -0.0682933 6.80587 0.20488L4 3.01075L1.19413 0.20488C0.920955 -0.0682934 0.478054 -0.0682933 0.20488 0.20488C-0.0682934 0.478053 -0.0682934 0.920955 0.20488 1.19413L3.01075 4L0.20488 6.80587C-0.0682934 7.07904 -0.0682934 7.52195 0.20488 7.79512C0.478054 8.06829 0.920955 8.06829 1.19413 7.79512L4 4.98925L6.80587 7.79512C7.07905 8.06829 7.52195 8.06829 7.79512 7.79512C8.0683 7.52195 8.0683 7.07904 7.79512 6.80587L4.98925 4L7.79512 1.19413Z"
    fill="currentColor"/>
</svg>
