<svg width="24" height="24" fill="none" version="1.1" viewBox="0 0 24 24" xmlns="http://www.w3.org/2000/svg">
 <path d="m11.152 2.2871c0.2793-0.02453 0.5623-0.03707 0.8484-0.03707 0.2862 0 0.5692 0.01254 0.8485 0.03707 0.0527 0.00462 0.1606 0.05517 0.2032 0.21933l0.4293 1.6579c0.2178 0.84081 0.8158 1.4498 1.4814 1.7828 0.2578 0.12891 0.5063 0.2742 0.7441 0.43455 0.6188 0.41727 1.4408 0.6359 2.2714 0.40582l1.6382-0.45393c0.1618-0.04484 0.2592 0.02394 0.2898 0.06784 0.3246 0.46635 0.6095 0.96249 0.8502 1.4834 0.0219 0.04779 0.0328 0.16707-0.0868 0.28638l-1.2103 1.2077c-0.6113 0.60995-0.8353 1.4362-0.7882 2.1849 0.0091 0.1441 0.0137 0.2895 0.0137 0.4362s-0.0046 0.2921-0.0137 0.4362c-0.0471 0.7487 0.1769 1.575 0.7882 2.1849l1.2103 1.2076c0.1196 0.1194 0.1087 0.2387 0.0868 0.2865-0.2407 0.521-0.5256 1.017-0.8502 1.4834-0.0306 0.0439-0.128 0.1127-0.2898 0.0679l-1.6382-0.454c-0.8306-0.2301-1.6526-0.0114-2.2714 0.4059-0.2378 0.1604-0.4863 0.3056-0.7441 0.4345-0.6656 0.3329-1.2636 0.9419-1.4814 1.7828l-0.4293 1.6579c-0.0426 0.1641-0.1505 0.2147-0.2032 0.2193-0.2793 0.0245-0.5623 0.0371-0.8485 0.0371-0.2861 0-0.5691-0.0126-0.8484-0.0371-0.0528-0.0046-0.1607-0.0552-0.2032-0.2193l-0.4294-1.6581c-0.21775-0.8407-0.81568-1.4497-1.4813-1.7826-0.25773-0.1289-0.50617-0.2741-0.74397-0.4345-0.61886-0.4173-1.441-0.636-2.2714-0.4059l-1.6384 0.454c-0.16177 0.0448-0.25923-0.024-0.2898-0.0679-0.32452-0.4664-0.60947-0.9624-0.85004-1.4834-0.02207-0.0478-0.0329-0.1671 0.08666-0.2865l1.2104-1.2077c0.61128-0.6099 0.83533-1.4362 0.78815-2.1848-0.00906-0.1441-0.01368-0.2895-0.01368-0.4362s0.00462-0.2921 0.01368-0.4362c0.04718-0.7486-0.17687-1.5749-0.78815-2.1848l-1.2104-1.2078c-0.11956-0.11929-0.10873-0.23858-0.08666-0.28637 0.24057-0.52096 0.52552-1.0171 0.85005-1.4834 0.03056-0.0439 0.12802-0.11266 0.28979-0.06784l1.6384 0.45394c0.83041 0.23008 1.6525 0.01146 2.2714-0.40581 0.2378-0.16034 0.48624-0.30562 0.74397-0.43454 0.66562-0.33294 1.2636-0.94195 1.4813-1.7828l0.4294-1.658c0.0425-0.16416 0.1504-0.21471 0.2032-0.21933zm0.8484-2.2871c-0.3506 0-0.698 0.015368-1.0414 0.045515-1.1033 0.096856-1.9147 0.92205-2.1658 1.8916l-0.42943 1.658c-0.02593 0.10017-0.1172 0.23708-0.31467 0.33585-0.34404 0.17208-0.67538 0.36587-0.99228 0.57955-0.18268 0.12316-0.3455 0.13465-0.44452 0.10721l-1.6384-0.45396c-0.95549-0.26473-2.0668 0.03073-2.7024 0.94402-0.39918 0.57362-0.75002 1.1844-1.0464 1.8262-0.46786 1.0132-0.1651 2.1342 0.53997 2.8378l1.2104 1.2077c0.073 0.0729 0.14451 0.2208 0.13059 0.4416-0.01206 0.1916-0.01818 0.3846-0.01818 0.579s0.00612 0.3874 0.01818 0.579c0.01392 0.2208-0.05759 0.3687-0.13059 0.4416l-1.2104 1.2077c-0.70507 0.7035-1.0078 1.8246-0.53997 2.8378 0.29638 0.6419 0.64722 1.2525 1.0464 1.8261 0.63555 0.9133 1.7469 1.2088 2.7024 0.9441l1.6384-0.4539c0.09902-0.0275 0.26186-0.016 0.44452 0.1071 0.3169 0.2138 0.64824 0.4075 0.99228 0.5796 0.19747 0.0987 0.28874 0.2356 0.31467 0.3358l0.42943 1.658c0.25111 0.9696 1.0624 1.7947 2.1658 1.8916 0.3434 0.0302 0.6908 0.0455 1.0414 0.0455 0.3507 0 0.6981-0.0153 1.0415-0.0455 1.1033-0.0969 1.9147-0.922 2.1657-1.8916l0.4295-1.658c0.026-0.1002 0.1172-0.237 0.3147-0.3358 0.3441-0.1721 0.6755-0.3658 0.9923-0.5796 0.1827-0.1231 0.3455-0.1346 0.4446-0.1071l1.6383 0.4539c0.9555 0.2647 2.0668-0.0308 2.7024-0.944 0.3991-0.5737 0.75-1.1843 1.0463-1.8262 0.468-1.0132 0.1652-2.1343-0.5399-2.8378l-1.2103-1.2077c-0.0731-0.0728-0.1446-0.2207-0.1306-0.4415 0.012-0.1916 0.0181-0.3847 0.0181-0.5791s-0.0061-0.3875-0.0181-0.5791c-0.014-0.2208 0.0575-0.3687 0.1306-0.4415l1.2103-1.2077c0.7051-0.70352 1.0079-1.8246 0.5399-2.8378-0.2963-0.64184-0.6472-1.2526-1.0463-1.8262-0.6356-0.91331-1.7469-1.2088-2.7024-0.94402l-1.6383 0.45393c-0.0991 0.02744-0.2619 0.01597-0.4446-0.1072-0.3168-0.21369-0.6482-0.40749-0.9923-0.57959-0.1975-0.09876-0.2887-0.23566-0.3147-0.33584l-0.4295-1.6579c-0.251-0.96951-1.0624-1.7947-2.1657-1.8916-0.3434-0.030147-0.6908-0.045514-1.0415-0.045514zm2.2282 12c0 1.2426-0.9976 2.25-2.2282 2.25-1.2305 0-2.2281-1.0074-2.2281-2.25s0.9976-2.25 2.2281-2.25c1.2306 0 2.2282 1.0074 2.2282 2.25zm2.2281 0c0 2.4853-1.9951 4.5-4.4563 4.5-2.4611 0-4.4562-2.0147-4.4562-4.5 0-2.4853 1.9952-4.5 4.4562-4.5 2.4612 0 4.4563 2.0147 4.4563 4.5z" clip-rule="evenodd" fill="currentColor" fill-rule="evenodd"/>
</svg>
