<svg width="24" height="24" viewBox="0 0 24 24" fill="none" xmlns="http://www.w3.org/2000/svg">
<path fill-rule="evenodd" clip-rule="evenodd" d="M23.25 8.05725C21.1189 9.32775 20.3827 12.1222 21.6065 14.3032V14.3025C22.0102 15.0225 22.578 15.5857 23.2332 15.972L20.941 20.0573C18.8085 18.801 16.095 19.5443 14.8734 21.7215C14.4711 22.44 14.2802 23.2245 14.2824 24H9.69869C9.6863 21.4748 7.70604 19.431 5.26443 19.431C4.45615 19.431 3.69815 19.6545 3.04584 20.046L0.753644 15.9608C2.87675 14.6888 3.60851 11.8988 2.38697 9.7215C1.98101 8.997 1.4096 8.43225 0.75 8.046L3.04147 3.96075C5.17551 5.22525 7.89554 4.4835 9.11926 2.3025C9.52668 1.57725 9.71618 0.783 9.71035 0H14.294C14.294 2.53725 16.2794 4.59375 18.729 4.59375C19.5417 4.59375 20.3033 4.36725 20.9578 3.972L23.25 8.05725ZM7.27747 12.0009C7.27747 14.6844 9.39183 16.8601 11.9996 16.8601C14.6074 16.8601 16.7218 14.6844 16.7218 12.0009C16.7218 9.31735 14.6074 7.1416 11.9996 7.1416C9.39183 7.1416 7.27747 9.31735 7.27747 12.0009Z" fill="currentColor"/>
</svg>
