<svg width="36" height="36" viewBox="0 0 36 36" fill="none" xmlns="http://www.w3.org/2000/svg">
    <rect x="0.5" y="0.5" width="35" height="35" rx="3.5" fill="white" />
    <rect x="0.5" y="0.5" width="35" height="35" rx="3.5" stroke="#E5E7EB" />
    <g clip-path="url(#clip0_17452_43367)">
        <mask id="mask0_17452_43367" style="mask-type:luminance" maskUnits="userSpaceOnUse" x="11" y="8" width="15" height="20">
            <path
                d="M20.0796 8.28613H12.5734C11.8449 8.28613 11.2488 8.88221 11.2488 9.61076V26.3894C11.2488 27.1179 11.8449 27.714 12.5734 27.714H24.0535C24.782 27.714 25.3781 27.1179 25.3781 26.3894V13.5846L20.0796 8.28613Z"
                fill="white" />
        </mask>
        <g mask="url(#mask0_17452_43367)">
            <path
                d="M20.0796 8.28613H12.5734C11.8449 8.28613 11.2488 8.88221 11.2488 9.61076V26.3894C11.2488 27.1179 11.8449 27.714 12.5734 27.714H24.0535C24.782 27.714 25.3781 27.1179 25.3781 26.3894V13.5846L22.2873 11.3769L20.0796 8.28613Z"
                fill="#0F9D58" />
        </g>
        <mask id="mask1_17452_43367" style="mask-type:luminance" maskUnits="userSpaceOnUse" x="11" y="8" width="15" height="20">
            <path
                d="M20.0796 8.28613H12.5734C11.8449 8.28613 11.2488 8.88221 11.2488 9.61076V26.3894C11.2488 27.1179 11.8449 27.714 12.5734 27.714H24.0535C24.782 27.714 25.3781 27.1179 25.3781 26.3894V13.5846L20.0796 8.28613Z"
                fill="white" />
        </mask>
        <g mask="url(#mask1_17452_43367)">
            <path
                d="M14.781 17.7793V24.1817H21.8457V17.7793H14.781ZM17.8718 23.2986H15.6641V22.1947H17.8718V23.2986ZM17.8718 21.5324H15.6641V20.4286H17.8718V21.5324ZM17.8718 19.7662H15.6641V18.6624H17.8718V19.7662ZM20.9626 23.2986H18.7549V22.1947H20.9626V23.2986ZM20.9626 21.5324H18.7549V20.4286H20.9626V21.5324ZM20.9626 19.7662H18.7549V18.6624H20.9626V19.7662Z"
                fill="#F1F1F1" />
        </g>
        <mask id="mask2_17452_43367" style="mask-type:luminance" maskUnits="userSpaceOnUse" x="11" y="8" width="15" height="20">
            <path
                d="M20.0796 8.28613H12.5734C11.8449 8.28613 11.2488 8.88221 11.2488 9.61076V26.3894C11.2488 27.1179 11.8449 27.714 12.5734 27.714H24.0535C24.782 27.714 25.3781 27.1179 25.3781 26.3894V13.5846L20.0796 8.28613Z"
                fill="white" />
        </mask>
        <g mask="url(#mask2_17452_43367)">
            <path d="M20.467 13.1971L25.3781 18.1071V13.5846L20.467 13.1971Z" fill="url(#paint0_linear_17452_43367)" />
        </g>
        <mask id="mask3_17452_43367" style="mask-type:luminance" maskUnits="userSpaceOnUse" x="11" y="8" width="15" height="20">
            <path
                d="M20.0796 8.28613H12.5734C11.8449 8.28613 11.2488 8.88221 11.2488 9.61076V26.3894C11.2488 27.1179 11.8449 27.714 12.5734 27.714H24.0535C24.782 27.714 25.3781 27.1179 25.3781 26.3894V13.5846L20.0796 8.28613Z"
                fill="white" />
        </mask>
        <g mask="url(#mask3_17452_43367)">
            <path d="M20.0796 8.28613V12.26C20.0796 12.9919 20.6724 13.5846 21.4042 13.5846H25.3781L20.0796 8.28613Z" fill="#87CEAC" />
        </g>
        <mask id="mask4_17452_43367" style="mask-type:luminance" maskUnits="userSpaceOnUse" x="11" y="8" width="15" height="20">
            <path
                d="M20.0796 8.28613H12.5734C11.8449 8.28613 11.2488 8.88221 11.2488 9.61076V26.3894C11.2488 27.1179 11.8449 27.714 12.5734 27.714H24.0535C24.782 27.714 25.3781 27.1179 25.3781 26.3894V13.5846L20.0796 8.28613Z"
                fill="white" />
        </mask>
        <g mask="url(#mask4_17452_43367)">
            <path d="M12.5734 8.28613C11.8449 8.28613 11.2488 8.88221 11.2488 9.61076V9.72115C11.2488 8.9926 11.8449 8.39652 12.5734 8.39652H20.0796V8.28613H12.5734Z"
                fill="white" fill-opacity="0.2" />
        </g>
        <mask id="mask5_17452_43367" style="mask-type:luminance" maskUnits="userSpaceOnUse" x="11" y="8" width="15" height="20">
            <path
                d="M20.0796 8.28613H12.5734C11.8449 8.28613 11.2488 8.88221 11.2488 9.61076V26.3894C11.2488 27.1179 11.8449 27.714 12.5734 27.714H24.0535C24.782 27.714 25.3781 27.1179 25.3781 26.3894V13.5846L20.0796 8.28613Z"
                fill="white" />
        </mask>
        <g mask="url(#mask5_17452_43367)">
            <path
                d="M24.0535 27.6036H12.5734C11.8449 27.6036 11.2488 27.0075 11.2488 26.2789V26.3893C11.2488 27.1179 11.8449 27.7139 12.5734 27.7139H24.0535C24.782 27.7139 25.3781 27.1179 25.3781 26.3893V26.2789C25.3781 27.0075 24.782 27.6036 24.0535 27.6036Z"
                fill="#263238" fill-opacity="0.2" />
        </g>
        <mask id="mask6_17452_43367" style="mask-type:luminance" maskUnits="userSpaceOnUse" x="11" y="8" width="15" height="20">
            <path
                d="M20.0796 8.28613H12.5734C11.8449 8.28613 11.2488 8.88221 11.2488 9.61076V26.3894C11.2488 27.1179 11.8449 27.714 12.5734 27.714H24.0535C24.782 27.714 25.3781 27.1179 25.3781 26.3894V13.5846L20.0796 8.28613Z"
                fill="white" />
        </mask>
        <g mask="url(#mask6_17452_43367)">
            <path d="M21.4042 13.5846C20.6724 13.5846 20.0796 12.9919 20.0796 12.26V12.3704C20.0796 13.1023 20.6724 13.695 21.4042 13.695H25.3781V13.5846H21.4042Z"
                fill="#263238" fill-opacity="0.1" />
        </g>
        <path
            d="M20.0796 8.28613H12.5734C11.8449 8.28613 11.2488 8.88221 11.2488 9.61076V26.3894C11.2488 27.1179 11.8449 27.714 12.5734 27.714H24.0535C24.782 27.714 25.3781 27.1179 25.3781 26.3894V13.5846L20.0796 8.28613Z"
            fill="url(#paint1_radial_17452_43367)" />
    </g>
    <defs>
        <linearGradient id="paint0_linear_17452_43367" x1="266.046" y1="55.3545" x2="266.046" y2="504.261" gradientUnits="userSpaceOnUse">
            <stop stop-color="#263238" stop-opacity="0.2" />
            <stop offset="1" stop-color="#263238" stop-opacity="0.02" />
        </linearGradient>
        <radialGradient id="paint1_radial_17452_43367" cx="0" cy="0" r="1" gradientUnits="userSpaceOnUse"
            gradientTransform="translate(56.0113 46.6841) scale(2278.34 2278.34)">
            <stop stop-color="white" stop-opacity="0.1" />
            <stop offset="1" stop-color="white" stop-opacity="0" />
        </radialGradient>
        <clipPath id="clip0_17452_43367">
            <rect width="14.6269" height="20" fill="white" transform="translate(11 8)" />
        </clipPath>
    </defs>
</svg>