<svg width="40" height="40" viewBox="0 0 40 40" xmlns="http://www.w3.org/2000/svg">
  <rect x="6" y="6" width="28" height="28" rx="3"/>
  <path d="m16.906 27c-2.4026-1e-4 -4.4059-1.9612-4.4059-4.4336 0-1.315 0.44896-2.5423 1.3153-3.4479l4.5893-4.7645c0.2408-0.28589 0.7083-0.2998 0.9641-0.02869 0.2558 0.27113 0.2391 0.76295-0.0303 1.0103l-4.587 4.7687c-0.61734 0.6453-0.92903 1.4974-0.92903 2.4621 0 1.7006 1.3846 3.0422 3.0834 3.0422 0.7842 0 1.5582-0.3455 2.1603-0.9778l6.5544-6.873c0.3545-0.3723 0.5571-0.8439 0.5571-1.2815 0-0.59694-0.1856-1.1238-0.5512-1.5089-0.7398-0.77933-1.9003-0.77933-2.64 0-1.1814 1.2447-0.472 0.49537-2.5989 2.734-2.1432 2.2559-2.268 2.3861-3.4532 3.6343-0.2949 0.3649-0.3214 0.7919-0.1022 1.0587 0.3151 0.2609 0.7278 0.2571 0.9616 0.0258 1.6385-1.7146 1.268-1.3141 4.1912-4.3732l-0.3403 0.3627c0.7308-0.7648 0.7308-0.7648 1.4579-1.5255 0.2408-0.2858 0.7084-0.2997 0.9641-0.0286 0.2558 0.2711 0.2392 0.7629-0.0303 1.0102l-5.3192 5.5465c-0.951 0.8034-2.1352 0.8028-2.8089-0.0139-0.73186-0.797-0.69489-2.0828 0.02499-2.9731 0.44902-0.4731 0.44902-0.4731 0.89872-0.9468 1.3631-1.4361 4.0704-4.2872 5.2179-5.4962 1.2432-1.3097 3.2699-1.3097 4.5132-1e-5 0.6215 0.65475 0.937 1.5494 0.937 2.4941 0 0.826-0.349 1.6368-0.9491 2.267l-6.5545 6.8729c-0.8449 0.8873-1.9537 1.3823-3.0905 1.3837z" clip-rule="evenodd" fill="currentColor" fill-rule="evenodd"/>
</svg>
