<svg width="32" height="32" viewBox="0 0 32 32" fill="none" xmlns="http://www.w3.org/2000/svg">
    <rect width="32" height="32" rx="4.8" fill="#D32D2F" />
    <path
        d="M16.375 8C13.1688 8 10 10.1375 10 13.5969C10 15.7969 11.2375 17.0469 11.9875 17.0469C12.2969 17.0469 12.475 16.1844 12.475 15.9406C12.475 15.65 11.7344 15.0312 11.7344 13.8219C11.7344 11.3094 13.6469 9.52813 16.1219 9.52813C18.25 9.52813 19.825 10.7375 19.825 12.9594C19.825 14.6187 19.1594 17.7312 17.0031 17.7312C16.225 17.7312 15.5594 17.1687 15.5594 16.3625C15.5594 15.1813 16.3844 14.0375 16.3844 12.8187C16.3844 10.75 13.45 11.125 13.45 13.625C13.45 14.15 13.5156 14.7312 13.75 15.2094C13.3187 17.0656 12.4375 19.8312 12.4375 21.7437C12.4375 22.3344 12.5219 22.9156 12.5781 23.5063C12.6844 23.625 12.6313 23.6125 12.7938 23.5531C14.3688 21.3969 14.3125 20.975 15.025 18.1531C15.4094 18.8844 16.4031 19.2781 17.1906 19.2781C20.5094 19.2781 22 16.0438 22 13.1281C22 10.025 19.3188 8 16.375 8Z"
        fill="white" />
</svg>