<svg width="40" height="40" viewBox="0 0 40 40" xmlns="http://www.w3.org/2000/svg">
  <path d="m7.0039 18.321h1.8445v-4.3253h4.718v4.3253h1.8494v-10.182h-1.8494v4.3104h-4.718v-4.3104h-1.8445z" fill="currentColor"/>
  <path d="m17.322 18.321h6.9802v-1.5412h-4.4347v-0.0696l1.755-1.7848c1.9787-1.8992 2.5255-2.8239 2.5255-3.9723 0-1.7052-1.387-2.9531-3.4353-2.9531-2.0185 0-3.4503 1.2528-3.4503 3.1868h1.755c0-1.0391 0.6562-1.6903 1.6704-1.6903 0.9695 0 1.6904 0.59162 1.6904 1.5511 0 0.85014-0.5171 1.4567-1.5214 2.4758l-3.5348 3.4652z" fill="currentColor"/>
  <path d="m34 26.821c0 0.2761-0.2239 0.5-0.5 0.5h-27c-0.27614 0-0.5-0.2239-0.5-0.5v-1c0-0.2762 0.22386-0.5 0.5-0.5h27c0.2761 0 0.5 0.2238 0.5 0.5z" clip-rule="evenodd" fill-rule="evenodd"/>
  <path d="m23 32.821c0 0.2761-0.2239 0.5-0.5 0.5h-16c-0.27614 0-0.5-0.2239-0.5-0.5v-1c0-0.2762 0.22386-0.5 0.5-0.5h16c0.2761 0 0.5 0.2238 0.5 0.5z" clip-rule="evenodd" fill-rule="evenodd"/>
</svg>
