<svg width="36" height="36" viewBox="0 0 36 36" fill="none" xmlns="http://www.w3.org/2000/svg">
    <rect x="0.5" y="0.5" width="35" height="35" rx="3.5" fill="white" />
    <rect x="0.5" y="0.5" width="35" height="35" rx="3.5" stroke="#E5E7EB" />
    <path
        d="M15.5 23V12.1667L25.5 10.5V21.3333M15.5 23C15.5 24.3807 14.3807 25.5 13 25.5C11.6193 25.5 10.5 24.3807 10.5 23C10.5 21.6193 11.6193 20.5 13 20.5C14.3807 20.5 15.5 21.6193 15.5 23ZM25.5 21.3333C25.5 22.714 24.3807 23.8333 23 23.8333C21.6193 23.8333 20.5 22.714 20.5 21.3333C20.5 19.9526 21.6193 18.8333 23 18.8333C24.3807 18.8333 25.5 19.9526 25.5 21.3333ZM15.5 15.5L25.5 13.8333"
        stroke="#4B5563" stroke-width="1.6" stroke-linecap="round" stroke-linejoin="round" />
</svg>