<svg width="32" height="32" viewBox="0 0 32 32" fill="none" xmlns="http://www.w3.org/2000/svg">
    <rect width="32" height="32" rx="4.8" fill="#62D2FA" />
    <path
        d="M23.9929 12.1969C23.9214 13.7546 22.8357 15.8875 20.7286 18.5956C18.5536 21.4252 16.7143 22.84 15.2071 22.84C14.275 22.84 13.4857 21.979 12.8393 20.2569C11.5821 15.641 11.0464 12.9365 10.0071 12.9365C9.88571 12.9365 9.46786 13.1901 8.75 13.6903L8 12.7185C9.84286 11.1001 11.6036 9.29943 12.7071 9.1994C13.9536 9.07792 14.7179 9.9318 15.0071 11.7539C16.0321 18.2384 16.4857 19.2173 18.35 16.2805C19.0179 15.223 19.3786 14.4191 19.4286 13.8654C19.6 12.2255 18.15 12.3362 17.1679 12.7578C17.9536 10.1819 19.4571 8.93144 21.675 9.0029C23.3107 9.04577 24.0857 10.114 23.9929 12.1969Z"
        fill="black" />
</svg>