<svg width="36" height="36" viewBox="0 0 36 36" fill="none" xmlns="http://www.w3.org/2000/svg">
    <rect width="36" height="36" rx="4" fill="#1A1A19" />
    <path
        d="M20.6299 11.4944C20.6299 12.5248 20.2495 13.9423 19.6887 15.8472L19.2875 17.3103L20.5572 16.4809C22.9707 14.7862 24.4283 14.1501 25.393 14.1501C26.4903 14.1501 27.6234 14.9342 27.6234 16.4938C27.6234 18.4776 25.5054 19.0411 21.4163 19.1106L19.8874 19.1825L21.0931 20.1423C23.9557 22.3488 24.948 23.4297 24.948 24.7993C24.948 25.8772 23.9462 27 22.7042 27C20.8379 27 19.9944 25.0607 18.8573 21.7683L18.2777 20.3373L17.7323 21.7683C16.4579 25.5079 15.477 26.9656 13.8512 26.9656C12.5405 26.9656 11.6074 25.7741 11.6074 24.765C11.6074 23.2576 12.9774 22.0047 15.4966 20.1423L16.7024 19.1825L15.2078 19.1106C10.8648 19.0756 9 18.4509 9 16.4593C9 14.8999 10.168 14.1157 11.2445 14.1157C12.5445 14.1157 13.9623 14.9926 16.0668 16.4809L17.3365 17.3103L16.9353 15.8472C16.3273 13.8391 16.0419 12.3659 16.0419 11.4944C16.0419 10.1302 16.8108 9 18.312 9C19.8476 9 20.6299 10.1302 20.6299 11.4944Z"
        fill="white" />
</svg>