<svg width="40" height="40" viewBox="0 0 40 40" xmlns="http://www.w3.org/2000/svg">
  <path d="m 7.00391,18.1818 h 1.84446 v -4.32527 h 4.71804 v 4.32527 h 1.84943 V 8 h -1.84943 v 4.31037 H 8.84837 V 8 H 7.00391 Z" fill="currentColor"/>
  <path d="m 21.4638,8 h -1.755 l -2.5305,1.62571 v 1.69034 l 2.3814,-1.52131 h 0.0596 v 8.38706 h 1.8445 z" fill="currentColor"/>
  <path fill-rule="evenodd" clip-rule="evenodd" d="m 34,26.6816 c 0,0.2762 -0.2239,0.5 -0.5,0.5 h -27 c -0.276142,0 -0.5,-0.2238 -0.5,-0.5 v -1 c 0,-0.2761 0.223857,-0.5 0.5,-0.5 h 27 c 0.2761,0 0.5,0.2239 0.5,0.5 z"/>
  <path fill-rule="evenodd" clip-rule="evenodd" d="m 23,32.6816 c 0,0.2762 -0.2239,0.5 -0.5,0.5 h -16 c -0.276142,0 -0.5,-0.2238 -0.5,-0.5 v -1 c 0,-0.2761 0.223858,-0.5 0.5,-0.5 h 16 c 0.2761,0 0.5,0.2239 0.5,0.5 z"/>
</svg>
