<svg width="32" height="32" viewBox="0 0 32 32" fill="none" xmlns="http://www.w3.org/2000/svg">
    <rect x="0.4" y="0.4" width="31.2" height="31.2" rx="4.4" fill="white" />
    <path
        d="M13.0732 19.8555C13.568 20.4736 14.0699 21.248 14.3338 21.717C14.655 22.3264 14.787 22.738 15.0265 23.4723C15.167 23.8767 15.2989 24 15.5786 24C15.884 24 16.0231 23.7935 16.1307 23.4723C16.353 22.7796 16.5265 22.2533 16.7975 21.7499C17.3325 20.7862 18.0093 19.9287 18.6676 19.1055C18.8483 18.8746 20.0027 17.5151 20.5218 16.4367C20.5218 16.4367 21.1557 15.2579 21.1557 13.6101C21.1557 12.0699 20.529 10.9987 20.529 10.9987L18.7163 11.4848L17.6121 14.3845L17.3396 14.7803L17.2823 14.8549L17.2077 14.9452L17.0844 15.0929L16.9037 15.2736L15.9228 16.0724L13.4762 17.4893L13.0732 19.8555Z"
        fill="#34A853" />
    <path
        d="M10.5435 16.2388C11.1443 17.6069 12.2902 18.8015 13.0732 19.8555L17.2177 14.9452C17.2177 14.9452 16.6325 15.711 15.5785 15.711C14.3997 15.711 13.4446 14.7717 13.4446 13.5857C13.4446 12.7697 13.9307 12.2104 13.9307 12.2104L11.12 12.9605L10.5435 16.2388Z"
        fill="#FBBC04" />
    <path
        d="M17.2665 8.25525C18.6418 8.69981 19.8206 9.63053 20.5291 11.0072L17.2163 14.9538C17.2163 14.9538 17.7025 14.3859 17.7025 13.5785C17.7025 12.3667 16.6814 11.4532 15.5772 11.4532C14.5303 11.4532 13.9294 12.2119 13.9294 12.2119V9.72231L17.2665 8.25525Z"
        fill="#4285F4" />
    <path d="M11.3008 9.99337C12.1239 9.01246 13.5666 8 15.56 8C16.5237 8 17.2565 8.25527 17.2565 8.25527L13.9294 12.2105H11.5733L11.3008 9.99337Z" fill="#1A73E8" />
    <path d="M10.5435 16.2388C10.5435 16.2388 10 15.1589 10 13.6029C10 12.1287 10.5765 10.8423 11.3093 10.002L13.938 12.2176L10.5435 16.2388Z" fill="#EA4335" />
    <rect x="0.4" y="0.4" width="31.2" height="31.2" rx="4.4" stroke="#E5E7EB" stroke-width="0.8" />
</svg>