<svg width="40" height="40" viewBox="0 0 40 40" xmlns="http://www.w3.org/2000/svg">
 <g transform="translate(3.9996 12)" clip-rule="evenodd" fill-rule="evenodd">
  <path d="m30 6c0 0.27614-0.2239 0.5-0.5 0.5h-11c-0.2761 0-0.5-0.22386-0.5-0.5v-1c0-0.27614 0.2239-0.5 0.5-0.5h11c0.2761 0 0.5 0.22386 0.5 0.5z" />
  <path d="m26 11c0 0.2761-0.2239 0.5-0.5 0.5h-7c-0.2761 0-0.5-0.2239-0.5-0.5v-1c0-0.27614 0.2239-0.5 0.5-0.5h7c0.2761 0 0.5 0.22386 0.5 0.5z" />
  <path d="m8.2467 13.428 2.0173-2.0173 3.4529 3.4528c0.3165 0.3165 0.8296 0.3165 1.1461 0s0.3165-0.8296 0-1.1461l-3.4528-3.4529 2.0173-2.0173c0.9724-0.97235 0.502-2.6344-0.8358-2.9528l-2.3247-0.55352c-0.50749-0.12083-0.97149-0.38011-1.3404-0.74899-0.23515-0.23514-0.42683-0.51004-0.56619-0.81198l-0.58036-1.2575c-0.51249-1.1104-1.9741-1.3711-2.8389-0.50631l-3.5256 3.5256c-0.86476 0.86476-0.60408 2.3264 0.50631 2.8389l1.2574 0.58036c0.30195 0.13936 0.57685 0.33104 0.81199 0.56619 0.36888 0.36888 0.62816 0.83288 0.74899 1.3404l0.55353 2.3247c0.31851 1.3378 1.9805 1.8082 2.9528 0.8358zm-5.685-7.3401c-0.06731 0.06731-0.04703 0.18109 0.03941 0.22098l1.2574 0.58036c0.47556 0.2195 0.90853 0.5214 1.2789 0.89176 0.58098 0.58098 0.98934 1.3118 1.1796 2.1111l0.55353 2.3248c0.02479 0.1042 0.15416 0.1408 0.22985 0.0651l5.1808-5.1809c0.0757-0.07569 0.0391-0.20506-0.0651-0.22985l-2.3248-0.55352c-0.79929-0.19031-1.5301-0.59868-2.1111-1.1797-0.37037-0.37037-0.67226-0.80333-0.89176-1.2789l-0.58036-1.2574c-0.03989-0.08644-0.15367-0.10672-0.22098-0.03941z" fill="currentColor"/>
 </g>
</svg>
