<svg width="40" height="40" viewBox="0 0 40 40" xmlns="http://www.w3.org/2000/svg">
  <mask id="path-2-inside-1_1461_54102" fill="currentColor">
    <g clip-rule="evenodd" fill-rule="evenodd">
      <path d="m15 12c0 0.5523-0.4477 1-1 1h-8c-0.55228 0-1-0.4477-1-1v-6c0-0.55228 0.44772-1 1-1h8c0.5523 0 1 0.44772 1 1zm-8.5-0.5h7v-5h-7z"/>
      <path d="m23 22c0 0.5523-0.4477 1-1 1h-8c-0.5523 0-1-0.4477-1-1v-6c0-0.5523 0.4477-1 1-1h8c0.5523 0 1 0.4477 1 1zm-1.5-0.5v-5h-7v5z"/>
      <path d="m22 13c0.5523 0 1-0.4477 1-1v-6c0-0.55228-0.4477-1-1-1h-4c-0.5523 0-1 0.44772-1 1v6c0 0.5523 0.4477 1 1 1zm-0.5-1.5h-3v-5h3z"/>
      <path d="m11 22c0 0.5523-0.4477 1-1 1h-4c-0.55228 0-1-0.4477-1-1v-6c0-0.5523 0.44772-1 1-1h4c0.5523 0 1 0.4477 1 1zm-4.5-0.5h3v-5h-3z"/>
    </g>
  </mask>
  <rect x="6" y="6" width="28" height="28" rx="3"/>
  <g clip-rule="evenodd" fill="currentColor" fill-rule="evenodd">
    <path d="m21 18c0 0.5523-0.4477 1-1 1h-8c-0.55228 0-1-0.4477-1-1v-6c0-0.55228 0.44772-1 1-1h8c0.5523 0 1 0.44772 1 1zm-8.5-0.5h7v-5h-7z"/>
    <path d="m29 28c0 0.5523-0.4477 1-1 1h-8c-0.5523 0-1-0.4477-1-1v-6c0-0.5523 0.4477-1 1-1h8c0.5523 0 1 0.4477 1 1zm-1.5-0.5v-5h-7v5z"/>
    <path d="m28 19c0.5523 0 1-0.4477 1-1v-6c0-0.55228-0.4477-1-1-1h-4c-0.5523 0-1 0.44772-1 1v6c0 0.5523 0.4477 1 1 1zm-0.5-1.5h-3v-5h3z"/>
    <path d="m17 28c0 0.5523-0.4477 1-1 1h-4c-0.55228 0-1-0.4477-1-1v-6c0-0.5523 0.44772-1 1-1h4c0.5523 0 1 0.4477 1 1zm-4.5-0.5h3v-5h-3z"/>
  </g>
  <path transform="translate(6,6)" d="m13.5 11.5v1.5h1.5v-1.5zm-7 0h-1.5v1.5h1.5zm7-5h1.5v-1.5h-1.5zm-7 0v-1.5h-1.5v1.5zm15 10h1.5v-1.5h-1.5zm0 5v1.5h1.5v-1.5zm-7-5v-1.5h-1.5v1.5zm0 5h-1.5v1.5h1.5zm4-10h-1.5v1.5h1.5zm3 0v1.5h1.5v-1.5zm-3-5v-1.5h-1.5v1.5zm3 0h1.5v-1.5h-1.5zm-12 15v1.5h1.5v-1.5zm-3 0h-1.5v1.5h1.5zm3-5h1.5v-1.5h-1.5zm-3 0v-1.5h-1.5v1.5zm7-6.5h-7v3h7zm-1.5-3.5v5h3v-5zm-5.5 1.5h7v-3h-7zm1.5 3.5v-5h-3v5zm6 3c1.3807 0 2.5-1.1193 2.5-2.5h-3c0-0.2761 0.2239-0.5 0.5-0.5zm-8 0h8v-3h-8zm-2.5-2.5c0 1.3807 1.1193 2.5 2.5 2.5v-3c0.27614 0 0.5 0.2239 0.5 0.5zm0-6v6h3v-6zm2.5-2.5c-1.3807 0-2.5 1.1193-2.5 2.5h3c0 0.27614-0.22386 0.5-0.5 0.5zm8 0h-8v3h8zm2.5 2.5c0-1.3807-1.1193-2.5-2.5-2.5v3c-0.2761 0-0.5-0.22386-0.5-0.5zm0 6v-6h-3v6zm3.5 4.5v5h3v-5zm-5.5 1.5h7v-3h-7zm1.5 3.5v-5h-3v5zm5.5-1.5h-7v3h7zm0.5 4.5c1.3807 0 2.5-1.1193 2.5-2.5h-3c0-0.2761 0.2239-0.5 0.5-0.5zm-8 0h8v-3h-8zm-2.5-2.5c0 1.3807 1.1193 2.5 2.5 2.5v-3c0.2761 0 0.5 0.2239 0.5 0.5zm0-6v6h3v-6zm2.5-2.5c-1.3807 0-2.5 1.1193-2.5 2.5h3c0 0.2761-0.2239 0.5-0.5 0.5zm8 0h-8v3h8zm2.5 2.5c0-1.3807-1.1193-2.5-2.5-2.5v3c-0.2761 0-0.5-0.2239-0.5-0.5zm0 6v-6h-3v6zm-6-9h3v-3h-3zm-1.5-6.5v5h3v-5zm4.5-1.5h-3v3h3zm1.5 6.5v-5h-3v5zm-1.5 0.5c0-0.2761 0.2239-0.5 0.5-0.5v3c1.3807 0 2.5-1.1193 2.5-2.5zm0-6v6h3v-6zm0.5 0.5c-0.2761 0-0.5-0.22386-0.5-0.5h3c0-1.3807-1.1193-2.5-2.5-2.5zm-4 0h4v-3h-4zm0.5-0.5c0 0.27614-0.2239 0.5-0.5 0.5v-3c-1.3807 0-2.5 1.1193-2.5 2.5zm0 6v-6h-3v6zm-0.5-0.5c0.2761 0 0.5 0.2239 0.5 0.5h-3c0 1.3807 1.1193 2.5 2.5 2.5zm4 0h-4v3h4zm-12.5 8.5h-3v3h3zm-1.5-3.5v5h3v-5zm-1.5 1.5h3v-3h-3zm1.5 3.5v-5h-3v5zm2 3c1.3807 0 2.5-1.1193 2.5-2.5h-3c0-0.2761 0.22386-0.5 0.5-0.5zm-4 0h4v-3h-4zm-2.5-2.5c0 1.3807 1.1193 2.5 2.5 2.5v-3c0.27614 0 0.5 0.2239 0.5 0.5zm0-6v6h3v-6zm2.5-2.5c-1.3807 0-2.5 1.1193-2.5 2.5h3c0 0.2761-0.22386 0.5-0.5 0.5zm4 0h-4v3h4zm2.5 2.5c0-1.3807-1.1193-2.5-2.5-2.5v3c-0.27614 0-0.5-0.2239-0.5-0.5zm0 6v-6h-3v6z" fill="currentColor" mask="url(#path-2-inside-1_1461_54102)"/>
</svg>
