<svg width="40" height="40" viewBox="0 0 40 40" xmlns="http://www.w3.org/2000/svg">
  <rect x="6" y="6" width="28" height="28" rx="3"/>
  <path d="m27.364 15.703 1e-4 4e-5c0.0908 0.04927 0.1354 0.13373 0.1354 0.21315v8.5c0 0.0794-0.0446 0.1638-0.1354 0.213l-2e-4 2e-4c-0.0928 0.0503-0.2093 0.0488-0.3004-0.0036h-1e-4l-4.7813-2.7493v2.2063c0 0.6705-0.5734 1.25-1.3261 1.25h-7.1304c-0.75265 0-1.3261-0.5795-1.3261-1.25v-7.8333c0-0.67052 0.57344-1.25 1.3261-1.25h7.1304c0.7527 0 1.3261 0.57948 1.3261 1.25v2.2063l4.7813-2.7493c0.0912-0.05239 0.2077-0.05393 0.3006-0.0035zm-5.0819 5.2885v0.2893l0.2508 0.1442 3.6521 2.1 0.7493 0.4308v-7.5793l-0.7493 0.4309-3.6521 2.1-0.2508 0.1441v0.2893zm-0.5652-2.0753v-2.6667c0-0.43405-0.3609-0.75-0.7609-0.75h-7.1304c-0.39995 0-0.76087 0.31595-0.76087 0.75v7.8333c0 0.4342 0.36096 0.75 0.76087 0.75h7.1304c0.3999 0 0.7609-0.3158 0.7609-0.75v-2.6666z" fill="currentColor" stroke="currentColor"/>
</svg>
