<svg width="36" height="36" viewBox="0 0 36 36" fill="none" xmlns="http://www.w3.org/2000/svg">
    <rect x="0.5" y="0.5" width="35" height="35" rx="3.5" fill="white" />
    <rect x="0.5" y="0.5" width="35" height="35" rx="3.5" stroke="#E5E7EB" />
    <path
        d="M25.8654 17.2083L18.207 24.8666C17.2688 25.8048 15.9963 26.3319 14.6695 26.3319C13.3427 26.3319 12.0702 25.8048 11.132 24.8666C10.1938 23.9284 9.66675 22.656 9.66675 21.3291C9.66675 20.0023 10.1938 18.7298 11.132 17.7916L18.2737 10.65C18.8992 10.0234 19.7479 9.67095 20.6332 9.67017C21.5186 9.66939 22.368 10.0203 22.9945 10.6458C23.6211 11.2713 23.9735 12.12 23.9743 13.0054C23.9751 13.8907 23.6242 14.7401 22.9987 15.3666L15.8404 22.5083C15.5276 22.821 15.1035 22.9967 14.6612 22.9967C14.2189 22.9967 13.7948 22.821 13.482 22.5083C13.1693 22.1956 12.9936 21.7714 12.9936 21.3291C12.9936 20.8869 13.1693 20.4627 13.482 20.15L20.557 13.0833"
        stroke="#4B5563" stroke-width="1.6" stroke-linecap="round" stroke-linejoin="round" />
</svg>