<svg width="40" height="40" viewBox="0 0 40 40" xmlns="http://www.w3.org/2000/svg">
  <rect x="6" y="6" width="28" height="28" rx="3"/>
  <path d="m26.158 11.25c-1.5783 0-2.81 1.3189-2.81 2.8878s1.2317 2.8878 2.81 2.8878c1.5784 0 2.8101-1.3189 2.8101-2.8878s-1.2317-2.8878-2.8101-2.8878zm-1.31 2.8878c0-0.79335 0.612-1.3878 1.31-1.3878s1.3101 0.59445 1.3101 1.3878c0 0.79334-0.6121 1.3878-1.3101 1.3878s-1.31-0.59445-1.31-1.3878z" clip-rule="evenodd" fill="currentColor" fill-rule="evenodd"/>
  <path d="m18.4 17.064c-0.4202-0.1523-0.8827-0.138-1.2927 0.0398-0.2965 0.1287-0.5075 0.344-0.6745 0.549-0.1598 0.1963-0.3331 0.453-0.52771 0.7414l-3.8609 5.7198c-0.25668 0.3803-0.47782 0.7078-0.62882 0.9827-0.15096 0.2747-0.3016 0.6149-0.28012 1.0005 0.02852 0.5123 0.28043 0.9863 0.6891 1.2966 0.30766 0.2336 0.67386 0.299 0.98605 0.3276 0.31224 0.0286 0.70743 0.0286 1.1662 0.0286h12.089c0.4533 0 0.8443 0 1.1537-0.0284 0.31-0.0284 0.6729-0.0934 0.9791-0.3243 0.4075-0.3073 0.6606-0.7771 0.6929-1.2865 0.0243-0.3827-0.121-0.7215-0.2678-0.996-0.1466-0.2739-0.3618-0.6005-0.6112-0.9789l-2.9658-4.501c-0.1172-0.1779-0.2216-0.3364-0.3148-0.462-0.0963-0.1301-0.2145-0.2727-0.3719-0.3901-0.5831-0.4348-1.3743-0.4636-1.9875-0.0723-0.1655 0.1056-0.2937 0.2392-0.3993 0.3619-0.102 0.1186-0.2176 0.269-0.3475 0.4379l-0.0115 0.0151c-0.1358 0.1766-0.2195 0.285-0.2861 0.3625-0.0422 0.0492-0.0632 0.0685-0.0686 0.0732-0.0812 0.0511-0.1846 0.0511-0.2659 0-0.0054-0.0047-0.0264-0.024-0.0686-0.0732-0.0666-0.0775-0.1502-0.1859-0.286-0.3626l-0.9591-1.2475c-0.212-0.2758-0.4008-0.5214-0.5724-0.7074-0.1792-0.1944-0.4031-0.3963-0.707-0.5064zm-0.8041 1.536c0.0687-0.0844 0.1052-0.1151 0.1158-0.1231 0.0542-0.0215 0.1142-0.0234 0.1697-0.0053 0.011 0.0074 0.0493 0.0358 0.1231 0.1158 0.1202 0.1304 0.2678 0.3212 0.5048 0.6294l0.9511 1.2373c0.1212 0.1576 0.2299 0.299 0.3263 0.4113 0.1007 0.1172 0.222 0.2439 0.3785 0.3467 0.5833 0.3831 1.3385 0.3831 1.9217 0 0.1565-0.1028 0.2778-0.2295 0.3785-0.3467 0.0965-0.1123 0.2052-0.2537 0.3264-0.4114l0.0111-0.0144c0.1449-0.1886 0.2351-0.3055 0.3068-0.3888 0.0457-0.053 0.0685-0.0739 0.0743-0.079 0.0851-0.0515 0.1928-0.0476 0.274 0.0099 0.0054 0.0056 0.0266 0.028 0.0683 0.0843 0.0655 0.0883 0.1469 0.2114 0.2778 0.41l2.9363 4.4563c0.2739 0.4156 0.45 0.6843 0.5601 0.8901 0.069 0.129 0.0876 0.1906 0.0922 0.2082-0.0077 0.0621-0.0384 0.1191-0.0861 0.1597-0.0172 0.0058-0.0788 0.0243-0.2245 0.0376-0.2325 0.0213-0.5537 0.0221-1.0514 0.0221h-12.019c-0.5034 0-0.82882-8e-4 -1.0642-0.0224-0.1477-0.0135-0.2102-0.0322-0.22767-0.0381-0.04757-0.0409-0.07804-0.0982-0.08532-0.1605 0.0049-0.0178 0.02436-0.08 0.09578-0.21 0.11382-0.2072 0.29526-0.4773 0.5769-0.8946l3.824-5.6651c0.2175-0.3222 0.3531-0.5218 0.465-0.6593z" clip-rule="evenodd" fill="currentColor" fill-rule="evenodd"/>
</svg>
