<svg width="36" height="36" viewBox="0 0 36 36" fill="none" xmlns="http://www.w3.org/2000/svg">
    <rect width="36" height="36" rx="4" fill="#1AB7EA" />
    <path
        d="M26.4918 13.6934C26.4065 15.485 25.1481 17.9591 22.7167 21.0944C20.1999 24.3577 18.0671 26 16.3395 26C15.2517 26 14.3559 24.9976 13.6094 23.014C13.1188 21.1798 12.607 19.3668 12.1164 17.5326C11.5619 15.549 10.9647 14.5466 10.3248 14.5466C10.1968 14.5466 9.70628 14.8452 8.87447 15.4211L8 14.2906C8.91713 13.4802 9.81292 12.691 10.7087 11.8805C11.9244 10.8354 12.8416 10.2809 13.4601 10.2169C14.8891 10.0889 15.7849 11.07 16.1262 13.1602C16.4888 15.4424 16.7447 16.8501 16.8727 17.4046C17.2779 19.2815 17.7471 20.2413 18.2377 20.2413C18.6216 20.2413 19.1975 19.6228 19.9866 18.407C20.7545 17.1913 21.181 16.2529 21.2237 15.613C21.3303 14.5679 20.9251 14.0347 19.9866 14.0347C19.5387 14.0347 19.0908 14.1413 18.6216 14.3333C19.5387 11.3473 21.2663 9.91829 23.8258 10.0036C25.7027 10.0463 26.5985 11.2833 26.4918 13.6934Z"
        fill="white" />
</svg>