<svg width="40" height="40" viewBox="0 0 40 40" xmlns="http://www.w3.org/2000/svg">
  <g clip-rule="evenodd" fill-rule="evenodd">
    <path d="m29 14.5c0 0.27614-0.2239 0.5-0.5 0.5h-17c-0.27614 0-0.5-0.22386-0.5-0.5v-1c0-0.27614 0.22386-0.5 0.5-0.5h17c0.2761 0 0.5 0.22386 0.5 0.5z"/>
    <path d="m34 20.5c0 0.27614-0.2239 0.5-0.5 0.5h-27c-0.27614 0-0.5-0.22386-0.5-0.5v-1c0-0.27614 0.22386-0.5 0.5-0.5h27c0.2761 0 0.5 0.22386 0.5 0.5z" fill="currentColor"/>
    <path d="m29 26.5c0 0.2761-0.2239 0.5-0.5 0.5h-17c-0.27614 0-0.5-0.2239-0.5-0.5v-1c0-0.2761 0.22386-0.5 0.5-0.5h17c0.2761 0 0.5 0.2239 0.5 0.5z"/>
  </g>
</svg>
