<svg width="40" height="40" viewBox="0 0 40 40" xmlns="http://www.w3.org/2000/svg">
  <g fill="currentColor">
    <path d="m12 12.9c-3.9212 0-7.1 3.1788-7.1 7.1 0 3.9212 3.1788 7.1 7.1 7.1 3.9212 0 7.1-3.1788 7.1-7.1 0-3.9212-3.1788-7.1-7.1-7.1zm-5.6273 7.1c0-3.1078 2.5194-5.6273 5.6273-5.6273 3.1078 0 5.6273 2.5194 5.6273 5.6273 0 3.1079-2.5195 5.6273-5.6273 5.6273-3.1079 0-5.6273-2.5194-5.6273-5.6273z" clip-rule="evenodd" fill-rule="evenodd"/>
    <path d="m13.951 17.227c-0.45355 0-0.82122 0.36767-0.82122 0.82121s0.36767 0.82121 0.82122 0.82121h0.0063c0.45358 0 0.82118-0.36767 0.82118-0.82121s-0.3676-0.82121-0.82118-0.82121z"/>
    <path d="m10.049 17.227c-0.45355 0-0.82122 0.36767-0.82122 0.82121s0.36767 0.82121 0.82122 0.82121h0.0063c0.45355 0 0.82122-0.36767 0.82122-0.82121s-0.36767-0.82121-0.82122-0.82121z"/>
    <path d="m15.066 21.843c0.0193-0.02302 0.0348-0.04214 0.0463-0.05671l0.023-0.02973c0.2438-0.32534 0.1779-0.78676-0.1474-1.0307-0.3244-0.24328-0.7842-0.17846-1.0287 0.14437l-0.0015 2e-3c-0.0032 0.0041-0.0098 0.01229-0.0197 0.02407-0.01983 0.02362-0.05255 0.06117-0.0975 0.10807-0.0905 0.09443-0.22692 0.22298-0.40359 0.35147-0.35614 0.25901-0.84361 0.49552-1.4362 0.49552s-1.0801-0.23651-1.4362-0.49552c-0.17667-0.12849-0.3131-0.25704-0.40359-0.35147-0.04495-0.0469-0.07767-0.08445-0.0975-0.10807l-0.02167-0.02657c-0.24468-0.32236-0.70411-0.38696-1.0283-0.14382-0.32532 0.24399-0.39111 0.7057-0.14718 1.031l7.1e-4 9.4e-4 8.6e-4 0.0011 0.00195 0.0026 0.00262 0.0034 0.00225 0.0029 0.01437 0.0184c0.01154 0.01457 0.027 0.0337 0.04632 0.05672 0.0386 0.04598 0.09287 0.10786 0.16227 0.18029 0.1382 0.1442 0.33984 0.3338 0.60067 0.5235 0.5188 0.3773 1.3041 0.7772 2.3024 0.7772s1.7836-0.3999 2.3024-0.7772c0.2609-0.1897 0.4625-0.3793 0.6007-0.5235 0.0694-0.07243 0.1237-0.13431 0.1623-0.18029z"/>
  </g>
  <path d="m34 18.001c0 0.27614-0.2239 0.5-0.5 0.5h-11c-0.2761 0-0.5-0.22386-0.5-0.5v-1c0-0.27614 0.2239-0.5 0.5-0.5h11c0.2761 0 0.5 0.22386 0.5 0.5z" clip-rule="evenodd" fill-rule="evenodd"/>
  <path d="m30 23.001c0 0.2761-0.2239 0.5-0.5 0.5h-7c-0.2761 0-0.5-0.2239-0.5-0.5v-1c0-0.27614 0.2239-0.5 0.5-0.5h7c0.2761 0 0.5 0.22386 0.5 0.5z" clip-rule="evenodd" fill-rule="evenodd"/>
</svg>
