<svg width="36" height="36" viewBox="0 0 36 36" fill="none" xmlns="http://www.w3.org/2000/svg">
    <rect x="0.5" y="0.5" width="35" height="35" rx="3.5" fill="white" />
    <rect x="0.5" y="0.5" width="35" height="35" rx="3.5" stroke="#E5E7EB" />
    <path
        d="M23.8334 16.3334V18C23.8334 19.5471 23.2188 21.0308 22.1249 22.1248C21.0309 23.2188 19.5472 23.8334 18.0001 23.8334M18.0001 23.8334C16.453 23.8334 14.9693 23.2188 13.8753 22.1248C12.7813 21.0308 12.1667 19.5471 12.1667 18V16.3334M18.0001 23.8334V26.3334M18.0001 9.66669C17.337 9.66669 16.7012 9.93008 16.2323 10.3989C15.7635 10.8678 15.5001 11.5036 15.5001 12.1667V18C15.5001 18.6631 15.7635 19.2989 16.2323 19.7678C16.7012 20.2366 17.337 20.5 18.0001 20.5C18.6631 20.5 19.299 20.2366 19.7678 19.7678C20.2367 19.2989 20.5001 18.6631 20.5001 18V12.1667C20.5001 11.5036 20.2367 10.8678 19.7678 10.3989C19.299 9.93008 18.6631 9.66669 18.0001 9.66669Z"
        stroke="#4B5563" stroke-width="1.6" stroke-linecap="round" stroke-linejoin="round" />
</svg>