<svg width="36" height="36" viewBox="0 0 36 36" fill="none" xmlns="http://www.w3.org/2000/svg">
    <rect x="0.5" y="0.5" width="35" height="35" rx="3.5" fill="white" />
    <rect x="0.5" y="0.5" width="35" height="35" rx="3.5" stroke="#E5E7EB" />
    <g clip-path="url(#clip0_17452_43365)">
        <mask id="mask0_17452_43365" style="mask-type:luminance" maskUnits="userSpaceOnUse" x="11" y="8" width="15" height="20">
            <path
                d="M20.0385 8H12.3558C11.6101 8 11 8.61364 11 9.36364V26.6364C11 27.3864 11.6101 28 12.3558 28H24.1058C24.8514 28 25.4615 27.3864 25.4615 26.6364V13.4545L20.0385 8Z"
                fill="white" />
        </mask>
        <g mask="url(#mask0_17452_43365)">
            <path
                d="M20.0385 8H12.3558C11.6101 8 11 8.61364 11 9.36364V26.6364C11 27.3864 11.6101 28 12.3558 28H24.1058C24.8514 28 25.4615 27.3864 25.4615 26.6364V13.4545L22.2981 11.1818L20.0385 8Z"
                fill="#4285F4" />
        </g>
        <mask id="mask1_17452_43365" style="mask-type:luminance" maskUnits="userSpaceOnUse" x="11" y="8" width="15" height="20">
            <path
                d="M20.0385 8H12.3558C11.6101 8 11 8.61364 11 9.36364V26.6364C11 27.3864 11.6101 28 12.3558 28H24.1058C24.8514 28 25.4615 27.3864 25.4615 26.6364V13.4545L20.0385 8Z"
                fill="white" />
        </mask>
        <g mask="url(#mask1_17452_43365)">
            <path d="M20.4351 13.0557L25.4616 18.1102V13.4545L20.4351 13.0557Z" fill="url(#paint0_linear_17452_43365)" />
        </g>
        <mask id="mask2_17452_43365" style="mask-type:luminance" maskUnits="userSpaceOnUse" x="11" y="8" width="15" height="20">
            <path
                d="M20.0385 8H12.3558C11.6101 8 11 8.61364 11 9.36364V26.6364C11 27.3864 11.6101 28 12.3558 28H24.1058C24.8514 28 25.4615 27.3864 25.4615 26.6364V13.4545L20.0385 8Z"
                fill="white" />
        </mask>
        <g mask="url(#mask2_17452_43365)">
            <path
                d="M14.6155 22.5455H21.8462V21.6364H14.6155V22.5455ZM14.6155 24.3636H20.0386V23.4545H14.6155V24.3636ZM14.6155 18V18.9091H21.8462V18H14.6155ZM14.6155 20.7273H21.8462V19.8182H14.6155V20.7273Z"
                fill="#F1F1F1" />
        </g>
        <mask id="mask3_17452_43365" style="mask-type:luminance" maskUnits="userSpaceOnUse" x="11" y="8" width="15" height="20">
            <path
                d="M20.0385 8H12.3558C11.6101 8 11 8.61364 11 9.36364V26.6364C11 27.3864 11.6101 28 12.3558 28H24.1058C24.8514 28 25.4615 27.3864 25.4615 26.6364V13.4545L20.0385 8Z"
                fill="white" />
        </mask>
        <g mask="url(#mask3_17452_43365)">
            <path d="M20.0386 8V12.0909C20.0386 12.8443 20.6453 13.4545 21.3943 13.4545H25.4617L20.0386 8Z" fill="#A1C2FA" />
        </g>
        <mask id="mask4_17452_43365" style="mask-type:luminance" maskUnits="userSpaceOnUse" x="11" y="8" width="15" height="20">
            <path
                d="M20.0385 8H12.3558C11.6101 8 11 8.61364 11 9.36364V26.6364C11 27.3864 11.6101 28 12.3558 28H24.1058C24.8514 28 25.4615 27.3864 25.4615 26.6364V13.4545L20.0385 8Z"
                fill="white" />
        </mask>
        <g mask="url(#mask4_17452_43365)">
            <path d="M12.3558 8C11.6101 8 11 8.61364 11 9.36364V9.47727C11 8.72727 11.6101 8.11364 12.3558 8.11364H20.0385V8H12.3558Z" fill="white" fill-opacity="0.2" />
        </g>
        <mask id="mask5_17452_43365" style="mask-type:luminance" maskUnits="userSpaceOnUse" x="11" y="8" width="15" height="20">
            <path
                d="M20.0385 8H12.3558C11.6101 8 11 8.61364 11 9.36364V26.6364C11 27.3864 11.6101 28 12.3558 28H24.1058C24.8514 28 25.4615 27.3864 25.4615 26.6364V13.4545L20.0385 8Z"
                fill="white" />
        </mask>
        <g mask="url(#mask5_17452_43365)">
            <path
                d="M24.1058 27.8863H12.3558C11.6101 27.8863 11 27.2727 11 26.5227V26.6363C11 27.3863 11.6101 28 12.3558 28H24.1058C24.8514 28 25.4615 27.3863 25.4615 26.6363V26.5227C25.4615 27.2727 24.8514 27.8863 24.1058 27.8863Z"
                fill="#1A237E" fill-opacity="0.2" />
        </g>
        <mask id="mask6_17452_43365" style="mask-type:luminance" maskUnits="userSpaceOnUse" x="11" y="8" width="15" height="20">
            <path
                d="M20.0385 8H12.3558C11.6101 8 11 8.61364 11 9.36364V26.6364C11 27.3864 11.6101 28 12.3558 28H24.1058C24.8514 28 25.4615 27.3864 25.4615 26.6364V13.4545L20.0385 8Z"
                fill="white" />
        </mask>
        <g mask="url(#mask6_17452_43365)">
            <path d="M21.3943 13.4546C20.6453 13.4546 20.0386 12.8444 20.0386 12.0909V12.2046C20.0386 12.958 20.6453 13.5682 21.3943 13.5682H25.4617V13.4546H21.3943Z"
                fill="#1A237E" fill-opacity="0.1" />
        </g>
        <path
            d="M20.0385 8H12.3558C11.6101 8 11 8.61364 11 9.36364V26.6364C11 27.3864 11.6101 28 12.3558 28H24.1058C24.8514 28 25.4615 27.3864 25.4615 26.6364V13.4545L20.0385 8Z"
            fill="url(#paint1_radial_17452_43365)" />
    </g>
    <defs>
        <linearGradient id="paint0_linear_17452_43365" x1="271.788" y1="56.4545" x2="271.788" y2="518.581" gradientUnits="userSpaceOnUse">
            <stop stop-color="#1A237E" stop-opacity="0.2" />
            <stop offset="1" stop-color="#1A237E" stop-opacity="0.02" />
        </linearGradient>
        <radialGradient id="paint1_radial_17452_43365" cx="0" cy="0" r="1" gradientUnits="userSpaceOnUse"
            gradientTransform="translate(56.8149 47.3007) scale(2331.9 2331.9)">
            <stop stop-color="white" stop-opacity="0.1" />
            <stop offset="1" stop-color="white" stop-opacity="0" />
        </radialGradient>
        <clipPath id="clip0_17452_43365">
            <rect width="14.4615" height="20" fill="white" transform="translate(11 8)" />
        </clipPath>
    </defs>
</svg>