<svg width="40" height="40" viewBox="0 0 40 40" xmlns="http://www.w3.org/2000/svg">
  <rect x="6" y="6" width="28" height="28" rx="3"/>
  <path d="m15.267 13.211c0.29991 0.29091 0.31141 0.77427 0.0257 1.0796-1.1117 1.1881-1.793 2.7943-1.793 4.5642 0 1.6478 0.59049 3.1533 1.5687 4.3118 0.07266 0.0861 0.14745 0.1703 0.22429 0.2523 0.28571 0.3054 0.27421 0.7888-0.02569 1.0797-0.29991 0.2909-0.77464 0.2792-1.0604-0.0261-0.09446-0.101-0.1864-0.2045-0.27571-0.3103l0.56873-0.4978-0.56873 0.4978c-1.2033-1.4251-1.9313-3.2807-1.9313-5.3074 0-2.1776 0.84019-4.1569 2.207-5.6177 0.28571-0.30536 0.76044-0.31707 1.0603-0.02617zm9.4654 1e-5c0.2999-0.29089 0.7746-0.27918 1.0603 0.02618 1.3668 1.4608 2.207 3.4401 2.207 5.6177 0 2.1775-0.8402 4.1569-2.207 5.6176-0.2857 0.3053-0.7604 0.3171-1.0603 0.0261-0.2999-0.2909-0.3114-0.7742-0.0257-1.0796 1.1117-1.1881 1.793-2.7943 1.793-4.5641 0-1.7699-0.6813-3.3761-1.793-4.5642-0.2857-0.30535-0.2742-0.78872 0.0257-1.0796zm-3.9827 7.2542c0.5912-0.286 1-0.8996 1-1.6104 0-0.984-0.7835-1.7818-1.75-1.7818s-1.75 0.7978-1.75 1.7818c0 0.7108 0.4088 1.3244 1 1.6104v5.7715c0 0.4217 0.3358 0.7636 0.75 0.7636s0.75-0.3419 0.75-0.7636zm-3.4189-3.9159c0.2682-0.3215 0.2297-0.80339-0.086-1.0764-0.3157-0.27304-0.789-0.23381-1.0572 0.08761-0.74047 0.88753-1.1879 2.0387-1.1879 3.2944 0 1.2492 0.44292 2.3952 1.1767 3.2809 0.2671 0.3224 0.7403 0.3632 1.0569 0.0913s0.3567-0.7537 0.0897-1.0761c-0.5141-0.6205-0.8233-1.4206-0.8233-2.2961 0-0.88 0.3123-1.6838 0.8311-2.3056zm6.4922-0.97537c-0.2671-0.32237-0.7403-0.36325-1.0569-0.09132s-0.3568 0.75369-0.0897 1.0761c0.5141 0.6205 0.8233 1.4206 0.8233 2.2962 0 0.8755-0.3092 1.6756-0.8233 2.2961-0.2671 0.3224-0.2269 0.8042 0.0897 1.0761s0.7898 0.2311 1.0569-0.0913c0.7338-0.8857 1.1767-2.0317 1.1767-3.2809 0-1.2493-0.4429-2.3953-1.1767-3.281z" clip-rule="evenodd" fill="currentColor" fill-rule="evenodd"/>
</svg>
