<svg width="40" height="40" viewBox="0 0 40 40" xmlns="http://www.w3.org/2000/svg">
  <path d="m12.467 25.722 1.0682-3.0795h4.5455l1.0625 3.0795h1.8637l-4.1875-11.636h-2.0284l-4.1875 11.636zm1.5795-4.5568 1.7159-4.9659h0.09091l1.7159 4.9659z" fill="currentColor"/>
  <path d="m25.09 25.915c1.4432 0 2.2557-0.733 2.5795-1.3864h0.0682v1.1932h1.6591v-5.7954c0-2.5398-2-3.0455-3.3864-3.0455-1.5795 0-3.0341 0.63637-3.6022 2.2273l1.5966 0.36363c0.25-0.61932 0.8863-1.2159 2.0284-1.2159 1.0966 0 1.6591 0.57387 1.6591 1.5625v0.03978c0 0.61931-0.6364 0.60795-2.2046 0.78977-1.6534 0.19318-3.3466 0.625-3.3466 2.608 0 1.7159 1.2898 2.6591 2.9489 2.6591zm0.3693-1.3637c-0.9602 0-1.6534-0.4318-1.6534-1.2727 0-0.90909 0.8068-1.233 1.7898-1.3636 0.5511-0.07386 1.8579-0.22159 2.1022-0.46591v1.125c0 1.0341-0.8238 1.9772-2.2386 1.9772z" fill="currentColor"/>
</svg>
