<svg width="32" height="32" viewBox="0 0 32 32" fill="none" xmlns="http://www.w3.org/2000/svg">
<rect width="32" height="32" rx="4.8" fill="#EC622B"/>
<path d="M10.785 16.48L10.93 18.105L10.785 19.8125C10.7775 19.875 10.73 19.9225 10.675 19.9225C10.62 19.9225 10.57 19.875 10.57 19.8125L10.43 18.105L10.57 16.48C10.57 16.425 10.6175 16.375 10.675 16.375C10.73 16.375 10.7775 16.425 10.785 16.48ZM11.32 15.34C11.25 15.34 11.2025 15.395 11.195 15.465L11.07 18.105L11.195 19.8125C11.2025 19.8825 11.25 19.9375 11.32 19.9375C11.3825 19.9375 11.4375 19.8825 11.4375 19.8125L11.5825 18.105L11.4375 15.465C11.4375 15.395 11.3825 15.34 11.32 15.34ZM11.9575 14.7375C11.88 14.7375 11.825 14.7925 11.8175 14.87L11.7075 18.12L11.8175 19.815C11.825 19.8925 11.88 19.9475 11.9575 19.9475C12.0275 19.9475 12.09 19.8925 12.09 19.815L12.2225 18.12L12.09 14.87C12.09 14.7925 12.0275 14.7375 11.9575 14.7375ZM8.18 17.1525C8.145 17.1525 8.125 17.18 8.1175 17.215L8 18.105L8.1175 18.98C8.125 19.015 8.145 19.0425 8.18 19.0425C8.215 19.0425 8.235 19.015 8.2425 18.98L8.3825 18.105L8.2425 17.215C8.235 17.18 8.215 17.1525 8.18 17.1525ZM8.77 16.605C8.735 16.605 8.7075 16.6325 8.7075 16.6675L8.5475 18.105L8.7075 19.5075C8.7075 19.55 8.735 19.5775 8.77 19.5775C8.805 19.5775 8.8325 19.55 8.84 19.515L9.02 18.105L8.84 16.6675C8.8325 16.6325 8.805 16.605 8.77 16.605ZM9.4025 16.32C9.36 16.32 9.325 16.355 9.32 16.4025L9.175 18.105L9.32 19.75C9.3275 19.7925 9.3625 19.8275 9.4025 19.8275C9.445 19.8275 9.48 19.7925 9.48 19.75L9.6525 18.105L9.48 16.4025C9.48 16.355 9.445 16.32 9.4025 16.32ZM10.035 16.265C9.9875 16.265 9.945 16.3 9.945 16.355L9.8 18.105L9.945 19.8C9.945 19.855 9.9875 19.89 10.035 19.89C10.0825 19.89 10.125 19.855 10.1325 19.8L10.2925 18.105L10.1325 16.355C10.125 16.3 10.0825 16.265 10.035 16.265ZM16.07 13.4925C16.0425 13.4725 16 13.4575 15.965 13.4575C15.91 13.4575 15.86 13.4775 15.825 13.505C15.7775 13.5475 15.7475 13.61 15.7425 13.6725V13.6925L15.66 18.11L15.7025 18.9225L15.745 19.715C15.7525 19.8325 15.85 19.93 15.9675 19.93C16.085 19.93 16.1825 19.8325 16.1825 19.715L16.28 18.11L16.1825 13.6725C16.1725 13.5975 16.1325 13.5275 16.07 13.4925ZM15.4025 13.875C15.3675 13.855 15.3325 13.84 15.2925 13.84C15.2525 13.84 15.215 13.855 15.1825 13.875C15.1275 13.91 15.0925 13.9725 15.0925 14.0425L15.085 14.085L15.015 18.105C15.015 18.105 15.015 18.1125 15.0925 19.745V19.7525C15.0925 19.795 15.1075 19.835 15.135 19.87C15.1775 19.9175 15.2325 19.9475 15.295 19.9475C15.35 19.9475 15.4 19.92 15.435 19.885C15.4775 19.85 15.4975 19.8025 15.4975 19.745L15.505 19.5775L15.5825 18.1125L15.5 14.0425C15.4925 13.9725 15.4575 13.91 15.4025 13.875ZM12.6175 14.4375C12.54 14.4375 12.4725 14.5075 12.4725 14.59L12.3625 18.105L12.4725 19.785C12.48 19.8675 12.5425 19.93 12.6175 19.93C12.7 19.93 12.7625 19.8675 12.77 19.785L12.895 18.105L12.77 14.59C12.765 14.5075 12.7025 14.4375 12.6175 14.4375ZM22.035 16.0075C21.765 16.0075 21.5075 16.0625 21.27 16.16C21.11 14.39 19.625 13 17.8125 13C17.3675 13 16.9375 13.0825 16.555 13.235C16.4025 13.29 16.36 13.345 16.36 13.465V19.7075C16.36 19.8325 16.4575 19.9225 16.575 19.9375H22.0325C23.115 19.9375 23.9975 19.0625 23.9975 17.98C24 16.89 23.1175 16.0075 22.035 16.0075ZM14.6175 14.5C14.5125 14.5 14.43 14.5825 14.4225 14.695L14.34 18.1125L14.4225 19.7525C14.43 19.8575 14.5125 19.94 14.6175 19.94C14.7225 19.94 14.805 19.8575 14.805 19.7525L14.9025 18.1125L14.805 14.695C14.7975 14.5825 14.7225 14.5 14.6175 14.5ZM13.2775 14.305C13.195 14.305 13.1175 14.3825 13.1175 14.4725L13.02 18.105L13.1175 19.7775C13.125 19.8675 13.195 19.9375 13.2775 19.9375C13.3675 19.9375 13.4375 19.8675 13.445 19.7775L13.555 18.105L13.445 14.4725C13.4375 14.3825 13.3675 14.305 13.2775 14.305ZM13.945 14.39C13.8475 14.39 13.7725 14.4675 13.7725 14.5625L13.675 18.105L13.7725 19.765C13.78 19.8625 13.85 19.9375 13.945 19.9375C14.04 19.9375 14.1175 19.86 14.1175 19.765L14.2225 18.105L14.1175 14.5625C14.1175 14.465 14.0425 14.39 13.945 14.39Z" fill="white"/>
</svg>
