<svg width="36" height="36" viewBox="0 0 36 36" fill="none" xmlns="http://www.w3.org/2000/svg">
    <rect x="0.5" y="0.5" width="35" height="35" rx="3.5" fill="white" />
    <rect x="0.5" y="0.5" width="35" height="35" rx="3.5" stroke="#E5E7EB" />
    <path
        d="M23.0001 24.6667C23.0001 23.3406 22.4733 22.0688 21.5356 21.1312C20.5979 20.1935 19.3262 19.6667 18.0001 19.6667M18.0001 19.6667C16.674 19.6667 15.4022 20.1935 14.4645 21.1312C13.5269 22.0688 13.0001 23.3406 13.0001 24.6667M18.0001 19.6667C19.841 19.6667 21.3334 18.1743 21.3334 16.3334C21.3334 14.4924 19.841 13 18.0001 13C16.1591 13 14.6667 14.4924 14.6667 16.3334C14.6667 18.1743 16.1591 19.6667 18.0001 19.6667ZM26.3334 18C26.3334 22.6024 22.6025 26.3334 18.0001 26.3334C13.3977 26.3334 9.66675 22.6024 9.66675 18C9.66675 13.3976 13.3977 9.66669 18.0001 9.66669C22.6025 9.66669 26.3334 13.3976 26.3334 18Z"
        stroke="#4B5563" stroke-width="1.6" stroke-linecap="round" stroke-linejoin="round" />
</svg>