<svg width="40" height="40" viewBox="0 0 40 40" xmlns="http://www.w3.org/2000/svg">
    <path fill-rule="evenodd" clip-rule="evenodd" fill="currentColor"
        d="M7.5 15.5V24.5H16.5V15.5H7.5ZM7 14C6.44772 14 6 14.4477 6 15V25C6 25.5523 6.44772 26 7 26H17C17.5523 26 18 25.5523 18 25V15C18 14.4477 17.5523 14 17 14H7Z" />
    <path
        d="m34 18.001c0 0.27614-0.2239 0.5-0.5 0.5h-11c-0.2761 0-0.5-0.22386-0.5-0.5v-1c0-0.27614 0.2239-0.5 0.5-0.5h11c0.2761 0 0.5 0.22386 0.5 0.5z"
        clip-rule="evenodd" />
    <path
        d="m30 23.001c0 0.2761-0.2239 0.5-0.5 0.5h-7c-0.2761 0-0.5-0.2239-0.5-0.5v-1c0-0.27614 0.2239-0.5 0.5-0.5h7c0.2761 0 0.5 0.22386 0.5 0.5z"
        clip-rule="evenodd" />
</svg>