<svg width="36" height="36" viewBox="0 0 36 36" fill="none" xmlns="http://www.w3.org/2000/svg">
    <rect width="36" height="36" rx="4" fill="#1877F2" />
    <path fill-rule="evenodd" clip-rule="evenodd"
        d="M22.4235 18.0611L21.9775 20.9694V20.9694H19.6332V28V28C24.443 27.2452 28.1222 23.0829 28.1222 18.0611C28.1222 12.5045 23.6177 8 18.0611 8C12.5045 8 8 12.5045 8 18.0611C8 23.0829 11.6792 27.2452 16.4891 28V28V20.9694H13.9345V20.9694V18.0611V18.0611H16.4891V15.8445C16.4891 15.8445 16.4891 15.8445 16.4891 15.8445C16.4891 15.2758 16.5655 14.7646 16.7102 14.3137C17.2071 12.7655 18.5094 11.9301 20.2893 11.9301C21.3901 11.9301 22.5415 12.1266 22.5415 12.1266L22.5415 12.1266L22.5415 14.6026L22.5415 14.6026H21.2728C20.3354 14.6026 19.8818 15.0388 19.7136 15.5926C19.6575 15.7772 19.6332 15.9749 19.6332 16.1738C19.6332 16.1738 19.6332 16.1738 19.6332 16.1738V18.0611H22.4235L22.4235 18.0611Z"
        fill="white" />
</svg>