<svg width="36" height="36" viewBox="0 0 36 36" fill="none" xmlns="http://www.w3.org/2000/svg">
    <rect width="36" height="36" rx="4" fill="#1ED760" />
    <path
        d="M23.9153 16.8652C20.6919 14.9509 15.3749 14.7749 12.2978 15.7088C11.8036 15.8587 11.2811 15.5797 11.1313 15.0856C10.9816 14.5912 11.2603 14.069 11.7547 13.9188C15.2871 12.8465 21.1591 13.0537 24.87 15.2565C25.3146 15.5203 25.4604 16.0943 25.1969 16.5381C24.9332 16.9825 24.3587 17.129 23.9153 16.8652ZM23.8098 19.7005C23.5837 20.0675 23.1039 20.1825 22.7374 19.9573C20.05 18.3054 15.9521 17.8269 12.7727 18.7919C12.3604 18.9165 11.925 18.6841 11.7998 18.2725C11.6755 17.8602 11.9081 17.4255 12.3196 17.3001C15.9516 16.1981 20.4667 16.7319 23.5533 18.6287C23.9197 18.8544 24.0351 19.3344 23.8098 19.7005ZM22.5861 22.4235C22.4065 22.7181 22.0227 22.8105 21.7292 22.6309C19.3809 21.1957 16.4252 20.8715 12.9443 21.6667C12.6088 21.7436 12.2746 21.5333 12.198 21.198C12.1212 20.8626 12.3306 20.5283 12.6668 20.4518C16.476 19.581 19.7436 19.9558 22.3794 21.5664C22.6733 21.7458 22.7658 22.1298 22.5861 22.4235ZM18 8C12.4773 8 8 12.477 8 17.9998C8 23.5231 12.4773 28 18 28C23.523 28 28.0001 23.5231 28.0001 17.9998C28.0001 12.477 23.523 8 18 8Z"
        fill="white" />
</svg>