<svg width="32" height="32" viewBox="0 0 32 32" fill="none" xmlns="http://www.w3.org/2000/svg">
    <rect width="32" height="32" rx="4.8" fill="#FF0074" />
    <path
        d="M16 9.44147C18.1361 9.44147 18.3891 9.4496 19.2327 9.48809C20.0126 9.52369 20.4362 9.65401 20.7182 9.76354C21.0916 9.90867 21.3581 10.0821 21.638 10.362C21.9179 10.6419 22.0913 10.9084 22.2364 11.2818C22.346 11.5638 22.4763 11.9874 22.5119 12.7673C22.5504 13.6109 22.5585 13.8639 22.5585 16C22.5585 18.1361 22.5504 18.3891 22.5119 19.2327C22.4763 20.0127 22.346 20.4363 22.2364 20.7182C22.0913 21.0916 21.9179 21.3581 21.638 21.638C21.3581 21.918 21.0916 22.0914 20.7182 22.2365C20.4362 22.346 20.0126 22.4763 19.2327 22.5119C18.3892 22.5504 18.1362 22.5586 16 22.5586C13.8638 22.5586 13.6108 22.5504 12.7673 22.5119C11.9873 22.4763 11.5637 22.346 11.2818 22.2365C10.9084 22.0914 10.6419 21.918 10.362 21.638C10.082 21.3581 9.90863 21.0916 9.76354 20.7182C9.65398 20.4363 9.52366 20.0127 9.48806 19.2327C9.44957 18.3891 9.44144 18.1361 9.44144 16C9.44144 13.8639 9.44957 13.6109 9.48806 12.7673C9.52366 11.9874 9.65398 11.5638 9.76354 11.2818C9.90863 10.9084 10.082 10.6419 10.362 10.362C10.6419 10.0821 10.9084 9.90867 11.2818 9.76354C11.5637 9.65401 11.9873 9.52369 12.7673 9.48809C13.6109 9.4496 13.8639 9.44147 16 9.44147ZM16 8C13.8273 8 13.5549 8.00921 12.7016 8.04814C11.8501 8.08701 11.2686 8.22223 10.7597 8.42001C10.2336 8.62445 9.78745 8.898 9.34271 9.34274C8.89797 9.78748 8.62442 10.2336 8.41997 10.7597C8.2222 11.2686 8.08698 11.8501 8.04811 12.7016C8.00918 13.5549 8 13.8273 8 16C8 18.1727 8.00918 18.4451 8.04811 19.2984C8.08698 20.1499 8.2222 20.7314 8.41997 21.2403C8.62442 21.7664 8.89797 22.2125 9.34271 22.6573C9.78745 23.102 10.2336 23.3756 10.7597 23.58C11.2686 23.7778 11.8501 23.913 12.7016 23.9519C13.5549 23.9908 13.8273 24 16 24C18.1727 24 18.4451 23.9908 19.2984 23.9519C20.1499 23.913 20.7314 23.7778 21.2403 23.58C21.7664 23.3756 22.2125 23.102 22.6573 22.6573C23.102 22.2125 23.3755 21.7664 23.58 21.2403C23.7778 20.7314 23.913 20.1499 23.9519 19.2984C23.9908 18.4451 24 18.1727 24 16C24 13.8273 23.9908 13.5549 23.9519 12.7016C23.913 11.8501 23.7778 11.2686 23.58 10.7597C23.3755 10.2336 23.102 9.78748 22.6573 9.34274C22.2125 8.898 21.7664 8.62445 21.2403 8.42001C20.7314 8.22223 20.1499 8.08701 19.2984 8.04814C18.4451 8.00921 18.1727 8 16 8ZM16 11.8919C13.7311 11.8919 11.8919 13.7312 11.8919 16C11.8919 18.2689 13.7311 20.1081 16 20.1081C18.2688 20.1081 20.1081 18.2689 20.1081 16C20.1081 13.7312 18.2688 11.8919 16 11.8919ZM16 18.6667C14.5272 18.6667 13.3333 17.4728 13.3333 16C13.3333 14.5273 14.5272 13.3333 16 13.3333C17.4727 13.3333 18.6667 14.5273 18.6667 16C18.6667 17.4728 17.4727 18.6667 16 18.6667ZM21.2304 11.7296C21.2304 12.2598 20.8006 12.6896 20.2704 12.6896C19.7402 12.6896 19.3104 12.2598 19.3104 11.7296C19.3104 11.1994 19.7402 10.7696 20.2704 10.7696C20.8006 10.7696 21.2304 11.1994 21.2304 11.7296Z"
        fill="white" />
</svg>