<svg width="32" height="32" viewBox="0 0 32 32" fill="none" xmlns="http://www.w3.org/2000/svg">
    <rect x="0.4" y="0.4" width="31.2" height="31.2" rx="4.4" fill="white" stroke="#D1D5DB" stroke-width="0.8" />
    <rect x="4.7998" y="4.80005" width="22.4" height="22.4" rx="2.4" fill="#F3F4F6" />
    <path
        d="M13 11V16C13 17.6562 14.3438 19 16 19C17.6562 19 19 17.6562 19 16H16.5C16.225 16 16 15.775 16 15.5C16 15.225 16.225 15 16.5 15H19V14H16.5C16.225 14 16 13.775 16 13.5C16 13.225 16.225 13 16.5 13H19V12H16.5C16.225 12 16 11.775 16 11.5C16 11.225 16.225 11 16.5 11H19C19 9.34375 17.6562 8 16 8C14.3438 8 13 9.34375 13 11ZM20 15.5V16C20 18.2094 18.2094 20 16 20C13.7906 20 12 18.2094 12 16V14.75C12 14.3344 11.6656 14 11.25 14C10.8344 14 10.5 14.3344 10.5 14.75V16C10.5 18.7844 12.5687 21.0844 15.25 21.45V22.5H13.75C13.3344 22.5 13 22.8344 13 23.25C13 23.6656 13.3344 24 13.75 24H16H18.25C18.6656 24 19 23.6656 19 23.25C19 22.8344 18.6656 22.5 18.25 22.5H16.75V21.45C19.4312 21.0844 21.5 18.7844 21.5 16V14.75C21.5 14.3344 21.1656 14 20.75 14C20.3344 14 20 14.3344 20 14.75V15.5Z"
        fill="#374151" />
</svg>