<svg width="32" height="32" viewBox="0 0 32 32" fill="none" xmlns="http://www.w3.org/2000/svg">
    <rect width="32" height="32" rx="4.8" fill="#006BFF" />
    <path
        d="M18.7726 18.3808C18.2707 18.8337 17.6342 19.3967 16.4836 19.3967H15.7858C14.9535 19.3967 14.1946 19.0907 13.656 18.5521C13.1296 18.0135 12.8358 17.2791 12.8358 16.4835V15.5409C12.8358 14.7453 13.1296 14.0108 13.656 13.4723C14.1946 12.9214 14.9535 12.6277 15.7858 12.6277H16.4713C17.6219 12.6277 18.2584 13.1907 18.7603 13.6436C19.2867 14.1088 19.7396 14.5127 20.9514 14.5127C21.135 14.5127 21.3186 14.5005 21.5022 14.4637V14.4515C21.4288 14.2679 21.3431 14.0965 21.2452 13.9252L20.4373 12.5175C19.6906 11.2322 18.3196 10.4366 16.8263 10.4366H15.2228C13.7294 10.4366 12.3585 11.2322 11.6118 12.5175L10.8039 13.9252C10.0572 15.2104 10.0572 16.8017 10.8039 18.087L11.6118 19.4946C12.3585 20.7799 13.7294 21.5756 15.2228 21.5756H16.8385C18.3319 21.5756 19.7028 20.7799 20.4495 19.4946L21.2574 18.087C21.3553 17.9156 21.441 17.7442 21.5145 17.5606V17.5484C21.3308 17.5239 21.1472 17.4994 20.9636 17.4994C19.7518 17.5117 19.2989 17.9156 18.7726 18.3808Z"
        fill="white" />
    <path
        d="M23.3505 17.4138C22.8731 17.0711 22.3345 16.8262 21.747 16.7283V16.7406C21.698 17.0221 21.6246 17.2914 21.5144 17.5484C21.9918 17.6219 22.4447 17.8055 22.8364 18.0993V18.1115C21.6735 21.8816 17.6831 23.987 13.913 22.8241C10.1429 21.6613 8.03747 17.6708 9.20033 13.9007C10.3632 10.1306 14.3536 8.02523 18.1237 9.18809C20.376 9.88581 22.1387 11.6485 22.8364 13.9007V13.913C22.4447 14.1945 21.9918 14.3781 21.5144 14.4516C21.6246 14.7086 21.698 14.9901 21.747 15.2594V15.2717C22.3223 15.1615 22.8731 14.9289 23.3505 14.5862C23.8034 14.2435 23.7177 13.864 23.6443 13.6437C22.3468 9.42066 17.8667 7.05822 13.6437 8.35573C9.42066 9.65324 7.05822 14.1333 8.35573 18.3563C9.65324 22.5793 14.1333 24.9418 18.3563 23.6443C20.8779 22.8609 22.8609 20.8901 23.6443 18.3563C23.7177 18.136 23.8156 17.7565 23.3505 17.4138Z"
        fill="white" />
    <path
        d="M21.5143 14.4516C21.3307 14.4761 21.1471 14.5005 20.9635 14.5005C19.7516 14.5005 19.2987 14.0966 18.7724 13.6314C18.2583 13.1785 17.634 12.6155 16.4834 12.6155H15.7857C14.9533 12.6155 14.1944 12.9215 13.6558 13.4601C13.1295 13.9987 12.8357 14.7331 12.8357 15.5287V16.4713C12.8357 17.2669 13.1295 18.0014 13.6558 18.5399C14.1944 19.0908 14.9533 19.3845 15.7857 19.3845H16.4712C17.6218 19.3845 18.2583 18.8215 18.7602 18.3686C19.2865 17.9034 19.7394 17.4995 20.9512 17.4995C21.1348 17.4995 21.3184 17.5117 21.5021 17.5484C21.6122 17.2914 21.6857 17.0099 21.7346 16.7406V16.7283C21.4776 16.6794 21.2083 16.6549 20.9512 16.6549C18.1604 16.6549 18.3073 18.5399 16.4589 18.5399H15.7857C14.5249 18.5399 13.6925 17.6341 13.6925 16.4713V15.5287C13.6925 14.3659 14.5249 13.4723 15.7857 13.4723H16.4712C18.3195 13.4723 18.1726 15.3574 20.9635 15.3574C21.2328 15.3574 21.4898 15.3329 21.7469 15.2839V15.2717C21.6979 14.9902 21.6245 14.7209 21.5143 14.4516Z"
        fill="#006BFF" />
</svg>