<svg width="40" height="40" version="1.1" viewBox="0 0 40 40" xmlns="http://www.w3.org/2000/svg">
  <path d="m11 29c-0.27614 0-0.5-0.2239-0.5-0.5l1e-6 -17c0-0.27614 0.22386-0.5 0.5-0.5h1c0.27614 0 0.5 0.22386 0.5 0.5v17c0 0.2761-0.22386 0.5-0.5 0.5z" clip-rule="evenodd" fill-rule="evenodd"/>
  <path d="m26.722 25.857c0.0391 0.053 0.0586 0.0795 0.0835 0.0986 0.0221 0.0169 0.0471 0.0296 0.0738 0.0373 0.0302 0.0087 0.0631 0.0087 0.1289 0.0087h1.1469c0.1134 0 0.1701 0 0.2002-0.0235 0.0262-0.0204 0.0419-0.0515 0.0428-0.0847 1e-3 -0.0382-0.0326-0.0838-0.0999-0.1751l-1.1669-1.5831c-0.0356-0.0484-0.0535-0.0725-0.0581-0.0975-0.0043-0.0225-0.0017-0.0443 0.0075-0.0652 0.0102-0.0233 0.0338-0.0434 0.0809-0.0836 0.4123-0.3516 0.7811-0.7699 1.1063-1.2546 0.5524-0.8179 0.9242-1.7987 1.1154-2.9424 0.1947-1.1755 0.1451-2.1882-0.1487-3.038-0.2939-0.85332-0.779-1.5084-1.4553-1.9651-0.6727-0.4603-1.4853-0.69045-2.4378-0.69045-0.9277 0-1.7916 0.21953-2.5918 0.65858-0.7967 0.43906-1.4712 1.0693-2.0236 1.8908-0.54877 0.81792-0.91878 1.7987-1.11 2.9424-0.19474 1.1755-0.14517 2.1882 0.14871 3.038 0.29389 0.8462 0.77897 1.4995 1.4553 1.9598 0.6798 0.4567 1.4995 0.6851 2.459 0.6851 0.7277 0 1.4155-0.136 2.0635-0.4081 0.0488-0.0205 0.0732-0.0307 0.0957-0.0307 0.0203 1e-4 0.039 0.0052 0.0564 0.0156 0.0194 0.0115 0.0346 0.0321 0.065 0.0734zm-1.4279-4.2156c-0.0391-0.0527-0.0586-0.079-0.0835-0.098-0.022-0.0168-0.047-0.0294-0.0736-0.037-0.0301-0.0087-0.0628-0.0087-0.1284-0.0087h-1.0854c-0.113 0-0.1695 0-0.1996 0.0234-0.0261 0.0204-0.0419 0.0513-0.0428 0.0845-0.0011 0.0381 0.0322 0.0837 0.0989 0.1748l1.0805 1.4774c0.0464 0.0635 0.0696 0.0952 0.0716 0.1278 0.0016 0.0275-0.0084 0.0574-0.0262 0.0784-0.0211 0.0249-0.0569 0.0359-0.1284 0.0577-0.3354 0.1024-0.6837 0.1536-1.045 0.1536-0.6054 0-1.1241-0.1505-1.5561-0.4515-0.4284-0.3045-0.733-0.7524-0.9135-1.3437-0.1806-0.5913-0.1965-1.3207-0.0478-2.1882 0.1451-0.89935 0.416-1.6606 0.8126-2.2838 0.3965-0.62317 0.8745-1.0976 1.434-1.4234 0.563-0.32575 1.1667-0.48862 1.8111-0.48862 0.6054 0 1.1224 0.15225 1.5508 0.45676 0.4284 0.3045 0.7312 0.75418 0.9082 1.349 0.1806 0.59131 0.1983 1.3207 0.0531 2.1882-0.1451 0.89935-0.416 1.6606-0.8126 2.2838-0.2105 0.3289-0.4444 0.6164-0.7018 0.8625-0.046 0.044-0.069 0.066-0.097 0.0733-0.0238 0.0062-0.0512 0.0039-0.0736-0.0063-0.0264-0.0119-0.0462-0.0385-0.0857-0.0919z" clip-rule="evenodd" fill="currentColor" fill-rule="evenodd"/>
</svg>
