<svg width="40" height="40" viewBox="0 0 40 40" xmlns="http://www.w3.org/2000/svg">
  <rect x="6" y="6" width="28" height="28" rx="3" />
  <path d="m14.07 17.806-0.5966-0.5959-0.23665 0.8093c-0.18388 0.6289-0.28233 1.2937-0.28233 1.9806 0 3.4342 2.4566 6.2936 5.7082 6.9186l0.7132 0.1371-0.1265-0.7152c-0.0085-0.0483-0.013-0.0977-0.013-0.1476 0-0.389-0.1545-0.7621-0.4297-1.0371l-0.3599-0.3597c-0.1609-0.1608-0.2514-0.379-0.2514-0.6066v-0.5962c0-0.3899-0.1549-0.7639-0.4307-1.0395l-0.4844-0.4841c-0.0806-0.0806-0.1259-0.1898-0.1259-0.3038 0-0.2372 0.1924-0.4295 0.4296-0.4295h3.4284c0.406 0 0.7349 0.3289 0.7349 0.7343v0.6936c0 0.3606 0.2925 0.6529 0.6531 0.6529 0.2144 0 0.3879 0.1737 0.3879 0.3875 0 0.3606 0.2925 0.6529 0.6531 0.6529h0.0243c0.345 0 0.596 0.1849 0.7044 0.4033l0.3086 0.6219 0.492-0.4899c1.2809-1.2752 2.0747-3.0419 2.0747-4.9929 0-3.0394-1.9244-5.6281-4.6195-6.6165l-0.6967-0.25551 0.0248 0.74163c3e-4 0.0095 4e-4 0.01903 4e-4 0.02856v0.90888c0 0.40608-0.3281 0.73383-0.7311 0.73383h-1.0372c-0.7425 0-1.3433 0.60322-1.3433 1.3459 0 0.4061-0.3281 0.7339-0.7311 0.7339h-0.3015c-0.5754 0-1.0418 0.4664-1.0418 1.0417 0 0.1138-0.0451 0.2229-0.1254 0.3034l-0.089 0.0892c-0.2855 0.2862-0.74795 0.2862-1.0334 1e-4h-2e-5l-8e-5 -1e-4 -6.1e-4 -6e-4zm-1.5701 2.194c0-4.1421 3.3579-7.5 7.5-7.5 4.1421 0 7.5 3.3579 7.5 7.5 0 4.1421-3.3579 7.5-7.5 7.5-4.1421 0-7.5-3.3579-7.5-7.5z" fill="currentColor" stroke="currentColor"/>
</svg>
