<svg width="40" height="40" viewBox="0 0 40 40" xmlns="http://www.w3.org/2000/svg">
    <path fill-rule="evenodd" clip-rule="evenodd"
        d="M11.0007 8.50035C11.0007 8.22421 11.2246 8.00035 11.5007 8.00035L29.5007 8.00035C29.7769 8.00035 30.0007 8.22421 30.0007 8.50035L30.0007 9.50035C30.0007 9.77649 29.7769 10.0004 29.5007 10.0004L11.5007 10.0003C11.2246 10.0003 11.0007 9.77649 11.0007 9.50035L11.0007 8.50035Z" />
    <path fill-rule="evenodd" clip-rule="evenodd"
        d="M11.0007 31.5004C11.0007 31.2242 11.2246 31.0004 11.5007 31.0004L29.5007 31.0004C29.7769 31.0004 30.0007 31.2242 30.0007 31.5004L30.0007 32.5004C30.0007 32.7765 29.7769 33.0004 29.5007 33.0004L11.5007 33.0004C11.2246 33.0004 11.0007 32.7765 11.0007 32.5004L11.0007 31.5004Z" />
    <path fill="currentColor"
        d="M7.00073 25.5004C7.00073 25.2242 7.22459 25.0004 7.50073 25.0004L33.5007 25.0004C33.7769 25.0004 34.0007 25.2242 34.0007 25.5004L34.0007 26.5004C34.0007 26.7765 33.7769 27.0004 33.5007 27.0004L7.50073 27.0004C7.22459 27.0004 7.00073 26.7765 7.00073 26.5004L7.00073 25.5004Z" />
    <path fill="currentColor"
        d="M7.00073 14.5004C7.00073 14.2242 7.22459 14.0004 7.50073 14.0004L33.5007 14.0004C33.7769 14.0004 34.0007 14.2242 34.0007 14.5004L34.0007 15.5004C34.0007 15.7765 33.7769 16.0004 33.5007 16.0004L7.50073 16.0003C7.22459 16.0003 7.00073 15.7765 7.00073 15.5003L7.00073 14.5004Z" />
    <path fill="currentColor"
        d="M8.50073 14.0004C8.77687 14.0004 9.00073 14.2242 9.00073 14.5004L9.00073 26.5004C9.00073 26.7765 8.77688 27.0004 8.50073 27.0004L7.50073 27.0004C7.22459 27.0004 7.00073 26.7765 7.00073 26.5004L7.00073 14.5004C7.00073 14.2242 7.22459 14.0004 7.50073 14.0004L8.50073 14.0004Z" />
    <path fill="currentColor"
        d="M16.5007 14.0004C16.7769 14.0004 17.0007 14.2242 17.0007 14.5004L17.0007 26.5004C17.0007 26.7765 16.7769 27.0004 16.5007 27.0004L15.5007 27.0004C15.2246 27.0004 15.0007 26.7765 15.0007 26.5004L15.0007 14.5004C15.0007 14.2242 15.2246 14.0004 15.5007 14.0004L16.5007 14.0004Z" />
    <path fill="currentColor"
        d="M25.5007 14.0004C25.7769 14.0004 26.0007 14.2242 26.0007 14.5004L26.0007 26.5004C26.0007 26.7765 25.7769 27.0004 25.5007 27.0004L24.5007 27.0004C24.2246 27.0004 24.0007 26.7765 24.0007 26.5004L24.0007 14.5004C24.0007 14.2242 24.2246 14.0004 24.5007 14.0004L25.5007 14.0004Z" />
    <path fill="currentColor"
        d="M33.5007 14.0004C33.7769 14.0004 34.0007 14.2242 34.0007 14.5004L34.0007 26.5004C34.0007 26.7765 33.7769 27.0004 33.5007 27.0004L32.5007 27.0004C32.2246 27.0004 32.0007 26.7765 32.0007 26.5004L32.0007 14.5004C32.0007 14.2242 32.2246 14.0004 32.5007 14.0004L33.5007 14.0004Z" />
</svg>