<svg width="32" height="32" viewBox="0 0 32 32" fill="none" xmlns="http://www.w3.org/2000/svg">
    <rect width="32" height="32" rx="4.8" fill="#374151" />
    <path fill-rule="evenodd" clip-rule="evenodd"
        d="M16.608 8.88218L16.3126 8.88555L16.3056 9.05463C16.3018 9.14761 16.2966 11.2869 16.294 13.8087C16.2896 18.252 16.2858 18.7461 16.2533 19.2073C16.2378 19.4268 16.1871 19.5705 16.0275 19.8472C15.752 20.3249 15.2731 20.6765 14.7489 20.7862C14.5049 20.8372 14.1554 20.8403 13.9392 20.7934C13.1997 20.633 12.5801 19.9872 12.4229 19.2133C12.4079 19.1393 12.4034 19.0483 12.4024 18.8035C12.4011 18.4468 12.4121 18.365 12.4918 18.1442C12.646 17.7166 12.9183 17.3635 13.2868 17.1134C13.6188 16.888 14.0023 16.782 14.4213 16.7999C14.6271 16.8087 14.8759 16.8512 14.9867 16.8965C15.0032 16.9033 15.0058 16.8572 15.0127 16.4373C15.0169 16.1806 15.0237 15.5873 15.0279 15.119L15.0354 14.2674L15.0076 14.2607C14.8368 14.2196 14.4354 14.1896 14.1852 14.1991C13.1264 14.2394 12.1445 14.66 11.3607 15.409C10.8268 15.9191 10.4229 16.5733 10.1926 17.3009C10.1074 17.5697 10.0421 17.8847 10.009 18.1858C9.99061 18.3523 10.0024 19.077 10.0265 19.2659C10.1292 20.0701 10.4452 20.8205 10.9595 21.4814C11.1651 21.7456 11.5253 22.0968 11.7952 22.296C12.2795 22.6534 12.8463 22.9103 13.4322 23.0379C14.071 23.177 14.8507 23.1474 15.4949 22.9597C16.3966 22.697 17.2155 22.1175 17.7678 21.3515C18.2408 20.6955 18.5084 20.0048 18.6217 19.1479C18.6396 19.0125 18.6416 18.7659 18.6451 16.3417C18.6472 14.88 18.6519 13.684 18.6556 13.684C18.6593 13.684 18.7512 13.7421 18.8598 13.8132C19.4939 14.2283 20.0567 14.4748 20.7446 14.6385C21.1083 14.7251 21.6616 14.8005 21.9332 14.8005H22V13.6075V12.4145L21.9453 12.4068C20.8761 12.2573 20.1209 11.9182 19.5449 11.3289C19.0714 10.8444 18.7569 10.1984 18.6202 9.42943C18.5966 9.29674 18.5562 8.95568 18.5562 8.88944C18.5562 8.87594 18.4201 8.87373 17.7298 8.87604C17.2752 8.87756 16.7704 8.88033 16.608 8.88218Z"
        fill="white" />
</svg>