<svg width="32" height="32" viewBox="0 0 32 32" fill="none" xmlns="http://www.w3.org/2000/svg">
    <rect width="32" height="32" rx="4.8" fill="#F05537" />
    <path
        d="M15.0339 11.7045C16.8053 11.3108 18.5766 12.0325 19.5607 13.4102L11.7318 15.1816C11.9942 13.4977 13.2626 12.0981 15.0339 11.7045ZM19.6044 18.1994C18.9921 19.096 18.0518 19.7302 16.9802 19.9708C15.2089 20.3644 13.4156 19.6428 12.4315 18.2432L20.2824 16.4718L21.5507 16.1875L24 15.6408C23.9781 15.116 23.9125 14.5911 23.8032 14.0882C22.8191 9.86752 18.511 7.22143 14.2029 8.20552C9.8948 9.1896 7.20497 13.3884 8.21092 17.6309C9.21687 21.8734 13.5031 24.4976 17.8112 23.5135C20.348 22.9449 22.3161 21.2392 23.3221 19.0742L19.6044 18.1994Z"
        fill="white" />
</svg>