<svg width="32" height="32" viewBox="0 0 32 32" fill="none" xmlns="http://www.w3.org/2000/svg">
    <rect width="32" height="32" rx="4.8" fill="#1ED760" />
    <path
        d="M16 8C11.5839 8 8 11.5839 8 16C8 20.4161 11.5839 24 16 24C20.4161 24 24 20.4161 24 16C24 11.5839 20.4161 8 16 8ZM19.2484 19.771C19.1129 19.771 19.029 19.729 18.9032 19.6548C16.8903 18.4419 14.5484 18.3903 12.2355 18.8645C12.1097 18.8968 11.9452 18.9484 11.8516 18.9484C11.5387 18.9484 11.3419 18.7 11.3419 18.4387C11.3419 18.1065 11.5387 17.9484 11.7806 17.8968C14.4226 17.3129 17.1226 17.3645 19.4258 18.7419C19.6226 18.8677 19.7387 18.9806 19.7387 19.2742C19.7387 19.5677 19.5097 19.771 19.2484 19.771ZM20.1161 17.6548C19.9484 17.6548 19.8355 17.5806 19.7194 17.5194C17.7032 16.3258 14.6968 15.8452 12.0226 16.571C11.8677 16.6129 11.7839 16.6548 11.6387 16.6548C11.2935 16.6548 11.0129 16.3742 11.0129 16.029C11.0129 15.6839 11.1806 15.4548 11.5129 15.3613C12.4097 15.1097 13.3258 14.9226 14.6677 14.9226C16.7613 14.9226 18.7839 15.4419 20.3774 16.3903C20.6387 16.5452 20.7419 16.7452 20.7419 17.0258C20.7387 17.3742 20.4677 17.6548 20.1161 17.6548ZM21.1161 15.1968C20.9484 15.1968 20.8452 15.1548 20.7 15.071C18.4032 13.7 14.2968 13.371 11.6387 14.1129C11.5226 14.1452 11.3774 14.1968 11.2226 14.1968C10.7968 14.1968 10.471 13.8645 10.471 13.4355C10.471 12.9968 10.7419 12.7484 11.0323 12.6645C12.1677 12.3323 13.4387 12.1742 14.8226 12.1742C17.1774 12.1742 19.6452 12.6645 21.4484 13.7161C21.7 13.8613 21.8645 14.0613 21.8645 14.4452C21.8645 14.8839 21.5097 15.1968 21.1161 15.1968Z"
        fill="white" />
</svg>