<svg width="32" height="32" viewBox="0 0 32 32" xmlns="http://www.w3.org/2000/svg">
  <path fill-rule="evenodd" clip-rule="evenodd" d="M5.00001 25.3001C5.00001 25.0792 5.1791 24.9001 5.40001 24.9001L19.8 24.9001C20.0209 24.9001 20.2 25.0792 20.2 25.3001L20.2 26.1001C20.2 26.321 20.0209 26.5001 19.8 26.5001L5.40001 26.5001C5.1791 26.5001 5.00001 26.321 5.00001 26.1001L5.00001 25.3001Z"  />
  <path fill-rule="evenodd" clip-rule="evenodd" d="M5.00001 20.5C5.00001 20.279 5.17909 20.1 5.40001 20.1L26.2 20.1C26.4209 20.1 26.6 20.279 26.6 20.5L26.6 21.3C26.6 21.5209 26.4209 21.7 26.2 21.7L5.40001 21.6999C5.17909 21.6999 5.00001 21.5209 5.00001 21.2999L5.00001 20.5Z" fill="currentColor" />
  <path fill-rule="evenodd" clip-rule="evenodd" d="M5.00001 11.7C5.00001 11.4791 5.17909 11.3 5.40001 11.3L26.2 11.3C26.4209 11.3 26.6 11.4791 26.6 11.7L26.6 12.5C26.6 12.7209 26.4209 12.9 26.2 12.9L5.40001 12.9C5.17909 12.9 5.00001 12.7209 5.00001 12.5L5.00001 11.7Z" fill="currentColor" />
  <path fill-rule="evenodd" clip-rule="evenodd" d="M6.20009 11.3C6.42101 11.3 6.60009 11.4791 6.60009 11.7L6.60009 21.3C6.60009 21.5209 6.42101 21.7 6.20009 21.7L5.40009 21.7C5.17918 21.7 5.00009 21.5209 5.00009 21.3L5.00009 11.7C5.00009 11.4791 5.17918 11.3 5.40009 11.3L6.20009 11.3Z" fill="currentColor" />
  <path fill-rule="evenodd" clip-rule="evenodd" d="M26.2001 11.3C26.421 11.3 26.6001 11.479 26.6001 11.7L26.6001 21.3C26.6001 21.5209 26.421 21.7 26.2001 21.7L25.4001 21.7C25.1792 21.7 25.0001 21.5209 25.0001 21.3L25.0001 11.7C25.0001 11.479 25.1792 11.3 25.4001 11.3L26.2001 11.3Z" fill="currentColor" />
  <path fill-rule="evenodd" clip-rule="evenodd" d="M5.00001 6.89997C5.00001 6.67906 5.17909 6.49998 5.40001 6.49998L26.2 6.49998C26.4209 6.49998 26.6 6.67906 26.6 6.89998L26.6 7.69998C26.6 7.92089 26.4209 8.09998 26.2 8.09998L5.40001 8.09997C5.17909 8.09997 5.00001 7.92089 5.00001 7.69997L5.00001 6.89997Z" />
</svg>
