<svg width="40" height="40" viewBox="0 0 40 40" xmlns="http://www.w3.org/2000/svg">
 <rect x="6" y="6" width="28" height="28" rx="3" />
 <path d="m13.75 13.5c-0.13807 0-0.25 0.11193-0.25 0.25v12.5c0 0.1381 0.11193 0.25 0.25 0.25h12.5c0.1381 0 0.25-0.1119 0.25-0.25v-12.5c0-0.13807-0.1119-0.25-0.25-0.25zm-1.75 0.25c0-0.9665 0.7835-1.75 1.75-1.75h12.5c0.9665 0 1.75 0.7835 1.75 1.75v12.5c0 0.9665-0.7835 1.75-1.75 1.75h-12.5c-0.9665 0-1.75-0.7835-1.75-1.75zm9.2197 3.7197c-0.2929 0.2929-0.2929 0.7677 0 1.0606l1.4696 1.4697-1.4696 1.4697c-0.2929 0.2929-0.2929 0.7677 0 1.0606s0.7677 0.2929 1.0606 0l2-2c0.2929-0.2929 0.2929-0.7677 0-1.0606l-2-2c-0.2929-0.2929-0.7677-0.2929-1.0606 0zm-2.4394 1.0606c0.2929-0.2929 0.2929-0.7677 0-1.0606s-0.7677-0.2929-1.0606 0l-2 2c-0.29289 0.2929-0.29289 0.7677 0 1.0606l2 2c0.2929 0.2929 0.7677 0.2929 1.0606 0s0.2929-0.7677 0-1.0606l-1.4696-1.4697z" clip-rule="evenodd" fill="currentColor" fill-rule="evenodd"/>
</svg>
