<svg className="svg-icon" height="16px" width="16px">
    <g fill="none" fillRule="evenodd" id="Brand" stroke="none" strokeWidth="1">
        <g id="Artboard" transform="translate(-9.000000, -48.000000)">
            <g
                id="Icons/16x16/toolbar/dark-grey/img-contained"
                transform="translate(9.000000, 47.000000)"
            >
                <g>
                    <rect height="16" id="shape-hold" width="16" x="0" y="0" />
                    <path
                        d="M0.5,4 L15.5,4 C15.7761424,4 16,4.22385763 16,4.5 L16,11.5 C16,11.7761424 15.7761424,12 15.5,12 L0.5,12 C0.223857625,12 3.38176876e-17,11.7761424 0,11.5 L0,4.5 C-3.38176876e-17,4.22385763 0.223857625,4 0.5,4 Z M0.5,13.5 L15.5,13.5 C15.7761424,13.5 16,13.7238576 16,14 L16,14.5 C16,14.7761424 15.7761424,15 15.5,15 L0.5,15 C0.223857625,15 3.38176876e-17,14.7761424 0,14.5 L0,14 C-3.38176876e-17,13.7238576 0.223857625,13.5 0.5,13.5 Z M0.5,1 L15.5,1 C15.7761424,1 16,1.22385763 16,1.5 L16,2 C16,2.27614237 15.7761424,2.5 15.5,2.5 L0.5,2.5 C0.223857625,2.5 3.38176876e-17,2.27614237 0,2 L0,1.5 C-3.38176876e-17,1.22385763 0.223857625,1 0.5,1 Z"
                        fill="currentcolor"
                        id="icon.image-align-left"
                    />
                </g>
            </g>
        </g>
    </g>
</svg>
