<svg width="20" height="25" viewBox="0 0 20 25" fill="none" xmlns="http://www.w3.org/2000/svg">
<path fill-rule="evenodd" clip-rule="evenodd" d="M1.5 0.846191C0.671573 0.846191 0 1.51776 0 2.34619V23.3462C0 24.1746 0.671573 24.8462 1.5 24.8462H18.5C19.3284 24.8462 20 24.1746 20 23.3462V2.34619C20 1.51776 19.3284 0.846191 18.5 0.846191H1.5ZM16.5 5.98674H10.5C10.2239 5.98674 10 5.76289 10 5.48674V4.34619C10 4.07005 10.2239 3.84619 10.5 3.84619H16.5C16.7761 3.84619 17 4.07005 17 4.34619V5.48674C17 5.76289 16.7761 5.98674 16.5 5.98674ZM16.5 7.54351H10.5C10.2239 7.54351 10 7.76737 10 8.04351V9.08667C10 9.36281 10.2239 9.58667 10.5 9.58667H16.5C16.7761 9.58667 17 9.36281 17 9.08667V8.04351C17 7.76737 16.7761 7.54351 16.5 7.54351ZM11.0135 15.7165H3.5C3.22386 15.7165 3 15.9404 3 16.2165V17.2597C3 17.5358 3.22386 17.7597 3.5 17.7597H11.0135C11.2897 17.7597 11.5135 17.5358 11.5135 17.2597V16.2165C11.5135 15.9404 11.2897 15.7165 11.0135 15.7165ZM7.98649 3.84619H3.5C3.22386 3.84619 3 4.07005 3 4.34619V9.08667C3 9.36281 3.22386 9.58667 3.5 9.58667H7.98649C8.26263 9.58667 8.48649 9.36281 8.48649 9.08667V4.34619C8.48649 4.07005 8.26263 3.84619 7.98649 3.84619ZM3.5 11.63H6.47297C6.74912 11.63 6.97297 11.8539 6.97297 12.13V13.1732C6.97297 13.4493 6.74912 13.6732 6.47297 13.6732H3.5C3.22386 13.6732 3 13.4493 3 13.1732V12.13C3 11.8539 3.22386 11.63 3.5 11.63ZM8.98649 13.6732H16.5C16.7761 13.6732 17 13.4493 17 13.1732V12.13C17 11.8539 16.7761 11.63 16.5 11.63H8.98649C8.71035 11.63 8.48649 11.8539 8.48649 12.13V13.1732C8.48649 13.4493 8.71034 13.6732 8.98649 13.6732ZM3.5 19.803H16.5C16.7761 19.803 17 20.0269 17 20.303V21.3462C17 21.6223 16.7761 21.8462 16.5 21.8462H3.5C3.22386 21.8462 3 21.6223 3 21.3462V20.303C3 20.0269 3.22386 19.803 3.5 19.803ZM13.527 17.7597H16.5C16.7761 17.7597 17 17.5358 17 17.2597V16.2165C17 15.9404 16.7761 15.7165 16.5 15.7165H13.527C13.2509 15.7165 13.027 15.9404 13.027 16.2165V17.2597C13.027 17.5358 13.2509 17.7597 13.527 17.7597Z" fill="currentColor"/>
</svg>
