<svg width="12" height="12" version="1.1" viewBox="0 0 12 12" xmlns="http://www.w3.org/2000/svg">
  <path d="m3.7364 0.62354c0.00296-0.3414-0.2714-0.62056-0.6128-0.62352-0.3414-0.0029588-0.62056 0.2714-0.62351 0.6128l-0.01622 1.871-1.871 0.01622c-0.34139 0.00295-0.61576 0.28211-0.6128 0.62351 0.002958 0.3414 0.28212 0.61576 0.62352 0.6128l1.8496-0.01603-0.03674 4.2401-2e-5 0.00179-1e-5 0.00357c0 0.42377 0.16835 0.8302 0.46801 1.1298 0.29965 0.29966 0.70608 0.46801 1.1298 0.46801h4.293v1.8182c0 0.3414 0.27677 0.6182 0.61818 0.6182 0.34145 0 0.61815-0.2768 0.61815-0.6182v-1.8182h1.8182c0.3414 0 0.6182-0.27677 0.6182-0.61819 0-0.34141-0.2768-0.61818-0.6182-0.61818h-1.8182v-4.293c0-0.42377-0.1683-0.8302-0.46797-1.1298-0.29965-0.29966-0.70608-0.46801-1.1298-0.46801-0.00118 0-0.00237 1e-5 -0.00355 1e-5 -6e-4 1e-5 -0.00121 1e-5 -0.00181 2e-5l-4.2401 0.03674zm-0.02674 3.0861-0.03691 4.2582c5.3e-4 0.09514 0.03856 0.18628 0.10588 0.25359 0.06779 0.0678 0.15974 0.10588 0.25561 0.10588h4.293v-4.293c0-0.09587-0.03808-0.18782-0.10588-0.25561-0.06731-0.06732-0.15845-0.10535-0.25359-0.10588z" clip-rule="evenodd" fill="currentColor" fill-rule="evenodd"/>
</svg>
