<svg width="13" height="12" viewBox="0 0 13 12" fill="none" xmlns="http://www.w3.org/2000/svg">
<path fill-rule="evenodd" clip-rule="evenodd" d="M4.48638 0.62354C4.48934 0.28214 4.21498 0.00298246 3.87358 2.37085e-05C3.53218 -0.00293511 3.25302 0.271425 3.25007 0.612825L3.23385 2.48385L1.36282 2.50007C1.02143 2.50302 0.747065 2.78218 0.750024 3.12358C0.752982 3.46498 1.03214 3.73934 1.37354 3.73638L3.22313 3.72035L3.18639 7.96042L3.18637 7.96221L3.18636 7.96578C3.18636 8.38955 3.35471 8.79598 3.65437 9.09563C3.95402 9.39529 4.36045 9.56364 4.78422 9.56364H9.07727V11.3818C9.07727 11.7232 9.35404 12 9.69545 12C10.0369 12 10.3136 11.7232 10.3136 11.3818V9.56364H12.1318C12.4732 9.56364 12.75 9.28687 12.75 8.94545C12.75 8.60404 12.4732 8.32727 12.1318 8.32727H10.3136V4.03422C10.3136 3.61045 10.1453 3.20402 9.84563 2.90437C9.54598 2.60471 9.13955 2.43636 8.71578 2.43636C8.7146 2.43636 8.71341 2.43637 8.71223 2.43637C8.71163 2.43638 8.71102 2.43638 8.71042 2.43639L4.47035 2.47313L4.48638 0.62354ZM4.45964 3.70964L4.42273 7.9678C4.42326 8.06294 4.46129 8.15408 4.52861 8.22139C4.5964 8.28919 4.68835 8.32727 4.78422 8.32727H9.07727V4.03422C9.07727 3.93835 9.03919 3.8464 8.97139 3.77861C8.90408 3.71129 8.81294 3.67326 8.7178 3.67273L4.45964 3.70964Z" fill="white"/>
</svg>
