<svg
   width="12"
   height="12"
   viewBox="0 0 12 12"
>
  <path
     d="m 10.314826,2.5792835 c 0.246899,-0.2468997 0.246899,-0.6472041 0,-0.8941088 -0.2469,-0.2468996 -0.647249,-0.2468996 -0.8941484,0 L 5.9999851,5.105895 2.5792826,1.6851747 c -0.2468994,-0.2468996 -0.6472035,-0.2468996 -0.894108,0 -0.2468995,0.2469047 -0.2468995,0.6472091 0,0.8941088 L 5.1058871,5.9999941 1.6851746,9.4206888 c -0.2468995,0.2469003 -0.2468995,0.6471992 0,0.8940992 0.2469045,0.246949 0.6472086,0.246949 0.894108,0 l 3.4207025,-3.420695 3.4206925,3.420695 c 0.2468994,0.246949 0.6472484,0.246949 0.8941484,0 0.246899,-0.2469 0.246899,-0.6471989 0,-0.8940992 L 6.8940836,5.9999941 Z"
     fill="currentColor"
  />
</svg>
