<svg width="24" height="24" viewBox="0 0 24 24">
<path d="M7.04899 6.86502C6.75726 6.9031 6.48337 7.02682 6.26196 7.22055C6.04055 7.41428 5.88156 7.66932 5.80509 7.95341C5.72862 8.2375 5.73812 8.53789 5.83237 8.81659C5.92663 9.09529 6.10141 9.33977 6.33461 9.51914C6.56781 9.6985 6.84897 9.80468 7.14252 9.82426C7.43607 9.84383 7.72884 9.77592 7.98379 9.6291C8.23874 9.48229 8.44444 9.26317 8.57486 8.99945C8.70528 8.73574 8.75457 8.43927 8.7165 8.14754C8.66544 7.75634 8.46108 7.40145 8.14836 7.16093C7.83564 6.92041 7.44019 6.81397 7.04899 6.86502Z" fill="currentColor"/>
<path d="M11.8053 10.5231C11.5136 10.5612 11.2397 10.6849 11.0183 10.8787C10.7969 11.0724 10.6379 11.3274 10.5614 11.6115C10.485 11.8956 10.4945 12.196 10.5887 12.4747C10.683 12.7534 10.8578 12.9979 11.091 13.1773C11.3242 13.3566 11.6053 13.4628 11.8989 13.4824C12.1924 13.502 12.4852 13.434 12.7401 13.2872C12.9951 13.1404 13.2008 12.9213 13.3312 12.6576C13.4616 12.3939 13.5109 12.0974 13.4728 11.8057C13.4218 11.4145 13.2174 11.0596 12.9047 10.8191C12.592 10.5785 12.1965 10.4721 11.8053 10.5231Z" fill="currentColor"/>
<path d="M15.7788 14.5401C16.0002 14.3464 16.2741 14.2227 16.5658 14.1846C16.957 14.1336 17.3524 14.24 17.6652 14.4805C17.9779 14.721 18.1822 15.0759 18.2333 15.4671C18.2714 15.7589 18.2221 16.0553 18.0917 16.319C17.9612 16.5828 17.7555 16.8019 17.5006 16.9487C17.2456 17.0955 16.9529 17.1634 16.6593 17.1439C16.3658 17.1243 16.0846 17.0181 15.8514 16.8387C15.6182 16.6594 15.4434 16.4149 15.3492 16.1362C15.2549 15.8575 15.2454 15.5571 15.3219 15.273C15.3984 14.9889 15.5573 14.7339 15.7788 14.5401Z" fill="currentColor"/>
<path d="M8.14759 15.2832C7.85587 15.3213 7.58198 15.445 7.36056 15.6387C7.13915 15.8325 6.98016 16.0875 6.90369 16.3716C6.82723 16.6557 6.83672 16.9561 6.93097 17.2348C7.02523 17.5135 7.20001 17.758 7.43321 17.9373C7.66642 18.1167 7.94757 18.2229 8.24112 18.2425C8.53468 18.262 8.82744 18.1941 9.08239 18.0473C9.33735 17.9005 9.54304 17.6814 9.67346 17.4177C9.80388 17.1539 9.85317 16.8575 9.8151 16.5657C9.76405 16.1745 9.55968 15.8196 9.24697 15.5791C8.93425 15.3386 8.53879 15.2322 8.14759 15.2832Z" fill="currentColor"/>
<path d="M14.6802 6.12195C14.9016 5.92822 15.1755 5.80449 15.4672 5.76642C15.8584 5.71537 16.2538 5.82181 16.5666 6.06233C16.8793 6.30285 17.0836 6.65774 17.1347 7.04894C17.1728 7.34067 17.1235 7.63714 16.9931 7.90085C16.8626 8.16457 16.6569 8.38369 16.402 8.5305C16.147 8.67731 15.8543 8.74523 15.5607 8.72565C15.2672 8.70608 14.986 8.5999 14.7528 8.42054C14.5196 8.24117 14.3448 7.99668 14.2506 7.71799C14.1563 7.43929 14.1468 7.1389 14.2233 6.85481C14.2998 6.57072 14.4587 6.31568 14.6802 6.12195Z" fill="currentColor"/>
<path fill-rule="evenodd" clip-rule="evenodd" d="M3.39683 2.58443C2.54672 2.69537 1.78374 3.0612 1.28334 3.74326C0.788844 4.41727 0.662677 5.24775 0.770259 6.0721L2.66765 20.6111C2.77523 21.4355 3.1103 22.2058 3.76121 22.7303C4.41989 23.2611 5.2512 23.4189 6.10131 23.3079L20.5409 21.4235C21.3892 21.3128 22.157 20.9482 22.671 20.2799C23.185 19.6117 23.3403 18.7759 23.2296 17.9277L21.3322 3.3887C21.2215 2.54049 20.8569 1.77261 20.1887 1.25865C19.5204 0.744682 18.6847 0.589315 17.8365 0.70001L3.39683 2.58443ZM2.88237 5.79647C2.82419 5.35071 2.91714 5.11717 3.00072 5.00324C3.0784 4.89737 3.25246 4.75135 3.67246 4.69654L18.1121 2.81212C18.534 2.75706 18.7663 2.85186 18.8901 2.94704C19.0138 3.04221 19.1651 3.24244 19.2201 3.66433L21.1175 18.2034C21.1726 18.6253 21.0778 18.8576 20.9826 18.9813C20.8874 19.1051 20.6872 19.2563 20.2653 19.3114L5.82567 21.1958C5.40567 21.2506 5.19996 21.1542 5.09772 21.0718C4.9877 20.9831 4.83793 20.7812 4.77976 20.3355L2.88237 5.79647Z" fill="currentColor"/>
</svg>
