<svg width="25" height="24" viewBox="0 0 25 24" fill="currentColor" xmlns="http://www.w3.org/2000/svg">
    <path fill-rule="evenodd" clip-rule="evenodd" d="M17.5599 0.87333C18.7243 -0.291112 20.6122 -0.291108 21.7766 0.87333L23.6266 2.72335C24.791 3.88777 24.791 5.7757 23.6266 6.94014L8.95712 21.6097C8.5988 21.968 8.15508 22.229 7.66785 22.3682L2.12892 23.9507C1.68268 24.0784 1.20242 23.9538 0.874261 23.6257C0.5461 23.2975 0.421646 22.8173 0.549133 22.3711L2.1317 16.8321C2.2709 16.345 2.53198 15.9011 2.8903 15.5428L17.5599 0.87333ZM19.9695 2.68053C19.803 2.51418 19.5333 2.51418 19.367 2.68053L17.2157 4.83174L19.6683 7.28415L21.8195 5.13294C21.9858 4.96659 21.9858 4.69689 21.8195 4.53055L19.9695 2.68053ZM17.861 9.09135L15.4086 6.63894L4.6975 17.3501C4.64632 17.4012 4.60902 17.4646 4.58912 17.5342L3.63848 20.8615L6.96573 19.9108C7.03533 19.891 7.09872 19.8537 7.14992 19.8024L17.861 9.09135Z" />
</svg>