<svg width="24" height="23" viewBox="0 0 24 23" fill="none" xmlns="http://www.w3.org/2000/svg">
<path fill-rule="evenodd" clip-rule="evenodd" d="M0 4.06619C0 2.92721 0 2.35772 0.225173 1.92424C0.414924 1.55896 0.712765 1.26112 1.07805 1.07136C1.51153 0.846191 2.08102 0.846191 3.22 0.846191H20.78C21.919 0.846191 22.4885 0.846191 22.9219 1.07136C23.2872 1.26112 23.5851 1.55896 23.7748 1.92424C24 2.35772 24 2.92721 24 4.06619V16.6262C24 17.7652 24 18.3347 23.7748 18.7681C23.5851 19.1334 23.2872 19.4313 22.9219 19.621C22.4885 19.8462 21.919 19.8462 20.78 19.8462H15.116L12.7068 22.5274C12.35 22.9504 11.5625 22.9544 11.1884 22.5274L8.77615 19.8462H3.22C2.08102 19.8462 1.51153 19.8462 1.07805 19.621C0.712765 19.4313 0.414924 19.1334 0.225173 18.7681C0 18.3347 0 17.7652 0 16.6262V4.06619ZM11.9999 15.3462C11.9068 15.3462 11.8112 15.3339 11.7083 15.3085C11.6708 15.2984 11.6433 15.2883 11.6161 15.2769L11.5848 15.2656C11.5382 15.2499 11.4921 15.2327 11.4485 15.2098C11.3954 15.1818 6 12.3115 6 9.01373C6 6.92279 7.47663 5.34619 9.43501 5.34619C10.299 5.34619 11.2863 5.77751 11.9999 6.44633C12.7137 5.77751 13.7007 5.34619 14.565 5.34619C16.5231 5.34619 18 6.92303 18 9.01373C18 12.3115 12.6046 15.1818 12.5502 15.2105C12.5071 15.2332 12.4615 15.2501 12.4152 15.2658C12.4138 15.2663 12.39 15.2743 12.3888 15.275C12.3569 15.2885 12.3295 15.2986 12.3008 15.3064C12.1888 15.3339 12.0932 15.3462 11.9999 15.3462Z" fill="currentColor"/>
</svg>
