<svg width="16" height="17" viewBox="0 0 16 17" fill="none" xmlns="http://www.w3.org/2000/svg">
<path fill-rule="evenodd" clip-rule="evenodd" d="M5.91846e-05 4.33931C-1.97747e-05 4.34545 -1.96817e-05 4.35158 5.91846e-05 4.35772V12.6736C5.91846e-05 13.8639 0.98101 14.8333 2.18186 14.8333H13.8181C15.019 14.8333 15.9999 13.8639 15.9999 12.6736V4.35817C16 4.35174 16 4.3453 15.9999 4.33886V4.32636C15.9999 3.13608 15.019 2.16666 13.8181 2.16666H2.18186C0.98101 2.16666 5.91846e-05 3.13608 5.91846e-05 4.32636V4.33931ZM1.52388 4.02242C1.6407 3.77869 1.89264 3.60758 2.18186 3.60758H13.8181C14.1074 3.60758 14.3593 3.7787 14.4761 4.02242L8 8.51929L1.52388 4.02242ZM14.5454 5.73396V12.6736C14.5454 13.0665 14.2173 13.3924 13.8181 13.3924H2.18186C1.78272 13.3924 1.45459 13.0665 1.45459 12.6736V5.73396L7.35993 9.83449C7.74415 10.1013 8.25585 10.1013 8.64007 9.83448L14.5454 5.73396Z" fill="currentColor"/>
</svg>
