<svg className="svg-icon" height="16px" width="16px">
    <g fill="none" fillRule="evenodd" id="Brand" stroke="none" strokeWidth="1">
        <g id="Artboard" transform="translate(-62.000000, -30.000000)">
            <g
                id="Icons/16x16/toolbar/dark-grey/expanded"
                transform="translate(62.000000, 29.000000)"
            >
                <g>
                    <rect height="16" id="shape-hold" width="16" x="0" y="0" />
                    <path
                        d="M0.5,4 L15.5,4 C15.7761424,4 16,4.22385763 16,4.5 L16,11.5 C16,11.7761424 15.7761424,12 15.5,12 L0.5,12 C0.223857625,12 3.38176876e-17,11.7761424 0,11.5 L0,4.5 C-3.38176876e-17,4.22385763 0.223857625,4 0.5,4 Z M2.5,13.5 L13.5,13.5 C13.7761424,13.5 14,13.7238576 14,14 L14,14.5 C14,14.7761424 13.7761424,15 13.5,15 L2.5,15 C2.22385763,15 2,14.7761424 2,14.5 L2,14 C2,13.7238576 2.22385763,13.5 2.5,13.5 Z M2.5,1 L13.5,1 C13.7761424,1 14,1.22385763 14,1.5 L14,2 C14,2.27614237 13.7761424,2.5 13.5,2.5 L2.5,2.5 C2.22385763,2.5 2,2.27614237 2,2 L2,1.5 C2,1.22385763 2.22385763,1 2.5,1 Z"
                        fill="currentcolor"
                        id="icon.popout"
                    />
                </g>
            </g>
        </g>
    </g>
</svg>
