<svg width="24" height="24" viewBox="0 0 24 24" fill="none" xmlns="http://www.w3.org/2000/svg">
    <path fill-rule="evenodd" clip-rule="evenodd" d="M15.761 1H22.5884C22.8158 1 23 1.1843 23 1.41164V8.23906C23 8.60579 22.5566 8.78946 22.2972 8.53013L19.7568 5.98965L12.7646 12.9819C12.2823 13.4641 11.5004 13.4641 11.0181 12.9819C10.5359 12.4996 10.5359 11.7177 11.0181 11.2354L18.0104 4.2432L15.4699 1.70272C15.2106 1.4434 15.3942 1 15.761 1ZM3.8815 2.20062C2.29009 2.20062 1 3.49071 1 5.08212V20.1185C1 21.7099 2.29009 23 3.8815 23H18.9179C20.5093 23 21.7994 21.7099 21.7994 20.1185V13.2406C21.7994 12.5586 21.2465 12.0057 20.5644 12.0057C19.8824 12.0057 19.3295 12.5586 19.3295 13.2406V20.1185C19.3295 20.3459 19.1453 20.5301 18.9179 20.5301H3.8815C3.65416 20.5301 3.46985 20.3459 3.46985 20.1185V5.08212C3.46985 4.85478 3.65416 4.67048 3.8815 4.67048H10.8337C11.5157 4.67048 12.0686 4.11758 12.0686 3.43555C12.0686 2.75353 11.5157 2.20062 10.8337 2.20062H3.8815Z" fill="currentcolor"/>
</svg>
