<svg width="20" height="20" viewBox="0 0 20 20" fill="currentColor" xmlns="http://www.w3.org/2000/svg">
<path d="M19.2717 0.756779C19.2717 0.637363 19.1749 0.540556 19.0555 0.540556H17.4211C17.3633 0.540556 17.3079 0.563696 17.2673 0.604811L15.3059 2.59003C15.2253 2.67159 15.2224 2.80187 15.2993 2.88694L16.1975 3.88125C16.2764 3.96856 16.4106 3.97678 16.4995 3.89973L17.3129 3.19507C17.3199 3.18901 17.3308 3.19398 17.3308 3.20324V11.123C17.3308 11.2424 17.4276 11.3392 17.547 11.3392H19.0555C19.1749 11.3392 19.2717 11.2424 19.2717 11.123V0.756779Z"/>
<path d="M7.49579 0C5.92716 0 4.44818 0.473494 3.32678 1.31202C2.20982 2.14722 1.37424 3.41606 1.36719 4.94668C1.3546 5.54285 1.39513 6.12832 1.61886 6.68081C1.95246 7.50466 2.43676 8.39578 3.51828 9.04924C5.60259 10.3086 8.71224 11.4938 9.74558 11.9638C11.3151 12.6775 11.3076 13.264 11.4149 13.9192C11.5512 14.7516 11.1324 15.6907 10.4291 16.2133C9.68549 16.7659 8.98999 16.9594 7.60746 16.9594C5.37537 16.9594 4.1077 15.7812 3.68001 14.5882C3.39666 13.7978 2.52622 13.3868 1.73582 13.6701C0.945433 13.9535 0.534397 14.8239 0.817749 15.6143C1.78804 18.3209 4.44922 20 7.60746 20C9.4768 20 10.9109 19.4637 12.2983 18.4326C13.7261 17.3716 14.3447 15.9867 14.3447 13.9989C14.3447 13.1227 14.138 12.3687 13.7872 11.7188C13.0151 10.2883 11.2732 9.66457 10.8712 9.45463C10.4691 9.24469 7.44502 8.05633 6.37388 7.56867C5.30274 7.08101 4.70372 6.52461 4.52662 6.08726C4.3779 5.71999 4.35206 5.46424 4.35206 5.07986C4.35206 4.7161 4.64798 4.09831 5.19417 3.6899C5.74065 3.28127 6.51931 3.04063 7.49579 3.04063C9.45392 3.04063 10.4708 4.12119 10.572 4.80564C10.6948 5.63626 11.4677 6.21006 12.2983 6.08726C13.1289 5.96446 13.7027 5.19157 13.5799 4.36095C13.1717 1.59959 10.2817 0 7.49579 0Z"/>
</svg>
