<svg width="16" height="20" viewBox="0 0 16 20" fill="currentColor" xmlns="http://www.w3.org/2000/svg">
<path d="M2.82444 0C3.61847 0 4.26216 0.643689 4.26216 1.43772V7.89148C4.26216 9.95596 5.93575 11.6295 8.00023 11.6295C10.0647 11.6295 11.7383 9.95596 11.7383 7.89148V1.43772C11.7383 0.643689 12.382 0 13.176 0C13.97 0 14.6137 0.643689 14.6137 1.43772V7.89148C14.6137 11.544 11.6528 14.505 8.00023 14.505C4.34769 14.505 1.38672 11.544 1.38672 7.89148V1.43772C1.38672 0.643689 2.03041 0 2.82444 0Z"/>
<path d="M0.498047 18.5623C0.498047 17.7683 1.25257 17.1246 2.18332 17.1246H13.8167C14.7474 17.1246 15.502 17.7683 15.502 18.5623C15.502 19.3563 14.7474 20 13.8167 20H2.18332C1.25257 20 0.498047 19.3563 0.498047 18.5623Z"/>
</svg>
