<svg
   width="16"
   height="16"
   viewBox="0 0 16 16"
   fill="currentColor">
  <path
     fill-rule="evenodd"
     d="M 3.620938,1.665 C 3.0929876,1.665 2.665,2.0929461 2.665,2.6208517 V 13.379148 c 0,0.527873 0.4279876,0.955852 0.955938,0.955852 h 6.1026934 c 1.9945186,0 3.6113686,-1.63103 3.6113686,-3.625355 0,-1.5218683 -0.941539,-2.8925573 -2.273886,-3.4240307 0.363464,-0.5634151 0.574407,-1.2333982 0.574407,-1.9537414 0,-1.9942923 -1.61685,-3.6668662 -3.6113023,-3.6668662 z m 0.9559446,7.2767119 h 3.4473361 c 0.011871,0 0.023742,0 0.03568,-1.334e-4 h 1.6637331 c 0.9386052,0 1.6994792,0.829552 1.6994792,1.7680665 0,0.938514 -0.760874,1.713651 -1.6994792,1.713651 H 4.5768826 Z M 8.0486275,7.0298802 c 0.9273343,-0.01307 1.6750039,-0.7676621 1.6750039,-1.6980073 0,-0.9384873 -0.7608743,-1.7551626 -1.6994127,-1.7551626 l -3.4473361,-6.6e-6 v 3.4531765 z"
  />
</svg>
