<svg width="16" height="20" viewBox="0 0 16 20" fill="currentColor" xmlns="http://www.w3.org/2000/svg">
<path d="M2.35694 1.51518C2.35694 0.678369 3.03531 7.94743e-07 3.87212 6.62286e-07L14.484 0C15.3208 -1.32457e-07 15.9992 0.678368 15.9992 1.51518C15.9992 2.35199 15.3208 3.03036 14.484 3.03036L10.5554 3.03036L8.63459 16.9696H12.127C12.9639 16.9696 13.6422 17.648 13.6422 18.4848C13.6422 19.3216 12.9639 20 12.127 20H1.51518C0.678369 20 0 19.3216 0 18.4848C-1.32457e-07 17.648 0.678369 16.9696 1.51518 16.9696H5.5756L7.49637 3.03036L3.87212 3.03036C3.03531 3.03036 2.35694 2.35199 2.35694 1.51518Z"/>
</svg>
