<svg
   width="16"
   height="16"
   viewBox="0 0 16 16"
   fill="currentColor">
  <path
     d="m 4.5505201,1.335 c 0.5292139,0 0.9582275,0.4290187 0.9582275,0.9582404 v 4.301431 c 0,1.3759759 1.1154327,2.4913903 2.4913901,2.4913903 1.3759507,0 2.4913903,-1.1154144 2.4913903,-2.4913903 v -4.301431 c 0,-0.5292217 0.42902,-0.9582404 0.958214,-0.9582404 0.529194,0 0.958214,0.4290187 0.958214,0.9582404 v 4.301431 c 0,2.4344046 -1.973413,4.4079106 -4.4078183,4.4079106 -2.4343852,0 -4.4078451,-1.973506 -4.4078451,-4.4079106 V 2.2932404 C 3.5922926,1.7640187 4.0213062,1.335 4.5505201,1.335 Z"
  />
  <path
     d="m 3.0000001,13.706773 c 0,-0.529201 0.5028828,-0.958227 1.1232193,-0.958227 H 11.876763 C 12.497066,12.748546 13,13.177572 13,13.706773 13,14.235974 12.497066,14.665 11.876763,14.665 H 4.1232194 c -0.6203365,0 -1.1232193,-0.429026 -1.1232193,-0.958227 z"
  />
</svg>
