<svg
   width="16"
   height="16"
   viewBox="0 0 16 16">
  <path
     d="m 14.179638,1.8393932 c 0,-0.079591 -0.06452,-0.1441126 -0.144097,-0.1441126 h -1.089328 c -0.03852,0 -0.07545,0.015423 -0.102507,0.042826 L 11.536432,3.061255 c -0.05372,0.05436 -0.05565,0.1411914 -0.0044,0.1978905 l 0.59865,0.6627076 c 0.05259,0.058192 0.142031,0.063671 0.201283,0.012317 l 0.542131,-0.4696558 c 0.0047,-0.00404 0.01193,-7.265e-4 0.01193,0.00545 v 5.27852 c 0,0.07958 0.06452,0.1440973 0.144098,0.1440973 h 1.005415 c 0.07958,0 0.144097,-0.064517 0.144097,-0.1440973 z"
     fill="currentColor"
  />
  <path
     d="M 6.3309941,1.335 C 5.2855022,1.335 4.2997621,1.6505838 3.552349,2.2094613 2.8078951,2.7661221 2.2509811,3.611804 2.2462822,4.6319622 c -0.00839,0.3973473 0.018622,0.7875631 0.1677381,1.1557977 0.2223444,0.549096 0.5451303,1.1430275 1.2659634,1.5785586 1.3891926,0.8393634 3.4617744,1.6292992 4.1504955,1.9425542 1.0460851,0.4756811 1.0410863,0.8665833 1.1126017,1.3032743 0.090844,0.554794 -0.1882862,1.180705 -0.6570357,1.529017 -0.495616,0.368308 -0.9591668,0.497276 -1.880623,0.497276 -1.487688,0 -2.3325901,-0.78527 -2.6176454,-1.580405 C 3.598924,10.531234 3.0187757,10.257302 2.4919741,10.446122 1.9651812,10.635008 1.6912257,11.215129 1.8800798,11.741931 2.5267788,13.54588 4.3004552,14.665 6.4054222,14.665 c 1.2459151,0 2.2017428,-0.357444 3.1264448,-1.044672 0.951629,-0.707157 1.363926,-1.630192 1.363926,-2.955061 0,-0.583987 -0.137766,-1.0865284 -0.371574,-1.5196868 C 10.009614,8.192152 8.8486379,7.7764359 8.5807049,7.6365109 8.3127052,7.4965859 6.2971559,6.7045439 5.5832411,6.3795186 4.8693263,6.0544932 4.4700795,5.6836526 4.3520423,5.3921588 4.2529205,5.1473733 4.2356981,4.976916 4.2356981,4.7207267 c 0,-0.242446 0.1972307,-0.6542031 0.5612663,-0.9264083 0.3642289,-0.2723519 0.8832058,-0.4327385 1.5340297,-0.4327385 1.3050937,0 1.9828442,0.7201932 2.050294,1.1763792 0.081846,0.5536082 0.5969841,0.9360459 1.150579,0.8541997 C 10.085462,5.3103126 10.4679,4.7951814 10.386053,4.2415732 10.113988,2.4011267 8.1878032,1.335 6.3309941,1.335 Z"
     fill="currentColor"
  />
</svg>
