<svg width="16" height="20" viewBox="0 0 16 20" fill="currentColor" xmlns="http://www.w3.org/2000/svg">
  <path fill-rule="evenodd" d="M 1.43376,0.5 C 0.64212,0.5 3.7000107e-4,1.1417499 3.7000107e-4,1.9333997 V 18.066591 c 0,0.7916 0.64174999893,1.4334 1.43338999893,1.4334 h 9.15074 c 2.9907,0 5.4151,-2.4459 5.4151,-5.4366 0,-2.2822 -1.4118,-4.3376916 -3.4096,-5.1346916 0.545,-0.8449 0.8613,-1.8496097 0.8613,-2.9298397 0,-2.99065 -2.4244,-5.4988497 -5.415,-5.4988497 z m 1.4334,10.912191 H 8.0363 c 0.0178,0 0.0356,0 0.0535,-2e-4 h 2.4947 c 1.4074,0 2.5483,1.244 2.5483,2.6514 0,1.4074 -1.1409,2.5698 -2.5483,2.5698 H 2.86716 Z M 8.0729,8.5451994 c 1.3905,-0.0196 2.5116,-1.1511897 2.5116,-2.5463397 0,-1.40736 -1.1409,-2.63205 -2.5482,-2.63205 l -5.16914,-1e-5 v 5.1783997 z" />
</svg>
