<svg
   width="16"
   height="16"
   viewBox="0 0 16 16">
  <path
     d="m 14.179638,7.3179838 c 0,-0.079594 -0.06452,-0.1441107 -0.144097,-0.1441107 h -1.089328 c -0.03852,0 -0.07545,0.015423 -0.102507,0.042823 l -1.307274,1.3231688 c -0.05372,0.05432 -0.05565,0.1411647 -0.0044,0.1978839 l 0.59865,0.6627009 c 0.05259,0.058186 0.142031,0.063651 0.201283,0.01233 l 0.542131,-0.4696826 c 0.0047,-0.00407 0.01193,-7.331e-4 0.01193,0.00547 v 5.2784799 c 0,0.07958 0.06452,0.144097 0.144098,0.144097 h 1.005415 c 0.07958,0 0.144097,-0.06452 0.144097,-0.144097 z"
     fill="currentColor"
  />
  <path
     d="m 6.3309942,1.3349999 c -1.0454919,0 -2.031232,0.3155838 -2.7786451,0.8744613 -0.7444539,0.5566608 -1.3013679,1.4023427 -1.3060668,2.4225009 -0.00839,0.3973473 0.018622,0.7875631 0.1677381,1.1557977 0.2223444,0.549096 0.5451303,1.1430275 1.2659634,1.5785586 1.3891926,0.8393634 3.4617744,1.6292992 4.1504955,1.9425542 1.0460848,0.4756811 1.0410858,0.8665834 1.1126018,1.3032744 0.09084,0.554794 -0.188286,1.180704 -0.6570357,1.529017 -0.4956161,0.368308 -0.9591669,0.497276 -1.8806231,0.497276 -1.487688,0 -2.3325901,-0.78527 -2.6176454,-1.580405 C 3.5989241,10.531234 3.0187758,10.257302 2.4919742,10.446122 1.9651813,10.635008 1.6912258,11.215129 1.8800799,11.741931 2.5267789,13.54588 4.3004553,14.665 6.4054223,14.665 c 1.2459151,0 2.2017428,-0.357444 3.1264448,-1.044672 0.9516289,-0.707157 1.3639259,-1.630193 1.3639259,-2.955061 0,-0.583988 -0.137766,-1.0865285 -0.371574,-1.5196869 C 10.009614,8.1921519 8.8486381,7.7764358 8.5807051,7.6365108 8.3127054,7.4965858 6.297156,6.7045438 5.5832412,6.3795185 4.8693264,6.0544931 4.4700796,5.6836525 4.3520424,5.3921587 4.2529206,5.1473732 4.2356982,4.9769159 4.2356982,4.7207266 c 0,-0.2424461 0.1972307,-0.6542031 0.5612663,-0.9264083 0.3642289,-0.2723519 0.8832058,-0.4327385 1.5340297,-0.4327385 1.3050937,0 1.9828442,0.7201932 2.0502939,1.1763792 0.08185,0.5536082 0.596984,0.9360459 1.150579,0.8541997 C 10.085462,5.3103125 10.4679,4.7951813 10.386053,4.2415731 10.113988,2.4011266 8.1878033,1.3349999 6.3309942,1.3349999 Z"
     fill="currentColor"
  />
</svg>
