<svg
   width="16"
   height="16"
   viewBox="0 0 16 16">
  <path
     d="m 4.236863,2.3448675 c 0,-0.5577346 0.4524106,-1.009867 1.0104861,-1.0098671 l 7.0771519,-4e-7 c 0.558068,-1e-7 1.010499,0.4521323 1.010499,1.0098675 0,0.5577338 -0.452431,1.0098674 -1.010499,1.0098674 H 9.7044843 L 8.4234801,12.645238 h 2.3291179 c 0.558135,0 1.010499,0.452154 1.010499,1.009881 0,0.557727 -0.452364,1.009881 -1.010499,1.009881 H 3.6754862 C 3.11741,14.665 2.665,14.212846 2.665,13.655119 c -10e-8,-0.557727 0.45241,-1.009881 1.0104862,-1.009881 h 2.707928 L 7.6643917,3.3547349 H 5.2473491 c -0.5580755,0 -1.0104861,-0.4521336 -1.0104861,-1.0098674 z"
     fill="currentColor"
  />
</svg>
