<svg
   width="16"
   height="16"
   viewBox="0 0 16 16"
   fill="currentColor">
  <path
     d="m 7.9729225,1.335 c -1.046023,0 -2.032264,0.3155837 -2.7800568,0.8744613 -0.744832,0.5566608 -1.302031,1.4023427 -1.3067269,2.4225009 -0.00839,0.3973473 0.018631,0.7875631 0.1678199,1.1557977 0.2224641,0.549096 0.5454073,1.1430275 1.2666066,1.5785586 1.3898984,0.8393634 3.463533,1.6292992 4.1526107,1.9425542 1.046636,0.4756811 1.041568,0.8665833 1.11312,1.3032743 0.09096,0.554794 -0.188382,1.180705 -0.6573425,1.529017 -0.4958479,0.368308 -0.9596408,0.497276 -1.8815651,0.497276 -1.4884371,0 -2.3337751,-0.78527 -2.6189753,-1.580405 C 5.2394644,10.531234 4.6590214,10.257302 4.1319588,10.446122 3.604893,10.635008 3.330798,11.215129 3.5197483,11.741931 4.1667745,13.54588 5.941352,14.665 8.0473884,14.665 c 1.246548,0 2.2028216,-0.357444 3.1280596,-1.044672 C 12.127494,12.913171 12.54,11.990136 12.54,10.665267 12.54,10.08128 12.402231,9.5787386 12.168304,9.1455802 11.653438,8.1921519 10.491872,7.7764359 10.223736,7.6365109 9.955667,7.4965859 7.9390671,6.7045439 7.2247896,6.3795186 6.5105121,6.0544932 6.1110625,5.6836526 5.9929653,5.3921588 5.8937931,5.1473733 5.876562,4.976916 5.876562,4.7207267 c 0,-0.242446 0.1973375,-0.6542031 0.5615514,-0.9264083 0.3644207,-0.2723519 0.8836545,-0.4327385 1.5348091,-0.4327385 1.3057567,0 1.9838715,0.7201932 2.0513625,1.1763792 0.08189,0.5536082 0.597287,0.9360459 1.151163,0.8541997 0.553876,-0.081846 0.936508,-0.5969774 0.85462,-1.1505856 C 11.757865,2.4011267 9.8306881,1.335 7.9729225,1.335 Z"
  />
</svg>
