<svg width="14" height="20" viewBox="0 0 14 20" fill="currentColor" xmlns="http://www.w3.org/2000/svg">
<path d="M6.95935 0C5.39072 0 3.91174 0.473494 2.79034 1.31202C1.67338 2.14722 0.837797 3.41606 0.830755 4.94668C0.818167 5.54285 0.858694 6.12832 1.08242 6.68081C1.41603 7.50466 1.90032 8.39578 2.98184 9.04924C5.06615 10.3086 8.1758 11.4938 9.20915 11.9638C10.7787 12.6775 10.7711 13.264 10.8784 13.9192C11.0148 14.7516 10.5959 15.6907 9.89264 16.2133C9.14906 16.7659 8.45355 16.9594 7.07102 16.9594C4.83894 16.9594 3.57126 15.7812 3.14357 14.5882C2.86022 13.7978 1.98978 13.3868 1.19939 13.6701C0.408995 13.9535 -0.00204146 14.8239 0.281311 15.6143C1.2516 18.3209 3.91278 20 7.07102 20C8.94036 20 10.3744 19.4637 11.7619 18.4326C13.1896 17.3716 13.8082 15.9867 13.8082 13.9989C13.8082 13.1227 13.6016 12.3687 13.2508 11.7188C12.4787 10.2883 10.7368 9.66457 10.3347 9.45463C9.9327 9.24469 6.90858 8.05633 5.83744 7.56867C4.7663 7.08101 4.16728 6.52461 3.99018 6.08726C3.84146 5.71999 3.81562 5.46424 3.81562 5.07986C3.81562 4.7161 4.11155 4.09831 4.65773 3.6899C5.20422 3.28127 5.98287 3.04063 6.95935 3.04063C8.91748 3.04063 9.93439 4.12119 10.0356 4.80564C10.1584 5.63626 10.9313 6.21006 11.7619 6.08726C12.5925 5.96446 13.1663 5.19157 13.0435 4.36095C12.6353 1.59959 9.74528 0 6.95935 0Z" />
</svg>
