<svg className="svg-icon" height="16px" width="16px">
    <g fill="none" fillRule="evenodd" id="Brand" stroke="none" strokeWidth="1">
        <g id="Artboard" transform="translate(-35.000000, -49.000000)">
            <g
                id="Icons/16x16/toolbar/dark-grey/full-width"
                transform="translate(35.000000, 48.000000)"
            >
                <g>
                    <rect height="16" id="shape-hold" width="16" x="0" y="0" />
                    <path
                        d="M1,1 L15,1 C15.5522847,1 16,1.44771525 16,2 L16,12 C16,12.5522847 15.5522847,13 15,13 L1,13 C0.44771525,13 6.76353751e-17,12.5522847 0,12 L0,2 C-6.76353751e-17,1.44771525 0.44771525,1 1,1 Z M5,5 L2,7.05151367 L5,9 L5,5 Z M11,5 L11,9 L14,7.05151367 L11,5 Z M2.5,14.5 L13.5,14.5 C13.7761424,14.5 14,14.7238576 14,15 L14,15.5 C14,15.7761424 13.7761424,16 13.5,16 L2.5,16 C2.22385763,16 2,15.7761424 2,15.5 L2,15 C2,14.7238576 2.22385763,14.5 2.5,14.5 Z"
                        fill="currentcolor"
                        id="icon.full-width"
                    />
                </g>
            </g>
        </g>
    </g>
</svg>
