<svg width="16" height="17" viewBox="0 0 16 17" fill="none" xmlns="http://www.w3.org/2000/svg">
<path fill-rule="evenodd" clip-rule="evenodd" d="M8 0.5C3.58172 0.5 0 4.08172 0 8.5C0 12.9183 3.58172 16.5 8 16.5C12.4183 16.5 16 12.9183 16 8.5C16 4.08172 12.4183 0.5 8 0.5ZM1.71679 6.65975C1.54609 7.24352 1.45455 7.86107 1.45455 8.5C1.45455 11.69 3.73655 14.347 6.75715 14.9276C6.74357 14.8509 6.73654 14.7723 6.73654 14.6929C6.73654 14.4365 6.63467 14.1907 6.45335 14.0095L6.09344 13.6498C5.83868 13.3951 5.69554 13.0497 5.69554 12.6895V12.0933C5.69554 11.836 5.5933 11.5893 5.41133 11.4074L4.92699 10.9234C4.75255 10.749 4.65455 10.5125 4.65455 10.2659C4.65455 9.75253 5.07071 9.33636 5.58407 9.33636H9.01248C9.69441 9.33636 10.2474 9.88889 10.2474 10.5707V11.2643C10.2474 11.3486 10.3158 11.4172 10.4005 11.4172C10.8908 11.4172 11.2884 11.8144 11.2884 12.3047C11.2884 12.389 11.3568 12.4576 11.4415 12.4576H11.4658C11.998 12.4576 12.424 12.7477 12.618 13.1386C13.8086 11.9533 14.5455 10.3127 14.5455 8.5C14.5455 5.67704 12.7584 3.27147 10.2538 2.35291C10.2543 2.36797 10.2545 2.38306 10.2545 2.39817V3.30705C10.2545 3.988 9.70381 4.54088 9.0234 4.54088H7.98619C7.52094 4.54088 7.14292 4.91915 7.14292 5.38683C7.14292 6.06778 6.59219 6.62066 5.91177 6.62066H5.61027C5.31106 6.62066 5.0685 6.86321 5.0685 7.16242C5.0685 7.40856 4.97088 7.64466 4.79706 7.81893L4.70808 7.90814C4.22727 8.39019 3.44754 8.39022 2.9667 7.90822L2.96662 7.90814L1.71679 6.65975Z" fill="currentColor"/>
</svg>
