<svg width="24" height="24" viewBox="0 0 24 24" fill="none" xmlns="http://www.w3.org/2000/svg">
<path d="M0 3.49057C0 2.12075 1.08 1 2.4 1H21.6C22.926 1 24 2.11453 24 3.49057V20.5094C24 21.8855 22.926 23 21.6 23H2.4C1.074 23 0 21.8855 0 20.5094V3.49057ZM13.2 14.6981L9.6 10.9623L2.4 19.4717H21.6L15.6 12.2075L13.2 14.6981ZM18 9.71698C19.326 9.71698 20.4 8.60245 20.4 7.22641C20.4 5.85038 19.326 4.73585 18 4.73585C16.674 4.73585 15.6 5.85038 15.6 7.22641C15.6 8.60245 16.674 9.71698 18 9.71698Z" fill="currentColor"/>
</svg>
