<svg width="24" height="24" version="1.1" viewBox="0 0 24 24" xmlns="http://www.w3.org/2000/svg">
 <path d="m3.9999 2.7879c0-0.43513 0.35274-0.78788 0.78788-0.78788h14.424c0.4351 0 0.7879 0.35274 0.7879 0.78788 0 0.43513-0.3528 0.78788-0.7879 0.78788h-14.424c-0.43513 0-0.78788-0.35275-0.78788-0.78788z"/>
 <path d="m3.9999 21.212c0-0.4351 0.35274-0.7879 0.78788-0.7879h14.424c0.4351 0 0.7879 0.3528 0.7879 0.7879 0 0.4352-0.3528 0.7879-0.7879 0.7879h-14.424c-0.43513 0-0.78788-0.3527-0.78788-0.7879z"/>
 <path d="m0 6.6364c0-0.33472 0.40701-0.60606 0.90908-0.60606h22.182c0.50205 0 0.90914 0.27134 0.90914 0.60606v10.727c0 0.3348-0.4071 0.6061-0.90914 0.6061h-22.182c-0.50208 0-0.90908-0.2713-0.90908-0.6061z" fill="currentColor" />
</svg>
