<svg
   width="24"
   height="24"
   viewBox="0 0 24 24"
>
  <path
     fill-rule="evenodd"
     clip-rule="evenodd"
     d="m 3.366718,4.52728 c -0.10512,0.11 -0.23689,0.34639 -0.23689,0.83041 v 7.78711 c 0,0.4841 0.13177,0.7205 0.23689,0.8304 0.09768,0.1023 0.30386,0.2339 0.75992,0.2339 h 15.67926 c 0.4581,0 0.6929,-0.1336 0.8118,-0.2524 0.1188,-0.1189 0.2524,-0.3537 0.2524,-0.8119 V 5.35769 c 0,-0.45812 -0.1336,-0.69297 -0.2524,-0.81182 -0.1189,-0.11885 -0.3537,-0.25245 -0.8118,-0.25245 H 4.126638 c -0.45605,0 -0.66224,0.13165 -0.75992,0.23386 z M 1.708678,2.942761 C 2.337978,2.284269 3.203558,2 4.126638,2 l 15.67926,5e-7 c 0.921,0 1.7916,0.2823255 2.4335,0.9241755 0.6418,0.641854 0.9242,1.512494 0.9242,2.433514 v 7.78711 c 0,0.9211 -0.2824,1.7917 -0.9242,2.4336 -0.6419,0.6418 -1.5125,0.9241 -2.4335,0.9241 H 4.126638 c -0.92309,0 -1.78866,-0.2842 -2.41796,-0.9427 C 1.086819,14.9091 0.836402,14.04 0.836402,13.1448 V 5.35769 c 0,-0.89512 0.250417,-1.76422 0.872276,-2.414929 z M 4.107908,20.8533 c 0,-0.6333 0.5134,-1.1467 1.14671,-1.1467 h 13.42328 c 0.6333,0 1.1467,0.5134 1.1467,1.1467 0,0.6333 -0.5134,1.1467 -1.1467,1.1467 H 5.254618 c -0.63331,0 -1.14671,-0.5134 -1.14671,-1.1467 z"
     fill="currentColor"
  />
</svg>
