<svg
   width="24"
   height="24"
   viewBox="0 0 24 24"
   version="1.1"
>
  <path
     fill-rule="evenodd"
     clip-rule="evenodd"
     d="m 20.904738,5.35769 c 0,-0.92103 -0.2823,-1.79166 -0.924199,-2.433515 -0.6419,-0.64185 -1.512701,-0.9241746 -2.4338,-0.9241746 L 6.3858287,2 c -0.92318,-2e-7 -1.78884,0.284269 -2.4182,0.942761 C 3.3457047,3.59347 3.0952627,4.46257 3.0952627,5.35769 l -1e-6,7.78711 c 0,0.8952 0.250442,1.7643 0.872367,2.415 0.62936,0.6585 1.49502,0.9427 2.4182,0.9427 H 17.546739 c 0.921099,0 1.7919,-0.2823 2.4338,-0.9241 0.641899,-0.6419 0.924199,-1.5125 0.924199,-2.4336 z m -3.358,-1.06427 c 0.4582,0 0.6931,0.1336 0.8119,0.25245 0.1189,0.11885 0.2525,0.3537 0.2525,0.81182 v 7.78711 c 0,0.4582 -0.1336,0.693 -0.2525,0.8119 -0.1188,0.1188 -0.3537,0.2524 -0.8119,0.2524 H 6.3858287 c -0.45611,0 -0.66231,-0.1316 -0.76,-0.2339 -0.10513,-0.1099 -0.23692,-0.3463 -0.23692,-0.8304 V 5.35769 c 0,-0.48402 0.13179,-0.72041 0.23692,-0.83041 0.09769,-0.10221 0.3039,-0.23386 0.76,-0.23386 z"
     fill="currentColor"
  />
  <path
     d="m 19.622962,22 c 0.633401,0 1.146901,-0.5134 1.146901,-1.1467 0,-0.6333 -0.5135,-1.1467 -1.146901,-1.1467 H 4.3769627 c -0.63337,0 -1.146825,0.5134 -1.146825,1.1467 0,0.6333 0.513455,1.1467 1.146825,1.1467 z"
     fill="currentColor"
  />
</svg>
