<svg
   width="24"
   height="24"
   viewBox="0 0 24 24"
 >
  <path
     d="m 5.426268,9.12337 2.24057,-2.07498 c 0.103,-0.10337 0.27911,-0.03016 0.27911,0.11604 v 4.13058 c 0,0.14624 -0.17611,0.21943 -0.27911,0.11605 L 5.426268,9.35544 c -0.06385,-0.06408 -0.06385,-0.16798 0,-0.23207 z"
     fill="currentColor"
  />
  <path
     d="m 16.400728,11.41107 2.2406,-2.07498 c 0.0638,-0.06409 0.0638,-0.16799 0,-0.23207 l -2.2406,-2.05562 c -0.103,-0.10338 -0.2791,-0.03019 -0.2791,0.11605 v 4.13058 c 0,0.1462 0.1761,0.21941 0.2791,0.11604 z"
     fill="currentColor"
  />
  <path
     fill-rule="evenodd"
     clip-rule="evenodd"
     d="m 23.182428,5.36336 c 0,-0.92258 -0.2828,-1.79469 -0.9257,-2.437624 -0.643,-0.642934 -1.5151,-0.9257356 -2.4377,-0.9257356 L 4.113368,2 C 3.188718,2 2.321688,2.284749 1.691328,2.944353 1.068412,3.59616 0.817572,4.46673 0.817572,5.36336 v 7.80034 c 0,0.8966 0.25084,1.7672 0.873746,2.419 0.63037,0.6596 1.4974,0.9443 2.42205,0.9443 h 15.70566 c 0.9226,0 1.7947,-0.2828 2.4377,-0.9257 0.6429,-0.6429 0.9257,-1.5151 0.9257,-2.4376 z m -3.3634,-1.06606 c 0.4589,0 0.6942,0.13382 0.8132,0.25287 0.1191,0.11906 0.2529,0.3543 0.2529,0.81319 v 7.80034 c 0,0.4589 -0.1338,0.6941 -0.2529,0.8132 -0.119,0.119 -0.3543,0.2528 -0.8132,0.2528 H 4.113368 c -0.45683,0 -0.66336,-0.1318 -0.76121,-0.2342 -0.10529,-0.1102 -0.23729,-0.347 -0.23729,-0.8318 V 5.36336 c 0,-0.48484 0.132,-0.72163 0.23729,-0.83181 0.09785,-0.10238 0.30438,-0.23425 0.76121,-0.23425 z"
     fill="currentColor"
  />
  <path
     d="m 5.243248,19.7027 c -0.63438,0 -1.14865,0.5143 -1.14865,1.1487 0,0.6343 0.51427,1.1486 1.14865,1.1486 h 13.44598 c 0.6343,0 1.1486,-0.5143 1.1486,-1.1486 0,-0.6344 -0.5143,-1.1487 -1.1486,-1.1487 z"
     fill="currentColor"
  />
</svg>
