<svg width="24" height="24" viewBox="0 0 24 24" fill="none" xmlns="http://www.w3.org/2000/svg">
<rect width="24" height="24" fill="#02AB5C" fill-opacity="0.01"/>
<path fill-rule="evenodd" clip-rule="evenodd" d="M12.8961 3.5619C14.9786 1.47937 18.3556 1.47937 20.4387 3.5619C22.5206 5.64442 22.5206 9.02086 20.4387 11.1033L17.1386 14.404C15.0555 16.4866 11.6779 16.4866 9.59542 14.404C9.21943 14.0268 8.9106 13.6068 8.67012 13.1613L9.54901 12.2812C9.81758 12.0127 10.1691 11.8565 10.5451 11.8357C10.6965 12.1922 10.9162 12.5193 11.1982 12.8001C11.778 13.38 12.547 13.6985 13.3673 13.6985C14.1864 13.6985 14.9567 13.38 15.5358 12.8001L18.8354 9.50056C19.4146 8.92195 19.7331 8.15169 19.7331 7.3326C19.7331 6.5123 19.4146 5.74325 18.8354 5.16464C18.2562 4.58482 17.4859 4.26622 16.6667 4.26622C15.8477 4.26622 15.0774 4.58482 14.4982 5.16464L12.8118 6.85044C12.1185 6.61977 11.3861 6.50011 10.633 6.50011C10.3937 6.50011 10.1556 6.51113 9.92004 6.53676L12.8961 3.5619ZM11.1993 17.1361C11.9085 17.3765 12.6482 17.4986 13.4026 17.4986L13.4039 17.4987C13.6297 17.4987 13.8537 17.4876 14.0753 17.467L11.1041 20.4381C9.0217 22.5207 5.64526 22.5207 3.56277 20.4381C1.47908 18.3544 1.47908 14.9781 3.56277 12.8955L6.86229 9.59469C8.94478 7.51217 12.3224 7.51217 14.4049 9.59469C14.7815 9.97189 15.0909 10.3918 15.3314 10.8386L14.4537 11.7175C14.1851 11.986 13.833 12.1435 13.4558 12.163C13.3037 11.8066 13.0835 11.4794 12.8015 11.1975C12.2223 10.6189 11.4533 10.3003 10.633 10.3003C9.81387 10.3003 9.04483 10.6189 8.465 11.1975L5.16548 14.497C4.58566 15.0767 4.26706 15.847 4.26706 16.6662C4.26706 17.4853 4.58566 18.2555 5.16548 18.8341C5.74535 19.414 6.51435 19.7326 7.33344 19.7326C8.15253 19.7326 8.92275 19.414 9.50136 18.8341L11.1993 17.1361Z" fill="currentcolor"/>
</svg>
