<svg
   width="16"
   height="16"
   viewBox="0 0 16 16"
   fill="currentColor">
  <path
     fill-rule="evenodd"
     clip-rule="evenodd"
     d="m 8.6572252,1.8106499 c 1.5275078,-1.52753137 4.0045258,-1.52753137 5.5324738,0 1.527068,1.5275241 1.527068,4.0041356 0,5.5316019 l -2.420613,2.4210554 c -1.527947,1.5275838 -4.0054073,1.5275838 -5.5328996,0 C 5.960399,9.4866322 5.733873,9.178563 5.5574816,8.8517904 L 6.2021449,8.2062377 C 6.3991402,8.0092946 6.6569791,7.8947225 6.932774,7.8794657 c 0.1110507,0.2614905 0.2722004,0.5014185 0.4790462,0.7073846 0.4252816,0.4253556 0.9893415,0.6589749 1.591029,0.6589749 0.6008068,0 1.1658198,-0.2336193 1.5905878,-0.6589749 l 2.420247,-2.4202058 c 0.424841,-0.4244092 0.658461,-0.9893932 0.658461,-1.5901941 0,-0.6016882 -0.23362,-1.1657847 -0.658461,-1.590194 -0.424842,-0.4252969 -0.989855,-0.6589892 -1.590735,-0.6589892 -0.600734,0 -1.165747,0.2336923 -1.5905883,0.6589892 L 8.5953913,4.2227871 C 8.0868571,4.0535911 7.5496447,3.9658208 6.9972484,3.9658208 c -0.1755263,0 -0.3501716,0.00808 -0.5229542,0.026883 z M 7.4126274,11.767297 c 0.5201959,0.176333 1.0627639,0.265893 1.6161134,0.265893 l 9.837e-4,7.3e-5 c 0.1656232,0 0.3299266,-0.0081 0.4924696,-0.02325 L 7.342828,14.189311 c -1.527434,1.527583 -4.0040426,1.527583 -5.5315428,0 -1.52838046,-1.52839 -1.52838046,-4.004899 0,-5.5324819 L 4.2314805,6.2356888 c 1.5275002,-1.5275242 4.0049745,-1.5275242 5.5324817,0 0.2762338,0.2766754 0.5031788,0.5846789 0.6795848,0.9124052 L 9.7997565,7.7927659 C 9.6027394,7.9897097 9.3444756,8.1052362 9.0677999,8.1195392 8.9561986,7.8581204 8.7946819,7.61812 8.587836,7.4113467 8.1629951,6.9869451 7.5989352,6.7532527 6.9972484,6.7532527 c -0.6008295,0 -1.1649181,0.2336924 -1.5902216,0.658094 L 2.9868388,9.8315226 C 2.5615425,10.256732 2.3278505,10.821745 2.3278505,11.422627 c 0,0.600807 0.233692,1.165748 0.6589883,1.590149 0.4253329,0.425356 0.989392,0.659047 1.590192,0.659047 0.6008001,0 1.1657543,-0.233691 1.590163,-0.659047 z"
  />
</svg>
