<svg width="80" height="80" viewBox="0 0 80 80" fill="none" xmlns="http://www.w3.org/2000/svg">
  <path fill-rule="evenodd" clip-rule="evenodd"
        d="M41.3506 4.63451C40.3228 4.03163 38.9342 3.70443 37.1026 3.90794C35.6375 4.07073 34.6001 4.50398 33.8733 5.07316C33.1483 5.64089 32.7068 6.36364 32.4638 7.15026C32.0155 8.60167 32.2475 10.2634 32.6492 11.4705C34.0127 11.1947 35.4954 11.0564 37.0715 11.1148C39.5318 11.2059 41.5756 11.5551 43.2847 12.0631C43.6285 11.6438 43.8822 10.9707 43.9639 10.1422C44.0566 9.20227 43.9203 8.1232 43.4989 7.1285C43.0788 6.13695 42.3799 5.23828 41.3506 4.63451ZM44.1325 12.3371C44.505 11.7647 44.7293 11.0175 44.8074 10.2253C44.9133 9.15066 44.7583 7.92874 44.2793 6.79789C43.7988 5.66389 42.9881 4.61246 41.7794 3.90347C40.5692 3.19357 38.9913 2.84534 37.0091 3.06559C35.4231 3.24181 34.2271 3.71965 33.3507 4.40588C32.4726 5.09355 31.9412 5.97051 31.654 6.90013C31.1475 8.53989 31.3971 10.3487 31.8191 11.6587C29.955 12.1274 28.3398 12.8493 27.0459 13.6573C25.3111 13.6613 21.1813 13.7502 17.5243 14.0826C17.4123 14.0928 17.309 14.147 17.2371 14.2334C17.1651 14.3198 17.1304 14.4312 17.1407 14.5432C17.4198 17.6014 17.809 25.2356 17.1568 31.4568C16.5061 32.1444 16.0128 33.0913 15.8702 34.3748C15.7145 35.7762 16.2962 36.8121 17.1497 37.5363C17.2178 38.8167 17.2956 40.7157 17.319 42.4767C17.3314 43.4015 17.3286 44.2841 17.3021 45.0174C17.279 45.6549 17.2385 46.1522 17.1819 46.4646C16.1293 46.4772 14.9062 46.4767 13.6142 46.4671C10.2739 46.4424 6.48439 46.3577 4.01432 46.2872C3.79337 46.2809 3.60468 46.4454 3.58091 46.6652L3.43004 48.06C2.4021 48.0316 1.44549 48.005 0.62386 47.9822C0.509474 47.979 0.398666 48.0223 0.316636 48.102C0.234606 48.1818 0.188328 48.2914 0.188328 48.4058C0.188328 48.4727 0.168744 48.6192 0.133246 48.8606L0.127452 48.9C0.0957531 49.1152 0.0575662 49.3745 0.0315197 49.6349C0.00411063 49.909 -0.0121432 50.2047 0.0111927 50.4692C0.0325872 50.7117 0.0942793 51.0299 0.312446 51.2481C0.391918 51.3275 0.499704 51.3722 0.612093 51.3722C0.722009 51.3722 1.7523 51.3458 3.26433 51.3054C3.20798 51.6366 3.17217 52.028 3.14912 52.4461C3.10911 53.1716 3.10542 54.0354 3.12351 54.929C3.15971 56.717 3.28368 58.6487 3.38699 59.8828C3.40102 60.0503 3.51271 60.1937 3.67168 60.2483C3.83065 60.3029 4.00686 60.2583 4.12081 60.1348L6.73773 57.297C11.1882 57.1093 14.6435 57.1869 17.0389 57.2407C17.2118 57.2445 17.3791 57.2483 17.5408 57.2518C18.7483 57.2781 19.6732 57.2924 20.271 57.2439C20.557 57.2207 20.8331 57.1796 21.032 57.082C21.1356 57.0312 21.2747 56.938 21.3497 56.769C21.4314 56.585 21.3961 56.407 21.3378 56.2802C21.338 56.2807 21.327 56.2535 21.3109 56.1792C21.2962 56.1108 21.2808 56.0206 21.2653 55.9079C21.2344 55.6827 21.2056 55.3869 21.1791 55.0339C21.1263 54.3288 21.0844 53.4166 21.0517 52.4282C20.9863 50.4525 20.9584 48.1898 20.9528 46.7092C20.9523 46.5789 20.892 46.4562 20.7892 46.3763C20.6864 46.2963 20.5526 46.2681 20.4263 46.2996C20.2991 46.3314 20.0274 46.364 19.6054 46.391C19.1946 46.4172 18.6712 46.4366 18.0606 46.45C18.0545 46.4501 18.0485 46.4502 18.0424 46.4504C18.0966 46.0764 18.1294 45.5897 18.149 45.0481C18.1763 44.2952 18.1789 43.397 18.1665 42.4654C18.1465 40.9666 18.0876 39.3709 18.0285 38.1347C18.9923 38.6645 20.0968 38.938 20.9489 39.0449C21.0843 40.4935 21.4588 42.0721 22.2241 43.5302V55.1861C22.2241 55.313 22.281 55.4333 22.3792 55.5138C22.4774 55.5943 22.6065 55.6265 22.731 55.6016C23.1084 55.5261 24.1628 55.4741 25.6846 55.4469C27.1853 55.4201 29.093 55.4174 31.1392 55.4297C35.0096 55.4531 39.3669 55.5301 42.3831 55.5982C42.2087 56.5612 42.141 57.4655 42.141 58.1526C42.141 58.3448 42.2705 58.513 42.4564 58.5622C43.2004 58.7592 44.1135 59.0463 45.1438 59.4168C45.1358 59.4902 45.126 59.5681 45.1158 59.6507C45.0175 60.4392 44.8659 61.6563 45.5615 63.3951C45.9651 64.4041 46.0946 65.6504 46.0452 66.9578C46.0013 68.1182 45.8174 69.3042 45.5771 70.3759C45.3552 70.3589 45.0327 70.3459 44.5834 70.3396C43.5681 70.3254 41.8746 70.3457 39.1597 70.4419C33.8978 70.6282 23.4081 70.699 18.4102 70.7126V66.4868C19.4176 66.4693 20.4291 66.4554 21.3906 66.4476C22.9093 66.4353 24.2995 66.438 25.3505 66.4647C25.8767 66.4781 26.3124 66.4974 26.6346 66.5232C26.7765 66.5346 26.8917 66.5469 26.9804 66.5597C27.0243 66.6499 27.0815 66.7437 27.1432 66.8353C27.2706 67.0245 27.4409 67.2393 27.6216 67.4526C27.9845 67.8808 28.4168 68.3346 28.7047 68.6224C28.824 68.7417 29.0026 68.7789 29.1596 68.7171C29.3165 68.6553 29.4219 68.5062 29.4278 68.3377C29.4789 66.8845 29.5479 64.6786 29.5888 62.7834C29.6092 61.8362 29.6227 60.9643 29.6233 60.3021C29.6236 59.9715 29.6208 59.6898 29.6137 59.4758C29.6103 59.3692 29.6056 59.2754 29.5994 59.199C29.5942 59.135 29.5855 59.0465 29.5638 58.9731C29.5255 58.8438 29.4414 58.7676 29.3947 58.7322C29.3445 58.6941 29.294 58.6703 29.2582 58.6556C29.186 58.626 29.1055 58.6062 29.0324 58.5917C28.8816 58.5616 28.6811 58.5383 28.4485 58.5194C27.979 58.4812 27.325 58.4568 26.5535 58.4435C25.0078 58.417 22.9611 58.4348 20.9092 58.482C18.8571 58.5292 16.7945 58.6059 15.2164 58.6975C14.4282 58.7433 13.756 58.793 13.2648 58.8452C13.0203 58.8712 12.8128 58.8986 12.6555 58.9279C12.5777 58.9423 12.5026 58.959 12.4374 58.979C12.4049 58.989 12.3672 59.0022 12.3293 59.02C12.297 59.035 12.2353 59.0666 12.1778 59.1241C12.107 59.1949 12.0635 59.2886 12.0552 59.3885C11.984 60.2431 11.8986 61.6085 11.8737 62.933C11.8492 64.2374 11.881 65.5652 12.0664 66.3067C12.1147 66.5 12.2912 66.6336 12.4903 66.6275C13.8744 66.5856 15.6844 66.5387 17.5627 66.5023V71.1374C17.5627 71.25 17.6075 71.3579 17.6871 71.4374C17.7668 71.5169 17.8748 71.5615 17.9874 71.5612C22.789 71.5506 33.7573 71.4813 39.1897 71.2889C41.899 71.1929 43.5766 71.1732 44.5716 71.187C44.921 71.1919 45.1825 71.2009 45.3729 71.2118C45.1579 72.0247 44.9223 72.7298 44.7139 73.2507C44.627 73.468 44.7327 73.7146 44.95 73.8016C45.6622 74.0864 47.4346 74.7445 48.8185 75.0905C48.9967 75.135 49.1833 75.0597 49.2806 74.904C49.6313 74.3428 50.271 73.122 51.0617 71.2781C52.9415 71.2025 55.6778 71.0857 58.1024 70.9678C60.3445 70.8588 62.3556 70.7475 63.1535 70.6651C63.3267 70.8724 63.4937 71.0814 63.6541 71.2919C63.8282 73.774 64.5725 76.0901 66.5136 77.1685C68.8366 78.4591 71.3945 77.4485 73.5859 75.2024C75.7894 72.944 77.7486 69.3336 78.9918 65.0509C79.8538 62.0815 80.1772 58.6379 79.9072 55.7642C79.7723 54.3278 79.4872 53.0136 79.0333 51.9653C78.5821 50.9235 77.9395 50.0899 77.0567 49.7115C75.3559 48.9826 72.852 49.6278 70.5188 51.6728C69.9224 52.1955 69.332 52.8132 68.7618 53.5301C68.5957 53.5638 68.4344 53.5971 68.2765 53.6298C67.31 53.8295 66.4694 54.0033 65.4331 54.0658C65.3009 49.8738 65.2186 37.1018 65.8602 15.7457C66.2427 15.7325 66.6384 15.7145 67.0215 15.6903C67.5316 15.6582 68.0255 15.6151 68.4387 15.5573C68.832 15.5024 69.2119 15.4272 69.4515 15.3074C69.5782 15.2441 69.6649 15.1216 69.6825 14.981C69.826 13.8326 70.028 10.9375 69.6815 8.51201C69.6517 8.30324 69.4729 8.14817 69.262 8.14817H67.8037C67.7851 8.12105 67.7646 8.09216 67.7422 8.06182C67.6122 7.88596 67.4139 7.65713 67.1385 7.44288C66.5774 7.00648 65.7128 6.64606 64.5175 6.88511C63.3895 7.11069 62.6395 7.67879 62.1753 8.40291H61.0317C60.9963 8.0681 60.896 7.76003 60.7155 7.48935C60.5104 7.18169 60.2454 6.95525 59.91 6.90871C59.577 6.86252 59.2964 7.01076 59.0973 7.17515C58.9709 7.27953 58.8552 7.40816 58.7515 7.54704C58.5357 7.02921 58.2574 6.50437 57.9327 6.14699C57.6752 5.86356 57.2903 5.58035 56.8149 5.66828C56.3562 5.75314 56.0145 6.15087 55.7463 6.68738C55.4772 7.22543 55.4092 7.8087 55.4674 8.39014C55.0935 8.36726 54.5837 8.41459 53.9037 8.58459C53.7277 8.62859 53.5992 8.77973 53.5841 8.96052C53.496 10.0186 53.4163 11.821 53.5369 13.2153C53.4834 13.2169 53.4253 13.2187 53.3625 13.2206L53.237 13.2244C52.8458 13.2363 52.3228 13.2531 51.6931 13.2821C50.4649 13.3386 48.8307 13.4413 46.971 13.6441C46.1601 13.166 45.2228 12.7191 44.1325 12.3371ZM46.6521 14.4406C46.6557 14.4429 46.6593 14.445 46.6629 14.4472C48.711 15.6838 49.8831 17.1268 50.7092 18.1595C50.9055 18.4049 50.9964 18.5767 51.0312 18.6859C51.0441 18.7263 51.0476 18.7515 51.0481 18.7655C51.0363 18.7734 51.0118 18.7869 50.9657 18.8014C50.8828 18.8273 50.7648 18.8446 50.6139 18.8477C50.6101 18.8477 50.6063 18.8478 50.6025 18.8479C50.5897 18.8481 50.5766 18.8482 50.5634 18.8482C50.2145 18.8482 49.7897 18.7771 49.4228 18.6776C49.241 18.6283 49.0825 18.5745 48.9624 18.5239C48.863 18.4821 48.8157 18.453 48.8009 18.4439C48.7952 18.4404 48.7943 18.4398 48.7971 18.4427C48.6317 18.2772 48.3633 18.2772 48.1979 18.4427C48.0324 18.6081 48.0324 18.8765 48.1979 19.0419C48.3139 19.158 48.4879 19.2437 48.6335 19.305C48.7964 19.3736 48.9922 19.439 49.201 19.4956C49.591 19.6014 50.0587 19.6853 50.4839 19.6949C50.8953 19.9874 51.3658 20.4295 51.8123 21.0006C53.0471 22.5799 54.0403 25.065 53.1768 27.9434C52.8698 28.9666 52.4959 29.2846 52.2226 29.356C51.9351 29.4311 51.5222 29.3006 50.9839 28.8514C49.9881 28.0205 48.9515 26.4205 48.2849 25.1253C48.5488 24.688 48.7577 24.1482 48.91 23.5008C48.9636 23.273 48.8224 23.0448 48.5946 22.9912C48.3667 22.9376 48.1386 23.0788 48.085 23.3067C47.9235 23.9928 47.703 24.4956 47.4501 24.8549C47.0248 25.4592 46.4859 25.6912 45.8584 25.6835C45.2017 25.6753 44.4284 25.4015 43.5992 24.9292C41.9453 23.9871 40.2302 22.3494 39.0716 21.0079C38.9966 20.921 38.8895 20.8683 38.7748 20.8618C38.6602 20.8553 38.5478 20.8956 38.4635 20.9735C36.3279 22.9448 34.5894 23.2924 33.3166 23.031C32.7344 22.9114 32.2267 22.66 31.8031 22.3492C31.7999 22.3469 31.7968 22.3446 31.7936 22.3423C31.2784 21.9622 30.8886 21.4947 30.6417 21.0714C30.5237 20.8692 30.2642 20.8009 30.0621 20.9188C29.8599 21.0368 29.7916 21.2963 29.9096 21.4984C30.1615 21.9302 30.538 22.404 31.0308 22.8194C28.7143 28.1472 25.2085 28.236 24.1087 27.6861C23.8993 27.5814 23.6448 27.6663 23.5401 27.8756C23.4354 28.0849 23.5203 28.3395 23.7296 28.4442C23.8172 28.488 23.9111 28.5281 24.0106 28.564C23.9261 28.8384 23.7332 29.1369 23.4649 29.4284C23.1346 29.7873 22.7524 30.0677 22.5139 30.1994C22.1365 30.2499 21.9347 30.1617 21.8164 30.057C21.6763 29.9331 21.5703 29.7133 21.522 29.3843C21.436 28.798 21.5616 28.0526 21.725 27.5231C22.494 27.2587 23.2678 26.7085 23.7744 26.2652C23.9506 26.1111 23.9684 25.8434 23.8143 25.6673C23.6602 25.4911 23.3925 25.4733 23.2163 25.6274C22.6925 26.0857 21.9359 26.5959 21.2893 26.7711C21.285 26.7722 21.2808 26.7733 21.2766 26.7745C21.2505 26.7814 21.2246 26.7878 21.1989 26.7936C20.8728 26.8669 20.6463 26.8329 20.4952 26.733C20.3483 26.6359 20.1762 26.4124 20.101 25.8864C20.0314 25.3994 20.1463 24.8172 20.4209 24.1681C20.6936 23.5234 21.1098 22.846 21.598 22.1837C22.4944 20.9676 23.6051 19.8407 24.4253 19.1119C24.7882 19.2581 25.2395 19.307 25.7556 19.277C26.433 19.2376 27.2754 19.059 28.2908 18.7206C28.5128 18.6465 28.6328 18.4066 28.5588 18.1845C28.4848 17.9625 28.2448 17.8425 28.0228 17.9165C27.0495 18.241 26.2842 18.3973 25.7064 18.4309C25.1194 18.4651 24.7763 18.3699 24.5973 18.251C24.4556 18.1569 24.3881 18.0309 24.3887 17.8379C24.3895 17.6209 24.4808 17.316 24.709 16.9379C25.1628 16.1861 26.078 15.2776 27.3962 14.4384C28.7297 13.5894 30.452 12.8266 32.468 12.3756C33.8629 12.0635 35.3974 11.9009 37.0402 11.9618C39.5574 12.055 41.6063 12.4246 43.2859 12.9495C44.6196 13.3662 45.7253 13.8822 46.6521 14.4406ZM23.7497 18.5793C22.9078 19.3397 21.8134 20.463 20.9158 21.6808C20.404 22.375 19.9477 23.1114 19.6403 23.8379C19.3348 24.5601 19.1621 25.3067 19.262 26.0062C19.3563 26.6667 19.6044 27.1601 20.0278 27.44C20.2702 27.6002 20.5376 27.6688 20.8058 27.6789C20.6752 28.2372 20.5961 28.9122 20.6834 29.5073C20.6974 29.6025 20.716 29.6984 20.7404 29.7936C20.0702 29.8687 19.0335 30.094 18.0815 30.6986C18.6009 24.8474 18.2853 18.0557 18.0216 14.8897C20.8405 14.6498 23.8789 14.5497 25.8247 14.5174C24.9973 15.1767 24.3685 15.862 23.9834 16.4999C23.7133 16.9475 23.5427 17.4057 23.5412 17.835C23.5403 18.1075 23.6085 18.3621 23.7497 18.5793ZM21.1694 30.6098C20.549 30.6326 18.9631 30.8598 17.8605 31.9494C17.2959 32.5074 16.8417 33.3064 16.7126 34.4684C16.5868 35.6002 17.069 36.4047 17.823 36.9916C18.7026 37.6763 19.9314 38.0409 20.8947 38.1823C20.8611 37.1458 20.9435 36.1991 21.0849 35.4422L20.2924 34.8245C20.159 35.0151 20.0052 35.2215 19.8488 35.4086C19.7126 35.5714 19.5646 35.7314 19.4189 35.8545C19.346 35.916 19.2642 35.9764 19.1766 36.0232C19.0932 36.0677 18.9739 36.1167 18.834 36.1167C18.5999 36.1167 18.4102 35.9269 18.4102 35.6929C18.4102 35.4759 18.5733 35.297 18.7836 35.2721C18.8018 35.2616 18.8313 35.2414 18.8721 35.2069C18.9642 35.1291 19.0764 35.011 19.1987 34.8648C19.3469 34.6875 19.4957 34.4864 19.623 34.3027L18.5734 33.4845C18.3889 33.3406 18.3559 33.0744 18.4997 32.8898C18.6436 32.7052 18.9099 32.6722 19.0945 32.8161L21.3075 34.5411C21.3394 34.4425 21.3726 34.35 21.4069 34.2642C21.925 32.9688 22.1341 31.7623 22.1994 31.0583C21.8278 31.0384 21.509 30.9167 21.2548 30.6918C21.225 30.6654 21.1965 30.638 21.1694 30.6098ZM23.064 30.8587C23.0235 31.5965 22.8121 33.0332 22.1938 34.579C22.1149 34.7761 22.0359 35.039 21.9662 35.3593C21.7861 36.1861 21.6782 37.3454 21.7656 38.6305C21.8668 40.1175 22.2279 41.7512 23.021 43.2236C23.7796 44.6324 24.9351 45.8974 26.6513 46.7555C32.4802 49.6701 39.5549 50.507 47.4855 47.1678C50.4573 45.9165 52.0255 44.2701 52.8253 42.6975C53.6285 41.118 53.6787 39.5693 53.5378 38.4856C53.4466 37.7843 53.279 37.3044 53.2037 37.1537C53.0454 36.8372 52.7996 36.1919 52.5599 35.3906C52.1459 34.0065 51.7219 32.0633 51.8155 30.4087C51.8172 30.3776 51.8103 30.3449 51.7761 30.2245L51.7737 30.2161C51.7721 30.2104 51.7704 30.2044 51.7686 30.1981C51.2943 30.1137 50.8392 29.8345 50.4409 29.5022C49.4064 28.6389 48.3947 27.1176 47.7061 25.8442C47.177 26.3294 46.5378 26.5395 45.8479 26.5309C44.9842 26.5202 44.0636 26.1691 43.1797 25.6656C41.5437 24.7337 39.8942 23.1986 38.7152 21.8854C36.5764 23.7389 34.6849 24.1772 33.1461 23.8612C32.6229 23.7537 32.1521 23.5613 31.7367 23.3186C29.7339 27.7862 26.7646 28.9289 24.8407 28.7445C24.7095 29.2291 24.3991 29.6649 24.0886 30.0024C23.7568 30.3628 23.3746 30.6655 23.064 30.8587ZM52.6506 30.7749C52.6335 32.0173 52.9022 33.4323 53.2179 34.6056C53.4765 34.4295 53.8013 34.1941 54.1669 33.9041C54.6689 33.5062 55.2436 33.0089 55.8256 32.4269C55.9911 32.2614 56.2594 32.2614 56.4249 32.4269C56.5904 32.5924 56.5904 32.8607 56.4249 33.0262C55.9881 33.463 55.5556 33.8537 55.1525 34.1931C55.1823 34.2099 55.2125 34.2263 55.2427 34.2423C55.3525 34.3003 55.4559 34.3482 55.5449 34.3807C55.6406 34.4156 55.69 34.4216 55.7015 34.4216C55.9355 34.4216 56.1253 34.6113 56.1253 34.8454C56.1253 35.0794 55.9355 35.2691 55.7015 35.2691C55.5435 35.2691 55.3846 35.2244 55.2543 35.1768C55.1172 35.1268 54.977 35.0605 54.8467 34.9916C54.7064 34.9175 54.5693 34.8359 54.4486 34.7592C54.0617 35.056 53.7242 35.2912 53.4673 35.4574C53.6669 36.0861 53.8528 36.5569 53.9617 36.7747C54.0607 36.9727 54.1928 37.355 54.294 37.8628C54.9871 37.5899 55.8387 37.1375 56.5357 36.5192C57.3955 35.7564 57.9693 34.7919 57.8236 33.6266C57.6309 32.0852 56.849 31.2831 55.857 30.9032C54.9175 30.5434 53.7522 30.551 52.6506 30.7749ZM54.4157 38.723C54.5177 39.9007 54.3978 41.475 53.5807 43.0817C52.6771 44.8586 50.9424 46.6318 47.8144 47.9489C39.642 51.3899 32.3087 50.5319 26.2722 47.5136C24.9061 46.8305 23.8605 45.9101 23.0716 44.8686V54.7049C23.6629 54.6516 24.5728 54.6191 25.6695 54.5995C27.1801 54.5725 29.0956 54.5699 31.1443 54.5822C35.0894 54.606 39.5376 54.6855 42.5614 54.7545C42.8018 53.7655 43.165 52.748 43.6985 51.8738C44.2947 50.897 45.1198 50.074 46.2447 49.699C46.3398 49.6673 46.443 49.6703 46.5361 49.7076C48.5179 50.5003 52.6357 51.9231 56.9025 52.9404C57.9171 53.1823 58.9388 53.401 59.941 53.5827C59.9549 51.4576 60.0521 46.5601 60.3634 40.3331C60.6903 33.7953 60.4125 25.0623 60.2159 21.1422C59.3154 21.1116 57.5553 21.1367 55.8846 21.1629L55.6424 21.1667C54.7683 21.1805 53.9402 21.1935 53.3092 21.1971C53.1958 21.1977 53.0882 21.198 52.9875 21.198C54.0881 22.9311 54.8276 25.3903 53.9886 28.1869C53.7639 28.9359 53.4585 29.5028 53.0566 29.8466C54.0964 29.7044 55.1993 29.7438 56.1601 30.1117C57.4475 30.6047 58.4335 31.6729 58.6646 33.5215C58.8579 35.0683 58.0736 36.2878 57.0981 37.1532C56.2483 37.9071 55.2149 38.4308 54.4157 38.723ZM52.3707 20.3416C52.404 20.3431 52.4433 20.3444 52.4886 20.3456C52.6831 20.3505 52.962 20.3515 53.3044 20.3496C53.9306 20.3461 54.754 20.3331 55.6293 20.3193L55.8713 20.3155C57.7821 20.2855 59.9084 20.2543 60.6551 20.3174C60.866 20.3352 61.0314 20.5058 61.0426 20.7172C61.2399 24.4351 61.55 33.5734 61.2099 40.3755C60.892 46.7346 60.798 51.7002 60.7877 53.7279C61.2352 53.8001 61.677 53.864 62.1105 53.9182C63.0827 54.0397 63.8858 54.0898 64.5859 54.0904C64.453 49.87 64.3716 37.0944 65.0116 15.7679C64.7737 15.7722 64.5513 15.7746 64.3527 15.7755L62.3576 17.7706C62.2724 17.8559 62.1549 17.9008 62.0346 17.8941C61.9142 17.8874 61.8024 17.8298 61.7271 17.7357L60.1178 15.7241C58.7719 15.3654 57.6121 15.4601 56.6464 15.5617C56.5923 15.5674 56.5383 15.5732 56.4845 15.579C56.0555 15.6249 55.6397 15.6695 55.2822 15.6565C54.8724 15.6416 54.4526 15.5501 54.1306 15.2281C53.9529 15.0504 53.8421 14.7983 53.7658 14.5531C53.7189 14.4027 53.6797 14.2366 53.6467 14.0598C53.5722 14.0622 53.49 14.0647 53.4011 14.0674C53.3566 14.0687 53.3105 14.0701 53.2628 14.0715C52.8732 14.0834 52.3552 14.1001 51.732 14.1287C50.7502 14.1739 49.5072 14.2489 48.0973 14.3816C49.6713 15.5229 50.6579 16.7386 51.371 17.63C51.5985 17.9144 51.7592 18.1795 51.8386 18.428C51.9201 18.6831 51.9249 18.9562 51.7819 19.197C51.7163 19.3075 51.6304 19.3926 51.5366 19.4581C51.8156 19.7108 52.0981 20.007 52.3707 20.3416ZM55.6444 9.26928C55.5998 9.25737 55.5346 9.24509 55.4446 9.2381C55.2274 9.22122 54.8916 9.23713 54.405 9.33877C54.3199 10.5299 54.2654 12.3368 54.4266 13.5646C54.4654 13.8602 54.5152 14.1091 54.575 14.3012C54.6381 14.5039 54.6986 14.5975 54.7299 14.6288C54.8316 14.7305 54.9944 14.7979 55.313 14.8095C55.6055 14.8201 55.9557 14.7829 56.4006 14.7355C56.4517 14.7301 56.504 14.7245 56.5576 14.7189C57.5742 14.6119 58.9138 14.4974 60.4793 14.9447C60.5639 14.9689 60.6389 15.0188 60.6938 15.0875L62.0931 16.8366L63.8772 15.0525C63.9566 14.9731 64.0644 14.9284 64.1768 14.9284C64.8769 14.9284 65.9694 14.9074 66.9682 14.8445C67.4681 14.813 67.9383 14.7715 68.3214 14.718C68.5573 14.685 68.7403 14.6499 68.8715 14.6165C68.9977 13.44 69.1345 11.0723 68.8898 8.9957H68.186C68.2728 9.26576 68.3624 9.61257 68.4112 10.0026C68.5261 10.9219 68.4175 12.1346 67.4428 13.1092C66.4976 14.0544 65.4774 14.2735 64.5855 14.1283C63.8376 14.0066 63.2038 13.6339 62.7865 13.2761L61.3132 13.6445C61.1434 13.6869 60.9649 13.6206 60.8641 13.4775C60.7632 13.3344 60.7607 13.144 60.8579 12.9983L61.6123 11.8666C61.4962 11.1145 61.48 10.1463 61.776 9.25043H60.9999C60.9596 9.50463 60.8944 9.7674 60.8091 10.0353C60.4952 11.0218 59.8777 12.1825 59.0205 13.4684C58.95 13.574 58.836 13.6425 58.7096 13.6551C58.5833 13.6676 58.458 13.6228 58.3682 13.533C57.5032 12.668 56.1461 10.9708 55.6444 9.26928ZM60.1967 8.7966C60.1963 8.80274 60.196 8.80891 60.1958 8.81512C60.1817 9.08503 60.1205 9.40417 60.0015 9.77831C59.7557 10.5507 59.2858 11.4834 58.606 12.5521C57.7843 11.6412 56.7668 10.223 56.4181 8.88856C56.2377 8.19827 56.2485 7.57809 56.5043 7.0664C56.7446 6.58587 56.9219 6.5104 56.9691 6.50167C56.9997 6.49602 57.1073 6.49885 57.3054 6.71688C57.6931 7.14363 58.0529 7.99678 58.262 8.69372C58.3138 8.8663 58.469 8.98727 58.649 8.99529C58.829 9.00331 58.9944 8.89663 59.0613 8.72933C59.1948 8.39554 59.4167 8.01049 59.6369 7.82872C59.7415 7.74238 59.7892 7.74761 59.7935 7.7482C59.7954 7.74846 59.8764 7.75861 60.0103 7.95947C60.1418 8.1566 60.213 8.43074 60.1967 8.7966ZM67.1877 8.76097L67.185 8.75615C67.1809 8.74857 67.1736 8.73555 67.163 8.71796C67.1418 8.6827 67.1079 8.6296 67.0606 8.56559C66.9655 8.43688 66.8194 8.26842 66.6181 8.11188C66.2258 7.8067 65.6072 7.53147 64.6837 7.71618C63.6892 7.91506 63.1183 8.42141 62.7898 9.02838C62.3197 9.89695 62.3189 11.0284 62.4749 11.8863C62.4946 11.9943 62.4715 12.1057 62.4106 12.1971L62.1711 12.5564L62.8027 12.3985C62.9471 12.3624 63.0999 12.4047 63.2052 12.5099C63.5104 12.8151 64.0688 13.1856 64.7216 13.2918C65.3482 13.3938 66.0936 13.2598 66.8435 12.5099C67.5639 11.7896 67.6672 10.8834 67.5702 10.1077C67.5219 9.7213 67.4248 9.3805 67.3391 9.13569C67.2965 9.01385 67.2572 8.91729 67.2292 8.85249C67.2152 8.82013 67.2041 8.79581 67.1969 8.78034L67.1891 8.76391L67.1886 8.76278L67.1881 8.76184L67.1877 8.76097ZM68.012 54.5496C67.0801 54.7387 66.1729 54.8987 65.0366 54.9317C64.1882 54.9563 63.2158 54.9105 62.0054 54.7592C61.4443 54.689 60.8714 54.6033 60.2919 54.5048C59.1765 54.3152 58.0351 54.0778 56.9038 53.8117C54.7088 55.5483 53.8749 57.6435 53.5881 59.3404C53.4409 60.2116 53.4381 60.9785 53.4722 61.537C53.4893 61.8158 53.5155 62.0422 53.5374 62.2034C53.5411 62.2308 53.5447 62.2564 53.5481 62.2801C53.5483 62.2802 53.5479 62.28 53.5481 62.2801C53.6285 62.2529 53.7184 62.2499 53.8059 62.2761C53.9554 62.321 54.0617 62.441 54.0961 62.5825C57.6328 64.5601 61.1543 67.0417 63.6121 69.8956C63.6287 67.3211 64.1224 64.5987 64.6126 62.5819C65.4287 59.2237 66.6367 56.5692 68.012 54.5496ZM64.492 71.1189C64.4917 71.1135 64.4914 71.1082 64.491 71.1029C64.4802 70.9281 64.4723 70.7509 64.467 70.5716C64.3889 67.9081 64.9091 64.9506 65.4361 62.7821C66.6913 57.6174 68.8782 54.2377 71.0775 52.3101C73.2998 50.3623 75.4573 49.9482 76.7228 50.4905C77.3232 50.7478 77.8459 51.3561 78.2555 52.3021C78.6624 53.2415 78.9335 54.4608 79.0634 55.8435C79.3231 58.6081 79.0109 61.9447 78.1778 64.8147C76.9608 69.0073 75.0581 72.48 72.9793 74.6106C70.8885 76.7535 68.7438 77.438 66.9252 76.4276C65.3486 75.5518 64.6449 73.5686 64.492 71.1189ZM52.6411 61.7967C52.6357 61.7307 52.6307 61.6613 52.6263 61.5886C52.5892 60.9815 52.5921 60.148 52.7524 59.1992C53.044 57.4737 53.857 55.3688 55.8823 53.5632C51.9761 52.5821 48.3032 51.3167 46.3711 50.554C45.561 50.8674 44.9217 51.4965 44.422 52.3153C43.8926 53.1828 43.5363 54.2378 43.3111 55.2759C43.1079 56.2129 43.0151 57.1188 42.9936 57.8303C43.7324 58.0374 44.6046 58.3191 45.5711 58.6701C45.5773 58.6698 45.5835 58.6697 45.5897 58.6697C45.7009 58.6697 45.8021 58.7125 45.8777 58.7825C47.8715 59.5215 50.234 60.5411 52.6411 61.7967ZM45.9673 59.7214C48.0404 60.5089 50.4904 61.5926 52.9577 62.9241C53.0179 62.9566 53.0782 62.9892 53.1384 63.022C52.1619 66.2195 51.1958 68.7888 50.3867 70.7002C49.6717 72.3893 49.0826 73.557 48.7203 74.189C47.654 73.8997 46.4115 73.4557 45.6531 73.166C45.8736 72.5603 46.1061 71.8042 46.3098 70.9654C46.6033 69.7567 46.8402 68.3635 46.8921 66.9898C46.9439 65.6207 46.8131 64.2422 46.3484 63.0804C45.744 61.5695 45.8568 60.6368 45.9517 59.8514C45.957 59.8077 45.9622 59.7643 45.9673 59.7214ZM53.8961 63.4423C57.0693 65.2357 60.1717 67.4163 62.4557 69.8743C61.4987 69.9448 59.8793 70.0329 58.0613 70.1212C55.8049 70.2309 53.2774 70.3398 51.4236 70.4152C52.1723 68.5912 53.0297 66.2602 53.8961 63.4423ZM17.9797 65.6468C19.1257 65.6257 20.287 65.609 21.3837 65.6001C22.9055 65.5877 24.3068 65.5903 25.3721 65.6174C25.904 65.631 26.3575 65.6507 26.7024 65.6784C26.8744 65.6922 27.0255 65.7084 27.1487 65.728C27.2558 65.745 27.3918 65.7714 27.4988 65.8249C27.6303 65.8907 27.7174 66.0193 27.7311 66.1637C27.7333 66.1691 27.7365 66.1764 27.7411 66.186C27.7608 66.227 27.7948 66.2856 27.8461 66.3618C27.9483 66.5135 28.0958 66.7012 28.2682 66.9046C28.3787 67.035 28.4967 67.1686 28.6151 67.2991C28.6596 65.9417 28.7093 64.2563 28.7414 62.7651C28.7618 61.8198 28.7751 60.9547 28.7758 60.3013C28.7761 59.9742 28.7732 59.7034 28.7667 59.5036C28.7655 59.4681 28.7642 59.4353 28.7629 59.4052C28.6657 59.3909 28.5383 59.377 28.3798 59.3641C27.9377 59.3281 27.3052 59.3041 26.5389 59.2909C25.009 59.2647 22.9747 59.2823 20.9287 59.3293C18.883 59.3764 16.8308 59.4528 15.2655 59.5436C14.4821 59.5891 13.8255 59.638 13.3544 59.688C13.1565 59.7091 12.9968 59.7297 12.8766 59.7495C12.8122 60.591 12.7429 61.7875 12.7211 62.9489C12.7001 64.0644 12.7244 65.103 12.8246 65.7697C14.2689 65.7273 16.1039 65.6812 17.9797 65.6468ZM4.13109 51.2822C4.07058 51.5647 4.02395 51.9743 3.99536 52.4927C3.957 53.1884 3.95298 54.0286 3.97086 54.9118C3.99819 56.2616 4.07634 57.6977 4.15733 58.845L6.23329 56.5938C6.30918 56.5115 6.41456 56.4626 6.5264 56.4578C11.0898 56.2593 14.6281 56.3388 17.0567 56.3933C17.2298 56.3972 17.3974 56.401 17.5593 56.4045C18.7842 56.4312 19.6582 56.4433 20.2024 56.3992C20.3219 56.3895 20.4142 56.3777 20.4842 56.3658C20.4605 56.2584 20.4418 56.1405 20.4257 56.0232C20.3913 55.7733 20.361 55.4579 20.334 55.0972C20.2798 54.3747 20.2374 53.4489 20.2046 52.4562C20.1457 50.6767 20.1172 48.6686 20.1078 47.2014C19.9715 47.2148 19.8208 47.2265 19.6594 47.2368C19.2319 47.2641 18.6953 47.2838 18.0792 47.2973C16.8464 47.3244 15.2817 47.327 13.608 47.3146C10.4318 47.2911 6.85264 47.2136 4.38145 47.1453L4.27997 48.0834C9.50869 48.2277 16.0296 48.4058 16.2914 48.4058C16.471 48.4058 16.6202 48.4885 16.7196 48.6074C16.8062 48.711 16.8461 48.8295 16.8668 48.9182C16.9087 49.0967 16.9074 49.3073 16.8942 49.4948C16.8671 49.8824 16.7762 50.3327 16.7025 50.6274C16.6564 50.8118 16.4932 50.943 16.3032 50.9482C13.0456 51.0387 7.66618 51.1872 4.13109 51.2822ZM21.2717 5.32652C21.4258 5.50265 21.408 5.77037 21.2319 5.92448C15.8536 10.6305 11.9844 16.4843 10.7316 18.8052C10.6204 19.0112 10.3634 19.088 10.1574 18.9769C9.95145 18.8657 9.87462 18.6086 9.98578 18.4027C11.2756 16.0131 15.2037 10.073 20.6738 5.28665C20.8499 5.13254 21.1176 5.15038 21.2717 5.32652ZM15.3835 7.50637C15.5039 7.70705 15.4388 7.96735 15.2381 8.08777C14.4702 8.54854 13.4898 9.6495 12.5519 10.9023C11.6274 12.1373 10.7887 13.4583 10.301 14.2944C10.183 14.4966 9.92356 14.5648 9.7214 14.4469C9.51925 14.329 9.45096 14.0695 9.56889 13.8674C10.0699 13.0084 10.9263 11.6597 11.8734 10.3944C12.8072 9.14703 13.875 7.91728 14.8021 7.36102C15.0028 7.2406 15.2631 7.30568 15.3835 7.50637ZM30.9144 26.7005C31.4026 26.5785 32.0428 26.568 32.584 26.8385C32.6901 26.8916 32.7894 26.9378 32.8839 26.9817L32.9008 26.9895C32.9962 27.0339 33.0945 27.0797 33.1778 27.1248C33.2539 27.166 33.3592 27.228 33.4422 27.3168C33.5391 27.4206 33.6399 27.6043 33.5754 27.8323C33.5351 27.9746 33.4443 28.0726 33.3789 28.1315C33.3086 28.1948 33.2246 28.2509 33.1378 28.302C32.9638 28.4045 32.7188 28.521 32.4029 28.66C31.724 28.9588 31.143 28.9129 30.694 28.6798C30.2657 28.4574 30.0021 28.0882 29.8842 27.8036C29.8628 27.7522 29.8518 27.697 29.8518 27.6413C29.8518 27.3215 30.0795 27.1051 30.2445 26.9896C30.4304 26.8595 30.6673 26.7623 30.9144 26.7005ZM42.3297 27.2887C42.8299 26.9553 44.127 26.4785 45.3424 27.2887C45.4414 27.3547 45.5345 27.43 45.6083 27.5179C45.6814 27.605 45.7551 27.7283 45.7681 27.8842C45.7978 28.2408 45.5151 28.4277 45.3764 28.4971C45.2117 28.5794 45.0082 28.6274 44.8119 28.6565C44.6086 28.6866 44.3821 28.7008 44.1539 28.7008C43.7051 28.7008 43.205 28.6457 42.8281 28.5201C42.6476 28.46 42.4386 28.3656 42.2921 28.2058C42.2132 28.1196 42.1425 28.0034 42.1191 27.8576C42.0953 27.7095 42.1265 27.5703 42.1858 27.4518C42.2187 27.3859 42.2684 27.3297 42.3297 27.2887ZM31.3013 33.1233C31.246 33.0592 31.2028 32.9858 31.1679 32.916C30.9295 32.4392 30.9894 31.9569 31.1286 31.5829C31.2661 31.2132 31.494 30.9088 31.671 30.7318C31.7319 30.6718 31.8858 30.5611 32.0962 30.6248C32.2627 30.6751 32.3336 30.8039 32.3468 30.8279C32.3834 30.8942 32.3949 30.9587 32.3972 30.9716L32.3975 30.9731C32.4054 31.0166 32.4087 31.0636 32.4105 31.0982C32.4146 31.1756 32.4154 31.2799 32.4135 31.3954C32.4095 31.628 32.3937 31.9351 32.3617 32.22C32.3456 32.3623 32.3249 32.5049 32.298 32.6328C32.2727 32.7529 32.236 32.8906 32.1768 33.005C32.1478 33.0609 32.0968 33.1446 32.0104 33.2125C31.9101 33.2913 31.7609 33.3467 31.5919 33.3068C31.4474 33.2726 31.3528 33.1829 31.3013 33.1233ZM43.88 31.0337C44.0365 31.05 44.1711 31.1517 44.2295 31.2978C44.3744 31.6601 44.56 32.2082 44.6165 32.6398C44.6309 32.7503 44.6388 32.8665 44.6313 32.9777C44.6243 33.0824 44.6013 33.2217 44.5231 33.3493C44.4321 33.4977 44.2791 33.6064 44.0836 33.6255C43.9164 33.6419 43.7639 33.588 43.6466 33.5293C43.3839 33.398 43.2066 33.1956 43.1142 32.9526C43.0261 32.7209 43.0254 32.4802 43.0568 32.2715C43.1188 31.86 43.3223 31.462 43.4835 31.2202C43.5708 31.0892 43.7234 31.0174 43.88 31.0337ZM44.0568 32.7846C44.0568 32.7846 44.0562 32.7845 44.0552 32.7841L44.0568 32.7846ZM38.432 36.1424C38.4807 36.3945 38.4002 36.6429 38.203 36.84C38.1341 36.909 38.0382 36.9848 37.9131 37.0235C37.7727 37.067 37.6225 37.0545 37.4906 36.9823C37.3733 36.918 37.3008 36.8234 37.2577 36.7522C37.213 36.6782 37.1822 36.5999 37.1603 36.5303C37.0767 36.2656 37.0559 35.9163 37.0559 35.6929H37.4796L37.0559 35.6958C37.0559 35.6948 37.0559 35.6938 37.0559 35.6929C37.0559 35.6045 37.084 35.5002 37.1616 35.4117C37.234 35.3292 37.3191 35.2951 37.3719 35.2809C37.4646 35.256 37.5417 35.2693 37.5607 35.2726C37.6148 35.282 37.6596 35.3 37.6784 35.3079C37.7268 35.3281 37.7779 35.3556 37.8253 35.3844C37.9215 35.4429 38.0448 35.5322 38.1551 35.6464C38.2598 35.7548 38.3896 35.9235 38.432 36.1424ZM37.9034 35.6935C37.9034 35.6937 37.9034 35.6933 37.9034 35.6935V35.6935ZM47.3931 36.5747C47.6082 36.6669 47.7079 36.916 47.6157 37.1311C47.3561 37.7368 47.1049 38.1601 46.8462 38.4095C46.7137 38.5372 46.5543 38.6436 46.3664 38.6826C46.1661 38.7243 45.9796 38.6797 45.8269 38.585C45.5589 38.4187 45.4062 38.1072 45.3153 37.8626C45.2857 37.7828 45.259 37.6999 45.2352 37.6158C44.9295 37.7508 44.6528 37.7981 44.4078 37.7346C43.9549 37.6172 43.8361 37.2079 43.8361 36.9642C43.8361 36.7301 44.0258 36.5404 44.2599 36.5404C44.4756 36.5404 44.6537 36.7017 44.6802 36.9103C44.7035 36.9064 44.7342 36.8993 44.7733 36.8867C44.8911 36.8486 45.0619 36.7677 45.2961 36.6116C45.4172 36.5308 45.5712 36.5179 45.7041 36.5773C45.837 36.6367 45.9301 36.7602 45.9507 36.9042C45.9832 37.1318 46.0373 37.3724 46.1098 37.5675C46.146 37.6648 46.1831 37.7411 46.2181 37.7957C46.2241 37.805 46.2297 37.8133 46.2349 37.8204C46.2419 37.8144 46.2496 37.8074 46.2581 37.7993C46.3905 37.6716 46.5878 37.378 46.8367 36.7972C46.9289 36.5821 47.178 36.4825 47.3931 36.5747ZM30.0861 36.5851C30.2954 36.4805 30.55 36.5653 30.6546 36.7747C30.8325 37.1304 30.9381 37.4466 30.9324 37.7175C30.9293 37.8614 30.8942 38.0114 30.8032 38.1433C30.7105 38.2777 30.5833 38.3593 30.4557 38.4031C30.3472 38.4405 30.2344 38.4521 30.1266 38.4494C30.1613 38.6055 30.1749 38.7622 30.1485 38.9099C30.1112 39.1189 29.9924 39.3044 29.7871 39.4058C29.6087 39.4939 29.4185 39.4912 29.2738 39.4709C28.9827 39.43 28.6516 39.2839 28.3582 39.1269C28.0536 38.964 27.7449 38.7647 27.4867 38.5803C27.2963 38.4443 27.2522 38.1796 27.3882 37.9892C27.5242 37.7987 27.7889 37.7546 27.9793 37.8906C28.2156 38.0594 28.493 38.2379 28.7579 38.3796C28.9755 38.4959 29.1592 38.5735 29.294 38.6105C29.2901 38.5948 29.2856 38.5778 29.2804 38.5596C29.2418 38.4248 29.1694 38.2419 29.0491 38.0012C28.9675 37.8381 28.9995 37.641 29.1284 37.5121C29.2574 37.3831 29.4545 37.3511 29.6176 37.4327C29.7392 37.4935 29.8757 37.5477 29.997 37.578C30.0237 37.5847 30.0482 37.5898 30.0703 37.5936C30.0656 37.5736 30.0595 37.5509 30.0517 37.5251C30.0229 37.4308 29.974 37.3086 29.8966 37.1537C29.7919 36.9443 29.8768 36.6898 30.0861 36.5851ZM39.9618 38.4412C40.0822 38.6419 40.0172 38.9022 39.8165 39.0226C37.9521 40.1412 36.4679 39.5181 35.9087 38.9589C35.7432 38.7934 35.7432 38.5251 35.9087 38.3596C36.0742 38.1941 36.3425 38.1941 36.508 38.3596C36.7963 38.6479 37.8546 39.2113 39.3804 38.2959C39.5811 38.1754 39.8414 38.2405 39.9618 38.4412ZM0.99268 48.8403C0.986407 48.8843 0.979897 48.9286 0.973471 48.9723L0.966547 49.0193C0.93438 49.2378 0.898855 49.4792 0.874843 49.7193C0.849282 49.9749 0.83905 50.2089 0.855442 50.3947C0.85987 50.4449 0.86581 50.486 0.872184 50.5194C1.34326 50.5084 2.40416 50.4807 3.79792 50.4433C7.20824 50.3519 12.5682 50.2041 15.9504 50.1102C15.9948 49.8905 16.034 49.646 16.0488 49.4356C16.0539 49.3618 16.0555 49.2996 16.0545 49.2488C14.7585 49.2192 8.59983 49.0506 3.79758 48.918C2.78359 48.89 1.82924 48.8635 0.99268 48.8403ZM74.7567 52.3269C73.8166 52.6166 72.6356 53.4727 71.2773 55.04C70.3592 56.0993 69.5409 57.4768 68.8453 59.0286C69.7548 59.4947 70.7067 60.1829 71.5426 60.8662C72.5004 61.649 73.3307 62.4459 73.8064 62.9453C73.869 63.011 73.9089 63.095 73.9201 63.185C74.2808 66.07 72.8557 67.2734 71.8877 67.467C71.8603 67.4725 71.8325 67.4753 71.8046 67.4753C70.8571 67.4753 69.6635 67.3922 68.6286 67.3201C68.4861 67.3102 68.3466 67.3005 68.2112 67.2913C67.6456 67.2526 67.1543 67.2221 66.7979 67.2151C66.7007 67.2132 66.6178 67.2131 66.549 67.2147C66.1916 69.8091 66.2232 72.1379 66.6711 73.6535C66.9046 74.4434 67.2307 74.9427 67.6021 75.1815C67.9439 75.4012 68.4101 75.4534 69.0844 75.1422C73.3163 73.189 75.6534 68.9709 76.9006 63.5662C77.5309 60.8349 77.7892 58.5411 77.744 56.7396C77.6985 54.924 77.346 53.6657 76.8143 52.9491C76.5544 52.5988 76.2576 52.3851 75.9337 52.2843C75.6083 52.1831 75.2189 52.1844 74.7567 52.3269ZM66.6783 66.3661C66.7224 66.3662 66.768 66.3668 66.8145 66.3677C67.1948 66.3752 67.7066 66.4073 68.269 66.4457C68.4062 66.4551 68.5466 66.4648 68.6893 66.4748C69.5605 66.5353 70.5165 66.6018 71.3421 66.6217C71.2611 65.298 71.502 64.3794 71.9065 63.7668C72.1358 63.4197 72.4124 63.1802 72.6942 63.0281C72.2442 62.5905 71.6556 62.0532 71.0063 61.5224C70.203 60.8658 69.3248 60.2343 68.5113 59.81C67.6676 61.8794 67.0435 64.1761 66.6783 66.3661ZM73.122 63.7608C72.9558 63.8448 72.774 63.9912 72.6137 64.2339C72.3522 64.6299 72.1331 65.3078 72.1803 66.4226C72.6513 66.0897 73.2079 65.3265 73.122 63.7608ZM78.5913 56.7183C78.6388 58.6115 78.3674 60.9792 77.7264 63.7568C76.4553 69.265 74.022 73.7967 69.4396 75.9117C68.5822 76.3074 67.7951 76.3131 67.1438 75.8944C66.5223 75.4949 66.1156 74.764 65.8583 73.8937C65.3417 72.1457 65.3448 69.5529 65.7526 66.7967C66.1316 64.2349 66.867 61.4866 67.9035 59.0665C68.6549 57.312 69.571 55.7147 70.6368 54.4849C72.033 52.8739 73.3416 51.8761 74.5071 51.5169C75.0977 51.3349 75.6651 51.3131 76.1855 51.475C76.7075 51.6374 77.1457 51.9734 77.4949 52.4441C78.1815 53.3695 78.5442 54.8393 78.5913 56.7183ZM18.2669 51.4783C18.358 51.5587 18.4102 51.6744 18.4102 51.7959V53.9148C18.4102 54.0753 18.3195 54.222 18.176 54.2938C17.7726 54.4955 17.0659 54.6585 16.247 54.7974C15.4089 54.9395 14.3948 55.0651 13.3363 55.1733C11.2185 55.3897 8.90099 55.5385 7.41249 55.6094C7.21072 55.619 7.03022 55.4848 6.98122 55.2889L6.55746 53.5938C6.50929 53.4011 6.60141 53.2008 6.77906 53.112C6.91819 53.0424 7.1534 52.9812 7.40472 52.9248C7.67536 52.8639 8.02288 52.7968 8.4255 52.7254C9.23158 52.5826 10.2747 52.4204 11.3992 52.2559C13.649 51.927 16.237 51.5876 17.9339 51.3754C18.0545 51.3604 18.1758 51.3978 18.2669 51.4783ZM7.47711 53.7779L7.71903 54.7456C9.19495 54.6698 11.3094 54.5285 13.2502 54.3301C14.2999 54.2229 15.2934 54.0995 16.1053 53.9618C16.7479 53.8528 17.2438 53.7398 17.5627 53.6306V52.2764C15.8852 52.4888 13.5627 52.7961 11.5218 53.0946C10.4003 53.2585 9.36697 53.4194 8.57334 53.56C8.17611 53.6304 7.84295 53.695 7.59051 53.7517C7.55027 53.7607 7.51247 53.7695 7.47711 53.7779ZM26.142 60.6946C26.1847 60.7116 26.266 60.7475 26.3376 60.8191C26.5056 60.9871 26.5975 61.2385 26.6554 61.4457C26.7188 61.6728 26.7644 61.9366 26.7974 62.1994C26.8638 62.7265 26.8855 63.2957 26.8855 63.6614C26.8855 63.7737 26.8409 63.8815 26.7614 63.961C26.6908 64.0316 26.6104 64.0677 26.5694 64.0845C26.5196 64.1049 26.4672 64.1205 26.4185 64.1328C26.3206 64.1576 26.201 64.1784 26.0692 64.1967C25.8035 64.2335 25.4478 64.2654 25.0294 64.2934C24.1903 64.3496 23.0684 64.3922 21.8431 64.424C19.3909 64.4877 16.5054 64.5089 14.5963 64.5089C14.3623 64.5089 14.1726 64.3192 14.1726 64.0851V61.1188C14.1726 60.8911 14.3525 60.7041 14.58 60.6953C16.4186 60.6246 19.1985 60.5397 21.5628 60.5149C22.7441 60.5025 23.8268 60.5051 24.6379 60.5324C25.0422 60.5459 25.3872 60.5659 25.6461 60.5944C25.7744 60.6086 25.8922 60.6259 25.9897 60.6485C26.0382 60.6598 26.0911 60.6744 26.142 60.6946ZM15.0201 61.5269V63.661C16.9112 63.6581 19.5538 63.6356 21.8211 63.5767C23.043 63.545 24.1512 63.5028 24.9728 63.4478C25.3846 63.4202 25.7169 63.3899 25.9528 63.3571C25.9815 63.3532 26.0082 63.3492 26.033 63.3454C26.0238 63.0344 26.0008 62.6567 25.9566 62.3053C25.9261 62.0631 25.8869 61.8448 25.8391 61.6738C25.8152 61.5884 25.7914 61.5226 25.7693 61.475C25.768 61.4723 25.7668 61.4697 25.7656 61.4672C25.7155 61.4575 25.6455 61.447 25.5532 61.4369C25.3265 61.4119 25.0067 61.3928 24.6094 61.3794C23.8173 61.3528 22.7494 61.3501 21.5717 61.3624C19.3864 61.3853 16.841 61.4599 15.0201 61.5269Z"
        fill="currentColor"/>
</svg>
