<svg width="96" height="96" viewBox="0 0 96 96" fill="none" xmlns="http://www.w3.org/2000/svg">
  <path fill-rule="evenodd" clip-rule="evenodd"
        d="M90.2141 11.8545C88.8874 12.0796 87.2779 12.6705 85.7624 13.3477C84.4075 13.953 83.1571 14.6139 82.2979 15.1076C82.4005 15.3171 82.5021 15.5274 82.6025 15.7383C82.693 15.9282 82.7825 16.1187 82.8712 16.3095C83.8187 15.7095 85.1527 14.9351 86.5655 14.25C87.955 13.5762 89.4664 12.9658 90.7763 12.7142C90.6253 12.4502 90.4904 12.2354 90.3765 12.0714C90.3118 11.9782 90.2575 11.9068 90.2141 11.8545ZM91.2816 13.6697C90.0692 13.8435 88.5239 14.4414 87.0135 15.1739C85.5781 15.8699 84.2237 16.6626 83.3012 17.2529C83.5455 17.7994 83.7822 18.3467 84.0109 18.891C84.2461 18.7967 84.5603 18.6622 84.9352 18.4989C85.1483 18.4061 85.3803 18.3043 85.6265 18.1963C86.257 17.9196 86.9807 17.6021 87.7196 17.2896C88.7469 16.8551 89.819 16.4237 90.7359 16.1165C91.1939 15.9631 91.6231 15.8372 91.9944 15.7578C92.0588 15.7441 92.1233 15.7313 92.1877 15.7198C91.8734 14.9306 91.5649 14.2436 91.2816 13.6697ZM92.5616 16.702C92.4665 16.7128 92.3496 16.7319 92.209 16.7619C91.8906 16.83 91.5019 16.9427 91.0621 17.0901C90.1835 17.3844 89.1405 17.8034 88.1195 18.2352C87.3874 18.5448 86.6744 18.8577 86.0459 19.1335C85.7978 19.2423 85.5629 19.3454 85.3452 19.4403C84.9753 19.6013 84.6525 19.7397 84.4029 19.84C84.6481 20.4438 84.8829 21.0412 85.1066 21.6269C86.0962 21.1681 87.4919 20.5922 88.9663 20.121C90.4319 19.6525 92.0238 19.2712 93.3845 19.2362C93.1208 18.3201 92.842 17.4728 92.5616 16.702ZM93.6651 20.2607C92.4237 20.2444 90.8356 20.6014 89.2789 21.099C87.8137 21.5673 86.426 22.1436 85.4689 22.5907C85.7241 23.2806 85.9626 23.9491 86.1833 24.5869C86.1871 24.5861 86.191 24.5852 86.1949 24.5843C86.4405 24.5285 86.7737 24.4474 87.1682 24.3476C87.9564 24.1482 88.9793 23.8765 90.0139 23.5886C91.0491 23.3006 92.0918 22.9976 92.9208 22.7355C93.3358 22.6042 93.6925 22.4847 93.9661 22.3835C94.0314 22.3594 94.0909 22.3366 94.1446 22.3154C93.9968 21.6017 93.8355 20.916 93.6651 20.2607ZM94.3435 23.3386C94.3365 23.3412 94.3294 23.3438 94.3223 23.3465C94.0267 23.4558 93.6524 23.5809 93.2304 23.7144C92.3853 23.9817 91.3299 24.2883 90.2891 24.5778C89.2478 24.8675 88.217 25.1413 87.42 25.3429C87.0682 25.432 86.76 25.5074 86.5157 25.5641C86.6421 25.9423 86.7613 26.3067 86.873 26.6547C87.982 26.4923 89.5357 26.2981 91.0489 26.1768C91.9105 26.1078 92.7651 26.0619 93.5201 26.0597C93.9613 26.0584 94.3805 26.0719 94.7531 26.1073C94.6434 25.1487 94.5045 24.2245 94.3435 23.3386ZM94.8595 27.1519C94.5051 27.1062 94.052 27.0849 93.5231 27.0864C92.8038 27.0885 91.9775 27.1325 91.1309 27.2003C89.7164 27.3137 88.262 27.4924 87.1848 27.647C87.2923 27.9967 87.3901 28.3235 87.4777 28.624C87.5317 28.8092 87.5819 28.9845 87.6281 29.1493C89.929 28.504 93.1519 28.2954 94.9438 28.2601C94.9204 27.8863 94.8921 27.5169 94.8595 27.1519ZM91.2197 11.4856C91.4491 11.8158 91.729 12.2886 92.0359 12.8851C92.4531 13.6958 92.9275 14.7488 93.4005 16.0099C93.7996 17.0742 94.1981 18.2881 94.5605 19.6313C94.8039 20.5336 95.0311 21.4946 95.2311 22.5079C95.4882 23.8108 95.7006 25.2005 95.8449 26.6639C95.9117 27.3412 95.964 28.0344 95.9994 28.7421C96.0064 28.8825 95.9555 29.0197 95.8586 29.1215C95.7617 29.2234 95.6272 29.2811 95.4866 29.2811C93.7807 29.2811 89.8145 29.4883 87.4351 30.2815C87.3007 30.3263 87.1539 30.3136 87.0292 30.2464C86.9046 30.1792 86.8132 30.0636 86.7767 29.9267C86.7346 29.7689 86.687 29.5954 86.6341 29.4072C85.0753 29.8719 83.7755 30.2841 82.6317 30.6764C82.1932 37.9636 80.7494 44.314 80.0592 46.3846C79.9696 46.6536 79.6788 46.7989 79.4099 46.7093C77.0095 45.9092 72.7024 45.3136 68.2433 44.8981C63.8023 44.4843 59.2699 44.2538 56.455 44.1686C56.1777 44.1601 55.9572 43.9329 55.9572 43.6554C55.9572 39.1118 56.9864 25.2939 57.499 18.9722C57.5178 18.7404 57.6901 18.5502 57.9189 18.5086C59.3391 18.2504 62.614 18.1494 66.9483 19.0265C67.1549 18.7869 67.4191 18.5922 67.7098 18.4311C68.123 18.202 68.6237 18.0218 69.1743 17.8723C70.2733 17.5738 71.6583 17.3757 73.1277 17.1883C73.4276 17.15 73.7313 17.1122 74.0375 17.074C76.5675 16.7585 79.2678 16.4218 81.4316 15.6733C81.344 15.4936 81.2556 15.3146 81.1665 15.1363C81.0465 14.8964 81.1315 14.6046 81.3615 14.4665C82.2335 13.9434 83.7148 13.138 85.3435 12.4102C86.9636 11.6864 88.7704 11.0207 90.2803 10.805C90.3044 10.8015 90.3286 10.7998 90.3529 10.7998C90.5313 10.7998 90.6627 10.8834 90.7156 10.9198C90.7839 10.9667 90.8442 11.023 90.8945 11.0752C90.9965 11.1812 91.1063 11.3223 91.2197 11.4856ZM81.8763 16.6053C79.5748 17.4206 76.7132 17.7763 74.1726 18.0921C73.8622 18.1306 73.5567 18.1686 73.2576 18.2068C71.781 18.3951 70.4639 18.586 69.4433 18.8631C68.9521 18.9965 68.55 19.1447 68.2412 19.3107C69.5984 19.6326 71.0438 20.0494 72.5559 20.5831C72.7222 20.6418 72.8467 20.7817 72.8857 20.9536C72.9247 21.1256 72.8727 21.3055 72.748 21.4302C71.6463 22.5319 70.2049 24.0207 68.8317 25.5208C67.597 26.8696 66.4261 28.218 65.607 29.299C65.127 29.9324 64.7894 30.4463 64.6234 30.8026C64.6184 30.8134 64.6136 30.8238 64.609 30.834C64.8889 30.7793 65.2931 30.6232 65.8059 30.3584C66.3967 30.0534 67.0732 29.6357 67.7701 29.1659C69.1631 28.2269 70.6031 27.1031 71.543 26.3199C71.7608 26.1384 72.0845 26.1678 72.266 26.3856C72.4475 26.6034 72.4181 26.9271 72.2003 27.1086C71.2414 27.9077 69.7731 29.0539 68.3441 30.0173C67.63 30.4986 66.917 30.9403 66.2769 31.2707C65.7766 31.529 65.2797 31.7417 64.8439 31.8336C64.7572 32.0241 64.6837 32.2216 64.6366 32.4063C64.5658 32.6839 64.5748 32.8541 64.6024 32.929C64.6108 32.952 64.6185 32.9566 64.6185 32.9566C64.623 32.9597 64.6574 32.982 64.755 32.988C64.9675 33.0012 65.3619 32.9313 66.0197 32.6449C66.1705 32.5792 66.3332 32.5031 66.5084 32.4155C69.7618 30.7888 72.2638 29.0286 73.0911 28.3668C73.3125 28.1897 73.6355 28.2256 73.8126 28.447C73.9898 28.6684 73.9539 28.9915 73.7325 29.1686C72.8751 29.8545 70.438 31.5677 67.2651 33.1837C67.3207 33.1885 67.3819 33.1919 67.4493 33.1934C68.1493 33.2087 69.3258 32.9956 71.1705 32.2704C72.2791 31.8346 73.6179 31.2183 75.225 30.3675C75.4756 30.2348 75.7863 30.3304 75.9189 30.581C76.0516 30.8316 75.956 31.1422 75.7054 31.2749C74.1296 32.1092 72.7947 32.7284 71.6681 33.1777C71.4069 33.4927 71.1488 33.8399 70.9548 34.1593C70.8475 34.3357 70.766 34.4937 70.7137 34.626C70.7011 34.6576 70.6911 34.6858 70.683 34.7108C70.6876 34.7103 70.6923 34.7098 70.6972 34.7092C71.0322 34.6701 71.6482 34.4659 72.6688 33.9556L72.9824 33.7988C76.4976 32.0407 78.5629 31.0078 81.9569 29.8236C81.9657 29.8202 81.9746 29.8171 81.9836 29.8143C83.2178 29.3842 84.628 28.9339 86.347 28.4214C86.2501 28.0986 86.1433 27.7511 86.0269 27.382C85.8299 26.7574 85.6057 26.0715 85.3563 25.3398C85.0544 24.4544 84.7156 23.5022 84.3435 22.5109C84.0042 21.607 83.6373 20.6709 83.2454 19.7232C82.9096 18.9111 82.5556 18.0907 82.185 17.2752C82.0833 17.0514 81.9804 16.8281 81.8763 16.6053ZM81.5795 31.0475C78.6568 32.1088 76.68 33.0974 73.4588 34.7085C73.3499 34.763 73.2397 34.8181 73.128 34.8739C72.0951 35.3904 71.3421 35.6676 70.8162 35.729C70.5565 35.7594 70.2681 35.7479 70.0254 35.6016C69.7451 35.4327 69.637 35.1556 69.6261 34.9028C69.6163 34.6738 69.6814 34.4441 69.7589 34.2482C69.8206 34.0923 69.9007 33.9319 69.9911 33.7728C68.8943 34.1062 68.0561 34.2336 67.4268 34.2198C66.8386 34.207 66.3277 34.0581 66.0162 33.7534C65.4961 33.9459 65.0564 34.0354 64.6914 34.0128C64.4538 33.998 64.2275 33.9344 64.035 33.8014C63.839 33.6659 63.7116 33.4815 63.6387 33.2835C63.5024 32.913 63.5547 32.4935 63.6417 32.1525C63.68 32.0021 63.7294 31.8512 63.7855 31.704C63.7213 31.6548 63.6634 31.5933 63.6162 31.5186C63.5232 31.3714 63.4977 31.2145 63.498 31.0853C63.4984 30.843 63.5895 30.5905 63.6927 30.3691C63.8037 30.1307 63.9627 29.8588 64.1578 29.5629C62.9515 29.5717 61.9265 29.388 61.4689 29.2629C61.2457 29.2019 61.0909 28.9991 61.0909 28.7677V24.6608C61.0909 24.3772 61.3208 24.1474 61.6043 24.1474C62.5254 24.1474 63.9746 24.1732 65.3338 24.2509C66.0132 24.2897 66.6759 24.3418 67.2416 24.4111C67.629 24.4585 67.9932 24.5164 68.2921 24.5904C69.3795 23.4094 70.4949 22.2485 71.4429 21.2873C69.8988 20.7754 68.4359 20.3892 67.0793 20.1021C67.0707 20.1005 67.0622 20.0987 67.0537 20.0967C63.0588 19.2539 59.9893 19.2701 58.4897 19.46C57.9845 25.7358 57.0526 38.3295 56.9875 43.1584C59.8379 43.2551 64.1274 43.4834 68.3385 43.8758C72.5065 44.2642 76.6503 44.8175 79.2354 45.579C79.9246 43.2496 81.1493 37.5696 81.5795 31.0475ZM67.4822 25.4799C67.3694 25.4628 67.2474 25.4462 67.1168 25.4302C66.5816 25.3647 65.9431 25.3141 65.2753 25.276C64.1707 25.2128 63.0019 25.1845 62.1176 25.1765V28.3578C62.7342 28.4761 63.7905 28.5994 64.9253 28.5002C65.6211 27.5986 66.5226 26.5468 67.4822 25.4799ZM39.3627 14.4212C39.5574 14.3543 39.7733 14.4103 39.911 14.5633C40.7406 15.4851 42.0428 17.0171 43.1425 18.5015C44.6035 18.5141 47.9024 18.6289 51.3936 19.0168C51.6597 19.0464 51.8584 19.2755 51.85 19.5431C51.6786 25.0284 51.4408 37.1798 51.8485 42.0727C51.861 42.2229 51.8069 42.371 51.7005 42.4777C51.5941 42.5845 51.4462 42.6391 51.296 42.627C50.4473 42.5591 49.3449 42.4818 48.0557 42.4047C50.035 44.2972 52.8915 46.7594 56.6103 49.4327C56.6205 49.0646 56.5804 48.6507 56.5043 48.2249C56.3742 47.4974 56.1537 46.8123 55.9939 46.4129C55.8886 46.1497 56.0167 45.8509 56.2799 45.7456C56.5432 45.6403 56.8419 45.7684 56.9472 46.0316C57.1297 46.4878 57.3712 47.2402 57.515 48.0442C57.6558 48.8318 57.7182 49.7499 57.471 50.4916C57.4458 50.5672 57.4033 50.6359 57.347 50.6922C57.1158 50.9234 56.7738 51.0008 56.5185 51.0353C56.2333 51.0739 55.9064 51.0759 55.5856 51.0602C54.9414 51.0286 54.2477 50.9215 53.8031 50.8326C53.525 50.777 53.3447 50.5066 53.4003 50.2285C53.4559 49.9505 53.7264 49.7702 54.0044 49.8258C54.4154 49.908 55.0565 50.0063 55.6358 50.0346C55.6552 50.0356 55.6745 50.0365 55.6936 50.0372C51.5434 47.0279 48.4686 44.2868 46.4963 42.3168C43.0091 42.1316 38.5532 41.97 34.1141 41.9741C34.2782 43.4856 34.5835 44.9596 34.891 46.0872C34.9656 46.3607 34.8043 46.6429 34.5308 46.7175C34.2573 46.7921 33.975 46.6309 33.9004 46.3573C33.5768 45.1706 33.2508 43.599 33.082 41.9781C31.2651 41.9906 29.4639 42.0329 27.7463 42.1147C27.6061 42.1214 27.4692 42.0703 27.3676 41.9734C27.266 41.8764 27.2085 41.7421 27.2086 41.6017C27.2089 40.546 27.2095 38.3589 27.209 36.6524C26.7353 37.0488 26.2212 37.4628 25.6922 37.8762C25.6772 37.9266 25.661 37.9728 25.6469 38.0114C25.5992 38.1422 25.5337 38.295 25.4579 38.4589C25.3056 38.7881 25.0984 39.1913 24.8729 39.6079C24.7925 39.7564 24.7093 39.9076 24.6248 40.0587C24.7455 40.0849 24.8684 40.1489 24.9726 40.2786C25.078 40.4097 25.1102 40.5547 25.1206 40.6536C25.1315 40.7566 25.1239 40.8573 25.1112 40.9442C25.0635 41.2731 24.8948 41.707 24.7102 42.1161C24.5285 42.519 24.3075 42.9491 24.0989 43.3278C23.8458 44.3775 23.128 45.6511 22.1917 46.9867C21.2227 48.369 19.9801 49.8721 18.6595 51.3468C17.7606 52.3507 16.8228 53.3444 15.9062 54.2817C14.3206 55.9031 12.7954 57.3587 11.6394 58.4096C11.4485 58.5832 11.1583 58.588 10.9616 58.4209C10.1151 57.7013 9.33739 57.0125 8.62256 56.3538C4.61966 52.6653 2.58681 49.9197 1.49327 48.0155C0.945788 47.0621 0.637493 46.3261 0.436384 45.7988C0.385668 45.6658 0.345845 45.5575 0.311327 45.4635C0.273299 45.3601 0.241709 45.2741 0.209083 45.1921C0.160778 45.0706 0.138568 45.0331 0.138568 45.0331C0.0428851 44.9309 -0.0069767 44.7939 0.000788394 44.6537C0.00886266 44.5079 0.0786442 44.3725 0.192668 44.2812C1.45827 43.2687 3.38226 42.2258 5.07272 41.4098C6.19897 40.8661 7.24023 40.4142 7.94766 40.1289C10.0532 38.3807 15.2601 34.3736 19.7756 31.9106C20.3546 31.5948 20.8359 31.3782 21.2289 31.2566C21.6006 31.1417 21.9841 31.082 22.3103 31.1999C22.4901 31.2648 22.6444 31.3814 22.7505 31.5479C22.8521 31.7071 22.8901 31.8808 22.8983 32.0364C22.9141 32.3346 22.8253 32.662 22.7084 32.968C22.3808 33.8258 21.6428 34.9779 20.8784 36.0309C22.7019 35.4228 25.1846 34.4658 26.4913 33.9434C26.7502 33.8227 26.9888 33.7154 27.208 33.6208C27.1995 30.8367 27.0891 24.5461 26.6965 19.0503C26.6863 18.9081 26.7357 18.7682 26.8328 18.6639C26.93 18.5596 27.0661 18.5003 27.2086 18.5003H38.8748C38.876 17.4658 38.918 16.2618 39.0173 14.8702C39.032 14.6648 39.168 14.4881 39.3627 14.4212ZM38.8879 19.5271H27.7588C28.1058 24.6687 28.2164 30.36 28.233 33.223C28.5181 33.1298 28.7584 33.0725 28.9519 33.0561C29.1002 33.0436 29.3599 33.0403 29.5711 33.207C29.8495 33.4266 29.8338 33.7454 29.7872 33.9209C29.7423 34.0901 29.6463 34.2502 29.5527 34.3834C29.4529 34.5252 29.326 34.6776 29.1816 34.8358C28.9304 35.1109 28.6067 35.4251 28.2354 35.7618C28.2363 37.2905 28.2359 39.6587 28.2355 41.0649C29.7791 40.9992 31.3823 40.9638 32.9978 40.9519C32.9596 40.302 32.9518 39.6554 32.9847 39.0337C33.0507 37.7842 33.2828 36.5838 33.8033 35.653C34.3376 34.6973 35.1801 34.0257 36.3981 33.9039C38.9533 33.6484 40.8746 33.0234 41.7684 31.2916C42.6062 29.6684 42.6386 26.9063 41.0788 22.1493L40.5298 23.7964C40.4678 23.9824 40.3053 24.1168 40.1109 24.1429C39.9166 24.1689 39.7244 24.0819 39.6156 23.9188C39.4789 23.7138 39.3616 23.392 39.2618 22.9845C39.1583 22.562 39.063 22.0012 38.9928 21.284C38.9436 20.7806 38.9064 20.1973 38.8879 19.5271ZM41.9402 21.4855L44.4609 22.5658C44.6401 22.6426 44.8475 22.6112 44.996 22.4848C45.1444 22.3583 45.2085 22.1586 45.1611 21.9694C45.0519 21.5326 44.7951 21.0118 44.4767 20.4733C44.301 20.1762 44.1 19.8628 43.8817 19.5408C45.4426 19.5777 48.0401 19.6966 50.8093 19.9865C50.6466 25.4339 50.4402 36.4238 50.7807 41.5574C49.7508 41.4804 48.4452 41.3948 46.9462 41.3128C46.0485 40.4011 45.4217 39.6876 45.0683 39.2333C44.8943 39.0095 44.5717 38.9691 44.3479 39.1432C44.1241 39.3173 44.0838 39.6398 44.2579 39.8636C44.5215 40.2026 44.9191 40.6669 45.4493 41.2354C42.112 41.073 38.0614 40.9418 34.0261 40.9474C33.9871 40.3144 33.9783 39.687 34.01 39.0878C34.0723 37.9074 34.2894 36.8875 34.6994 36.1541C35.0955 35.4456 35.6648 35.0091 36.5003 34.9256C39.0787 34.6677 41.5211 34.0094 42.6808 31.7625C43.7404 29.7096 43.6304 26.5003 41.9402 21.4855ZM7.92385 41.2489C7.38928 41.4726 6.72552 41.7645 6.00693 42.1021C7.3864 44.558 10.4571 49.1124 14.1913 52.2512C14.6125 52.6052 15.0411 52.9404 15.4758 53.252C16.157 52.5496 16.8453 51.8198 17.5159 51.0818C14.1671 48.5981 11.857 46.4116 10.3219 44.6647C9.05051 43.2179 8.29028 42.0494 7.92385 41.2489ZM18.2042 50.3139C19.3919 48.9705 20.4886 47.6275 21.3509 46.3973C22.2982 45.0461 22.9242 43.8839 23.1138 43.0306C23.1246 42.9824 23.1422 42.9359 23.1662 42.8927C23.3753 42.5163 23.5972 42.0866 23.7743 41.694C23.7823 41.6763 23.7901 41.6588 23.7978 41.6414C23.6964 41.7365 23.5856 41.8439 23.4646 41.9649C23.278 42.1515 22.9802 42.1662 22.7761 41.9989C22.572 41.8316 22.5281 41.5367 22.6745 41.3171C22.9905 40.843 23.4832 40.0114 23.9122 39.2255C23.5613 39.4836 23.2164 39.7326 22.885 39.9674C22.6536 40.1312 22.3332 40.0765 22.1693 39.8452C22.0054 39.6138 22.0601 39.2934 22.2915 39.1295C23.1211 38.5419 24.0337 37.8652 24.9093 37.1847C24.9118 37.1827 24.9144 37.1807 24.9169 37.1787C25.8221 36.475 26.6874 35.7673 27.3804 35.1498C27.7375 34.8315 28.0431 34.5423 28.2826 34.2935C28.1726 34.3342 28.0508 34.3817 27.9163 34.4367C27.6306 34.5536 27.2973 34.7003 26.9123 34.88C26.9036 34.884 26.8948 34.8879 26.8859 34.8914C25.1846 35.5719 21.3162 37.0587 19.6325 37.4797C19.4189 37.5331 19.1949 37.4442 19.076 37.2589C18.957 37.0735 18.9696 36.8329 19.1072 36.6609C20.1366 35.3741 21.3451 33.6598 21.7493 32.6016C21.8261 32.4006 21.86 32.2571 21.8701 32.1643C21.803 32.1696 21.6947 32.1873 21.5323 32.2375C21.2315 32.3305 20.8176 32.5118 20.2672 32.812C15.9833 35.1487 11.0283 38.9276 8.82061 40.7397C9.09631 41.3773 9.77792 42.4902 11.0932 43.9869C12.5847 45.6843 14.8626 47.8428 18.2042 50.3139ZM14.7493 53.9938C14.4545 53.7789 14.1635 53.5547 13.8765 53.3224C13.2714 53.8617 12.4529 54.549 11.6481 55.1404C11.1668 55.494 10.6799 55.8211 10.2401 56.0621C10.1541 56.1091 10.0663 56.1551 9.97743 56.1984C10.3919 56.5708 10.8266 56.9528 11.2826 57.3445C12.2677 56.4381 13.4791 55.278 14.7493 53.9938ZM9.13834 55.4323C9.2772 55.3919 9.47913 55.3082 9.7468 55.1616C10.1306 54.9513 10.5766 54.6536 11.0401 54.313C11.7666 53.7792 12.5106 53.1591 13.0841 52.6528C9.40256 49.4099 6.43004 44.9646 5.08039 42.5489C3.68127 43.2416 2.22497 44.0485 1.16865 44.8266C1.2014 44.9097 1.24028 45.0151 1.28249 45.1295C1.31839 45.2268 1.3567 45.3306 1.39571 45.4329C1.58274 45.9233 1.86917 46.6083 2.38364 47.5042C3.39824 49.2709 5.31419 51.8828 9.13834 55.4323ZM39.9654 16.1824C39.8529 18.3946 39.9015 20.0272 40.0147 21.184C40.0387 21.4298 40.0656 21.6534 40.0944 21.8559L40.5825 20.3915C40.6279 20.2553 40.7283 20.1443 40.8592 20.0855C40.9902 20.0267 41.1398 20.0254 41.2717 20.082L43.6559 21.1037C43.6354 21.0683 43.6144 21.0323 43.5928 20.9958C43.2916 20.4864 42.902 19.9119 42.4673 19.3164C41.6722 18.2271 40.7423 17.0885 39.9654 16.1824ZM59.5661 36.3437C59.6233 36.1152 59.8286 35.9549 60.0642 35.9549C62.5504 35.9549 73.4579 36.6413 78.5796 36.9828C78.8559 37.0012 79.0677 37.2354 79.0585 37.5121C79.052 37.7081 78.9362 37.8754 78.7708 37.9563C78.7549 37.9852 78.734 38.0275 78.7092 38.0867C78.6228 38.2926 78.5309 38.5985 78.4408 38.9651C78.2623 39.6914 78.1111 40.5717 78.0269 41.1612C77.9908 41.4141 77.7742 41.6019 77.5187 41.6019C76.4817 41.6019 72.1061 41.4732 67.9414 41.345C66.526 41.3015 65.1357 41.258 63.9061 41.2196C61.5029 41.1445 59.7136 41.0886 59.5508 41.0886C59.3609 41.0886 59.2052 41.0013 59.1023 40.8862C59.0129 40.7861 58.9704 40.6748 58.9483 40.5993C58.9038 40.4477 58.8951 40.2743 58.8963 40.1221C58.8987 39.8038 58.9489 39.3875 59.0182 38.954C59.1583 38.0782 59.3931 37.0357 59.5661 36.3437ZM60.4665 36.9861C60.3145 37.6266 60.1418 38.4305 60.0321 39.1162C59.9699 39.5044 59.9314 39.8349 59.9241 40.0705C60.6117 40.0894 62.1532 40.1376 64.0531 40.1969C65.2577 40.2346 66.6064 40.2767 67.973 40.3188C71.7003 40.4334 75.5662 40.5476 77.0782 40.5709C77.1686 40.0084 77.2962 39.3202 77.4437 38.7201C77.5106 38.4477 77.5842 38.1826 77.6637 37.9511C72.5285 37.6128 63.3556 37.0423 60.4665 36.9861ZM27.3442 48.4414C27.4414 48.3358 27.5784 48.2757 27.7219 48.2757H51.8503C52.1245 48.2757 52.3503 48.4913 52.3631 48.7653C52.5343 52.4464 52.7655 58.0711 52.9025 62.9823C52.971 65.4374 53.016 67.7175 53.0182 69.4885C53.0193 70.3735 53.0096 71.1357 52.9865 71.7308C52.9642 72.3062 52.9281 72.7763 52.8617 73.042C52.8024 73.279 52.5844 73.4414 52.3403 73.4303C48.5817 73.2594 38.4934 72.9174 28.2353 72.9174C28.0951 72.9174 27.961 72.8601 27.8641 72.7587C27.7672 72.6573 27.7161 72.5207 27.7225 72.3807C27.8928 68.6513 28.0295 58.7064 27.2103 48.8316C27.1985 48.6885 27.247 48.547 27.3442 48.4414ZM28.2786 49.3025C29.0171 58.6054 28.9272 67.8596 28.7707 71.891C38.4631 71.9021 47.9065 72.2104 51.9203 72.3839C51.9357 72.2046 51.9496 71.9741 51.9605 71.6909C51.9829 71.1156 51.9925 70.3689 51.9914 69.4897C51.9893 67.7323 51.9445 65.4627 51.8761 63.0109C51.7453 58.3209 51.5284 52.9764 51.3601 49.3025H28.2786ZM82.9936 49.9457C83.1096 50.0489 83.1727 50.199 83.1652 50.3541C83.0449 52.8327 82.8824 56.7304 82.7862 60.3663C82.7074 63.3417 82.6741 66.1111 82.7404 67.7914C82.789 67.7998 82.8367 67.8153 82.882 67.838C84.2312 68.5126 85.3189 69.7538 86.1234 70.9803C86.8355 72.0659 87.3529 73.182 87.6505 73.9853C87.7049 74.0054 87.7537 74.0282 87.7951 74.05C87.9894 74.1519 88.1966 74.3184 88.4174 74.5403C88.8627 74.9877 89.4434 75.7418 90.1787 76.9328C90.7872 77.9183 91.5082 79.2138 92.3522 80.9018C92.429 81.0553 92.4239 81.237 92.3388 81.3861C92.1516 81.7136 91.796 82.1126 91.279 82.5663C90.7538 83.0271 90.0348 83.5679 89.0903 84.1746C86.5314 85.8183 82.2789 87.9703 75.6379 90.3421C75.4807 90.3982 75.306 90.3744 75.1695 90.2783C75.033 90.1821 74.9519 90.0256 74.9519 89.8586C74.9519 89.5158 74.9514 87.0776 74.4789 84.6082C74.2553 83.4398 73.9308 82.2906 73.466 81.3609C73.3864 81.2018 73.3949 81.0128 73.4884 80.8615C73.582 80.7101 73.7472 80.618 73.9251 80.618C73.921 80.618 73.9241 80.6175 73.9358 80.6158C73.9622 80.612 74.0323 80.6018 74.1618 80.576C74.1722 80.5739 74.1828 80.5718 74.1936 80.5696C72.5403 77.3282 71.5816 75.0656 71.0914 73.4135C69.9269 73.5859 68.0382 73.7114 66.1062 73.7972C63.8705 73.8964 61.527 73.9442 60.0642 73.9442C59.7806 73.9442 59.5508 73.7143 59.5508 73.4308C59.5508 64.8115 59.3797 59.2617 59.1668 55.8284C59.0602 54.1107 58.9436 52.9302 58.834 52.1633C58.7791 51.7787 58.7273 51.5081 58.6822 51.3301C58.6595 51.2405 58.641 51.1845 58.6286 51.1536L58.6282 51.1526C58.5192 51.0088 58.4927 50.8161 58.5631 50.6461C58.6426 50.4543 58.8298 50.3292 59.0374 50.3292C62.4581 50.3292 67.7428 50.3036 72.4794 50.2266C74.8479 50.1881 77.0769 50.1369 78.8663 50.0697C80.6704 50.0019 81.9909 49.919 82.568 49.8228C82.7212 49.7973 82.8776 49.8425 82.9936 49.9457ZM71.9562 72.6942C71.957 72.6976 71.9579 72.7009 71.9588 72.7042C72.3796 74.3081 73.3447 76.6643 75.2207 80.3229C76.5021 79.982 78.5041 79.3499 80.5876 78.4031C82.8102 77.393 85.0847 76.043 86.6863 74.3383C86.4139 73.6038 85.9309 72.5589 85.2648 71.5434C84.6781 70.6489 83.97 69.8089 83.1658 69.2155V69.3239C83.1658 69.5501 83.0177 69.7496 82.8012 69.8152C82.5847 69.8808 82.3507 69.7969 82.2253 69.6086C82.1315 69.4679 82.0161 69.2999 81.88 69.1181C81.4605 68.5576 80.8721 67.9047 80.161 67.5207C79.7632 67.3058 79.3277 67.174 78.8503 67.195C79.2576 67.4398 79.6153 67.6803 79.8874 67.8919C80.1112 68.066 80.1515 68.3885 79.9774 68.6123C79.8034 68.8361 79.4808 68.8764 79.257 68.7024C78.8161 68.3594 78.0891 67.9108 77.2933 67.508C77.2889 67.5059 77.2846 67.5037 77.2803 67.5015C76.8487 67.2836 76.3973 67.0794 75.9606 66.9131C75.333 66.6741 74.7816 66.5315 74.3843 66.5171C74.1861 66.5099 74.0675 66.5366 74.0057 66.5649C73.9618 66.5851 73.951 66.6013 73.9412 66.6309C73.9337 66.6534 73.9251 66.6931 73.9251 66.757C73.9251 66.9889 73.9421 67.0964 73.9596 67.1505C73.9683 67.1777 73.9725 67.1851 74.0016 67.207C74.0553 67.2476 74.1477 67.2957 74.35 67.385C74.3878 67.4017 74.4285 67.4194 74.472 67.4384C74.644 67.5135 74.8597 67.6075 75.1117 67.7297C76.3965 68.3528 78.624 69.7032 82.502 73.5812C82.6827 73.7618 82.703 74.0478 82.5497 74.2522L81.0096 76.3057C80.9267 76.4162 80.8028 76.4887 80.6658 76.5067C80.5288 76.5247 80.3904 76.4867 80.2818 76.4013L73.0946 70.7543C72.9939 70.6752 72.9264 70.5613 72.9054 70.435C72.8219 69.9339 72.6549 69.3277 72.4523 69.0088C72.4368 68.9845 72.423 68.9647 72.4109 68.9487C72.3825 68.9795 72.345 69.026 72.2988 69.0953C72.2306 69.1976 72.1672 69.2966 72.1088 69.3961C71.9176 69.7217 71.7755 70.0579 71.718 70.4984C71.6596 70.946 71.685 71.5302 71.8722 72.3515C71.8973 72.4618 71.9252 72.576 71.9562 72.6942ZM77.5238 66.4762C78.704 65.9597 79.7738 66.1446 80.6489 66.6173C81.0392 66.828 81.3904 67.0952 81.6998 67.3792C81.6523 65.6254 81.6883 63.041 81.7598 60.3392C81.8487 56.9792 81.994 53.3983 82.1106 50.9131C81.3592 50.9858 80.2424 51.0455 78.9048 51.0957C77.1049 51.1633 74.8676 51.2147 72.496 51.2532C68.0657 51.3252 63.1582 51.3523 59.7397 51.3556C59.7767 51.5405 59.8137 51.7607 59.8505 52.0181C59.9655 52.8234 60.0842 54.0343 60.1915 55.7648C60.4021 59.1584 60.5707 64.5784 60.5773 72.9157C62.0263 72.9063 64.0854 72.8591 66.0607 72.7714C67.9551 72.6874 69.7371 72.5673 70.8345 72.4134C70.6606 71.5902 70.6263 70.9298 70.6999 70.3655C70.7523 69.9636 70.858 69.6233 70.9935 69.3196L70.0583 68.7318C69.9577 68.6685 69.8821 68.5723 69.8445 68.4595L68.8178 65.3793C68.7656 65.2227 68.7919 65.0506 68.8883 64.9167C68.9848 64.7829 69.1398 64.7035 69.3048 64.7035H71.8717C71.9872 64.7035 72.0994 64.7426 72.1901 64.8143L73.3735 65.7502C73.437 65.7044 73.5053 65.6649 73.5774 65.6318C73.8403 65.5111 74.1376 65.4808 74.4214 65.491C74.9878 65.5115 75.6642 65.7016 76.326 65.9536C76.7212 66.1041 77.1276 66.2831 77.5238 66.4762ZM72.8999 66.6847L72.5387 66.399C72.5294 66.4113 72.5198 66.4242 72.5099 66.4377C72.3461 66.6611 72.1512 66.9705 71.9514 67.3012C71.8525 67.4648 71.7545 67.6303 71.6602 67.7894L71.6477 67.8106C71.5585 67.9613 71.4724 68.1067 71.3942 68.2359C71.3759 68.2661 71.3579 68.2958 71.3401 68.3248L71.5102 68.4317C71.7341 68.1267 72.0436 67.8584 72.4542 67.874C72.8931 67.8906 73.1705 68.2247 73.3189 68.4582C73.5999 68.9005 73.7826 69.5577 73.8821 70.0673L80.5033 75.2696L81.4603 73.9935C77.8352 70.4143 75.7852 69.1975 74.6637 68.6536C74.4321 68.5413 74.2398 68.4573 74.069 68.3828C74.023 68.3628 73.9786 68.3434 73.9354 68.3243C73.7467 68.241 73.5463 68.1497 73.3835 68.0269C73.196 67.8855 73.0598 67.7059 72.9823 67.4653C72.9135 67.2518 72.8984 67.011 72.8984 66.757C72.8984 66.7328 72.8989 66.7087 72.8999 66.6847ZM70.6182 67.5336C70.665 67.455 70.7143 67.3717 70.7656 67.285L70.7767 67.2663C70.8708 67.1075 70.971 66.9383 71.0726 66.7702C71.2738 66.4372 71.4889 66.0938 71.682 65.8305C71.6988 65.8075 71.7159 65.7846 71.7332 65.7619L71.6932 65.7303H70.0171L70.6182 67.5336ZM87.2852 74.9446C87.2852 74.9446 87.2879 74.9449 87.2956 74.9483C87.2893 74.9465 87.2852 74.9446 87.2852 74.9446ZM74.6638 81.5185C74.9555 82.2281 75.1805 83.0015 75.3548 83.7767C75.5233 83.7171 75.7228 83.6496 75.946 83.5749C76.0525 83.5392 76.1653 83.5016 76.2839 83.4621C76.9641 83.2355 77.8375 82.9445 78.8308 82.5831C81.1666 81.7333 84.1356 80.5045 86.7208 78.8506C87.5615 78.3128 88.3578 77.7323 89.0764 77.1083C88.4736 76.1662 88.0153 75.5918 87.6897 75.2646C87.5864 75.1609 87.5025 75.0882 87.4374 75.0383C85.7021 76.8864 83.2874 78.304 81.0124 79.3378C78.6325 80.4193 76.3605 81.101 75.0758 81.4205C74.9252 81.458 74.7874 81.4906 74.6638 81.5185ZM89.6205 77.9945C89.0079 78.5161 88.3498 79.0041 87.6655 79.46C88.0817 80.2921 88.7069 81.6607 89.1118 82.9295C89.74 82.501 90.2306 82.1203 90.6018 81.7945C90.9319 81.5048 91.1559 81.2688 91.298 81.0905C90.6645 79.8356 90.1069 78.8168 89.6205 77.9945ZM88.2169 83.5123C87.8582 82.2943 87.2281 80.8909 86.7949 80.015C84.2363 81.5771 81.4039 82.7395 79.1818 83.548C78.174 83.9146 77.2862 84.2104 76.606 84.437C76.4883 84.4763 76.3768 84.5134 76.2719 84.5485C75.9714 84.6491 75.7322 84.7306 75.5567 84.7953C75.8582 86.5323 75.9442 88.1979 75.9688 89.1314C81.904 86.9721 85.7993 85.0207 88.2169 83.5123ZM48.193 52.9C48.409 52.873 48.6185 52.9852 48.7159 53.1798C49.6179 54.984 49.1451 56.3272 48.6197 56.8526C48.558 56.9143 48.4816 56.9593 48.3977 56.9833C46.9182 57.406 43.67 57.9238 40.2544 58.3971C36.8221 58.8727 33.1724 59.3097 30.8588 59.5667C30.5832 59.5973 30.3331 59.4036 30.2939 59.1291L29.7806 55.5355C29.7595 55.3882 29.8034 55.239 29.9009 55.1265C29.9985 55.0141 30.14 54.9495 30.2888 54.9495C30.5625 54.9495 31.4627 54.8684 32.792 54.7278C34.1036 54.589 35.7955 54.3968 37.6216 54.183C41.2733 53.7554 45.4559 53.2422 48.193 52.9ZM63.105 53.9243C69.7731 53.4114 79.0351 52.8961 79.5722 52.8961C79.7083 52.8961 79.8389 52.9501 79.9352 53.0464C80.1079 53.2191 80.2232 53.4392 80.3035 53.6438C80.3859 53.8536 80.4446 54.0818 80.4869 54.3001C80.5712 54.7358 80.5989 55.1798 80.5989 55.4629C80.5989 55.7365 80.3844 55.962 80.1112 55.9756C74.9895 56.2317 70.8931 56.6158 68.0139 56.9357C66.5743 57.0957 65.4386 57.2396 64.6297 57.3437C64.5401 57.3553 64.4542 57.3663 64.3724 57.3769C64.0858 57.4139 63.8474 57.4446 63.6609 57.4675C63.4383 57.4947 63.2477 57.5164 63.1444 57.5164C62.9499 57.5164 62.7722 57.4065 62.6852 57.2326C62.4213 56.7048 62.3814 56.0859 62.4139 55.5718C62.4468 55.0493 62.5589 54.5692 62.6574 54.2738C62.7227 54.0779 62.8991 53.9402 63.105 53.9243ZM63.5432 54.9206C63.4967 55.1245 63.4551 55.3739 63.4386 55.6364C63.42 55.9304 63.4348 56.2117 63.4915 56.4538C63.506 56.452 63.5209 56.4502 63.5362 56.4483C63.7194 56.4259 63.9538 56.3957 64.2403 56.3587C64.3222 56.3481 64.4083 56.337 64.4986 56.3254C65.3101 56.221 66.4524 56.0761 67.9005 55.9152C70.6999 55.6042 74.6401 55.2332 79.547 54.9764C79.5322 54.8225 79.5102 54.6571 79.4789 54.4952C79.4441 54.3157 79.4002 54.1524 79.3478 54.0189C79.335 53.9864 79.3224 53.9574 79.3102 53.9316C77.7135 54 69.6696 54.4556 63.5432 54.9206ZM30.8761 55.9442C31.36 55.9065 32.0612 55.8376 32.9 55.7488C34.2173 55.6095 35.9136 55.4167 37.741 55.2027C41.2333 54.7938 45.2096 54.3068 47.9458 53.9656C48.3978 55.0767 48.1364 55.7767 47.9635 56.0381C46.4992 56.4301 43.4316 56.9202 40.1135 57.3801C36.9277 57.8215 33.552 58.2298 31.2399 58.4909L30.8761 55.9442ZM68.6043 59.8651C71.4563 59.8951 74.5424 59.998 76.5143 60.0837C76.6426 60.0893 76.7642 60.1428 76.855 60.2336C77.0576 60.4362 77.1505 60.6955 77.1936 60.9227C77.2376 61.1538 77.239 61.3981 77.2221 61.6234C77.1882 62.0734 77.0743 62.5265 76.979 62.8124C76.9091 63.022 76.7129 63.1634 76.492 63.1634H62.1176C61.9815 63.1634 61.8509 63.1094 61.7546 63.0131C61.552 62.8104 61.4592 62.5512 61.416 62.324C61.3721 62.0928 61.3706 61.8485 61.3875 61.6233C61.4214 61.1732 61.5353 60.7202 61.6306 60.4342C61.6889 60.2595 61.8363 60.1293 62.017 60.0932C62.5786 59.9809 63.5289 59.9186 64.6617 59.8861C65.8076 59.8532 67.1786 59.8501 68.6043 59.8651ZM62.5207 61.0511C62.4716 61.2481 62.4281 61.4789 62.4114 61.7004C62.3984 61.873 62.4033 62.0201 62.4247 62.1323L62.4255 62.1367H76.1032C76.1463 61.9534 76.1832 61.7461 76.1982 61.5463C76.2112 61.3736 76.2063 61.2265 76.185 61.1144C76.1838 61.1084 76.1827 61.1027 76.1815 61.0972C74.2133 61.0145 71.2962 60.9202 68.5935 60.8918C67.1743 60.8768 65.8181 60.8801 64.6912 60.9124C63.7645 60.939 63.0175 60.9849 62.5207 61.0511ZM31.9376 63.3609C32.0349 63.2363 32.1842 63.1634 32.3422 63.1634H47.2299C47.388 63.1634 47.5373 63.2363 47.6346 63.3609C47.7319 63.4855 47.7663 63.648 47.728 63.8013C47.3276 65.4029 47.2299 66.7985 47.2299 67.2704C47.2299 67.5539 47.0001 67.7838 46.7166 67.7838H32.8556C32.5721 67.7838 32.3422 67.5539 32.3422 67.2704C32.3422 66.1026 32.0126 64.4748 31.8442 63.8013C31.8059 63.648 31.8403 63.4855 31.9376 63.3609ZM32.985 64.1902C33.1314 64.8914 33.3006 65.8739 33.3528 66.757H46.2223C46.2607 66.1529 46.3632 65.2332 46.5846 64.1902H32.985ZM68.2532 67.1264C68.4019 67.1847 68.6895 67.3267 68.7748 67.6543C68.9578 68.3563 68.8519 69.1317 68.7774 69.4433C68.727 69.6538 68.5499 69.8102 68.3348 69.8341C67.5638 69.9198 66.3816 70.0483 65.3402 70.1554C64.321 70.2603 63.384 70.3506 63.1444 70.3506C62.7188 70.3506 62.508 69.9997 62.4289 69.8365C62.331 69.6344 62.2697 69.3876 62.2284 69.1581C62.1441 68.6895 62.1176 68.1431 62.1176 67.7838C62.1176 67.5268 62.3076 67.3094 62.5623 67.275C63.4808 67.1509 64.872 67.0014 66.0599 66.9575C66.6503 66.9357 67.2125 66.9391 67.6471 66.9907C67.8611 67.0161 68.0746 67.0564 68.2532 67.1264ZM63.1577 68.2336C63.1715 68.479 63.1972 68.7444 63.2389 68.9762C63.2651 69.1217 63.2944 69.2349 63.3227 69.3148C63.663 69.2908 64.3847 69.2215 65.2352 69.134C66.1107 69.044 67.0871 68.9386 67.8328 68.8566C67.8553 68.6251 67.8608 68.3335 67.8133 68.0614C67.7484 68.0438 67.6542 68.0255 67.5261 68.0103C67.1716 67.9682 66.6726 67.9624 66.0977 67.9836C65.1356 68.0191 64.0225 68.1276 63.1577 68.2336ZM63.3748 69.4271C63.3748 69.4271 63.3718 69.424 63.3668 69.4153C63.3724 69.4222 63.3748 69.4271 63.3748 69.4271Z"
        fill="currentColor"/>
</svg>
