<svg width="80" height="81" viewBox="0 0 80 81" fill="none" xmlns="http://www.w3.org/2000/svg">
  <path fill-rule="evenodd" clip-rule="evenodd"
        d="M63.2298 0.506193C63.394 0.534637 63.526 0.657264 63.5664 0.818948C63.7872 1.70208 63.7895 2.15868 63.7895 2.44739C63.7895 2.59773 63.7933 2.62011 63.7972 2.63277C63.7974 2.63346 63.7976 2.6341 63.7983 2.63542C63.799 2.63689 63.801 2.64075 63.8056 2.64748C63.8154 2.66197 63.8355 2.68739 63.8767 2.7286C63.8985 2.75042 63.9875 2.81046 64.1813 2.89256C64.3596 2.96807 64.5832 3.04466 64.8266 3.11785C65.3125 3.26397 65.8464 3.38727 66.1879 3.45556C66.3643 3.49084 66.4988 3.63427 66.5226 3.81255C66.5465 3.99084 66.4545 4.1646 66.2936 4.24504C66.0305 4.3766 65.6089 4.61745 65.2165 4.90345C64.8082 5.20101 64.4963 5.50161 64.3766 5.74095C64.3067 5.88084 64.2365 6.0466 64.1639 6.22768C65.1811 6.30034 66.8422 6.39476 68.2106 6.39476C68.4431 6.39476 68.6316 6.58327 68.6316 6.81581C68.6316 10.8237 68.6052 17.1557 68.5229 22.1324C69.1138 21.7241 69.8154 21.3087 70.4679 21.0619C70.9282 20.8879 71.43 20.7716 71.8699 20.8619C72.1006 20.9093 72.3202 21.015 72.4967 21.2006C72.6717 21.3845 72.78 21.6211 72.834 21.8911C72.9459 22.451 72.7583 23.0795 72.4684 23.6744C72.1716 24.2835 71.7317 24.9291 71.2405 25.5529C70.3069 26.7386 69.151 27.8921 68.3224 28.6373C68.3081 28.8437 68.2931 29.0241 68.2772 29.1751C69.2889 29.3568 70.1408 30.0946 70.2255 31.1278C70.2901 31.9147 69.9002 32.7323 68.9965 33.4728C69.9146 33.7838 70.6349 34.6169 70.7348 35.616C70.8153 36.4206 70.4977 37.2478 69.7032 37.9691C70.2692 38.5364 70.5322 39.1681 70.5156 39.8233C70.4962 40.5918 70.0937 41.3006 69.5494 41.8827C69.171 42.2874 68.7079 42.6489 68.2104 42.9486C68.1979 49.8902 67.6462 54.1779 67.3559 55.339C67.3061 55.5382 67.1199 55.6724 66.9151 55.6567C64.1818 55.4464 56.08 54.9203 48.605 54.4466C48.543 54.4426 48.4811 54.4387 48.4192 54.4348C48.4083 54.5486 48.3513 54.6576 48.2527 54.7316C45.7773 56.5881 44.1267 58.7066 43.0956 60.3841C42.5801 61.2226 42.2206 61.949 41.9911 62.4743C41.8763 62.7371 41.7947 62.948 41.7426 63.096C41.7164 63.1703 41.6987 63.2262 41.688 63.2632C41.6847 63.2748 41.6824 63.2832 41.681 63.2889C41.6797 63.2991 41.6781 63.3093 41.6761 63.3194C41.6531 63.4342 41.6313 63.5447 41.6102 63.6514C41.4409 64.5086 41.3191 65.1255 41.0225 65.8669C40.6914 66.6948 40.1467 67.6703 39.0939 69.3547C36.678 73.2202 34.3511 78.1467 33.6626 80.2121C33.6235 80.3293 33.5349 80.4235 33.4202 80.4696C33.3056 80.5157 33.1764 80.5091 33.0671 80.4515C24.0194 75.6896 16.8199 68.7065 12.3086 63.3115C10.3917 61.0192 8.9541 59.0064 8.06282 57.5634C7.97749 57.4252 7.97921 57.2503 8.06724 57.1138C11.6754 51.5212 14.8897 47.7539 17.3921 45.3429C19.47 43.3409 21.0799 42.252 22.0316 41.8453C24.4298 38.0387 29.2184 30.8704 33.5353 26.9965C34.5187 26.1141 35.4935 25.3878 36.4243 24.9115C36.9323 19.8186 37.9863 9.33655 38.3184 6.34823C38.3308 6.23625 38.3876 6.13393 38.4761 6.06415C38.5646 5.99437 38.6773 5.96295 38.7891 5.97693C39.3149 6.04265 40.4756 6.04403 42.2658 6.02632C42.643 6.02259 43.0465 6.01806 43.4758 6.01325C45.0635 5.99543 47.0034 5.97367 49.2632 5.97368C54.5866 5.9737 59.386 6.02976 61.621 6.14534C61.5916 6.04621 61.5649 5.95172 61.5412 5.86472L59.6331 5.10148C59.5017 5.04892 59.4055 4.93385 59.3771 4.7952C59.3486 4.65656 59.3917 4.5129 59.4918 4.41282C59.7066 4.198 60.144 3.92576 60.5477 3.6931C60.901 3.48953 61.273 3.29162 61.5529 3.1485C61.9172 2.13826 62.5318 1.10117 62.8076 0.68751C62.9 0.54884 63.0656 0.477749 63.2298 0.506193ZM62.6116 6.47248C62.6097 6.4667 62.6076 6.46097 62.6055 6.4553C62.4749 6.08456 62.3656 5.70004 62.3033 5.45053C62.2705 5.31937 62.1767 5.21193 62.0512 5.16171L60.6603 4.60536C60.7555 4.54699 60.8589 4.4857 60.9682 4.42273C61.3735 4.18914 61.8081 3.96149 62.0831 3.82399C62.183 3.77405 62.2589 3.68647 62.2942 3.58053C62.4588 3.08694 62.7033 2.56723 62.9389 2.12352C62.9474 2.25431 62.9474 2.35588 62.9474 2.43934V2.44739C62.9474 2.45479 62.9474 2.46241 62.9474 2.47023C62.9471 2.58144 62.9468 2.73243 62.9923 2.88042C63.0471 3.05849 63.1523 3.19507 63.2813 3.32406C63.4279 3.47066 63.6512 3.58256 63.8529 3.668C64.0703 3.76003 64.3257 3.8466 64.5841 3.92429C64.7164 3.96408 64.8516 4.00216 64.9855 4.03799C64.8971 4.09714 64.8082 4.15894 64.7205 4.2229C64.3007 4.52885 63.8406 4.93001 63.6234 5.36435C63.4935 5.62431 63.3642 5.957 63.244 6.26608C63.2197 6.32866 63.1958 6.39026 63.1723 6.4501C63.0656 6.72176 62.9696 6.95298 62.8819 7.12187C62.8749 7.10822 62.8677 7.09396 62.8603 7.07907C62.7858 6.92857 62.7102 6.74415 62.6377 6.54533C62.6289 6.52115 62.6202 6.49685 62.6116 6.47248ZM61.9111 7.00523C59.8975 6.8788 54.8948 6.81581 49.2632 6.81578C47.0086 6.81577 45.0748 6.83747 43.4875 6.85528C43.0574 6.8601 42.6528 6.86464 42.2742 6.86838C40.8622 6.88235 39.7882 6.88599 39.1107 6.84824C38.7493 10.1747 37.8095 19.5138 37.3084 24.5324C37.3191 24.5288 37.3298 24.5251 37.3406 24.5216C37.6955 24.4033 38.0302 24.3382 38.333 24.3484C38.6786 21.8673 39.5858 13.0419 40.0021 8.87918C40.0236 8.66393 40.2048 8.50002 40.4211 8.50002H49.2632C49.4029 8.50002 49.5335 8.56933 49.6118 8.68502C49.6902 8.80071 49.706 8.94773 49.6541 9.07745C49.5421 9.35759 49.513 9.73342 49.6861 10.0181C49.8448 10.2791 50.2632 10.6053 51.3685 10.6053H56.8395C56.8355 10.6053 56.8335 10.6052 56.8335 10.6049C56.8325 10.5993 57.2632 10.5179 57.2632 9.34213C57.2632 9.22674 57.3105 9.11642 57.3942 9.03693C57.4778 8.95744 57.5904 8.91576 57.7056 8.92162C59.0849 8.99179 61.1611 9.09705 62.9069 9.18476C63.7798 9.22862 64.57 9.26808 65.1492 9.29658C65.4388 9.31083 65.6755 9.32233 65.8432 9.33026C65.9271 9.33423 65.9934 9.33729 66.0404 9.33934C66.0592 9.34017 66.0734 9.34076 66.0836 9.34117C66.0892 9.34051 66.0952 9.33987 66.1018 9.33931C66.1766 9.33297 66.2894 9.34062 66.4029 9.41271C66.5038 9.47683 66.5624 9.56525 66.597 9.6331C66.6323 9.70236 66.6573 9.7795 66.6771 9.85858C66.7525 10.1606 66.8122 10.7586 66.8396 11.9642C66.8938 14.3525 66.8212 19.2671 66.3931 29.3762C66.7205 29.282 67.0668 29.2104 67.431 29.1655C67.4328 29.1503 67.4346 29.1345 67.4364 29.1181C67.456 28.9393 67.475 28.7024 67.4933 28.4113C67.5663 27.2505 67.6228 25.2996 67.6659 22.9707C67.7569 18.0562 67.7875 11.4944 67.7894 7.23417C66.3585 7.21656 64.7363 7.11626 63.8396 7.0482C63.7356 7.29961 63.6225 7.54595 63.5026 7.72873C63.4253 7.84649 63.3011 8.00931 63.1164 8.09235C63.0111 8.13972 62.8831 8.16226 62.7466 8.13111C62.615 8.10108 62.5133 8.02977 62.4392 7.95564C62.3047 7.8212 62.1942 7.63171 62.1056 7.45254C62.0373 7.31457 61.972 7.1618 61.9111 7.00523ZM67.8052 29.9738C67.1726 30.0241 66.6037 30.1641 66.1026 30.3646C65.9014 30.4451 65.7111 30.5354 65.5318 30.6337C65.6351 31.1264 65.6535 31.7616 65.4189 32.3516C65.1496 33.0289 64.5722 33.5834 63.5801 33.804C63.6678 33.992 63.8208 34.134 64.0455 34.2229C64.267 34.3106 64.5781 34.3542 64.9927 34.3123C64.997 34.3118 65.0013 34.3114 65.0056 34.3109C65.3162 34.2784 65.6845 34.1981 66.1161 34.0529C66.3246 33.9828 66.5464 33.898 66.7815 33.7972C68.9314 32.8759 69.4387 31.8367 69.3862 31.1966C69.3333 30.5514 68.6905 29.9805 67.8052 29.9738ZM64.1641 35.1263C64.0116 35.0988 63.8686 35.0586 63.7355 35.0059C63.0458 34.7328 62.6922 34.1526 62.6519 33.4855C62.5829 32.3403 63.4138 30.962 64.8189 30.0765C65.0425 29.9356 65.282 29.806 65.5368 29.6906C65.9781 19.3444 66.0518 14.3687 65.9977 11.9833C65.9743 10.9516 65.927 10.4301 65.8831 10.1749C64.8639 10.1277 60.6139 9.91265 58.0837 9.78404C57.9689 10.9091 57.4134 11.4474 56.8421 11.4474H51.3685C50.1158 11.4474 49.3412 11.0718 48.9666 10.4556C48.7443 10.09 48.6962 9.6922 48.7316 9.34213H40.8021C40.366 13.6876 39.4823 22.2594 39.1537 24.5596C39.1502 24.5839 39.1447 24.6075 39.1374 24.6302C39.4232 24.8661 39.5602 25.2172 39.6062 25.5833C39.6629 26.0351 39.594 26.5765 39.454 27.1515C39.3168 27.7154 39.1038 28.3409 38.8408 28.9941C38.5508 32.9151 38.0098 40.37 37.9106 42.2205C44.4163 42.7804 58.0977 43.8238 64.8421 43.8671V43.8066C64.2087 43.6826 63.7281 43.4564 63.4081 43.1213C63.012 42.7066 62.9217 42.1896 63.0054 41.6932C63.101 41.1256 63.4245 40.5576 63.8081 40.078C63.9924 39.8476 64.1975 39.6288 64.4114 39.4313C64.1704 39.3232 63.9641 39.1723 63.795 38.9795C63.2903 38.4041 63.2361 37.5853 63.4029 36.8292C63.5305 36.2504 63.7969 35.6551 64.1641 35.1263ZM65.501 39.6351C65.1494 39.8738 64.7746 40.2178 64.4658 40.604C64.3186 40.788 64.1921 40.9745 64.0909 41.1569C64.3763 41.0532 64.6763 40.9087 64.9454 40.7177C65.3323 40.4429 65.6378 40.087 65.765 39.6241C65.6749 39.6308 65.5869 39.6345 65.501 39.6351ZM66.6506 39.477C66.5423 40.3556 66.0241 40.9845 65.4329 41.4043C64.9086 41.7765 64.3086 42.0004 63.8227 42.1143C63.839 42.2808 63.9034 42.4206 64.0171 42.5397C64.2041 42.7356 64.5806 42.9343 65.2909 43.0265C65.8377 43.0266 66.5071 42.8564 67.17 42.549C67.8398 42.2384 68.4719 41.8021 68.9343 41.3075C69.4007 40.8087 69.6615 40.2878 69.6738 39.802C69.684 39.396 69.522 38.9446 69.024 38.4835C68.6036 38.7517 68.1015 38.9973 67.5124 39.2115C67.2074 39.3224 66.9203 39.4105 66.6506 39.477ZM68.8338 37.5968C68.8145 37.6085 68.7961 37.6219 68.7786 37.6369C68.3901 37.9143 67.8816 38.1812 67.2246 38.4201C66.8297 38.5637 66.4795 38.6613 66.1709 38.7205C65.1681 38.9131 64.6666 38.6962 64.4281 38.4243C64.2149 38.1812 64.1179 37.7909 64.1765 37.2959C65.0604 37.1376 65.6683 36.6856 66.0608 36.1548C66.4035 35.6913 66.5764 35.1766 66.6415 34.7602C66.7942 34.7035 66.9515 34.6406 67.1133 34.5713C67.439 34.4316 67.7379 34.2854 68.0104 34.1337C68.07 34.166 68.1381 34.1842 68.2106 34.1842C69.0504 34.1842 69.8135 34.8659 69.8969 35.6998C69.9505 36.2356 69.7192 36.943 68.8338 37.5968ZM65.704 35.0448C65.5442 35.0814 65.3898 35.1099 65.241 35.1304C64.9032 35.4888 64.6271 35.9185 64.4384 36.3575C64.8725 36.1992 65.1738 35.938 65.3837 35.6541C65.5296 35.4568 65.6334 35.2453 65.704 35.0448ZM65.6842 43.8478C66.2303 43.7917 66.8109 43.6251 67.3667 43.3837C67.3356 49.4585 66.8887 53.3614 66.6136 54.7894C60.8005 54.3567 37.7153 52.9095 34.4777 52.7291C34.4889 52.2963 34.5249 51.5433 34.5992 50.3471C34.7631 47.7066 35.1114 42.9328 35.7794 34.746C36.4732 33.6797 37.2018 32.4303 37.8354 31.1837C37.504 35.7133 37.0527 42.0209 37.0527 42.6053C37.0527 42.8237 37.2196 43.0059 37.4372 43.0248C43.8894 43.5858 58.5047 44.7106 65.2632 44.7106C65.4957 44.7106 65.6842 44.5221 65.6842 44.2895V43.8478ZM63.542 32.9462C64.1885 32.7654 64.4916 32.4045 64.6364 32.0405C64.7478 31.7602 64.7765 31.4486 64.7566 31.1592C64.0774 31.7236 63.6772 32.3856 63.542 32.9462ZM66.0499 9.34624C66.0445 9.34706 66.0429 9.34748 66.0466 9.34683L66.0483 9.34653L66.0499 9.34624ZM36.8511 25.6393C36.1407 25.9966 35.3768 26.5307 34.5786 27.2045C34.9023 27.3039 35.2651 27.3292 35.604 27.2093C36.0235 27.061 36.5105 26.6509 36.8511 25.6393ZM33.8745 27.8263C29.7417 31.6307 25.1668 38.4546 22.7922 42.2179C27.9647 53.7008 36.832 60.46 41.0131 62.6399C41.0671 62.4979 41.1356 62.3291 41.2195 62.1371C41.4636 61.5783 41.841 60.817 42.3782 59.9431C43.3955 58.2881 44.9902 56.2229 47.3456 54.3669C44.0713 54.1599 40.9879 53.9675 38.6189 53.8216C37.2835 53.7394 36.1752 53.672 35.3878 53.6251C34.9941 53.6017 34.6809 53.5834 34.4598 53.571C34.4123 53.5683 34.3691 53.566 34.3304 53.5639C34.2552 53.6202 34.1158 53.6888 33.9383 53.6294C33.7693 53.5729 33.7025 53.4368 33.6902 53.4119C33.6686 53.3679 33.6583 53.3284 33.6541 53.3101C33.6384 53.2434 33.6351 53.1647 33.6334 53.1094C33.6314 53.0412 33.6313 52.9539 33.633 52.8473C33.6397 52.4221 33.6763 51.6231 33.7587 50.2949C33.9239 47.6346 34.275 42.8242 34.9488 34.571C34.9545 34.5009 34.9777 34.4333 35.0162 34.3745C36.1068 32.71 37.2895 30.5746 38.0357 28.7387C38.3005 28.0871 38.5072 27.481 38.6358 26.9524C38.7661 26.4172 38.8087 25.9915 38.7707 25.6882C38.7334 25.3917 38.6326 25.2839 38.5334 25.2373C38.4234 25.1855 38.2101 25.1566 37.8327 25.2535C37.4626 26.8504 36.75 27.6973 35.8848 28.0033C35.1478 28.2639 34.408 28.0913 33.8745 27.8263ZM40.7874 63.4709C36.5442 61.3135 27.4414 54.4556 22.1044 42.7404C21.2875 43.1524 19.9455 44.0824 18.1967 45.7388C19.007 47.3965 20.2531 49.6154 21.869 52.0571C25.7032 57.8507 31.5757 64.8328 38.5861 68.5769C39.5001 67.1007 39.9606 66.2544 40.2407 65.5541C40.5066 64.8892 40.6133 64.3503 40.7849 63.4834C40.7857 63.4792 40.7866 63.475 40.7874 63.4709ZM38.1413 69.2939C31.1487 65.5422 25.3196 58.6989 21.461 52.9628C20.2008 54.3022 18.4316 56.2405 16.821 58.1262C15.9349 59.1635 15.0998 60.1816 14.4248 61.0734C13.8435 61.8413 13.3955 62.4969 13.1325 62.9832C17.5359 68.2075 24.4269 74.8521 33.0291 79.4775C33.8652 77.219 35.9501 72.8695 38.1413 69.2939ZM12.5576 62.2923C12.856 61.7929 13.2709 61.2025 13.7533 60.5652C14.4422 59.6551 15.289 58.6232 16.1806 57.5793C17.8602 55.6128 19.7088 53.5922 20.9828 52.2423C19.5146 50.0007 18.357 47.9521 17.5617 46.355C15.2084 48.6925 12.2415 52.2279 8.91999 57.3461C9.72922 58.6276 10.9558 60.3414 12.5576 62.2923ZM68.3867 27.426C69.0886 26.7494 69.8983 25.8964 70.5789 25.032C71.0513 24.432 71.4513 23.8393 71.7114 23.3055C71.9784 22.7575 72.0647 22.3386 72.0082 22.0563C71.978 21.9052 71.9285 21.8251 71.8866 21.781C71.8463 21.7387 71.79 21.7052 71.7005 21.6868C71.5 21.6457 71.1839 21.6915 70.7658 21.8496C70.0106 22.1351 69.1361 22.7028 68.5041 23.187C68.4726 24.8452 68.4339 26.3109 68.3867 27.426ZM14.9669 2.93691C14.8108 2.94904 14.5484 3.04265 14.1578 3.35512C13.9079 3.55498 13.785 3.91944 13.871 4.53668C13.956 5.14749 14.2355 5.89983 14.6401 6.71236C15.3523 8.14291 16.4059 9.66971 17.2633 10.7709C17.6695 10.2139 18.1349 9.40341 18.4533 8.45075C18.8582 7.23943 19.0163 5.8278 18.5479 4.42264C18.3034 3.68911 18.0581 3.31838 17.8648 3.15207C17.7745 3.07434 17.7037 3.04814 17.6527 3.04004C17.6013 3.03188 17.5409 3.03749 17.4647 3.06867C17.298 3.13687 17.0977 3.31083 16.8912 3.58411C16.6913 3.84875 16.5154 4.16667 16.3848 4.4605C16.304 4.64221 16.1071 4.74265 15.9126 4.70137C15.7181 4.66009 15.579 4.48835 15.579 4.28949C15.579 4.07091 15.5552 3.81919 15.4988 3.58795C15.441 3.35091 15.3574 3.17059 15.2619 3.06127C15.1806 2.96824 15.0949 2.92695 14.9669 2.93691ZM16.2212 3.07399C16.1456 2.87152 16.0411 2.67317 15.896 2.50718C15.6615 2.23881 15.3261 2.06431 14.9016 2.09734C14.505 2.12818 14.0832 2.33633 13.6317 2.69755C13.0394 3.17137 12.9343 3.91568 13.0369 4.65283C13.1405 5.39641 13.4662 6.24407 13.8862 7.08768C14.7295 8.7814 16.013 10.5765 16.9364 11.7129C17.0146 11.8092 17.1314 11.8661 17.2555 11.8684C17.3796 11.8706 17.4983 11.8181 17.58 11.7247C18.1058 11.1237 18.8087 10.0439 19.252 8.71771C19.6962 7.38868 19.889 5.78277 19.3468 4.15634C19.0861 3.37408 18.7805 2.82902 18.4141 2.51375C18.2246 2.35069 18.0134 2.24466 17.7848 2.20835C17.5566 2.1721 17.3398 2.20992 17.1458 2.28926C16.7732 2.44172 16.4618 2.756 16.2212 3.07399ZM49.1393 14.2168C48.8634 14.3486 48.5586 14.7032 48.3611 15.0324C48.285 15.1593 48.1479 15.2369 48 15.2369C47.2452 15.2369 47.0724 15.4792 47.0225 15.6038C46.9472 15.7921 46.9963 16.0773 47.1135 16.3117C47.1945 16.4738 47.1628 16.6696 47.0346 16.7978C46.6042 17.2282 46.5733 17.5476 46.6128 17.743C46.6313 17.8348 46.6695 17.9202 46.7182 17.9959C46.9598 17.7647 47.2741 17.5383 47.6376 17.4087C47.922 17.3073 48.2457 17.2622 48.5863 17.3324C48.8219 17.3809 49.0514 17.4817 49.2703 17.6385C49.4192 17.5403 49.5966 17.4535 49.7888 17.4139C49.9748 17.3756 50.1934 17.3784 50.4075 17.4805C50.4426 17.4972 50.4764 17.516 50.5088 17.5368C50.6463 17.3918 50.8085 17.2473 50.9885 17.128C51.3012 16.9207 51.7387 16.7477 52.2003 16.8864C52.3444 16.8297 52.5106 16.7804 52.6909 16.7481C52.6232 15.8616 52.2346 15.385 51.8003 15.1202C51.2747 14.8 50.6128 14.7497 50.1629 14.8119C49.9841 14.8365 49.8094 14.7445 49.7287 14.5831C49.5858 14.2974 49.4598 14.2103 49.3948 14.1843C49.339 14.162 49.2623 14.1581 49.1393 14.2168ZM53.5345 16.7433C53.9888 16.8248 54.4497 17.0565 54.8186 17.5261C55.0052 17.4056 55.2351 17.3185 55.5037 17.3107C56.0189 17.2959 56.5458 17.5756 57.0548 18.1944C57.2039 18.2076 57.3804 18.2348 57.5604 18.2825C57.7552 18.334 57.9806 18.4163 58.1829 18.5501C58.3573 18.5034 58.5655 18.4808 58.7831 18.516C58.9624 18.545 59.1397 18.6124 59.301 18.7263C59.3494 18.6736 59.4014 18.6256 59.4571 18.5826C59.6781 18.4119 59.9264 18.3421 60.1609 18.332C60.4208 18.3208 60.6729 18.3818 60.8878 18.4676C61.0025 18.3355 61.1471 18.2376 61.3217 18.1842C61.622 18.0924 61.9285 18.1594 62.174 18.2551C62.5845 18.4151 62.9933 18.7223 63.2901 18.9921C63.5872 18.9486 63.8617 18.9738 64.0952 19.0981C64.4029 19.2618 64.5467 19.5467 64.6019 19.8152C64.6557 20.0765 64.635 20.3561 64.5906 20.6003C64.5667 20.7321 64.5343 20.8617 64.4974 20.9838C64.6594 21.1286 64.7832 21.2862 64.8653 21.4576C64.9906 21.7192 65.0041 21.9827 64.9459 22.221C64.8723 22.5223 64.6894 22.77 64.5008 22.951C64.6287 23.384 64.6965 24.0487 64.3766 24.6883C64.2676 24.9063 64.1009 25.0494 63.9091 25.1288C63.9551 25.2451 63.9871 25.3704 63.9981 25.5033C64.0359 25.9637 63.8173 26.3827 63.3511 26.7249C63.4199 26.8477 63.4771 26.985 63.5072 27.1309C63.5455 27.317 63.5427 27.5355 63.4407 27.7496C63.3986 27.8378 63.3435 27.9173 63.2771 27.9886C63.3725 28.2129 63.4432 28.482 63.4312 28.7602C63.4211 28.9947 63.3514 29.243 63.1806 29.464C63.0762 29.5991 62.9429 29.7127 62.7829 29.8045C62.7889 29.8795 62.791 29.9564 62.7878 30.0334C62.7795 30.234 62.7332 30.4796 62.5815 30.6861C62.4144 30.9137 62.1575 31.0417 61.8459 31.0473C61.6472 31.051 61.4307 31.0056 61.1962 30.9176C61.1684 30.9506 61.1395 30.9832 61.1093 31.015C61.1515 31.0543 61.192 31.0953 61.2308 31.1373C61.4565 31.3821 61.6496 31.6909 61.8063 32.0212C62.1185 32.6788 62.3158 33.4834 62.3158 34.1842C62.3158 34.7962 62.0959 35.2703 61.721 35.6044C61.3608 35.9255 60.8924 36.0867 60.4376 36.1625C59.6721 36.29 58.8294 36.1942 58.2672 36.0702C57.8575 36.5728 57.3794 37.045 56.8093 37.4737C55.3813 38.5475 53.4123 39.3213 50.5755 39.6551C46.8115 40.0979 44.2949 38.3139 42.8794 36.0949C42.1761 34.9924 41.7422 33.7812 41.5526 32.6765C41.365 31.5832 41.409 30.5455 41.717 29.8109C41.8735 29.4378 42.0323 29.0389 42.1894 28.6295C41.6827 28.4599 41.1216 28.1294 40.7523 27.5971C40.3041 26.951 40.1864 26.0771 40.6616 25.0141C41.1374 23.9496 41.8654 23.4638 42.6186 23.3474C42.9081 23.3027 43.191 23.314 43.4524 23.3596C43.4463 23.3292 43.4409 23.2986 43.4363 23.268C43.4051 23.0605 43.4058 22.8214 43.4933 22.5912C43.5468 22.4503 43.6291 22.3232 43.7402 22.2159C43.6604 21.6433 43.781 20.7669 44.5971 20.1026C44.5699 19.773 44.6224 19.3691 44.8575 19.0074C45.0772 18.6694 45.4252 18.4143 45.9146 18.2831C45.8589 18.1694 45.8146 18.0447 45.7873 17.9097C45.6924 17.4397 45.8199 16.9246 46.2465 16.4126C46.1399 16.0928 46.0853 15.6794 46.2407 15.291C46.4515 14.7639 46.9696 14.452 47.7659 14.4019C48.002 14.0582 48.3573 13.657 48.7765 13.4569C49.043 13.3297 49.3716 13.2679 49.7079 13.4026C49.9583 13.5028 50.1652 13.6933 50.3355 13.9511C50.8928 13.9237 51.6137 14.0204 52.2385 14.4011C52.936 14.8262 53.4608 15.5737 53.5345 16.7433ZM44.5094 24.5323C44.3543 25.0199 44.1375 25.681 43.8854 26.4153C43.8852 26.4157 43.8851 26.4162 43.8849 26.4166C43.4781 27.6015 42.9769 28.9839 42.4936 30.1365C42.2719 30.6651 42.209 31.5222 42.3826 32.5341C42.5543 33.5346 42.9497 34.6392 43.5893 35.642C44.8597 37.6336 47.0833 39.218 50.4771 38.8187C53.2091 38.4973 55.0248 37.7619 56.3032 36.8007C56.8832 36.3645 57.36 35.8764 57.7649 35.3477C57.7686 35.3426 57.7725 35.3376 57.7764 35.3327C58.2575 34.7014 58.6369 34.0127 58.9676 33.2858C59.2509 32.6632 59.4958 32.019 59.7398 31.3588C59.5125 31.2461 59.316 31.0501 59.149 30.7951C58.9602 30.5065 58.7901 30.1152 58.6396 29.6049C58.4155 29.6082 58.1663 29.5601 57.9343 29.4147C57.5808 29.1932 57.3548 28.8028 57.2857 28.2492C57.0056 28.1937 56.6951 28.0737 56.438 27.848C56.0993 27.5506 55.9044 27.1156 55.9384 26.5493C55.6739 26.4899 55.3847 26.3779 55.1224 26.1891C54.7822 25.9441 54.5034 25.5802 54.3817 25.0783C54.17 25.1101 53.9347 25.0944 53.6968 24.9921C53.2502 24.8 52.9145 24.355 52.7166 23.6432C52.2896 23.6048 51.6988 23.4739 51.1465 23.0591C50.9589 23.1767 50.7311 23.2342 50.4718 23.2069C50.267 23.1854 50.0549 23.1125 49.8348 22.9934C49.7159 23.148 49.5579 23.2931 49.3548 23.3934C48.9908 23.5731 48.5599 23.5722 48.0912 23.3512C47.9521 23.462 47.7738 23.55 47.5577 23.5883C47.251 23.6427 46.9028 23.5917 46.5174 23.413C46.3925 23.6328 46.217 23.8593 45.9832 24.0515C45.6198 24.3502 45.1287 24.5542 44.5094 24.5323ZM50.7866 22.2527C50.7844 22.2559 50.7822 22.2591 50.7801 22.2623C50.7654 22.2837 50.7506 22.3016 50.736 22.316C50.6972 22.3543 50.6525 22.3792 50.5599 22.3694C50.4449 22.3574 50.2432 22.2877 49.9369 22.0579C49.8286 21.9767 49.6879 21.9525 49.5587 21.9929C49.4295 22.0332 49.3276 22.1332 49.2848 22.2616C49.2369 22.4053 49.1262 22.5671 48.9821 22.6383C48.8744 22.6914 48.6497 22.7429 48.2336 22.4655C48.1331 22.3985 48.0087 22.3779 47.892 22.4089C47.7752 22.4399 47.6774 22.5195 47.6234 22.6275C47.6087 22.657 47.548 22.7348 47.4108 22.7591C47.2746 22.7832 46.9982 22.7647 46.5494 22.4655C46.4367 22.3904 46.2948 22.374 46.168 22.4215C46.0413 22.4691 45.9451 22.5746 45.9095 22.7053C45.8587 22.8923 45.7114 23.1848 45.4485 23.4009C45.2294 23.581 44.9161 23.7208 44.4658 23.6867C44.3769 23.5221 44.2962 23.3229 44.269 23.1426C44.2511 23.0238 44.2609 22.9418 44.2805 22.8904C44.2957 22.8504 44.323 22.8093 44.3989 22.7714C44.5863 22.6777 44.6763 22.4604 44.61 22.2616C44.5121 21.968 44.4755 21.1803 45.2862 20.6398C45.4343 20.5411 45.5043 20.36 45.4611 20.1874C45.41 19.9827 45.4176 19.691 45.5636 19.4663C45.6924 19.2681 45.9926 19.0263 46.7369 19.0263C46.8694 19.0263 46.9942 18.9639 47.0737 18.8579C47.2532 18.6186 47.5704 18.3267 47.9204 18.2019C48.0886 18.1419 48.2543 18.1238 48.4164 18.1572C48.5766 18.1902 48.763 18.2795 48.9655 18.482C49.1299 18.6464 49.3965 18.6464 49.5609 18.482C49.6726 18.3703 49.8336 18.2645 49.9586 18.2387C50.0112 18.2279 50.0347 18.2357 50.0452 18.2407C50.0545 18.2451 50.0975 18.268 50.1497 18.3725C50.2169 18.5068 50.3504 18.5951 50.5002 18.6045C50.65 18.6138 50.7934 18.5427 50.8767 18.4178C50.9956 18.2394 51.2112 17.9907 51.4537 17.8299C51.6999 17.6668 51.8815 17.6483 52.0223 17.7187C52.1408 17.778 52.2803 17.778 52.3989 17.7187C52.567 17.6346 52.8342 17.5522 53.124 17.5503C53.5485 17.5475 54.03 17.7119 54.3603 18.3725C54.4274 18.5068 54.5609 18.5951 54.7107 18.6045C54.8605 18.6138 55.004 18.5427 55.0872 18.4178C55.1783 18.2812 55.341 18.1579 55.528 18.1525C55.7005 18.1475 56.0418 18.24 56.5053 18.8579C56.5848 18.9639 56.7096 19.0263 56.8421 19.0263C56.949 19.0263 57.1442 19.0434 57.3449 19.0965C57.5524 19.1514 57.7151 19.2316 57.8076 19.3241C57.9357 19.4522 58.1315 19.484 58.2936 19.4029C58.3737 19.3629 58.5158 19.3258 58.6486 19.3473C58.6863 19.3534 58.727 19.3645 58.7684 19.3857C58.6078 19.5321 58.4445 19.7099 58.3122 19.9095C58.117 20.204 57.9522 20.6092 58.0495 21.041C57.9247 21.2071 57.8047 21.4209 57.7561 21.6572C57.7178 21.8433 57.7205 22.0618 57.8226 22.2759C57.8899 22.4173 57.991 22.5366 58.1182 22.6347C58.1414 22.8585 58.199 23.1244 58.3152 23.3664C58.4487 23.6446 58.6866 23.9349 59.0635 24.039C59.1371 24.2106 59.2309 24.3881 59.3452 24.5544C59.514 24.7999 59.7447 25.0456 60.0458 25.1937C60.3613 25.3488 60.7298 25.3837 61.1202 25.2359C61.4059 25.1278 61.6866 24.9284 61.9648 24.6385C62.2283 24.8065 62.5478 24.9788 62.8656 25.0884C63.0242 25.228 63.1458 25.4138 63.1588 25.5723C63.1676 25.6792 63.1387 25.9336 62.5486 26.2287C62.4275 26.2892 62.3429 26.4043 62.3213 26.5379C62.2996 26.6714 62.3434 26.8073 62.4392 26.903C62.5508 27.0147 62.6566 27.1757 62.6824 27.3007C62.6932 27.3533 62.6855 27.3768 62.6805 27.3873C62.676 27.3967 62.6531 27.4396 62.5486 27.4919C62.4406 27.5459 62.3609 27.6437 62.3299 27.7604C62.2989 27.8771 62.3196 28.0015 62.3865 28.102C62.4997 28.2717 62.5987 28.5201 62.5899 28.724C62.5859 28.8159 62.561 28.8886 62.5142 28.9492C62.4668 29.0106 62.3736 29.0896 62.1827 29.1532C61.974 29.2228 61.854 29.4413 61.9073 29.6548C61.935 29.7652 61.951 29.8891 61.9465 29.9983C61.9417 30.1135 61.916 30.1696 61.9028 30.1877C61.8989 30.193 61.8972 30.1938 61.8951 30.1948C61.8921 30.1963 61.8742 30.2046 61.8305 30.2054C61.7347 30.2071 61.5494 30.1724 61.241 30.0182C61.0442 29.9198 60.8048 29.9895 60.6916 30.1781C60.6049 30.3227 60.4959 30.4537 60.3861 30.5372C60.276 30.6209 60.2053 30.6286 60.1658 30.6219C60.1277 30.6153 60.0129 30.5772 59.8537 30.3339C59.6939 30.0898 59.5187 29.6808 59.3559 29.0295C59.3274 28.9157 59.2528 28.819 59.15 28.7625C59.0472 28.7061 58.9255 28.6951 58.8143 28.7322C58.6778 28.7776 58.5034 28.7775 58.3815 28.7011C58.285 28.6406 58.1053 28.4576 58.1053 27.8685C58.1053 27.6359 57.9168 27.4474 57.6842 27.4474C57.4657 27.4474 57.179 27.378 56.9936 27.2152C56.8448 27.0845 56.6923 26.8353 56.8296 26.2864C56.861 26.1606 56.8328 26.0273 56.753 25.9251C56.6732 25.8229 56.5507 25.7632 56.4211 25.7632C56.2078 25.7632 55.8784 25.6957 55.6145 25.5057C55.372 25.3311 55.1579 25.0365 55.1579 24.5C55.1579 24.3447 55.0725 24.2021 54.9356 24.1288C54.7986 24.0555 54.6325 24.0636 54.5033 24.1497C54.365 24.2419 54.1809 24.2836 54.0296 24.2185C53.8878 24.1575 53.6219 23.9363 53.4655 23.1543C53.4262 22.9575 53.2534 22.8158 53.0527 22.8158C52.722 22.8158 52.1595 22.7656 51.6526 22.3857C51.6711 22.3346 51.687 22.2838 51.7007 22.2344C51.7652 22.0005 51.7895 21.7584 51.7895 21.5527C51.7895 21.3201 51.601 21.1316 51.3685 21.1316C51.1359 21.1316 50.9474 21.3201 50.9474 21.5527C50.9474 21.6978 50.9296 21.8627 50.8889 22.0104C50.8599 22.1155 50.8238 22.1957 50.7866 22.2527ZM60.5366 31.6323C60.3712 32.08 60.2018 32.5305 60.0186 32.9758L60.593 32.9229C60.8245 32.9015 61.0296 33.072 61.0509 33.3035C61.0722 33.5351 60.9018 33.7401 60.6702 33.7614L59.9453 33.8282L60.2361 34.5781C60.3202 34.7949 60.2126 35.0388 59.9958 35.1229C59.779 35.207 59.5351 35.0994 59.451 34.8826L59.304 34.5036C59.1549 34.7794 58.9944 35.0508 58.8195 35.3161C59.2658 35.3829 59.812 35.413 60.2993 35.3318C60.6691 35.2702 60.9639 35.1512 61.1607 34.9758C61.3428 34.8135 61.4737 34.5748 61.4737 34.1842C61.4737 33.622 61.3103 32.9401 61.0456 32.3823C60.9139 32.1049 60.7645 31.8738 60.6118 31.7083C60.5861 31.6804 60.561 31.6552 60.5366 31.6323ZM43.3545 25.3571C43.4886 24.9551 43.6058 24.5946 43.7001 24.2982C43.4267 24.193 43.0857 24.1273 42.7472 24.1796C42.3055 24.2479 41.802 24.5262 41.4304 25.3577C41.058 26.1908 41.1871 26.7464 41.4442 27.1171C41.6913 27.4732 42.0981 27.7168 42.4857 27.8406C42.6061 27.5136 42.7239 27.1862 42.837 26.8655L42.2018 27.0151C41.9755 27.0685 41.7488 26.9282 41.6955 26.7018C41.6421 26.4755 41.7824 26.2488 42.0087 26.1955L42.7869 26.0121C42.7862 26.0111 42.7855 26.0101 42.7848 26.0091C42.5849 25.7274 42.3444 25.3904 42.1839 25.1661C42.0486 24.977 42.0922 24.714 42.2813 24.5787C42.4704 24.4433 42.7335 24.487 42.8688 24.6761C42.9993 24.8585 43.1827 25.1154 43.3545 25.3571ZM26.7131 16.7826C26.0883 17.0919 25.291 17.8393 24.7358 18.464C24.648 18.5627 24.5191 18.6145 24.3874 18.6039C24.2558 18.5934 24.1367 18.5217 24.0658 18.4103C23.7785 17.9588 23.5531 17.6817 23.385 17.5303C23.3369 17.487 23.2999 17.4595 23.273 17.442C23.2624 17.464 23.2498 17.4941 23.236 17.5346C23.1794 17.7021 23.1368 17.9569 23.1149 18.2956C23.0388 19.4732 23.2285 21.324 23.4632 22.8922C24.1559 22.3329 25.0014 21.5564 25.7308 20.6917C26.686 19.5594 27.3684 18.3614 27.3684 17.3421C27.3684 16.7792 27.2283 16.6762 27.2122 16.667C27.1824 16.6499 27.0463 16.6177 26.7131 16.7826ZM23.2156 17.4128C23.2156 17.4128 23.2159 17.4129 23.2166 17.4131L23.2156 17.4128ZM27.6299 15.9357C28.0699 16.187 28.2105 16.7261 28.2105 17.3421C28.2105 18.6807 27.3491 20.0793 26.3745 21.2347C25.3837 22.4092 24.1993 23.4212 23.4056 23.9984C23.2875 24.0843 23.1335 24.1029 22.9984 24.0476C22.8634 23.9923 22.7666 23.8711 22.7426 23.7271C22.4616 22.0413 22.1799 19.7045 22.2746 18.2413C22.2983 17.8747 22.347 17.5348 22.4383 17.2647C22.5212 17.02 22.6861 16.6952 23.0366 16.5972C23.3937 16.4973 23.7153 16.6945 23.9486 16.9046C24.1135 17.0531 24.2876 17.2552 24.473 17.5102C25.0169 16.9502 25.7133 16.3379 26.3395 16.0279C26.7081 15.8455 27.2036 15.6922 27.6299 15.9357ZM61.5668 18.9898C61.5552 18.9932 61.5025 19.0084 61.4521 19.1595C61.4106 19.284 61.3134 19.382 61.1893 19.4246C61.0652 19.4672 60.9283 19.4495 60.8191 19.3767C60.6494 19.2636 60.401 19.1646 60.1971 19.1733C60.1052 19.1773 60.0325 19.2022 59.9719 19.249C59.9106 19.2964 59.8315 19.3896 59.7679 19.5805C59.7383 19.6694 59.6799 19.7458 59.602 19.7977C59.4236 19.9167 59.1749 20.1322 59.0142 20.3748C58.851 20.621 58.8326 20.8025 58.903 20.9433C58.984 21.1054 58.9522 21.3012 58.8241 21.4293C58.7124 21.541 58.6066 21.702 58.5809 21.827C58.57 21.8796 58.5778 21.9032 58.5828 21.9136C58.5872 21.923 58.6101 21.9659 58.7147 22.0182C58.8573 22.0895 58.9474 22.2353 58.9474 22.3948C58.9474 22.5643 58.9835 22.8127 59.0744 23.002C59.1605 23.1815 59.2528 23.2369 59.3685 23.2369C59.5497 23.2369 59.7106 23.3528 59.7679 23.5248C59.8278 23.7045 59.9203 23.9045 60.0391 24.0773C60.1598 24.2528 60.2904 24.3755 60.4174 24.438C60.53 24.4934 60.6562 24.5111 60.822 24.4484C61.0037 24.3796 61.2553 24.2043 61.566 23.8159C61.7081 23.6384 61.9655 23.6057 62.1474 23.7421C62.4184 23.9454 62.8362 24.1991 63.1968 24.3109C63.3671 24.3636 63.4847 24.3719 63.5528 24.3601C63.5824 24.355 63.5949 24.3474 63.5993 24.3443C63.6025 24.3421 63.6116 24.3353 63.6234 24.3117C63.8801 23.7984 63.7291 23.2155 63.6234 23.0041C63.5285 22.8142 63.5898 22.5833 63.7665 22.4655C63.9355 22.3528 64.0899 22.1768 64.1278 22.0212C64.1434 21.9577 64.141 21.8949 64.1058 21.8214C64.0674 21.7412 63.9764 21.6219 63.7665 21.4819C63.6008 21.3715 63.5352 21.1601 63.6091 20.9752C63.6705 20.8218 63.7284 20.635 63.7621 20.4497C63.7966 20.2597 63.8006 20.099 63.7771 19.9848C63.7551 19.8779 63.72 19.8523 63.6996 19.8415C63.6653 19.8232 63.5469 19.7842 63.2601 19.8559C63.1166 19.8917 62.9648 19.8497 62.8602 19.7451C62.5959 19.4808 62.2027 19.1701 61.8682 19.0397C61.6996 18.974 61.6062 18.9778 61.5679 18.9895L61.5668 18.9898ZM46.4391 24.2023C46.5181 24.1233 46.6252 24.079 46.7369 24.079C46.9664 24.079 47.3179 24.1012 47.6246 24.1748C47.7748 24.2109 47.9465 24.2666 48.0904 24.3595C48.2338 24.4522 48.4211 24.633 48.4211 24.9211C48.4211 25.1454 48.2956 25.3092 48.1499 25.3993C48.0244 25.4768 47.8853 25.5024 47.7799 25.5116C47.5619 25.5306 47.3109 25.4929 47.0949 25.4312C46.8866 25.3717 46.64 25.2698 46.4693 25.1105C46.3827 25.0296 46.2734 24.8942 46.2519 24.7035C46.2281 24.4928 46.3217 24.3197 46.4391 24.2023ZM15.7633 26.6817C15.4565 26.4261 15.1256 26.1719 14.7919 25.9452C14.2669 25.5885 13.7002 25.2754 13.1929 25.1537C12.9376 25.0925 12.6613 25.0708 12.4011 25.1483C12.1242 25.2308 11.9024 25.4153 11.7635 25.6907C11.6323 25.9509 11.5841 26.2727 11.5932 26.6371C11.6025 27.0053 11.6712 27.4473 11.802 27.9706C12.8645 32.2203 16.6559 34.1507 18.4242 34.5927C18.55 34.6242 18.6832 34.5959 18.7854 34.5161C18.8876 34.4363 18.9474 34.3139 18.9474 34.1842V27.4474C18.9474 26.4469 18.3169 25.6034 17.4964 25.4542C17.071 25.3769 16.6313 25.4995 16.2785 25.8432C16.0642 26.0521 15.8909 26.3328 15.7633 26.6817ZM12.4351 26.6159C12.4423 26.9018 12.4972 27.2791 12.619 27.7663C13.4831 31.2227 16.372 33.0057 18.1053 33.6167V27.4474C18.1053 26.7637 17.6831 26.3441 17.3457 26.2827C17.1922 26.2548 17.0266 26.2901 16.8662 26.4463C16.6953 26.6129 16.5117 26.9384 16.4153 27.5166C16.3899 27.669 16.2832 27.7952 16.1372 27.8455C15.9912 27.8958 15.8293 27.8621 15.7155 27.7578C15.3059 27.3823 14.8113 26.9765 14.3186 26.6417C13.8173 26.3011 13.3525 26.058 12.9965 25.9726C12.8203 25.9304 12.7071 25.9359 12.6416 25.9554C12.5929 25.9699 12.5529 25.9957 12.5154 26.0699C12.4703 26.1593 12.4278 26.3263 12.4351 26.6159ZM46.5041 25.8076C46.7121 25.9116 46.7964 26.1646 46.6924 26.3725C46.5667 26.624 46.3158 27.2864 46.3158 27.8685C46.3158 28.101 46.1273 28.2895 45.8948 28.2895C45.6622 28.2895 45.4737 28.101 45.4737 27.8685C45.4737 27.1031 45.7842 26.3059 45.9392 25.9959C46.0432 25.788 46.2961 25.7036 46.5041 25.8076ZM52.4102 26.6682C52.5344 26.5915 52.6894 26.5845 52.8199 26.6497C53.1047 26.7921 53.5155 27.0181 53.775 27.2209C53.8412 27.2725 53.9111 27.3331 53.9691 27.3997C54.0128 27.45 54.1147 27.5748 54.1256 27.7505C54.1321 27.8562 54.1043 27.9687 54.0324 28.0657C53.9661 28.1551 53.8824 28.2041 53.8192 28.2311C53.7018 28.2812 53.5734 28.2895 53.4737 28.2895C52.9996 28.2895 52.6627 28.0825 52.4583 27.7987C52.2694 27.5363 52.2106 27.2341 52.2106 27.0264C52.2106 26.8804 52.2861 26.7449 52.4102 26.6682ZM53.3323 27.9509C53.3358 27.9558 53.338 27.9583 53.3382 27.9583C53.3384 27.9582 53.3371 27.9563 53.3336 27.9523C53.3332 27.9519 53.3328 27.9514 53.3323 27.9509ZM52.0681 28.1221C52.2425 28.2759 52.2591 28.542 52.1052 28.7164C52.0457 28.7838 51.7895 29.2078 51.7895 29.9737C51.7895 30.2063 51.601 30.3948 51.3685 30.3948C51.1359 30.3948 50.9474 30.2063 50.9474 29.9737C50.9474 29.0453 51.2526 28.4097 51.4738 28.1591C51.6277 27.9848 51.8938 27.9682 52.0681 28.1221ZM48.3648 29.7632C48.4579 29.6022 48.4355 29.3927 48.2978 29.2549C48.1333 29.0905 47.8667 29.0905 47.7023 29.2549C47.6538 29.3034 47.5995 29.3648 47.5508 29.4329C47.5059 29.4958 47.447 29.5903 47.4156 29.7023C47.3847 29.8128 47.3597 30.0331 47.5312 30.2158C47.6801 30.3745 47.8814 30.3948 48 30.3948C48.2326 30.3948 48.4211 30.2063 48.4211 29.9737C48.4211 29.897 48.4006 29.8252 48.3648 29.7632ZM48.3995 31.5248C48.473 31.7454 48.3538 31.9838 48.1332 32.0574C47.5741 32.2437 47.1149 32.2427 46.7748 32.0412C46.4287 31.8361 46.3158 31.4892 46.3158 31.2369C46.3158 31.0043 46.5043 30.8158 46.7369 30.8158C46.9694 30.8158 47.1579 31.0043 47.1579 31.2369C47.1579 31.2652 47.1713 31.2973 47.2042 31.3168C47.243 31.3398 47.4154 31.409 47.8669 31.2585C48.0875 31.185 48.3259 31.3042 48.3995 31.5248ZM41.3537 45.0254C41.6706 45.1962 41.9555 45.4561 42.0837 45.8406C42.2861 46.4478 42.2364 47.1296 42.1175 47.7015C41.9973 48.2802 41.7951 48.7988 41.6398 49.1094C41.5685 49.252 41.4227 49.3422 41.2632 49.3422C40.7633 49.3422 39.9917 49.3209 39.2978 49.2561C38.9518 49.2239 38.6144 49.1799 38.3358 49.1194C38.1968 49.0893 38.0627 49.053 37.9453 49.0081C37.8367 48.9665 37.7019 48.9026 37.597 48.7978C37.4688 48.6695 37.4171 48.5043 37.3923 48.3841C37.3654 48.2538 37.3569 48.1099 37.3579 47.9669C37.3599 47.6797 37.4008 47.3363 37.4583 46.9891C37.574 46.2911 37.7679 45.5168 37.911 45.016C37.9566 44.8563 38.0918 44.7383 38.2563 44.7148C38.7739 44.6409 39.575 44.5951 40.3047 44.7047C40.6692 44.7595 41.0401 44.8565 41.3537 45.0254ZM38.6463 45.5161C38.5218 45.9806 38.3793 46.5829 38.2891 47.1268C38.2344 47.4568 38.2015 47.7502 38.2 47.9727C38.1993 48.0813 38.2062 48.1589 38.2161 48.2092C38.2244 48.2129 38.2345 48.2171 38.2465 48.2216C38.3095 48.2458 38.3985 48.2713 38.5143 48.2965C38.7453 48.3466 39.0447 48.3868 39.376 48.4177C39.923 48.4687 40.5275 48.4917 40.9932 48.4981C41.0994 48.2434 41.216 47.901 41.293 47.5302C41.3988 47.0214 41.4192 46.5102 41.2848 46.1069C41.2445 45.9861 41.147 45.8706 40.9543 45.7668C40.7582 45.6612 40.4923 45.5845 40.1796 45.5375C39.6664 45.4604 39.0925 45.4725 38.6463 45.5161ZM52.1641 45.5553C52.2672 45.5438 52.3709 45.5708 52.4553 45.6311C53.9635 46.7084 54.601 47.6374 54.732 48.4887C54.8494 49.2519 54.534 49.8627 54.331 50.2558C54.3097 50.2972 54.2896 50.3361 54.2714 50.3726C54.1819 50.5516 54.034 50.7078 53.8756 50.837C53.7125 50.97 53.515 51.0934 53.2976 51.2003C52.8641 51.4134 52.3219 51.5751 51.759 51.6047C51.195 51.6344 50.5885 51.532 50.0555 51.1899C49.5164 50.844 49.0928 50.2784 48.8583 49.4578C48.6693 48.7962 48.6859 48.2096 48.8647 47.7012C49.0424 47.1957 49.3689 46.8001 49.7477 46.4974C50.4941 45.9011 51.4852 45.6307 52.1641 45.5553ZM49.6591 47.9805C49.5457 48.3028 49.5202 48.7092 49.668 49.2265C49.8546 49.8796 50.1678 50.2614 50.5103 50.4812C50.8589 50.7049 51.2787 50.7867 51.7147 50.7638C52.1518 50.7408 52.5833 50.6131 52.9261 50.4445C53.0969 50.3606 53.2382 50.2702 53.3432 50.1845C53.4529 50.095 53.5024 50.0275 53.5182 49.996C53.5378 49.9566 53.5575 49.9178 53.577 49.8793C53.7852 49.4683 53.9735 49.0967 53.8997 48.6167C53.8226 48.1159 53.431 47.3919 52.0993 46.4131C51.5318 46.4998 50.8028 46.7323 50.2734 47.1553C49.9891 47.3825 49.7735 47.6553 49.6591 47.9805ZM51.6331 47.267C51.7256 47.23 51.8282 47.227 51.9227 47.2585C52.3654 47.4061 52.6488 47.7168 52.769 48.0873C52.8843 48.4428 52.842 48.8266 52.7006 49.1447C52.5592 49.4628 52.2993 49.757 51.9325 49.8895C51.55 50.0276 51.1219 49.9645 50.7138 49.6925C50.4082 49.4887 50.1832 49.2254 50.1369 48.8921C50.091 48.5613 50.2383 48.2825 50.4016 48.0846C50.7193 47.6999 51.263 47.415 51.6331 47.267ZM51.787 48.1175C51.4991 48.2507 51.2033 48.4363 51.051 48.6207C50.9653 48.7247 50.9704 48.7721 50.971 48.7764C50.9713 48.7782 50.9814 48.8588 51.181 48.9918C51.4045 49.1409 51.5553 49.1304 51.6465 49.0975C51.7534 49.0589 51.8619 48.9584 51.9311 48.8027C52.0002 48.6472 52.0105 48.4784 51.9679 48.347C51.9403 48.2619 51.8874 48.18 51.787 48.1175ZM62.3009 48.2855C61.7605 48.1397 60.9535 48.2752 60.3437 48.4784C60.1231 48.552 59.8847 48.4328 59.8111 48.2121C59.7376 47.9915 59.8568 47.7531 60.0774 47.6796C60.7307 47.4618 61.7343 47.2604 62.5203 47.4725C62.9305 47.5832 63.3234 47.8195 63.5381 48.2625C63.7471 48.6936 63.746 49.2375 63.5628 49.8789C63.4989 50.1025 63.2659 50.2319 63.0423 50.1681C62.8187 50.1042 62.6892 49.8711 62.7531 49.6475C62.9067 49.1099 62.8635 48.8013 62.7804 48.6298C62.703 48.4701 62.5538 48.3538 62.3009 48.2855ZM59.8883 50.8448C59.489 50.37 59.3685 49.7566 59.3685 49.3422C59.3685 49.1096 59.557 48.9211 59.7895 48.9211C60.0221 48.9211 60.2106 49.1096 60.2106 49.3422C60.2106 49.6295 60.3005 50.0266 60.5328 50.3027C60.7369 50.5454 61.1004 50.7559 61.8122 50.6135C62.0402 50.5679 62.2621 50.7158 62.3077 50.9438C62.3533 51.1718 62.2054 51.3936 61.9774 51.4392C61.0049 51.6337 60.3158 51.3529 59.8883 50.8448Z"
        fill="currentColor"/>
</svg>
