<svg width="80" height="80" viewBox="0 0 80 80" fill="none" xmlns="http://www.w3.org/2000/svg">
  <path fill-rule="evenodd" clip-rule="evenodd"
        d="M61.2159 7.74271C60.1904 8.33187 58.931 9.17534 57.5315 10.1853C52.5132 13.8066 45.7999 19.4907 41.8778 22.9568L41.8771 22.9574C38.7628 25.698 33.2958 30.291 27.128 31.3656C27.9999 33.2456 27.7435 34.8056 26.9777 35.9942C26.3367 36.9891 25.3613 37.6905 24.4919 38.1142C25.6416 39.1007 26.4414 40.0239 26.95 40.8874C27.3154 37.0091 29.1745 34.028 30.6288 32.5737C32.3945 30.808 34.9364 29.228 37.6758 28.3282C40.3017 27.4658 43.1511 27.2153 45.6904 28.0723C46.3706 27.0724 47.5145 25.6397 48.9776 24.2269C50.6478 22.6141 52.7578 21.0042 55.0931 20.106C56.2358 19.6665 57.1398 19.5377 57.8401 19.687C58.5719 19.8431 59.0334 20.2928 59.2764 20.8725C59.5092 21.4279 59.5374 22.0869 59.474 22.7072C59.432 23.1172 59.3482 23.5281 59.2429 23.9097C59.7768 23.9578 60.3665 24.1582 60.7796 24.6584C61.3069 25.2969 61.434 26.2824 60.9975 27.6812C61.2863 27.6635 61.676 27.6764 62.0123 27.8633C62.4103 28.0844 62.6431 28.4942 62.6516 29.0765C62.6576 29.4938 62.551 30.0151 62.3105 30.6678C62.5655 30.6543 62.8288 30.6556 63.0883 30.6772C63.6035 30.7202 64.1449 30.8466 64.5718 31.1357C65.0209 31.4397 65.3213 31.9113 65.3351 32.5597C65.3482 33.1775 65.1008 33.9174 64.5705 34.8012C64.3481 35.1719 64.09 35.5395 63.8044 35.9018C62.1177 38.0415 59.4099 40.0719 57.183 41.5007C56.2551 42.0961 55.4025 42.5922 54.7297 42.9534C54.5324 45.3716 53.7837 47.706 52.6305 49.7242C52.2482 50.3931 51.751 51.0487 51.1606 51.6734C55.3562 50.1353 63.3763 46.1748 71.167 38.9613C73.8682 36.4601 75.3458 34.6181 76.0217 33.29C76.3741 32.5975 76.493 32.0747 76.4786 31.689C76.4648 31.318 76.3279 31.0536 76.1114 30.8521C75.8153 30.5767 75.3375 30.3913 74.7272 30.3031C74.1251 30.2161 73.442 30.2309 72.7895 30.3125C72.5994 30.3363 72.4168 30.2304 72.343 30.0537C72.2691 29.877 72.3221 29.6727 72.4726 29.5541C73.9609 28.3815 75.1553 27.3251 76.0994 26.3755C77.3891 25.0782 78.2009 23.9908 78.6597 23.0894C79.1181 22.1889 79.2111 21.5008 79.1095 20.9807C78.9108 19.9636 77.8874 19.3152 76.4825 19C75.9528 18.8812 75.394 18.8168 74.8543 18.7975C74.7007 18.792 74.5619 18.7043 74.491 18.568C74.4201 18.4316 74.4281 18.2676 74.5119 18.1387C75.6124 16.4455 76.0976 15.2835 76.2055 14.5189C76.2585 14.1431 76.216 13.8935 76.1397 13.7288C76.0667 13.5714 75.9467 13.4557 75.7672 13.3724C75.3773 13.1916 74.7415 13.1814 73.9534 13.3312C73.1856 13.4772 72.3521 13.7591 71.6248 14.0708C71.4759 14.1346 71.3036 14.1085 71.1802 14.0035C71.0568 13.8984 71.0036 13.7324 71.0429 13.5752C71.5781 11.4345 71.4061 10.2576 70.9951 9.65238C70.5805 9.04174 69.801 8.86093 68.7582 9.03077C67.7316 9.19797 66.5949 9.6894 65.6982 10.2085C65.5423 10.2988 65.3464 10.2814 65.2089 10.165C65.0714 10.0485 65.0218 9.85827 65.0851 9.68955C65.2813 9.16633 65.3981 8.42397 65.1985 7.8455C65.1032 7.56914 64.9372 7.33221 64.6667 7.15923C64.3917 6.98333 63.9764 6.85319 63.3515 6.85319C63.1917 6.85319 62.9281 6.91398 62.5471 7.06967C62.1758 7.22141 61.729 7.44797 61.2159 7.74271ZM49.1463 53.4273C47.5804 54.5617 45.7065 55.4879 43.7205 56.049C44.007 56.3949 44.4062 56.7208 44.9083 56.9135C45.9351 57.3075 47.5589 57.1976 49.7676 55.1303C49.4812 54.5536 49.2782 53.954 49.1463 53.4273ZM50.2061 55.8864C48.0983 57.802 46.3143 58.1961 44.9421 57.8213C43.9889 59.3622 42.6115 61.5653 41.3691 63.503C40.7086 64.5331 40.085 65.4902 39.5829 66.2336C39.332 66.6051 39.1099 66.9256 38.9278 67.1762C38.9217 67.1845 38.9156 67.1929 38.9096 67.2012C38.9186 67.2053 38.9276 67.2094 38.9366 67.2136C39.2007 67.3363 39.5003 67.5054 39.7989 67.6882C40.3976 68.0548 41.0264 68.4974 41.4237 68.7939C41.6126 68.9347 41.6515 69.202 41.5106 69.3909C41.3697 69.5797 41.1024 69.6186 40.9136 69.4777C40.5304 69.1919 39.9238 68.7651 39.3534 68.4159C39.0675 68.2409 38.7992 68.0905 38.5771 67.9873C38.4659 67.9357 38.3739 67.8994 38.3022 67.8775C38.2365 67.8574 38.2069 67.8554 38.2069 67.8554C38.2069 67.8554 38.2075 67.8553 38.2093 67.8552C38.2004 67.8557 38.1915 67.856 38.1825 67.856C38.0357 67.856 37.1749 67.9242 36.1178 68.0144C35.0773 68.1032 33.8836 68.2098 33.102 68.2808C32.8674 68.3022 32.6599 68.1293 32.6386 67.8946C32.6172 67.66 32.7901 67.4525 33.0248 67.4312C33.8074 67.36 35.0026 67.2533 36.0453 67.1643C36.2628 67.1458 36.4754 67.1278 36.6772 67.1111C35.5728 66.511 34.115 65.7051 33.2828 65.2428C33.0769 65.1283 33.0027 64.8686 33.1171 64.6627C33.2315 64.4567 33.4912 64.3825 33.6972 64.4969C34.6354 65.0182 36.3379 65.9589 37.4501 66.5595C37.3261 66.2879 37.1735 65.9836 37.0057 65.6668C36.5674 64.8392 36.0396 63.9525 35.6878 63.3896C35.5629 63.1898 35.6237 62.9266 35.8235 62.8017C36.0232 62.6769 36.2864 62.7376 36.4113 62.9374C36.7705 63.5121 37.3092 64.417 37.7596 65.2674C37.9845 65.692 38.191 66.1098 38.3424 66.4694C38.3477 66.4819 38.3529 66.4944 38.3581 66.5068C38.5078 66.2959 38.682 66.0432 38.8759 65.7561C39.3723 65.021 39.9918 64.0704 40.6509 63.0424C41.8578 61.1602 43.1933 59.0253 44.1412 57.4942C43.5624 57.1717 43.1229 56.7194 42.8265 56.275C39.9909 56.9069 36.9472 56.7812 34.2424 55.4137C33.1796 55.4113 30.636 55.0517 27.3895 53.7054C27.3629 53.7447 27.332 53.7826 27.2966 53.8186C27.1039 54.0151 26.8368 54.0941 26.5906 54.1247C26.0959 54.186 25.4142 54.083 24.6472 53.8872C23.0904 53.4898 20.9723 52.6529 18.7998 51.6C15.9921 50.2392 12.7799 48.3063 10.7523 46.6043C10.6485 46.8151 10.5191 47.0211 10.3605 47.2194C9.99576 47.6754 9.56468 47.9879 9.07518 47.9148C8.60681 47.8448 8.30881 47.4492 8.12451 47.0977C7.84195 46.5588 7.6606 45.8045 7.55547 45.1279C6.90644 45.5314 6.13339 45.9319 5.49406 46.0783C5.09809 46.169 4.56322 46.2057 4.21494 45.8321C3.86907 45.461 3.89704 44.8868 4.07149 44.2762C4.39612 43.14 5.18053 42.4272 6.06216 41.996C6.00236 41.8877 5.92685 41.7649 5.84121 41.6346C5.70144 41.4221 5.54303 41.2024 5.40007 41.0131C5.36588 41.026 5.33059 41.037 5.29428 41.0457C5.06881 41.0998 4.81015 41.0592 4.60662 40.8557C4.55979 40.8089 4.52451 40.7518 4.50357 40.6889C4.46739 40.5804 4.42217 40.4363 4.40579 40.2874C4.38902 40.1349 4.39767 39.9366 4.51123 39.7477C4.56527 39.6578 4.6345 39.5841 4.71405 39.5242C4.17983 37.9271 4.02639 36.1519 4.54829 34.5481C3.82792 34.4736 2.88096 34.2644 2.01677 33.8139C2.71814 58.1029 3.59154 69.9242 3.99389 73.3202C6.55032 72.8643 14.6849 72.1219 30.9304 72.1219C47.9943 72.1219 67.704 72.6684 75.9283 72.958C75.8347 71.8209 75.7771 69.798 75.7445 67.2374C75.7063 64.2329 75.7025 60.4585 75.7201 56.4362C75.7522 49.0695 75.8556 40.8659 75.9497 35.0264C75.0629 36.2723 73.7033 37.7756 71.7466 39.5873C67.3621 43.647 62.9011 46.6935 59.064 48.8689C58.8279 50.7958 58.1815 52.9145 57.2149 54.5792C56.2546 56.233 54.9001 57.5632 53.2176 57.6161C53.2174 57.6218 53.2171 57.6276 53.2169 57.6333C53.2021 57.9935 53.1231 58.5374 52.9543 59.3167C52.6294 60.8166 51.9576 63.2511 50.6984 67.0622C51.1648 67.1507 51.6647 67.3269 52.1157 67.5159C52.7733 67.7914 53.3887 68.121 53.7593 68.3434C53.9614 68.4646 54.0269 68.7266 53.9057 68.9287C53.7845 69.1307 53.5224 69.1962 53.3204 69.075C52.98 68.8708 52.401 68.5605 51.786 68.3028C51.1563 68.039 50.5481 67.856 50.1271 67.856C49.7353 67.856 49.145 68.0878 48.5115 68.4417C47.8991 68.7839 47.3213 69.1966 46.9809 69.4689C46.7969 69.6161 46.5284 69.5863 46.3813 69.4023C46.2341 69.2183 46.2639 68.9499 46.4479 68.8027C46.8185 68.5062 47.4351 68.0657 48.0954 67.6969C48.3318 67.5648 48.5848 67.4355 48.8417 67.325L46.1145 66.1129C45.8992 66.0172 45.8023 65.7651 45.898 65.5498C45.9936 65.3345 46.2457 65.2375 46.461 65.3332L48.8494 66.3947C48.3424 65.9392 47.7372 65.4957 47.3309 65.2248C47.1349 65.0941 47.0819 64.8293 47.2126 64.6332C47.3433 64.4372 47.6082 64.3842 47.8042 64.5149C48.2427 64.8072 48.9006 65.2893 49.4538 65.7909C49.6607 65.9785 49.8593 66.1745 50.0283 66.3692C51.1929 62.8152 51.8167 60.5385 52.1205 59.1361C52.2858 58.3727 52.3526 57.8851 52.3644 57.5982C52.3655 57.5723 52.3661 57.549 52.3663 57.528C51.4199 57.2943 50.7144 56.6361 50.2061 55.8864ZM52.7788 56.7405C52.7664 56.7381 52.7537 56.7361 52.7408 56.7346C51.8495 56.5876 51.1653 55.9031 50.6673 55.0087C50.2915 54.3338 50.0489 53.585 49.9191 52.9851C51.6275 52.4875 54.5664 51.3304 58.1265 49.3901C57.8506 51.0411 57.2761 52.7747 56.477 54.1508C55.5374 55.769 54.3685 56.7646 53.1133 56.7646C52.9974 56.7646 52.8859 56.7563 52.7788 56.7405ZM52.3572 57.3729C52.3566 57.3708 52.357 57.3719 52.357 57.3719L52.3572 57.3729ZM76.8268 33.5877C76.727 39.4598 76.6081 48.4438 76.5732 56.4399C76.5557 60.4602 76.5595 64.2291 76.5976 67.2266C76.6359 70.2362 76.7087 72.4387 76.825 73.3476C76.8409 73.4718 76.8014 73.5968 76.717 73.6893C76.6326 73.7818 76.5117 73.8325 76.3866 73.828C68.4843 73.5437 48.3284 72.9751 30.9304 72.9751C13.5202 72.9751 5.5188 73.8299 3.7244 74.244C3.60769 74.2709 3.48504 74.2475 3.38642 74.1796C3.28779 74.1116 3.22228 74.0053 3.20589 73.8867C2.82466 71.127 1.88609 59.1629 1.14683 33.2425C0.813447 32.967 0.513367 32.6364 0.276514 32.2417C-0.0321176 31.7273 -0.0929139 31.2173 0.147514 30.7678C0.322092 30.4415 0.625292 30.2088 0.955585 30.04C0.982445 27.6629 0.872192 21.0793 0.216732 11.5751C0.208885 11.4613 0.246932 11.3491 0.322378 11.2635C0.397824 11.178 0.504385 11.1262 0.618263 11.1198C13.1675 10.4111 41.9961 9.07955 57.1484 9.40968C58.5124 8.4289 59.7576 7.59653 60.7909 7.00291C61.322 6.69785 61.8049 6.4513 62.2243 6.27988C62.6342 6.11242 63.0225 6 63.3515 6C64.0917 6 64.6789 6.15425 65.1264 6.44049C65.5785 6.72965 65.8551 7.13262 66.0051 7.56725C66.1686 8.0413 66.1828 8.55342 66.123 9.02014C66.9026 8.64622 67.7806 8.32557 68.6211 8.18868C69.6964 8.01355 70.8426 8.12464 71.5595 8.98509C71.8885 8.98226 72.5628 8.97181 73.3418 8.93335C74.4222 8.88001 75.6641 8.77437 76.4724 8.5723C76.5962 8.54134 76.7274 8.56745 76.8299 8.64346C76.9325 8.71946 76.9956 8.83738 77.002 8.96485C77.0732 10.39 77.1588 12.5815 77.1838 14.5257C77.1962 15.4971 77.1937 16.4118 77.1662 17.14C77.1524 17.5036 77.1323 17.8263 77.1038 18.0889C77.0971 18.1508 77.0897 18.2121 77.0813 18.2718C78.4097 18.6476 79.6719 19.4097 79.9469 20.8171C80.0963 21.5819 79.9337 22.4672 79.42 23.4765C78.9268 24.4454 78.098 25.5532 76.858 26.8212C76.8787 27.0172 76.881 27.2471 76.8774 27.4738C76.8718 27.8266 76.8496 28.2379 76.828 28.6376L76.8279 28.6401C76.806 29.0453 76.7848 29.4385 76.7795 29.7694C76.7754 30.0286 76.7823 30.2153 76.7961 30.3308C77.1167 30.6736 77.3111 31.1165 77.3312 31.6572C77.3521 32.2166 77.1862 32.8578 76.8268 33.5877ZM75.9266 29.7449C75.9324 29.3997 75.9542 28.9968 75.9754 28.6035L75.9759 28.5941C75.9939 28.2607 76.0115 27.9343 76.0201 27.643C75.4338 28.1961 74.7727 28.779 74.0306 29.3931C74.3084 29.3994 74.5835 29.4203 74.8492 29.4587C75.222 29.5125 75.5909 29.603 75.9266 29.7449ZM76.2455 18.0836C76.2489 18.0565 76.2523 18.0276 76.2556 17.997C76.281 17.7623 76.3002 17.4617 76.3136 17.1078C76.3183 16.9826 76.3223 16.8514 76.3256 16.7149C76.1287 17.1095 75.8912 17.5357 75.6105 17.9958C75.8221 18.0181 76.0345 18.0472 76.2455 18.0836ZM76.292 12.6859C76.2602 11.5398 76.2161 10.4156 76.1739 9.50729C75.3283 9.66048 74.2751 9.74149 73.3839 9.7855C72.8611 9.81131 72.3847 9.82475 72.0241 9.83174C72.2875 10.6073 72.3055 11.6465 72.0476 12.9863C72.6148 12.7802 73.2159 12.603 73.794 12.4931C74.6189 12.3363 75.4816 12.2994 76.1262 12.5985C76.1832 12.6249 76.2385 12.654 76.292 12.6859ZM56.0102 10.2417C40.8111 10.0001 13.5552 11.2504 1.09739 11.9474C1.70087 20.8392 1.82541 27.1257 1.81136 29.7264C2.34272 29.5875 2.92417 29.5136 3.4412 29.4819C3.32633 29.0812 3.27213 28.6151 3.38855 28.1794C3.48441 27.8206 3.69614 27.4866 4.06634 27.2501C4.42765 27.0193 4.9056 26.9031 5.50261 26.9031C6.79994 26.9031 7.6217 27.6789 8.10135 28.5666C8.45534 29.2217 8.64147 29.9639 8.72095 30.5831C10.0288 30.1737 11.5701 30.0394 13.1957 30.0408C15.0541 30.0423 17.0656 30.2221 19.024 30.3979L19.0531 30.4005C20.985 30.5739 22.8622 30.7424 24.5315 30.7424C25.1658 30.7424 25.7964 30.697 26.4216 30.6119C32.5404 29.7795 38.0785 25.1636 41.313 22.3173M7.89685 30.8931C7.84503 30.3215 7.68322 29.5875 7.35074 28.9722C6.96599 28.2602 6.38712 27.7563 5.50261 27.7563C5.0087 27.7563 4.70692 27.8533 4.52562 27.9691C4.3532 28.0793 4.25943 28.2252 4.21282 28.3996C4.1099 28.7848 4.24197 29.3091 4.43664 29.6984C4.50276 29.8307 4.49569 29.9877 4.41797 30.1135C4.34024 30.2393 4.20293 30.3158 4.05508 30.3158C3.29297 30.3158 2.24889 30.4218 1.53909 30.7109C1.17884 30.8576 0.979301 31.0217 0.899827 31.1702C0.840748 31.2807 0.804834 31.4639 1.00811 31.8027C1.21809 32.1527 1.49845 32.4456 1.82374 32.6899C2.77639 33.4053 4.07283 33.672 4.88769 33.7202C4.98507 33.5261 5.09404 33.336 5.2151 33.1507C4.88723 32.9495 4.48488 32.717 4.08709 32.5138C3.80244 32.3683 3.52726 32.2416 3.28764 32.1523C3.03674 32.0587 2.86611 32.0222 2.77529 32.0222C2.53969 32.0222 2.34869 31.8312 2.34869 31.5956C2.34869 31.36 2.53969 31.169 2.77529 31.169C3.02574 31.169 3.31536 31.2521 3.58573 31.3529C3.86739 31.4579 4.17451 31.6003 4.47523 31.754C4.92652 31.9845 5.37947 32.2485 5.73617 32.4697C5.98894 32.1854 6.27586 31.9179 6.59875 31.6705C6.55433 31.388 6.42136 31.1437 6.26043 30.9039C6.22861 30.8565 6.18881 30.7998 6.1473 30.7407C6.08049 30.6455 6.00925 30.544 5.95969 30.4648C5.87526 30.3298 5.76144 30.1257 5.76144 29.8892C5.76144 29.6536 5.95243 29.4626 6.18803 29.4626C6.42105 29.4626 6.61043 29.6494 6.61456 29.8815C6.61456 29.8815 6.62438 29.9186 6.683 30.0123C6.72654 30.0819 6.76898 30.1418 6.81983 30.2135C6.86194 30.273 6.9098 30.3405 6.96882 30.4284C7.10253 30.6276 7.25081 30.8737 7.35071 31.1698C7.52626 31.0694 7.70854 30.9773 7.89685 30.8931ZM5.53228 39.2808C4.97173 37.6229 4.88245 35.8292 5.54462 34.3272C5.70437 33.9649 5.90826 33.6182 6.16101 33.2926C6.46212 32.9046 6.83449 32.5441 7.2882 32.2219C7.41473 32.1321 7.54768 32.0452 7.6873 31.9614C7.93622 31.812 8.20668 31.6806 8.49751 31.5658C9.7608 31.0669 11.3767 30.8925 13.195 30.894C14.9608 30.8954 16.8772 31.062 18.7919 31.2336C19.4243 31.8966 20.0988 32.993 20.2031 34.2421C20.3101 35.5243 19.8233 37.0464 17.8767 38.5064C17.7647 38.5904 17.701 38.7241 17.7064 38.864C17.7117 39.004 17.7855 39.1324 17.9036 39.2076C18.2738 39.4431 18.6648 39.7442 18.9757 40.0673C19.2951 40.3992 19.4881 40.7112 19.5376 40.966C19.5606 41.0845 19.5518 41.1852 19.5153 41.2766C19.4783 41.3694 19.4014 41.4807 19.245 41.6005C18.9202 41.8493 18.2998 42.0984 17.2146 42.2654C17.0556 42.2898 16.9239 42.4016 16.874 42.5545C16.824 42.7073 16.8643 42.8753 16.9781 42.9889C17.8356 43.8449 19.4203 46.5874 18.6803 50.5901C15.9004 49.1997 12.8546 47.3183 11.0422 45.7291C11.1504 45.1569 11.1179 44.5779 11.0109 44.0431C10.8085 43.0308 10.3313 42.1226 9.94792 41.5859C9.87651 41.4859 9.76548 41.4216 9.64324 41.4093C8.94099 41.3391 7.88063 41.3718 6.86212 41.6832C6.77787 41.519 6.66868 41.3401 6.55405 41.1658C6.39405 40.9225 6.21399 40.674 6.05508 40.4648C6.13347 40.3542 6.19809 40.2379 6.24124 40.1263C6.27943 40.0277 6.33081 39.8583 6.28823 39.6801C6.26364 39.5772 6.20461 39.4622 6.08987 39.3779C5.97883 39.2964 5.85724 39.2743 5.76146 39.2743C5.68173 39.2743 5.60533 39.2764 5.53228 39.2808ZM6.60025 42.6868C6.60503 42.6869 6.60982 42.687 6.61464 42.687C6.73166 42.687 6.83766 42.6399 6.91473 42.5636C7.76868 42.2639 8.70257 42.2023 9.36305 42.2427C9.66923 42.7145 10.0189 43.4332 10.1743 44.2104C10.348 45.0789 10.271 45.9655 9.69428 46.6865C9.37647 47.0837 9.21742 47.0734 9.20123 47.0709C9.16392 47.0654 9.04065 47.0077 8.88012 46.7015C8.57618 46.1218 8.38937 45.126 8.31926 44.3548C8.30548 44.2032 8.21206 44.0705 8.07407 44.0065C7.93608 43.9424 7.77442 43.9567 7.64978 44.0439C6.94489 44.5373 5.97846 45.0922 5.30363 45.2467C4.93884 45.3302 4.84448 45.2562 4.83905 45.2503C4.83121 45.2419 4.72502 45.0945 4.89185 44.5106C5.15005 43.6069 5.79966 43.0353 6.60025 42.6868ZM19.4742 50.9775C21.5119 51.9482 23.4492 52.7009 24.8582 53.0605C25.5698 53.2422 26.1012 53.3112 26.4327 53.2834C26.2579 53.1706 26.1875 52.9438 26.2762 52.7487C26.3411 52.6059 26.4749 52.5161 26.6204 52.5009C26.4159 50.9837 25.4498 48.6123 22.7026 47.7881C22.5202 47.7334 22.3962 47.5645 22.3986 47.3742C22.401 47.1838 22.5293 47.0181 22.7129 46.968C23.4614 46.7638 24.29 46.4279 25.0058 45.9632C25.7245 45.4967 26.3003 44.9199 26.5931 44.2449C26.8787 43.5865 26.9151 42.79 26.4759 41.8206C26.0299 40.8362 25.0905 39.6705 23.4119 38.3276C23.2909 38.2308 23.2319 38.076 23.2578 37.9232C23.2837 37.7704 23.3904 37.6437 23.5365 37.5922C24.413 37.2831 25.5807 36.5872 26.2605 35.5321C26.8866 34.5604 27.1326 33.2355 26.2419 31.4946C25.677 31.5605 25.1064 31.5956 24.5315 31.5956C23.1149 31.5956 21.5597 31.4777 19.9781 31.3394C20.5048 32.0855 20.9612 33.0673 21.0533 34.1711C21.1779 35.6638 20.6304 37.3098 18.8467 38.8238C19.1066 39.0195 19.3635 39.2398 19.5905 39.4757C19.951 39.8504 20.2789 40.308 20.3751 40.8033C20.4249 41.0598 20.4129 41.3293 20.3077 41.5928C20.2031 41.8549 20.0175 42.0835 19.7638 42.2778C19.3826 42.5698 18.8263 42.8012 18.0739 42.9717C19.092 44.3768 20.2432 47.2026 19.4742 50.9775ZM27.5088 52.8302C27.4189 51.3454 26.6285 48.7183 24.055 47.4115C24.5369 47.2144 25.0207 46.9707 25.4704 46.6789C26.1335 46.2484 26.7423 45.6999 27.1493 45.0234C27.4825 46.7797 28.1533 48.6454 29.2822 50.5806C30.2245 52.196 31.3472 53.4477 32.5883 54.3829C31.3309 54.1626 29.569 53.7041 27.5088 52.8302ZM54.7845 41.9499C55.2047 41.7142 55.6778 41.4361 56.1837 41.1224C55.6082 40.7306 55.1734 40.4811 54.8594 40.3281C54.8251 40.3113 54.7923 40.2959 54.7612 40.2815C54.7953 40.8369 54.8014 41.3936 54.7845 41.9499ZM54.6747 39.3331C54.8261 39.379 55.0114 39.4531 55.2331 39.5611C55.6499 39.7642 56.2176 40.0982 56.9648 40.6258C58.9636 39.3237 61.2467 37.5916 62.7944 35.7866C62.5955 35.72 62.3572 35.665 62.0821 35.6233C61.5716 35.5459 60.9763 35.5204 60.3575 35.5304C59.1199 35.5506 57.8315 35.7123 57.0271 35.855C56.8725 35.8824 56.7153 35.8227 56.6179 35.6995C56.5206 35.5763 56.4987 35.4095 56.5611 35.2654C57.0697 34.0907 57.1103 33.4102 56.9837 33.0462C56.8795 32.7469 56.6191 32.5632 56.0983 32.5221C55.569 32.4804 54.876 32.6037 54.1326 32.8313C53.5686 33.004 52.9969 33.23 52.4788 33.4667C53.7739 35.3349 54.4285 37.3167 54.6747 39.3331ZM53.9215 32.0038C54.6902 31.7714 55.4888 31.6182 56.1654 31.6716C56.862 31.7265 57.529 32.0173 57.7895 32.7658C57.9791 33.3109 57.9175 34.0189 57.6185 34.8986C58.4037 34.7892 59.3852 34.693 60.3436 34.6774C60.9897 34.6668 61.6362 34.6928 62.21 34.7797C62.6192 34.8417 63.0145 34.938 63.352 35.0886C63.5314 34.8455 63.6944 34.6031 63.8389 34.3623C64.3324 33.5397 64.4903 32.9643 64.4821 32.5778C64.4745 32.222 64.327 32.0003 64.0935 31.8422C63.8379 31.6691 63.4621 31.5645 63.0175 31.5275C62.5796 31.491 62.1144 31.5233 61.7153 31.5898C61.5604 31.6156 61.4039 31.5543 61.3078 31.4302C61.2117 31.306 61.1916 31.1392 61.2553 30.9957C61.6731 30.0556 61.8038 29.4566 61.7985 29.0889C61.7936 28.7513 61.6799 28.6546 61.5979 28.6091C61.4714 28.5388 61.2707 28.5164 61.0164 28.535C60.8967 28.5437 60.7819 28.56 60.675 28.5757C60.666 28.577 60.6566 28.5784 60.6468 28.5799C60.5618 28.5926 60.4492 28.6094 60.3654 28.6094C60.2238 28.6094 60.0915 28.5392 60.0121 28.422C59.9327 28.3048 59.9167 28.1558 59.9693 28.0244C60.6327 26.3659 60.4251 25.5691 60.1217 25.2017C59.8017 24.8141 59.2164 24.7037 58.7119 24.7668C58.5649 24.7852 58.4189 24.726 58.3262 24.6104C58.2335 24.4949 58.2074 24.3395 58.2572 24.2C58.4259 23.7279 58.5694 23.1663 58.6252 22.6204C58.6817 22.0676 58.6442 21.5712 58.4895 21.2023C58.345 20.8577 58.0973 20.6142 57.6622 20.5214C57.1955 20.4219 56.4749 20.4887 55.3994 20.9023C53.3547 21.6888 51.4617 23.073 49.896 24.5316C49.9032 24.5412 49.9102 24.5509 49.9172 24.5607C50.0536 24.7522 50.1797 25.0047 50.284 25.3238C50.4531 25.8413 50.5704 26.5513 50.5718 27.5027C50.926 27.3467 51.3057 27.1969 51.6889 27.0714C52.3087 26.8684 52.9652 26.7197 53.5491 26.7267C54.1292 26.7336 54.7272 26.8987 55.0841 27.425C55.4303 27.9358 55.4599 28.6606 55.2335 29.5661C55.0175 30.4299 54.4873 31.2987 53.9215 32.0038ZM49.2726 25.1327C48.0694 26.333 47.1153 27.5202 46.5066 28.3916C46.9529 28.5915 47.3866 28.8292 47.8042 29.1077C49.3548 30.1414 50.8921 31.4505 51.9456 32.7526C52.0387 32.6884 52.1477 32.6049 52.2701 32.5004C52.5315 32.2772 52.826 31.9827 53.1138 31.6425C53.6961 30.9543 54.215 30.1224 54.4058 29.3592C54.6115 28.5364 54.5194 28.1125 54.3779 27.9038C54.2469 27.7106 53.9911 27.5852 53.5389 27.5798C53.0904 27.5745 52.5363 27.6917 51.9545 27.8822C51.3783 28.0709 50.8019 28.3224 50.3179 28.5644C50.1821 28.6323 50.0204 28.6229 49.8934 28.5397C49.7664 28.4565 49.6932 28.3121 49.7011 28.1605C49.7664 26.9176 49.6397 26.0987 49.473 25.5888C49.4074 25.3881 49.337 25.2394 49.2726 25.1327ZM37.9421 29.1388C35.3236 29.9989 32.8988 31.5103 31.2321 33.177C28.9143 35.4948 25.3633 42.1693 30.0191 50.1507C31.2662 52.2885 32.8292 53.7214 34.5394 54.6072C37.1382 55.9534 40.1219 56.0578 42.9304 55.3747C46.8854 54.4128 50.3968 51.9135 51.8897 49.3009C53.0185 47.3255 53.7385 45.0288 53.896 42.6587C53.9611 41.6784 53.9586 40.7043 53.862 39.7435C53.646 37.5949 52.9591 35.5064 51.4927 33.5585C50.5172 32.2628 48.9477 30.8954 47.3309 29.8176C46.8161 29.4743 46.2735 29.199 45.71 28.9854C43.3314 28.0839 40.5626 28.2781 37.9421 29.1388ZM37.3111 36.591C37.256 36.4087 37.0834 36.2806 36.8857 36.2885C36.6569 36.2976 36.4762 36.4857 36.4762 36.7147C36.4762 36.7362 36.4774 36.757 36.4798 36.7773L37.3307 47.4136C37.3428 47.5651 37.4347 47.6987 37.5718 47.7644C37.7089 47.83 37.8706 47.8176 37.9962 47.732L47.3813 41.3331C47.5153 41.2418 47.5859 41.0824 47.5635 40.9218C47.5411 40.7612 47.4297 40.6272 47.2759 40.5759C45.5736 40.0085 43.0217 39.1153 40.8982 38.28C39.8349 37.8618 38.8885 37.4618 38.2118 37.1269C37.8713 36.9584 37.6136 36.8134 37.4462 36.6971C37.3788 36.6502 37.3359 36.6147 37.3111 36.591ZM37.2915 36.5707C37.2872 36.5658 37.286 36.5635 37.286 36.5635C37.286 36.5635 37.2884 36.5661 37.2915 36.5707ZM37.4071 37.6702C37.538 37.7422 37.681 37.8162 37.8333 37.8916C38.543 38.2428 39.5163 38.6533 40.5859 39.074C42.4105 39.7917 44.5432 40.5498 46.1923 41.1111L38.1226 46.6132L37.4071 37.6702ZM8.52128 36.6597C8.75966 36.5933 9.03519 36.6453 9.3091 36.7366C9.48638 36.7957 9.63853 36.8609 9.76183 36.9356C9.88016 37.0073 10.0061 37.1081 10.0838 37.2538C10.1732 37.4214 10.1761 37.6067 10.1051 37.7693C10.0436 37.9103 9.93923 38.0073 9.85675 38.0691C9.69033 38.194 9.47377 38.2782 9.29365 38.3307C9.11113 38.3839 8.9087 38.4211 8.74761 38.4211C8.60498 38.4211 8.47178 38.3498 8.39266 38.2311C8.3104 38.1077 8.22329 37.9558 8.15715 37.7988C8.09579 37.653 8.03056 37.4526 8.04478 37.2501C8.05239 37.1416 8.08434 37.012 8.17209 36.8941C8.26299 36.772 8.38829 36.6967 8.52128 36.6597Z"
        fill="currentColor"/>
</svg>
