<svg width="80" height="80" viewBox="0 0 80 80" fill="none" xmlns="http://www.w3.org/2000/svg">
  <path fill-rule="evenodd" clip-rule="evenodd"
        d="M58.0104 10.0115C57.2248 10.3552 56.0067 11.1624 54.3312 12.419C52.8782 13.5087 51.7154 14.225 50.5802 14.683C50.6431 14.9315 50.6766 15.2242 50.6436 15.5303C50.5992 15.9409 50.4342 16.3716 50.0736 16.7361C50.2789 17.0177 50.4653 17.3752 50.5119 17.7573C50.5482 18.0555 50.4994 18.3776 50.2987 18.6716C50.1829 18.8412 50.0263 18.9872 49.8315 19.1103C49.9524 19.3139 50.0668 19.5396 50.1366 19.7518C50.1796 19.8824 50.2239 20.0598 50.2071 20.242C51.3777 20.5757 52.4211 20.5899 53.3781 20.4021C54.0537 20.2695 54.6945 20.0345 55.3137 19.7307C55.9584 19.4144 56.577 19.0248 57.1859 18.6007C57.6098 18.3055 58.0258 17.9958 58.4423 17.6837C58.4887 17.6489 58.5352 17.614 58.5818 17.5791C58.9503 17.3027 59.3202 17.0253 59.6902 16.761C60.2584 16.3551 60.6136 16.0236 60.8232 15.762C61.0358 15.4967 61.0718 15.3377 61.0724 15.2686C61.0728 15.2197 61.0572 15.1807 60.9988 15.1334C60.93 15.0777 60.8185 15.029 60.6873 15.0028C60.5304 14.9714 60.4052 14.8533 60.3648 14.6986C60.3244 14.5438 60.3758 14.3795 60.4972 14.2754C61.068 13.7862 61.4059 13.4084 61.5895 13.1263C61.7776 12.8373 61.768 12.7053 61.7617 12.6769C61.7594 12.6666 61.7501 12.626 61.6393 12.5785C61.5257 12.5298 61.3622 12.5026 61.1873 12.5026C61.0182 12.5026 60.8658 12.4007 60.8011 12.2445C60.7364 12.0883 60.7722 11.9085 60.8917 11.7889C61.1231 11.5575 61.2027 11.411 61.2246 11.3407L61.2255 11.3379C61.222 11.3357 61.2179 11.3334 61.2133 11.3309C61.1872 11.3169 61.1499 11.3019 61.1009 11.2885C61.0012 11.2614 60.8811 11.2484 60.7693 11.2484C60.5384 11.2484 60.3512 11.0612 60.3512 10.8303C60.3512 10.5502 60.2925 10.4058 60.2431 10.3348C60.199 10.2714 60.1403 10.2338 60.0524 10.2144C59.8417 10.1681 59.5291 10.2456 59.284 10.3682C59.1544 10.433 59.0005 10.4261 58.8773 10.3499C58.754 10.2737 58.679 10.1392 58.679 9.99427C58.679 9.90638 58.6674 9.85967 58.6601 9.83924C58.6351 9.83495 58.578 9.83184 58.4748 9.85281C58.3568 9.87677 58.2034 9.92704 58.0104 10.0115ZM49.3158 19.9396C49.2217 19.6997 49.0412 19.4059 48.8839 19.1903C48.8066 19.0845 48.7835 18.9486 48.8213 18.8232C48.8591 18.6977 48.9534 18.5973 49.0763 18.5518C49.3882 18.4362 49.5372 18.3041 49.6082 18.2002C49.6753 18.1018 49.6981 17.9916 49.6819 17.8584C49.6457 17.561 49.4189 17.2134 49.1849 16.9776C49.0969 16.8889 49.0532 16.7655 49.0658 16.6411C49.0783 16.5168 49.1458 16.4046 49.2498 16.3353C49.637 16.0772 49.7788 15.7507 49.8123 15.4405C49.8305 15.2724 49.8164 15.1076 49.7868 14.9629C49.4804 15.0556 49.1731 15.1311 48.8596 15.1921C48.9011 15.3373 48.9241 15.4971 48.9169 15.6669C48.9 16.0662 48.7185 16.4655 48.3243 16.8144C48.3525 16.8871 48.379 16.9624 48.4024 17.0384C48.4607 17.2279 48.5092 17.4521 48.4988 17.6651C48.4887 17.8716 48.4144 18.1566 48.1384 18.3172C48.1706 18.3883 48.2002 18.4628 48.2264 18.5402C48.3261 18.835 48.3789 19.1852 48.314 19.5568C48.592 19.6676 48.922 19.7942 49.3158 19.9396ZM47.5064 19.215C47.5053 19.0745 47.4782 18.9377 47.4343 18.808C47.3447 18.5428 47.1919 18.3314 47.0924 18.2296C46.9575 18.0915 46.9347 17.8791 47.0371 17.7155C47.1395 17.552 47.3405 17.4797 47.5236 17.5408C47.584 17.5609 47.6298 17.5719 47.6633 17.5779C47.6594 17.5057 47.6406 17.4058 47.6032 17.2843C47.5589 17.1402 47.4968 16.9927 47.4355 16.8701C47.3413 16.6815 47.4021 16.4523 47.5776 16.3353C47.989 16.061 48.0743 15.8031 48.0816 15.6314C48.0863 15.5196 48.0592 15.412 48.019 15.3212C47.3153 15.4027 46.5644 15.429 45.7192 15.429C45.5803 15.429 45.454 15.4347 45.3392 15.4452C45.0233 15.4741 44.8034 15.5386 44.6532 15.6143C44.4529 15.7153 44.3667 15.8397 44.3274 15.9688C44.268 16.1641 44.297 16.4416 44.425 16.7764C44.5118 17.0035 44.6342 17.2306 44.7667 17.4341C44.8296 17.4192 44.8947 17.4091 44.9613 17.4056C45.1748 17.3945 45.4087 17.4538 45.5967 17.6418C45.8144 17.8595 45.9427 18.1463 46.0189 18.404C46.1822 18.4688 46.3068 18.5267 46.4123 18.5839C46.5395 18.653 46.634 18.7189 46.717 18.7769C46.7296 18.7857 46.7419 18.7943 46.754 18.8027C46.8857 18.8939 47.063 19.012 47.5064 19.215ZM46.0982 19.3681C46.0317 19.5108 45.887 19.6096 45.7192 19.6096C45.4883 19.6096 45.3011 19.4224 45.3011 19.1916C45.3011 19.107 45.2903 18.9624 45.2572 18.8021C45.2071 18.5596 45.1211 18.3539 45.0127 18.2404C45.0106 18.2404 45.008 18.2404 45.0048 18.2406C44.967 18.2426 44.8982 18.2599 44.8004 18.3098C44.6291 18.3972 44.4529 18.5407 44.3425 18.6511C44.1793 18.8143 43.9146 18.8143 43.7513 18.6511C43.5881 18.4878 43.5881 18.2231 43.7513 18.0598C43.823 17.9882 43.9157 17.9047 44.0223 17.8219C43.8787 17.5934 43.7448 17.3386 43.644 17.075C43.5372 16.7958 43.4574 16.4794 43.4618 16.1619C43.396 16.1431 43.3299 16.1229 43.265 16.1012C43.078 16.0389 42.8719 15.9559 42.713 15.8489C42.6352 15.7965 42.5377 15.7181 42.4683 15.6062C42.3898 15.4798 42.3456 15.3033 42.4157 15.1164C42.4765 14.954 42.6 14.8501 42.7006 14.7854C42.8068 14.7172 42.9358 14.6619 43.0786 14.6143C43.1981 14.5745 43.3109 14.5425 43.4173 14.5178C43.444 14.3913 43.4794 14.2635 43.5251 14.144C43.6009 13.9458 43.7439 13.6658 44.0209 13.5359C44.3635 13.3752 44.6942 13.5246 44.9363 13.748C45.1346 13.9309 45.3354 14.2115 45.5458 14.5956C45.6023 14.5938 45.6601 14.5929 45.7192 14.5929C46.6552 14.5929 47.4446 14.5597 48.1702 14.4592C48.7789 14.3749 49.3438 14.243 49.911 14.0425C51.0579 13.6372 52.2387 12.9432 53.8295 11.7501C55.4985 10.4984 56.7887 9.63335 57.6753 9.24546C57.9004 9.14699 58.1128 9.07315 58.3084 9.03342C58.5007 8.99435 58.7044 8.98252 58.8967 9.03659C59.1036 9.09477 59.2739 9.22349 59.3824 9.41509C59.3866 9.42241 59.3906 9.42978 59.3945 9.43718C59.6537 9.36824 59.9492 9.3356 60.232 9.39781C60.4924 9.4551 60.7473 9.59516 60.9296 9.85749C61.0449 10.0232 61.1193 10.2206 61.1572 10.4454C61.2119 10.4551 61.2667 10.4671 61.3209 10.4819C61.4999 10.5307 61.7229 10.6235 61.8818 10.8101C62.0647 11.0247 62.1123 11.303 62.0228 11.5898C62.0013 11.6585 61.9723 11.7274 61.9361 11.7965C61.947 11.8009 61.9579 11.8054 61.9687 11.81C62.2237 11.9193 62.4965 12.1295 62.5779 12.4955C62.6552 12.8433 62.5306 13.213 62.2902 13.5824C62.1169 13.8487 61.864 14.1455 61.5185 14.4784C61.5206 14.4801 61.5227 14.4818 61.5248 14.4835C61.7408 14.6583 61.9115 14.9241 61.9085 15.2758C61.9056 15.6073 61.7482 15.9448 61.4757 16.2848C61.2002 16.6285 60.7785 17.0112 60.1762 17.4414C59.8146 17.6997 59.4528 17.971 59.0833 18.2482C59.0369 18.2829 58.9903 18.3178 58.9437 18.3528C58.5684 18.6341 58.1852 18.9196 57.7933 19.196C57.6291 19.8436 57.4369 20.3382 57.2228 20.7064C57.0397 21.0213 56.8311 21.2595 56.5962 21.4145L56.0437 23.5048C59.0949 23.4433 61.9831 23.3971 63.8147 23.3722C64.0357 23.3692 64.2209 23.5387 64.2373 23.7591C64.3215 24.8876 64.2392 26.7742 64.162 27.9971C64.16 28.0281 64.1581 28.0587 64.1561 28.0888C65.0046 27.8268 66.1012 27.5215 67.4921 27.1665C68.5375 26.4381 69.5897 25.9091 70.4028 25.5842C70.3842 25.5233 70.3796 25.4582 70.3903 25.3939C70.4097 25.2768 70.4781 25.1735 70.5782 25.1097C71.0205 24.8283 71.6141 24.468 72.2684 24.0963C73.0894 23.63 74.0132 23.1416 74.8573 22.7685C75.2793 22.582 75.6874 22.4216 76.0567 22.3072C76.4199 22.1946 76.7721 22.118 77.0736 22.118C77.2319 22.118 77.3767 22.2074 77.4475 22.3491C78.1496 23.7533 79.6532 27.261 79.9967 30.0092C80.0215 30.207 79.9032 30.3947 79.7141 30.4577C78.8335 30.7512 77.2108 31.3338 75.9904 31.881C75.4803 32.1097 75.0612 32.3232 74.7971 32.4992C74.6951 32.5672 74.5684 32.587 74.4505 32.5534C74.3326 32.5197 74.2354 32.436 74.1846 32.3244C74.1637 32.2783 74.1418 32.2304 74.1189 32.1807C73.916 32.2185 73.6358 32.2928 73.2864 32.4055C72.7734 32.571 72.1609 32.8019 71.5226 33.0613C70.2463 33.5798 68.8895 34.2024 68.0632 34.6156C67.674 34.8102 67.3134 34.9187 67.0023 34.9295C66.876 34.9339 66.7433 34.9217 66.6175 34.8846C66.5414 34.982 66.4616 35.0831 66.3784 35.1873C66.5011 35.2991 66.6162 35.3869 66.7197 35.4443C66.9216 35.5563 66.9945 35.8108 66.8826 36.0127C66.7706 36.2146 66.5161 36.2875 66.3142 36.1755C66.16 36.09 66.0037 35.9728 65.8495 35.8358C65.3276 36.4625 64.7287 37.1443 64.1212 37.7727C64.1643 38.9149 64.2033 40.1105 64.2383 41.3367C64.2657 42.2978 64.2908 43.2776 64.3137 44.2654C64.3458 45.6543 64.3736 47.0589 64.3976 48.4485C64.398 48.4725 64.3984 48.4965 64.3988 48.5205C64.6071 48.051 64.8306 47.6199 65.0505 47.3306C65.1707 47.1725 65.3473 46.9769 65.581 46.905C65.718 46.8628 65.8758 46.8633 66.0269 46.9371C66.1675 47.0058 66.2613 47.118 66.3237 47.2227C66.4433 47.4231 66.5114 47.704 66.5544 48.03C66.5799 48.2234 66.5984 48.4489 66.6095 48.7088C67.0799 48.5182 67.5503 48.3898 67.9562 48.4021C68.2583 48.4112 68.5727 48.5001 68.8071 48.7495C69.0393 48.9966 69.1305 49.3349 69.1305 49.7098C69.1305 50.3392 68.8754 50.8141 68.4424 51.1248C68.3987 51.1562 68.3535 51.1856 68.3072 51.2132C68.3608 51.3312 68.4001 51.4458 68.4229 51.5569C68.4743 51.8086 68.4441 52.0732 68.2671 52.2876C68.1035 52.4858 67.8693 52.5723 67.6638 52.6112C67.4527 52.6511 67.2155 52.6516 66.9765 52.6316C66.2284 52.5691 65.2524 52.2849 64.4512 51.9942C64.4945 55.2841 64.5172 58.3259 64.5265 60.6687C64.643 60.6548 64.7732 60.6416 64.9135 60.6292C65.3453 60.5909 65.8875 60.5584 66.4447 60.5368C67.2373 60.506 68.0965 60.4957 68.7154 60.5284C68.7385 60.3394 68.8888 60.1856 69.0843 60.1639C72.1543 59.8227 74.9126 60.3035 75.9342 60.5954C76.0669 60.6334 76.1724 60.7343 76.216 60.8652C76.3655 61.3138 76.4389 61.8075 76.4605 62.3134C76.4896 62.994 76.4255 63.7146 76.3131 64.4087C76.1959 65.1321 76.0248 65.836 75.8453 66.4496C75.6849 66.9983 75.5165 67.479 75.3714 67.8416C75.328 67.9502 75.2411 68.0356 75.1318 68.0771C75.0226 68.1187 74.9009 68.1125 74.7963 68.0603C74.7566 68.0404 74.6622 68.007 74.4961 67.966C74.3377 67.927 74.1381 67.8868 73.9043 67.8461C73.4372 67.7647 72.8525 67.6848 72.2269 67.6102C70.9767 67.4613 69.5822 67.3364 68.6803 67.2671C68.566 67.2583 68.4603 67.2029 68.3879 67.1139C68.3156 67.0249 68.283 66.91 68.2978 66.7963L68.298 66.795L68.3482 66.4093C68.3039 66.4056 68.2615 66.4019 68.2214 66.3983C68.1421 66.3913 68.072 66.385 68.0144 66.3819C67.8136 66.3709 67.6132 66.3787 67.3201 66.4591C66.6999 66.6293 65.675 67.1199 63.4967 68.4604C62.4057 69.1318 61.6418 69.5485 61.1273 69.7731C60.8739 69.8837 60.6555 69.9592 60.476 69.9872C60.3869 70.0011 60.2791 70.008 60.17 69.9835C60.0524 69.957 59.9149 69.8881 59.8266 69.7428C59.7442 69.607 59.7435 69.4672 59.756 69.3751C59.7612 69.3373 59.7694 69.3008 59.7795 69.2661C59.1522 69.5256 58.6857 69.6396 58.3417 69.6458C58.0384 69.6513 57.7369 69.5729 57.5503 69.3268C57.5433 69.3177 57.5367 69.3085 57.5303 69.2992C57.4423 69.3266 57.361 69.3471 57.2867 69.3599C57.1907 69.3765 57.0743 69.3863 56.9577 69.3613C56.8305 69.3341 56.6772 69.2573 56.5896 69.0886C56.5109 68.9372 56.5255 68.7865 56.5457 68.6942C56.567 68.597 56.6074 68.5054 56.6489 68.4269C56.7185 68.2951 56.8182 68.1508 56.9337 68.0021C56.9045 68.0163 56.8763 68.0297 56.849 68.0423C56.6983 68.112 56.5583 68.1662 56.4343 68.1952C56.3721 68.2098 56.3004 68.2214 56.2255 68.2201C56.1525 68.2189 56.0491 68.2052 55.9476 68.1441C55.6877 67.9875 55.6961 67.7121 55.7198 67.5906C55.7442 67.465 55.8046 67.3441 55.8614 67.2464C56.0903 66.8523 56.6176 66.2482 57.2195 65.614C57.5544 65.2611 57.9232 64.8878 58.2973 64.519C57.9595 64.5503 57.667 64.5608 57.4147 64.5531C56.8977 64.5373 56.4869 64.4442 56.2111 64.2355C56.0646 64.1247 55.957 63.9814 55.9019 63.8113C55.8489 63.6477 55.8532 63.4862 55.8838 63.3446C53.3667 63.3767 50.7644 63.4366 48.8356 63.4912C48.8714 63.6792 48.9037 63.866 48.9328 64.051C49.2746 66.2222 49.1791 68.162 49.0594 68.9996C49.0348 69.1719 48.9061 69.3109 48.7363 69.3486C45.6273 70.0395 42.5609 69.3523 41.3918 68.9139C41.2487 68.8603 41.1463 68.7328 41.1247 68.5816C40.9994 67.704 40.8964 65.7036 41.3179 63.832C41.3424 63.7229 41.3688 63.6141 41.3971 63.5058C38.0777 63.5081 32.9913 63.5885 28.2044 63.6826C28.4452 64.2096 28.6801 64.8199 28.7872 65.343C28.8257 65.531 28.8504 65.7198 28.8495 65.8972C28.8485 66.071 28.8231 66.2615 28.738 66.4333C28.6465 66.6182 28.4915 66.7679 28.2732 66.839C28.0699 66.9052 27.8516 66.8903 27.6413 66.8377C27.5634 66.8183 27.4886 66.7945 27.4167 66.7666C27.0821 67.1108 26.7866 67.3425 26.5207 67.4588C26.3538 67.5317 26.1664 67.5734 25.9751 67.5361C25.7738 67.4968 25.6233 67.3809 25.5222 67.2416C25.3427 66.9944 25.3028 66.655 25.298 66.388C25.2971 66.3393 25.2974 66.2901 25.2987 66.2405C25.2333 66.2621 25.1716 66.2806 25.1136 66.2961C24.9125 66.3498 24.6705 66.3923 24.4614 66.3194C24.3356 66.2756 24.2118 66.1859 24.1408 66.0379C24.0756 65.902 24.0795 65.7674 24.0956 65.6723C24.126 65.4921 24.2245 65.3128 24.3205 65.1648C24.5792 64.766 25.0626 64.2394 25.5726 63.7363C22.7684 63.7954 20.2199 63.8552 18.3955 63.9009C18.0721 64.6037 17.8774 65.1888 17.7762 65.5976C17.7943 65.6031 17.812 65.6085 17.8294 65.6137C18.0062 65.6667 18.1273 65.8295 18.1273 66.0141C18.1273 68.088 17.5537 69.7683 17.2471 70.3816C17.1975 70.4808 17.1105 70.5562 17.0053 70.5913C15.8549 70.9747 14.448 70.9487 13.0455 70.7277C11.4811 70.4812 9.86762 69.983 8.51589 69.4685C7.61605 69.126 6.82554 68.7737 6.2347 68.4783C6.07055 68.3962 5.97912 68.2167 6.00929 68.0357C6.18669 66.9713 6.66109 65.8126 7.16684 64.8118C7.6749 63.8063 8.22948 62.9311 8.58983 62.4266C8.706 62.264 8.92105 62.2063 9.10301 62.289C9.11871 62.2962 9.13441 62.3033 9.15011 62.3104C9.26239 62.0812 9.38456 61.8334 9.51455 61.5713C9.03633 58.5012 8.92594 51.8425 8.92808 48.2833C8.43327 48.5289 7.92827 48.7639 7.4212 48.9792C5.62706 49.7411 3.75268 50.2811 2.19948 50.1258C2.17932 50.1237 2.15933 50.1203 2.13967 50.1154C1.80358 50.0313 1.54114 49.8013 1.33956 49.5371C1.13613 49.2704 0.96729 48.9335 0.82562 48.5672C0.541874 47.8336 0.34026 46.9109 0.207492 46.0081C0.0742326 45.1019 0.00728612 44.1945 0.000564597 43.482C-0.00278588 43.1269 0.00871565 42.8111 0.0366736 42.5639C0.0505546 42.4413 0.0696468 42.3248 0.0968077 42.2244C0.11848 42.1442 0.163583 41.9988 0.273232 41.8891C0.355579 41.8068 0.468542 41.7625 0.584912 41.767C1.02195 41.7838 1.51748 41.7989 2.05384 41.8108C2.11017 41.7826 2.17376 41.7667 2.24108 41.7667C2.31445 41.7667 2.3834 41.7856 2.44334 41.8188C3.09364 41.8308 3.79427 41.8378 4.51681 41.8373C4.58331 41.7927 4.66333 41.7667 4.74945 41.7667C4.83467 41.7667 4.91392 41.7922 4.98001 41.8359C6.30086 41.829 7.67354 41.7955 8.93002 41.7203V25.0057L9.34319 25.0053L9.29622 24.6295C10.8001 24.4416 13.8419 24.1501 17.1053 24.0399C17.1053 22.6031 17.1171 21.078 17.1344 19.598C17.1743 16.2005 17.244 13.027 17.2753 11.6053C17.2852 11.1552 17.2912 10.8807 17.2912 10.8303C17.2912 10.5994 17.4784 10.4123 17.7092 10.4123C17.9401 10.4123 18.1273 10.5994 18.1273 10.8303C18.1273 10.8807 18.1212 11.1595 18.1112 11.6159C18.0798 13.0502 18.01 16.239 17.9705 19.6078C17.9532 21.087 17.9417 22.5984 17.9416 24.0159C19.2748 23.9846 20.626 23.9871 21.9078 24.0422C22.6797 24.0753 23.6399 24.0999 24.7297 24.1173C24.7501 24.0667 24.7712 24.0146 24.7928 23.9612C24.5847 23.6466 24.3389 23.22 24.1588 22.7815C24.0487 22.5136 23.9568 22.2263 23.9182 21.9482C23.8802 21.6749 23.8877 21.368 24.0243 21.0948C24.0897 20.964 24.189 20.8313 24.3415 20.7481C24.5032 20.6599 24.6733 20.6551 24.8195 20.6928C25.0737 20.7583 25.2817 20.9575 25.4252 21.1204C25.5447 21.2559 25.6615 21.4164 25.77 21.583C25.9271 21.2078 26.0772 20.8543 26.2068 20.5565C25.888 20.3279 25.5771 19.9642 25.3954 19.4529C25.1382 18.7297 25.1547 17.7586 25.6862 16.5185C25.8378 16.1645 25.9897 15.8836 26.1553 15.7142C26.2375 15.6301 26.3738 15.5205 26.5628 15.5035C26.7802 15.4839 26.9413 15.5948 27.035 15.7034C27.1207 15.8028 27.1727 15.9221 27.2069 16.0223C27.2432 16.1285 27.2709 16.2477 27.2928 16.3714C27.2974 16.3974 27.3018 16.424 27.306 16.4511C27.3556 16.4188 27.4054 16.3881 27.4553 16.3595C27.5938 16.2801 27.7449 16.2096 27.8991 16.1682C28.0506 16.1276 28.2365 16.1067 28.4236 16.1653C28.8661 16.3038 28.9943 16.7456 28.9963 17.1628C28.9975 17.4111 28.9584 17.7153 28.8755 18.083C28.9594 18.0549 29.043 18.0327 29.1252 18.0179C29.3231 17.9823 29.5547 17.9821 29.7716 18.0887C29.9999 18.201 30.1494 18.4007 30.2295 18.6412C30.3742 19.0752 30.2186 19.4511 29.9557 19.7222C29.711 19.9745 29.358 20.1594 29.0038 20.298C28.3772 20.543 27.6131 20.693 27.0271 20.7674C26.8526 21.1645 26.6308 21.6896 26.4005 22.2433C26.5695 22.195 26.7356 22.1561 26.8856 22.1342C26.9975 22.1178 27.1173 22.1083 27.2316 22.1172C27.337 22.1255 27.493 22.1532 27.6267 22.26C27.7885 22.3892 27.8496 22.5774 27.8339 22.7577C27.8205 22.9117 27.7536 23.0535 27.6816 23.1716C27.3803 23.6659 26.8904 23.9508 26.4471 24.1116C26.4224 24.1206 26.3977 24.1293 26.3729 24.1376C31.6618 24.186 38.8733 24.1099 42.8508 24.0475C43.2689 22.6113 43.662 21.2712 43.9979 20.1333C43.9689 20.0977 43.9404 20.0606 43.9132 20.0224C43.8359 19.9143 43.7504 19.7726 43.7071 19.6178C43.6642 19.4646 43.6419 19.2067 43.8388 18.9969C44.0132 18.8111 44.2636 18.7735 44.465 18.7735C44.6664 18.7735 44.9168 18.8111 45.0912 18.9969C45.2881 19.2067 45.2658 19.4646 45.2229 19.6178C45.1796 19.7726 45.0941 19.9143 45.0168 20.0224C44.9838 20.0687 44.9489 20.1134 44.9135 20.1559C45.0575 20.8856 45.4114 22.2027 45.8671 23.7836C47.3284 23.7224 49.2097 23.6652 51.2306 23.6135C51.1352 23.4786 51.1254 23.294 51.2201 23.1464C51.2999 23.022 51.4344 22.9541 51.5719 22.954C51.5721 22.8049 51.6521 22.6608 51.7927 22.5855C51.9963 22.4765 52.2496 22.5531 52.3586 22.7567L52.5461 23.1068L53.3786 21.521C53.3201 21.4425 53.2676 21.3603 53.2209 21.2778C52.0417 21.4562 50.7599 21.3553 49.3388 20.8386C48.6063 20.5722 48.0615 20.3606 47.6486 20.1886C46.808 19.8382 46.507 19.6487 46.2779 19.49C46.2629 19.4796 46.2489 19.4699 46.2356 19.4606C46.1838 19.4245 46.1425 19.3958 46.0982 19.3681ZM54.1036 21.0892C54.1236 21.112 54.1438 21.1327 54.164 21.1511C54.2693 21.247 54.3152 21.2339 54.3411 21.2246C54.3925 21.2063 54.5032 21.1361 54.6521 20.9167C54.4722 20.9801 54.2894 21.0379 54.1036 21.0892ZM55.3042 21.4431C55.1039 21.7228 54.8796 21.9202 54.6223 22.0121C54.4165 22.0855 54.2248 22.0811 54.0547 22.0319L53.25 23.5648C53.676 23.555 54.1041 23.5455 54.5319 23.5363C54.4679 23.3863 54.4954 23.2061 54.6159 23.0815C54.7763 22.9155 55.041 22.911 55.207 23.0715L55.2758 23.138L55.6835 21.5958C55.546 21.5648 55.4186 21.5102 55.3042 21.4431ZM55.7068 20.7109C55.7487 20.6153 55.7904 20.5139 55.8318 20.4064C56.1191 20.26 56.3997 20.1016 56.6743 19.9348C56.6162 20.0703 56.5578 20.1867 56.5 20.2861C56.3237 20.5891 56.1677 20.7097 56.066 20.7553C55.9739 20.7967 55.8897 20.7936 55.8002 20.7586C55.7692 20.7464 55.7378 20.7303 55.7068 20.7109ZM46.1076 24.6105C46.4453 25.7623 46.8232 27.0144 47.2051 28.259C49.8072 28.2778 53.601 28.2661 56.9022 28.1722C58.6196 28.1233 60.198 28.0523 61.4042 27.9525C62.0081 27.9025 62.5112 27.8458 62.8887 27.7825C63.0778 27.7508 63.2282 27.7186 63.3405 27.687L63.3433 27.6862C63.4061 26.6202 63.4619 25.2123 63.4248 24.2138C61.4702 24.2413 58.5418 24.2893 55.5065 24.352C54.5255 24.3723 53.5335 24.3941 52.5596 24.4172C50.1481 24.4745 47.8499 24.5399 46.1076 24.6105ZM62.4507 28.6886C62.1578 28.724 61.8296 28.7562 61.4731 28.7857C60.2445 28.8875 58.6486 28.9589 56.926 29.0079C53.722 29.0991 50.06 29.1131 47.4632 29.0969C48.0056 30.8515 48.5354 32.5285 48.9451 33.807C49.1507 33.8933 49.2346 34.0825 49.2665 34.169C49.3435 34.3781 49.3531 34.6488 49.3207 34.8756C49.3037 34.9945 49.2724 35.1229 49.2186 35.2422C49.1667 35.3575 49.0791 35.4965 48.9315 35.5921C48.7671 35.6984 48.5723 35.7219 48.3829 35.6653C48.2114 35.614 48.0618 35.5033 47.9319 35.3734C47.9162 35.3576 47.9007 35.3418 47.8855 35.3258C46.8549 36.0275 45.5168 36.8045 44.1736 37.5353C42.6715 38.3525 41.1407 39.124 39.9798 39.6861C39.9805 39.697 39.981 39.7078 39.9812 39.7184C39.9852 39.9042 39.9141 40.0977 39.8222 40.2814C39.7739 40.3782 39.7226 40.4661 39.6666 40.5394C39.6156 40.6062 39.534 40.6968 39.4142 40.751C39.2653 40.8184 39.0889 40.8135 38.9403 40.7163C38.8226 40.6394 38.763 40.5305 38.7343 40.4683C38.674 40.3377 38.6474 40.181 38.6333 40.061C38.6179 39.9301 38.6122 39.7931 38.6122 39.6764C38.6122 39.5506 38.6434 39.3623 38.6839 39.1579C38.7271 38.9396 38.7897 38.6614 38.8684 38.3337C39.0258 37.6777 39.2509 36.8102 39.5221 35.8011C40.0291 33.9148 40.7001 31.5246 41.3995 29.0767C41.287 29.0761 41.1571 29.076 41.0099 29.0766C40.5245 29.0787 39.8769 29.0876 39.1048 29.102C37.5609 29.1308 35.5252 29.1815 33.3077 29.2427C28.9272 29.3635 23.8409 29.525 20.4435 29.6385C19.8512 30.0477 19.0895 30.4032 18.4461 30.6557C20.1262 31.0631 23.3231 31.7996 24.9093 32.1618C25.0994 32.2052 25.2343 32.3743 25.2343 32.5694C25.2343 33.3 25.0106 34.3235 24.7489 35.2725C24.4839 36.2338 24.1663 37.1655 23.9535 37.7329C23.9119 37.8438 23.8252 37.9319 23.7149 37.9752C23.6046 38.0185 23.4811 38.013 23.3751 37.96C23.3751 37.96 23.3721 37.9585 23.3646 37.9554C23.3573 37.9523 23.3475 37.9485 23.3347 37.9437C23.3088 37.9342 23.275 37.9228 23.2324 37.9095C23.147 37.8828 23.0351 37.8513 22.8975 37.8153C22.6227 37.7433 22.2581 37.6567 21.823 37.5589C20.9536 37.3636 19.8153 37.1265 18.5779 36.8776C17.2519 36.6109 15.8147 36.3312 14.4769 36.0754C14.1135 36.3019 13.7166 36.5157 13.2836 36.7125C13.0734 36.808 12.8256 36.7151 12.73 36.5049C12.6345 36.2947 12.7274 36.0469 12.9376 35.9513C13.0241 35.912 13.109 35.872 13.1923 35.8313C12.523 35.7048 11.9021 35.5888 11.3622 35.4888C11.2455 35.4672 11.1434 35.3969 11.0816 35.2956C11.0197 35.1942 11.0038 35.0713 11.0379 34.9576C11.2465 34.2624 11.5593 33.199 11.8196 32.2686C11.9499 31.803 12.0663 31.3735 12.1499 31.0409C12.1918 30.8742 12.2246 30.7353 12.2466 30.63C12.2645 30.5446 12.271 30.5002 12.2733 30.4845C12.2743 30.478 12.2745 30.4765 12.2745 30.4791C12.2745 30.2482 12.4617 30.061 12.6925 30.061C12.8847 30.061 13.7297 30.1339 14.6662 30.2195C14.9653 30.2469 15.2778 30.276 15.5878 30.3051C15.4075 30.179 15.2421 30.0257 15.1081 29.8397C14.3289 29.8369 13.0891 29.8861 11.948 29.9394C11.4783 29.9613 11.0229 29.9841 10.6264 30.0039C10.2873 30.0209 9.99122 30.0357 9.76613 30.046V41.6624C9.97947 41.6455 10.1879 41.6271 10.3904 41.6071C10.9628 41.5509 11.4837 41.4828 11.9331 41.4016C12.6036 41.2804 13.0677 41.1376 13.3136 40.9901C13.5287 40.861 13.7084 40.7621 13.8563 40.6911C13.9967 40.6236 14.1354 40.5678 14.2605 40.5461C14.3215 40.5355 14.4179 40.5257 14.5226 40.555C14.6468 40.5897 14.7728 40.6788 14.8347 40.8315C14.8864 40.9589 14.87 41.076 14.8562 41.138C14.841 41.2062 14.8152 41.2669 14.792 41.314C14.7068 41.4867 14.5445 41.6939 14.385 41.8796C14.4457 41.9004 14.5113 41.928 14.5737 41.9658C14.644 42.0083 14.7373 42.0799 14.8007 42.1956C14.8049 42.2033 14.809 42.2111 14.8128 42.219C14.8419 42.2159 14.8716 42.2138 14.9009 42.2134C14.9456 42.2126 15.0111 42.2149 15.0818 42.2342C15.1511 42.253 15.2667 42.2997 15.3516 42.4186C15.4429 42.5464 15.448 42.6853 15.4301 42.783C15.4137 42.8727 15.3759 42.9462 15.3454 42.9965C15.2921 43.0845 15.2147 43.1762 15.123 43.2711C15.1838 43.2958 15.2697 43.3329 15.3454 43.3834C15.4313 43.4406 15.5943 43.5752 15.6114 43.8141C15.6272 44.0354 15.5048 44.202 15.4165 44.2982C15.3186 44.4047 15.182 44.5114 15.0147 44.6229C14.9415 44.6717 14.8474 44.7354 14.7343 44.812C13.886 45.3864 11.9691 46.6844 9.76505 47.8534C9.7547 50.8986 9.83281 56.759 10.1882 60.2266C10.6763 59.2616 11.213 58.2214 11.7264 57.2628C12.4613 55.8907 13.1651 54.6538 13.6123 54.0576C13.8967 53.6784 14.2288 53.1608 14.5533 52.6551C14.5735 52.6236 14.5938 52.592 14.6139 52.5606C14.9444 52.0458 15.2792 51.527 15.5155 51.2611C15.5744 51.1949 15.6502 51.1173 15.7366 51.0613C15.789 51.0273 16.0487 50.8715 16.3042 51.0631C16.4114 51.1435 16.4573 51.2488 16.4776 51.3145C16.4987 51.3827 16.505 51.4486 16.5067 51.5004C16.5101 51.6045 16.4966 51.7243 16.4754 51.8502C16.4714 51.8737 16.467 51.8983 16.4622 51.9238C16.5945 51.7377 16.723 51.566 16.8446 51.4148C17.0396 51.1724 17.2394 50.9541 17.4251 50.8219C17.5124 50.7598 17.6481 50.6786 17.8124 50.666C17.9036 50.659 18.0074 50.6732 18.1076 50.7267C18.2068 50.7797 18.2755 50.8569 18.3206 50.9333C18.4027 51.0722 18.4219 51.232 18.4256 51.3586C18.4296 51.4964 18.416 51.6569 18.3893 51.8368C18.3612 52.0254 18.3162 52.2507 18.2526 52.5158C18.6697 51.8816 19.0544 51.3443 19.3178 51.0845C19.3875 51.0156 19.4958 50.9172 19.6263 50.8675C19.6962 50.8408 19.8289 50.8067 19.978 50.8636C20.1396 50.9254 20.2196 51.0545 20.254 51.1481C20.286 51.2351 20.2908 51.3194 20.2904 51.3781C20.2899 51.4418 20.2827 51.5076 20.2722 51.5719C20.2514 51.7006 20.2124 51.8565 20.1582 52.0376C20.0516 52.3937 19.8723 52.8919 19.6071 53.5571C19.9585 53.1587 20.2887 52.8016 20.5674 52.5269C20.754 52.3431 20.929 52.1845 21.0789 52.0739C21.1526 52.0195 21.2351 51.9655 21.3202 51.9275C21.3847 51.8987 21.5488 51.8328 21.7329 51.8954C21.9789 51.979 22.0479 52.201 22.0601 52.3238C22.0716 52.4396 22.0491 52.5552 22.0251 52.6467C22.0202 52.6651 22.0149 52.6841 22.009 52.7036C25.3551 52.1794 31.3382 51.1741 33.4806 50.562C33.6958 50.5005 33.9213 50.6195 33.9921 50.8318C34.1397 51.2746 34.4316 52.4085 34.4316 53.4724C34.4316 53.6678 34.2962 53.8372 34.1055 53.8802C32.4519 54.2531 29.9023 54.8126 27.6269 55.2794C26.4894 55.5128 25.4181 55.7235 24.5605 55.8761C23.9855 55.9785 23.4864 56.0587 23.1259 56.0993C23.0739 56.5155 22.9113 57.0057 22.6556 57.5321C22.2993 58.2657 21.7391 59.117 20.9503 60.0185C20.0144 61.0881 19.3215 62.1327 18.8207 63.0539C20.8518 63.0037 23.6383 62.9394 26.6402 62.8778L27.5325 62.8597C32.5506 62.7591 38.0154 62.6704 41.4919 62.6697C41.4226 62.0021 41.3551 61.2928 41.2947 60.5794H39.0302C38.831 60.5794 38.6594 60.4387 38.6203 60.2433C38.4485 59.3845 38.2745 57.5355 38.1262 55.5945C37.9743 53.6069 37.8471 51.4879 37.7766 50.1499C37.7648 49.9243 37.9343 49.73 38.1594 49.7113C44.1775 49.2098 47.6512 48.8274 49.5475 48.554C50.4036 48.4306 50.9216 48.3316 51.2036 48.258C51.2307 48.2075 51.2683 48.1624 51.3147 48.1261C51.4162 48.0469 51.5485 48.0189 51.6734 48.0501C51.7159 48.0607 51.8243 48.0891 51.9173 48.1684C51.971 48.2142 52.0518 48.3053 52.0718 48.4471C52.0916 48.5885 52.04 48.7005 51.9925 48.7675C52.0037 49.5683 52.0516 50.9361 52.1139 52.4634C52.2061 54.7232 52.329 57.3146 52.4076 58.8862C52.4135 59.0042 52.3692 59.1192 52.2857 59.2027C52.1796 59.3088 52.0379 59.3741 51.9278 59.4167C51.8055 59.4641 51.6625 59.5052 51.5109 59.5416C51.2069 59.6146 50.8318 59.6771 50.442 59.7297C49.8454 59.8103 49.1925 59.8708 48.6628 59.9096C48.7448 60.6384 48.7563 61.5393 48.6506 62.6389C48.6523 62.6459 48.654 62.6529 48.6557 62.6599C50.7809 62.5989 53.7807 62.5301 56.5842 62.5002C57.4507 62.491 58.2988 62.4854 59.0968 62.485C60.3364 62.4843 61.4577 62.4959 62.3402 62.5252C62.8741 62.5429 63.3401 62.5674 63.6954 62.603C63.695 62.1686 63.6939 61.6891 63.6922 61.1703C63.6838 58.6319 63.6589 55.1514 63.6069 51.3878L63.5976 50.7327C63.5901 50.2211 63.5822 49.7051 63.5737 49.1862C63.1271 49.4205 62.6158 49.6231 62.0833 49.7353C61.2715 49.9064 60.3679 49.8748 59.5833 49.3684C59.1368 49.0802 58.7524 48.6526 58.4521 48.0672C57.8067 48.2335 56.9688 48.3056 56.2545 48.0172C55.8092 47.8373 55.4148 47.5173 55.1647 47.0105C54.9488 46.5729 54.8538 46.0235 54.8943 45.3519C54.4884 45.1286 54.0621 44.8468 53.6855 44.5212C53.235 44.1318 52.8235 43.6523 52.6306 43.1065C52.4283 42.5341 52.4774 41.9138 52.9081 41.3249C53.2658 40.8359 53.8707 40.3897 54.7556 39.9859C54.7325 39.9323 54.7105 39.8772 54.6897 39.8205C54.4771 39.2414 54.4022 38.5277 54.5005 37.5445C54.6214 36.3352 55.348 35.4192 56.3099 34.7428C57.2678 34.0692 58.493 33.6069 59.7065 33.2968C60.6212 33.0631 61.5435 32.9124 62.3652 32.8249C62.7076 32.7884 63.0334 32.7628 63.3351 32.7468C63.38 32.5482 63.4506 32.3168 63.5455 32.0514C63.2439 32.1278 62.949 32.1963 62.6832 32.2493C62.4322 32.2994 62.1973 32.3375 62.0033 32.3537C61.9068 32.3618 61.8103 32.3653 61.7219 32.3596C61.6455 32.3547 61.5233 32.3405 61.4104 32.2781C61.348 32.2436 61.2696 32.1839 61.2147 32.0849C61.1568 31.9804 61.146 31.8695 61.1618 31.7736C61.1886 31.6115 61.2896 31.4955 61.3464 31.4364C61.4774 31.2999 61.6931 31.1494 61.9728 30.9813C62.2739 30.8003 62.6873 30.5769 63.2332 30.3041C62.7545 30.2978 62.3141 30.2665 62.0176 30.1869C61.93 30.1634 61.8357 30.1309 61.75 30.0825C61.6694 30.037 61.5527 29.9529 61.4871 29.806C61.4116 29.637 61.4394 29.4684 61.5047 29.3416C61.5624 29.2294 61.6501 29.1448 61.7272 29.083C61.8838 28.9574 62.1142 28.8349 62.4027 28.7093C62.4185 28.7024 62.4345 28.6955 62.4507 28.6886ZM64.0793 30.8197C63.716 30.9958 63.4041 31.1523 63.1386 31.291C63.4013 31.2271 63.6763 31.1547 63.9465 31.0796C63.9892 30.992 64.0335 30.9053 64.0793 30.8197ZM65.0271 29.408C64.4805 29.4452 63.9226 29.469 63.4338 29.4692C63.1927 29.4693 62.9768 29.4635 62.7917 29.4521C63.0498 29.3426 63.3902 29.2162 63.8271 29.0715C64.373 28.8908 65.0622 28.6839 65.9177 28.4479C65.6053 28.7469 65.3056 29.067 65.0271 29.408ZM63.3666 33.5824C63.1405 33.5946 62.8992 33.6125 62.6463 33.6368C61.7817 34.9158 60.5091 36.7772 59.3665 38.4036C58.7708 39.2517 58.2089 40.038 57.758 40.6453C57.5328 40.9487 57.3333 41.21 57.1701 41.413C57.1278 41.4656 57.0864 41.5164 57.0463 41.5642C57.4145 42.0321 57.7796 42.6165 58.0866 43.4427C58.9065 42.4952 60.0265 41.1866 60.9413 40.0825C60.8836 40.0903 60.8262 40.0945 60.7693 40.0945C60.5013 40.0945 60.1809 40.0202 60.0087 39.7224C59.8556 39.4577 59.9083 39.1544 59.9758 38.9357C60.1179 38.4761 60.4925 37.8797 60.9327 37.2536C61.3057 36.7231 61.7543 36.1326 62.2112 35.5312C62.3053 35.4074 62.3998 35.283 62.494 35.1587C62.8487 34.6906 63.2009 34.2209 63.5249 33.7661C63.468 33.7233 63.4173 33.6682 63.3764 33.5996C63.373 33.5939 63.3697 33.5882 63.3666 33.5824ZM64.3761 34.0099C63.997 34.5531 63.5759 35.1154 63.1605 35.6636C63.0643 35.7905 62.9686 35.9165 62.8737 36.0414C62.4169 36.6427 61.9799 37.2179 61.6167 37.7345C61.1684 38.3721 60.8722 38.867 60.7747 39.1826C60.7653 39.2129 60.759 39.2379 60.7546 39.2582C60.7593 39.2583 60.7641 39.2584 60.7693 39.2584C60.8895 39.2584 61.0973 39.1959 61.4005 39.0163C61.6924 38.8434 62.0275 38.5897 62.3898 38.2748C62.6939 38.0106 63.0098 37.7098 63.3268 37.3894C63.3643 37.319 63.4215 37.2605 63.4913 37.2213C64.1139 36.5794 64.7333 35.8725 65.268 35.2273C65.1711 35.1121 65.0776 34.9948 64.9888 34.8792C64.7635 34.5858 64.5533 34.2823 64.3761 34.0099ZM65.8053 34.5646C65.8915 34.4559 65.9738 34.3508 66.0516 34.2503C66.0306 34.1034 66.05 33.9548 66.0915 33.8195C66.1515 33.6242 66.2642 33.428 66.4161 33.237C66.4349 32.9512 66.3831 32.817 66.3474 32.7617C66.3163 32.7137 66.2705 32.6822 66.1765 32.6698C66.0723 32.656 65.9432 32.6729 65.8223 32.7062C65.7647 32.722 65.7166 32.7394 65.684 32.753C65.6797 32.7548 65.6759 32.7564 65.6726 32.7579C65.4233 32.973 65.1771 33.18 64.9496 33.3544C65.1376 33.6548 65.3841 34.0211 65.6519 34.3699C65.7031 34.4366 65.7543 34.5016 65.8053 34.5646ZM64.159 32.8939L64.1619 32.892C64.4277 32.716 64.7694 32.4335 65.1576 32.0979C65.2887 31.9846 65.4249 31.8654 65.5636 31.7439C65.859 31.4855 66.1657 31.2171 66.4581 30.9747C66.8839 30.6218 67.3184 30.2907 67.6893 30.1052C68.1516 29.874 68.5977 29.7788 68.9745 29.8704C69.3882 29.971 69.6573 30.2857 69.7027 30.6943C69.7443 31.068 69.5967 31.4706 69.3335 31.8391C69.065 32.215 68.6525 32.5912 68.0914 32.9279C67.6398 33.1989 67.3293 33.4599 67.1339 33.6818C66.9855 33.8503 66.9164 33.9817 66.8908 34.0649C66.8879 34.0744 66.8857 34.0828 66.884 34.0901C66.904 34.0932 66.9328 34.0953 66.9731 34.0939C67.1233 34.0887 67.3633 34.0308 67.6893 33.8677C68.5352 33.4448 69.9118 32.8132 71.2079 32.2866C71.8559 32.0234 72.4895 31.784 73.0297 31.6098C73.2831 31.528 73.5288 31.4562 73.7525 31.404C73.0264 29.8974 71.8939 27.7194 70.8964 26.2895C70.1107 26.5855 69.0053 27.1227 67.9103 27.8945C67.0665 28.4891 66.2382 29.2164 65.5679 30.0703C65.1957 30.5443 64.8734 31.0557 64.6237 31.6037C64.581 31.6976 64.5403 31.7926 64.5019 31.8886C64.3195 32.3447 64.2132 32.6704 64.159 32.8939ZM71.4129 25.5737C72.6157 27.2231 74.0205 29.9982 74.7504 31.5555C74.9252 31.4606 75.1189 31.3638 75.3245 31.2668C74.4303 28.0175 73.0961 25.8695 72.385 24.9933C72.0311 25.1982 71.7015 25.3958 71.4129 25.5737ZM73.1219 24.5768C73.9236 25.6043 75.2127 27.7746 76.0966 30.9226C77.1251 30.4859 78.3099 30.054 79.1195 29.7762C78.7432 27.3749 77.5192 24.4213 76.8243 22.9774C76.6793 23.0011 76.5055 23.0434 76.3042 23.1058C75.9761 23.2075 75.5998 23.3545 75.1954 23.5333C74.5311 23.8269 73.8072 24.1988 73.1219 24.5768ZM66.6182 31.9345C66.7436 31.8266 66.8683 31.7207 66.9916 31.6185C67.4173 31.2658 67.7868 30.9913 68.0632 30.8531C68.437 30.6662 68.6703 30.6569 68.7769 30.6829C68.8466 30.6998 68.8649 30.7248 68.8717 30.7866C68.8825 30.8832 68.8471 31.0816 68.6531 31.3531C68.4643 31.6174 68.1452 31.9205 67.6612 32.2109C67.48 32.3197 67.3144 32.4297 67.1643 32.54C67.134 32.4571 67.0959 32.3796 67.0497 32.3081C66.9321 32.1261 66.7791 32.0079 66.6182 31.9345ZM63.3136 38.568C63.1995 38.6741 63.0862 38.7765 62.9742 38.8746C62.1379 40.0157 59.653 42.9164 58.3792 44.3813C58.4944 44.8261 58.5943 45.3248 58.6748 45.8882C58.6946 46.0269 58.7169 46.1597 58.7414 46.2868C59.5297 45.308 60.5236 44.1012 61.402 43.0914C61.9446 42.4677 62.4496 41.9116 62.8375 41.5301C63.0286 41.3421 63.2057 41.182 63.352 41.0778C63.365 41.0686 63.3789 41.0589 63.3935 41.0492C63.3688 40.2037 63.3422 39.3741 63.3136 38.568ZM63.4238 42.1262C63.06 42.4841 62.5722 43.0201 62.0328 43.6402C61.0173 44.8076 59.8418 46.2459 59.0165 47.2804C59.0324 47.3219 59.0485 47.3624 59.065 47.402C59.2582 47.8667 59.4932 48.2012 59.7475 48.4393C60.7903 47.1961 62.568 45.1552 63.474 44.1219C63.4583 43.4515 63.4416 42.7851 63.4238 42.1262ZM63.5018 45.3601C62.5792 46.4171 61.313 47.8773 60.4728 48.8758C60.9132 49.0249 61.4055 49.0237 61.9109 48.9172C62.5087 48.7912 63.0919 48.5235 63.5576 48.2323C63.5408 47.2777 63.5223 46.317 63.5018 45.3601ZM58.1324 47.2847C58.011 46.9069 57.915 46.4821 57.8471 46.0064C57.7576 45.3803 57.6443 44.8471 57.5151 44.3885C57.1494 43.0909 56.6518 42.3724 56.1754 41.8231C56.0392 41.6661 55.911 41.5295 55.7811 41.3912C55.7068 41.3121 55.632 41.2324 55.5549 41.148C55.4284 41.0096 55.3026 40.8656 55.1843 40.7098C54.3217 41.0926 53.8334 41.4763 53.583 41.8186C53.323 42.1739 53.3042 42.5032 53.4189 42.8278C53.543 43.179 53.8335 43.544 54.2322 43.8886C54.6256 44.2286 55.0934 44.5222 55.5222 44.7376C55.6784 44.8161 55.7693 44.9836 55.75 45.1574C55.6721 45.8586 55.7607 46.3288 55.9145 46.6405C56.0642 46.9439 56.2917 47.1305 56.5676 47.2419C57.0246 47.4265 57.6155 47.4021 58.1324 47.2847ZM55.5785 39.7733C55.6129 39.8422 55.65 39.9082 55.6897 39.9721C55.8208 40.1832 55.981 40.3749 56.1721 40.584C56.2341 40.6519 56.302 40.7243 56.3733 40.8002C56.4113 40.8407 56.4502 40.8823 56.4898 40.9247C56.4991 40.9132 56.5087 40.9013 56.5185 40.8891C56.6721 40.6981 56.8643 40.4465 57.0867 40.1469C57.5312 39.5483 58.0882 38.7688 58.6824 37.923C59.6513 36.5437 60.715 34.9936 61.5422 33.7757C61.0571 33.8512 60.5542 33.9488 60.0535 34.0718C59.2938 35.0659 58.194 36.4948 57.2545 37.6938C56.7664 38.3168 56.32 38.8796 55.9866 39.2875C55.8227 39.4881 55.6832 39.6546 55.5785 39.7733ZM58.6867 34.4807C57.9819 34.7347 57.3301 35.0476 56.7908 35.4268C55.9528 36.016 55.4214 36.7383 55.3324 37.6277C55.2858 38.0939 55.2838 38.4732 55.314 38.7892C55.3223 38.779 55.3307 38.7688 55.3392 38.7584C55.6671 38.3573 56.1092 37.7999 56.5964 37.1781C57.272 36.3159 58.0313 35.3336 58.6867 34.4807ZM47.8322 62.4077C47.9379 61.1983 47.8903 60.276 47.7744 59.5921C47.6916 59.104 47.5748 58.7416 47.4571 58.4839C47.4357 58.4873 47.4137 58.4891 47.3914 58.4891C47.1605 58.4891 46.9733 58.3019 46.9733 58.071C46.9733 57.9423 46.9631 57.8269 46.9454 57.7236C46.8817 57.3523 46.7121 57.1067 46.5216 56.9494C46.5435 57.1642 46.5553 57.3982 46.5553 57.6529C46.5553 57.8838 46.3681 58.071 46.1372 58.071C45.9063 58.071 45.7192 57.8838 45.7192 57.6529C45.7192 57.1101 45.6596 56.702 45.5747 56.3987C45.5167 56.1916 45.4486 56.0358 45.38 55.9185C45.3578 56.3327 45.3313 56.7798 45.3002 57.2618C45.2854 57.4922 45.0865 57.6669 44.8561 57.6521C44.6257 57.6372 44.451 57.4384 44.4659 57.208C44.5166 56.4218 44.5549 55.7306 44.5822 55.1258C44.6032 54.6607 44.6176 54.247 44.6261 53.8807C44.6366 53.4326 44.6381 53.0584 44.6322 52.7498C44.5936 52.8803 44.5544 53.019 44.5149 53.1641C44.2913 53.9859 44.0681 54.9776 43.9004 55.7882C43.8167 56.1929 43.7474 56.5503 43.6991 56.8163C43.6749 56.9495 43.6563 57.0581 43.644 57.1374C43.6342 57.2003 43.6307 57.2302 43.6295 57.2384C43.6289 57.2427 43.6289 57.241 43.6289 57.2349C43.6289 57.442 43.4772 57.6179 43.2724 57.6484C43.0675 57.6789 42.8712 57.5548 42.8109 57.3566C42.446 56.1578 42.1606 55.3856 41.9471 54.9368C41.8984 55.3787 41.8864 56.03 41.9063 56.8241C41.9308 57.8026 42.0022 58.9593 42.0964 60.1277C42.167 61.0034 42.2502 61.8836 42.3355 62.6973C43.1523 62.7542 44.274 62.7967 45.3299 62.7639C45.9371 62.745 46.5132 62.7015 46.9929 62.624C47.3618 62.5645 47.6423 62.4894 47.8322 62.4077ZM42.2573 63.53C43.0979 63.5891 44.2577 63.6338 45.3559 63.5996C45.982 63.5802 46.5974 63.5349 47.1262 63.4495C47.4111 63.4035 47.6887 63.3433 47.9359 63.2612C47.9775 63.4544 48.0153 63.6469 48.0493 63.8381C45.4744 64.688 43.2364 64.16 42.2107 63.6995C42.2257 63.6427 42.2412 63.5862 42.2573 63.53ZM42.0316 64.5321C41.7874 65.9597 41.8339 67.4051 41.9214 68.2135C43.0894 68.5957 45.6482 69.0991 48.2665 68.5923C48.3478 67.7908 48.391 66.3313 48.1775 64.6753C45.565 65.4972 43.2645 65.0383 42.0316 64.5321ZM44.5284 51.6485C44.5284 51.6485 44.5287 51.6488 44.5298 51.6514C44.529 51.6499 44.5284 51.6485 44.5284 51.6485ZM45.4316 54.8345C45.7548 54.9943 46.0832 55.3391 46.2978 55.9196C46.8253 56.0582 47.5127 56.483 47.7367 57.4218C47.8949 57.5691 48.042 57.779 48.1701 58.0368C48.3055 58.3094 48.4293 58.6548 48.5257 59.0812C49.0549 59.0436 49.7252 58.9829 50.3301 58.9012C50.7083 58.8501 51.0516 58.792 51.3157 58.7286C51.4124 58.7054 51.4936 58.6826 51.5592 58.6608C51.4899 57.262 51.3927 55.2074 51.3109 53.2761C50.9423 53.5732 50.4996 53.9651 50.0426 54.3888C49.3048 55.0727 48.5641 55.8068 48.1084 56.2729C47.9576 56.4272 47.7141 56.4414 47.5464 56.3056C47.3187 56.1213 46.2697 55.3312 45.4366 54.7066C45.435 54.7487 45.4333 54.7914 45.4316 54.8345ZM45.4665 53.6843C46.1388 54.1873 47.2202 54.9989 47.7727 55.4225C48.2312 54.9609 48.853 54.3515 49.4742 53.7756C50.1141 53.1823 50.7803 52.5992 51.2689 52.2602C51.2194 51.0302 51.1797 49.9092 51.1628 49.1266C50.8205 49.201 50.333 49.2855 49.6668 49.3816C47.7882 49.6524 44.4079 50.0254 38.6333 50.5107C38.6941 51.6196 38.7851 53.1197 38.8927 54.6231C39.6536 53.8439 40.8281 52.585 42.0535 51.1144C42.1278 51.0253 42.2359 50.971 42.3518 50.9646C42.4677 50.9583 42.581 51.0004 42.6647 51.0809L43.9033 52.2734C43.9673 52.0697 44.0311 51.8842 44.0937 51.7254C44.1561 51.5671 44.2237 51.4184 44.2968 51.3011C44.3331 51.2429 44.3799 51.1775 44.4391 51.1206C44.4938 51.0681 44.5966 50.9865 44.7455 50.967C44.92 50.9442 45.0642 51.017 45.1569 51.108C45.2373 51.1869 45.2826 51.2806 45.3097 51.3498C45.3651 51.4914 45.3986 51.676 45.4215 51.884C45.4649 52.277 45.4812 52.8645 45.4665 53.6843ZM43.6441 53.1845L42.4071 51.9936C40.9539 53.7106 39.6105 55.102 38.9749 55.7259C39.1023 57.368 39.2443 58.874 39.3811 59.7432H41.2277C41.1503 58.7204 41.0923 57.7167 41.0704 56.8451C41.0457 55.8588 41.0658 55.0017 41.1708 54.4812C41.1975 54.3486 41.2335 54.2175 41.2859 54.1042C41.3328 54.0027 41.4241 53.8463 41.6004 53.7627C41.8148 53.6611 42.0205 53.7239 42.1557 53.8132C42.2773 53.8935 42.3738 54.0115 42.4513 54.1258C42.6374 54.4006 42.8501 54.8673 43.0965 55.5473C43.2481 54.8189 43.443 53.9509 43.6441 53.1845ZM23.0344 55.2685C23.344 55.2332 23.8147 55.1596 24.4139 55.053C25.2611 54.9021 26.3243 54.6931 27.4588 54.4604C29.5784 54.0255 31.9385 53.5096 33.5853 53.1402C33.5488 52.5221 33.4207 51.8997 33.3092 51.4742C30.7067 52.1418 24.64 53.144 21.6187 53.6105C21.3207 54.2031 20.8524 55.0375 20.1758 56.1661C20.1653 56.1931 20.1553 56.2201 20.1458 56.2467C20.3043 56.1192 20.5059 55.9373 20.7581 55.6851C21.0211 55.4221 21.2699 55.2168 21.5018 55.0707C21.7296 54.9272 21.9646 54.8261 22.1961 54.8032C22.4414 54.7789 22.689 54.8444 22.8749 55.0359C22.9429 55.1058 22.995 55.1848 23.0344 55.2685ZM21.6609 52.6911C21.6682 52.6878 21.6667 52.6894 21.658 52.6925L21.6609 52.6911ZM20.6666 53.6299C19.9996 54.3528 19.1679 55.3492 18.4538 56.2419C18.3226 56.4058 18.0903 56.447 17.9107 56.3383C17.7312 56.2295 17.6601 56.0045 17.7446 55.8123C18.2637 54.6328 18.6469 53.7182 18.9181 53.0257C18.8666 53.1043 18.8141 53.185 18.761 53.2676C18.2689 54.0315 17.7201 54.9404 17.2342 55.7733C17.1258 55.9592 16.8939 56.0324 16.6983 55.9424C16.5028 55.8524 16.4076 55.6286 16.4783 55.4253C17.0874 53.6742 17.4088 52.5532 17.5316 51.8951C17.52 51.9093 17.5081 51.9239 17.4961 51.9388C17.3148 52.1642 17.1092 52.4498 16.8907 52.7743C16.4541 53.4228 15.9789 54.2077 15.5639 54.9339C15.4572 55.1205 15.2265 55.1959 15.0303 55.1082C14.834 55.0204 14.7363 54.7982 14.8043 54.5943C15.0126 53.9693 15.1777 53.453 15.3055 53.031C15.2875 53.0591 15.2694 53.0874 15.2511 53.1158C14.9328 53.612 14.5849 54.1544 14.2812 54.5593C13.8792 55.0953 13.2049 56.2732 12.4634 57.6576C11.728 59.0308 10.9428 60.5759 10.3229 61.8233C10.1765 62.1181 10.0393 62.396 9.91431 62.651C10.2686 62.8063 10.6217 62.9574 10.9714 63.1039C12.0545 63.5577 13.1044 63.9677 14.0577 64.3223C14.0982 64.3318 14.1347 64.3458 14.1674 64.3631C15.2758 64.7737 16.2467 65.1073 16.9775 65.3455C17.1107 64.8252 17.3578 64.1213 17.7509 63.3076C18.2919 62.1874 19.1163 60.8447 20.321 59.4679C21.0692 58.6129 21.5848 57.8229 21.9035 57.1668C22.2291 56.4964 22.3278 56.0099 22.3047 55.7471C22.2996 55.6885 22.2895 55.6537 22.2822 55.6349L22.2785 55.6352C22.2246 55.6405 22.1159 55.6721 21.9474 55.7782C21.7828 55.8818 21.5825 56.0432 21.3493 56.2763C20.9246 56.701 20.5917 56.9819 20.3308 57.1411C20.2019 57.2197 20.0637 57.2855 19.922 57.3108C19.7719 57.3377 19.579 57.323 19.4197 57.1837C19.2748 57.0569 19.2316 56.8891 19.2181 56.779C19.2038 56.6631 19.2137 56.5455 19.23 56.4438C19.2629 56.2381 19.3357 56.0146 19.4114 55.8254C19.4197 55.8047 19.4296 55.7847 19.4411 55.7656C19.9805 54.8666 20.3812 54.1649 20.6666 53.6299ZM13.6342 65.0568C13.6336 65.0956 13.6311 65.1453 13.6248 65.2077C13.591 65.5453 13.4628 66.1438 13.1321 67.136C12.9294 67.7441 12.7544 68.1317 12.6206 68.3944C12.5575 68.518 12.5028 68.6157 12.4541 68.7024L12.4438 68.7209L12.4429 68.7225C12.3956 68.807 12.3433 68.9003 12.3059 68.9911C12.2645 69.0919 12.2335 69.2069 12.2371 69.3414C12.2406 69.4704 12.2752 69.5869 12.3178 69.6927C12.3248 69.7102 12.3325 69.7284 12.3408 69.7472C11.2622 69.5193 10.1783 69.1869 9.20095 68.8314C9.35635 68.4816 9.63682 67.9888 10.0618 67.5639C10.288 67.3376 10.458 67.0178 10.5898 66.689C10.7244 66.3529 10.8332 65.9708 10.9205 65.5889C11.0384 65.0726 11.1206 64.54 11.1725 64.0924C12.0319 64.4451 12.8631 64.7685 13.6342 65.0568ZM10.3676 63.7567C9.97379 63.5898 9.57622 63.4173 9.17781 63.2396C9.1438 63.2245 9.10979 63.2093 9.07577 63.194C8.74784 63.6827 8.31551 64.3925 7.9131 65.1888C7.47448 66.0569 7.0832 67.0049 6.89296 67.8694C7.32326 68.0751 7.84158 68.3038 8.41873 68.5335C8.60876 68.094 8.9495 67.4937 9.47054 66.9726C9.57875 66.8644 9.69776 66.6672 9.81362 66.3781C9.92655 66.0962 10.0239 65.7594 10.1053 65.4027C10.2375 64.8242 10.3224 64.218 10.3676 63.7567ZM13.3791 69.9324C14.5739 70.1032 15.6829 70.1039 16.5721 69.8502C16.8257 69.2647 17.239 67.9487 17.2867 66.3219C17.2474 66.3097 17.207 66.297 17.1655 66.2839C16.5056 66.0759 15.5616 65.76 14.4495 65.357C14.3984 65.7869 14.2465 66.4367 13.9253 67.4004C13.7099 68.0465 13.5191 68.4728 13.3655 68.7741C13.2947 68.9129 13.2327 69.0236 13.1841 69.1102L13.1732 69.1296C13.1195 69.2254 13.0939 69.2734 13.0792 69.3091C13.0767 69.3152 13.075 69.3197 13.0739 69.3229C13.0759 69.3315 13.0809 69.3495 13.0935 69.3807C13.1341 69.4816 13.2068 69.6155 13.3354 69.852C13.3493 69.8776 13.3638 69.9043 13.3791 69.9324ZM9.21928 47.1959C11.4417 46.031 13.3909 44.7116 14.2639 44.1207C14.3758 44.0449 14.4701 43.9811 14.5449 43.9312C14.465 43.8889 14.341 43.8121 14.2548 43.678C14.1475 43.5111 14.1365 43.3176 14.2009 43.1387C14.2023 43.1348 14.2038 43.1309 14.2053 43.127C14.1203 43.1026 13.9376 43.0211 13.8885 42.7953C13.8743 42.73 13.8769 42.6714 13.8852 42.6241C13.7709 42.6098 13.6426 42.6028 13.5287 42.6028C13.3596 42.6028 13.2071 42.5009 13.1424 42.3447C13.0891 42.2159 13.104 42.0711 13.1779 41.9572C12.9457 42.0354 12.6836 42.1029 12.4016 42.1621C12.3847 42.2235 12.3641 42.2795 12.3443 42.3279C12.2711 42.5065 12.1611 42.6895 12.0458 42.857C11.8139 43.1941 11.5199 43.5264 11.3189 43.7315L11.3159 43.7345C11.2292 43.8213 11.088 43.9189 10.8977 43.9172C10.707 43.9155 10.5712 43.8152 10.4935 43.7341C10.353 43.5877 10.2726 43.3722 10.2222 43.2087C10.1537 42.9862 10.102 42.7213 10.0655 42.4766C8.57368 42.6046 6.82812 42.6593 5.15718 42.671C5.13235 43.2915 5.05987 44.0874 4.90905 44.8666C4.81193 45.3684 4.6805 45.8729 4.50367 46.3234C4.32855 46.7696 4.09872 47.1892 3.79088 47.497C3.6242 47.6637 3.38444 47.8173 3.09098 47.7731C2.80927 47.7306 2.62926 47.5266 2.52281 47.3584C2.30872 47.0203 2.17374 46.4818 2.07966 45.9225C1.91236 44.9281 1.84266 43.6507 1.82672 42.6419C1.48931 42.6337 1.1698 42.6243 0.872795 42.6141C0.870995 42.628 0.869222 42.6426 0.86749 42.6579C0.844824 42.8583 0.833463 43.1369 0.836645 43.4741C0.842987 44.1465 0.906684 45.0158 1.03471 45.8864C1.16323 46.7603 1.35355 47.6143 1.60544 48.2656C1.73159 48.5917 1.8665 48.8492 2.00436 49.03C2.13132 49.1964 2.23904 49.2699 2.31915 49.2973C3.57461 49.412 5.15777 49.0025 6.80462 48.3303C6.75095 47.8321 6.71344 47.2032 6.74643 46.6536C6.76641 46.3207 6.81393 45.981 6.91958 45.7118C7.01899 45.4584 7.24024 45.1111 7.67586 45.1111C8.01283 45.1111 8.27046 45.3037 8.44639 45.5009C8.62516 45.7013 8.76878 45.9594 8.88329 46.2159C9.0241 46.5315 9.13644 46.8805 9.21928 47.1959ZM7.61099 47.9831C7.89355 47.8554 8.17522 47.7221 8.45452 47.5847C8.37864 47.2625 8.26479 46.8817 8.11976 46.5567C8.02175 46.3371 7.91977 46.1666 7.82244 46.0575C7.78043 46.0104 7.74575 45.9821 7.72019 45.966C7.71369 45.9792 7.70621 45.996 7.69792 46.0172C7.64069 46.163 7.59938 46.398 7.58104 46.7037C7.55684 47.107 7.57559 47.5713 7.61099 47.9831ZM7.74864 45.9214C7.74864 45.9214 7.7466 45.9248 7.74187 45.9285C7.74618 45.9227 7.74864 45.9214 7.74864 45.9214ZM2.66323 42.6588C2.67972 43.6398 2.74809 44.8559 2.90419 45.7838C2.99462 46.3214 3.10521 46.6993 3.21593 46.8892C3.40344 46.695 3.57559 46.3995 3.72537 46.0179C3.87776 45.6297 3.99717 45.1779 4.08817 44.7077C4.22707 43.99 4.29556 43.252 4.32025 42.6734C3.74728 42.6727 3.19024 42.6675 2.66323 42.6588ZM10.8987 42.3941C10.9233 42.5522 10.9541 42.7126 10.9904 42.8529C11.1154 42.708 11.2462 42.5441 11.357 42.383C11.3687 42.366 11.3801 42.3493 11.3911 42.3327C11.2317 42.3544 11.0673 42.3749 10.8987 42.3941ZM14.6299 42.564C14.631 42.562 14.6311 42.5617 14.6299 42.564V42.564ZM9.76613 29.2092C9.96462 29.1999 10.2202 29.1871 10.5153 29.1723C10.9207 29.152 11.4006 29.1279 11.909 29.1042C12.9015 29.0578 13.9934 29.0133 14.7928 29.0049C14.7862 28.9404 14.7828 28.8744 14.7828 28.8069C14.7828 28.6108 14.8108 28.3978 14.9222 28.2236C15.0569 28.0131 15.2727 27.9203 15.4924 27.9293C15.6776 27.9369 15.8492 28.0144 15.9838 28.0924C16.1262 28.175 16.2715 28.2846 16.4129 28.4052C16.6634 28.619 16.9322 28.8943 17.1906 29.1839C17.137 28.0679 17.1125 26.5549 17.1067 24.8764C14.1342 24.9777 11.3452 25.2307 9.76613 25.415V29.2092ZM17.9429 24.8522C17.9488 26.6402 17.9756 28.227 18.035 29.3353C18.2935 29.0334 18.6046 28.6952 18.9259 28.3844C19.324 27.9995 19.7711 27.6238 20.1698 27.431C20.3633 27.3375 20.6116 27.2538 20.8637 27.2995C21.1647 27.354 21.3603 27.5685 21.4503 27.8385C21.5645 28.1812 21.4814 28.5051 21.3246 28.7727C24.6805 28.6619 29.2774 28.5174 33.2847 28.4069C35.503 28.3457 37.5416 28.2949 39.0891 28.266C39.8628 28.2516 40.5151 28.2426 41.0064 28.2405C41.2538 28.2395 41.4678 28.2401 41.638 28.2432C41.9624 27.1119 42.2897 25.9789 42.6065 24.8875C38.2151 24.9546 30.2555 25.0343 25.0041 24.9577C23.7923 24.9401 22.7221 24.9141 21.8719 24.8775C20.6039 24.823 19.2648 24.8209 17.9429 24.8522ZM43.5196 24.7417C43.1397 26.0484 42.7425 27.4234 42.3512 28.7897C41.5995 31.4147 40.8705 34.0058 40.3296 36.0181C40.059 37.0247 39.8363 37.8838 39.6814 38.5289C39.6446 38.682 39.6119 38.8223 39.5833 38.9491C40.7375 38.3909 42.271 37.6186 43.774 36.8009C45.1749 36.0386 46.5299 35.2472 47.5266 34.5582C47.5366 34.3766 47.6189 34.2184 47.7454 34.1017C47.8529 34.0024 47.9816 33.9418 48.0982 33.9037C47.6518 32.5087 47.0746 30.6784 46.4959 28.7976C45.6954 26.1959 44.8834 23.4707 44.4157 21.6747C44.1683 22.5171 43.9008 23.4317 43.6226 24.3875C43.6263 24.4088 43.6285 24.4307 43.6288 24.453C43.6306 24.5641 43.589 24.6657 43.5196 24.7417ZM16.7229 29.9188C16.4371 29.5866 16.1359 29.2681 15.8702 29.0413C15.7756 28.9606 15.6917 28.8969 15.6198 28.85C15.6255 29.0023 15.6613 29.128 15.7155 29.2347C15.8564 29.5115 16.1588 29.7242 16.5653 29.868C16.6173 29.8864 16.67 29.9033 16.7229 29.9188ZM16.534 31.2351C15.9279 31.1768 15.2283 31.1106 14.59 31.0522C13.9489 30.9935 13.3871 30.9446 13.0394 30.9182C13.0175 31.0149 12.9909 31.1248 12.9608 31.2446C12.8746 31.5879 12.7558 32.0258 12.6248 32.4939C12.4137 33.2485 12.1687 34.0884 11.9719 34.7516C12.6649 34.8807 13.4604 35.0304 14.3036 35.1911C14.5406 35.0309 14.76 34.8652 14.9631 34.6957C14.8781 34.6814 14.795 34.6675 14.7141 34.654C14.4864 34.616 14.3325 34.4006 14.3705 34.1729C14.4084 33.9451 14.6238 33.7913 14.8516 33.8292C15.118 33.8736 15.4082 33.9228 15.7142 33.9757C16.0294 33.6276 16.2869 33.2741 16.4956 32.9289C16.314 32.9032 16.1363 32.8785 15.9637 32.855C15.9106 32.8877 15.8579 32.9173 15.8059 32.9433C15.6008 33.0459 15.3516 32.9639 15.2471 32.7604C15.1069 32.7425 14.9724 32.7256 14.8447 32.71C14.4741 32.6645 14.1611 32.6289 13.9288 32.6047C13.8125 32.5926 13.7176 32.5835 13.6464 32.5775C13.6107 32.5745 13.5822 32.5723 13.5607 32.571C13.5396 32.5697 13.5288 32.5694 13.5288 32.5694C13.2979 32.5694 13.1106 32.3822 13.1106 32.1513C13.1106 31.9204 13.2978 31.7333 13.5287 31.7333C13.6657 31.7333 14.2165 31.7905 14.9466 31.8801C15.1925 31.9103 15.463 31.9447 15.7515 31.9829C15.8936 31.8709 16.052 31.7282 16.2192 31.5624C16.3251 31.4575 16.4309 31.347 16.534 31.2351ZM16.8318 32.1324C16.8727 32.0916 16.9135 32.0501 16.954 32.0083C16.9364 32.0525 16.9181 32.0971 16.899 32.1421C16.8766 32.1389 16.8542 32.1356 16.8318 32.1324ZM17.3838 33.0595C17.4434 33.0686 17.5031 33.0778 17.5631 33.087C18.573 33.2432 19.6199 33.4247 20.5205 33.6183C21.4341 33.8146 22.1573 34.0154 22.5459 34.2009C22.7543 34.3003 23.0038 34.212 23.1033 34.0036C23.2027 33.7952 23.1144 33.5457 22.906 33.4462C22.4184 33.2136 21.6061 32.9964 20.6962 32.8008C19.7911 32.6063 18.7496 32.4252 17.7493 32.2698C17.8666 31.967 17.9528 31.6779 18.0131 31.4107C19.5217 31.7804 22.6308 32.4982 24.3825 32.8991C24.3314 33.4869 24.1602 34.262 23.9429 35.0502C23.7382 35.7928 23.5005 36.5188 23.3086 37.0603C23.245 37.0424 23.1782 37.0245 23.1093 37.0064C22.8207 36.9309 22.4452 36.8418 22.0063 36.7432C21.1277 36.5457 19.9823 36.3072 18.7428 36.0579C17.6698 35.8421 16.5245 35.6179 15.4179 35.4046C15.6298 35.2321 15.8265 35.0554 16.0089 34.8759C17.0374 35.0571 18.1882 35.272 19.1894 35.4865C19.918 35.6426 20.5572 35.7964 21.0099 35.9348C21.239 36.0048 21.4034 36.0658 21.5041 36.1149C21.5146 36.12 21.5235 36.1245 21.531 36.1286C21.6041 36.2504 21.7374 36.3319 21.8898 36.3319C22.1207 36.3319 22.3079 36.1447 22.3079 35.9138C22.3079 35.696 22.1659 35.5612 22.1085 35.5124C22.0354 35.4501 21.9488 35.4015 21.8705 35.3633C21.71 35.2851 21.4956 35.2089 21.2543 35.1352C20.7664 34.9861 20.0991 34.8264 19.3646 34.6689C18.5154 34.487 17.5626 34.3053 16.6672 34.1439C16.9544 33.7815 17.1909 33.4163 17.3838 33.0595ZM19.0084 29.4982C19.3887 29.3133 19.758 29.1055 20.0579 28.887C20.3107 28.7029 20.4872 28.5302 20.5845 28.3802C20.6619 28.261 20.6728 28.1847 20.6644 28.1324C20.6349 28.1405 20.5921 28.1556 20.5337 28.1838C20.2627 28.3148 19.8957 28.6097 19.5072 28.9855C19.3361 29.1509 19.1672 29.3257 19.0084 29.4982ZM25.924 23.3994C26.0024 23.379 26.0823 23.3545 26.162 23.3256C26.3703 23.2501 26.5593 23.1504 26.7128 23.0243C26.4778 23.0867 26.2115 23.18 25.9753 23.2742C25.9581 23.3162 25.941 23.3579 25.924 23.3994ZM25.3675 22.553C25.2085 22.2476 24.9968 21.8988 24.7979 21.6732C24.7759 21.6481 24.7557 21.6266 24.7374 21.6082C24.7321 21.6672 24.7336 21.7413 24.7463 21.8331C24.7719 22.0171 24.8373 22.233 24.9321 22.4638C25.0063 22.6441 25.0945 22.8245 25.1865 22.994C25.2134 22.9282 25.2406 22.8619 25.2679 22.7953C25.3009 22.715 25.3341 22.6341 25.3675 22.553ZM27.7386 19.7982C28.0712 19.7263 28.4071 19.6336 28.6993 19.5193C29.0134 19.3964 29.2347 19.2646 29.3555 19.1401C29.458 19.0344 29.4589 18.9733 29.4363 18.9056C29.4232 18.8664 29.4109 18.8487 29.4061 18.8428C29.4049 18.8413 29.4034 18.8398 29.4034 18.8398L29.4027 18.8391C29.4027 18.8391 29.3693 18.8235 29.2733 18.8408C29.0703 18.8773 28.7785 19.0232 28.4479 19.2477C28.1947 19.4196 27.9465 19.6182 27.7386 19.7982ZM27.377 19.0092C27.526 18.8865 27.6888 18.7598 27.8575 18.6398C28.0825 17.9178 28.1616 17.4507 28.1602 17.1668C28.1597 17.0655 28.1503 17.0046 28.1411 16.9698C28.1337 16.9712 28.1253 16.9732 28.1157 16.9758C28.0542 16.9923 27.9718 17.0272 27.8712 17.0848C27.7158 17.1739 27.5469 17.3001 27.3863 17.4394C27.4022 17.93 27.3957 18.4799 27.377 19.0092ZM28.1228 16.9286C28.1228 16.9286 28.1266 16.9308 28.1309 16.9402C28.1245 16.9341 28.1228 16.9286 28.1228 16.9286ZM26.5072 19.7128C26.5523 18.9316 26.5776 18.0092 26.5432 17.2803C26.5337 17.0793 26.5199 16.8979 26.5016 16.7411C26.4864 16.7747 26.4708 16.8103 26.4547 16.8478C25.9828 17.9488 26.0141 18.6974 26.1832 19.1728C26.2651 19.4032 26.3831 19.5808 26.5072 19.7128ZM26.1296 64.3615C25.7567 64.7309 25.4152 65.097 25.1839 65.3946C25.3067 65.3488 25.4508 65.2895 25.6185 65.2145C25.6952 65.1801 25.7845 65.1185 25.9301 65.0146L25.9385 65.0086C26.0045 64.9616 26.0795 64.9081 26.1619 64.854C26.1418 64.6893 26.1318 64.5237 26.1296 64.3615ZM27.0317 64.9964C27.0304 64.9891 27.0289 64.9818 27.0272 64.9745C27.0158 64.917 27.0059 64.8577 26.9976 64.7966C26.9469 64.424 26.9613 64.0326 27.0032 63.7067L27.2873 63.701C27.5641 64.2602 27.8563 64.965 27.9681 65.5108C27.9994 65.6636 28.0139 65.7917 28.0133 65.8928C28.0129 65.974 28.0029 66.022 27.9949 66.0466C27.9896 66.0469 27.9832 66.0471 27.9755 66.047C27.9468 66.0464 27.9038 66.0415 27.844 66.0266C27.7297 65.998 27.634 65.955 27.5525 65.902C27.2906 65.7317 27.1187 65.4155 27.0317 64.9964ZM26.383 65.7187C26.3185 65.7647 26.2461 65.8158 26.1691 65.864C26.1449 66.0373 26.1311 66.2143 26.1339 66.3727C26.1369 66.5353 26.1571 66.639 26.1755 66.697C26.1788 66.6957 26.1822 66.6942 26.1857 66.6927C26.2978 66.6437 26.4737 66.5225 26.7243 66.277C26.5791 66.1089 26.4678 65.9184 26.383 65.7187ZM56.7913 63.3342C56.7416 63.4075 56.7121 63.472 56.7014 63.5196C56.6975 63.5374 56.6972 63.5478 56.6975 63.5525C56.7001 63.5556 56.7055 63.5611 56.7155 63.5687C56.781 63.6182 56.9764 63.7032 57.4402 63.7174C57.7587 63.7271 58.1758 63.7028 58.7136 63.6293C58.6769 63.5641 58.6482 63.4948 58.6283 63.4215C58.6192 63.388 58.6122 63.3548 58.6072 63.322C58.021 63.3238 57.4117 63.328 56.7913 63.3342ZM59.557 63.3215C59.5711 63.3301 59.5869 63.3391 59.6045 63.3483C59.9404 63.5242 60.7376 63.6741 62.3999 63.5078C62.6297 63.4849 62.8345 63.6525 62.8575 63.8822C62.8805 64.112 62.7129 64.3168 62.4831 64.3398C61.2317 64.465 60.3498 64.4302 59.7456 64.2814C59.1029 64.8917 58.4095 65.5746 57.826 66.1895C57.5693 66.4601 57.34 66.7111 57.1475 66.9333C57.7239 66.5937 58.5516 66.0528 59.6934 65.2536C59.8749 65.1266 60.1239 65.1631 60.2612 65.3369C60.3985 65.5107 60.3764 65.7614 60.2109 65.9085C59.3054 66.7135 58.322 67.65 57.7618 68.3093C58.4027 68.017 59.4291 67.447 60.9673 66.4948C61.1636 66.3732 61.4213 66.4339 61.5428 66.6302C61.6643 66.8265 61.6037 67.0842 61.4074 67.2057C60.3088 67.8858 59.4524 68.3831 58.7997 68.7272C59.2523 68.6016 59.9494 68.3139 60.9843 67.739C61.1666 67.6377 61.3955 67.6862 61.5211 67.8527C61.6466 68.0191 61.6304 68.2526 61.483 68.4C61.3146 68.5683 61.1492 68.7437 61.005 68.9094C61.4651 68.6894 62.1297 68.32 63.0585 67.7484C65.228 66.4133 66.3478 65.8588 67.0989 65.6528C67.4914 65.5451 67.7833 65.5319 68.0601 65.547C68.175 65.5533 68.2689 65.5621 68.3587 65.5705C68.3908 65.5735 68.4223 65.5764 68.4541 65.5792C68.4732 65.4246 68.4913 65.2746 68.5085 65.1288C68.5787 64.5362 68.6346 64.0156 68.6784 63.5596C68.7402 62.9177 68.778 62.4047 68.7985 61.999C68.7981 61.9803 68.799 61.9611 68.8013 61.9414C68.812 61.7167 68.817 61.5284 68.8179 61.3718C68.2701 61.333 67.3697 61.3377 66.4771 61.3723C65.9297 61.3935 65.4018 61.4253 64.9873 61.4621C64.8087 61.4779 64.6541 61.4944 64.5294 61.5109C64.5311 62.0945 64.5318 62.623 64.5318 63.0877C64.5318 63.2164 64.4725 63.338 64.371 63.4172C64.2696 63.4964 64.1372 63.5245 64.0124 63.4933C63.7881 63.4372 63.202 63.3904 62.3125 63.3609C61.5528 63.3357 60.6083 63.3236 59.557 63.3215ZM69.6466 60.9841C69.654 61.129 69.6563 61.3068 69.6522 61.5222C69.8121 61.5169 70.0041 61.514 70.2182 61.5132C70.8458 61.5109 71.6893 61.5265 72.5399 61.5577C73.3898 61.5889 74.2535 61.6358 74.9202 61.6968C75.1627 61.719 75.3841 61.7435 75.5717 61.7706C75.5494 61.6209 75.5208 61.4775 75.4853 61.3412C74.4659 61.0879 72.2002 60.7334 69.6447 60.9491C69.645 60.9545 69.6453 60.96 69.6456 60.9655C69.6461 60.9717 69.6464 60.9779 69.6466 60.9841ZM75.6314 62.6272C75.6264 62.6263 75.6212 62.6253 75.616 62.6244C75.4318 62.5912 75.1679 62.5591 74.844 62.5295C74.199 62.4704 73.3522 62.4242 72.5092 62.3932C71.6669 62.3624 70.835 62.347 70.2213 62.3493C69.9774 62.3502 69.7718 62.3539 69.6152 62.3602C69.5994 62.6101 69.5781 62.8907 69.5507 63.2049C70.6079 63.2626 72.0152 63.3551 73.2437 63.4696C73.9457 63.535 74.5965 63.6082 75.0922 63.6871C75.2635 63.7144 75.4212 63.7432 75.5588 63.7736C75.6058 63.3836 75.6324 62.9974 75.6314 62.6272ZM75.4307 64.602C75.3092 64.5732 75.1516 64.5433 74.9607 64.5128C74.4919 64.4382 73.8624 64.367 73.1662 64.3021C71.9381 64.1877 70.5247 64.0951 69.471 64.0379C69.4463 64.2778 69.4187 64.533 69.3879 64.8042C70.4591 64.914 71.8763 65.08 73.0809 65.2661C73.7647 65.3717 74.3915 65.4856 74.8499 65.6016C74.9691 65.6318 75.0825 65.6635 75.1858 65.697C75.2765 65.3474 75.3606 64.9785 75.4307 64.602ZM74.9563 66.5017C74.8751 66.4744 74.7715 66.4443 74.6448 66.4122C74.2257 66.3061 73.6304 66.197 72.9533 66.0924C71.7622 65.9084 70.3532 65.7435 69.2897 65.6346C69.2725 65.775 69.2546 65.9191 69.2359 66.0668L69.2357 66.068L69.1836 66.4684C69.1652 66.6104 69.1468 66.7555 69.127 66.9039M74.9563 66.5017C74.8812 66.7429 74.806 66.9655 74.7344 67.1638L74.9563 66.5017ZM74.7344 67.1638C74.7217 67.1605 74.7089 67.1574 74.6961 67.1542C74.512 67.1088 74.2917 67.0648 74.0477 67.0223C73.5594 66.9373 72.9579 66.8553 72.3258 66.78C71.2501 66.6519 70.0715 66.5416 69.1836 66.4684M75.6429 64.6659C75.6485 64.6685 75.6491 64.6692 75.6491 64.6692C75.6491 64.6692 75.6461 64.6678 75.6429 64.6659ZM65.7139 51.5261C66.1928 51.6628 66.6636 51.7665 67.0461 51.7984C67.2461 51.8151 67.4003 51.8101 67.5085 51.7896C67.5612 51.7797 67.5923 51.7682 67.6092 51.7603C67.6084 51.7516 67.6068 51.7398 67.6037 51.7244C67.5932 51.6729 67.5681 51.6002 67.5193 51.5036C67.342 51.5398 67.1602 51.5622 66.979 51.5743C66.5724 51.6015 66.1391 51.5789 65.7139 51.5261ZM67.5974 50.62C67.5919 50.6217 67.5865 50.6234 67.5811 50.6253C67.3961 50.6844 67.1756 50.7231 66.9232 50.74C66.3157 50.7807 65.6123 50.6897 64.986 50.5526C65.4272 50.2585 65.9163 49.9634 66.3909 49.7262C67.0323 49.4057 67.578 49.2272 67.9309 49.2378C68.0941 49.2427 68.1642 49.2863 68.1978 49.3222C68.2337 49.3603 68.2943 49.46 68.2943 49.7098C68.2943 50.0838 68.158 50.2998 67.9549 50.4455C67.8578 50.5153 67.7381 50.5737 67.5974 50.62ZM64.8379 49.6514C65.1427 49.4579 65.4633 49.2685 65.7841 49.0983C65.778 48.6948 65.7571 48.3794 65.7255 48.1392C65.7118 48.0358 65.6968 47.9515 65.6818 47.8834C65.4953 48.1456 65.2748 48.5862 65.0508 49.12C64.9785 49.2921 64.9072 49.4706 64.8379 49.6514ZM44.6278 14.6869C44.5244 14.5289 44.438 14.4258 44.3695 14.3626C44.3625 14.3562 44.356 14.3504 44.35 14.3452C44.3374 14.3684 44.3224 14.4001 44.3061 14.4427C44.2987 14.4619 44.2917 14.4819 44.285 14.5025C44.3898 14.5331 44.4853 14.5787 44.5698 14.6404C44.5902 14.6553 44.6096 14.6708 44.6278 14.6869ZM43.7394 15.3062C43.6986 15.3126 43.6541 15.3212 43.6056 15.3325C43.637 15.3422 43.6688 15.3516 43.7006 15.3606C43.7131 15.3422 43.726 15.324 43.7394 15.3062ZM44.2888 14.3023C44.2888 14.3023 44.2908 14.3025 44.2951 14.3048C44.2911 14.3037 44.2888 14.3023 44.2888 14.3023ZM47.6597 17.6585L47.6602 17.6567L47.6597 17.6585ZM57.8101 12.9776C57.8883 13.0036 57.9624 13.0395 58.0306 13.0869C58.2114 13.2126 58.3071 13.3891 58.3452 13.5624C58.3698 13.6741 58.3714 13.7861 58.3594 13.8918C58.4062 13.9216 58.4504 13.957 58.4913 13.9986C58.6616 14.1723 58.7097 14.3902 58.7142 14.564C58.7164 14.6516 58.7081 14.7403 58.6925 14.827L58.6934 14.8272C58.9221 14.887 59.147 14.9846 59.2881 15.0571C59.455 15.1429 59.5443 15.3292 59.5066 15.513C59.4761 15.6615 59.4019 15.8039 59.3243 15.9253C59.2429 16.0529 59.1384 16.1869 59.0195 16.3224C58.7813 16.5938 58.4658 16.8929 58.1084 17.1868C57.6557 17.5593 57.1246 17.9324 56.5799 18.2368C55.8767 18.6296 55.0952 18.9393 54.4117 18.9307C54.0597 18.9263 53.7098 18.8368 53.4179 18.6064C53.1246 18.375 52.9332 18.0355 52.8366 17.6123C52.6343 16.7254 52.8465 15.9118 53.2489 15.219C53.6084 14.6001 54.124 14.0681 54.653 13.6388C55.2383 13.1639 55.8589 12.7993 56.3491 12.5706C56.5215 12.4086 56.7074 12.2829 56.9093 12.2372C57.1738 12.1774 57.4071 12.2677 57.5648 12.4385C57.6986 12.5835 57.7622 12.7669 57.7952 12.9072C57.8007 12.9306 57.8056 12.9541 57.8101 12.9776ZM56.9866 13.1229C56.9573 13.1467 56.9233 13.1773 56.8843 13.2162C56.8487 13.2519 56.8069 13.2808 56.761 13.3015C56.3808 13.4735 55.8889 13.7505 55.4055 14.1123C55.4132 14.1088 55.4213 14.1052 55.4295 14.1015C55.473 14.0817 55.4947 14.0711 55.5185 14.0595C55.5411 14.0485 55.5656 14.0366 55.6123 14.015C55.6744 13.9863 55.7569 13.9502 55.8442 13.9273C55.9293 13.9049 56.0634 13.8827 56.2096 13.9289C56.373 13.9804 56.485 14.0952 56.5517 14.2235C56.6121 14.3395 56.6381 14.4693 56.6504 14.591C56.6631 14.7172 56.6637 14.8645 56.6547 15.0331C56.6456 15.2048 56.6995 15.2857 56.785 15.3562C56.9012 15.4522 57.0732 15.5223 57.318 15.6136L57.3364 15.6205C57.443 15.6602 57.5646 15.7055 57.6765 15.7572C57.7943 15.8117 57.9285 15.8851 58.043 15.9912C58.0671 16.0136 58.0905 16.0375 58.1127 16.063C58.2171 15.9608 58.3105 15.8627 58.3911 15.7709C58.4313 15.7251 58.4675 15.6817 58.4999 15.6409C58.4939 15.6393 58.4878 15.6377 58.4818 15.6361C58.4042 15.6158 58.3461 15.6077 58.3094 15.6074L58.3057 15.6074C58.1531 15.6914 57.9618 15.6724 57.8283 15.5551C57.682 15.4266 57.6439 15.2141 57.7363 15.0427C57.7731 14.9743 57.8117 14.8875 57.8396 14.7989C57.8667 14.7127 57.8782 14.6425 57.8784 14.5942C57.8687 14.5934 57.857 14.5929 57.8429 14.5929C57.698 14.5929 57.5634 14.5178 57.4873 14.3946C57.4111 14.2713 57.4042 14.1174 57.4689 13.9878C57.4901 13.9456 57.5103 13.8917 57.5216 13.839C57.5284 13.8072 57.5304 13.7831 57.5305 13.7666C57.5105 13.7618 57.4769 13.7567 57.4248 13.7567C57.1939 13.7567 57.0068 13.5696 57.0068 13.3387C57.0068 13.2675 57.0002 13.1906 56.9866 13.1229ZM57.4791 16.6208C57.4797 16.6162 57.48 16.6125 57.4801 16.6097C57.4787 16.6083 57.4771 16.6067 57.475 16.6047C57.4534 16.5848 57.4095 16.5549 57.3255 16.5161C57.2434 16.4781 57.1489 16.4429 57.0312 16.399L57.01 16.3911C56.7937 16.3105 56.4907 16.1976 56.2527 16.001C55.978 15.7743 55.7956 15.4442 55.8198 14.9888C55.8227 14.9328 55.8242 14.8834 55.8246 14.8399C55.809 14.8472 55.7929 14.8547 55.7766 14.8622C55.6402 14.9244 55.4314 15.0109 55.1964 15.0109C55.021 15.0109 54.842 14.9691 54.6939 14.8529C54.6693 14.8336 54.6469 14.8132 54.6264 14.7921C54.4871 14.9357 54.3567 15.0856 54.2385 15.2411C54.2875 15.2598 54.3375 15.2782 54.3877 15.2959C54.6375 15.3837 54.8287 15.429 54.9165 15.429C55.0856 15.429 55.238 15.5308 55.3027 15.6871C55.3674 15.8433 55.3316 16.0231 55.2121 16.1426C55.1521 16.2027 55.1071 16.2763 55.0819 16.3473C55.0617 16.4043 55.0588 16.4459 55.0603 16.4693C55.0873 16.4739 55.1448 16.4773 55.2462 16.4554C55.7858 16.3387 56.1791 16.6051 56.4128 16.9115C56.4927 17.0162 56.5583 17.1298 56.6116 17.2435C56.9159 17.049 57.2104 16.8361 57.4791 16.6208ZM55.8818 17.6608C55.8465 17.5742 55.8017 17.489 55.748 17.4186C55.6454 17.284 55.5521 17.2446 55.4229 17.2726C55.1595 17.3296 54.8985 17.3253 54.6743 17.2158C54.4369 17.1 54.2991 16.8946 54.248 16.6748C54.2068 16.4979 54.2196 16.3135 54.2709 16.1385C54.2153 16.1208 54.1613 16.1026 54.1104 16.0847C54.0053 16.0477 53.9015 16.008 53.8045 15.9688C53.605 16.4285 53.5352 16.9153 53.6518 17.4263C53.7165 17.7097 53.8259 17.8633 53.9358 17.9501C54.0472 18.038 54.203 18.0919 54.4223 18.0947C54.814 18.0996 55.3253 17.9396 55.8818 17.6608ZM58.1079 24.721C58.2048 24.8004 58.2609 24.9191 58.2609 25.0443V27.1346C58.2609 27.3655 58.0738 27.5527 57.8429 27.5527H55.7526C55.5607 27.5527 55.3935 27.4221 55.347 27.236L54.9289 25.5638C54.8977 25.4389 54.9258 25.3066 55.005 25.2051C55.0842 25.1036 55.2058 25.0443 55.3345 25.0443C55.3834 25.0443 55.5092 25.0318 55.7099 25.0029C55.9005 24.9754 56.1336 24.937 56.3808 24.8938C56.8748 24.8074 57.4148 24.7036 57.7609 24.6344C57.8837 24.6098 58.0111 24.6416 58.1079 24.721ZM59.5151 25.0443C59.5151 24.8134 59.7023 24.6263 59.9332 24.6263C60.0657 24.6263 60.1923 24.6745 60.2729 24.709C60.3679 24.7496 60.4716 24.8043 60.577 24.865C60.7888 24.9871 61.0379 25.1518 61.291 25.3288C61.3088 25.3412 61.3265 25.3537 61.3443 25.3662C61.4971 25.2107 61.6467 25.0678 61.7829 24.9532C61.8753 24.8754 61.9709 24.8025 62.0637 24.7469C62.1403 24.701 62.2792 24.6263 62.4415 24.6263C62.6724 24.6263 62.8596 24.8134 62.8596 25.0443C62.8596 25.2537 62.7056 25.4272 62.5047 25.4576C62.5014 25.4595 62.4977 25.4616 62.4934 25.4642C62.4545 25.4875 62.3972 25.529 62.3215 25.5927C62.2341 25.6663 62.1346 25.759 62.0269 25.8656C62.2831 26.059 62.5195 26.2436 62.7027 26.3901C62.883 26.5343 62.9122 26.7974 62.768 26.9777C62.6237 27.158 62.3606 27.1872 62.1804 27.043C61.9848 26.8866 61.7272 26.6858 61.4514 26.4789C61.1586 26.8083 60.8768 27.1469 60.6777 27.3958C60.5334 27.5761 60.2704 27.6053 60.0901 27.4611C59.9098 27.3168 59.8805 27.0538 60.0248 26.8735C60.2177 26.6324 60.4864 26.3087 60.7713 25.9857C60.5419 25.8263 60.3304 25.688 60.1594 25.5894C60.0684 25.537 59.9964 25.5001 59.9439 25.4776C59.9223 25.4684 59.9084 25.4635 59.9011 25.4612C59.6852 25.4448 59.5151 25.2644 59.5151 25.0443ZM55.8565 25.8265L56.079 26.7166H57.4248V25.552C57.1434 25.6058 56.8261 25.6647 56.5248 25.7174C56.285 25.7593 56.0531 25.7977 55.8565 25.8265ZM54.0761 26.6574C54.1088 26.886 53.95 27.0978 53.7214 27.1304L50.795 27.5485C50.5664 27.5811 50.3547 27.4223 50.322 27.1937C50.2894 26.9652 50.4482 26.7534 50.6768 26.7208L53.6032 26.3027C53.8317 26.27 54.0435 26.4289 54.0761 26.6574ZM27.1646 33.4373C27.3208 33.3726 27.5006 33.4084 27.6202 33.5279C27.6965 33.6043 27.7773 33.72 27.8501 33.8318C27.9293 33.9534 28.0212 34.1053 28.1211 34.2772C28.3212 34.6215 28.5617 35.0603 28.8117 35.5289C29.2074 36.2705 29.6311 37.0943 29.9638 37.7521L32.9021 35.1812C33.0476 35.0539 33.2613 35.0429 33.419 35.1546C33.5768 35.2663 33.6373 35.4716 33.5656 35.6511L32.0631 39.4073L35.8059 40.5301C35.9785 40.5819 36.0985 40.7384 36.1036 40.9186C36.1088 41.0987 35.998 41.2619 35.8286 41.3234L31.5303 42.8865L31.9218 47.5848C31.9373 47.7705 31.8279 47.944 31.6537 48.0103C31.4796 48.0765 31.2825 48.0194 31.1707 47.8703L28.9516 44.9115L24.6938 49.1693C24.5567 49.3064 24.3433 49.3312 24.1784 49.2293C24.0135 49.1273 23.9403 48.9254 24.0016 48.7415L25.9772 42.8146L22.1209 40.8864C21.959 40.8054 21.8676 40.6294 21.8945 40.4503C21.9214 40.2713 22.0606 40.1299 22.2392 40.1001L26.9065 39.3223V33.8236C26.9065 33.6545 27.0084 33.502 27.1646 33.4373ZM27.7427 35.3095V39.6764C27.7427 39.8808 27.5949 40.0552 27.3933 40.0888L23.6448 40.7135L26.6754 42.2289C26.8615 42.3219 26.9509 42.5376 26.8851 42.735L25.3548 47.3258L28.7012 43.9794C28.7869 43.8937 28.9056 43.8494 29.0265 43.858C29.1474 43.8666 29.2586 43.9272 29.3313 44.0242L30.9679 46.2064L30.6705 42.6375C30.6548 42.4495 30.767 42.2744 30.9443 42.2099L34.3578 40.9686L31.3851 40.0768C31.2727 40.0431 31.1796 39.9637 31.1286 39.858C31.0777 39.7523 31.0734 39.6301 31.117 39.5211L32.1429 36.9565L30.1082 38.7368C30.0108 38.8221 29.8793 38.8574 29.7523 38.8324C29.6252 38.8074 29.5169 38.725 29.459 38.6092C29.1117 37.9145 28.57 36.8519 28.0741 35.9225C27.9599 35.7085 27.8484 35.5022 27.7427 35.3095ZM34.7018 56.0798C34.7956 56.1592 34.8496 56.2759 34.8496 56.3988V58.071C34.8496 58.2801 34.6952 58.457 34.4881 58.4852C32.9524 58.6946 30.6269 58.988 28.6414 59.1872C27.6497 59.2867 26.7365 59.3634 26.0471 59.394C25.7038 59.4092 25.4061 59.4135 25.1784 59.4019C25.0656 59.3961 24.9576 59.3859 24.8647 59.3676C24.8183 59.3584 24.7658 59.3453 24.7138 59.3253C24.6671 59.3072 24.5898 59.2719 24.5206 59.2027C24.278 58.9601 24.1486 58.6339 24.0777 58.3661C24.005 58.0916 23.9801 57.8255 23.9801 57.6529C23.9801 57.4221 24.1673 57.2349 24.3982 57.2349C25.3687 57.2349 27.2219 57.0303 29.1711 56.7683C31.1098 56.5077 33.1121 56.1949 34.3629 55.9864C34.4841 55.9662 34.608 56.0003 34.7018 56.0798ZM24.8638 58.0597C24.8704 58.0902 24.8777 58.1211 24.8859 58.1521C24.9303 58.3198 24.9913 58.458 25.0619 58.5531C25.0992 58.5583 25.1515 58.5633 25.221 58.5668C25.4091 58.5765 25.6758 58.5735 26.0101 58.5587C26.6759 58.5292 27.5708 58.4543 28.5579 58.3553C30.3804 58.1724 32.4955 57.9092 34.0135 57.7057V56.8913C32.7582 57.0958 30.9964 57.3666 29.2824 57.597C27.6056 57.8223 25.9507 58.0125 24.8638 58.0597Z"
        fill="currentColor"/>
</svg>
