<svg width="80" height="80" viewBox="0 0 80 80" fill="none" xmlns="http://www.w3.org/2000/svg">
<path fill-rule="evenodd" clip-rule="evenodd" d="M30.0436 8.11866C29.9466 8.02553 29.8113 7.98369 29.6787 8.0058C21.4447 9.37814 14.5252 12.5781 12.0726 14.0208C11.9425 14.0973 11.8627 14.237 11.8627 14.3879C11.8627 14.9135 12.0051 15.5681 12.2262 16.2782C12.4496 16.9959 12.7635 17.8012 13.1279 18.639C13.857 20.3148 14.7994 22.1449 15.6579 23.7048C16.1643 24.6252 16.643 25.4541 17.0336 26.1052C17.1418 26.2854 17.3624 26.357 17.5523 26.2833C18.43 29.6283 19.1765 32.0926 19.8084 33.8717C20.1308 34.7793 20.4262 35.5172 20.6977 36.1066H18.6764C18.5151 36.1066 18.3676 36.1978 18.2955 36.3421C18.0992 36.7347 17.9081 37.4141 17.7267 38.2105C17.5418 39.0217 17.3574 39.9991 17.1843 41.0179C16.9527 42.3814 16.7399 43.8269 16.5723 45.0608L15.6656 42.764C15.5973 42.5909 15.4244 42.4822 15.2387 42.4956C15.053 42.5091 14.8976 42.6416 14.855 42.8228C14.5718 44.0264 14.1261 45.8304 13.7094 47.3312C13.5158 48.0283 13.3303 48.6534 13.1716 49.1208C12.9978 48.6093 12.7696 47.8906 12.4987 47.0075C11.9249 45.1369 11.1645 42.5447 10.3342 39.6618C8.7237 34.0697 6.85257 27.3919 5.57595 22.7864L6.85565 22.4665C6.98736 22.4335 7.09547 22.3398 7.14671 22.2141C7.19797 22.0884 7.1862 21.9458 7.11505 21.8301C5.97108 19.9712 3.63025 16.1344 3.30054 15.475C3.22084 15.3156 3.05032 15.2227 2.87318 15.2421C2.69602 15.2616 2.54972 15.3893 2.5065 15.5622C2.21234 16.7388 1.72384 19.9113 2.07004 23.3733C2.08292 23.5021 2.15366 23.618 2.2623 23.6884C2.37093 23.7587 2.50567 23.7758 2.62845 23.7349L4.75825 23.025C6.03525 27.6317 7.90548 34.3062 9.51579 39.8975C10.3464 42.7815 11.1084 45.3794 11.6844 47.2573C11.9722 48.1955 12.2148 48.9579 12.3968 49.4875C12.4874 49.7509 12.5655 49.9642 12.6283 50.1146C12.6589 50.1878 12.691 50.2588 12.7236 50.3163C12.7388 50.3432 12.7636 50.3844 12.798 50.4244C12.8151 50.4442 12.8455 50.4768 12.8898 50.5073C12.9311 50.5358 13.0184 50.5858 13.1402 50.5858C13.2774 50.5858 13.3774 50.5262 13.4296 50.4872C13.4842 50.4464 13.5242 50.4002 13.5509 50.3657C13.6047 50.2962 13.6503 50.2133 13.6885 50.1355C13.7671 49.9755 13.8517 49.7582 13.9389 49.5086C14.1148 49.005 14.32 48.3155 14.5301 47.5591C14.8167 46.5265 15.1163 45.3546 15.3681 44.33L16.3449 46.8045C15.8564 50.2637 14.9029 60.7059 14.4523 65.8912C14.1311 65.8999 13.8307 65.9085 13.5532 65.9169C13.3747 65.9223 13.2186 66.0385 13.1621 66.2079C12.967 66.7932 12.9342 67.5295 12.9596 68.1798C12.9854 68.8392 13.0735 69.4578 13.1485 69.833C13.1869 70.0247 13.3508 70.1657 13.5462 70.1748C17.6417 70.3668 20.8819 70.5204 23.4632 70.6427C29.4675 70.9272 31.9062 71.0428 33.2502 71.0801C34.1755 71.1058 34.5899 71.0946 35.2749 71.0762L35.3761 71.0735C36.1179 71.0536 37.2053 71.027 39.5435 71.027H64.6691C64.782 71.027 64.8904 70.9822 64.9702 70.9023C65.0886 70.7839 65.1521 70.6216 65.1901 70.5046C65.2337 70.371 65.269 70.2134 65.2987 70.046C65.3583 69.7099 65.4021 69.2915 65.4345 68.8547C65.4994 67.9786 65.5208 66.988 65.5208 66.3426C65.5208 66.1074 65.3301 65.9167 65.0949 65.9167C64.7508 65.9167 64.5374 65.9333 64.3559 65.9652C64.3009 65.9748 64.242 65.9878 64.1834 66.0017C63.5357 60.6545 63.1382 57.3049 62.9045 55.2997C62.7843 54.2681 62.7074 53.5927 62.6621 53.1845C62.6451 53.0306 62.6326 52.9153 62.6239 52.8333C63.037 52.2512 63.4197 51.7103 63.7394 51.2573C63.8204 51.1425 63.8396 50.9951 63.7907 50.8634C63.7418 50.7317 63.6311 50.6326 63.4948 50.5985L62.3538 50.3133C62.2105 49.2176 61.959 47.1644 61.8453 45.7591C63.1946 41.4719 64.8927 35.9292 65.9776 32.3605C66.0548 32.5547 66.1393 32.7618 66.2294 32.9789C66.5759 33.8133 67.0195 34.8262 67.4958 35.8871C68.4486 38.0095 69.5359 40.3334 70.2466 41.8259C70.3107 41.9605 70.4405 42.0517 70.5888 42.0666C70.7371 42.0814 70.8824 42.0176 70.9718 41.8983C71.0934 41.7362 71.1974 41.4948 71.2908 41.2319C71.3885 40.9569 71.4895 40.6139 71.593 40.2174C71.8001 39.4237 72.0233 38.3905 72.2535 37.206C72.7143 34.8355 73.2077 31.8346 73.6604 28.8783C74.1134 25.921 74.5262 23.0041 74.8259 20.7999C74.9758 19.6977 75.0974 18.7732 75.1816 18.1104C75.2237 17.7792 75.2565 17.5125 75.2789 17.3214C75.2989 17.1502 75.3155 17.0018 75.3155 16.943C75.3155 16.7078 75.1249 16.5172 74.8897 16.5172C74.6545 16.5172 74.4638 16.7078 74.4638 16.943C74.4638 16.943 74.4632 16.9473 74.4617 16.962C74.4582 16.9962 74.4499 17.0778 74.4329 17.2224C74.411 17.4095 74.3786 17.6731 74.3366 18.0031C74.2528 18.6628 74.1316 19.5848 73.982 20.6851C73.6828 22.8858 73.2706 25.7978 72.8185 28.7494C72.3664 31.7018 71.875 34.6896 71.4175 37.0435C71.1886 38.2211 70.9693 39.2341 70.7688 40.0024C70.7118 40.221 70.6568 40.4178 70.6041 40.5915C69.9248 39.1521 69.0532 37.2767 68.2728 35.5383C67.798 34.4806 67.358 33.476 67.016 32.6523C66.6693 31.8172 66.4359 31.1975 66.3598 30.8931C66.3134 30.7073 66.1486 30.5753 65.9572 30.5706C65.7657 30.5659 65.5946 30.6896 65.5391 30.8728C64.6234 33.8945 62.9754 39.2904 61.5555 43.8363C61.2229 41.5934 60.8364 38.6542 60.8364 37.3842C60.8364 37.149 60.6457 36.9584 60.4105 36.9584H57.5661C57.7904 36.6822 58.0198 36.3825 58.2537 36.0644C59.9668 33.7348 61.9438 30.329 63.3299 27.727C63.4026 27.7896 63.4697 27.8489 63.5309 27.9046C63.6991 28.0575 63.9578 28.0514 64.1185 27.8906C64.4657 27.5434 64.9017 26.9746 65.3745 26.2964C66.9331 24.0611 69.0631 20.3869 70.1517 18.4274C70.2375 18.2729 70.219 18.0815 70.1051 17.9463C64.5829 11.3887 57.7308 8.87161 54.9408 8.43107C54.7389 8.3992 54.5429 8.5152 54.4737 8.70747C52.8532 13.2087 51.7191 16.0767 50.9702 17.8184C50.6367 18.594 50.3811 19.1425 50.1944 19.5106C50.1009 19.6949 50.0266 19.8301 49.97 19.9242C49.9229 20.0026 49.897 20.0373 49.8898 20.0468C49.8874 20.05 49.8871 20.0504 49.8888 20.0488C49.7844 20.1531 49.7415 20.3041 49.7754 20.4477C49.8094 20.5914 49.9152 20.7072 50.0552 20.7539C50.1051 20.7705 50.1549 20.7872 50.2046 20.8039C49.0904 21.8905 47.2487 24.2863 45.5399 28.2734C45.2789 28.8826 45.1104 29.382 45.0293 29.7827C44.9517 30.1667 44.938 30.5344 45.0779 30.8246C45.1537 30.9817 45.2715 31.109 45.4272 31.1912C45.5774 31.2705 45.7381 31.2949 45.8862 31.2924C46.1718 31.2875 46.4835 31.181 46.7822 31.0415C47.3903 30.7576 48.1232 30.2502 48.8413 29.6864C49.2068 29.3995 49.5744 29.0932 49.9273 28.7864C49.7913 29.4056 49.6429 30.0571 49.5026 30.6732C49.4685 30.8228 49.4349 30.9704 49.402 31.1149C49.269 31.7001 49.1485 32.2358 49.0611 32.6523C49.0175 32.8604 48.9815 33.0421 48.9561 33.1871C48.9359 33.303 48.9176 33.4214 48.9133 33.5136C48.7867 34.3623 48.7225 35.0312 48.7138 35.5421C48.706 35.9972 48.7402 36.3807 48.8509 36.6583C43.519 36.4036 33.526 36.0033 29.2529 36.1711C29.596 34.46 29.8834 32.0834 30.0863 29.8895C30.8428 30.7236 31.4535 31.3266 31.9395 31.7312C32.2483 31.9882 32.5227 32.1787 32.7644 32.2953C32.9917 32.405 33.2708 32.4887 33.5411 32.3978C33.8477 32.2946 33.981 32.0289 34.031 31.805C34.0801 31.5855 34.0713 31.3292 34.0381 31.0721C33.9706 30.5506 33.7814 29.8784 33.5333 29.1527C32.7524 26.8681 31.2896 23.7804 30.6595 22.4751C30.7453 22.4631 30.8262 22.425 30.8906 22.365C30.9772 22.2844 31.0263 22.1715 31.0263 22.0533C31.0263 20.9775 30.8816 20.0457 30.74 19.1342C30.7115 18.9504 30.6831 18.7674 30.656 18.5842C30.6354 18.445 30.6155 18.3053 30.5967 18.1643C29.9186 13.0784 30.0351 9.56792 30.1713 8.47868C30.188 8.34525 30.1406 8.21178 30.0436 8.11866ZM29.7071 22.4633C29.7084 22.4659 29.7096 22.4685 29.7109 22.4711C30.1913 23.4615 31.8735 26.9299 32.7274 29.4282C32.9711 30.141 33.1373 30.7474 33.1934 31.1813C33.2158 31.3544 33.2175 31.4784 33.209 31.5607C33.1883 31.5528 33.1636 31.5423 33.1345 31.5282C32.9824 31.4549 32.7692 31.3136 32.4844 31.0766C31.9174 30.6046 31.13 29.8065 30.0701 28.5876C29.9577 28.4584 29.779 28.4091 29.6163 28.4623C29.4535 28.5156 29.3385 28.6611 29.3243 28.8317C29.1017 31.5028 28.7411 34.6208 28.3079 36.5189C28.3063 36.525 28.3049 36.5312 28.3036 36.5375C28.3012 36.548 28.2988 36.5585 28.2964 36.569C28.1869 37.0417 28.0764 37.4202 27.9682 37.6881C27.9478 37.7385 27.9283 37.7831 27.9097 37.8224C27.8225 37.6278 27.722 37.3185 27.6148 36.8612C27.3372 35.6758 27.05 33.656 26.766 30.5319C26.7447 30.2977 26.5375 30.1251 26.3033 30.1464C26.0691 30.1677 25.8964 30.3748 25.9177 30.609C26.1943 33.6515 26.4772 35.6922 26.7611 36.949C26.6746 37.255 26.5731 37.5367 26.4635 37.7592C26.3556 37.9783 26.2653 38.0871 26.2138 38.1312C26.2028 38.1214 26.1888 38.1075 26.1719 38.088C26.0464 37.9432 25.8749 37.6203 25.6862 37.0035C25.3315 35.8445 24.9657 33.8221 24.6363 30.5281C24.6129 30.2941 24.4042 30.1233 24.1702 30.1467C23.9362 30.1702 23.7654 30.3788 23.7888 30.6129C24.112 33.8447 24.4748 35.9158 24.8462 37.1681C24.8068 37.5105 24.7456 37.8137 24.6671 38.0299C24.6443 38.0928 24.6224 38.1415 24.6029 38.1784C24.5506 38.1243 24.4811 38.0364 24.3963 37.8994C24.1741 37.5401 23.8988 36.929 23.5708 35.969C23.1495 34.7358 22.6524 32.9605 22.0721 30.4737C22.0187 30.2447 21.7897 30.1023 21.5606 30.1558C21.3316 30.2092 21.1892 30.4382 21.2427 30.6673C21.813 33.1114 22.3079 34.8918 22.7354 36.1577C22.7089 36.4247 22.6691 36.6681 22.6167 36.87C22.5599 37.0886 22.4972 37.2226 22.4479 37.2896C22.3972 37.2568 22.3004 37.1761 22.1607 36.9887C22.0416 36.829 21.9094 36.6168 21.7636 36.3432C21.7601 36.3363 21.7565 36.3295 21.7527 36.3228C21.4366 35.7259 21.0571 34.8428 20.611 33.5866C19.9767 31.8007 19.2186 29.294 18.3197 25.8514C23.0531 23.2395 27.4382 22.5197 29.7071 22.4633ZM17.5496 25.3067C17.259 24.8143 16.9302 24.2419 16.5839 23.6193C17.8618 22.7116 19.6907 21.9037 21.6708 21.2214C23.7977 20.4885 26.0618 19.913 27.924 19.5167C28.6485 19.3625 29.3106 19.2358 29.8785 19.1377C29.8859 19.1857 29.8933 19.2335 29.9007 19.2812C30.0204 20.0535 30.1344 20.7894 30.166 21.6092C30.1032 21.6083 30.0385 21.6078 29.9721 21.608C27.615 21.6128 22.7862 22.3409 17.6148 25.2697C17.5931 25.282 17.5714 25.2943 17.5496 25.3067ZM29.7548 18.2947C29.2363 18.384 28.6422 18.4965 27.9958 18.6312C27.9454 18.5303 27.8893 18.3949 27.8348 18.2414C27.7727 18.0662 27.7171 17.88 27.6775 17.7156C27.6358 17.5421 27.6194 17.4228 27.6194 17.3689C27.6194 17.1337 27.4288 16.943 27.1936 16.943C26.9584 16.943 26.7677 17.1337 26.7677 17.3689C26.7677 17.5279 26.8045 17.728 26.8494 17.9147C26.8965 18.1104 26.9608 18.3252 27.0321 18.5262C27.067 18.6243 27.1045 18.7222 27.1438 18.8151C25.3832 19.2084 23.3359 19.7468 21.3933 20.4162C19.4321 21.0919 17.5464 21.9116 16.1713 22.8683C15.3862 21.4215 14.5589 19.7932 13.909 18.2992C13.5516 17.4777 13.2505 16.703 13.0394 16.025C12.866 15.468 12.7598 14.9962 12.7261 14.6268C15.2227 13.2074 21.633 10.298 29.2731 8.9399C29.1631 10.4938 29.155 13.7961 29.7525 18.2769C29.7532 18.2828 29.754 18.2888 29.7548 18.2947ZM28.0718 18.7612C28.0795 18.7704 28.0787 18.7673 28.0694 18.7583L28.0718 18.7612ZM21.1304 36.9584C21.2514 37.1703 21.3671 37.3493 21.4778 37.4977C21.7017 37.7981 21.9549 38.0431 22.2511 38.1283C22.4126 38.1748 22.5806 38.1714 22.7397 38.1099C22.8926 38.0507 23.0095 37.9488 23.0967 37.8423C23.1642 37.7599 23.2215 37.6655 23.2707 37.5643C23.4109 37.882 23.5444 38.1412 23.672 38.3474C23.8078 38.5669 23.9499 38.7483 24.1041 38.876C24.2591 39.0043 24.4632 39.1073 24.7017 39.0838C24.9405 39.0602 25.1112 38.92 25.221 38.784C25.2941 38.6934 25.3535 38.589 25.4026 38.481C25.4435 38.5414 25.4853 38.5963 25.5282 38.6458C25.6552 38.7923 25.814 38.9178 26.0106 38.9719C26.2183 39.0292 26.4164 38.9927 26.5825 38.9051C26.8402 38.7692 27.0295 38.5073 27.1692 38.2489C27.1898 38.2912 27.2107 38.3308 27.2319 38.368C27.3126 38.509 27.4224 38.6575 27.578 38.7515C27.7615 38.8624 27.9772 38.8771 28.174 38.7835C28.3393 38.7049 28.4547 38.5675 28.534 38.4486C28.6181 38.3225 28.6918 38.1707 28.7579 38.0071C28.8654 37.741 28.9661 37.4092 29.0609 37.0318C33.2707 36.8349 44.0442 37.2764 49.3315 37.5342C49.3565 37.8966 49.4227 38.2025 49.546 38.4385C49.6337 38.6065 49.7586 38.7548 49.9316 38.8513C50.1067 38.949 50.2956 38.9738 50.475 38.9534C50.7196 38.9257 50.9634 38.8125 51.1943 38.6618C51.2768 38.9093 51.3936 39.1159 51.5564 39.2676C51.9262 39.6125 52.3869 39.5611 52.759 39.3949C53.1224 39.2326 53.4988 38.927 53.8619 38.5703C53.9786 38.4557 54.0967 38.333 54.2156 38.2037C54.2934 38.3841 54.3981 38.5373 54.5381 38.6524C54.9343 38.9778 55.4101 38.8613 55.7725 38.6644C56.1039 38.4843 56.457 38.1824 56.8172 37.8101H59.9951C60.0802 39.7535 60.6651 43.7363 60.9778 45.6786C60.4975 47.2029 60.0644 48.5583 59.7226 49.5965L59.313 49.4327C59.1365 47.9478 58.8873 45.8318 58.6777 44.0109C58.5668 43.0476 58.4671 42.1676 58.3952 41.5075C58.3592 41.1773 58.3302 40.9032 58.3104 40.7015C58.3004 40.6006 58.2928 40.5192 58.2878 40.4586C58.2853 40.4283 58.2835 40.4045 58.2824 40.3869C58.2814 40.3707 58.2812 40.3643 58.2812 40.3643L58.2812 40.3652C58.2812 40.13 58.0906 39.9394 57.8554 39.9394C47.4818 39.9394 25.586 39.8539 20.836 39.5146C20.6049 39.4981 20.403 39.6694 20.3816 39.9001C20.137 42.5428 19.5591 47.9331 18.9747 51.147L17.2183 46.6975C17.3934 45.2799 17.6891 43.1319 18.024 41.1605C18.1958 40.1493 18.3772 39.1891 18.5571 38.3998C18.6996 37.7743 18.8357 37.2821 18.9571 36.9584H21.1304ZM16.9942 48.4493L18.667 52.6872C18.5111 54.0395 17.9883 58.3545 17.0235 65.8306C16.4142 65.8431 15.8403 65.8561 15.3091 65.8692C15.7087 61.2769 16.4851 52.7607 16.9942 48.4493ZM17.8844 65.8137C18.5995 60.2707 19.0698 56.479 19.3263 54.3573L21.2613 59.2594C21.3476 59.4781 21.595 59.5855 21.8138 59.4991C22.0325 59.4128 22.1399 59.1654 22.0535 58.9466L19.5476 52.5984C20.1993 49.8179 20.8884 43.5635 21.191 40.3908C26.6467 40.7066 47.2415 40.789 57.4633 40.791C57.4836 40.9964 57.5127 41.2717 57.5485 41.5998C57.6207 42.2625 57.7206 43.1445 57.8315 44.1082C58.0204 45.7495 58.2415 47.6298 58.4125 49.0725L58.0135 48.9129C57.8823 48.8604 57.7336 48.8764 57.6166 48.9556C57.4996 49.0348 57.4295 49.1669 57.4295 49.3083C57.4295 49.3766 57.4184 49.6767 57.4015 50.1318C57.3664 51.0804 57.3063 52.7024 57.2699 54.3024C57.2433 55.4745 57.2297 56.6274 57.25 57.4631C57.26 57.8773 57.2786 58.23 57.311 58.4711C57.3257 58.58 57.3486 58.7138 57.3964 58.8206C57.4128 58.8571 57.4781 59.0031 57.6433 59.0774C57.7445 59.1228 57.8576 59.1293 57.9626 59.0966C58.0564 59.0674 58.1202 59.0146 58.1565 58.9783C58.2178 58.917 58.3127 58.7979 58.417 58.6629C58.529 58.5177 58.6728 58.3263 58.8407 58.0994C59.0268 57.8479 59.244 57.5509 59.483 57.2219C59.7832 59.3041 60.4025 63.6745 60.774 66.303C60.5511 66.3088 60.3123 66.314 60.0563 66.3187L60.1736 65.5555C60.1914 65.4397 60.1607 65.3217 60.0887 65.2293C60.0167 65.1368 59.9098 65.0781 59.7932 65.0669L55.3408 64.6411C55.226 64.6301 55.1118 64.6661 55.024 64.7409C54.9363 64.8156 54.8826 64.9227 54.8752 65.0377L54.7914 66.3424C54.1233 66.3422 53.5039 66.3419 52.9253 66.3412L52.7366 65.4066C52.7004 65.2272 52.5536 65.091 52.372 65.0683C51.2519 64.9283 48.7757 64.6392 48.0606 64.6392C47.942 64.6392 47.8288 64.6886 47.7482 64.7756C47.6676 64.8626 47.6269 64.9793 47.636 65.0976C47.6563 65.3623 47.6729 65.7566 47.6588 66.0805C47.655 66.169 47.649 66.2458 47.6416 66.3096C46.9617 66.2994 46.3178 66.2862 45.6652 66.2689C45.6959 66.1706 45.7265 66.0689 45.7553 65.9678C45.8412 65.6664 45.9313 65.3048 45.9313 65.065C45.9313 64.8928 45.8276 64.7375 45.6684 64.6716C45.5303 64.6143 45.3739 64.6343 45.2554 64.7203C45.2314 64.7285 45.1869 64.7408 45.1152 64.7541C44.9637 64.7821 44.7247 64.8084 44.3731 64.8204C43.6713 64.8444 42.5562 64.8105 40.8634 64.6413C40.7323 64.6282 40.6025 64.6765 40.5119 64.7721C40.4212 64.8678 40.38 65 40.4002 65.1302C40.4366 65.3654 40.4795 65.7129 40.4917 65.9939C40.493 66.0223 40.4938 66.0491 40.4944 66.0743C39.8937 66.0478 39.2464 66.0187 38.5403 65.9867C38.5886 65.7032 38.6478 65.3576 38.6856 65.137C38.7057 65.0199 38.676 64.8998 38.6036 64.8056C38.5312 64.7113 38.4228 64.6517 38.3044 64.6409L33.62 64.215C33.3896 64.1941 33.1845 64.361 33.1583 64.5909C33.1326 64.8164 33.1017 65.1689 33.0926 65.4985C33.0899 65.5967 33.0891 65.6958 33.0911 65.7909C32.3961 65.776 31.6872 65.7641 30.9701 65.7548C31.0006 65.5243 31.0263 65.2678 31.0263 65.065C31.0263 64.8502 30.8664 64.6691 30.6533 64.6424C30.0758 64.5703 29.1676 64.4837 28.3134 64.4584C27.8868 64.4457 27.4653 64.448 27.1015 64.4768C26.7547 64.5042 26.4016 64.559 26.1514 64.6841C26.0071 64.7563 25.916 64.9037 25.916 65.065C25.916 65.2393 25.9388 65.4507 25.9569 65.6186C25.9612 65.6583 25.9652 65.6955 25.9686 65.7292C25.379 65.7302 24.7926 65.7325 24.2126 65.7358V64.6392C24.2126 64.5023 24.1467 64.3737 24.0357 64.2937C23.9247 64.2136 23.7819 64.1919 23.652 64.2351C23.3158 64.3472 21.9432 64.554 19.5883 64.2176C19.4448 64.1971 19.3007 64.251 19.2059 64.3607C19.1111 64.4704 19.0786 64.6208 19.1197 64.7598C19.1859 64.9838 19.2628 65.3195 19.2845 65.5993C19.2905 65.6758 19.2915 65.7392 19.2893 65.7895C18.8066 65.7971 18.3374 65.8052 17.8844 65.8137ZM20.1417 65.7766C20.1433 65.6936 20.1397 65.6112 20.1337 65.5333C20.1237 65.4042 20.1052 65.2701 20.0822 65.1395C21.5874 65.3097 22.6917 65.2634 23.3608 65.165V65.7415C22.2509 65.7499 21.1705 65.7621 20.1417 65.7766ZM19.273 65.9077C19.2723 65.9093 19.2717 65.9109 19.2717 65.9109C19.2717 65.9109 19.272 65.9108 19.273 65.9077ZM26.8239 65.7287C26.8232 65.7205 26.8225 65.7124 26.8218 65.7044C26.8146 65.6222 26.8062 65.5451 26.7982 65.4719C26.7946 65.4382 26.791 65.4053 26.7876 65.3732C26.8886 65.3545 27.0151 65.338 27.1686 65.3259C27.4897 65.3005 27.8773 65.2975 28.2882 65.3097C28.9338 65.3288 29.6164 65.3848 30.15 65.4417C30.1391 65.5434 30.1256 65.6476 30.1116 65.745C29.0227 65.7342 27.9202 65.7291 26.8239 65.7287ZM33.9437 65.8109C33.9409 65.7254 33.9411 65.6275 33.944 65.522C33.9479 65.3831 33.9561 65.2381 33.9661 65.1017L37.7683 65.4474C37.7391 65.6182 37.7087 65.7964 37.6829 65.9478L37.0076 65.9172C36.0405 65.8732 35.0118 65.8382 33.9437 65.8109ZM40.8397 66.0894L40.8024 66.9403C42.4972 67.0144 43.8203 67.0669 45.0669 67.1041C46.0142 67.1323 46.9169 67.1518 47.905 67.1651C49.2127 67.1827 50.6696 67.1897 52.5761 67.1925C53.3637 67.1936 54.2282 67.1941 55.1908 67.1942L57.0036 67.1943C57.9925 67.1943 58.8387 67.1886 59.5647 67.1784C60.2301 67.1691 60.7948 67.1561 61.2761 67.1404C62.7697 67.0915 63.4699 67.0164 63.8887 66.9412C63.8918 66.9406 63.895 66.9401 63.8981 66.9395C63.9682 66.9268 64.0304 66.9141 64.0871 66.9015C64.1927 66.878 64.2584 66.861 64.3125 66.847C64.3765 66.8303 64.4243 66.8179 64.5031 66.8041C64.5481 66.7962 64.6001 66.789 64.6661 66.7831C64.6583 67.3779 64.6347 68.1221 64.5851 68.7918C64.5536 69.2173 64.5122 69.6027 64.46 69.8974C64.4402 70.0091 64.4199 70.1018 64.3998 70.1753H39.5435C37.1972 70.1753 36.1021 70.202 35.3533 70.222L35.2516 70.2248C34.5727 70.2431 34.1761 70.2538 33.2739 70.2287C31.9386 70.1916 29.5129 70.0767 23.5214 69.7928C21.0102 69.6738 17.8727 69.5251 13.9266 69.34C13.876 69.0131 13.828 68.5896 13.8106 68.1465C13.7912 67.6502 13.8118 67.1591 13.8953 66.7589M63.3446 66.1597C62.9897 66.2012 62.461 66.2426 61.6302 66.2754C61.1964 63.2054 60.4026 57.6039 60.1994 56.2303C60.7328 55.4889 61.3175 54.6705 61.8829 53.8762C61.9269 54.263 61.9845 54.7635 62.0585 55.3983C62.2933 57.4121 62.6928 60.7794 63.3446 66.1597ZM40.8397 66.0894C41.0125 66.097 41.1814 66.1043 41.3467 66.1114L40.8397 66.0894ZM41.3467 66.1114C41.3464 66.0596 41.3448 66.0077 41.3426 65.9568C41.3368 65.823 41.3252 65.6795 41.311 65.5394C42.736 65.6674 43.7296 65.6946 44.4021 65.6716C44.6188 65.6642 44.8052 65.6515 44.964 65.6347C44.9552 65.667 44.9459 65.7002 44.9362 65.7343C44.8863 65.9093 44.8304 66.0873 44.7789 66.2431C43.7563 66.2108 42.6658 66.1681 41.3467 66.1114ZM48.4966 66.3205C48.5026 66.2531 48.5068 66.1848 48.5097 66.1175C48.5182 65.9223 48.517 65.7102 48.5108 65.5117C49.3745 65.5725 50.9558 65.753 51.9625 65.8759L52.0562 66.3399C50.6682 66.3371 49.5261 66.3316 48.4966 66.3205ZM55.6449 66.3425L55.697 65.5308L59.2633 65.8719L59.1927 66.3313C58.5548 66.3386 57.8296 66.3426 57.0036 66.3426L55.6449 66.3425ZM60.5332 49.8581C60.7271 49.2691 60.9498 48.5798 61.1934 47.8171C61.2856 48.6454 61.3864 49.4675 61.4663 50.0914L60.5332 49.8581ZM54.0755 37.068C54.101 37.0219 54.1347 36.981 54.1749 36.9472C54.226 36.8847 54.2772 36.8212 54.3285 36.7568C55.0519 35.85 55.7775 34.8002 56.3604 33.9569L56.3872 33.9182C56.6784 33.497 56.936 33.1248 57.1345 32.8582C57.2328 32.726 57.3242 32.6095 57.4024 32.5231C57.4406 32.4809 57.4856 32.4346 57.5343 32.3956C57.5586 32.3761 57.5934 32.3506 57.6364 32.3284C57.6748 32.3086 57.7528 32.2739 57.8554 32.2739C58.0906 32.2739 58.2812 32.4646 58.2812 32.6998C58.2812 32.8659 58.1861 33.0098 58.0474 33.08C58.0435 33.0841 58.039 33.089 58.0338 33.0947C57.9839 33.1498 57.9123 33.2396 57.8177 33.3667C57.6302 33.6186 57.3822 33.9767 57.0878 34.4025L57.0547 34.4505C56.4757 35.2881 55.7361 36.358 54.9943 37.288C54.9598 37.3312 54.9253 37.3742 54.8907 37.4169C54.9415 37.821 55.0385 37.9611 55.0788 37.9943L55.0796 37.995C55.0859 38.0002 55.0922 38.0054 55.1214 38.0038C55.1637 38.0015 55.2431 37.9827 55.3659 37.916C55.6144 37.781 55.9374 37.5076 56.3235 37.0931C56.7039 36.6848 57.1236 36.1635 57.5676 35.5598C59.2772 33.2349 61.2744 29.7854 62.6558 27.1804C60.6675 25.6463 56.6315 23.0993 51.1191 21.122C50.2359 21.8605 48.2152 24.1933 46.3228 28.609C46.0728 29.1922 45.9289 29.6315 45.8642 29.9516C45.8039 30.2494 45.8237 30.3897 45.8394 30.4396C45.8472 30.4405 45.8578 30.441 45.8717 30.4408C45.977 30.439 46.1581 30.3929 46.4219 30.2698C46.9388 30.0285 47.6095 29.5706 48.3153 29.0165C49.0152 28.467 49.7277 27.8405 50.3239 27.2794C50.4588 27.1524 50.6604 27.1272 50.8224 27.2171C50.9844 27.307 51.0697 27.4913 51.0334 27.673C50.8454 28.6126 50.5754 29.7981 50.3328 30.863C50.2988 31.0126 50.2652 31.1598 50.2326 31.3037C50.0994 31.8896 49.9804 32.4186 49.8947 32.8271C49.8518 33.0316 49.818 33.2025 49.7951 33.3337C49.7837 33.3993 49.7754 33.4521 49.7702 33.4926C49.7653 33.5304 49.7643 33.5478 49.7641 33.5511C49.7641 33.5722 49.7625 33.5938 49.7593 33.6147C49.6329 34.4574 49.5732 35.0933 49.5654 35.5566C49.5596 35.8943 49.5826 36.1103 49.6113 36.2393C49.6838 36.1804 49.783 36.0847 49.9077 35.9376C50.3147 35.4579 50.8193 34.6473 51.3364 33.7058C51.8496 32.7716 52.3615 31.7339 52.7843 30.8179C52.8828 30.6043 53.1358 30.5111 53.3494 30.6097C53.5629 30.7082 53.6561 30.9613 53.5576 31.1748C53.1287 32.1041 52.6079 33.1603 52.0829 34.1158C51.5621 35.064 51.0233 35.9391 50.5573 36.4886C50.4393 36.6276 50.3121 36.7631 50.1782 36.8755C50.1742 36.9655 50.1721 37.0505 50.1716 37.1308C50.1684 37.6374 50.2328 37.9138 50.3009 38.0443C50.3246 38.0895 50.3419 38.1042 50.3461 38.1072C50.35 38.1081 50.3598 38.1093 50.3789 38.1071C50.4716 38.0966 50.6498 38.0221 50.92 37.8107C50.9672 37.7738 51.0157 37.7339 51.0654 37.6912C51.1113 37.5599 51.2202 37.4563 51.3588 37.4199C51.4984 37.2827 51.6453 37.1276 51.7983 36.9563C53.0995 35.5003 54.6902 33.0535 55.7856 31.2051C55.9055 31.0028 56.1667 30.9359 56.369 31.0558C56.5714 31.1758 56.6382 31.437 56.5183 31.6393C55.4185 33.4952 53.793 36.0024 52.4334 37.5239C52.2613 37.7164 52.091 37.896 51.9243 38.0581C51.9844 38.4318 52.0788 38.5903 52.1372 38.6446L52.1388 38.6462C52.1563 38.6629 52.2052 38.7095 52.4117 38.6173C52.6339 38.518 52.9229 38.2989 53.2651 37.9627C53.5232 37.7091 53.7962 37.4045 54.0755 37.068ZM50.8373 20.1199C50.8737 20.0521 50.9126 19.9775 50.954 19.8959C51.1222 19.5643 51.3378 19.1053 51.606 18.4928C52.1162 18.6373 52.6482 18.8226 53.1951 19.0418C57.3067 20.6892 62.0876 24.175 64.4505 26.1277C64.2021 26.4732 63.9775 26.766 63.7836 26.9946C63.6848 26.9113 63.5784 26.8238 63.4645 26.7326C61.4941 25.1545 57.1717 22.3573 51.1835 20.2408C51.0687 20.2002 50.9533 20.1599 50.8373 20.1199ZM64.9389 25.4265C62.6098 23.5086 58.0294 20.1656 53.9328 18.425C54.0889 18.1215 54.2823 17.773 54.3924 17.5801C54.5091 17.3759 54.4381 17.1158 54.2339 16.9991C54.0296 16.8824 53.7695 16.9534 53.6529 17.1577C53.5383 17.3583 53.3149 17.7596 53.1394 18.1061C52.735 17.9534 52.3357 17.8181 51.9445 17.7039C52.6782 15.9623 53.7238 13.2919 55.1531 9.33417C57.9289 9.88486 64.1426 12.3113 69.2635 18.2714C68.2079 20.1588 66.3742 23.3083 64.9389 25.4265ZM26.643 10.254C26.4767 10.0877 26.207 10.0877 26.0407 10.254C25.8744 10.4203 25.8744 10.69 26.0407 10.8563C26.043 10.8585 26.0689 10.8883 26.0872 10.9847C26.1049 11.0777 26.109 11.1998 26.0982 11.343C26.0766 11.6297 26.0007 11.9352 25.9378 12.1239C25.8635 12.347 25.9841 12.5882 26.2072 12.6626C26.4303 12.737 26.6715 12.6164 26.7459 12.3933C26.8249 12.1561 26.9194 11.7802 26.9475 11.4069C26.9616 11.2201 26.9603 11.0174 26.9239 10.8257C26.8881 10.6372 26.8111 10.4221 26.643 10.254ZM57.7306 10.6799C57.5643 10.5136 57.2947 10.5136 57.1284 10.6799C56.9751 10.8331 56.7472 11.0837 56.5541 11.3462C56.4577 11.4773 56.3633 11.6204 56.2912 11.7623C56.2246 11.8936 56.1519 12.0714 56.1519 12.2586C56.1519 12.4938 56.3426 12.6844 56.5778 12.6844C56.813 12.6844 57.0036 12.4938 57.0036 12.2586C57.0036 12.2614 57.0037 12.2629 57.0037 12.2629C57.0037 12.2629 57.0102 12.2277 57.0506 12.148C57.0939 12.0628 57.1592 11.961 57.2403 11.8508C57.4021 11.6307 57.6 11.4128 57.7306 11.2821C57.8969 11.1158 57.8969 10.8462 57.7306 10.6799ZM55.9165 13.5811C55.7062 13.4759 55.4504 13.5612 55.3452 13.7716C55.2052 14.0516 54.8615 14.6502 54.5732 14.9385C54.4069 15.1048 54.4069 15.3744 54.5732 15.5407C54.7395 15.707 55.0092 15.707 55.1755 15.5407C55.5686 15.1476 55.9631 14.4403 56.107 14.1525C56.2121 13.9421 56.1269 13.6863 55.9165 13.5811ZM26.7677 13.962C26.5325 13.962 26.3419 14.1527 26.3419 14.3879V15.6655C26.3419 15.9006 26.5325 16.0913 26.7677 16.0913C27.0029 16.0913 27.1936 15.9006 27.1936 15.6655V14.3879C27.1936 14.1527 27.0029 13.962 26.7677 13.962ZM6.08525 21.7811L4.94565 22.066C4.93507 22.0687 4.92461 22.0717 4.91427 22.0752L2.87079 22.7563C2.69278 20.41 2.89395 18.2482 3.11514 16.8725C3.88535 18.1822 5.2048 20.3466 6.08525 21.7811ZM11.6722 27.2086C11.4619 27.3138 11.3766 27.5696 11.4818 27.7799C11.8468 28.51 12.7296 29.6812 13.6505 30.8174C14.5823 31.9669 15.588 33.1224 16.2306 33.8364C16.3879 34.0112 16.6572 34.0254 16.832 33.868C17.0068 33.7107 17.021 33.4414 16.8636 33.2666C16.2287 32.5611 15.2328 31.4169 14.3121 30.281C13.3805 29.1317 12.5599 28.0317 12.2436 27.399C12.1384 27.1887 11.8826 27.1034 11.6722 27.2086ZM9.77834 33.7869C9.67315 33.9973 9.75842 34.2531 9.96878 34.3583C10.3954 34.5716 11.8884 35.318 13.3281 36.0113C14.0479 36.3578 14.7577 36.6927 15.3157 36.9414C15.5942 37.0656 15.8394 37.1703 16.0312 37.2447C16.1266 37.2818 16.2143 37.3135 16.2891 37.3365C16.347 37.3544 16.4485 37.3842 16.5471 37.3842C16.7823 37.3842 16.973 37.1936 16.973 36.9584C16.973 36.734 16.7995 36.5502 16.5794 36.5337C16.5729 36.5321 16.5603 36.5288 16.54 36.5226C16.4927 36.508 16.4261 36.4844 16.3394 36.4507C16.1669 36.3838 15.9363 36.2856 15.6625 36.1635C15.116 35.9199 14.4151 35.5893 13.6976 35.2439C12.2635 34.5534 10.7755 33.8094 10.3497 33.5965C10.1393 33.4913 9.88352 33.5765 9.77834 33.7869ZM27.5456 42.908C27.4951 42.9257 27.3998 42.9636 27.3183 43.0451C27.2078 43.1557 27.1471 43.2933 27.1106 43.4062C27.0722 43.5248 27.0482 43.6555 27.0328 43.786C27.0019 44.0471 27.0001 44.3547 27.0129 44.6628C27.0387 45.2817 27.1265 45.96 27.1994 46.3973C27.2198 46.5201 27.2931 46.6278 27.3998 46.6921C27.5065 46.7563 27.6359 46.7706 27.7541 46.7313C27.8534 46.6982 28.1177 46.6596 28.5643 46.6299C28.9914 46.6015 29.5389 46.5833 30.168 46.5734C31.4252 46.5535 32.9901 46.5668 34.5323 46.5933C36.7172 46.631 38.8742 46.6962 40.0102 46.7305C40.4678 46.7443 40.7597 46.7531 40.821 46.7531C41.0562 46.7531 41.2469 46.5624 41.2469 46.3272V43.3462C41.2469 43.2228 41.1933 43.1054 41.1001 43.0245C41.0068 42.9436 40.883 42.9072 40.7608 42.9247C39.3184 43.1307 36.1748 43.028 33.2778 42.9207C33.1376 42.9155 32.9981 42.9103 32.8595 42.9051C31.5801 42.8575 30.3786 42.8127 29.4482 42.8006C28.9335 42.794 28.492 42.7971 28.1619 42.8163C27.9981 42.8258 27.8501 42.8399 27.7297 42.8616C27.6698 42.8724 27.6059 42.8869 27.5456 42.908ZM40.3952 43.8221V45.8902C40.2914 45.8871 40.1708 45.8835 40.0351 45.8793C38.9176 45.8453 36.7727 45.7801 34.547 45.7418C33.0017 45.7151 31.4259 45.7017 30.1545 45.7218C29.5193 45.7318 28.9556 45.7503 28.5077 45.7801C28.3165 45.7928 28.136 45.8081 27.9752 45.8276C27.9259 45.4613 27.8806 45.0277 27.8639 44.6274C27.8519 44.3393 27.8554 44.0826 27.8787 43.886C27.8883 43.8042 27.9005 43.7409 27.9132 43.6945C27.9836 43.6838 28.0822 43.6741 28.2114 43.6666C28.5102 43.6492 28.9271 43.6457 29.4371 43.6523C30.3563 43.6642 31.5466 43.7085 32.8291 43.7563C32.9672 43.7614 33.1063 43.7666 33.2463 43.7718C35.8258 43.8673 38.7261 43.9666 40.3952 43.8221ZM42.6886 43.4361C42.5994 43.5056 42.5415 43.6077 42.5277 43.7199C42.1813 46.5246 42.3835 50.6297 42.526 52.3249C42.5369 52.4551 42.6069 52.573 42.716 52.6449C42.8251 52.7167 42.9611 52.7346 43.085 52.6933C43.275 52.6299 43.7072 52.5785 44.3447 52.551C44.9619 52.5245 45.7192 52.5217 46.521 52.5341C48.1237 52.5588 49.884 52.6436 51.0151 52.7143C51.1471 52.7225 51.2754 52.669 51.3624 52.5694C51.4494 52.4698 51.4852 52.3354 51.4592 52.2057C51.2992 51.4055 51.2615 49.9242 51.2864 48.3568C51.3111 46.8047 51.3959 45.2157 51.4664 44.2283C51.4748 44.1104 51.4339 43.9943 51.3533 43.9078C51.2727 43.8212 51.1598 43.7721 51.0416 43.7721C47.312 43.7721 44.1216 43.4893 43.0031 43.3495C42.891 43.3355 42.7778 43.3667 42.6886 43.4361ZM50.5862 44.6224C50.5226 45.6172 50.4563 46.9929 50.4348 48.3433C50.4145 49.623 50.4334 50.9128 50.5413 51.8329C49.4227 51.7697 47.9217 51.7039 46.5341 51.6825C45.7247 51.67 44.9489 51.6725 44.3081 51.7001C43.9515 51.7154 43.618 51.739 43.3379 51.7765C43.2113 49.9986 43.0815 46.6973 43.3263 44.2441C44.6684 44.3885 47.4074 44.6033 50.5862 44.6224ZM11.3369 54.0167C9.79655 53.3502 7.40894 52.085 5.32936 50.2653C4.48982 49.5307 3.761 48.8011 3.19279 48.1231C2.6205 47.4402 2.22861 46.8304 2.04003 46.3353C1.84737 45.8296 1.90343 45.5546 2.02519 45.4055C2.16509 45.2341 2.52642 45.0497 3.3455 45.0497C3.86777 45.0497 4.55177 45.388 5.35889 46.0675C6.14894 46.7326 6.98795 47.6652 7.81153 48.7188C9.14872 50.4295 10.4173 52.423 11.3369 54.0167ZM5.90742 45.4159C5.07056 44.7114 4.18597 44.198 3.3455 44.198C2.46115 44.198 1.75783 44.3862 1.3654 44.8669C0.954849 45.3698 1.01091 46.0264 1.2441 46.6385C1.48139 47.2614 1.94122 47.9557 2.54002 48.6702C3.14293 49.3896 3.90461 50.1504 4.7685 50.9063C7.54543 53.3361 10.8351 54.8088 12.1539 55.2484C12.3197 55.3037 12.5024 55.252 12.6148 55.1181C12.7271 54.9842 12.7462 54.7953 12.663 54.6416C11.7327 52.9242 10.1657 50.3476 8.48257 48.1943C7.64176 47.1186 6.76136 46.1348 5.90742 45.4159ZM74.4713 46.2473C74.5058 46.0662 74.6553 45.9238 74.8448 45.9038C75.0614 45.8808 75.2605 46.025 75.3061 46.238C75.5203 47.2374 75.8203 48.78 76.0243 50.1616C76.1262 50.8515 76.2054 51.5096 76.237 52.0431C76.2529 52.3093 76.2574 52.5534 76.2452 52.7593C76.2433 52.7915 76.2409 52.8243 76.2379 52.8576L79.7088 54.0145C79.8608 54.0652 79.9714 54.1968 79.9953 54.3552C80.0191 54.5136 79.952 54.672 79.8217 54.7651C79.3216 55.1223 78.5494 55.6586 77.8573 56.1068C77.512 56.3304 77.1811 56.5358 76.9115 56.6866C76.7977 56.7503 76.6897 56.8071 76.5931 56.8521V63.3616C76.5931 63.5338 76.4894 63.6891 76.3302 63.755C76.1711 63.8209 75.9879 63.7845 75.8661 63.6627C75.0427 62.8393 73.1051 60.8227 71.7326 59.137C71.694 59.1451 71.6507 59.1545 71.6028 59.1652C71.4018 59.2099 71.1343 59.2739 70.8178 59.3505C70.7223 59.3737 70.6226 59.3979 70.5192 59.423C69.9401 59.5636 69.2459 59.7322 68.5424 59.891C67.7146 60.0779 66.8632 60.2539 66.1611 60.3562C65.8108 60.4072 65.4873 60.4414 65.2173 60.4478C65.0823 60.451 64.9526 60.4475 64.8351 60.4333C64.7227 60.4198 64.5945 60.3936 64.4786 60.3356C64.3682 60.2804 64.2872 60.18 64.2566 60.0604C64.2259 59.9408 64.2487 59.8138 64.319 59.7123C64.9566 58.7913 65.9126 57.3891 66.7085 56.1759C67.1068 55.5687 67.4626 55.0124 67.7178 54.5887C67.8459 54.3761 67.9453 54.2024 68.0115 54.0749C68.0284 54.0424 68.0422 54.0147 68.0532 53.9914C68.0446 53.9748 68.0342 53.9555 68.0217 53.9334C67.9612 53.8268 67.8698 53.686 67.7524 53.5165C67.5185 53.1785 67.2046 52.7599 66.8836 52.3318L66.8796 52.3266C66.5631 51.9046 66.2399 51.4736 65.9958 51.121C65.8736 50.9445 65.7653 50.7793 65.6861 50.6397C65.6467 50.5702 65.6098 50.4991 65.5817 50.431C65.5583 50.3744 65.5208 50.2736 65.5208 50.16C65.5208 50.0337 65.5768 49.9139 65.6738 49.833C65.7707 49.7521 65.8986 49.7184 66.0228 49.741C66.8027 49.8828 67.9935 50.0954 69.0313 50.2725C69.5504 50.3611 70.0296 50.4405 70.3994 50.4977C70.5845 50.5263 70.7401 50.549 70.8587 50.5644C70.8671 50.5656 70.8754 50.5666 70.8834 50.5676C71.5145 49.8634 72.3894 48.8687 73.1263 47.9911C73.524 47.5174 73.8777 47.0822 74.1304 46.7469C74.2575 46.5784 74.3538 46.4419 74.4167 46.3418C74.4443 46.2978 74.4616 46.2669 74.4713 46.2473ZM68.0867 53.912C68.0867 53.912 68.0858 53.9144 68.0848 53.9183C68.0864 53.9137 68.0867 53.912 68.0867 53.912ZM74.6812 47.4287C74.8537 48.3016 75.0412 49.3345 75.1817 50.2861C75.2821 50.966 75.3573 51.5962 75.3868 52.0936C75.4016 52.3429 75.4044 52.5499 75.395 52.7089C75.3903 52.7882 75.3829 52.8494 75.3743 52.8944C75.3665 52.9355 75.3599 52.9518 75.3599 52.9518L75.3605 52.9505C75.3053 53.0609 75.3007 53.1899 75.348 53.3039C75.3952 53.418 75.4896 53.5059 75.6067 53.545L78.6385 54.5556C78.2451 54.8279 77.8045 55.1263 77.3943 55.3919C77.0547 55.6119 76.7416 55.8058 76.4957 55.9433C76.3721 56.0124 76.2725 56.0633 76.199 56.0958C76.1654 56.1106 76.1424 56.1192 76.1286 56.1237C75.9115 56.1433 75.7414 56.3257 75.7414 56.5478V62.3188C74.7447 61.2859 73.2873 59.7187 72.2412 58.4111C72.1604 58.3101 72.0381 58.2513 71.9087 58.2513C71.8375 58.2513 71.7523 58.2658 71.6895 58.2773C71.6146 58.2911 71.5224 58.3105 71.4177 58.3338C71.2079 58.3805 70.9331 58.4463 70.6174 58.5227C70.5213 58.546 70.4211 58.5703 70.3176 58.5955C69.7381 58.7362 69.0513 58.9029 68.3548 59.0602C67.5324 59.2459 66.7069 59.416 66.0383 59.5133C65.8164 59.5457 65.6164 59.5693 65.4424 59.5831C66.0408 58.7112 66.7814 57.6175 67.4206 56.643C67.8208 56.033 68.1836 55.466 68.4474 55.0282C68.5788 54.8101 68.689 54.6185 68.7675 54.4671C68.8065 54.392 68.8413 54.32 68.8673 54.2558C68.8851 54.2122 68.9277 54.1068 68.9277 53.9927C68.9277 53.879 68.8901 53.7783 68.8668 53.7216C68.8386 53.6536 68.8018 53.5825 68.7624 53.513C68.6832 53.3734 68.5749 53.2082 68.4527 53.0317C68.2086 52.679 67.8854 52.2481 67.5689 51.8261L67.5649 51.8208C67.2763 51.436 66.9934 51.0587 66.7693 50.7409C67.4317 50.8594 68.1936 50.9936 68.888 51.1121C69.4087 51.2009 69.893 51.2812 70.2693 51.3394C70.4572 51.3684 70.6204 51.3923 70.7486 51.409C70.8659 51.4243 70.9817 51.4375 71.057 51.4375C71.1777 51.4375 71.2927 51.3863 71.3735 51.2966C72.0142 50.5847 72.9759 49.4948 73.7786 48.5387C74.1179 48.1346 74.4315 47.7511 74.6812 47.4287ZM36.96 47.2644C35.0516 47.2003 32.8747 47.179 31.4521 47.179C31.3153 47.179 31.1867 47.2448 31.1067 47.3558C31.0266 47.4669 31.0049 47.6096 31.0481 47.7395C31.3503 48.6459 31.1721 49.6536 31.0481 50.0253C30.995 50.1848 31.0406 50.3606 31.1646 50.4741C31.2887 50.5876 31.4678 50.6175 31.622 50.5505C31.6546 50.5363 31.7719 50.5066 32.0126 50.4795C32.2366 50.4543 32.5264 50.4352 32.8697 50.4218C33.5555 50.3952 34.4315 50.3924 35.376 50.4048C37.2637 50.4296 39.4045 50.5145 40.7994 50.5853C40.916 50.5912 41.0298 50.549 41.1144 50.4686C41.199 50.3882 41.2469 50.2767 41.2469 50.16V48.0307C41.2469 47.8694 41.1558 47.7219 41.0115 47.6498C40.8577 47.5729 40.6272 47.5275 40.403 47.4935C40.1585 47.4565 39.852 47.4243 39.5034 47.396C38.805 47.3393 37.9136 47.2964 36.96 47.2644ZM40.3952 48.3552V49.7127C39.008 49.6468 37.0965 49.5756 35.3871 49.5532C34.4369 49.5407 33.544 49.5433 32.8367 49.5707C32.5247 49.5829 32.2442 49.6 32.0084 49.6235C32.0743 49.1797 32.0999 48.6137 31.9973 48.0317C33.3889 48.0364 35.2648 48.0596 36.9314 48.1156C37.88 48.1475 38.7559 48.1898 39.4345 48.2449C39.7743 48.2725 40.0587 48.3028 40.2755 48.3356C40.3189 48.3422 40.3588 48.3487 40.3952 48.3552ZM58.261 49.9292L59.8265 50.5554C59.8444 50.5625 59.8627 50.5684 59.8814 50.5731L62.6848 51.274C62.4253 51.6408 62.1391 52.0449 61.8384 52.4686C61.0542 53.5735 60.1715 54.8117 59.4071 55.8731C58.9239 56.5439 58.4888 57.143 58.156 57.5928C58.1397 57.6149 58.1235 57.6366 58.1077 57.658C58.1053 57.5895 58.1033 57.5177 58.1014 57.4425C58.0817 56.628 58.0948 55.4919 58.1214 54.3218C58.1567 52.7706 58.2163 51.1456 58.2519 50.1764C58.2552 50.0884 58.2582 50.0058 58.261 49.9292ZM51.0944 53.996C48.3226 53.6495 44.4816 53.8517 42.9118 53.9944C42.6924 54.0144 42.5245 54.1983 42.5245 54.4186V62.9357C42.5245 63.0833 42.6009 63.2204 42.7264 63.298C42.852 63.3756 43.0088 63.3826 43.1408 63.3166L43.1428 63.3157L43.1493 63.313C43.1552 63.3107 43.1633 63.3078 43.174 63.3044C43.1958 63.2976 43.2249 63.2898 43.2622 63.2818C43.3373 63.2655 43.4347 63.2502 43.5547 63.2366C43.7946 63.2094 44.1021 63.1916 44.4592 63.1818C45.1722 63.1621 46.0542 63.1752 46.9298 63.2017C47.8041 63.2282 48.666 63.2679 49.3371 63.3012C49.5208 63.3103 49.6922 63.319 49.8464 63.3268C50.2447 63.3471 50.5289 63.3616 50.6158 63.3616C50.7771 63.3616 50.9245 63.2704 50.9967 63.1262C51.0717 62.9761 51.1177 62.7592 51.1522 62.5473C51.1895 62.3182 51.2219 62.0346 51.2502 61.7144C51.3071 61.0729 51.35 60.2607 51.382 59.3956C51.4462 57.664 51.4675 55.6995 51.4675 54.4186C51.4675 54.2038 51.3076 54.0226 51.0944 53.996ZM50.6152 54.7985C50.6114 56.0611 50.5885 57.809 50.5309 59.364C50.4991 60.2236 50.4568 61.0191 50.4018 61.6392C50.3743 61.9497 50.3441 62.2104 50.3116 62.4105C50.3066 62.4411 50.3016 62.4698 50.2967 62.4967C50.1987 62.4919 50.0809 62.4859 49.9457 62.479C49.7813 62.4707 49.5912 62.461 49.3792 62.4505C48.7062 62.4172 47.838 62.3771 46.9556 62.3504C46.0746 62.3237 45.1733 62.3101 44.4358 62.3304C44.0675 62.3405 43.733 62.3592 43.4588 62.3903C43.4313 62.3934 43.4038 62.3967 43.3762 62.4002V54.8101C45.0182 54.6817 48.1789 54.5456 50.6152 54.7985ZM40.8514 54.4196C36.0551 54.077 29.1636 54.2769 26.3206 54.4191C26.1453 54.4278 25.9933 54.5432 25.9378 54.7097C25.5622 55.8368 25.7675 56.7772 25.961 57.1642C26.0502 57.3427 26.2515 57.4353 26.4451 57.3868C26.5708 57.3554 26.8208 57.3267 27.2016 57.3079C27.5724 57.2895 28.0389 57.2816 28.5796 57.2824C29.6605 57.2842 31.0225 57.3212 32.4789 57.3779C35.391 57.4913 38.6659 57.6827 40.7927 57.8245C40.9103 57.8323 41.0259 57.7911 41.112 57.7105C41.198 57.63 41.2469 57.5174 41.2469 57.3996V54.8444C41.2469 54.621 41.0742 54.4356 40.8514 54.4196ZM40.3952 55.2425V56.9448C38.2691 56.8066 35.234 56.6328 32.5121 56.5269C31.0514 56.47 29.6773 56.4325 28.581 56.4307C28.0331 56.4298 27.5506 56.4378 27.1595 56.4572C26.9671 56.4667 26.7889 56.4793 26.632 56.4963C26.5726 56.2174 26.5401 55.7805 26.6667 55.2551C29.5773 55.1191 35.8398 54.9518 40.3952 55.2425ZM6.4912 57.7736C5.05284 57.4232 3.39444 57.299 1.9184 57.8525C1.0448 58.1801 0.447197 58.5696 0.170433 59.0401C0.0240097 59.289 -0.0306396 59.5587 0.0164948 59.8291C0.062294 60.0918 0.197678 60.3191 0.368774 60.5073C0.704643 60.8768 1.23517 61.1598 1.81497 61.3507C2.40407 61.5446 3.08785 61.6581 3.77136 61.6581C4.85986 61.6581 6.11648 61.3583 7.22456 60.9985C8.33879 60.6368 9.33794 60.2027 9.92383 59.9098C10.0628 59.8402 10.153 59.7005 10.1589 59.5452C10.1649 59.3899 10.0858 59.2437 9.95248 59.1637C9.20934 58.7178 7.93476 58.1254 6.4912 57.7736ZM8.78025 59.5006C8.2683 59.7221 7.63718 59.9691 6.96155 60.1885C5.88356 60.5384 4.72697 60.8064 3.77136 60.8064C3.17729 60.8064 2.5835 60.707 2.08134 60.5417C1.56987 60.3733 1.19546 60.1505 0.999001 59.9344C0.903931 59.8298 0.86631 59.7445 0.855553 59.6828C0.846123 59.6287 0.851364 59.5624 0.904564 59.472C1.02704 59.2637 1.38762 58.9612 2.21745 58.65C3.4669 58.1815 4.93146 58.2702 6.28957 58.6012C7.23902 58.8325 8.11089 59.176 8.78025 59.5006ZM34.5364 58.264C34.3083 58.207 34.0771 58.3457 34.02 58.5738C33.9433 58.8805 33.8533 59.3764 33.8269 59.8902C33.8132 60.1563 33.815 60.4498 33.854 60.7333C32.8032 60.6101 31.2833 60.4488 30.2887 60.3972C30.3188 60.2325 30.3429 60.0518 30.3547 59.8644C30.3816 59.4379 30.3485 58.9246 30.1296 58.4867C30.0244 58.2763 29.7686 58.1911 29.5583 58.2962C29.3479 58.4014 29.2626 58.6572 29.3678 58.8676C29.4896 59.1111 29.5275 59.4494 29.5047 59.8108C29.4823 60.1652 29.405 60.4909 29.3447 60.6718C29.3014 60.8016 29.3232 60.9444 29.4032 61.0554C29.4833 61.1665 29.6118 61.2323 29.7487 61.2323C30.7386 61.2323 33.2361 61.5118 34.3803 61.6549C34.5362 61.6743 34.6901 61.6065 34.7808 61.4783C34.8715 61.35 34.8843 61.1823 34.8141 61.0418C34.6957 60.8052 34.6533 60.403 34.6775 59.934C34.7007 59.4826 34.781 59.0415 34.8463 58.7804C34.9033 58.5522 34.7646 58.321 34.5364 58.264ZM41.2469 58.6771C41.2469 58.4419 41.0562 58.2513 40.821 58.2513C40.1756 58.2513 39.185 58.2727 38.3089 58.3376C37.8721 58.37 37.4538 58.4138 37.1176 58.4734C36.9502 58.5031 36.7927 58.5384 36.659 58.5819C36.542 58.62 36.3797 58.6835 36.2613 58.8019C36.0932 58.97 36.0162 59.185 35.9804 59.3735C35.944 59.5652 35.9427 59.7679 35.9568 59.9547C35.9849 60.3281 36.0794 60.7039 36.1584 60.9411C36.2068 61.0861 36.3291 61.194 36.4789 61.224C37.1939 61.367 38.2692 61.5607 39.17 61.676C39.6175 61.7333 40.0376 61.7733 40.3526 61.7752C40.5052 61.7762 40.6626 61.7688 40.7935 61.7381C40.8564 61.7233 40.9497 61.6952 41.0364 61.6332C41.1346 61.563 41.2469 61.4289 41.2469 61.2323V58.6771ZM40.3952 59.1058V60.9235C40.3833 60.9236 40.3708 60.9236 40.3579 60.9235C40.0962 60.9219 39.7178 60.8874 39.2781 60.8312C38.5039 60.7321 37.5879 60.5719 36.8991 60.4386C36.8574 60.2731 36.8202 60.078 36.8061 59.8908C36.7953 59.7476 36.7994 59.6255 36.8171 59.5325C36.8292 59.469 36.8446 59.4344 36.8543 59.4175C36.8664 59.4121 36.888 59.4031 36.9227 59.3918C37.0036 59.3655 37.1182 59.3383 37.2662 59.312C37.5609 59.2598 37.9464 59.2185 38.3719 59.187C39.0471 59.137 39.798 59.1134 40.3952 59.1058Z" fill="#374151"/>
</svg>
