<svg width="13" height="12" viewBox="0 0 13 12" fill="none" xmlns="http://www.w3.org/2000/svg">
<path fill-rule="evenodd" clip-rule="evenodd" d="M6.24998 1.67857C4.95723 1.67857 3.7965 2.24607 3.00408 3.14692L3.95039 4.09323C4.07413 4.21697 3.98649 4.42856 3.8115 4.42856H0.946429C0.837945 4.42856 0.75 4.34061 0.75 4.23213V1.36706C0.75 1.19206 0.961585 1.10442 1.08533 1.22816L2.16947 2.31231C3.17547 1.19987 4.63074 0.5 6.24998 0.5C9.06458 0.5 11.3847 2.61374 11.7108 5.34074C11.7494 5.66389 11.5188 5.95719 11.1957 5.99583C10.8725 6.03448 10.5792 5.80384 10.5405 5.48069C10.2845 3.33914 8.46068 1.67857 6.24998 1.67857ZM1.30428 6.00417C1.62743 5.96552 1.92072 6.19616 1.95937 6.51931C2.21548 8.66082 4.03924 10.3214 6.24998 10.3214C7.54273 10.3214 8.70347 9.75391 9.49586 8.85309L8.54963 7.90677C8.42588 7.78302 8.51348 7.57143 8.68854 7.57143H11.5536C11.6621 7.57143 11.75 7.65943 11.75 7.76786V10.633C11.75 10.8079 11.5384 10.8955 11.4147 10.7718L10.3305 9.68767C9.3245 10.8001 7.8692 11.5 6.24998 11.5C3.43534 11.5 1.11527 9.38627 0.789136 6.65926C0.750495 6.33611 0.981134 6.04281 1.30428 6.00417Z" fill="white"/>
</svg>
