<svg width="16" height="16" viewBox="0 0 16 16" fill="none" xmlns="http://www.w3.org/2000/svg">
  <path fill-rule="evenodd" clip-rule="evenodd"
        d="M6.5429 0.666656C3.29719 0.666656 0.666016 3.29783 0.666016 6.54354C0.666016 9.78926 3.29719 12.4204 6.5429 12.4204C7.85237 12.4204 9.06181 11.9922 10.0388 11.268L13.8496 15.0789C14.1889 15.4181 14.739 15.4181 15.0782 15.0789C15.4175 14.7396 15.4175 14.1895 15.0782 13.8503L11.2674 10.0394C11.9915 9.06245 12.4198 7.85301 12.4198 6.54354C12.4198 3.29783 9.78862 0.666656 6.5429 0.666656ZM2.40353 6.54354C2.40353 4.25743 4.25679 2.40417 6.5429 2.40417C8.82901 2.40417 10.6823 4.25743 10.6823 6.54354C10.6823 8.82966 8.82901 10.6829 6.5429 10.6829C4.25679 10.6829 2.40353 8.82966 2.40353 6.54354Z"
        fill="currentColor"/>
</svg>
