<svg xmlns="http://www.w3.org/2000/svg" width="14" height="14" viewBox="0 0 14 14">
    <g fill="none" fillRule="evenodd" transform="translate(0 -1)">
        <rect width="16" height="16" />
        <path
            fill="currentcolor"
            d="M7.24032587,4.19892473 C6.99592546,3.83512363 6.66904482,3.56854923 6.25967413,3.39919355 C5.85030345,3.22983786 5.4195542,3.14516129 4.96741344,3.14516129 C4.69857299,3.14516129 4.43890146,3.17652298 4.18839104,3.23924731 C3.93788062,3.30197164 3.71181364,3.40232906 3.5101833,3.54032258 C3.30855296,3.6783161 3.14664012,3.85707776 3.02443992,4.0766129 C2.90223971,4.29614805 2.84114053,4.55645011 2.84114053,4.85752688 C2.84114053,5.30914204 2.99388849,5.65412067 3.299389,5.89247312 C3.60488951,6.13082556 3.98370446,6.33781274 4.43584521,6.51344086 C4.88798597,6.68906898 5.38288937,6.85842212 5.92057026,7.02150538 C6.45825116,7.18458863 6.95315456,7.41039282 7.40529532,7.69892473 C7.85743607,7.98745664 8.23625102,8.3700693 8.54175153,8.84677419 C8.84725204,9.32347909 9,9.9569853 9,10.7473118 C9,11.4623692 8.87169171,12.0864669 8.61507128,12.6196237 C8.35845086,13.1527804 8.01324046,13.5949803 7.57942974,13.9462366 C7.14561901,14.2974928 6.64155073,14.560931 6.06720978,14.7365591 C5.49286882,14.9121873 4.88798688,15 4.25254582,15 C3.44602448,15 2.67006483,14.8620085 1.92464358,14.5860215 C1.17922234,14.3100345 0.537680896,13.8458814 0,13.1935484 L1.7413442,11.4623656 C2.02240466,11.9014359 2.39205474,12.2432783 2.8503055,12.4879032 C3.30855626,12.7325281 3.79429479,12.8548387 4.30753564,12.8548387 C4.57637609,12.8548387 4.84521251,12.8172047 5.11405295,12.7419355 C5.3828934,12.6666663 5.62729014,12.5537642 5.84725051,12.4032258 C6.06721088,12.2526874 6.24439851,12.0613811 6.37881874,11.8293011 C6.51323896,11.5972211 6.58044807,11.3306467 6.58044807,11.0295699 C6.58044807,10.5403201 6.4277001,10.1639798 6.12219959,9.90053763 C5.81669908,9.63709546 5.43788413,9.41442743 4.98574338,9.23252688 C4.53360263,9.05062633 4.03869923,8.87813702 3.50101833,8.71505376 C2.96333743,8.55197051 2.46843403,8.32930249 2.01629328,8.04704301 C1.56415253,7.76478353 1.18533758,7.38844321 0.879837067,6.91801075 C0.574336558,6.44757829 0.421588595,5.81720825 0.421588595,5.02688172 C0.421588595,4.33691411 0.559061762,3.74104194 0.83401222,3.23924731 C1.10896268,2.73745269 1.46944787,2.32034216 1.91547862,1.98790323 C2.36150936,1.65546429 2.87168756,1.40770691 3.44602851,1.24462366 C4.02036947,1.0815404 4.60692165,1 5.20570265,1 C5.89002379,1 6.55294995,1.10662976 7.19450102,1.31989247 C7.83605209,1.53315519 8.41343939,1.88440616 8.92668024,2.37365591 L7.24032587,4.19892473 Z M12.4474394,2.89830508 L10.916442,4.31073446 L10,3.20338983 L12.490566,1 L14,1 L14,9 L12.4474394,9 L12.4474394,2.89830508 Z"
        />
    </g>
</svg>
