<svg xmlns="http://www.w3.org/2000/svg" width="9" height="14" viewBox="0 0 9 14">
    <g fill="none" fillRule="evenodd" transform="translate(-3 -1)">
        <rect width="16" height="16" />
        <path
            fill="currentcolor"
            d="M10.2403259,4.19892473 C9.99592546,3.83512363 9.66904482,3.56854923 9.25967413,3.39919355 C8.85030345,3.22983786 8.4195542,3.14516129 7.96741344,3.14516129 C7.69857299,3.14516129 7.43890146,3.17652298 7.18839104,3.23924731 C6.93788062,3.30197164 6.71181364,3.40232906 6.5101833,3.54032258 C6.30855296,3.6783161 6.14664012,3.85707776 6.02443992,4.0766129 C5.90223971,4.29614805 5.84114053,4.55645011 5.84114053,4.85752688 C5.84114053,5.30914204 5.99388849,5.65412067 6.299389,5.89247312 C6.60488951,6.13082556 6.98370446,6.33781274 7.43584521,6.51344086 C7.88798597,6.68906898 8.38288937,6.85842212 8.92057026,7.02150538 C9.45825116,7.18458863 9.95315456,7.41039282 10.4052953,7.69892473 C10.8574361,7.98745664 11.236251,8.3700693 11.5417515,8.84677419 C11.847252,9.32347909 12,9.9569853 12,10.7473118 C12,11.4623692 11.8716917,12.0864669 11.6150713,12.6196237 C11.3584509,13.1527804 11.0132405,13.5949803 10.5794297,13.9462366 C10.145619,14.2974928 9.64155073,14.560931 9.06720978,14.7365591 C8.49286882,14.9121873 7.88798688,15 7.25254582,15 C6.44602448,15 5.67006483,14.8620085 4.92464358,14.5860215 C4.17922234,14.3100345 3.5376809,13.8458814 3,13.1935484 L4.7413442,11.4623656 C5.02240466,11.9014359 5.39205474,12.2432783 5.8503055,12.4879032 C6.30855626,12.7325281 6.79429479,12.8548387 7.30753564,12.8548387 C7.57637609,12.8548387 7.84521251,12.8172047 8.11405295,12.7419355 C8.3828934,12.6666663 8.62729014,12.5537642 8.84725051,12.4032258 C9.06721088,12.2526874 9.24439851,12.0613811 9.37881874,11.8293011 C9.51323896,11.5972211 9.58044807,11.3306467 9.58044807,11.0295699 C9.58044807,10.5403201 9.4277001,10.1639798 9.12219959,9.90053763 C8.81669908,9.63709546 8.43788413,9.41442743 7.98574338,9.23252688 C7.53360263,9.05062633 7.03869923,8.87813702 6.50101833,8.71505376 C5.96333743,8.55197051 5.46843403,8.32930249 5.01629328,8.04704301 C4.56415253,7.76478353 4.18533758,7.38844321 3.87983707,6.91801075 C3.57433656,6.44757829 3.42158859,5.81720825 3.42158859,5.02688172 C3.42158859,4.33691411 3.55906176,3.74104194 3.83401222,3.23924731 C4.10896268,2.73745269 4.46944787,2.32034216 4.91547862,1.98790323 C5.36150936,1.65546429 5.87168756,1.40770691 6.44602851,1.24462366 C7.02036947,1.0815404 7.60692165,1 8.20570265,1 C8.89002379,1 9.55294995,1.10662976 10.194501,1.31989247 C10.8360521,1.53315519 11.4134394,1.88440616 11.9266802,2.37365591 L10.2403259,4.19892473 Z"
        />
    </g>
</svg>
