<svg xmlns="http://www.w3.org/2000/svg" viewBox="0 0 100 100">
  <g transform="matrix(0.488993, 0, 0, 0.488993, -72.248184, -72.248184)" fill="currentColor">
    <path d="M 352.251 250 C 352.251 306.472 306.472 352.251 250 352.251 C 193.528 352.251 147.749 306.472 147.749 250 C 147.749 193.528 193.528 147.749 250 147.749 C 306.472 147.749 352.251 193.528 352.251 250 Z M 250 168.285 C 204.87 168.285 168.285 204.87 168.285 250 C 168.285 295.13 204.87 331.715 250 331.715 C 295.13 331.715 331.715 295.13 331.715 250 C 331.715 204.87 295.13 168.285 250 168.285 Z"/>
    <ellipse cx="250" cy="250" rx="11.547" ry="11.547"/>
    <ellipse cx="290.022" cy="250" rx="11.547" ry="11.547"/>
    <ellipse cx="209.978" cy="250" rx="11.547" ry="11.547"/>
  </g>
</svg>
