<svg
   width="24"
   height="24"
   viewBox="0 0 24 24"
>
  <path
     d="m 14.436481,10.9092 c 0.6074,0.009 1.092499,0.5047 1.083399,1.1071 l -0.0733,4.8727 c -0.0091,0.6024 -0.508901,1.0835 -1.116301,1.0745 -0.6075,-0.009 -1.092499,-0.5046 -1.083499,-1.1071 l 0.0734,-4.8727 c 0.009,-0.6024 0.508801,-1.0835 1.116301,-1.0745 z"
     fill="currentColor"
  />
  <path
     d="m 10.75328,11.9837 c -0.0091,-0.6024 -0.508899,-1.0835 -1.1163395,-1.0745 -0.60745,0.009 -1.09253,0.5047 -1.08346,1.1071 l 0.07333,4.8727 c 0.00907,0.6024 0.50885,1.0835 1.11629,1.0745 0.6074495,-0.009 1.0925795,-0.5046 1.0834795,-1.1071 z"
     fill="currentColor"
  />
  <path
     fill-rule="evenodd"
     clip-rule="evenodd"
     d="m 17.49998,3.27273 v 1.67272 h 2.2 l 0.0062,2e-5 h 2.1938 c 0.6076,0 1.1,0.48842 1.1,1.09091 0,0.60249 -0.4924,1.09091 -1.1,1.09091 h -1.1269 l -0.3401,13.62701 c -10e-5,0.0041 -2e-4,0.0083 -3e-4,0.0125 -10e-5,0.0024 -2e-4,0.0048 -3e-4,0.0072 -10e-5,0.0018 -2e-4,0.0036 -2.99e-4,0.0055 -2e-4,0.0039 -4e-4,0.0079 -6e-4,0.0118 -0.0489,0.8235 -0.3219,1.6126 -0.9647,2.2501 C 18.84798,23.6552 18.00858,24 17.13338,24 H 6.8666905 c -0.87522,0 -1.71459,-0.3448 -2.33346,-0.9586 -0.62841,-0.6232 -0.91594,-1.3319 -0.96502,-2.2568 -5.4e-4,-0.0101 -9.3e-4,-0.0202 -0.00119,-0.0303 L 3.2269105,7.12729 h -1.12689 c -0.607514,0 -1.100001,-0.48842 -1.100001,-1.09091 0,-0.60249 0.492487,-1.09091 1.100001,-1.09091 h 2.19382 l 0.00618,-2e-5 h 2.2 V 3.27273 c 0,-0.86798 0.34768,-1.70042 0.96655,-2.31417 C 8.0854405,0.344804 8.9248105,0 9.8000205,0 H 14.19998 c 0.8753,0 1.714601,0.344804 2.3335,0.95856 0.6189,0.61375 0.9665,1.44619 0.9665,2.31417 z M 9.0222005,2.50134 c 0.20629,-0.20459 0.48608,-0.31952 0.77782,-0.31952 H 14.19998 c 0.2918,0 0.5716,0.11493 0.777901,0.31952 0.2062,0.20458 0.3221,0.48206 0.3221,0.77139 V 4.94545 H 8.7000205 V 3.27273 c 0,-0.28933 0.11589,-0.56681 0.32218,-0.77139 z m -3.59462,4.62595 0.33836,13.55671 c 0.02561,0.4465 0.12821,0.6216 0.32293,0.8147 0.20629,0.2045 0.48608,0.3195 0.77782,0.3195 H 17.13338 c 0.2917,0 0.5715,-0.115 0.7778,-0.3195 0.1798,-0.1784 0.2964,-0.416 0.323,-0.8186 l 0.3383,-13.55281 z"
     fill="currentColor"
  />
</svg>
