<svg width="16" height="16" viewBox="0 0 16 16" xmlns="http://www.w3.org/2000/svg">
    <path d="M11.3861 3.52652C11.3861 1.56734 9.8188 0 7.85961 0C5.90043 0 4.33308 1.56734 4.33308 3.52652C4.33308 5.48569 5.90043 7.05304 7.85961 7.05304C9.8188 7.05304 11.3861 5.48569 11.3861 3.52652ZM14.8375 11.9511C13.3234 9.66537 10.7561 8.29395 7.99123 8.29395C5.16054 8.29395 2.659 9.73068 1.21075 11.9511C0.881598 12.3429 0.947428 12.9307 1.34241 13.3225C3.05398 15.0205 5.42386 16 7.99123 16C10.6244 16 12.9285 15.0205 14.7059 13.3225C15.035 12.9307 15.1009 12.3429 14.8375 11.9511Z"></path>
</svg>
