<svg width="24" height="25" viewBox="0 0 24 25" fill="none" xmlns="http://www.w3.org/2000/svg">
<path d="M23.76 8.04748C23.6462 7.1862 23.3182 6.36722 22.806 5.66548C22.1699 5.0229 21.3057 4.65765 20.4015 4.64926C17.043 4.40625 12.0053 4.40625 12.0053 4.40625H11.9948C11.9948 4.40625 6.95699 4.40625 3.59854 4.64926C2.69414 4.65762 1.82966 5.02287 1.19326 5.66551C0.6812 6.36723 0.353437 7.18623 0.24 8.04748C0.0906141 9.33701 0.010499 10.6336 0 11.9317L0 13.7528C0.010464 15.0509 0.0905792 16.3475 0.24 17.637C0.35343 18.4983 0.681189 19.3173 1.19324 20.019C1.92367 20.6677 2.86317 21.0319 3.84 21.045C5.76 21.2295 12 21.2865 12 21.2865C12 21.2865 17.043 21.279 20.4015 21.036C21.3057 21.0268 22.1697 20.6614 22.806 20.019C23.3182 19.3173 23.6462 18.4983 23.76 17.637C23.9094 16.3475 23.9895 15.0509 24 13.7528V11.9317C23.9895 10.6336 23.9094 9.33701 23.76 8.04748ZM10.252 15.581C9.91916 15.7534 9.52195 15.5119 9.52191 15.1371L9.52136 10.0409C9.52132 9.66544 9.91974 9.4239 10.2526 9.59759L15.1532 12.1545C15.5121 12.3417 15.5114 12.8555 15.152 13.0417L10.252 15.581Z" fill="currentColor"/>
</svg>
