<svg width="14" height="14" viewBox="0 0 14 14" xmlns="http://www.w3.org/2000/svg">
  <path fill-rule="evenodd" clip-rule="evenodd" d="M14 6.99915C14 10.8647 10.866 13.9983 7 13.9983C3.13401 13.9983 0 10.8647 0 6.99915C0 3.13363 3.13401 0 7 0C10.866 0 14 3.13363 14 6.99915ZM6.99997 8.2056C7.54765 8.2056 7.875 7.83935 7.875 7.29167L7.99164 3.32505C7.99164 2.77736 7.54765 2.33338 6.99997 2.33338C6.45229 2.33338 6.00831 2.77736 6.00831 3.32505L6.125 7.29167C6.125 7.83935 6.45229 8.2056 6.99997 8.2056ZM6.99997 9.19727C6.45229 9.19727 6.00831 9.64125 6.00831 10.1889C6.0083 10.7366 6.45229 11.1806 6.99997 11.1806C7.54765 11.1806 7.99164 10.7366 7.99164 10.1889C7.99164 9.64125 7.54765 9.19727 6.99997 9.19727Z" fill="currentColor"/>
</svg>
