<svg width="16" height="16" viewBox="0 0 16 16" xmlns="http://www.w3.org/2000/svg">
    <path
        d="M8.00019 5.37051C8.42863 5.37051 8.77595 5.71646 8.77595 6.1432V8.46126C8.77595 8.88801 8.42863 9.23395 8.00019 9.23395C7.57175 9.23395 7.22443 8.88801 7.22443 8.46126V6.1432C7.22443 5.71646 7.57175 5.37051 8.00019 5.37051Z" />
    <path
        d="M8.00019 10.1501C7.54497 10.1501 7.17595 10.5177 7.17595 10.9711C7.17595 11.4245 7.54497 11.7921 8.00019 11.7921H8.00715C8.46237 11.7921 8.8314 11.4245 8.8314 10.9711C8.8314 10.5177 8.46237 10.1501 8.00715 10.1501H8.00019Z" />
    <path fill-rule="evenodd" clip-rule="evenodd"
        d="M6.9602 1.27151C7.27762 1.09351 7.63573 1 8 1C8.36426 1 8.72238 1.09351 9.03979 1.27151C9.35721 1.44951 9.62321 1.70599 9.81213 2.0162L9.81421 2.01965L15.7101 11.8234C15.7109 11.8248 15.7118 11.8262 15.7126 11.8277C15.7138 11.8296 15.7149 11.8315 15.716 11.8334C15.901 12.1526 15.999 12.5145 16 12.8831C16.001 13.2517 15.9051 13.6142 15.7219 13.9344C15.5386 14.2547 15.2744 14.5215 14.9554 14.7085C14.6364 14.8954 14.2739 14.9959 13.9038 15C13.9012 15 13.8985 15 13.8959 15H2.10415C2.10148 15 2.09882 15 2.09615 15C1.72609 14.9959 1.36355 14.8954 1.0446 14.7085C0.725639 14.5215 0.461383 14.2547 0.278119 13.9344C0.0948555 13.6142 -0.0010279 13.2517 8.3104e-06 12.8831C0.00104452 12.5145 0.0989646 12.1526 0.284026 11.8334C0.285968 11.83 0.287937 11.8267 0.289934 11.8234L6.18579 2.01965L6.18787 2.0162C6.37679 1.70599 6.64279 1.44951 6.9602 1.27151ZM7.43237 2.76617L7.43151 2.76759L1.54128 12.562C1.48476 12.6611 1.45487 12.7731 1.45455 12.8872C1.45422 13.0028 1.4843 13.1165 1.5418 13.217C1.59929 13.3174 1.68219 13.4012 1.78225 13.4598C1.88137 13.5179 1.9939 13.5494 2.10884 13.5512H13.8912C14.0061 13.5494 14.1186 13.5179 14.2177 13.4598C14.3178 13.4012 14.4007 13.3174 14.4582 13.217C14.5157 13.1165 14.5458 13.0028 14.5455 12.8872C14.5451 12.7731 14.5153 12.6611 14.4587 12.562L8.56849 2.76759L8.56762 2.76617C8.50841 2.66949 8.42529 2.58954 8.3262 2.53397C8.22662 2.47812 8.11427 2.44879 8 2.44879C7.88572 2.44879 7.77338 2.47812 7.6738 2.53397C7.57471 2.58954 7.49159 2.66949 7.43237 2.76617Z" />
</svg>