<svg width="36" height="36" viewBox="0 0 36 36" fill="none" xmlns="http://www.w3.org/2000/svg">
    <rect x="0.5" y="0.5" width="35" height="35" rx="3.5" fill="white" />
    <rect x="0.5" y="0.5" width="35" height="35" rx="3.5" stroke="#E5E7EB" />
    <rect x="6" y="12" width="24" height="12" rx="2" fill="#4B5563" />
    <path
        d="M8.9169 20V15.6364H10.5149C10.8246 15.6364 11.081 15.6875 11.2841 15.7898C11.4872 15.8906 11.6392 16.0277 11.7401 16.201C11.8409 16.3729 11.8913 16.5668 11.8913 16.7827C11.8913 16.9645 11.858 17.1179 11.7912 17.2429C11.7244 17.3665 11.6349 17.4659 11.5227 17.5412C11.4119 17.6151 11.2898 17.669 11.1562 17.7031V17.7457C11.3011 17.7528 11.4425 17.7997 11.5803 17.8864C11.7195 17.9716 11.8345 18.093 11.9254 18.2507C12.0163 18.4084 12.0618 18.6001 12.0618 18.826C12.0618 19.049 12.0092 19.2493 11.9041 19.4268C11.8004 19.603 11.6399 19.7429 11.4226 19.8466C11.2053 19.9489 10.9276 20 10.5895 20H8.9169ZM9.57528 19.4354H10.5256C10.8409 19.4354 11.0668 19.3743 11.2031 19.2521C11.3395 19.13 11.4077 18.9773 11.4077 18.794C11.4077 18.6562 11.3729 18.5298 11.3033 18.4148C11.2337 18.2997 11.1342 18.2081 11.005 18.1399C10.8771 18.0717 10.7251 18.0376 10.549 18.0376H9.57528V19.4354ZM9.57528 17.5241H10.4574C10.6051 17.5241 10.7379 17.4957 10.8558 17.4389C10.9751 17.3821 11.0696 17.3026 11.1392 17.2003C11.2102 17.0966 11.2457 16.9744 11.2457 16.8338C11.2457 16.6534 11.1825 16.5021 11.0561 16.38C10.9297 16.2578 10.7358 16.1967 10.4744 16.1967H9.57528V17.5241ZM14.8647 18.6428V16.7273H15.5039V20H14.8775V19.4332H14.8434C14.7681 19.608 14.6474 19.7536 14.4812 19.87C14.3164 19.9851 14.1112 20.0426 13.8654 20.0426C13.6552 20.0426 13.4691 19.9964 13.3072 19.9041C13.1467 19.8104 13.0202 19.6719 12.9279 19.4886C12.837 19.3054 12.7915 19.0788 12.7915 18.8089V16.7273H13.4286V18.7322C13.4286 18.9553 13.4904 19.1328 13.614 19.2649C13.7376 19.397 13.8981 19.4631 14.0955 19.4631C14.2148 19.4631 14.3335 19.4332 14.4513 19.3736C14.5707 19.3139 14.6694 19.2237 14.7475 19.103C14.8271 18.9822 14.8661 18.8288 14.8647 18.6428ZM17.8876 16.7273V17.2386H16.1V16.7273H17.8876ZM16.5794 15.9432H17.2164V19.0391C17.2164 19.1626 17.2349 19.2557 17.2718 19.3182C17.3088 19.3793 17.3564 19.4212 17.4146 19.4439C17.4743 19.4652 17.5389 19.4759 17.6085 19.4759C17.6596 19.4759 17.7044 19.4723 17.7427 19.4652C17.7811 19.4581 17.8109 19.4524 17.8322 19.4482L17.9473 19.9744C17.9103 19.9886 17.8578 20.0028 17.7896 20.017C17.7214 20.0327 17.6362 20.0412 17.5339 20.0426C17.3663 20.0455 17.21 20.0156 17.0652 19.9531C16.9203 19.8906 16.8031 19.794 16.7136 19.6634C16.6241 19.5327 16.5794 19.3686 16.5794 19.1712V15.9432ZM20.12 16.7273V17.2386H18.3324V16.7273H20.12ZM18.8118 15.9432H19.4489V19.0391C19.4489 19.1626 19.4673 19.2557 19.5043 19.3182C19.5412 19.3793 19.5888 19.4212 19.647 19.4439C19.7067 19.4652 19.7713 19.4759 19.8409 19.4759C19.892 19.4759 19.9368 19.4723 19.9751 19.4652C20.0135 19.4581 20.0433 19.4524 20.0646 19.4482L20.1797 19.9744C20.1428 19.9886 20.0902 20.0028 20.022 20.017C19.9538 20.0327 19.8686 20.0412 19.7663 20.0426C19.5987 20.0455 19.4425 20.0156 19.2976 19.9531C19.1527 19.8906 19.0355 19.794 18.946 19.6634C18.8565 19.5327 18.8118 19.3686 18.8118 19.1712V15.9432ZM22.1681 20.0661C21.8613 20.0661 21.5936 19.9957 21.3649 19.8551C21.1362 19.7145 20.9586 19.5178 20.8322 19.2649C20.7058 19.0121 20.6426 18.7166 20.6426 18.3786C20.6426 18.0391 20.7058 17.7422 20.8322 17.4879C20.9586 17.2337 21.1362 17.0362 21.3649 16.8956C21.5936 16.755 21.8613 16.6847 22.1681 16.6847C22.475 16.6847 22.7427 16.755 22.9714 16.8956C23.2001 17.0362 23.3777 17.2337 23.5041 17.4879C23.6305 17.7422 23.6937 18.0391 23.6937 18.3786C23.6937 18.7166 23.6305 19.0121 23.5041 19.2649C23.3777 19.5178 23.2001 19.7145 22.9714 19.8551C22.7427 19.9957 22.475 20.0661 22.1681 20.0661ZM22.1703 19.5312C22.3691 19.5312 22.5339 19.4787 22.6646 19.3736C22.7953 19.2685 22.8919 19.1286 22.9544 18.9538C23.0183 18.7791 23.0502 18.5866 23.0502 18.3764C23.0502 18.1676 23.0183 17.9759 22.9544 17.8011C22.8919 17.625 22.7953 17.4837 22.6646 17.3771C22.5339 17.2706 22.3691 17.2173 22.1703 17.2173C21.97 17.2173 21.8038 17.2706 21.6717 17.3771C21.541 17.4837 21.4437 17.625 21.3798 17.8011C21.3173 17.9759 21.286 18.1676 21.286 18.3764C21.286 18.5866 21.3173 18.7791 21.3798 18.9538C21.4437 19.1286 21.541 19.2685 21.6717 19.3736C21.8038 19.4787 21.97 19.5312 22.1703 19.5312ZM25.0419 18.0568V20H24.4048V16.7273H25.0163V17.2599H25.0568C25.1321 17.0866 25.25 16.9474 25.4105 16.8423C25.5724 16.7372 25.7763 16.6847 26.022 16.6847C26.245 16.6847 26.4403 16.7315 26.608 16.8253C26.7756 16.9176 26.9055 17.0554 26.9979 17.2386C27.0902 17.4219 27.1364 17.6484 27.1364 17.9183V20H26.4993V17.995C26.4993 17.7578 26.4375 17.5724 26.3139 17.4389C26.1903 17.304 26.0206 17.2365 25.8047 17.2365C25.657 17.2365 25.5256 17.2685 25.4105 17.3324C25.2969 17.3963 25.2067 17.4901 25.1399 17.6136C25.0746 17.7358 25.0419 17.8835 25.0419 18.0568Z"
        fill="white" />
</svg>