<svg width="36" height="36" viewBox="0 0 36 36" fill="none" xmlns="http://www.w3.org/2000/svg">
    <rect x="0.5" y="0.5" width="35" height="35" rx="3.5" fill="white" />
    <rect x="0.5" y="0.5" width="35" height="35" rx="3.5" stroke="#E5E7EB" />
    <path
        d="M15.5 10.5H11.3333C10.8731 10.5 10.5 10.8731 10.5 11.3333V17.1667C10.5 17.6269 10.8731 18 11.3333 18H15.5C15.9602 18 16.3333 17.6269 16.3333 17.1667V11.3333C16.3333 10.8731 15.9602 10.5 15.5 10.5Z"
        stroke="#4B5563" stroke-width="1.6" stroke-linecap="round" stroke-linejoin="round" />
    <path
        d="M24.6667 10.5H20.5C20.0398 10.5 19.6667 10.8731 19.6667 11.3333V13.8333C19.6667 14.2936 20.0398 14.6667 20.5 14.6667H24.6667C25.1269 14.6667 25.5 14.2936 25.5 13.8333V11.3333C25.5 10.8731 25.1269 10.5 24.6667 10.5Z"
        stroke="#4B5563" stroke-width="1.6" stroke-linecap="round" stroke-linejoin="round" />
    <path
        d="M24.6667 18H20.5C20.0398 18 19.6667 18.3731 19.6667 18.8333V24.6667C19.6667 25.1269 20.0398 25.5 20.5 25.5H24.6667C25.1269 25.5 25.5 25.1269 25.5 24.6667V18.8333C25.5 18.3731 25.1269 18 24.6667 18Z"
        stroke="#4B5563" stroke-width="1.6" stroke-linecap="round" stroke-linejoin="round" />
    <path
        d="M15.5 21.3333H11.3333C10.8731 21.3333 10.5 21.7064 10.5 22.1667V24.6667C10.5 25.1269 10.8731 25.5 11.3333 25.5H15.5C15.9602 25.5 16.3333 25.1269 16.3333 24.6667V22.1667C16.3333 21.7064 15.9602 21.3333 15.5 21.3333Z"
        stroke="#4B5563" stroke-width="1.6" stroke-linecap="round" stroke-linejoin="round" />
</svg>