<svg width="36" height="36" viewBox="0 0 36 36" fill="none" xmlns="http://www.w3.org/2000/svg">
    <rect x="0.5" y="0.5" width="35" height="35" rx="3.5" fill="white" />
    <rect x="0.5" y="0.5" width="35" height="35" rx="3.5" stroke="#E5E7EB" />
    <path
        d="M6.71733 16V8.72727H8.0348V11.8061H11.4048V8.72727H12.7259V16H11.4048V12.9105H8.0348V16H6.71733ZM14.0877 16V15.0483L16.6126 12.5732C16.854 12.3293 17.0553 12.1127 17.2163 11.9233C17.3772 11.7339 17.498 11.5504 17.5785 11.3729C17.659 11.1953 17.6992 11.0059 17.6992 10.8047C17.6992 10.575 17.6471 10.3786 17.543 10.2152C17.4388 10.0495 17.2956 9.92164 17.1133 9.83168C16.931 9.74171 16.7238 9.69673 16.4918 9.69673C16.2527 9.69673 16.0432 9.74645 15.8633 9.84588C15.6834 9.94294 15.5437 10.0814 15.4442 10.2614C15.3472 10.4413 15.2987 10.6555 15.2987 10.9041H14.0451C14.0451 10.4425 14.1504 10.0412 14.3612 9.70028C14.5719 9.35937 14.8619 9.09541 15.2312 8.90838C15.6029 8.72135 16.029 8.62784 16.5096 8.62784C16.9973 8.62784 17.4258 8.71899 17.7951 8.90128C18.1644 9.08357 18.4509 9.33333 18.6545 9.65057C18.8604 9.9678 18.9634 10.33 18.9634 10.7372C18.9634 11.0095 18.9113 11.277 18.8072 11.5398C18.703 11.8026 18.5195 12.0937 18.2567 12.4134C17.9963 12.733 17.6306 13.12 17.1594 13.5746L15.9059 14.8494V14.8991H19.0735V16H14.0877Z"
        fill="#4B5563" />
    <path d="M6 21H30" stroke="#9CA3AF" />
    <path d="M6 25H30" stroke="#9CA3AF" />
    <path d="M6 29H18" stroke="#9CA3AF" />
</svg>