<svg width="36" height="36" viewBox="0 0 36 36" fill="none" xmlns="http://www.w3.org/2000/svg">
    <rect x="0.5" y="0.5" width="35" height="35" rx="3.5" fill="white" />
    <rect x="0.5" y="0.5" width="35" height="35" rx="3.5" stroke="#E5E7EB" />
    <path
        d="M18.0001 13.8333C18.0001 12.9493 17.6489 12.1014 17.0238 11.4763C16.3986 10.8512 15.5508 10.5 14.6667 10.5H9.66675V23H15.5001C16.1631 23 16.799 23.2634 17.2678 23.7322C17.7367 24.2011 18.0001 24.837 18.0001 25.5M18.0001 13.8333V25.5M18.0001 13.8333C18.0001 12.9493 18.3513 12.1014 18.9764 11.4763C19.6015 10.8512 20.4494 10.5 21.3334 10.5H26.3334V23H20.5001C19.837 23 19.2012 23.2634 18.7323 23.7322C18.2635 24.2011 18.0001 24.837 18.0001 25.5"
        stroke="#4B5563" stroke-width="1.6" stroke-linecap="round" stroke-linejoin="round" />
</svg>