<svg width="36" height="36" viewBox="0 0 36 36" fill="none" xmlns="http://www.w3.org/2000/svg">
    <rect x="0.5" y="0.5" width="35" height="35" rx="3.5" fill="white" />
    <rect x="0.5" y="0.5" width="35" height="35" rx="3.5" stroke="#E5E7EB" />
    <path
        d="M10.9787 23H9.34801L13.0121 12.8182H14.7869L18.451 23H16.8203L13.9418 14.6676H13.8622L10.9787 23ZM11.2521 19.0128H16.5419V20.3054H11.2521V19.0128ZM22.0243 23.169C21.5404 23.169 21.1029 23.0795 20.7118 22.9006C20.3207 22.7183 20.0108 22.4548 19.7821 22.1101C19.5568 21.7654 19.4441 21.3428 19.4441 20.8423C19.4441 20.4115 19.5269 20.0568 19.6926 19.7784C19.8584 19.5 20.0821 19.2796 20.3638 19.1172C20.6455 18.9548 20.9604 18.8321 21.3084 18.7493C21.6564 18.6664 22.0111 18.6035 22.3723 18.5604C22.8297 18.5073 23.2009 18.4643 23.486 18.4311C23.771 18.3946 23.9782 18.3366 24.1074 18.2571C24.2367 18.1776 24.3013 18.0483 24.3013 17.8693V17.8345C24.3013 17.4003 24.1787 17.0639 23.9334 16.8253C23.6915 16.5866 23.3302 16.4673 22.8496 16.4673C22.3491 16.4673 21.9547 16.5784 21.6664 16.8004C21.3813 17.0192 21.1841 17.2628 21.0748 17.5312L19.6777 17.2131C19.8435 16.7491 20.0854 16.3745 20.4036 16.0895C20.7251 15.8011 21.0946 15.5923 21.5123 15.4631C21.9299 15.3305 22.369 15.2642 22.8297 15.2642C23.1346 15.2642 23.4578 15.3007 23.7992 15.3736C24.1439 15.4432 24.4654 15.5724 24.7637 15.7614C25.0653 15.9503 25.3122 16.2204 25.5044 16.5717C25.6967 16.9197 25.7928 17.3722 25.7928 17.929V23H24.3411V21.956H24.2814C24.1853 22.1482 24.0411 22.3371 23.8489 22.5227C23.6567 22.7083 23.4097 22.8625 23.1081 22.9851C22.8065 23.1077 22.4453 23.169 22.0243 23.169ZM22.3475 21.9759C22.7585 21.9759 23.1098 21.8946 23.4015 21.7322C23.6964 21.5698 23.9202 21.3577 24.0726 21.0959C24.2284 20.8307 24.3063 20.5473 24.3063 20.2457V19.2614C24.2533 19.3144 24.1505 19.3641 23.998 19.4105C23.8489 19.4536 23.6782 19.4917 23.486 19.5249C23.2937 19.5547 23.1065 19.5829 22.9242 19.6094C22.7419 19.6326 22.5894 19.6525 22.4668 19.669C22.1784 19.7055 21.915 19.7668 21.6763 19.853C21.441 19.9392 21.2521 20.0634 21.1096 20.2259C20.9703 20.3849 20.9007 20.5971 20.9007 20.8622C20.9007 21.2301 21.0366 21.5085 21.3084 21.6974C21.5802 21.883 21.9266 21.9759 22.3475 21.9759Z"
        fill="#4B5563" />
</svg>