<svg width="36" height="36" viewBox="0 0 36 36" fill="none" xmlns="http://www.w3.org/2000/svg">
    <rect width="36" height="36" rx="4" fill="black" />
    <path
        d="M16.1916 16.1028V15.3834C15.9469 15.348 15.7022 15.3333 15.4575 15.3303C12.4472 15.3303 10 17.7775 10 20.7878C10 22.5686 10.8698 24.2374 12.3292 25.2576C11.4211 24.2817 10.8816 22.9755 10.8816 21.5397C10.8757 18.5854 13.2373 16.1706 16.1916 16.1028Z"
        fill="#25F4EE" />
    <path
        d="M16.3185 24.0516C17.66 24.0516 18.7716 22.9666 18.8217 21.6368L18.8335 9.76953H20.9858L20.9829 9.75184C20.9357 9.50418 20.9121 9.25061 20.9121 9H17.9489L17.9431 20.885C17.8959 22.259 16.7431 23.3322 15.372 23.285C14.9976 23.2732 14.632 23.1759 14.2988 22.999C14.7529 23.6241 15.49 24.0516 16.3185 24.0516Z"
        fill="#25F4EE" />
    <path d="M25.0397 13.8208V13.125C24.2406 13.125 23.4593 12.8921 22.793 12.4557C23.3709 13.1191 24.1522 13.6292 25.0397 13.8208Z" fill="#25F4EE" />
    <path d="M22.7935 12.4555C22.139 11.7066 21.7793 10.7455 21.7793 9.7489H20.9714C21.1808 10.8811 21.8648 11.8511 22.7935 12.4555Z" fill="#FE2C55" />
    <path
        d="M15.4544 18.2726C14.0804 18.2726 12.9453 19.4136 12.9453 20.7875C12.9453 21.7458 13.5055 22.5772 14.2986 22.9929C13.4937 21.8784 13.7443 20.3246 14.8559 19.5168C15.2804 19.2101 15.7935 19.045 16.3183 19.045C16.5689 19.045 16.8166 19.0834 17.0554 19.16V16.1379C16.8107 16.1025 16.5659 16.0848 16.3183 16.0848C16.2741 16.0848 16.2328 16.0878 16.1886 16.0878H16.1768L16.1709 18.3816C15.9409 18.3079 15.6991 18.2726 15.4544 18.2726Z"
        fill="#FE2C55" />
    <path
        d="M25.0399 13.7851L25.0252 13.7821V16.073C23.5422 16.0701 22.0974 15.6013 20.8945 14.7315V20.7905C20.8974 23.7919 18.468 26.2303 15.4635 26.2332C15.4606 26.2332 15.4576 26.2332 15.4517 26.2332C14.2871 26.2332 13.211 25.8823 12.3235 25.2602C13.3525 26.3718 14.8001 27.0027 16.3156 26.9998C19.3259 26.9998 21.7761 24.5526 21.7761 21.5423V15.5158C22.979 16.3796 24.4208 16.8455 25.9009 16.8425V13.8765C25.6149 13.8765 25.3259 13.844 25.0399 13.7851Z"
        fill="#FE2C55" />
    <path
        d="M20.9154 20.7904V14.761C22.1183 15.6248 23.5601 16.0907 25.0402 16.0877V13.7821C24.1674 13.5934 23.3773 13.1275 22.7935 12.4524C21.8471 11.8361 21.1925 10.8573 20.9832 9.74573H18.8131L18.8102 21.6366C18.763 23.0106 17.6102 24.0838 16.2362 24.0366C15.4638 24.0101 14.7503 23.6268 14.3021 22.9988C13.0815 22.3619 12.6127 20.8553 13.2495 19.6347C13.68 18.8121 14.5291 18.299 15.4579 18.299C15.7085 18.299 15.9561 18.3374 16.195 18.414V16.0877C13.2436 16.1556 10.8643 18.5762 10.8643 21.5423C10.8643 22.9221 11.3861 24.2519 12.3296 25.2602C13.2466 25.9059 14.3375 26.2509 15.4579 26.2509C18.4652 26.2479 20.9154 23.8008 20.9154 20.7904Z"
        fill="white" />
</svg>