<svg width="36" height="36" viewBox="0 0 36 36" fill="none" xmlns="http://www.w3.org/2000/svg">
    <rect width="36" height="36" rx="4" fill="#1A1A19" />
    <g clip-path="url(#clip0_17452_43380)">
        <path
            d="M23.4211 12H18.695C14.4432 12 14.1161 13.8316 14.1161 16.2845V20.8471C14.1161 23.3982 14.4432 25.1316 18.7114 25.1316H23.4211C27.6729 25.1316 28 23.3001 28 20.8635V16.2845C28 13.8316 27.6729 12 23.4211 12ZM8 15.287C8 13.1284 8.85037 12 10.2895 12C11.7285 12 12.5789 13.1284 12.5789 15.287V21.8446C12.5789 24.0033 11.7285 25.1316 10.2895 25.1316C8.85037 25.1316 8 24.0033 8 21.8446V15.287Z"
            fill="white" />
    </g>
    <defs>
        <clipPath id="clip0_17452_43380">
            <rect width="20" height="13.1316" fill="white" transform="translate(8 12)" />
        </clipPath>
    </defs>
</svg>