<svg width="36" height="36" viewBox="0 0 36 36" fill="none" xmlns="http://www.w3.org/2000/svg">
    <rect width="36" height="36" rx="4" fill="#006BFF" />
    <path
        d="M20.7055 15.7835C20.3903 15.457 20.0089 15.2018 19.5868 15.035C19.285 14.8914 18.9559 14.8145 18.6217 14.8095L17.7554 14.7954C17.4152 14.7899 17.0774 14.8514 16.7611 14.9765C16.4448 15.1015 16.1562 15.2877 15.9118 15.5243C15.6675 15.761 15.4721 16.0434 15.337 16.3556C15.2018 16.6677 15.1294 17.0034 15.1241 17.3435L15.1046 18.5468C15.0991 18.8869 15.1606 19.2248 15.2857 19.5411C15.4107 19.8574 15.5969 20.146 15.8335 20.3903C16.0702 20.6347 16.3526 20.83 16.6648 20.9652C16.9769 21.1004 17.3126 21.1727 17.6527 21.1781C17.6527 21.1781 17.962 21.1841 18.219 21.1884C18.3846 21.1908 18.5283 21.193 18.5531 21.1919C18.8181 21.1926 19.0814 21.1485 19.3317 21.0613C19.8206 20.9147 20.2671 20.6525 20.6333 20.2969C21.5984 19.3604 22.9022 18.9053 24.1933 18.9262C24.5225 18.9316 24.8506 18.9682 25.1729 19.0355C25.2921 18.4279 25.3021 17.8039 25.2026 17.1928C24.8792 17.249 24.5512 17.2746 24.223 17.2692C22.9316 17.2483 21.6427 16.7511 20.7062 15.7828"
        fill="white" />
    <path
        d="M21.379 21.0592C20.8968 21.528 20.3106 21.8762 19.6683 22.0753C19.3176 22.1962 18.9495 22.2587 18.5786 22.26C18.5407 22.26 18.4639 22.26 18.2109 22.2576L17.6425 22.2487C16.6747 22.2335 15.7524 21.8353 15.0777 21.1414C14.403 20.4474 14.0309 19.5143 14.0429 18.5465L14.0595 17.3432C14.0732 16.3744 14.4709 15.4507 15.1651 14.7748C15.8593 14.0989 16.7933 13.7261 17.7621 13.7383L18.6285 13.7503C19.1023 13.7563 19.5697 13.8617 20.0002 14.0597C20.5511 14.281 21.0491 14.616 21.4619 15.0428C22.1619 15.7627 23.1727 16.1838 24.2351 16.1983C24.4637 16.2013 24.6922 16.1853 24.9181 16.1505C24.8301 15.923 24.726 15.7019 24.6067 15.4891L23.6157 13.7196C23.1699 12.9218 22.522 12.2553 21.7371 11.7873C20.9522 11.3192 20.0579 11.0659 19.1441 11.0529L17.1162 11.0249C16.2021 11.0124 15.3008 11.2407 14.5028 11.6869C13.7048 12.133 13.0384 12.7813 12.5703 13.5667L11.5323 15.3089C11.0644 16.0944 10.8115 16.9892 10.7991 17.9033C10.7866 18.8175 11.0151 19.7188 11.4615 20.5167L12.4524 22.2862C12.8985 23.0839 13.5465 23.7502 14.3316 24.2182C15.1166 24.6862 16.0109 24.9393 16.9248 24.9522L18.9523 24.9802C19.8664 24.9929 20.7677 24.7648 21.5657 24.3189C22.3636 23.8729 23.0302 23.2247 23.4982 22.4395L24.5359 20.6968C24.6603 20.488 24.7698 20.2706 24.8636 20.0463C24.6387 20.0052 24.4107 19.9828 24.182 19.9795C23.1203 19.9646 22.1 20.3578 21.3805 21.0582"
        fill="white" />
    <path
        d="M27.2653 19.8506C26.6558 19.3814 25.9439 19.0632 25.1879 18.9219C25.1249 19.2733 25.0257 19.6173 24.892 19.9483C25.4881 20.0447 26.0532 20.2798 26.5419 20.6345L26.5377 20.6479C25.9733 22.4479 24.8582 24.0253 23.3497 25.1578C22.0213 26.1504 20.443 26.7539 18.7912 26.9007C17.1395 27.0475 15.4794 26.7319 13.9968 25.9891C12.5142 25.2463 11.2675 24.1056 10.3962 22.6947C9.5249 21.2838 9.06333 19.6583 9.06314 18C9.06336 16.3422 9.52461 14.7172 10.3953 13.3066C11.2661 11.8959 12.512 10.7552 13.9938 10.012C15.4756 9.2687 17.1349 8.9522 18.7862 9.09783C20.4376 9.24345 22.0159 9.84546 23.3447 10.8366C24.8521 11.9669 25.9674 13.5413 26.5338 15.3383C26.5369 15.3482 26.5394 15.3567 26.5415 15.3641L26.5341 15.3698C26.0475 15.7221 25.4851 15.9555 24.892 16.051C25.0258 16.3827 25.125 16.7272 25.1882 17.0791C25.9056 16.945 26.5836 16.6513 27.1722 16.2198C27.7565 15.7775 27.6111 15.2222 27.5488 15.0219C26.2814 10.9537 22.4858 8 18 8C12.4773 8 8 12.4773 8 18C8 23.5227 12.4773 28 18 28C22.4907 28 26.2899 25.0399 27.553 20.9643C27.6999 20.6175 27.7098 20.2123 27.2653 19.8506Z"
        fill="white" />
</svg>