<svg width="36" height="36" viewBox="0 0 36 36" fill="none" xmlns="http://www.w3.org/2000/svg">
    <rect x="0.5" y="0.5" width="35" height="35" rx="3.5" fill="white" />
    <rect x="0.5" y="0.5" width="35" height="35" rx="3.5" stroke="#E5E7EB" />
    <path fill-rule="evenodd" clip-rule="evenodd"
        d="M25.5455 15.1015L25.5454 15.1401C25.5453 15.1564 25.5451 15.1726 25.5449 15.1889C25.5453 15.2079 25.5455 15.2271 25.5455 15.2464C25.5455 18.2794 23.1825 20.964 21.6013 22.7606C21.1425 23.2819 20.7495 23.7285 20.4991 24.087C19.6085 25.3624 19.1385 26.744 19.0148 27.2754C19.0148 27.6755 18.6826 28 18.2727 28C17.8628 28 17.5306 27.6755 17.5306 27.2754C17.4069 26.744 16.9369 25.3624 16.0464 24.087C15.796 23.7285 15.403 23.2819 14.9442 22.7606C13.363 20.964 11 18.2794 11 15.2464C11 15.2271 11.0002 15.2079 11.0005 15.1889C11.0002 15.1598 11 15.1306 11 15.1015C11 11.1794 14.2561 8 18.2727 8C22.2894 8 25.5455 11.1794 25.5455 15.1015ZM18.2727 17.7102C19.8302 17.7102 21.0927 16.4773 21.0927 14.9565C21.0927 13.4357 19.8302 12.2029 18.2727 12.2029C16.7153 12.2029 15.4527 13.4357 15.4527 14.9565C15.4527 16.4773 16.7153 17.7102 18.2727 17.7102Z"
        fill="#34A851" />
    <path
        d="M24.7322 11.8351C23.8417 10.1595 22.2874 8.87437 20.4095 8.31165L16.2327 13.0559C16.7462 12.5305 17.4704 12.2032 18.2729 12.2032C19.8304 12.2032 21.0929 13.436 21.0929 14.9568C21.0929 15.5772 20.8828 16.1497 20.5283 16.6101L24.7322 11.8351Z"
        fill="#4285F5" />
    <path
        d="M15.0283 22.8569C15.0004 22.8251 14.9723 22.7932 14.944 22.7611C13.9017 21.5768 12.5197 20.0067 11.6987 18.2052L16.04 13.2744C15.6716 13.7397 15.4524 14.3233 15.4524 14.957C15.4524 16.4777 16.715 17.7106 18.2725 17.7106C19.0614 17.7106 19.7747 17.3942 20.2865 16.8843L15.0283 22.8569Z"
        fill="#F9BB0E" />
    <path
        d="M12.7208 10.5142C11.6473 11.7516 11 13.3528 11 15.1015C11 15.1307 11.0002 15.1599 11.0005 15.189C11.0002 15.208 11 15.2271 11 15.2464C11 16.2801 11.2745 17.2735 11.699 18.2049L16.0329 13.2823L12.7208 10.5142Z"
        fill="#E74335" />
    <path
        d="M20.4089 8.3114C19.7334 8.10898 19.0159 8 18.2724 8C16.0467 8 14.0545 8.97625 12.7205 10.5141L16.0326 13.2823L16.0398 13.2741C16.1 13.198 16.1642 13.125 16.2321 13.0555L20.4089 8.3114Z"
        fill="#1A73E6" />
</svg>