<svg width="36" height="36" viewBox="0 0 36 36" fill="none" xmlns="http://www.w3.org/2000/svg">
    <rect x="0.5" y="0.5" width="35" height="35" rx="3.5" fill="white" />
    <rect x="0.5" y="0.5" width="35" height="35" rx="3.5" stroke="#E5E7EB" />
    <path
        d="M25.5 20.5L22.9283 17.9283C22.6158 17.6158 22.1919 17.4403 21.75 17.4403C21.3081 17.4403 20.8842 17.6158 20.5717 17.9283L13 25.5M12.1667 10.5H23.8333C24.7538 10.5 25.5 11.2462 25.5 12.1667V23.8333C25.5 24.7538 24.7538 25.5 23.8333 25.5H12.1667C11.2462 25.5 10.5 24.7538 10.5 23.8333V12.1667C10.5 11.2462 11.2462 10.5 12.1667 10.5ZM17.1667 15.5C17.1667 16.4205 16.4205 17.1667 15.5 17.1667C14.5795 17.1667 13.8333 16.4205 13.8333 15.5C13.8333 14.5795 14.5795 13.8333 15.5 13.8333C16.4205 13.8333 17.1667 14.5795 17.1667 15.5Z"
        stroke="#4B5563" stroke-width="1.6" stroke-linecap="round" stroke-linejoin="round" />
</svg>