<svg width="36" height="36" viewBox="0 0 36 36" fill="none" xmlns="http://www.w3.org/2000/svg">
    <rect width="36" height="36" rx="4" fill="#0A66C2" />
    <path
        d="M24.4899 24.3372H21.7963V20.1604C21.7963 19.1644 21.7783 17.8822 20.3953 17.8822C18.9923 17.8822 18.7777 18.9674 18.7777 20.0879V24.3369H16.084V15.7477H18.6699V16.9215H18.7061C18.9649 16.4834 19.3389 16.1229 19.7882 15.8786C20.2375 15.6343 20.7453 15.5152 21.2575 15.534C23.9877 15.534 24.4911 17.3121 24.4911 19.6253L24.4899 24.3372ZM13.0447 14.5736C12.7355 14.5736 12.4333 14.4829 12.1762 14.3129C11.9191 14.1429 11.7187 13.9012 11.6003 13.6184C11.482 13.3356 11.451 13.0244 11.5112 12.7241C11.5715 12.4239 11.7203 12.1481 11.9389 11.9316C12.1575 11.7151 12.436 11.5676 12.7392 11.5078C13.0424 11.4481 13.3567 11.4787 13.6423 11.5958C13.928 11.7129 14.1722 11.9112 14.344 12.1657C14.5158 12.4202 14.6075 12.7194 14.6076 13.0255C14.6076 13.2288 14.5672 13.4301 14.4887 13.6179C14.4102 13.8057 14.2951 13.9763 14.1499 14.1201C14.0048 14.2638 13.8325 14.3778 13.6429 14.4557C13.4532 14.5335 13.25 14.5735 13.0447 14.5736ZM14.3915 24.3372H11.6951V15.7477H14.3915V24.3372ZM25.8328 9.00123H10.3415C9.98989 8.9973 9.65107 9.13175 9.39953 9.37503C9.14798 9.61832 9.00429 9.95053 9 10.2987V25.7011C9.00414 26.0494 9.14775 26.3818 9.39929 26.6254C9.65082 26.8689 9.98972 27.0036 10.3415 26.9999H25.8328C26.1853 27.0043 26.5251 26.8699 26.7777 26.6264C27.0302 26.3829 27.1748 26.0501 27.1797 25.7011V10.2976C27.1746 9.94873 27.03 9.61614 26.7774 9.37286C26.5249 9.12958 26.1851 8.99551 25.8328 9.00011"
        fill="white" />
</svg>