<svg width="36" height="36" viewBox="0 0 36 36" fill="none" xmlns="http://www.w3.org/2000/svg">
    <rect width="36" height="36" rx="4" fill="#E60023" />
    <g clip-path="url(#clip0_17452_43387)">
        <path
            d="M18 8C12.4774 8 8 12.4774 8 18C8 22.2387 10.6337 25.8601 14.3539 27.3169C14.2634 26.5267 14.1893 25.3086 14.3868 24.4444C14.5679 23.6626 15.5556 19.4733 15.5556 19.4733C15.5556 19.4733 15.2593 18.8724 15.2593 17.9918C15.2593 16.6008 16.0658 15.5638 17.07 15.5638C17.9259 15.5638 18.3374 16.2058 18.3374 16.9712C18.3374 17.8272 17.7942 19.1111 17.5062 20.3045C17.2675 21.3004 18.0082 22.1152 18.9877 22.1152C20.7654 22.1152 22.1317 20.2387 22.1317 17.5391C22.1317 15.144 20.4115 13.4733 17.9506 13.4733C15.1029 13.4733 13.4321 15.6049 13.4321 17.8107C13.4321 18.6667 13.7613 19.5885 14.1728 20.0905C14.2551 20.1893 14.2634 20.2798 14.2387 20.3786C14.1646 20.6914 13.9918 21.3745 13.9588 21.5144C13.9177 21.6955 13.8107 21.7366 13.6214 21.6461C12.3704 21.0617 11.5885 19.2428 11.5885 17.7695C11.5885 14.6173 13.8765 11.7202 18.1975 11.7202C21.6626 11.7202 24.3621 14.1893 24.3621 17.4979C24.3621 20.9465 22.1893 23.7202 19.177 23.7202C18.1646 23.7202 17.2099 23.1934 16.8889 22.5679C16.8889 22.5679 16.3868 24.4774 16.2634 24.9465C16.0412 25.8189 15.4321 26.9053 15.0206 27.572C15.9588 27.8601 16.9465 28.0165 17.9835 28.0165C23.5062 28.0165 27.9835 23.5391 27.9835 18.0165C28 12.4774 23.5226 8 18 8Z"
            fill="white" />
    </g>
    <defs>
        <clipPath id="clip0_17452_43387">
            <rect width="20" height="20" fill="white" transform="translate(8 8)" />
        </clipPath>
    </defs>
</svg>