<svg width="36" height="36" viewBox="0 0 36 36" fill="none" xmlns="http://www.w3.org/2000/svg">
    <rect x="0.5" y="0.5" width="35" height="35" rx="3.5" fill="white" />
    <rect x="0.5" y="0.5" width="35" height="35" rx="3.5" stroke="#E5E7EB" />
    <path
        d="M9.2983 17L10.1435 11.9091H10.7599L10.3821 14.1761H13.0966L13.4744 11.9091H14.0909L13.2457 17H12.6293L13.0071 14.723H10.2926L9.91477 17H9.2983ZM15.9913 17.0795C15.6251 17.0795 15.3226 16.9983 15.084 16.8359C14.8453 16.6719 14.6788 16.4432 14.5843 16.1499C14.4899 15.8549 14.475 15.5118 14.5396 15.1207C14.6042 14.7296 14.7327 14.3849 14.9249 14.0866C15.1171 13.7867 15.3566 13.553 15.6433 13.3857C15.93 13.2166 16.2449 13.1321 16.5879 13.1321C16.7868 13.1321 16.9782 13.1652 17.1621 13.2315C17.3461 13.2978 17.5051 13.4055 17.6394 13.5547C17.7736 13.7022 17.8672 13.8977 17.9203 14.1413C17.9733 14.3849 17.97 14.6849 17.9103 15.0412L17.8706 15.2898H14.9274L15.0069 14.7827H17.3535C17.3916 14.5672 17.3817 14.375 17.3237 14.206C17.2673 14.0369 17.1687 13.9035 17.0279 13.8058C16.8887 13.708 16.7122 13.6591 16.4984 13.6591C16.278 13.6591 16.0725 13.7187 15.8819 13.8381C15.6913 13.9557 15.5323 14.1049 15.4047 14.2855C15.277 14.4645 15.1975 14.6468 15.166 14.8324L15.0964 15.2699C15.0467 15.5864 15.0542 15.8383 15.1188 16.0256C15.1851 16.2128 15.3002 16.3479 15.4643 16.4308C15.6284 16.512 15.8339 16.5526 16.0808 16.5526C16.2382 16.5526 16.3832 16.531 16.5158 16.4879C16.6484 16.4432 16.7669 16.3769 16.8713 16.2891C16.9757 16.1996 17.0635 16.0885 17.1348 15.956L17.6717 16.1151C17.5806 16.3073 17.4521 16.4763 17.2864 16.6222C17.1223 16.7663 16.9301 16.879 16.7097 16.9602C16.4909 17.0398 16.2515 17.0795 15.9913 17.0795ZM18.5162 18.4318C18.4168 18.4318 18.329 18.4235 18.2528 18.407C18.1782 18.392 18.1268 18.3771 18.0986 18.3622L18.3373 17.8452C18.4732 17.8816 18.5941 17.8924 18.7002 17.8775C18.8079 17.8642 18.9098 17.812 19.0059 17.7209C19.1037 17.6314 19.2056 17.4905 19.3117 17.2983L19.4758 17L18.7101 13.1818H19.3216L19.8685 16.2344H19.9083L21.4694 13.1818H22.1306L19.789 17.5518C19.6796 17.7557 19.5595 17.9222 19.4285 18.0515C19.2976 18.1808 19.1559 18.276 19.0035 18.3374C18.851 18.4003 18.6886 18.4318 18.5162 18.4318ZM9.77557 19.456L9.86506 18.9091H13.6832L13.5938 19.456H11.9929L11.2372 24H10.6207L11.3764 19.456H9.77557ZM14.6744 21.7031L14.2966 24H13.71L14.5551 18.9091H15.1418L14.8335 20.7784H14.8833C15.0026 20.5795 15.1617 20.4221 15.3605 20.3061C15.5611 20.1901 15.8129 20.1321 16.1162 20.1321C16.3747 20.1321 16.5927 20.1843 16.77 20.2887C16.949 20.3915 17.0749 20.5497 17.1478 20.7635C17.2224 20.9756 17.2332 21.2457 17.1801 21.5739L16.7725 24H16.1858L16.5835 21.6136C16.6333 21.3104 16.5927 21.0759 16.4617 20.9102C16.3325 20.7428 16.1311 20.6591 15.8577 20.6591C15.6655 20.6591 15.4865 20.6997 15.3208 20.7809C15.1567 20.8621 15.0175 20.9806 14.9031 21.1364C14.7905 21.2921 14.7142 21.4811 14.6744 21.7031ZM19.4366 24.0795C19.0704 24.0795 18.7679 23.9983 18.5293 23.8359C18.2907 23.6719 18.1241 23.4432 18.0297 23.1499C17.9352 22.8549 17.9203 22.5118 17.9849 22.1207C18.0495 21.7296 18.178 21.3849 18.3702 21.0866C18.5624 20.7867 18.8019 20.553 19.0886 20.3857C19.3753 20.2166 19.6902 20.1321 20.0332 20.1321C20.2321 20.1321 20.4235 20.1652 20.6074 20.2315C20.7914 20.2978 20.9505 20.4055 21.0847 20.5547C21.2189 20.7022 21.3126 20.8977 21.3656 21.1413C21.4186 21.3849 21.4153 21.6849 21.3556 22.0412L21.3159 22.2898H18.3727L18.4522 21.7827H20.7988C20.8369 21.5672 20.827 21.375 20.769 21.206C20.7127 21.0369 20.6141 20.9035 20.4732 20.8058C20.334 20.708 20.1575 20.6591 19.9437 20.6591C19.7233 20.6591 19.5178 20.7187 19.3272 20.8381C19.1367 20.9557 18.9776 21.1049 18.85 21.2855C18.7224 21.4645 18.6428 21.6468 18.6113 21.8324L18.5417 22.2699C18.492 22.5864 18.4995 22.8383 18.5641 23.0256C18.6304 23.2128 18.7456 23.3479 18.9096 23.4308C19.0737 23.512 19.2792 23.5526 19.5261 23.5526C19.6835 23.5526 19.8285 23.531 19.9611 23.4879C20.0937 23.4432 20.2122 23.3769 20.3166 23.2891C20.421 23.1996 20.5088 23.0885 20.5801 22.956L21.117 23.1151C21.0259 23.3073 20.8974 23.4763 20.7317 23.6222C20.5676 23.7663 20.3754 23.879 20.155 23.9602C19.9363 24.0398 19.6968 24.0795 19.4366 24.0795ZM21.9336 24L22.57 20.1818H23.1367L23.0373 20.7585H23.0771C23.1765 20.5696 23.3281 20.4163 23.532 20.2987C23.7358 20.181 23.9521 20.1222 24.1808 20.1222C24.2255 20.1222 24.2794 20.123 24.3423 20.1246C24.4053 20.1246 24.4542 20.1271 24.489 20.1321L24.3896 20.7287C24.3697 20.7237 24.3249 20.7163 24.2553 20.7063C24.1857 20.6947 24.1112 20.6889 24.0316 20.6889C23.846 20.6889 23.6745 20.7279 23.517 20.8058C23.3596 20.882 23.2279 20.988 23.1218 21.1239C23.0157 21.2582 22.9478 21.4115 22.918 21.5838L22.5202 24H21.9336ZM26.0265 24.0795C25.6602 24.0795 25.3578 23.9983 25.1191 23.8359C24.8805 23.6719 24.714 23.4432 24.6195 23.1499C24.525 22.8549 24.5101 22.5118 24.5748 22.1207C24.6394 21.7296 24.7678 21.3849 24.96 21.0866C25.1523 20.7867 25.3917 20.553 25.6784 20.3857C25.9651 20.2166 26.28 20.1321 26.623 20.1321C26.8219 20.1321 27.0133 20.1652 27.1973 20.2315C27.3812 20.2978 27.5403 20.4055 27.6745 20.5547C27.8088 20.7022 27.9024 20.8977 27.9554 21.1413C28.0085 21.3849 28.0051 21.6849 27.9455 22.0412L27.9057 22.2898H24.9625L25.0421 21.7827H27.3887C27.4268 21.5672 27.4168 21.375 27.3588 21.206C27.3025 21.0369 27.2039 20.9035 27.063 20.8058C26.9238 20.708 26.7473 20.6591 26.5336 20.6591C26.3132 20.6591 26.1077 20.7187 25.9171 20.8381C25.7265 20.9557 25.5674 21.1049 25.4398 21.2855C25.3122 21.4645 25.2327 21.6468 25.2012 21.8324L25.1316 22.2699C25.0819 22.5864 25.0893 22.8383 25.1539 23.0256C25.2202 23.2128 25.3354 23.3479 25.4995 23.4308C25.6635 23.512 25.869 23.5526 26.1159 23.5526C26.2734 23.5526 26.4184 23.531 26.551 23.4879C26.6835 23.4432 26.802 23.3769 26.9064 23.2891C27.0108 23.1996 27.0987 23.0885 27.1699 22.956L27.7069 23.1151C27.6157 23.3073 27.4873 23.4763 27.3216 23.6222C27.1575 23.7663 26.9653 23.879 26.7449 23.9602C26.5261 24.0398 26.2866 24.0795 26.0265 24.0795ZM30.1442 18.9091L29.4879 22.5682H28.9112L29.468 18.9091H30.1442ZM29.0305 24.0398C28.9046 24.0398 28.7994 23.9967 28.7148 23.9105C28.6303 23.8227 28.5864 23.7166 28.5831 23.5923C28.5814 23.468 28.6254 23.3645 28.7148 23.2816C28.8043 23.1971 28.9096 23.1548 29.0305 23.1548C29.1532 23.1548 29.2592 23.1979 29.3487 23.2841C29.4382 23.3703 29.4813 23.473 29.478 23.5923C29.4763 23.6752 29.4548 23.7506 29.4134 23.8185C29.3736 23.8865 29.3197 23.9403 29.2518 23.9801C29.1855 24.0199 29.1117 24.0398 29.0305 24.0398Z"
        fill="#9CA3AF" />
    <path d="M6 9V27" stroke="#4B5563" />
</svg>