<svg width="36" height="36" viewBox="0 0 36 36" fill="none" xmlns="http://www.w3.org/2000/svg">
    <rect width="36" height="36" rx="4" fill="#FF5500" />
    <path
        d="M8.06247 22.1547C8.10786 22.1547 8.14629 22.1174 8.15282 22.0648L8.39958 20.1089L8.15355 18.1085C8.14622 18.0559 8.10786 18.0183 8.06247 18.0183C8.0159 18.0183 7.97623 18.0567 7.97007 18.1085L7.75439 20.1089L7.97007 22.0641C7.97623 22.1166 8.0159 22.1547 8.06247 22.1547Z"
        fill="white" />
    <path
        d="M7.24911 21.4107C7.2937 21.4107 7.32985 21.376 7.33638 21.3242L7.52764 20.1088L7.33638 18.8706C7.32978 18.8204 7.2937 18.7841 7.24911 18.7841C7.20255 18.7841 7.16647 18.8204 7.15987 18.8713L7 20.1088L7.15987 21.3239C7.16647 21.3753 7.20255 21.4107 7.24911 21.4107Z"
        fill="white" />
    <path
        d="M9.03581 17.7361C9.02994 17.6725 8.98338 17.6261 8.92559 17.6261C8.86824 17.6261 8.8216 17.6725 8.81625 17.7361L8.61011 20.1088L8.81625 22.3949C8.8216 22.4581 8.86824 22.504 8.92559 22.504C8.98338 22.504 9.02994 22.4581 9.03581 22.3949L9.26901 20.1088L9.03581 17.7361Z"
        fill="white" />
    <path
        d="M9.79791 22.5958C9.86553 22.5958 9.92023 22.5402 9.92683 22.4674L10.1472 20.1093L9.92683 17.6704C9.92023 17.5971 9.86553 17.5421 9.79791 17.5421C9.72935 17.5421 9.67383 17.5972 9.66914 17.6707L9.47437 20.1093L9.66914 22.4674C9.67383 22.5402 9.72935 22.5958 9.79791 22.5958Z"
        fill="white" />
    <path
        d="M10.6761 22.6343C10.7548 22.6343 10.818 22.5712 10.8246 22.4868L10.8238 22.4874L11.0314 20.1095L10.8238 17.8466C10.818 17.7636 10.7548 17.6996 10.676 17.6996C10.5961 17.6996 10.5332 17.7636 10.5285 17.8473L10.345 20.1095L10.5285 22.4869C10.5333 22.5712 10.5961 22.6343 10.6761 22.6343Z"
        fill="white" />
    <path
        d="M11.9229 20.1101L11.7282 16.4308C11.7227 16.3375 11.6501 16.2632 11.5609 16.2632C11.4724 16.2632 11.3999 16.3375 11.3945 16.4308L11.2222 20.1101L11.3945 22.4874C11.3999 22.5812 11.4725 22.6545 11.5609 22.6545C11.6501 22.6545 11.7227 22.5812 11.7282 22.4874V22.4881L11.9229 20.1101Z"
        fill="white" />
    <path
        d="M12.455 22.6583C12.5532 22.6583 12.6347 22.5768 12.6393 22.4728V22.4744L12.8213 20.1106L12.6393 15.5891C12.6347 15.4852 12.5532 15.4037 12.455 15.4037C12.3546 15.4037 12.2738 15.4852 12.2684 15.5891L12.1082 20.1106L12.2691 22.4736C12.2738 22.5768 12.3546 22.6583 12.455 22.6583Z"
        fill="white" />
    <path
        d="M13.354 15.0072C13.2434 15.0072 13.1541 15.098 13.1496 15.2125L13.0005 20.1112L13.1496 22.4494C13.1542 22.5633 13.2434 22.6535 13.354 22.6535C13.4642 22.6535 13.5542 22.564 13.558 22.449V22.4502L13.7272 20.1112L13.558 15.2125C13.5542 15.0973 13.4642 15.0072 13.354 15.0072Z"
        fill="white" />
    <path
        d="M14.2607 22.6583C14.3822 22.6583 14.4789 22.5603 14.4834 22.4342V22.4356L14.6399 20.1114L14.4834 15.0481C14.4788 14.9224 14.3822 14.824 14.2607 14.824C14.1386 14.824 14.0404 14.9224 14.0385 15.0481L13.8979 20.1114L14.0385 22.4356C14.0404 22.5603 14.1386 22.6583 14.2607 22.6583Z"
        fill="white" />
    <path
        d="M15.1749 22.6558C15.3059 22.6558 15.4123 22.5486 15.4162 22.4125V22.4146L15.5602 20.1117L15.4162 15.1771C15.4123 15.0412 15.3059 14.9343 15.1749 14.9343C15.0429 14.9343 14.9365 15.0411 14.9327 15.1771L14.8062 20.1117L14.9335 22.4135C14.9365 22.5486 15.0429 22.6558 15.1749 22.6558Z"
        fill="white" />
    <path
        d="M16.4861 20.1117L16.3558 15.3571C16.3526 15.2104 16.2378 15.0952 16.0954 15.0952C15.9526 15.0952 15.8377 15.2104 15.8347 15.358L15.7178 20.1117L15.8347 22.3996C15.8377 22.5451 15.9525 22.6604 16.0954 22.6604C16.2377 22.6604 16.3526 22.5451 16.3558 22.3975V22.3996L16.4861 20.1117Z"
        fill="white" />
    <path
        d="M17.0236 22.6647C17.175 22.6647 17.3003 22.5388 17.3027 22.384V22.3852L17.421 20.1131L17.3027 14.4552C17.3004 14.2998 17.1751 14.1741 17.0236 14.1741C16.8724 14.1741 16.7474 14.3004 16.7443 14.456L16.6392 20.1108L16.7443 22.3853C16.7474 22.5388 16.8724 22.6647 17.0236 22.6647Z"
        fill="white" />
    <path
        d="M17.9481 13.6417C17.7846 13.6417 17.6521 13.7773 17.6493 13.9426L17.5271 20.1137L17.6501 22.3523C17.6521 22.5155 17.7847 22.6506 17.9481 22.6506C18.1091 22.6506 18.2442 22.5154 18.2449 22.3496V22.3523L18.3784 20.1137L18.2449 13.9426C18.2442 13.7767 18.1091 13.6417 17.9481 13.6417Z"
        fill="white" />
    <path
        d="M18.7934 22.6668C18.8 22.6674 26.2458 22.6709 26.2936 22.6709C27.7885 22.6709 28.9999 21.4447 28.9999 19.9314C28.9999 18.419 27.7884 17.1925 26.2936 17.1925C25.9226 17.1925 25.5691 17.2683 25.2468 17.4057C25.0325 14.9364 22.987 13 20.4917 13C19.8817 13 19.2869 13.1219 18.7615 13.3277C18.5571 13.4077 18.5023 13.4901 18.5007 13.6498V22.3427C18.5031 22.5106 18.6311 22.6502 18.7934 22.6668Z"
        fill="white" />
</svg>