<svg width="97" height="72" viewBox="0 0 97 72" fill="none" xmlns="http://www.w3.org/2000/svg">
    <path
        d="M37.9695 2.83502C37.169 4.50291 36.3034 6.13297 35.3727 7.72521L35.5944 2.30193C35.7237 -0.769947 30.9496 -0.764669 30.8203 2.30193L30.5801 7.78063C30.1579 6.23237 29.7673 4.67533 29.4084 3.10948C28.7275 0.11414 24.1302 1.38353 24.8058 4.37887C25.4709 7.26601 26.2441 10.1241 27.1256 12.9532C27.6534 14.6739 29.4823 14.9483 30.6989 14.2727C30.9 14.5667 31.1681 14.8087 31.481 14.9789C31.7938 15.1491 32.1427 15.2427 32.4987 15.2518C33.491 16.1966 35.3516 16.4209 36.3861 14.9536C38.554 11.8779 40.4617 8.62677 42.0891 5.23393C43.4113 2.48666 39.289 0.0613586 37.9695 2.83502Z"
        fill="#6B7280" />
    <path
        d="M51.8933 71.5195C51.822 61.9317 51.5608 52.0115 46.6811 43.4609C44.2031 39.1196 40.3817 35.2376 38.6531 30.5137C37.8614 28.3417 37.7717 25.8399 39.2654 23.9371C41.1998 21.4775 44.6253 21.9895 47.3172 22.5463C47.7684 22.6387 48.386 22.3273 48.3253 21.7783C47.9268 18.2657 46.9688 15.2387 44.1239 12.9586C41.6733 11.0398 38.787 9.7553 35.7211 9.21903C32.615 8.66574 29.4297 8.73788 26.3518 9.43122C23.274 10.1246 20.3654 11.4251 17.7966 13.2568C8.16397 20.1184 4.86514 32.551 2.97029 43.6061C1.41852 52.6712 0.595135 61.871 1.07281 71.0682C1.07245 71.207 1.10859 71.3434 1.17761 71.4639C1.24662 71.5843 1.34609 71.6845 1.46603 71.7543C1.93314 71.9681 2.55068 71.8968 3.04947 71.9074C4.24496 71.9312 5.43782 71.9417 6.63332 71.9523C9.94095 71.9839 13.2477 72.0068 16.5536 72.0209C25.405 72.071 34.2538 72.1713 43.1026 72.2478C45.7416 72.2716 48.4731 72.0631 51.0963 72.3217C51.2469 72.3471 51.4016 72.3176 51.5323 72.2387C51.663 72.1598 51.7611 72.0366 51.8088 71.8916C51.8669 71.7763 51.8959 71.6485 51.8933 71.5195Z"
        fill="#9CA3AF" />
    <path
        d="M41.6222 52.3292C48.4257 51.5665 54.5141 47.7109 57.8208 41.6516C59.2934 38.9545 55.1817 36.5423 53.6986 39.2421C51.2548 43.7285 46.742 46.9799 41.6222 47.5552C40.3423 47.6977 39.2471 48.5501 39.2471 49.9303C39.2471 51.11 40.3449 52.4612 41.6222 52.3055V52.3292Z"
        fill="#9CA3AF" />
    <path
        d="M76.3427 22.2965C76.2549 21.3519 76.0592 20.4204 75.7595 19.5202C75.4243 18.5306 74.0757 18.9449 74.2262 19.9425L74.2974 20.4149C71.8431 18.7892 68.8372 17.6439 66.1797 16.7202C64.7783 16.232 62.9468 15.3716 61.4293 15.5669C59.8459 15.7701 59.0727 17.6412 58.3786 18.8552C56.4046 22.3229 54.42 25.8461 52.5726 29.3824C51.8126 30.8392 51.1845 32.3619 50.4139 33.8134C50.15 34.3228 49.8597 34.8347 49.5984 35.3546C49.4216 34.5629 48.2789 34.6368 48.0651 35.3546C47.6033 36.8668 48.329 38.635 49.0389 39.9651C49.0908 40.0758 49.1712 40.1708 49.2718 40.2404C49.3724 40.3099 49.4897 40.3515 49.6116 40.3609C51.0182 41.4324 52.7785 42.0631 54.3962 42.7361C56.2911 43.5437 58.0513 44.5597 59.9066 45.4411C62.5114 46.6762 65.8419 47.2515 67.3989 44.2562C69.299 40.6037 70.8719 36.6979 72.5609 32.9399C73.4952 30.8603 74.4135 28.7728 75.3161 26.6774C75.8941 25.3315 76.8652 23.8008 76.3427 22.2965Z"
        fill="#6B7280" />
    <path
        d="M74.4403 18.2038C71.7299 16.3459 68.5683 14.9551 65.4674 13.8862C64.2007 13.4429 62.7941 12.8834 61.4508 12.7435C60.0336 12.5957 59.3 13.3769 58.5848 14.4959C56.7137 17.4252 55.3123 20.6317 53.5257 23.6112C51.8683 26.3769 50.5382 29.3063 49.0683 32.1723C48.0127 34.2097 47.0573 36.3948 49.3691 37.8622C52.3724 39.5723 55.7029 40.8733 58.8302 42.3301C60.5456 43.1218 64.1083 44.9349 65.6918 43.0849C66.6418 41.9765 67.1485 40.2795 67.7687 38.9706C68.5604 37.3027 69.3416 35.6313 70.1122 33.9563C71.613 30.6945 73.075 27.4159 74.4983 24.1205C75.422 21.9855 76.7785 19.8109 74.4403 18.2038Z"
        fill="#9CA3AF" />
    <path
        d="M70.8888 17.9605C66.7903 15.6909 61.7998 13.0333 58.7623 18.1927C57.214 20.8775 55.7458 23.6046 54.3577 26.3738C53.3416 28.4138 52.0458 30.5304 51.3386 32.7076C50.8108 34.291 51.2013 35.7715 52.5631 36.7876C54.6928 38.371 57.7225 39.2947 60.2164 40.1841C62.2854 40.923 64.3201 41.2212 65.5394 39.0387C67.0568 36.3257 68.1996 33.3278 69.498 30.504C70.7199 27.8649 72.3508 25.1519 73.1927 22.3572C73.826 20.1694 72.6939 18.9581 70.8888 17.9605Z"
        fill="white" />
    <path
        d="M67.9006 23.3998C66.1782 24.0561 64.4733 24.751 62.7861 25.4847L61.683 22.0539C61.0602 20.1116 57.9883 20.9402 58.6137 22.9011L59.8647 26.8095C58.561 27.4165 57.2678 28.0472 55.9852 28.7017C54.1616 29.6333 55.7688 32.3806 57.5924 31.449C58.6674 30.9001 59.7503 30.3723 60.8411 29.8656L62.1158 33.8453C62.7386 35.7876 65.8105 34.9589 65.185 32.9981L63.7573 28.5381C65.4041 27.8168 67.0675 27.1341 68.7478 26.4902C70.6426 25.7565 69.8192 22.6794 67.9006 23.3998Z"
        fill="#6B7280" />
    <path
        d="M53.4398 42.4512C52.9621 41.1633 52.9357 39.3635 54.0415 38.387C54.8121 37.7088 53.6826 36.5872 52.9173 37.2628C51.4077 38.5823 51.2388 41.0815 51.9065 42.8761C52.2601 43.8288 53.7987 43.4039 53.4398 42.4538V42.4512Z"
        fill="#9CA3AF" />
    <path
        d="M37.3449 14.7425C37.3219 14.6735 37.2899 14.6079 37.2499 14.5472C37.2188 14.4914 37.1816 14.4391 37.1391 14.3915C35.458 12.0533 32.3069 10.9924 29.7022 12.523C27.327 13.9244 26.2186 17.0543 27.3402 19.6116C28.6281 22.5488 32.8822 22.7784 35.3524 21.3217C37.754 19.8992 38.5747 17.1942 37.3449 14.7425Z"
        fill="white" />
    <path
        d="M32.258 14.7158C29.1862 14.7158 29.1809 19.4899 32.258 19.4899C35.3352 19.4899 35.3299 14.7158 32.258 14.7158Z"
        fill="#6B7280" />
    <path
        d="M47.5277 21.7755C45.9864 21.4456 44.3344 21.1712 42.7773 21.3163C42.9146 20.1314 43.5084 19.0256 44.2104 18.0518C44.7183 17.3371 45.2738 16.6573 45.873 16.0171C46.9418 17.7325 47.3007 19.6616 47.5277 21.7755Z"
        fill="#6B7280" />
    <path
        d="M47.7344 21.0076C46.0982 20.6645 44.4567 20.4032 42.7809 20.522L43.5488 21.5301C43.8576 19.5825 45.1323 17.9911 46.4386 16.5818L45.1877 16.4209C46.1694 18.0703 46.5072 19.8912 46.7289 21.7755C46.8424 22.781 48.4338 22.7942 48.3124 21.7755C48.0696 19.6115 47.6816 17.5134 46.5547 15.6159C46.4939 15.51 46.4094 15.4196 46.3078 15.3518C46.2063 15.284 46.0904 15.2406 45.9692 15.225C45.8481 15.2094 45.725 15.222 45.6096 15.2619C45.4941 15.3018 45.3895 15.3679 45.3038 15.455C43.8259 17.0384 42.356 18.9042 42.005 21.1052C41.9311 21.575 42.2056 22.1608 42.773 22.1133C44.296 22.0449 45.8212 22.1897 47.3042 22.5435C48.315 22.752 48.7425 21.2187 47.7344 21.0076Z"
        fill="#6B7280" />
    <path
        d="M81.5142 20.5962C83.2781 22.1722 84.3873 24.352 84.623 26.7057C84.7233 27.7164 86.3173 27.7243 86.2064 26.7057C85.9619 23.9316 84.6871 21.3499 82.6331 19.4693C81.8784 18.7779 80.7515 19.9021 81.5089 20.5936L81.5142 20.5962Z"
        fill="#9CA3AF" />
    <path
        d="M84.7312 15.9935C86.4594 17.7955 87.81 19.9246 88.7037 22.2559C89.5974 24.5871 90.0162 27.0735 89.9355 29.5689C89.9064 30.5928 91.4978 30.5928 91.5189 29.5689C91.5986 26.8643 91.1381 24.1709 90.1643 21.6464C89.1905 19.122 87.7229 16.8171 85.8476 14.8666C85.1376 14.1251 84.0134 15.2519 84.7233 15.9909L84.7312 15.9935Z"
        fill="#9CA3AF" />
    <path
        d="M87.1824 9.27703C90.2257 12.3181 92.5302 16.0172 93.9184 20.0894C95.3066 24.1615 95.7414 28.498 95.1894 32.7647C95.0574 33.7781 96.6514 33.7676 96.7728 32.7647C97.33 28.2876 96.8565 23.7423 95.3882 19.4762C93.92 15.2101 91.496 11.3361 88.3014 8.15015C87.573 7.42705 86.454 8.55129 87.1772 9.27439L87.1824 9.27703Z"
        fill="#9CA3AF" />
    <path
        d="M6.07585 36.9076L9.95263 32.664C11.1676 34.5434 12.5642 36.2989 14.1224 37.9052C14.196 37.9794 14.2835 38.0383 14.38 38.0785C14.4765 38.1187 14.58 38.1394 14.6845 38.1394C14.789 38.1394 14.8925 38.1187 14.989 38.0785C15.0854 38.0383 15.173 37.9794 15.2466 37.9052L19.4031 33.1048C20.5056 34.6957 21.6932 36.2259 22.9606 37.6888C23.0342 37.763 23.1218 37.8219 23.2182 37.8621C23.3147 37.9023 23.4182 37.923 23.5227 37.923C23.6272 37.923 23.7307 37.9023 23.8272 37.8621C23.9237 37.8219 24.0112 37.763 24.0848 37.6888L28.2414 32.5585L31.8991 37.7997C32.163 38.1797 32.7964 38.3882 33.1474 37.9606C34.8464 35.9036 36.4077 33.7366 37.8212 31.4738C38.3648 30.6029 36.9872 29.8033 36.4462 30.6821C35.2775 32.5551 34.0026 34.3597 32.6275 36.0869L28.975 30.8536C28.7111 30.4762 28.0725 30.2625 27.7241 30.6926L23.5016 35.8942C22.3023 34.4619 21.1834 32.9641 20.15 31.4078C19.8861 31.012 19.2553 30.8378 18.8991 31.2469L14.6581 36.1555C13.1855 34.5563 11.8778 32.8128 10.7549 30.9513C10.6941 30.8454 10.6096 30.755 10.508 30.6871C10.4064 30.6193 10.2905 30.5759 10.1694 30.5603C10.0483 30.5447 9.92517 30.5574 9.80973 30.5973C9.69429 30.6372 9.58965 30.7032 9.50399 30.7903L4.94896 35.7834C4.26017 36.5382 5.38177 37.6677 6.07585 36.9076Z"
        fill="#6B7280" />
    <path
        d="M4.15314 45.9628L8.81373 41.5318C10.3198 43.3457 11.9032 45.0901 13.5641 46.7651C13.6512 46.8492 13.7561 46.9127 13.871 46.9508C13.986 46.9889 14.1081 47.0007 14.2282 46.9852C14.3483 46.9697 14.4634 46.9275 14.565 46.8615C14.6666 46.7955 14.752 46.7075 14.815 46.6041C16.0056 44.8237 17.386 43.1778 18.9319 41.6954L23.4553 46.3455C23.5289 46.4197 23.6164 46.4786 23.7129 46.5188C23.8094 46.5589 23.9129 46.5796 24.0174 46.5796C24.1219 46.5796 24.2254 46.5589 24.3219 46.5188C24.4183 46.4786 24.5059 46.4197 24.5795 46.3455L26.8861 43.5454C27.2107 43.1469 28.3877 41.2362 28.8258 41.1702C29.2084 41.1016 30.652 42.8197 31.0241 43.1759L33.6183 45.6514C33.9007 45.9153 34.4734 45.9971 34.7426 45.6514L39.0785 40.0961L44.3963 45.7385C45.1009 46.4853 46.2251 45.3584 45.5205 44.6142L39.5879 38.3201C39.324 38.035 38.7223 37.9875 38.4636 38.3201L34.0986 43.9149L31.2854 41.2309C30.6731 40.6451 29.8418 39.4496 28.8706 39.4469C27.8018 39.4469 27.0893 40.8113 26.5219 41.508L23.9831 44.601L19.5151 40.0302C19.3642 39.8847 19.1627 39.8034 18.953 39.8034C18.7434 39.8034 18.5419 39.8847 18.3909 40.0302C16.7651 41.5175 15.301 43.1726 14.0233 44.9679C12.424 43.3176 10.8977 41.6031 9.44447 39.8243C9.18057 39.4839 8.60525 39.5604 8.32023 39.8243L3.0421 44.8385C2.28205 45.5458 3.39837 46.6701 4.15314 45.9628Z"
        fill="#6B7280" />
    <path
        d="M2.85164 55.9677L7.48848 51.0564L12.9197 56.6644C13.0703 56.8104 13.2719 56.8921 13.4818 56.8921C13.6916 56.8921 13.8932 56.8104 14.0439 56.6644L19.4039 51.2516C21.2075 52.7509 22.8846 54.3962 24.4181 56.1709C24.4917 56.2451 24.5792 56.304 24.6757 56.3442C24.7722 56.3844 24.8757 56.405 24.9802 56.405C25.0847 56.405 25.1882 56.3844 25.2847 56.3442C25.3812 56.304 25.4687 56.2451 25.5423 56.1709C27.0334 54.503 28.4611 52.7823 29.8414 51.022C31.3083 52.5405 32.6915 54.1377 33.9847 55.8067C34.2935 56.2078 34.8318 56.3635 35.2356 55.9677C37.0044 54.2314 38.6682 52.3913 40.2182 50.4573L44.8735 55.9993C45.2086 56.4005 45.8816 56.2474 46.1244 55.8383L49.2596 50.547C49.7874 49.6629 48.4072 48.8633 47.8847 49.7553L45.3221 54.0807L40.7671 48.6522C40.6935 48.578 40.6059 48.5191 40.5094 48.4789C40.413 48.4387 40.3095 48.418 40.205 48.418C40.1005 48.418 39.997 48.4387 39.9005 48.4789C39.804 48.5191 39.7165 48.578 39.6429 48.6522C38.1167 50.6033 36.4758 52.4618 34.7289 54.2179C33.3581 52.4864 31.8948 50.8302 30.3454 49.2565C29.9469 48.8554 29.4006 49.0216 29.0945 49.4175C27.7785 51.1276 26.4053 52.7911 24.9749 54.408C23.4203 52.6751 21.7265 51.0722 19.9106 49.6154C19.759 49.4712 19.5577 49.3907 19.3484 49.3907C19.1392 49.3907 18.9379 49.4712 18.7863 49.6154L13.4897 54.9622L8.04268 49.3515C7.96908 49.2773 7.88151 49.2184 7.78504 49.1782C7.68856 49.138 7.58508 49.1173 7.48056 49.1173C7.37604 49.1173 7.27256 49.138 7.17608 49.1782C7.0796 49.2184 6.99204 49.2773 6.91844 49.3515L1.7274 54.8434C1.02276 55.5876 2.14701 56.7145 2.85164 55.9677Z"
        fill="#6B7280" />
    <path
        d="M49.0935 58.7597L45.6442 63.2461L41.1578 57.6275C40.8121 57.1947 40.1708 57.4138 39.9069 57.7885L36.0512 63.3042L31.512 59.1819C31.3617 59.0353 31.1599 58.9531 30.9499 58.9531C30.7398 58.9531 30.5381 59.0353 30.3878 59.1819L26.4054 63.8293L20.2326 58.8151C20.0813 58.6703 19.88 58.5894 19.6705 58.5894C19.4611 58.5894 19.2597 58.6703 19.1084 58.8151L14.3238 63.8663C11.9503 62.0449 9.67652 60.0971 7.51233 58.0313C7.22731 57.7674 6.65991 57.6856 6.38809 58.0313L1.24191 64.5524C0.613815 65.3442 1.73278 66.4816 2.36615 65.6767L7.03994 59.7625C9.25929 61.8366 11.5857 63.7931 14.0097 65.6239C14.1612 65.7131 14.3382 65.7494 14.5126 65.7269C14.687 65.7045 14.849 65.6246 14.973 65.4999L19.7444 60.4487L25.9462 65.4867C26.2603 65.7506 26.7696 65.8403 27.0704 65.4867L31.029 60.8736L35.6289 65.0539C35.7163 65.1376 35.8212 65.2006 35.9361 65.2384C36.051 65.2763 36.1729 65.2879 36.2929 65.2724C36.4129 65.257 36.5278 65.2149 36.6294 65.1492C36.731 65.0835 36.8166 64.996 36.8799 64.8929L40.6458 59.5039L45.0953 65.0829C45.4515 65.5289 46.0691 65.2808 46.3462 64.9219L50.471 59.5646C51.0912 58.7518 49.711 57.9601 49.0935 58.7597Z"
        fill="#6B7280" />
    <path
        d="M5.52746 70.9414C6.30599 69.7116 7.06076 67.8827 8.16653 66.9195L7.20327 67.0435C8.0293 67.3971 8.78671 68.2073 9.49134 68.7642L11.6554 70.4901C12.4471 71.1209 13.5819 70.0019 12.7796 69.3659L10.1749 67.2969C9.49134 66.7532 8.80518 66.0169 7.99763 65.6712C7.84382 65.5902 7.66878 65.5587 7.49638 65.5809C7.32399 65.6031 7.16265 65.6779 7.03437 65.7952C5.82304 66.8509 5.01548 68.78 4.15515 70.1391C3.60622 71.0074 4.98382 71.807 5.5301 70.9309L5.52746 70.9414Z"
        fill="#6B7280" />
    <path
        d="M17.4855 70.9628C18.2601 69.4224 19.1819 67.9606 20.238 66.5978L19.2748 66.7218C20.8922 67.8821 22.4033 69.1839 23.7902 70.6118C24.5054 71.3455 25.6376 70.2212 24.9145 69.4876C23.4277 67.9677 21.8089 66.5829 20.0771 65.3495C19.9255 65.2603 19.7486 65.224 19.5742 65.2465C19.3998 65.2689 19.2378 65.3488 19.1138 65.4735C17.9643 66.9351 16.9593 68.5048 16.1132 70.1605C15.6513 71.071 17.0237 71.8786 17.4881 70.9522L17.4855 70.9628Z"
        fill="#6B7280" />
    <path
        d="M29.3568 70.5273C30.1078 68.9266 31.1092 67.4558 32.3231 66.1702H31.1989L35.015 70.361C35.7064 71.1211 36.828 69.9916 36.1392 69.2368L32.3231 65.046C32.2495 64.9717 32.162 64.9128 32.0655 64.8727C31.969 64.8325 31.8655 64.8118 31.761 64.8118C31.6565 64.8118 31.553 64.8325 31.4565 64.8727C31.36 64.9128 31.2725 64.9717 31.1989 65.046C29.8857 66.4256 28.7999 68.0049 27.9819 69.725C27.5464 70.6461 28.9161 71.4536 29.3568 70.5167V70.5273Z"
        fill="#6B7280" />
    <path
        d="M39.4615 70.1707C40.1987 69.0337 41.0341 67.9634 41.958 66.9721L40.9948 67.0961C42.2691 68.0851 43.4438 69.1961 44.5021 70.4135C45.1777 71.1841 46.2993 70.0545 45.6263 69.2892C44.4708 67.9749 43.1891 66.7772 41.7997 65.7133C41.6481 65.624 41.4712 65.5878 41.2968 65.6102C41.1224 65.6327 40.9604 65.7126 40.8364 65.8373C39.8197 66.9285 38.9005 68.1065 38.0891 69.3578C37.5297 70.2182 38.9073 71.0178 39.4641 70.1495L39.4615 70.1707Z"
        fill="#6B7280" />
    <path
        d="M48.8899 71.4482L50.8164 69.073C50.9601 68.9211 51.0402 68.72 51.0402 68.5109C51.0402 68.3018 50.9601 68.1007 50.8164 67.9488C50.7428 67.8746 50.6553 67.8157 50.5588 67.7755C50.4623 67.7353 50.3588 67.7146 50.2543 67.7146C50.1498 67.7146 50.0463 67.7353 49.9499 67.7755C49.8534 67.8157 49.7658 67.8746 49.6922 67.9488L47.7657 70.3239C47.622 70.4759 47.542 70.677 47.542 70.8861C47.542 71.0951 47.622 71.2963 47.7657 71.4482C47.8393 71.5224 47.9269 71.5813 48.0233 71.6215C48.1198 71.6617 48.2233 71.6824 48.3278 71.6824C48.4323 71.6824 48.5358 71.6617 48.6323 71.6215C48.7288 71.5813 48.8163 71.5224 48.8899 71.4482Z"
        fill="#6B7280" />
    <path
        d="M25.5654 59.4323V59.5907C25.5654 59.8007 25.6488 60.002 25.7973 60.1505C25.9458 60.299 26.1472 60.3824 26.3571 60.3824C26.5671 60.3824 26.7685 60.299 26.917 60.1505C27.0655 60.002 27.1489 59.8007 27.1489 59.5907V59.4323C27.1489 59.2224 27.0655 59.021 26.917 58.8725C26.7685 58.724 26.5671 58.6406 26.3571 58.6406C26.1472 58.6406 25.9458 58.724 25.7973 58.8725C25.6488 59.021 25.5654 59.2224 25.5654 59.4323Z"
        fill="#6B7280" />
    <path
        d="M13.6401 61.1821C14.664 61.1821 14.6667 59.5986 13.6401 59.5986C12.6135 59.5986 12.6135 61.1821 13.6401 61.1821Z"
        fill="#6B7280" />
    <path
        d="M35.9194 60.2294C36.9433 60.2294 36.946 58.646 35.9194 58.646C34.8928 58.646 34.8928 60.2294 35.9194 60.2294Z"
        fill="#6B7280" />
    <path d="M45.7865 59.9074C46.8105 59.9074 46.8131 58.324 45.7865 58.324C44.76 58.324 44.76 59.9074 45.7865 59.9074Z"
        fill="#6B7280" />
    <path
        d="M25.0981 51.4758C26.122 51.4758 26.1247 49.8923 25.0981 49.8923C24.0715 49.8923 24.0715 51.4758 25.0981 51.4758Z"
        fill="#6B7280" />
    <path
        d="M13.6401 51.3173C14.664 51.3173 14.6667 49.7339 13.6401 49.7339C12.6135 49.7339 12.6135 51.3173 13.6401 51.3173Z"
        fill="#6B7280" />
    <path
        d="M34.8022 50.8398C35.8261 50.8398 35.8288 49.2563 34.8022 49.2563C33.7756 49.2563 33.7756 50.8398 34.8022 50.8398Z"
        fill="#6B7280" />
    <path
        d="M44.8315 50.2038C45.8554 50.2038 45.8581 48.6204 44.8315 48.6204C43.8049 48.6204 43.8049 50.2038 44.8315 50.2038Z"
        fill="#6B7280" />
    <path
        d="M34.3276 41.133C35.3515 41.133 35.3542 39.5496 34.3276 39.5496C33.301 39.5496 33.301 41.133 34.3276 41.133Z"
        fill="#6B7280" />
    <path
        d="M23.8239 41.4499H23.9823C24.1923 41.4499 24.3936 41.3665 24.5421 41.218C24.6906 41.0695 24.774 40.8682 24.774 40.6582C24.774 40.4482 24.6906 40.2468 24.5421 40.0983C24.3936 39.9499 24.1923 39.8665 23.9823 39.8665H23.8239C23.614 39.8665 23.4126 39.9499 23.2641 40.0983C23.1156 40.2468 23.0322 40.4482 23.0322 40.6582C23.0322 40.8682 23.1156 41.0695 23.2641 41.218C23.4126 41.3665 23.614 41.4499 23.8239 41.4499Z"
        fill="#6B7280" />
    <path
        d="M13.6401 41.133C14.664 41.133 14.6667 39.5496 13.6401 39.5496C12.6135 39.5496 12.6135 41.133 13.6401 41.133Z"
        fill="#6B7280" />
    <path
        d="M13.9526 33.1765C14.9765 33.1765 14.9792 31.593 13.9526 31.593C12.926 31.593 12.926 33.1765 13.9526 33.1765Z"
        fill="#6B7280" />
    <path
        d="M23.1908 32.8571C24.2148 32.8571 24.2174 31.2737 23.1908 31.2737C22.1642 31.2737 22.1642 32.8571 23.1908 32.8571Z"
        fill="#6B7280" />
    <path d="M31.7807 32.06C32.8046 32.06 32.8073 30.4766 31.7807 30.4766C30.7541 30.4766 30.7541 32.06 31.7807 32.06Z"
        fill="#6B7280" />
    <path
        d="M4.87282 13.2591C6.01387 14.0063 7.19533 14.69 8.41181 15.307C9.32492 15.7662 10.1298 14.3939 9.20353 13.932C7.99047 13.3122 6.81253 12.6258 5.67509 11.8762C4.81476 11.3167 4.01512 12.6917 4.88337 13.2511L4.87282 13.2591Z"
        fill="#6B7280" />
    <path
        d="M7.47799 6.98372L11.5184 11.8581C12.1729 12.6498 13.2919 11.515 12.6426 10.7338L8.60223 5.85948C7.94774 5.06776 6.82878 6.20256 7.47799 6.98372Z"
        fill="#6B7280" />
    <path
        d="M14.0061 5.17306C14.2863 6.62976 14.7006 8.05741 15.2438 9.43779C15.6133 10.3799 17.1545 9.9656 16.7771 9.01554C16.233 7.63525 15.8178 6.20759 15.5367 4.75081C15.3441 3.74532 13.8082 4.17285 14.0034 5.17306H14.0061Z"
        fill="#6B7280" />
    <path
        d="M11.882 27.0986C14.0945 21.646 18.104 17.1132 23.2458 14.2517C24.407 13.5998 23.3646 11.8132 22.1902 12.465C16.5931 15.6129 12.2463 20.5868 9.87629 26.555C9.38015 27.7901 11.3806 28.3258 11.8714 27.1039L11.882 27.0986Z"
        fill="#6B7280" />
    <path
        d="M39.5533 4.94891C40.8728 4.94891 40.886 2.87988 39.5533 2.87988C38.2205 2.87988 38.2205 4.94891 39.5533 4.94891Z"
        fill="#6B7280" />
    <path
        d="M31.5484 2.37548C31.3407 3.01075 31.2565 3.67993 31.3004 4.34686C31.3058 4.61954 31.4165 4.87955 31.6093 5.0724C31.8022 5.26525 32.0622 5.37598 32.3349 5.38138C32.8627 5.35763 33.409 4.92482 33.3694 4.34686C33.322 3.86567 33.3815 3.37995 33.5436 2.92441C33.6107 2.66003 33.573 2.37992 33.4382 2.14279C33.3034 1.90565 33.082 1.7299 32.8205 1.65238C32.5561 1.58521 32.276 1.62299 32.0388 1.75779C31.8017 1.8926 31.626 2.11396 31.5484 2.37548Z"
        fill="#6B7280" />
    <path
        d="M25.3486 4.62966L25.7814 5.89905C25.8542 6.16362 26.0291 6.38844 26.2677 6.52405C26.5062 6.65965 26.7889 6.69494 27.0534 6.62215C27.318 6.54936 27.5428 6.37445 27.6784 6.1359C27.814 5.89734 27.8493 5.61469 27.7765 5.35012L27.3437 4.08073C27.2709 3.81616 27.096 3.59134 26.8575 3.45573C26.6189 3.32012 26.3363 3.28484 26.0717 3.35763C25.8071 3.43042 25.5823 3.60533 25.4467 3.84388C25.3111 4.08243 25.2758 4.36509 25.3486 4.62966Z"
        fill="#6B7280" />
    <path
        d="M44.4304 18.4109L45.486 20.1157C45.5553 20.233 45.6471 20.3355 45.756 20.4174C45.865 20.4993 45.9889 20.5589 46.1209 20.5928C46.2529 20.6267 46.3902 20.6344 46.5251 20.6152C46.66 20.5961 46.7899 20.5505 46.9072 20.4812C47.0245 20.4119 47.127 20.3202 47.2089 20.2112C47.2907 20.1023 47.3503 19.9783 47.3843 19.8464C47.4182 19.7144 47.4258 19.577 47.4067 19.4421C47.3875 19.3072 47.342 19.1774 47.2727 19.0601L46.2171 17.3552C46.0771 17.1183 45.8487 16.9467 45.5822 16.8782C45.3157 16.8096 45.0328 16.8498 44.7959 16.9897C44.559 17.1297 44.3874 17.3581 44.3188 17.6246C44.2503 17.8911 44.2904 18.174 44.4304 18.4109Z"
        fill="#9CA3AF" />
</svg>