<svg width="36" height="36" viewBox="0 0 36 36" fill="none" xmlns="http://www.w3.org/2000/svg">
    <rect width="36" height="36" rx="4" fill="#3F4790" />
    <g clip-path="url(#clip0_17452_43372)">
        <path
            d="M20.7501 16.1667C21.7626 16.1667 22.5834 15.3459 22.5834 14.3333C22.5834 13.3208 21.7626 12.5 20.7501 12.5C19.7376 12.5 18.9167 13.3208 18.9167 14.3333C18.9167 15.3459 19.7376 16.1667 20.7501 16.1667Z"
            fill="white" />
        <path d="M18.9167 23.5H21.2359C21.5933 23.5 21.936 23.3581 22.1887 23.1054C22.4414 22.8527 22.5834 22.5099 22.5834 22.1525V17.0834H18.9167V23.5Z" fill="white" />
        <path
            d="M25.3333 17.0833C26.3459 17.0833 27.1667 16.2625 27.1667 15.25C27.1667 14.2374 26.3459 13.4166 25.3333 13.4166C24.3208 13.4166 23.5 14.2374 23.5 15.25C23.5 16.2625 24.3208 17.0833 25.3333 17.0833Z"
            fill="white" />
        <path d="M23.5 22.5833H25.3333C25.8196 22.5833 26.2859 22.3902 26.6297 22.0464C26.9735 21.7025 27.1667 21.2362 27.1667 20.75V18H23.5V22.5833Z" fill="white" />
        <path
            d="M8.83325 11.4V24.6092L19.8333 26.25V9.82336L8.83325 11.4ZM16.6983 14.3884V15.7909H16.4874L14.5808 15.9192V22.8309H14.3241L13.1416 22.675H12.9399V16.0567L11.0333 16.1667H10.7949V14.7367H10.9966L16.4049 14.1775H16.6616L16.6983 14.3884Z"
            fill="white" />
    </g>
    <defs>
        <clipPath id="clip0_17452_43372">
            <rect width="22" height="22" fill="white" transform="translate(7 7)" />
        </clipPath>
    </defs>
</svg>