<svg width="36" height="36" viewBox="0 0 36 36" fill="none" xmlns="http://www.w3.org/2000/svg">
    <rect x="0.5" y="0.5" width="35" height="35" rx="3.5" fill="white" />
    <rect x="0.5" y="0.5" width="35" height="35" rx="3.5" stroke="#E5E7EB" />
    <path
        d="M26.3334 18C26.3334 22.6024 22.6025 26.3334 18.0001 26.3334M26.3334 18C26.3334 13.3976 22.6025 9.66669 18.0001 9.66669M26.3334 18H9.66675M18.0001 26.3334C13.3977 26.3334 9.66675 22.6024 9.66675 18M18.0001 26.3334C15.8603 24.0866 14.6667 21.1027 14.6667 18C14.6667 14.8973 15.8603 11.9135 18.0001 9.66669M18.0001 26.3334C20.1399 24.0866 21.3334 21.1027 21.3334 18C21.3334 14.8973 20.1399 11.9135 18.0001 9.66669M9.66675 18C9.66675 13.3976 13.3977 9.66669 18.0001 9.66669"
        stroke="#4B5563" stroke-width="1.6" stroke-linecap="round" stroke-linejoin="round" />
</svg>