<svg width="36" height="36" viewBox="0 0 36 36" fill="none" xmlns="http://www.w3.org/2000/svg">
    <rect width="36" height="36" rx="4" fill="#F05537" />
    <path
        d="M17.0641 13.2568C18.0238 13.0369 19.027 13.1043 19.9487 13.4505C20.8704 13.7967 21.6698 14.4065 22.2474 15.2038L13.2771 17.2337C13.5861 15.3349 15.035 13.7164 17.0641 13.2568ZM22.2971 20.7238C21.5878 21.7509 20.5167 22.4722 19.2982 22.7432C17.2563 23.205 15.2174 22.3589 14.0939 20.7645L23.092 18.7286L24.5575 18.3971L27.3598 17.7626C27.3427 17.1607 27.2644 16.5622 27.1262 15.9761C25.9854 11.1342 21.0569 8.11502 16.1163 9.23244C11.1764 10.3506 8.09768 15.1827 9.23695 20.0246C10.3777 24.8665 15.307 27.8849 20.2469 26.7675C23.1576 26.109 25.4218 24.1605 26.558 21.6815L22.2971 20.7238Z"
        fill="white" />
</svg>