<svg width="36" height="36" viewBox="0 0 36 36" fill="none" xmlns="http://www.w3.org/2000/svg">
    <rect width="36" height="36" rx="4" fill="#FF0000" />
    <path
        d="M15.9304 20.9545V15.0455L21.1419 18.0001L15.9304 20.9545ZM27.5227 13.1861C27.2934 12.3256 26.6177 11.648 25.7599 11.418C24.2049 11 17.9697 11 17.9697 11C17.9697 11 11.7345 11 10.1795 11.418C9.32162 11.648 8.64594 12.3256 8.41666 13.1861C8 14.7458 8 18 8 18C8 18 8 21.2541 8.41666 22.8139C8.64594 23.6744 9.32162 24.352 10.1795 24.5821C11.7345 25 17.9697 25 17.9697 25C17.9697 25 24.2049 25 25.7599 24.5821C26.6177 24.352 27.2934 23.6744 27.5227 22.8139C27.9394 21.2541 27.9394 18 27.9394 18C27.9394 18 27.9394 14.7458 27.5227 13.1861Z"
        fill="white" />
</svg>