<svg width="12" height="12" viewBox="0 0 12 12" fill="none" xmlns="http://www.w3.org/2000/svg">
<g opacity="0.9">
<path d="M0 11C0 11.5523 0.447715 12 1 12H11C11.5523 12 12 11.5523 12 11V2.94918C12 2.3969 11.5523 1.94918 11 1.94918H9.38502C9.15979 1.9978 8.99103 2.19815 8.99103 2.43792V2.53747C8.99103 2.81361 9.21488 3.03747 9.49103 3.03747H10.875V10.375C10.875 10.6511 10.6511 10.875 10.375 10.875H1.625C1.34886 10.875 1.125 10.6511 1.125 10.375V3.03747H2.47473C2.75087 3.03747 2.97473 2.81361 2.97473 2.53747V2.43792C2.97473 2.19815 2.80597 1.9978 2.58074 1.94918H1C0.447715 1.94918 0 2.3969 0 2.94918V11Z" fill="currentcolor"/>
<path d="M8.13841 4.5C8.52232 4.5 8.76301 4.91474 8.57253 5.24807L6.43412 8.99029C6.24218 9.32619 5.75783 9.32619 5.56588 8.99029L3.42747 5.24807C3.237 4.91474 3.47768 4.5 3.86159 4.5H5.25V0.25C5.25 0.111929 5.36193 0 5.5 0H6.5C6.63807 0 6.75 0.111929 6.75 0.25V4.5H8.13841Z" fill="currentcolor"/>
</g>
</svg>
