<svg width="24" height="25" viewBox="0 0 24 25" fill="none" xmlns="http://www.w3.org/2000/svg">
<path d="M0 2.97827C0 2.35563 0.495 1.84619 1.1 1.84619H9.9C10.5078 1.84619 11 2.3528 11 2.97827V10.7141C11 11.3396 10.5078 11.8462 9.9 11.8462H1.1C0.49225 11.8462 0 11.3396 0 10.7141V2.97827Z" fill="currentColor"/>
<path d="M0 14.9783C0 14.3556 0.495 13.8462 1.1 13.8462H9.9C10.5078 13.8462 11 14.3528 11 14.9783V22.7141C11 23.3396 10.5078 23.8462 9.9 23.8462H1.1C0.49225 23.8462 0 23.3396 0 22.7141V14.9783Z" fill="currentColor"/>
<path d="M13 2.97827C13 2.35563 13.495 1.84619 14.1 1.84619H22.9C23.5078 1.84619 24 2.3528 24 2.97827V10.7141C24 11.3396 23.5078 11.8462 22.9 11.8462H14.1C13.4922 11.8462 13 11.3396 13 10.7141V2.97827Z" fill="currentColor"/>
<path d="M13 14.9783C13 14.3556 13.495 13.8462 14.1 13.8462H22.9C23.5078 13.8462 24 14.3528 24 14.9783V22.7141C24 23.3396 23.5078 23.8462 22.9 23.8462H14.1C13.4922 23.8462 13 23.3396 13 22.7141V14.9783Z" fill="currentColor"/>
</svg>
