<svg
   width="25"
   height="25"
   viewBox="0 0 25 25"
>
  <path
     d="m 11.128581,10.17273 c -0.6885,0 -1.2467405,0.56167 -1.2467405,1.25457 0,0.6928 0.5582395,1.2545 1.2467395,1.2545 h 0.4156 v 3.3455 h -0.4156 c -0.6885,0 -1.2467395,0.5617 -1.2467395,1.2545 0,0.6929 0.5582395,1.2546 1.2467395,1.2546 h 3.3247 c 0.6885,0 1.2467,-0.5617 1.2467,-1.2546 0,-0.6928 -0.5582,-1.2545 -1.2467,-1.2545 h -0.4156 v -4.6 c 0,-0.6929 -0.5582,-1.25457 -1.2468,-1.25457 z"
     fill="currentColor"
  />
  <path
     d="m 12.499981,5.3 c -0.8836,0 -1.6,0.71634 -1.6,1.6 0,0.88366 0.7164,1.6 1.6,1.6 h 0.0109 c 0.8837,0 1.6,-0.71634 1.6,-1.6 0,-0.88366 -0.7163,-1.6 -1.6,-1.6 z"
     fill="currentColor"
  />
  <path
     fill-rule="evenodd"
     clip-rule="evenodd"
     d="m 0.5000195,12.5 c 0,-6.62742 5.372581,-12 11.9999615,-12 6.627499,0 11.999999,5.37258 11.999999,12 0,6.6274 -5.3725,12 -11.999999,12 -6.6273805,0 -11.9999615,-5.3726 -11.9999615,-12 z M 12.499981,2.68182 c -5.4223905,0 -9.8181405,4.39575 -9.8181405,9.81818 0,5.4224 4.39575,9.8182 9.8181405,9.8182 5.422499,0 9.818199,-4.3958 9.818199,-9.8182 0,-5.42243 -4.395699,-9.81818 -9.818199,-9.81818 z"
     fill="currentColor"
  />
</svg>
