<svg width="16" height="17" viewBox="0 0 16 17" fill="none" xmlns="http://www.w3.org/2000/svg">
<path d="M8.00039 14.1341C8.59205 14.1341 9.07169 13.6537 9.07169 13.061C9.07169 12.4683 8.59205 11.9878 8.00039 11.9878C7.40873 11.9878 6.92909 12.4683 6.92909 13.061C6.92909 13.6537 7.40873 14.1341 8.00039 14.1341Z" fill="currentColor"/>
<path fill-rule="evenodd" clip-rule="evenodd" d="M2.40039 2.25C2.40039 1.2835 3.18253 0.5 4.14735 0.5H11.8534C12.8183 0.5 13.6004 1.2835 13.6004 2.25V14.75C13.6004 15.7165 12.8183 16.5 11.8534 16.5H4.14735C3.18253 16.5 2.40039 15.7165 2.40039 14.75V2.25ZM4.14735 2C4.00952 2 3.89778 2.11193 3.89778 2.25V14.75C3.89778 14.8881 4.00952 15 4.14735 15H11.8534C11.9913 15 12.103 14.8881 12.103 14.75V2.25C12.103 2.11193 11.9913 2 11.8534 2H4.14735Z" fill="currentColor"/>
</svg>
