<svg width="16" height="17" viewBox="0 0 16 17" fill="none" xmlns="http://www.w3.org/2000/svg">
<path d="M9.25448 1.16793C9.29984 0.756209 9.67038 0.459216 10.0821 0.504576C11.5897 0.670676 12.9967 1.34031 14.0715 2.40491C15.1464 3.46962 15.8253 4.86616 15.9952 6.3656C16.0418 6.77718 15.746 7.14864 15.3344 7.19527C14.9228 7.2419 14.5514 6.94606 14.5047 6.53448C14.3735 5.37632 13.849 4.29577 13.0159 3.47063C12.1827 2.64537 11.0904 2.12473 9.91784 1.99555C9.50611 1.95019 9.20912 1.57965 9.25448 1.16793Z" fill="currentColor"/>
<path fill-rule="evenodd" clip-rule="evenodd" d="M5.48191 2.15492C5.09792 1.82534 4.60749 1.64614 4.10162 1.65012L2.09049 1.65012C1.80022 1.65039 1.51313 1.71098 1.24751 1.82808C0.981887 1.94517 0.743492 2.11624 0.547555 2.33045C0.351615 2.54468 0.202435 2.79736 0.109597 3.07246C0.0167591 3.34756 -0.0176788 3.63897 0.00850401 3.92814C0.00885806 3.93205 0.00924282 3.93596 0.00965823 3.93986C0.24236 6.12682 0.987706 8.22827 2.18526 10.0741C3.2742 11.7835 4.72642 13.2328 6.43895 14.3195C8.27982 15.5103 10.3747 16.2537 12.5554 16.4902C12.5599 16.4907 12.5644 16.4911 12.5689 16.4915C12.8589 16.5177 13.1511 16.4831 13.427 16.39C13.7029 16.2969 13.9563 16.1473 14.1711 15.9506C14.3859 15.754 14.5572 15.5146 14.6741 15.2479C14.7907 14.9817 14.8505 14.694 14.8495 14.4034V12.4033C14.8597 11.8941 14.6832 11.3987 14.3535 11.0103C14.0215 10.6193 13.5574 10.364 13.0496 10.2925C13.0485 10.2923 13.0475 10.2922 13.0464 10.292C13.0452 10.2919 13.0441 10.2917 13.0429 10.2916C12.4548 10.2142 11.8774 10.0706 11.3216 9.86377C10.9475 9.72357 10.5411 9.69328 10.1503 9.77645C9.75936 9.85967 9.40028 10.053 9.11573 10.3339L9.11275 10.3368L8.67587 10.7728C7.48839 10.0069 6.47735 8.99815 5.70975 7.81348L6.14497 7.37912L6.14793 7.37615C6.42933 7.09214 6.62342 6.73341 6.70698 6.34239C6.79048 5.95164 6.76007 5.54522 6.6194 5.17126C6.41216 4.6168 6.26842 4.04075 6.19089 3.45409C6.19058 3.45179 6.19027 3.44948 6.18994 3.44718C6.11877 2.94466 5.86698 2.48542 5.48191 2.15492ZM4.50497 3.29315C4.39602 3.19964 4.25645 3.14866 4.11226 3.15008C4.1098 3.1501 4.10735 3.15012 4.10489 3.15012H2.09162C2.00924 3.15023 1.92783 3.16745 1.85257 3.20062C1.77723 3.23384 1.70976 3.2823 1.65439 3.34283C1.59903 3.40336 1.55698 3.47463 1.53084 3.55209C1.50521 3.62803 1.49541 3.70834 1.50198 3.78811C1.71065 5.73889 2.37629 7.61343 3.44522 9.26021L3.44764 9.26398L3.44877 9.26575C4.42015 10.7914 5.71628 12.085 7.24519 13.0546L7.24737 13.056L7.25102 13.0583C8.89357 14.1214 10.7629 14.7858 12.7091 14.9981C12.7897 15.0046 12.8708 14.9946 12.9473 14.9688C13.0256 14.9424 13.0974 14.8999 13.1582 14.8443C13.2189 14.7887 13.2672 14.7211 13.3001 14.646C13.3331 14.5708 13.3499 14.4897 13.3495 14.4078L13.3495 14.4048V12.3951C13.3495 12.3888 13.3496 12.3826 13.3498 12.3764C13.3534 12.2322 13.3037 12.0915 13.21 11.9811C13.1168 11.8713 12.9863 11.799 12.843 11.7782C12.1441 11.6859 11.4577 11.5151 10.7971 11.2691L10.7954 11.2684C10.6892 11.2286 10.5737 11.2199 10.4626 11.2436C10.3521 11.2671 10.2508 11.3216 10.1706 11.4003L10.1694 11.4015L9.31989 12.2493C9.08129 12.4874 8.71311 12.5371 8.41993 12.3707C6.62218 11.3505 5.13348 9.86487 4.11105 8.07032C3.94366 7.77652 3.99356 7.40705 4.2329 7.16819L5.08357 6.3192C5.16247 6.23912 5.21671 6.1384 5.2401 6.02892C5.26361 5.91892 5.25504 5.80448 5.21535 5.69913L5.21472 5.69743C4.96813 5.03792 4.79693 4.35271 4.70438 3.65483C4.68386 3.51455 4.6132 3.38605 4.50497 3.29315Z" fill="currentColor"/>
<path d="M9.99358 3.31392C9.58703 3.23461 9.19316 3.49988 9.11384 3.90642C9.03452 4.31297 9.29979 4.70684 9.70634 4.78616C10.2027 4.88301 10.6589 5.12578 11.0166 5.48341C11.3742 5.84104 11.617 6.29725 11.7138 6.79365C11.7931 7.2002 12.187 7.46547 12.5936 7.38615C13.0001 7.30683 13.2654 6.91296 13.1861 6.50641C13.032 5.71699 12.646 4.99149 12.0772 4.42276C11.5085 3.85403 10.783 3.46794 9.99358 3.31392Z" fill="currentColor"/>
</svg>
