<svg width="80" height="80" viewBox="0 0 80 80" fill="none" xmlns="http://www.w3.org/2000/svg">
  <path
    d="M4.63158 32.4275C4.4631 28.2155 4.35782 24.3706 4.29467 21.2632M10.1053 48.9605C13.9998 54.6285 16.8074 59.7683 18.1053 62.5263C22.1474 61.5158 25.4035 57.8947 26.5263 56.2105C22.5962 52.687 19.3067 48.6818 16.6689 44.8421M10.1053 48.9605C10.4165 48.2963 11.454 47.0454 13.4737 46.0067M10.1053 48.9605C8.61279 46.7884 6.96069 44.5387 5.17275 42.3158M16.6689 44.8421C12.7503 39.1381 10.2698 33.7994 9.26316 30.9474C4.21053 31.6211 0.982456 34.8772 0 36.4211C1.82383 38.3124 3.55397 40.3032 5.17275 42.3158M16.6689 44.8421C15.406 45.1474 14.3479 45.5572 13.4737 46.0067M13.4737 46.0067C13.7544 44.4957 14.3158 40.8 14.3158 38.1053M13.4737 46.0067C11.3684 45.3378 7.32632 43.5789 8 41.8947C8.84211 39.7895 13.5919 46.0448 13.4737 46.0067ZM13.4737 46.0067C12.3509 44.215 10.5263 41.0526 12.2105 41.0526C13.0526 41.0526 13.7544 44.215 13.4737 46.0067ZM5.17275 42.3158C5.55377 46.807 6.23158 57.8105 5.89474 65.8947C7.7193 66.1754 15.3263 66.5684 31.1579 65.8947M29.0526 63.1109C28.9004 62.9012 28.7592 62.7049 28.6316 62.5263C33.0105 56.8 39.1579 53.1228 41.6842 52C41.8213 52.137 41.9571 52.2776 42.0915 52.4211M29.0526 63.1109C30.5745 65.2081 33.1866 68.6507 34.1053 69.2632C34.2788 69.1296 34.4614 68.989 34.6519 68.8421M29.0526 63.1109C30.5251 62.5724 33.6711 61.4988 35.7895 61.0122M36.5721 60.8421C36.318 60.8845 36.0941 60.9423 35.7895 61.0122M34.6519 68.8421C34.8908 67.8327 35.4526 64.8536 35.7895 61.0122M34.6519 68.8421C35.7488 67.9962 37.108 66.9422 38.5184 65.8391M42.0915 52.4211C44.2694 54.746 46.0759 57.836 46.7368 59.1579C46.6261 59.2686 46.473 59.4104 46.2831 59.5789M42.0915 52.4211C41.4865 53.8824 40.23 56.8654 39.468 58.5093M39.2735 58.9215C39.3626 58.7432 39.3517 58.76 39.468 58.5093M46.2831 59.5789C45.6167 59.2869 43.3208 58.6642 39.468 58.5093M46.2831 59.5789C44.9046 60.8025 41.59 63.4371 38.5184 65.8391M38.5184 65.8391C43.0825 65.8577 54.9895 65.7263 66.1053 65.0526M77.0526 49.4737C58.8632 53.5158 52.6316 55.6491 51.7895 56.2105C51.9446 56.2881 52.6831 56.7392 53.7983 57.4322M77.0526 49.4737C77.614 49.3333 78.9895 48.9684 80 48.6316C79.3801 50.0779 78.3953 52.2505 77.1965 54.7043M77.0526 49.4737C77.0526 49.0526 76.6316 40.564 76.2105 32.143M53.7983 57.4322L54.3158 56.6316M53.7983 57.4322C54.2203 57.6945 54.6963 57.9914 55.215 58.3158M55.215 58.3158L56 57.4737M55.215 58.3158C55.7202 58.6318 56.2661 58.9739 56.8421 59.3355M56.8421 59.3355L57.6842 58.3158M56.8421 59.3355C57.4802 59.7361 58.1553 60.1606 58.8534 60.6001M58.8534 60.6001L59.7895 59.5789M58.8534 60.6001C59.5674 61.0496 60.3055 61.5148 61.0526 61.9861M61.0526 61.9861C61.0855 62.0068 61.6277 61.2321 61.8947 60.8421M61.0526 61.9861C61.6647 62.3722 62.2828 62.7624 62.8987 63.1514M62.8987 63.1514L63.6898 61.9861M62.8987 63.1514C63.5014 63.532 64.1019 63.9115 64.6925 64.285M64.6925 64.285L65.5028 63.1514M64.6925 64.285C65.3661 64.7109 66.0269 65.129 66.6634 65.5318M66.6634 65.5318L67.7895 64.2105M66.6634 65.5318C67.2441 65.8994 67.8046 66.2544 68.3362 66.5911M68.3362 66.5911C68.8905 66.9423 69.4134 67.2737 69.8947 67.5789C70.4475 66.7959 71.0065 65.9462 71.5641 65.0526M68.3362 66.5911L69.0526 65.5318M71.5641 65.0526C73.2533 65.0526 76.8 65.0526 77.4737 65.0526C77.4292 63.066 77.3116 58.2151 77.1965 54.7043M71.5641 65.0526C73.5833 61.8167 75.5835 58.006 77.1965 54.7043M62.3158 25.8947C65.5439 27.0175 72.3368 29.6 73.6842 30.9474M61.8947 28C62.3158 28 72 31.7895 72.8421 32.6316M60.6316 29.6842C61.0526 29.6842 67.7895 31.7895 71.5789 33.8947M60.2105 30.9474C62.9646 31.9561 68.9256 34.2946 70.7368 35.5789M59.3684 32.6316C61.3333 33.3333 66.1895 35.2421 69.8947 37.2632M58.9474 34.7368C59.6491 34.8772 61.4737 35.4105 63.1579 36.4211M54.7368 41.0526C55.5789 40.7719 57.3474 39.9579 57.6842 38.9474C57.2632 39.3684 54.3158 41.8947 53.8947 43.1579C55.5789 41.7544 58.6105 39.7053 57.2632 42.7368C58.1053 41.8947 59.7053 40.7158 59.3684 42.7368C60.0702 42.1754 61.3053 41.5579 60.6316 43.5789C60.3509 44.4211 60.9123 45.5439 61.4737 45.2632M41.9933 28.8421C41.0085 26.2778 40.0549 23.5331 39.5789 22.1053C40.9263 21.7684 45.7544 19.4386 48 18.3158C48.7259 19.2836 49.9297 22.6267 50.8624 25.4737M41.9933 28.8421C42.4606 30.0588 42.9348 31.235 43.3684 32.2105C44.7719 31.5088 48.4211 29.7684 51.7895 28.4211C51.5523 27.6303 51.2282 26.5902 50.8624 25.4737M41.9933 28.8421C42.1053 28.4211 44.2105 22.5263 44.2105 22.1053C46.1188 23.0877 50.1207 25.1368 50.8624 25.4737M16.1371 33.0504C16.4178 32.3487 16.058 31.245 14.7368 29.2632C13.0526 26.7368 16.4211 20.4211 21.8947 22.9474C27.3684 25.4737 25.2632 29.6842 24 30.9474C22.7368 32.2105 20.5472 31.4763 19.2841 34.4237M16.1371 33.0504C15.6647 33.0504 15.5997 33.3449 15.8373 33.7135M16.1371 33.0504C16.4299 33.148 16.7389 33.2592 17.0484 33.3783M15.8373 33.7135C16.2351 34.3306 17.4811 35.1557 19.0845 35.1557C20.498 35.1557 19.6337 34.523 18.2759 33.8947M15.8373 33.7135C15.4705 34.195 15.1579 35.3263 16.8421 36C18.9474 36.8421 19.3684 35.5789 19.3684 35.1579M17.0484 33.3783C17.6814 32.0066 18.7789 28.7579 18.1053 26.7368C17.2632 24.2105 16.4211 28.4211 19.3684 28.4211C22.3158 28.4211 22.3158 28 22.3158 27.5789C22.3158 27.1579 20.1307 27.1579 18.2759 33.8947M17.0484 33.3783C17.4701 33.5405 17.8927 33.7174 18.2759 33.8947M4.29467 21.2632C4.23156 18.1579 4.21053 15.789 4.21053 14.5263C13.4737 14.2456 34.9474 13.6 46.7368 13.2632C61.4737 12.8421 64.8421 12 76.2105 12C76.6316 14.5263 76.2105 19.3971 76.2105 27.3376M4.29467 21.2632C12.9588 20.7928 32.1455 19.8668 39.5789 19.926M39.5789 19.926C43.0762 18.4582 47.2957 16.9049 49.2632 16.2105C49.7223 17.3968 50.1424 18.5 50.5263 19.5249M39.5789 19.926C38.835 20.2383 38.1237 20.5467 37.4737 20.8421C38.0351 23.9298 39.9158 31.2842 42.9474 36C45.7544 34.7368 51.9579 32.0421 54.3158 31.3684C54.3158 30.7464 53.5218 27.5219 50.5263 19.5249M50.5263 19.5249C57.8246 19.2622 72.9753 18.7368 76.3437 18.7368M76.2105 27.3376C70.7396 23.7471 65.0983 22.3538 62.7368 22.1053C51.9579 41.3053 49.8246 47.2281 50.1053 47.7895C54.1474 47.4526 61.8947 48.7719 65.2632 49.4737C65.6 48.8 74.1053 35.4386 78.3158 28.8421C77.6218 28.3024 76.9176 27.8016 76.2105 27.3376ZM74.1053 13.6842L72 17.0526M71.1579 14.1053C71.9476 14.5985 73.8112 15.7943 74.9474 16.6316M60.2105 17.0526C60.4912 17.0526 61.5579 17.0526 63.5789 17.0526M35.7895 59.5789L38.7368 57.4737C39.0175 58.3158 39.7474 60.2526 40.4211 61.2632L38.5184 63.1109C37.988 62.6353 36.6995 61.2632 35.7895 59.5789ZM61.0526 57.0526C63.0175 58.3158 67.2 61.0105 68.2105 61.6842C69.4737 59.8596 72.3368 55.7053 73.6842 53.6842C70.1754 54.6667 62.7368 56.7158 61.0526 57.0526ZM65.6842 40.6316C64.5614 40.4912 62.0101 41.5506 64.4211 43.1579C65.6842 44 67.3684 42.3158 65.6842 40.6316ZM27.7895 34.3158L26.1053 39.3684C25.2632 38.807 23.4947 38.2737 23.1579 40.6316C22.8211 42.9895 24.7018 42.7368 25.6842 42.3158C25.4035 43.7193 24.7579 46.6947 24.4211 47.3684L29.4737 48.9605C29.7544 48.7105 30.0632 47.8737 29.0526 46.5263C27.7895 44.8421 34.9474 44.4211 34.1053 46.9474C33.2632 49.4737 32.4211 47.3684 32 49.0526L36.6316 50.7368C37.4737 48.7719 39.0737 44.7579 38.7368 44.4211C38.3158 44 38.8748 43.7677 36.6316 45.2632C35.3684 46.1053 36.1587 38.8955 37.8947 40.6316C38.7368 41.4737 38.7368 43.5789 39.5789 40.2105C39.9394 38.7686 40.4211 37.4035 40.4211 37.6842L35.7895 36.4211C36.4912 35.4386 37.2211 33.2211 34.5263 32.2105C31.8316 31.2 31.7193 34.0351 32 35.5789L27.7895 34.3158ZM46.7368 20.4211C46.5965 21.1228 46.5684 22.3579 47.5789 21.6842C48.8421 20.8421 47.1579 20 46.7368 20.4211ZM65.6842 14.5263C65.6842 14.9474 65.6842 16.2105 65.6842 17.0526H69.4737C69.3333 16.2105 69.1368 14.4421 69.4737 14.1053C69.8105 13.7684 67.0877 14.2456 65.6842 14.5263Z"
    stroke="currentColor" stroke-width="0.831579" stroke-linecap="round" stroke-linejoin="round"/>
</svg>
