<svg width="80" height="80" viewBox="0 0 80 80" fill="none" xmlns="http://www.w3.org/2000/svg">
  <path fill-rule="evenodd" clip-rule="evenodd"
        d="M50.8313 4.19654C50.4741 3.43637 50.0051 2.57548 49.4735 1.83761C49.0863 1.30025 48.6506 0.806595 48.1832 0.467877C47.7171 0.130146 47.1686 -0.0882879 46.5879 0.034614C45.3072 0.305625 44.6116 1.50374 44.2366 2.63738C43.9669 3.45299 43.8334 4.31963 43.7779 5.00372C42.9557 4.51338 41.9056 4.04131 40.9122 3.92243C40.2704 3.84563 39.6082 3.91128 39.0487 4.26349C38.4799 4.62162 38.0837 5.2337 37.8992 6.1124C37.8919 6.14705 37.889 6.18248 37.8906 6.21786C37.9458 7.44453 38.4472 9.40657 39.5246 11.3845C33.3355 11.5355 20.8394 11.8856 15.9701 12.2102C10.9318 12.5461 4.34684 12.6303 1.68401 12.6303C1.56992 12.6303 1.46072 12.6766 1.3814 12.7586C1.30208 12.8406 1.25944 12.9513 1.26324 13.0653C1.5437 21.4791 1.68401 36.2091 1.68401 39.9954C1.68401 40.5907 1.80319 41.816 1.96898 43.3311C2.04831 44.0561 2.1392 44.8546 2.2346 45.6929L2.24983 45.8268C2.35083 46.7143 2.45649 47.6443 2.55884 48.5795C2.76365 50.4508 2.95469 52.3379 3.06833 53.9393C3.16868 55.3535 3.20574 56.5113 3.14789 57.2378C2.18475 57.4705 1.44123 57.7957 0.918095 58.19C0.339042 58.6265 1.98245e-06 59.1748 0 59.7825C-1.90708e-06 60.1062 0.0620966 60.4501 0.216279 60.7907C0.218817 60.7966 0.221486 60.8025 0.224282 60.8082C0.290478 60.9515 0.373063 61.0941 0.474271 61.2344C0.818314 61.7113 1.36025 62.1371 2.15039 62.474C2.50181 62.6238 2.90549 62.7574 3.36802 62.8707V71.5706C3.36802 71.7988 3.54982 71.9854 3.77794 71.9914C9.12226 72.1321 24.1779 72.16 41.7035 71.1489C58.9387 70.1545 68.8726 70.1672 71.8344 70.3006C71.8633 70.3162 71.8954 70.3298 71.9311 70.3399C72.1328 70.3975 72.3002 70.3108 72.3939 70.2226C72.4753 70.1461 72.5232 70.0532 72.5523 69.9856C72.5844 69.9111 72.6107 69.8263 72.6333 69.7355C72.7215 69.3805 72.7901 68.7717 72.8238 67.8246C72.8917 65.9169 72.8203 62.5313 72.4113 56.8055C72.2013 53.8648 72.0963 51.4497 72.0438 49.7706C72.0176 48.931 72.0045 48.2755 71.9979 47.8304C71.9947 47.6125 71.9931 47.445 71.9922 47.331C72.8103 46.5156 73.1853 45.5681 73.2116 44.7109C73.2281 44.1735 73.1052 43.6552 72.8551 43.2396C74.0075 43.036 75.4488 42.6515 76.7305 42.0381C78.3142 41.2802 79.794 40.1026 79.9878 38.3579C80.042 37.8703 79.9135 37.4389 79.6336 37.0807C79.3625 36.734 78.9672 36.4772 78.5156 36.2838C77.6166 35.8988 76.3743 35.7146 75.0326 35.6491C73.9367 35.5955 72.7454 35.6201 71.5704 35.6918V18.5243C71.5704 15.1372 71.2884 12.5876 71.1436 11.7191C71.1114 11.5258 70.9502 11.3803 70.7546 11.3681C68.6493 11.2365 64.1723 10.9802 61.39 10.9493C61.5297 10.055 61.37 9.20001 60.797 8.58152C60.1631 7.76154 58.4317 6.72649 55.9598 7.71415C56.0513 6.73899 56.0932 5.54057 55.9802 4.49436C55.9084 3.83037 55.7706 3.18839 55.517 2.70003C55.2589 2.20291 54.837 1.79547 54.2025 1.79547C53.018 1.79547 52.1745 2.30463 51.5831 2.99304C51.266 3.36213 51.0222 3.78106 50.8313 4.19654ZM60.4652 11.2451C60.4634 11.2508 60.4618 11.2565 60.4604 11.2623C60.2351 12.0617 59.7294 12.9582 58.9502 13.8144C57.2853 15.6438 54.4194 17.2354 50.6134 17.261C50.9356 17.0066 51.2949 16.7057 51.6522 16.3913C52.1285 15.9724 52.6075 15.5246 52.9964 15.1254C53.1906 14.926 53.3656 14.7354 53.5077 14.5644C53.645 14.399 53.7688 14.2315 53.8438 14.0816C53.9478 13.8736 53.8635 13.6207 53.6556 13.5167C53.4476 13.4127 53.1947 13.497 53.0907 13.705C53.0605 13.7655 52.9877 13.8726 52.8599 14.0264C52.7369 14.1746 52.5782 14.348 52.3932 14.5379C52.0235 14.9175 51.5611 15.3501 51.0962 15.7591C50.631 16.1682 50.1691 16.5483 49.8012 16.8239C49.7832 16.8374 49.7655 16.8505 49.7482 16.8634C49.7608 16.6333 49.7724 16.4037 49.7831 16.1757C49.8359 15.0393 49.8626 13.9381 49.8492 13.0123C49.8361 12.1001 49.7842 11.3181 49.6657 10.8442C49.6093 10.6186 49.3807 10.4814 49.1551 10.5378C48.9296 10.5942 48.7924 10.8228 48.8488 11.0484C48.9408 11.4164 48.9941 12.108 49.0073 13.0244C49.0203 13.9274 48.9944 15.0102 48.942 16.1366C48.9303 16.3874 48.9173 16.6401 48.9032 16.8931C48.8421 16.8324 48.777 16.7639 48.7084 16.688C48.3692 16.3123 47.9838 15.7975 47.6174 15.2594C47.2523 14.7231 46.9137 14.1746 46.6678 13.7373C46.5445 13.5181 46.4474 13.3317 46.3824 13.1916C46.3496 13.121 46.3279 13.0681 46.3151 13.032C46.312 13.0233 46.3099 13.0166 46.3084 13.0118C46.2885 12.7978 46.1084 12.6303 45.8892 12.6303C45.6567 12.6303 45.4682 12.8188 45.4682 13.0513C45.4682 13.1556 45.5012 13.2558 45.521 13.312C45.5461 13.383 45.5799 13.4626 45.6185 13.5459C45.6962 13.7134 45.8049 13.9206 45.9338 14.15C46.1924 14.6098 46.5438 15.1786 46.9214 15.7333C47.2191 16.1705 47.5377 16.6059 47.8438 16.9747C44.9936 16.3363 42.9238 14.7057 41.4789 12.844C41.1575 12.4299 40.8676 12.005 40.6074 11.5777C40.6043 11.5724 40.6011 11.5672 40.5978 11.562C39.3637 9.52948 38.8026 7.44706 38.7345 6.23359C38.8876 5.55233 39.1752 5.17886 39.4973 4.97606C39.837 4.76225 40.283 4.69515 40.8121 4.75847C41.8825 4.88656 43.1111 5.52757 43.9232 6.10045C44.0517 6.1911 44.22 6.20257 44.3596 6.1302C44.4992 6.05784 44.5869 5.91369 44.5869 5.75643C44.5869 5.1231 44.6882 3.9535 45.036 2.9018C45.3929 1.82297 45.9519 1.02986 46.7622 0.858375C47.0178 0.804279 47.3232 0.884529 47.6891 1.1497C48.0537 1.41388 48.4283 1.82734 48.7903 2.32984C49.5127 3.33234 50.1248 4.60362 50.4652 5.46819C50.5306 5.63415 50.6934 5.74092 50.8717 5.73468C51.0499 5.72845 51.2049 5.61056 51.2585 5.44044C51.462 4.79452 51.7548 4.08518 52.2217 3.54176C52.6758 3.0133 53.296 2.63748 54.2025 2.63748C54.4043 2.63748 54.5923 2.74628 54.7698 3.08806C54.9518 3.43859 55.0753 3.95816 55.143 4.58478C55.2774 5.8289 55.1768 7.34063 55.0398 8.35507C55.0187 8.5114 55.0868 8.66641 55.2161 8.75667C55.3455 8.84693 55.5145 8.8573 55.6539 8.78353C58.1429 7.4667 59.7031 8.53059 60.1395 9.1078C60.1488 9.12009 60.1588 9.13187 60.1693 9.14307C60.5619 9.55846 60.7047 10.2228 60.5091 11.0722C60.4959 11.1293 60.4813 11.1869 60.4652 11.2451ZM40.0118 12.2149C34.0006 12.3593 20.9995 12.7188 16.0261 13.0503C11.2167 13.371 5.01869 13.4631 2.11895 13.4716C2.39038 21.9607 2.52601 36.268 2.52601 39.9954C2.52601 40.5338 2.63808 41.7051 2.80599 43.2395C2.88511 43.9626 2.97579 44.7594 3.07127 45.5983L3.08644 45.7315C3.18743 46.6189 3.29328 47.5507 3.39585 48.4879C3.6009 50.3614 3.7934 52.2617 3.90822 53.8797C3.99788 55.1433 4.04256 56.2622 4.00232 57.0655C4.70932 56.9485 5.51716 56.8721 6.43047 56.8458C6.06539 56.0512 5.94433 55.0425 6.66511 54.1769C6.79635 54.0193 6.95227 53.8716 7.13418 53.7347C7.13665 53.7329 7.13913 53.731 7.1416 53.7292C7.58655 53.3964 8.18585 53.1278 8.95822 52.9365C9.92252 52.6976 11.1821 52.5726 12.8065 52.6042C12.7101 52.347 12.634 52.0736 12.5952 51.796C12.5214 51.268 12.5789 50.6886 12.9341 50.1938C13.2902 49.6976 13.8937 49.3587 14.7612 49.2052C15.5287 49.0694 16.5312 49.0727 17.8244 49.2549C17.8111 45.5415 19.5893 42.9938 21.2943 41.5576C19.8509 41.4095 18.127 41.0104 16.6039 40.3539C15.0052 39.665 13.5118 38.6399 12.8989 37.226C12.8812 37.195 12.8673 37.1619 12.8578 37.1272C12.748 36.8522 12.6714 36.5628 12.6333 36.2586C12.6029 36.0152 12.5962 35.6145 12.7492 35.2538C12.7958 35.144 12.8591 35.0336 12.944 34.9327C11.4276 34.1158 9.6422 32.8887 8.52108 31.4678C7.86051 30.6305 7.39713 29.6836 7.40574 28.6839C7.41351 27.7812 7.80495 26.9042 8.64644 26.0893C7.32313 24.7585 5.64841 22.6358 4.50595 20.5328C3.88734 19.3941 3.40963 18.2339 3.24104 17.1912C3.07289 16.1513 3.20245 15.1475 3.91235 14.4376C4.83398 13.5159 6.24308 13.741 7.61046 14.4017C8.90423 15.0267 10.3416 16.1194 11.7234 17.4499C12.4712 16.4683 13.737 15.584 15.4004 15.8455C17.1719 16.1241 19.227 17.6859 21.4505 21.4342C21.6569 21.113 21.9158 20.8147 22.231 20.5851C22.7955 20.1737 23.5211 20.0002 24.3627 20.2828C25.1779 20.5566 26.0663 21.2457 27.0345 22.4661C28.0009 23.6842 29.0728 25.4645 30.2508 27.9826C32.9531 27.3865 35.2043 27.9149 36.8627 28.7795C36.8126 28.5971 36.7551 28.3869 36.694 28.158C36.4821 27.3633 36.2158 26.2987 36.0025 25.1252C35.7894 23.953 35.6273 22.6631 35.6273 21.4187C35.6273 20.1786 35.788 18.9549 36.2425 17.9323C36.4633 17.4354 36.7055 17.0587 36.9865 16.8219C37.2879 16.5677 37.6364 16.4757 37.9933 16.572C38.3157 16.659 38.5879 16.8853 38.8117 17.1326C39.0413 17.3864 39.2582 17.7056 39.4616 18.0446C39.7461 18.5187 40.0276 19.0732 40.2919 19.5936C40.4018 19.81 40.5087 20.0205 40.6115 20.2169C40.7909 20.5593 40.9588 20.8612 41.1168 21.1001C41.2816 21.3492 41.4078 21.4861 41.4917 21.542C41.7061 21.685 41.9168 21.9115 42.1155 22.1662C42.3191 22.427 42.5309 22.7447 42.7432 23.0951C43.168 23.7963 43.6091 24.6527 44.0075 25.5027C44.4063 26.3534 44.766 27.2057 45.027 27.9017C45.1573 28.2492 45.2647 28.5622 45.3401 28.8188C45.3993 29.0199 45.4494 29.2204 45.464 29.3822C45.8484 29.4235 46.2461 29.4899 46.6575 29.5859C46.656 29.5798 46.6546 29.5737 46.6532 29.5675C46.5701 29.2088 46.4863 28.7376 46.5054 28.228C46.5245 27.7156 46.6481 27.1544 46.9878 26.6286C47.2848 26.1688 47.7324 25.7586 48.3728 25.4333C48.3454 25.2817 48.3124 25.0791 48.2904 24.8107C48.2453 24.2622 48.2474 23.4585 48.4195 22.2538C48.5705 21.1966 48.7224 19.6381 48.8344 18.0005C45.1563 17.5408 42.5512 15.5989 40.8138 13.3603C40.5228 12.9854 40.2558 12.6018 40.0118 12.2149ZM49.6731 18.0779C49.9498 18.0947 50.2322 18.1033 50.5203 18.1033C54.6135 18.1033 57.7374 16.398 59.5729 14.3811C60.3316 13.5474 60.8786 12.651 61.1769 11.7894C63.7739 11.808 68.0837 12.0476 70.3627 12.1874C70.5072 13.2348 70.7284 15.5445 70.7284 18.5243V35.7512C69.5801 35.8429 68.4739 35.9734 67.5176 36.1128C67.6193 35.6371 67.6395 35.2081 67.576 34.8266C67.4826 34.2664 67.211 33.8274 66.7976 33.5197C66.0054 32.9301 64.7762 32.8806 63.5023 33.0923C61.6719 33.3965 59.5005 34.2819 57.7011 35.4076C57.6757 34.9277 57.5712 34.5346 57.3813 34.2282C57.0704 33.7267 56.5812 33.5337 56.0762 33.5226C55.5917 33.5119 55.0708 33.6645 54.5948 33.8646C54.1864 34.0362 53.7854 34.2539 53.4305 34.4703C52.9999 33.3732 52.2851 32.3863 51.1748 31.6461C50.9224 31.4778 50.6738 31.3205 50.4289 31.1735C51.0799 31.2441 51.7296 31.2915 52.2768 31.2958C52.5587 31.298 52.8211 31.2888 53.0461 31.2635C53.2608 31.2394 53.4819 31.1968 53.6556 31.1099C53.889 30.9932 54.1166 30.8503 54.3608 30.6919C54.4173 30.6552 54.4749 30.6176 54.5341 30.5789C54.7349 30.4478 54.9543 30.3045 55.2141 30.1447C55.881 29.7342 56.81 29.2175 58.2641 28.5943C58.8747 28.3326 59.3137 28.0701 59.6068 27.8027C59.9008 27.5346 60.0842 27.2265 60.0875 26.8852C60.0908 26.5453 59.9142 26.2814 59.7266 26.1027C59.5388 25.9238 59.3055 25.795 59.0967 25.7115C59.0772 25.7037 59.0572 25.6973 59.0367 25.6925C57.8275 25.408 55.8702 25.0463 53.9128 24.8829C52.9339 24.8012 51.9469 24.7683 51.0492 24.8217C50.3724 24.8619 49.7297 24.9518 49.1732 25.1154C49.1572 25.0106 49.1415 24.8876 49.1295 24.7417C49.0904 24.2657 49.0883 23.5258 49.253 22.3729C49.407 21.295 49.5601 19.7238 49.6731 18.0779ZM47.0944 30.5745C47.1534 30.5953 47.2212 30.6166 47.297 30.6382C48.331 30.9747 49.4647 31.518 50.7077 32.3467C52.5604 33.5818 53.1716 35.6544 53.141 37.8424C53.1105 40.03 52.4349 42.2461 51.8204 43.6117C51.7277 43.8176 51.814 44.06 52.016 44.161C52.1717 44.2389 52.5407 44.4954 53.0066 44.9432C53.0303 44.9659 53.0542 44.9891 53.0783 45.0128C53.0827 45.0174 53.0872 45.0218 53.0918 45.0262C53.53 45.4586 54.0273 46.0367 54.4874 46.7493C55.4666 48.266 56.2715 50.3814 55.9956 53.0024C55.6756 56.0422 54.0214 57.8604 52.0671 58.9176C50.0937 59.9851 47.816 60.2715 46.3294 60.204C46.1345 60.1951 45.959 60.3213 45.9054 60.5089C45.5085 61.8981 44.557 63.4112 43.2622 64.6296C41.9682 65.8475 40.3639 66.7407 38.682 66.9426C34.5932 67.4332 32.0312 66.1736 30.4654 64.4562C28.8802 62.7175 28.2737 60.462 28.2067 58.9222C28.2017 58.8058 28.1486 58.6966 28.06 58.6208C27.9715 58.545 27.8555 58.5092 27.7397 58.5221C27.0565 58.598 26.0791 58.4546 25.0142 58.0768C25.0077 58.0743 25.0011 58.0719 24.9945 58.0698C24.2919 57.8188 23.5518 57.466 22.8334 57.007C22.5791 56.8445 22.329 56.6696 22.0854 56.4823C22.0807 56.4785 22.0758 56.4747 22.0709 56.4711C20.7069 55.4183 19.5528 53.9763 19.0467 52.1511C19.0457 52.1473 19.0447 52.1435 19.0436 52.1396C19.0036 51.9944 18.9677 51.8468 18.9361 51.6968C17.7681 46.1487 20.6676 42.8444 22.6972 41.5687C22.7076 41.5628 22.7177 41.5564 22.7275 41.5497C22.9414 41.4168 23.1452 41.3066 23.3332 41.2189C23.5411 41.1219 23.633 40.8762 23.5398 40.6664C23.1962 39.8933 22.8901 38.7898 22.8269 37.5551C22.8267 37.5508 22.8265 37.5464 22.8262 37.542C22.7925 36.8652 22.832 36.1492 22.9783 35.4269C23.1052 34.8009 23.3127 34.1674 23.6252 33.5478C23.6264 33.5456 23.6275 33.5434 23.6286 33.5412L23.6303 33.5378C24.3283 32.1591 25.5469 30.8502 27.5534 29.8469C33.4035 26.9219 37.5157 29.7162 38.8195 31.4111C38.9323 31.5578 39.1277 31.6136 39.301 31.5486C39.5527 31.4542 39.8139 31.3465 40.087 31.2338C41.0916 30.8194 42.2589 30.3379 43.7171 30.2054C44.7007 30.116 45.8203 30.1882 47.0944 30.5745ZM23.0773 32.79C23.5089 32.0369 24.0855 31.3121 24.8386 30.6474C24.8255 29.5126 24.5578 27.8024 24.2153 26.0351C23.9241 24.5324 23.5844 23.0157 23.3164 21.8186C23.2628 21.5793 23.2121 21.3527 23.1651 21.1417C23.158 21.1096 23.1548 21.0776 23.155 21.0462C22.9994 21.0947 22.8573 21.1705 22.7268 21.2656C22.3513 21.5392 22.0545 21.9885 21.862 22.4697C21.8018 22.6203 21.6603 22.7229 21.4985 22.7334C21.3366 22.744 21.183 22.6606 21.1038 22.519C18.9244 18.6272 17.0255 17.1212 15.5856 16.7437C15.6937 20.1616 16.803 26.5314 17.2267 28.6828C17.8829 29.2419 18.5437 29.7759 19.2045 30.2768C19.2744 30.3046 19.3364 30.3509 19.3829 30.4112C20.6255 31.3418 21.8669 32.1527 23.0773 32.79ZM18.0626 30.4579C15.8944 28.7479 13.7589 26.7283 11.8057 24.6821C8.58099 21.304 5.82419 17.823 4.20147 15.4722C4.01077 15.8805 3.96748 16.4088 4.07225 17.0568C4.21922 17.9658 4.64797 19.0303 5.24583 20.1309C6.44018 22.3294 8.24903 24.5627 9.55162 25.7967C9.63893 25.8794 9.68669 25.9955 9.68287 26.1157C9.67904 26.2359 9.62399 26.3488 9.5316 26.4257C8.59168 27.209 8.25385 27.9774 8.24771 28.6912C8.24605 28.8843 8.26859 29.0797 8.31367 29.2765C8.32635 29.2836 8.3399 29.2912 8.35431 29.2992C8.47823 29.3678 8.66562 29.4659 8.91262 29.5794C9.40672 29.8064 10.1384 30.0948 11.0769 30.3327C12.7816 30.7648 15.1704 31.0308 18.0626 30.4579ZM8.83987 30.4681C9.35383 30.688 10.0367 30.9377 10.8701 31.1489C12.8188 31.6429 15.5882 31.9259 18.9369 31.1289C20.1957 32.0679 21.4589 32.8904 22.6973 33.5415C22.4466 34.1088 22.2694 34.6858 22.1531 35.2597C22.017 35.9313 21.9647 36.5962 21.9739 37.2338C20.7345 37.4739 19.118 37.4391 17.5501 37.2844C15.984 37.1298 14.5078 36.8602 13.5831 36.6567C13.5288 36.4932 13.4903 36.3256 13.4688 36.1542C13.447 35.9798 13.4538 35.749 13.5243 35.5826C13.5567 35.5064 13.5963 35.4577 13.6404 35.4268C13.6823 35.3975 13.7561 35.3644 13.8931 35.3644C14.0897 35.3644 14.2602 35.2283 14.3037 35.0365C14.3472 34.8447 14.2521 34.6484 14.0747 34.5636C12.4848 33.8032 10.3835 32.4689 9.18211 30.9462C9.05642 30.7869 8.94207 30.6274 8.83987 30.4681ZM14.1215 37.6279C14.7376 38.406 15.735 39.0626 16.9371 39.5807C18.757 40.365 20.8893 40.7604 22.3726 40.7804C22.4557 40.7302 22.5375 40.6831 22.6177 40.6389C22.3479 39.9362 22.1191 39.0555 22.0223 38.0811C20.6728 38.3226 19.0069 38.2742 17.4674 38.1223C16.2232 37.9995 15.036 37.8062 14.1215 37.6279ZM4.78153 14.8294C6.35833 17.1384 9.1406 20.6708 12.4147 24.1007C13.6252 25.3688 14.8989 26.6185 16.1999 27.785C15.6918 25.0127 14.817 19.6655 14.7405 16.6433C13.5614 16.6792 12.6585 17.4709 12.1491 18.3199C12.0824 18.4311 11.9682 18.5053 11.8395 18.5211C11.7109 18.537 11.5821 18.4927 11.4904 18.401C10.0342 16.9448 8.53353 15.7828 7.24417 15.1598C6.12912 14.6211 5.31163 14.5446 4.78153 14.8294ZM24.0083 21.0541C24.0487 21.2358 24.0919 21.4287 24.1373 21.6313C24.4053 22.8281 24.7482 24.3591 25.0419 25.8749C25.3281 27.3513 25.5731 28.8397 25.6534 30.0026C26.109 29.679 26.6153 29.3746 27.1769 29.0938C27.9525 28.706 28.7016 28.4117 29.4215 28.1976C28.2861 25.7895 27.2687 24.116 26.3749 22.9894C25.4538 21.8285 24.6898 21.2809 24.0947 21.081C24.0655 21.0713 24.0367 21.0623 24.0083 21.0541ZM18.0268 51.4313C17.9459 50.977 17.8906 50.5368 17.8585 50.1106C16.54 49.9137 15.5856 49.9144 14.9079 50.0343C14.8831 50.0387 14.8588 50.0433 14.8348 50.0479C15.4277 50.291 16.1059 50.5741 16.7343 50.8469C17.2106 51.0537 17.6619 51.256 18.0268 51.4313ZM13.7627 50.5211C13.7053 50.5748 13.6576 50.6297 13.6181 50.6848C13.4292 50.948 13.3742 51.2863 13.4291 51.6794C13.4843 52.0742 13.6466 52.4872 13.8417 52.8449C13.9144 52.9782 13.9097 53.1403 13.8293 53.2692C13.749 53.3981 13.6055 53.4737 13.4538 53.4671C11.5404 53.3839 10.1508 53.5085 9.16066 53.7538C8.73154 53.8601 8.38356 53.9874 8.10269 54.1267C8.76583 54.6766 9.75576 55.4176 10.913 56.1215C12.3356 56.9867 13.9838 57.7792 15.572 58.1067C16.3748 57.9251 17.1852 57.7295 17.9976 57.5193C19.0035 57.2591 19.9679 56.9596 20.961 56.643C19.7738 55.5823 18.7746 54.206 18.2738 52.5105C18.2501 52.4958 18.2194 52.4774 18.1804 52.4553C18.0686 52.392 17.9191 52.315 17.7378 52.2268C17.3761 52.0508 16.9064 51.8395 16.399 51.6193C15.4877 51.2237 14.4678 50.805 13.7627 50.5211ZM21.7416 57.2774C20.6333 57.6323 19.5522 57.9785 18.4224 58.2784C18.2904 58.602 18.0923 58.9544 17.8706 59.323C17.7469 59.5288 17.6111 59.747 17.4695 59.9745L17.4161 60.0604C17.2546 60.32 17.0855 60.593 16.9135 60.8813C16.3212 61.8737 15.7015 63.0356 15.2812 64.3761C16.0576 64.1899 16.9491 63.9334 17.97 63.5931C18.089 63.5535 18.2196 63.569 18.3261 63.6355C18.4326 63.7019 18.5038 63.8125 18.5204 63.9369C18.583 64.4061 18.7558 64.8407 19.0402 65.1302C19.0959 65.187 19.1575 65.2398 19.2258 65.2871C19.5529 65.0494 19.9386 64.6793 20.3611 64.2065C20.8662 63.6413 21.4013 62.9552 21.9234 62.2338C22.8258 60.9868 23.6771 59.6506 24.2498 58.6859C23.6247 58.4307 22.9908 58.1068 22.38 57.7165C22.1648 57.579 21.9514 57.4326 21.7416 57.2774ZM25.0547 58.9788C24.4708 59.9722 23.5676 61.398 22.6055 62.7274C22.0737 63.4624 21.5199 64.1734 20.989 64.7675C20.7477 65.0376 20.5061 65.2891 20.2692 65.5099C20.2931 65.5075 20.3174 65.5046 20.342 65.5013C20.9936 65.4145 21.8894 65.0408 23.0788 64.163C24.2624 63.2893 25.7101 61.9362 27.464 59.9324C27.4347 59.7439 27.4119 59.5605 27.3951 59.3835C26.7161 59.3881 25.9073 59.2511 25.0547 58.9788ZM27.679 60.9595C26.084 62.7378 24.7282 63.992 23.5788 64.8404C22.3334 65.7597 21.3031 66.2227 20.4531 66.3359C19.5822 66.4519 18.9083 66.1974 18.4395 65.7203C18.1127 65.3876 17.9052 64.9671 17.7859 64.5394C16.6306 64.9107 15.6346 65.1754 14.7784 65.3506C14.7722 65.3521 14.766 65.3533 14.7597 65.3545C14.2751 65.4531 13.8354 65.5231 13.437 65.5674C12.2507 65.6994 11.3865 65.6094 10.7897 65.3321C10.1611 65.0401 9.8524 64.5491 9.79822 63.9982C9.77176 63.7293 9.80662 63.4575 9.8789 63.1987C7.46743 63.3561 5.6187 63.2789 4.21002 63.0427V71.1598C9.86174 71.2905 24.5834 71.2932 41.655 70.3083C58.8213 69.3179 68.7777 69.324 71.8332 69.4577C71.8933 69.1722 71.9519 68.6517 71.9824 67.7947C72.0486 65.932 71.9797 62.5816 71.5714 56.8655C71.3605 53.9122 71.255 51.4857 71.2022 49.7969C71.1787 49.044 71.1656 48.4376 71.1584 47.9964C70.6714 48.295 70.0967 48.5085 69.1775 48.8149C67.7791 49.281 67.0634 49.2746 65.6566 49.2621C65.5479 49.2611 65.4351 49.2601 65.3176 49.2593C65.388 50.1252 65.2202 51.1556 64.571 52.0338C63.4634 53.5319 61.1096 54.4043 56.774 53.551C56.3062 56.638 54.5249 58.5453 52.4677 59.6581C50.4701 60.7388 48.2112 61.0743 46.6175 61.0544C46.1285 62.5163 45.1332 64.0252 43.8393 65.2428C42.4517 66.5486 40.688 67.5499 38.7824 67.7786C34.4511 68.2983 31.6103 66.9617 29.8432 65.0235C28.7074 63.7777 28.0325 62.3028 27.679 60.9595ZM56.8663 52.7109C60.4651 53.4324 62.4121 52.8877 63.4253 52.0313C62.9044 51.8613 62.4084 51.5958 61.938 51.3007C61.5251 51.0417 61.097 50.7354 60.6827 50.439C60.4195 50.2507 60.1618 50.0664 59.9173 49.9008C58.682 49.0642 57.6085 48.5718 56.4744 49.065C56.7932 50.1441 56.9608 51.3637 56.8663 52.7109ZM56.2022 48.2654C57.7487 47.6259 59.1599 48.3709 60.3894 49.2036C60.6761 49.3977 60.9475 49.5923 61.2138 49.7833C61.6044 50.0634 61.9841 50.3357 62.3855 50.5875C62.9549 50.9447 63.4981 51.2119 64.0344 51.3246C64.5089 50.549 64.5648 49.6353 64.4215 48.919C64.3968 48.7954 64.4288 48.6671 64.5088 48.5696C64.5887 48.472 64.7082 48.4155 64.8343 48.4155C65.1486 48.4155 65.4274 48.4177 65.6796 48.4198C67.0688 48.4312 67.6515 48.436 68.9112 48.0161C70.0907 47.6229 70.589 47.4161 71.0582 47.0394C70.8739 46.7069 70.5393 46.3178 70.0642 45.891C69.4754 45.3621 68.7152 44.8145 67.8831 44.2897C66.2707 43.2729 64.4284 42.3673 63.1298 41.8713C61.2077 42.3996 59.4038 42.9399 57.8048 43.4481C56.8872 43.7397 55.8254 44.1528 54.9879 44.4955C54.6451 44.6357 54.3414 44.7636 54.1024 44.8655C54.4629 45.265 54.8393 45.742 55.1948 46.2926C55.5674 46.8697 55.9177 47.529 56.2022 48.2654ZM53.4687 44.2215C53.5148 44.2015 53.5663 44.1793 53.623 44.1549C53.8817 44.0437 54.246 43.8893 54.6691 43.7162C55.4618 43.3918 56.4686 42.9987 57.3753 42.702C59.2526 38.779 61.2441 35.8006 62.4796 34.1846C60.8111 34.6504 58.9704 35.5204 57.4977 36.5513C57.3629 36.6457 57.1855 36.6528 57.0435 36.5697C56.9015 36.4865 56.821 36.3282 56.8374 36.1645C56.918 35.3578 56.8122 34.9084 56.6656 34.6718C56.5388 34.4673 56.3492 34.3708 56.0577 34.3644C55.7458 34.3575 55.3528 34.4593 54.921 34.6408C54.4978 34.8187 54.0704 35.0589 53.6978 35.2957C53.9141 36.1255 53.995 36.9958 53.983 37.8542C53.9528 40.0107 53.3398 42.1668 52.7348 43.6186C52.9451 43.7661 53.197 43.9694 53.4687 44.2215ZM63.7882 33.8996C62.8315 35.0149 60.6222 38.0419 58.4821 42.353C59.8861 41.9177 61.4219 41.4658 63.0392 41.0231C68.1057 39.6362 73.9898 38.3345 79.1318 37.9224C79.1019 37.8036 79.0469 37.6975 78.9701 37.5992C78.8174 37.4038 78.5609 37.2192 78.1841 37.0578C77.4262 36.7332 76.3057 36.5543 74.9915 36.4901C73.7944 36.4316 72.4726 36.4695 71.1839 36.5612C71.1811 36.5614 71.1784 36.5616 71.1756 36.5618C69.6524 36.6706 68.1758 36.8544 67.0064 37.043C66.861 37.0665 66.7139 37.0123 66.6186 36.9001C66.5232 36.7878 66.4934 36.634 66.5399 36.4943C66.7613 35.8302 66.8063 35.3308 66.7454 34.9649C66.6865 34.6116 66.5274 34.3682 66.2949 34.1952C65.8156 33.8384 64.9462 33.7271 63.7882 33.8996ZM79.0398 38.7747C74.4102 39.1614 69.1621 40.272 64.461 41.5127C65.6589 42.045 67.065 42.7784 68.3322 43.5775C69.1876 44.1169 69.9904 44.6929 70.6268 45.2646C71.0459 45.641 71.4142 46.034 71.673 46.4303C72.1504 45.8416 72.3535 45.2201 72.37 44.6851C72.3908 44.007 72.1184 43.5096 71.7748 43.3034C71.6203 43.2108 71.5419 43.0301 71.5798 42.854C71.6176 42.6779 71.7633 42.5454 71.9422 42.5243C73.1031 42.3877 74.8656 41.9971 76.367 41.2786C77.6839 40.6484 78.6963 39.8183 79.0398 38.7747ZM3.88655 62.1253C5.34787 62.4324 7.464 62.5521 10.4915 62.3099C10.6456 62.2976 10.7941 62.3707 10.8782 62.5004C10.9624 62.63 10.9687 62.7954 10.8947 62.9311C10.7061 63.2768 10.6081 63.6302 10.6362 63.9158C10.6609 64.1675 10.7838 64.4009 11.1445 64.5685C11.537 64.7509 12.22 64.8556 13.344 64.7306C13.6478 64.6968 13.9806 64.6466 14.3447 64.5779C14.7897 62.9492 15.5209 61.5717 16.1905 60.4498C16.3667 60.1544 16.5394 59.8758 16.7011 59.6157L16.7548 59.5294C16.8968 59.3012 17.0289 59.0888 17.149 58.8891C17.2206 58.7701 17.2863 58.6581 17.346 58.5525C16.7845 58.6911 16.2251 58.8228 15.6695 58.9478C9.89512 60.2478 4.33233 60.834 1.38611 61.0069C1.6305 61.2473 1.98135 61.4866 2.48063 61.6995C2.85812 61.8604 3.31536 62.0041 3.86628 62.121C3.8731 62.1223 3.87986 62.1237 3.88655 62.1253ZM0.893603 60.1902C3.39648 60.0684 8.41 59.586 13.8276 58.4815C12.6416 58.0554 11.4905 57.4582 10.4755 56.8409C9.17806 56.0517 8.08163 55.2164 7.39048 54.6281C7.36258 54.6572 7.3365 54.6865 7.31216 54.7157C6.75167 55.3888 6.97336 56.2882 7.49752 57.0089C7.59065 57.137 7.60405 57.3064 7.5322 57.4476C7.46034 57.5887 7.31539 57.6775 7.15704 57.6775C5.72001 57.6775 4.54923 57.7967 3.62136 57.9937C2.58141 58.2145 1.86809 58.5284 1.42492 58.8624C0.984815 59.1941 0.842005 59.518 0.842004 59.7825C0.842004 59.9145 0.857355 60.0513 0.893603 60.1902ZM47.5922 29.8467C48.1716 30.0039 49.3069 30.2023 50.459 30.3298C51.115 30.4023 51.7579 30.4497 52.2833 30.4538C52.5464 30.4559 52.7724 30.447 52.9521 30.4268C53.1422 30.4054 53.2422 30.3752 53.279 30.3568C53.4666 30.263 53.6599 30.1429 53.9026 29.9855C53.9556 29.9511 54.0108 29.915 54.0685 29.8773C54.2705 29.7454 54.5023 29.594 54.7728 29.4276C55.474 28.996 56.4396 28.4602 57.9325 27.8204C58.5007 27.5769 58.8441 27.3587 59.0395 27.1806C59.2341 27.0031 59.2453 26.9008 59.2456 26.8772C59.2458 26.8522 59.2346 26.7969 59.146 26.7124C59.0633 26.6337 58.9428 26.5602 58.8114 26.5045C57.6323 26.2289 55.7341 25.8799 53.8427 25.722C52.8885 25.6423 51.9441 25.612 51.0991 25.6622C50.2482 25.7127 49.5268 25.8435 49.0021 26.0683C48.3305 26.3561 47.9322 26.7183 47.695 27.0855C47.4565 27.4547 47.3618 27.859 47.3468 28.2595C47.3317 28.6626 47.398 29.0516 47.4735 29.3775C47.5021 29.5012 47.5307 29.6104 47.557 29.7108C47.5657 29.7439 47.5741 29.7761 47.5822 29.8074C47.5855 29.8205 47.5889 29.8337 47.5922 29.8467ZM44.6039 29.3299C44.5893 29.263 44.5665 29.1726 44.5323 29.0563C44.4647 28.8261 44.3648 28.5339 44.2386 28.1973C43.9865 27.525 43.6357 26.6933 43.2452 25.86C42.8542 25.026 42.4271 24.1984 42.023 23.5313C41.8208 23.1976 41.628 22.9101 41.4517 22.6842C41.2706 22.452 41.126 22.3102 41.0247 22.2426C40.7929 22.0881 40.5902 21.8302 40.4145 21.5646C40.2321 21.2887 40.0481 20.9559 39.8657 20.6076C39.7516 20.3899 39.6383 20.1666 39.5248 19.9431C39.2668 19.4348 39.0081 18.9254 38.7396 18.4778C38.5483 18.159 38.3639 17.8927 38.1873 17.6975C38.0049 17.4959 37.8659 17.4097 37.7739 17.3849C37.7164 17.3694 37.6472 17.3661 37.5292 17.4656C37.3909 17.5823 37.212 17.824 37.0119 18.2743C36.6244 19.1463 36.4693 20.2381 36.4693 21.4187C36.4693 22.5951 36.623 23.8312 36.8309 24.9745C37.0385 26.1165 37.2985 27.1569 37.5076 27.941C37.5741 28.1905 37.6343 28.4096 37.6866 28.6003C37.7173 28.7121 37.7454 28.8141 37.7704 28.9066C37.8034 29.0287 37.8312 29.1346 37.8509 29.218C37.8621 29.2653 37.8783 29.3346 37.886 29.402C38.4649 29.8096 38.9348 30.2451 39.2854 30.651C39.4211 30.5965 39.5636 30.5376 39.7127 30.4758C40.7229 30.0578 42.0413 29.5123 43.6409 29.3668C43.9514 29.3386 44.2723 29.3252 44.6039 29.3299ZM35.333 36.0542C33.9768 35.5835 32.4474 35.4993 30.9779 36.549C29.6225 37.5171 29.0727 38.8339 28.9418 40.1426C28.8097 41.4636 29.1079 42.7645 29.4421 43.6333C29.5128 43.8172 29.4466 44.0255 29.2827 44.1347C28.6585 44.5508 27.7504 45.1954 26.9996 46.0648C26.2503 46.9324 25.6811 47.9961 25.6811 49.2575C25.6811 51.2795 26.6665 52.446 27.8834 53.1138C29.1282 53.7969 30.6213 53.9556 31.5452 53.8896C31.6617 53.8812 31.7765 53.9217 31.8621 54.0014C31.9476 54.081 31.9962 54.1926 31.9962 54.3095C31.9962 55.2423 32.3959 56.1667 33.009 56.9962C33.6206 57.8237 34.4231 58.5267 35.1708 59.0074C36.2973 59.7315 37.2845 60.0171 38.1353 60.0286C38.9847 60.04 39.7299 59.7787 40.3752 59.3565C41.6814 58.5019 42.5632 56.9952 42.9662 55.8534C43.0256 55.6851 43.1847 55.5725 43.3632 55.5725C44.7945 55.5725 45.9938 55.3308 46.9179 54.8302C47.8309 54.3356 48.496 53.5779 48.8579 52.4924C50.0322 48.9692 47.848 46.7596 46.4336 45.3451C46.3241 45.2357 46.2835 45.0749 46.328 44.9266M47.2025 44.9235C47.2342 44.8037 47.2747 44.6436 47.3191 44.4514C47.4201 44.0135 47.5417 43.4061 47.6229 42.7295C47.7039 42.0542 47.746 41.3 47.6835 40.5712C47.6214 39.8461 47.4534 39.1178 47.0922 38.5158C45.8902 36.5124 44.2804 35.8031 42.6776 35.7983C41.2215 35.794 39.8094 36.3696 38.7491 36.972C38.73 36.9589 38.7105 36.9455 38.6906 36.9318C38.0221 36.473 36.9114 35.7108 35.6091 35.2587C34.0895 34.7313 32.2508 34.605 30.4885 35.8638C28.8968 37.0007 28.2538 38.5608 28.104 40.0588C27.971 41.3885 28.224 42.6781 28.5421 43.6193C27.916 44.0507 27.0797 44.6839 26.3624 45.5144C25.533 46.4747 24.8391 47.7265 24.8391 49.2575C24.8391 51.6268 26.0289 53.0565 27.4783 53.8519C28.718 54.5323 30.1425 54.7499 31.1769 54.7451C31.2817 55.753 31.7381 56.6933 32.3318 57.4966C33.0117 58.4165 33.8932 59.187 34.7155 59.7157C35.9467 60.5071 37.0855 60.8565 38.124 60.8705C39.1638 60.8845 40.0711 60.5617 40.8362 60.0611C42.2406 59.1423 43.1774 57.6197 43.6562 56.4113C45.0533 56.3801 46.3013 56.1218 47.3189 55.5706C48.4182 54.9751 49.2266 54.0488 49.6567 52.7586C50.9539 48.8669 48.623 46.3506 47.2025 44.9235ZM46.328 44.9266L46.3285 44.9247L46.3308 44.917L46.3403 44.8842C46.3487 44.8547 46.361 44.8105 46.3765 44.7531C46.4074 44.6381 46.4506 44.4704 46.4986 44.2621C46.5949 43.8448 46.7102 43.2681 46.7869 42.6291C46.8637 41.9887 46.9006 41.2958 46.8446 40.6431C46.7884 39.9868 46.6406 39.3995 46.3702 38.949C45.3196 37.1979 43.9824 36.6442 42.6751 36.6403C41.3307 36.6364 39.9725 37.2162 38.9488 37.8304C38.8093 37.9141 38.634 37.9099 38.4987 37.8197C38.4087 37.7597 38.3097 37.692 38.2023 37.6184C37.5271 37.1562 36.5183 36.4656 35.333 36.0542M42.8733 44.8078C42.9625 45.2646 42.8028 45.7422 42.4014 46.1533C42.0372 46.5262 41.645 46.7427 41.2514 46.8111C40.8564 46.8798 40.4896 46.7937 40.1954 46.6125C39.6371 46.2686 39.2871 45.5223 39.6186 44.8592C39.9113 44.2739 40.3267 43.9037 40.7918 43.7394C41.2521 43.5768 41.7255 43.6293 42.1048 43.8244C42.4808 44.0178 42.7869 44.365 42.8733 44.8078ZM41.0723 44.5333C40.8455 44.6134 40.5835 44.8122 40.3718 45.2357C40.2823 45.4146 40.3533 45.7208 40.637 45.8956C40.7638 45.9737 40.9233 46.0135 41.1072 45.9815C41.2924 45.9493 41.5317 45.8387 41.799 45.565C42.0459 45.3122 42.0733 45.1042 42.0469 44.9691C42.0178 44.82 41.9058 44.6689 41.7196 44.5732C41.5367 44.4791 41.3038 44.4515 41.0723 44.5333ZM35.3328 45.6176C35.5621 46.0092 35.6038 46.4995 35.2935 46.965C34.9709 47.4488 34.6178 47.7702 34.2231 47.8807C33.7986 47.9996 33.4304 47.8482 33.1649 47.616C32.9098 47.3929 32.7269 47.0809 32.6082 46.7855C32.489 46.4889 32.4172 46.1652 32.4172 45.8895C32.4172 45.618 32.4768 45.3706 32.6079 45.1645C32.7407 44.9556 32.9293 44.8169 33.1377 44.7388C33.5372 44.589 33.9964 44.6617 34.3684 44.8167C34.7458 44.974 35.1176 45.2499 35.3328 45.6176ZM33.3184 45.6162C33.2916 45.6584 33.2592 45.7399 33.2592 45.8895C33.2592 46.0347 33.3009 46.251 33.3895 46.4716C33.4786 46.6935 33.5976 46.8758 33.7193 46.9822C33.8305 47.0796 33.9137 47.093 33.9961 47.0699C34.1082 47.0385 34.3173 46.9113 34.5929 46.4979C34.7036 46.3319 34.6927 46.1907 34.6062 46.0429C34.5056 45.8712 34.2986 45.6998 34.0445 45.5939C33.7849 45.4858 33.5601 45.4796 33.4333 45.5272C33.3785 45.5477 33.3435 45.5767 33.3184 45.6162ZM39.9688 50.488C40.1997 50.9049 40.2182 51.4161 39.9494 51.9442C39.738 52.3593 39.4498 52.6545 39.0974 52.7932C38.7404 52.9336 38.3752 52.8904 38.0659 52.7366C37.4664 52.4388 37.0482 51.7248 37.0482 50.9415C37.0482 50.377 37.3087 49.9593 37.7277 49.749C38.1157 49.5543 38.5778 49.5677 38.9684 49.6956C39.3621 49.8244 39.7488 50.0904 39.9688 50.488ZM38.1053 50.5016C37.9981 50.5554 37.8902 50.664 37.8902 50.9415C37.8902 51.4515 38.1666 51.8465 38.4405 51.9826C38.568 52.0459 38.6843 52.0509 38.7891 52.0096C38.8985 51.9666 39.0524 51.8501 39.199 51.5621C39.3512 51.2633 39.3171 51.0491 39.2322 50.8958C39.1365 50.723 38.9443 50.5737 38.7065 50.4958C38.4656 50.4169 38.2436 50.4322 38.1053 50.5016Z"
        fill="currentColor"/>
</svg>
