<svg width="80" height="81" viewBox="0 0 80 81" fill="none" xmlns="http://www.w3.org/2000/svg">
  <path fill-rule="evenodd" clip-rule="evenodd"
        d="M65.4351 6.69176C65.3894 6.61483 65.3176 6.55398 65.2292 6.52262C65.0728 6.46708 64.8984 6.51605 64.7937 6.64489C63.8948 7.75117 62.5207 9.48617 61.4217 10.9728C60.9305 11.6373 60.4904 12.2574 60.1718 12.7515C60.013 12.9978 59.8799 13.2197 59.7851 13.4038C59.7378 13.4957 59.6966 13.5848 59.6663 13.6672C59.639 13.7417 59.6078 13.8438 59.6078 13.951C59.6078 14.111 59.6876 14.2379 59.733 14.3027C59.7883 14.3816 59.8601 14.4598 59.9366 14.5343C60.0105 14.6064 60.0981 14.6839 60.1973 14.7661C59.2576 15.6493 57.3977 17.2272 55.4917 18.3164C53.4145 19.5034 52.8813 21.0546 52.9159 21.9733C51.8921 22.5598 50.4092 23.4183 49.213 24.1322C48.5717 24.056 47.0227 23.9822 44.9424 23.9108C42.6668 23.8327 39.7192 23.7567 36.5346 23.6864C30.4529 23.5522 23.5029 23.4388 18.71 23.372C18.8462 22.8394 18.8981 22.288 18.8196 21.7387C18.7141 21.0003 18.4508 20.2864 18.0962 19.7178C17.7489 19.1608 17.2781 18.6875 16.7283 18.5258C16.4436 18.442 16.1416 18.4441 15.8469 18.5613C15.5565 18.6769 15.3011 18.8929 15.0823 19.1906C14.8081 19.5636 14.5746 20.0876 14.3896 20.7789C14.3842 20.7676 14.3789 20.7564 14.3735 20.7451C14.1716 20.3261 13.9124 19.9149 13.5577 19.6336C13.1856 19.3383 12.7234 19.1992 12.1774 19.313C11.6549 19.4219 11.087 19.7556 10.454 20.3264C9.67155 21.0319 9.57023 21.9022 9.75767 22.6597C9.85685 23.0605 10.0366 23.4354 10.2397 23.7549H8.62745C8.50669 23.7549 8.39267 23.8106 8.31835 23.9057C8.24403 24.0009 8.21772 24.125 8.247 24.2422C8.27234 24.3435 8.3014 24.5543 8.32987 24.8819C8.3576 25.2009 8.38304 25.608 8.40624 26.087C8.45261 27.0444 8.48952 28.2777 8.51855 29.6456C8.59317 33.1611 8.61547 37.5491 8.61429 40.3861C8.38352 40.5138 8.14482 40.648 7.89746 40.8024C7.89485 40.7945 7.89233 40.7868 7.88988 40.7792C7.87035 40.7188 7.85735 40.6727 7.84959 40.6396C7.84516 40.6207 7.84352 40.6105 7.843 40.6072C7.83969 40.4826 7.7772 40.3666 7.67435 40.2953C7.56864 40.2221 7.43372 40.2053 7.31329 40.2505C6.61337 40.5129 5.66673 40.8961 4.68963 41.3375C3.70386 41.7828 2.67812 42.2914 1.84148 42.7986C1.42341 43.052 1.0449 43.3097 0.739781 43.5636C0.441519 43.8117 0.182849 44.081 0.0414016 44.3639C-0.00203171 44.4507 -0.0116864 44.5506 0.0143072 44.6442C0.217711 45.3764 0.574882 46.3847 1.08663 47.5132C2.26566 50.1134 4.29602 53.4202 7.22776 55.4499C7.38359 55.5578 7.59426 55.5388 7.72828 55.4048C7.97819 55.1549 8.28197 54.8539 8.61414 54.5286V66.1079C8.61414 66.2566 8.68576 66.3658 8.74928 66.4304C8.80917 66.4913 8.87687 66.5295 8.92756 66.5535C9.02995 66.6022 9.15479 66.6354 9.27955 66.6608C9.53606 66.7132 9.89604 66.7524 10.3351 66.7825C11.18 66.8403 12.3732 66.8673 13.8206 66.8703C14.5784 67.9132 15.3769 68.93 16.0799 69.7804C16.0942 69.9395 16.2055 70.0802 16.3688 70.124C16.5779 70.1803 16.7931 70.0563 16.8493 69.8472C17.0621 69.0558 17.2282 67.9873 17.2184 66.8428C17.6665 66.8357 18.1273 66.8274 18.5994 66.8178C18.6532 67.1329 18.7033 67.4056 18.7428 67.6199L18.7473 67.6446C18.7718 67.7778 18.7915 67.8849 18.8054 67.9653C18.814 68.015 18.8185 68.045 18.8209 68.0607C18.8235 68.078 18.8235 68.0782 18.8235 68.0686C18.8235 68.2353 18.9288 68.3837 19.0861 68.4388C19.2434 68.4938 19.4183 68.4435 19.5222 68.3132C19.8778 67.8676 20.2675 67.3419 20.6539 66.7706C28.6977 66.5663 39.1398 66.0895 45.9978 65.7308C46.9171 68.434 47.8703 70.4588 48.6992 71.9013C49.5509 73.3835 50.2844 74.2736 50.7293 74.6444C50.8329 74.7307 50.9734 74.7578 51.1016 74.7161C51.7867 74.4935 52.4424 74.2729 53.07 74.0545C54.2745 73.6355 55.3753 73.2247 56.3804 72.824C57.3326 72.4442 58.1992 72.0734 58.9868 71.7128C60.2321 71.1427 61.2807 70.5979 62.1589 70.0838C63.2142 69.4659 64.0266 68.8906 64.6394 68.3667C65.2856 67.8142 65.7199 67.3103 65.9802 66.8643C66.2365 66.425 66.3472 65.9999 66.2652 65.6306C66.2432 65.5319 66.184 65.4455 66.0999 65.3894C66.0535 65.3585 66.0049 65.3241 65.9542 65.2864C67.5271 65.2311 69.5147 65.1755 71.2514 65.1569C72.316 65.1454 73.2816 65.148 73.9982 65.1726C74.3576 65.1849 74.6467 65.2026 74.8517 65.2257C74.9552 65.2373 75.0274 65.2493 75.0726 65.2599C75.0772 65.261 75.0812 65.262 75.0846 65.2629C75.1934 65.3317 75.3313 65.3436 75.4525 65.2901C75.6006 65.2247 75.6933 65.075 75.6859 64.9133L75.3201 56.9901C76.9342 57.2369 78.6067 57.4046 79.5778 57.4793C79.7296 57.4909 79.8745 57.4136 79.9494 57.2809C80.0242 57.1483 80.0155 56.9843 79.927 56.8603C79.2729 55.9447 78.2722 54.5515 77.3954 53.3476C76.9572 52.7458 76.5491 52.1902 76.2305 51.7649C76.0714 51.5524 75.9335 51.371 75.8249 51.2321C75.776 51.1697 75.7296 51.1113 75.688 51.0608C75.7142 51.0061 75.7556 50.9325 75.816 50.8389C75.9891 50.5708 76.2672 50.2166 76.6024 49.8229C77.2697 49.0397 78.1245 48.1458 78.7087 47.5616C78.8254 47.4449 78.8565 47.2677 78.7866 47.1182C78.7167 46.9687 78.5606 46.879 78.3962 46.8938L74.9058 47.2077C74.9105 46.8081 74.9192 46.1747 74.9303 45.3678C74.9458 44.2425 74.9658 42.78 74.9862 41.1442C75.0288 37.7176 75.0723 33.5383 75.076 30.1349C75.078 28.3179 75.0686 26.719 75.0415 25.5732C75.028 25.0013 75.01 24.5366 74.9863 24.2122C74.9745 24.0521 74.9606 23.9151 74.9431 23.8133C74.9349 23.7656 74.9226 23.7057 74.9019 23.6501C74.8924 23.6245 74.8721 23.5745 74.8332 23.5239C74.7988 23.4791 74.6932 23.3628 74.5098 23.3628C74.4101 23.3628 74.0613 23.3897 73.5972 23.4286C73.1197 23.4686 72.4913 23.524 71.808 23.5854C70.5498 23.6986 69.1032 23.8325 68.0653 23.9297C67.796 23.4312 67.5552 22.999 67.365 22.6677C67.2576 22.4807 67.1655 22.3243 67.093 22.2057C67.4544 21.7477 67.8198 21.3188 68.165 20.9644C68.4907 20.6299 68.7798 20.3816 69.0166 20.2325C69.2247 20.3501 69.4239 20.4622 69.6123 20.5677C69.7605 20.6506 69.9452 20.6288 70.0699 20.5137L75.168 15.8078C75.2733 15.7106 75.3172 15.5636 75.2824 15.4245C74.9647 14.1536 74.1531 12.9913 73.1545 11.9676C72.153 10.9409 70.9389 10.0287 69.7747 9.26089C68.6093 8.49223 67.4829 7.86106 66.6549 7.40109C66.6131 7.37788 66.5722 7.35516 66.5321 7.33291C66.1717 7.1328 65.8808 6.97128 65.6731 6.84639C65.5579 6.77712 65.4807 6.72639 65.4351 6.69176ZM68.267 19.8065C65.804 18.3999 62.5102 16.4511 60.8297 15.2474C59.8913 16.141 57.9215 17.8313 55.8808 18.9974C54.2387 19.9358 53.7836 21.0489 53.7106 21.7007L56.7777 21.0192C56.9063 20.9906 57.0407 21.0285 57.1354 21.1201C57.2301 21.2117 57.2725 21.3447 57.2482 21.4743C57.0617 22.469 56.8732 23.5445 56.7058 24.6006C56.3911 26.5865 56.1546 28.4804 56.1393 29.6425C56.1361 29.8801 56.1425 30.076 56.1569 30.2301C56.3155 29.993 56.5171 29.6202 56.7662 29.0807C57.1967 28.1486 57.7514 26.7574 58.4544 24.7989C58.5276 24.595 58.7522 24.4891 58.956 24.5623C59.1599 24.6355 59.2658 24.86 59.1926 25.0639C58.4947 27.0082 57.9358 28.4143 57.4935 29.3765C57.3557 29.9209 57.2419 30.4645 57.1885 30.8943C57.1776 30.9818 57.1695 31.0622 57.1641 31.1353C57.1662 31.1327 57.1683 31.1301 57.1704 31.1274C57.4641 30.7603 57.8889 30.0944 58.4796 29.016C59.0021 28.0621 59.6481 26.7974 60.4406 25.1533C60.5347 24.9582 60.7691 24.8762 60.9642 24.9703C61.1593 25.0643 61.2412 25.2987 61.1471 25.4938C60.3691 27.1078 59.7284 28.3648 59.2038 29.3263C59.1534 29.7569 59.1324 30.1678 59.1568 30.4721C59.162 30.5372 59.1689 30.5928 59.1769 30.6397C59.2655 30.5499 59.38 30.41 59.5217 30.2024C59.8713 29.6901 60.3408 28.8353 60.9579 27.5109C61.2659 26.8499 61.6093 26.0747 61.9918 25.1707C62.0762 24.9713 62.3063 24.878 62.5057 24.9624C62.7052 25.0468 62.7985 25.2769 62.7141 25.4763C62.3378 26.3658 61.9977 27.1343 61.6908 27.795C61.6152 28.2318 61.5571 28.6748 61.5332 29.0596C61.5132 29.3826 61.5196 29.6338 61.5458 29.801C61.5849 29.7639 61.6312 29.7154 61.6851 29.6528C61.8156 29.501 61.9736 29.2857 62.1617 28.9926C62.6791 28.1866 63.3904 26.8459 64.3498 24.7671C64.3566 24.7523 64.3643 24.738 64.3729 24.7243C64.8124 24.0177 65.53 22.9451 66.3003 21.9467C66.727 21.3936 67.1745 20.8573 67.6031 20.4172C67.8234 20.191 68.047 19.9815 68.267 19.8065ZM60.7458 29.6883C60.5316 30.0785 60.3403 30.3943 60.1695 30.6445C59.9776 30.9256 59.7999 31.1415 59.6322 31.2876C59.4786 31.4214 59.2567 31.5636 58.9954 31.5258C58.7072 31.4842 58.561 31.2579 58.4939 31.0984C58.4465 30.9856 58.416 30.8574 58.3964 30.7257C58.1594 31.1069 57.9563 31.4006 57.7829 31.6173C57.618 31.8236 57.4559 31.9914 57.2947 32.0898C57.2126 32.14 57.1023 32.1899 56.9724 32.1946C56.9528 32.1953 56.9334 32.195 56.9142 32.1936C56.5457 32.4199 56.078 32.7317 55.7179 33.0243C55.523 33.1827 55.3799 33.3194 55.2986 33.4222C55.3388 33.4757 55.3783 33.5334 55.4159 33.5905C55.4952 33.7109 55.5841 33.8565 55.6777 34.0143C55.7638 34.1593 55.8507 34.3087 55.9401 34.4626C56.0543 34.6589 56.1726 34.8624 56.2988 35.073C56.5181 35.4391 56.7327 35.778 56.9202 36.0224C57.0114 36.1412 57.0867 36.2251 57.1444 36.2768C57.15 36.2743 57.1559 36.2717 57.1621 36.2689C57.2513 36.2281 57.375 36.1654 57.5318 36.0811C57.844 35.9132 58.2663 35.6712 58.7647 35.3778C59.7604 34.7915 61.0446 34.0089 62.3279 33.2243C62.5142 33.1104 62.7005 32.9964 62.8859 32.883C63.9757 32.2164 65.0335 31.5693 65.8749 31.0655C66.3668 30.771 66.7881 30.5235 67.0999 30.349C67.2356 30.273 67.3541 30.209 67.4505 30.1603C67.3768 29.944 67.2406 29.6307 67.0674 29.2665C66.7863 28.6752 66.4243 27.9846 66.1241 27.4328C65.6074 27.7336 64.946 28.1229 64.3384 28.4892C63.6227 28.9207 63.0157 29.3004 62.7852 29.4729C62.6 29.7576 62.4322 29.9869 62.2797 30.1642C62.1213 30.3484 61.961 30.4986 61.7961 30.5892C61.6257 30.6827 61.3901 30.7406 61.1612 30.6137C60.9608 30.5026 60.8698 30.3028 60.8243 30.1572C60.782 30.0219 60.7575 29.8618 60.7458 29.6883ZM63.6406 27.9948C63.7369 27.9363 63.8349 27.877 63.9335 27.8175C64.6932 27.3595 65.5349 26.8667 66.0783 26.5526C66.1693 26.5 66.2777 26.4862 66.379 26.5142C66.4804 26.5422 66.5662 26.6098 66.6173 26.7017C66.9462 27.2936 67.4211 28.1839 67.7757 28.9296C67.9518 29.2998 68.1046 29.6477 68.1936 29.9093C68.2359 30.0336 68.275 30.1701 68.2837 30.2897C68.2876 30.343 68.2908 30.4499 68.2406 30.559C68.2121 30.6207 68.1629 30.6905 68.0829 30.7429C68.0271 30.7794 67.969 30.7993 67.9143 30.8081C67.8976 30.8151 67.8723 30.8266 67.8369 30.844C67.7528 30.8853 67.6342 30.9488 67.4829 31.0334C67.1815 31.2021 66.7684 31.4447 66.2778 31.7384C65.4399 32.2401 64.3858 32.8849 63.2956 33.5518C63.1102 33.6652 62.9237 33.7793 62.737 33.8934C61.4547 34.6775 60.1649 35.4635 59.1626 36.0536C58.6619 36.3484 58.2291 36.5966 57.9032 36.7719C57.7409 36.8592 57.5998 36.9312 57.4876 36.9824C57.4319 37.0078 57.3773 37.0308 57.3275 37.0483C57.2912 37.061 57.2108 37.0883 57.1222 37.0883C56.9039 37.0883 56.7315 36.9578 56.634 36.8725C56.5191 36.772 56.4055 36.64 56.2979 36.4997C56.0812 36.2172 55.8471 35.8452 55.6259 35.476C55.5029 35.2707 55.3745 35.05 55.2543 34.8435C55.164 34.6883 55.0784 34.5412 55.0033 34.4147C54.9114 34.2599 54.83 34.1268 54.761 34.022C54.6872 33.9101 54.6428 33.8543 54.6247 33.8361C54.473 33.6845 54.4467 33.4902 54.4801 33.3306C54.5092 33.1914 54.5827 33.0707 54.65 32.9793C54.7883 32.7918 55.0014 32.5959 55.2233 32.4157C55.5803 32.1255 56.0212 31.8271 56.3882 31.597C56.3818 31.5512 56.3777 31.5052 56.3752 31.4599C56.3698 31.3626 56.3711 31.2558 56.3776 31.1429C56.2899 31.2016 56.1791 31.2516 56.0485 31.2559C55.8226 31.2634 55.6644 31.1345 55.5757 31.0065C55.495 30.89 55.4511 30.7502 55.4236 30.6248C55.4015 30.5242 55.3855 30.4102 55.3744 30.2853C55.1128 30.418 54.8241 30.5522 54.5471 30.6597C54.2966 30.7569 54.0366 30.8399 53.8061 30.8744C53.691 30.8916 53.5659 30.8995 53.4445 30.8823C53.3238 30.8652 53.1757 30.8186 53.056 30.6989C52.9213 30.5641 52.7272 30.2799 52.5355 29.9744C52.3344 29.6539 52.1092 29.266 51.9089 28.8904C51.7103 28.5182 51.529 28.1445 51.4217 27.8561C51.3707 27.719 51.3233 27.5676 51.3125 27.4346C51.3077 27.3744 51.3043 27.2583 51.3616 27.1419C51.394 27.0761 51.4475 27.0074 51.5291 26.9576C51.5937 26.9181 51.6603 26.9 51.7203 26.8943L51.7214 26.8939C51.7431 26.8862 51.7777 26.8719 51.8273 26.8487C51.9257 26.8027 52.059 26.7328 52.2225 26.6416C52.5481 26.46 52.9717 26.2062 53.433 25.9213C54.2925 25.3903 55.2696 24.7595 55.9585 24.3068C56.0875 23.5021 56.2277 22.6899 56.3694 21.9133L53.4764 22.5562C52.4221 23.1591 50.7741 24.1121 49.4978 24.8757C49.0185 25.1626 48.5937 25.4214 48.2733 25.6243C48.1594 25.6965 48.0599 25.7608 47.9766 25.8162C48.6046 26.8191 49.4109 28.1105 50.2312 29.4303C51.9451 32.1878 53.7374 35.0964 54.072 35.7282L54.0737 35.7313C54.4642 36.4846 55.0689 37.6134 55.6137 38.5517C55.8867 39.022 56.1407 39.4374 56.343 39.7324C56.4231 39.8492 56.4908 39.9408 56.5452 40.0072C56.6128 39.9767 56.6974 39.9366 56.7985 39.8869C57.067 39.7549 57.4333 39.5646 57.8675 39.3339C58.735 38.873 59.8602 38.2578 60.9884 37.6411L60.9907 37.6398C62.1167 37.0242 63.2455 36.4071 64.1175 35.9438C64.5534 35.7122 64.9285 35.5172 65.2084 35.3796C65.3478 35.3111 65.4681 35.2545 65.5627 35.2142C65.6096 35.1942 65.6556 35.1759 65.6973 35.1619L65.6985 35.1616C65.71 35.1577 65.73 35.151 65.7557 35.1445C67.0813 34.4807 69.8146 33.0738 70.7412 32.4626C70.7446 32.4525 70.7495 32.4348 70.7536 32.4063C70.7668 32.3158 70.7636 32.173 70.731 31.97C70.6662 31.5672 70.5015 31.0214 70.2614 30.3793C69.5959 28.5993 68.4109 26.2343 67.4975 24.5297C67.1812 23.9395 66.8992 23.4316 66.6848 23.0583C66.6477 22.9936 66.6128 22.9332 66.5801 22.8773C65.9683 23.7032 65.4147 24.5357 65.0517 25.1179C64.5102 26.2903 64.043 27.2385 63.6406 27.9948ZM66.3815 35.7078L66.3819 35.71C66.413 35.8987 66.4304 36.1524 66.4397 36.4382C66.4586 37.0152 66.4459 37.7854 66.4214 38.5711C66.3945 39.4297 66.3541 40.2983 66.3224 40.9782C66.2952 41.5623 66.2745 42.0071 66.2745 42.1863C66.2745 42.3898 66.1378 42.5039 66.087 42.5405C66.0259 42.5845 65.9606 42.6108 65.9146 42.6268C65.8177 42.6607 65.6956 42.6864 65.5654 42.7079C65.2989 42.7518 64.92 42.7898 64.453 42.8238C63.5153 42.8919 62.1801 42.9462 60.5813 42.9909C57.382 43.0802 53.1045 43.1314 48.7904 43.1753C47.9774 43.1836 47.1632 43.1916 46.3545 43.1995C42.8699 43.2338 39.4892 43.267 36.7653 43.3157C35.087 43.3457 33.6613 43.3814 32.6159 43.4268C32.0926 43.4495 31.6688 43.4744 31.3578 43.5017C31.2545 43.5108 31.1657 43.52 31.0911 43.5292C31.0624 44.1416 31.036 44.7392 31.0126 45.3137C36.4995 45.1821 44.6105 44.9717 51.641 44.7551C55.2467 44.644 58.5671 44.5313 61.1033 44.4268C63.6578 44.3216 65.3782 44.2257 65.8179 44.1524C66.0315 44.1168 66.2336 44.2611 66.2692 44.4748C66.3048 44.6884 66.1605 44.8904 65.9468 44.9261C65.4454 45.0096 63.6573 45.1066 61.1355 45.2105C58.5954 45.3151 55.2718 45.4279 51.6651 45.539C44.6112 45.7564 36.4707 45.9675 30.9821 46.0989C30.9686 46.4637 30.9566 46.8165 30.9462 47.155C30.9906 47.1502 31.0369 47.1457 31.0849 47.1414C31.4014 47.1131 31.8185 47.0929 32.3078 47.0791C33.2879 47.0515 34.5804 47.0488 35.9851 47.0614C38.6101 47.085 41.6405 47.1619 43.7878 47.2306C43.8002 47.1444 43.8265 47.0597 43.8723 46.9802C44.0364 46.6952 44.337 46.6474 44.5536 46.662C44.7721 46.6768 45.0179 46.7562 45.2655 46.8617C45.5126 46.9671 45.7896 47.1109 46.0869 47.2827C46.0905 47.2836 46.095 47.2846 46.1003 47.2857C46.1315 47.2923 46.1782 47.2997 46.2425 47.3073C46.3705 47.3223 46.5452 47.3351 46.7597 47.3454C47.1873 47.366 47.7498 47.3759 48.3649 47.3785C49.493 47.3831 50.7833 47.3631 51.7097 47.3412C51.8565 47.09 52.0778 46.8887 52.4041 46.8784C52.7094 46.8688 52.9815 47.0411 53.2031 47.2436C54.5967 47.2251 60.5707 47.0053 63.5144 46.8925C63.7308 46.8842 63.913 47.0529 63.9213 47.2693C63.9296 47.4857 63.7608 47.6679 63.5444 47.6762C60.9426 47.7759 55.9269 47.9611 53.8446 48.0144C54.0264 48.2784 54.2111 48.5798 54.3962 48.9068C54.7638 49.5563 55.1461 50.3304 55.5245 51.1625C56.1703 52.5829 56.8106 54.1856 57.3532 55.6521C57.417 55.5799 57.5063 55.5326 57.6049 55.5219C57.7457 55.5067 57.8838 55.5686 57.9662 55.6838C59.6209 58.0004 62.9799 62.4564 65.0991 64.533C66.7586 64.4689 69.1759 64.3948 71.2429 64.3726C72.3111 64.3611 73.2906 64.3635 74.0251 64.3887C74.3606 64.4003 74.6515 64.4167 74.8789 64.4398L74.529 56.8614C73.6987 56.7177 72.9082 56.5506 72.2764 56.3608C71.4999 57.2046 70.4202 58.3949 69.5109 59.4347C69.0218 59.9939 68.5849 60.5062 68.2714 60.8963C68.1141 61.0922 67.9922 61.2519 67.9113 61.3688C67.8704 61.428 67.845 61.469 67.8314 61.4941C67.8245 61.5068 67.8244 61.5086 67.8269 61.5021C67.8282 61.4985 67.8316 61.489 67.835 61.4749C67.8377 61.4634 67.8418 61.4426 67.8429 61.415L67.0588 61.415V53.8122C66.4734 53.545 65.6835 53.1603 64.9751 52.7638C64.5721 52.5382 64.1875 52.3045 63.8799 52.083C63.7262 51.9723 63.5856 51.8603 63.4695 51.7499C63.3578 51.6437 63.2477 51.5194 63.1787 51.3813C63.1278 51.2796 63.1236 51.1609 63.1671 51.0558C63.2106 50.9508 63.2976 50.8698 63.4054 50.8339C63.9973 50.6366 64.9243 50.3407 65.7839 50.0937C66.2133 49.9703 66.6298 49.858 66.9809 49.7762C67.1558 49.7354 67.3251 49.6996 67.4767 49.6745C67.5495 48.759 67.6785 47.4886 67.8573 46.3042C67.9579 45.6382 68.0752 44.9928 68.2087 44.4504C68.3383 43.9238 68.4947 43.4432 68.6933 43.1452C68.766 43.0361 68.8885 42.9706 69.0196 42.9706C69.1507 42.9706 69.2732 43.0361 69.3459 43.1452C69.8653 43.9243 70.6827 45.0918 71.4455 46.0615C71.8278 46.5475 72.1897 46.9751 72.4895 47.2781C72.6402 47.4303 72.7661 47.5418 72.8643 47.6124C72.8911 47.6316 72.9126 47.6455 72.9292 47.6553C73.103 47.5929 73.3345 47.515 73.5748 47.444C73.7501 47.3922 73.9401 47.341 74.1204 47.3029C74.1248 46.9072 74.1342 46.2243 74.1464 45.3352C74.1618 44.2104 74.1818 42.7555 74.2019 41.1344C74.243 37.8308 74.2849 33.8302 74.2911 30.5013C73.9304 30.4909 73.4024 30.5001 72.8241 30.521C72.2562 30.5414 71.6614 30.572 71.1734 30.6008C71.3305 31.0645 71.448 31.4889 71.5054 31.8455C71.5437 32.084 71.5593 32.3162 71.5297 32.5194C71.5006 32.7192 71.4171 32.9547 71.1979 33.1008C70.3055 33.6958 67.7842 35.0006 66.3815 35.7078ZM70.892 29.8321C71.4209 29.7992 72.126 29.7613 72.7959 29.7371C73.3421 29.7175 73.8862 29.706 74.2919 29.7169C74.2921 28.0751 74.2822 26.6397 74.2575 25.5917C74.244 25.0228 74.2263 24.5738 74.204 24.2695C74.2013 24.2327 74.1986 24.1986 74.1959 24.1672C74.054 24.1779 73.8736 24.1925 73.6627 24.2102C73.1875 24.25 72.561 24.3052 71.8783 24.3666C70.7485 24.4682 69.4665 24.5866 68.4654 24.6801C69.2891 26.2448 70.2658 28.224 70.892 29.8321ZM67.8431 60.1801V53.5588C67.8431 53.4039 67.7519 53.2634 67.6103 53.2005C67.0295 52.9424 66.139 52.5163 65.3582 52.0794C64.9672 51.8605 64.6115 51.6433 64.3382 51.4465C64.3079 51.4247 64.2789 51.4033 64.2513 51.3824C64.7758 51.2138 65.4054 51.0185 66.0005 50.8475C66.4239 50.7258 66.8261 50.6175 67.1588 50.54C67.5054 50.4593 67.7378 50.4216 67.8431 50.4216C68.0489 50.4216 68.2196 50.2626 68.2343 50.0574C68.2991 49.1497 68.4354 47.7289 68.6329 46.4213C68.7316 45.7671 68.8448 45.1478 68.9703 44.6379C69.0126 44.4659 69.0551 44.3118 69.0972 44.1761C69.596 44.9011 70.2274 45.7816 70.829 46.5464C71.2179 47.0408 71.6012 47.4955 71.9321 47.8298C72.0967 47.9962 72.2576 48.1421 72.4065 48.2492C72.5356 48.342 72.7283 48.4608 72.9412 48.4608C72.9884 48.4608 73.0352 48.4523 73.0793 48.4357C73.2405 48.375 73.5127 48.2802 73.7971 48.1961C74.0886 48.11 74.3645 48.0438 74.5449 48.0276L77.4092 47.77C76.9453 48.2557 76.4385 48.806 76.0054 49.3143C75.6642 49.7149 75.359 50.1008 75.1571 50.4136C75.058 50.567 74.9702 50.7233 74.9203 50.8664C74.8956 50.9374 74.8718 51.028 74.8726 51.1263C74.8734 51.2288 74.9026 51.369 75.0168 51.4832C75.0358 51.5022 75.0969 51.5744 75.207 51.7152C75.3108 51.8479 75.445 52.0244 75.6028 52.2351C75.9182 52.6562 76.3239 53.2085 76.7614 53.8093C77.4368 54.7367 78.1863 55.7772 78.7935 56.6242C77.727 56.5233 76.299 56.3591 74.9698 56.1404C73.9245 55.9685 72.9591 55.7658 72.2809 55.5397C72.1346 55.491 71.9733 55.5325 71.8687 55.6458C71.083 56.497 69.904 57.7938 68.9205 58.9183C68.5163 59.3805 68.1431 59.8158 67.8431 60.1801ZM56.8084 56.4451C56.233 54.8567 55.5236 53.0555 54.8105 51.4872C54.4377 50.6673 54.0659 49.9156 53.7136 49.2932C53.3579 48.6647 53.0347 48.1909 52.7629 47.9094C52.6611 47.804 52.5772 47.7369 52.5124 47.6985C52.4756 47.6767 52.4516 47.668 52.4389 47.6646L52.4379 47.6656C52.4157 47.6872 52.373 47.7439 52.3252 47.8681C52.2256 48.1271 52.1447 48.5709 52.1099 49.2593C52.0755 49.9399 52.0873 50.831 52.1561 51.9665C52.1656 52.1229 52.0811 52.2699 51.9412 52.3404C51.8014 52.4109 51.6329 52.3914 51.5129 52.2908C49.5844 50.6751 47.2573 48.87 45.7191 47.9761C45.4279 47.8068 45.1722 47.6745 44.958 47.5832C44.7909 47.512 44.6646 47.4726 44.5754 47.455C44.5799 47.4766 44.5859 47.5019 44.5941 47.5313C44.6677 47.7942 44.8667 48.2139 45.2475 48.8308C45.6236 49.4404 46.162 50.2186 46.8921 51.1922C47.3613 51.8179 47.9087 52.5228 48.5415 53.3139C48.6768 53.483 48.6494 53.7298 48.4803 53.8651C48.3112 54.0004 48.0644 53.9729 47.9291 53.8038C47.336 53.0625 46.8161 52.3946 46.3638 51.7947C46.0234 51.7598 45.7303 51.7981 45.5658 51.8997C45.4887 51.9474 45.4435 52.0057 45.4227 52.0924C45.399 52.1912 45.399 52.364 45.4981 52.6435C45.6934 53.1941 46.2277 54.0325 47.3479 55.2546C47.4943 55.4143 47.4835 55.6624 47.3238 55.8087C47.1642 55.9551 46.9161 55.9443 46.7697 55.7846C45.7447 54.6663 45.1377 53.7984 44.8448 53.1231C44.7057 53.1058 44.5725 53.1042 44.4561 53.1207C44.284 53.145 44.1853 53.2025 44.1325 53.2664C44.0846 53.3245 44.0248 53.4482 44.0591 53.7192C44.0941 53.9961 44.2248 54.3929 44.5211 54.941C44.7983 55.4537 45.2116 56.0829 45.801 56.8492C45.9331 57.0208 45.901 57.267 45.7293 57.3991C45.5576 57.5311 45.3114 57.499 45.1794 57.3274C44.619 56.5989 44.2014 55.9756 43.9022 55.4428C43.516 55.3036 43.182 55.2539 42.967 55.2994C42.8612 55.3218 42.8082 55.3616 42.7768 55.4048C42.7427 55.4518 42.6988 55.5523 42.7065 55.7591C42.7227 56.1898 42.9573 56.9263 43.6181 58.095C44.2447 59.2034 45.2316 60.6617 46.7039 62.5581C47.0119 62.415 47.3364 62.2616 47.673 62.0995C48.4107 61.7442 49.2064 61.3471 50.0143 60.9246C50.6644 60.5846 51.322 60.2284 51.9633 59.8645C52.6391 59.481 53.296 59.0895 53.9067 58.6997C54.7018 58.1922 55.4135 57.6909 55.9849 57.2174C56.3135 56.9451 56.5903 56.6863 56.8084 56.4451ZM45.9715 62.8933C44.5476 61.05 43.5708 59.6051 42.9353 58.481C42.2627 57.2913 41.9464 56.4168 41.9228 55.7885C41.9106 55.4658 41.9746 55.1749 42.1421 54.944C42.3125 54.7093 42.555 54.5848 42.8047 54.532C43.0119 54.4883 43.237 54.4905 43.4648 54.523C43.3684 54.2644 43.3078 54.03 43.281 53.8177C43.2282 53.4007 43.3034 53.039 43.5275 52.7673C43.7468 52.5015 44.0572 52.3849 44.3463 52.3441C44.4396 52.3309 44.5345 52.3249 44.6293 52.3249C44.619 52.1793 44.6286 52.0406 44.66 51.9095C44.7339 51.6013 44.9186 51.3776 45.1536 51.2324C45.3434 51.1152 45.5635 51.0498 45.7892 51.0194C45.2831 50.3236 44.8837 49.7349 44.58 49.2427C44.2807 48.7577 44.0649 48.3517 43.9337 48.0201C41.7822 47.9501 38.6656 47.8698 35.978 47.8457C34.5764 47.8331 33.2954 47.8359 32.3299 47.8631C31.8464 47.8767 31.4477 47.8964 31.1548 47.9226C31.066 47.9305 30.9892 47.9389 30.9244 47.9474C30.9095 48.565 30.9017 49.1184 30.9022 49.5902C32.1823 49.4513 34.6223 49.2451 36.8627 49.2451C38.1304 49.2451 39.2113 49.3087 40.0649 49.359C40.2768 49.3714 40.4746 49.3831 40.6579 49.3927C41.1249 49.4173 41.4835 49.4281 41.7459 49.4114C41.8765 49.403 41.9679 49.3886 42.0289 49.3718C42.0619 49.3627 42.0781 49.3551 42.0836 49.3522C42.2373 49.2069 42.4797 49.2095 42.6302 49.36C42.7834 49.5131 42.7834 49.7614 42.6302 49.9146C42.514 50.0308 42.3676 50.092 42.2373 50.1279C42.1038 50.1647 41.9531 50.184 41.7958 50.1941C41.4821 50.2141 41.081 50.2004 40.6166 50.1759C40.4273 50.166 40.2251 50.1541 40.0103 50.1415C39.1574 50.0913 38.1049 50.0294 36.8627 50.0294C34.6142 50.0294 32.1507 50.2414 30.9136 50.3779C30.9254 50.7437 30.946 50.9952 30.9728 51.129C30.9945 51.2375 30.9693 51.3501 30.9035 51.4391C30.8377 51.5281 30.7374 51.5851 30.6273 51.5961C28.0116 51.8577 24.0875 52.2305 20.8164 52.4987C19.1814 52.6328 17.706 52.741 16.6378 52.7961C16.105 52.8235 15.6665 52.8381 15.3581 52.8355C15.2065 52.8342 15.0725 52.8287 14.9706 52.8156C14.9235 52.8095 14.8586 52.7989 14.7965 52.776C14.7669 52.7651 14.7109 52.7419 14.6558 52.6951C14.5968 52.645 14.5098 52.5404 14.5098 52.3824C14.5098 52.2949 14.5285 52.1689 14.5489 52.0476C14.5713 51.9143 14.6028 51.7478 14.6397 51.5598C14.6733 51.3887 14.7153 51.1808 14.7601 50.9584C14.8087 50.7176 14.8608 50.4598 14.9094 50.2132C15.0442 49.5288 15.173 48.8281 15.242 48.2853C14.7319 48.5368 14.1858 48.8229 13.6811 49.117C13.0822 49.466 12.571 49.8098 12.2427 50.1072C12.3351 50.2928 12.4236 50.4703 12.5076 50.6384C12.6045 50.8321 12.526 51.0676 12.3322 51.1645C12.2591 51.2011 12.0959 51.3171 11.8434 51.5252C11.6021 51.7241 11.3067 51.9838 10.9804 52.2804C10.4894 52.7267 9.93432 53.2511 9.39845 53.767V65.884C9.41021 65.8866 9.42282 65.8896 9.43632 65.8923C9.64017 65.9339 9.95798 65.9705 10.3887 66C11.0983 66.0486 12.0739 66.0753 13.2606 66.0835C12.22 64.5888 11.3084 63.0794 10.9595 61.9856C10.859 61.6703 10.7964 61.364 10.8024 61.088C10.8084 60.8097 10.8862 60.5234 11.1081 60.3106C11.3287 60.099 11.6278 60.0219 11.9446 60.0229C12.2604 60.0239 12.6346 60.1017 13.0655 60.2457C15.9873 61.2224 16.9931 63.7486 17.1833 66.059C17.6025 66.0524 18.033 66.0446 18.4736 66.0358C18.2636 64.638 18.0676 62.7697 18.2646 61.2707C18.3731 60.4447 18.6091 59.6597 19.0941 59.1404C19.613 58.5848 20.3516 58.3991 21.2796 58.6519C22.0842 58.8711 22.6134 59.326 22.8742 59.9615C23.1255 60.5736 23.1048 61.2981 22.9448 62.0312C22.6711 63.2854 21.9574 64.7072 21.1717 65.9726C29.0669 65.7631 39.0975 65.3053 45.801 64.9557L45.4978 63.4397C45.4618 63.2598 45.5554 63.0789 45.7231 63.0044C45.8039 62.9685 45.8868 62.9314 45.9715 62.8933ZM46.6543 65.2227C47.5857 68.0125 48.5528 70.0723 49.3792 71.5105C50.1014 72.7673 50.7066 73.5328 51.0764 73.8994C51.6086 73.7251 52.1225 73.5523 52.6186 73.3809C52.6178 73.3268 52.6112 73.2552 52.5959 73.1641C52.5548 72.9191 52.4604 72.5886 52.3157 72.1835C52.0276 71.3766 51.562 70.3323 51.0101 69.1971C49.974 67.0661 48.6516 64.651 47.6846 62.9636C47.4172 63.0909 47.1586 63.2121 46.9111 63.3266L46.7497 63.401C46.6049 63.4675 46.4643 63.5314 46.3283 63.5928L46.6543 65.2227ZM48.3929 62.6221C49.3629 64.3169 50.6791 66.7227 51.7154 68.8541C52.2713 69.9975 52.7518 71.0722 53.0544 71.9198C53.2051 72.3419 53.3171 72.7225 53.3694 73.0344C53.3739 73.0609 53.378 73.0873 53.3817 73.1135C54.1443 72.8425 54.8623 72.5753 55.5381 72.3126C55.3828 72.096 55.1994 71.8068 54.9965 71.4666C54.542 70.7044 53.9679 69.6483 53.3562 68.479C52.2087 66.2852 50.9189 63.6732 50.0181 61.8065C49.4623 62.0934 48.9156 62.367 48.3929 62.6221ZM50.7136 61.4429C51.6126 63.3065 52.9043 65.9227 54.0512 68.1154C54.6611 69.2813 55.2271 70.3219 55.6702 71.0649C55.8926 71.4379 56.0785 71.7265 56.22 71.9165C56.2482 71.9545 56.2733 71.9865 56.2951 72.0132C57.0008 71.729 57.6568 71.4504 58.2659 71.1781C57.226 69.3937 55.7595 66.8904 54.4863 64.7454C53.8036 63.5952 53.1772 62.5493 52.7022 61.7729C52.4646 61.3844 52.2661 61.0653 52.1179 60.8351C52.091 60.7934 52.0661 60.755 52.043 60.7198C51.6026 60.9662 51.157 61.2081 50.7136 61.4429ZM52.7262 60.3315C52.7426 60.3568 52.7597 60.3832 52.7774 60.4106C52.9304 60.6484 53.1326 60.9734 53.3713 61.3636C53.849 62.1445 54.4775 63.194 55.1608 64.3451C56.4514 66.5196 57.9401 69.0611 58.9828 70.8506C59.9434 70.4018 60.7749 69.9716 61.4921 69.5631C61.4643 69.5048 61.4296 69.4372 61.3872 69.3601C61.2472 69.1051 61.04 68.7738 60.7771 68.3808C60.2521 67.5965 59.5219 66.5921 58.7063 65.509C57.1651 63.4623 55.3312 61.1507 54.0326 59.5478C53.6118 59.8106 53.1736 60.0728 52.7262 60.3315ZM54.6972 59.1222C55.996 60.7267 57.8061 63.0097 59.3329 65.0372C60.1513 66.1241 60.8917 67.1421 61.4288 67.9446C61.6969 68.345 61.9186 68.6982 62.0748 68.9827C62.109 69.045 62.1408 69.1053 62.1697 69.1633C62.7958 68.7798 63.3166 68.4189 63.7462 68.0835C63.6986 68.0392 63.6496 67.9916 63.5993 67.9413C63.3641 67.7059 63.0821 67.3897 62.7681 67.0166C62.1391 66.2691 61.3632 65.2709 60.545 64.1815C59.0154 62.1447 57.327 59.7737 56.1529 58.0882C55.7168 58.4283 55.225 58.7751 54.6972 59.1222ZM56.7596 57.587C57.9316 59.2704 59.6338 61.662 61.1722 63.7105C61.9873 64.796 62.7532 65.7807 63.3682 66.5116C63.6763 66.8776 63.9419 67.1745 64.1542 67.387C64.2293 67.4623 64.2954 67.5245 64.3522 67.5742C64.8261 67.142 65.1268 66.7705 65.3027 66.469C65.4438 66.2273 65.4943 66.0494 65.505 65.9297C65.2511 65.7427 64.9713 65.4982 64.6753 65.2145C62.6446 63.2684 59.4559 59.0832 57.6765 56.6245C57.6389 56.675 57.5996 56.7253 57.5586 56.7755C57.342 57.0406 57.0709 57.3124 56.7596 57.587ZM11.8832 49.3822C12.2692 49.0639 12.7694 48.7405 13.2862 48.4393C14.027 48.0076 14.8464 47.5966 15.5202 47.2817C15.8192 47.142 16.0909 47.0206 16.3159 46.924C16.3208 46.9219 16.3256 46.9199 16.3305 46.918C16.3358 46.916 16.3412 46.9141 16.3466 46.9123C16.7012 46.7941 17.0365 46.6788 17.3534 46.5663C18.9481 46.0004 20.07 45.5092 20.8354 45.0899C21.614 44.6634 21.978 44.3354 22.1173 44.1171C22.1817 44.0162 22.1818 43.9642 22.1805 43.95C22.1795 43.938 22.1743 43.9119 22.1317 43.8685C22.0465 43.7819 21.8744 43.6923 21.6327 43.6244C20.8035 44.1211 19.6833 44.6785 18.1885 45.294C17.9883 45.3765 17.7591 45.281 17.6766 45.0807C17.5941 44.8804 17.6896 44.6512 17.8899 44.5688C19.446 43.928 20.5677 43.36 21.3631 42.8706C22.2798 42.3065 22.734 41.8643 22.9324 41.5609C21.8763 42.0878 20.2232 42.6832 17.749 43.3493C17.5399 43.4056 17.3247 43.2817 17.2684 43.0726C17.2121 42.8634 17.336 42.6482 17.5451 42.5919C20.515 41.7923 22.2138 41.115 23.1024 40.5744C23.3527 40.4221 23.5284 40.2867 23.6473 40.1704C23.8024 40.0186 23.8391 39.921 23.8463 39.8801C23.8507 39.8548 23.8497 39.8291 23.8136 39.7826C23.7696 39.7261 23.6829 39.6553 23.5399 39.583C23.4429 39.534 23.3302 39.4895 23.2069 39.4507C22.8429 39.6816 22.2831 39.9338 21.5145 40.2162C20.6068 40.5497 19.3727 40.9375 17.752 41.3877C17.5433 41.4456 17.3272 41.3235 17.2692 41.1148C17.2112 40.9061 17.3334 40.6899 17.5421 40.632C19.1524 40.1847 20.3641 39.8033 21.244 39.48C22.1227 39.1572 22.6378 38.9036 22.8914 38.7174C22.8445 38.7017 22.7872 38.6852 22.7181 38.6688C22.5376 38.6257 22.3067 38.5894 22.0303 38.5605C20.9187 38.4445 19.2141 38.4632 17.5036 38.5465C16.8962 38.5761 16.2909 38.6137 15.7149 38.6558C15.6104 38.6635 15.5073 38.629 15.4284 38.5602C15.3495 38.4913 15.3014 38.3937 15.2949 38.2892L15.1294 35.6415C14.8508 35.763 14.528 35.9676 14.1718 36.2628C13.6295 36.7121 13.0456 37.3412 12.4706 38.1079C11.1751 39.8351 10.1808 40.4168 9.19596 40.9609C9.16824 40.9762 9.14062 40.9915 9.11307 41.0067C8.80071 41.179 8.49829 41.3459 8.18562 41.5486C8.92284 43.3173 10.6242 46.8359 11.8832 49.3822ZM15.8814 35.0994C15.8816 35.1021 15.8817 35.1048 15.8819 35.1075L16.053 37.8457C16.4155 37.8211 16.7868 37.7985 17.1607 37.7786C17.169 37.6961 17.1758 37.5974 17.181 37.484C17.1951 37.1792 17.1966 36.7912 17.19 36.3712C17.1767 35.5325 17.1311 34.5883 17.0931 33.9753C17.0864 33.8673 17.1246 33.7613 17.1988 33.6824C17.2729 33.6036 17.3763 33.5588 17.4845 33.5588C17.9729 33.5588 25.622 33.2979 29.3982 33.1669C29.5266 33.1625 29.649 33.2212 29.7259 33.3241C29.8028 33.427 29.8244 33.561 29.7838 33.6829C29.7588 33.7578 29.7204 33.9843 29.6779 34.3852C29.6373 34.7682 29.5963 35.271 29.5558 35.8652C29.4747 37.0529 29.3959 38.5929 29.3236 40.2427C29.1917 43.2525 29.0818 46.6201 29.0195 48.8638C29.014 49.0606 28.8636 49.2228 28.6678 49.243C26.7706 49.4393 23.924 49.7142 21.5503 49.9008C20.3644 49.994 19.2916 50.0656 18.5131 50.0941C18.1257 50.1083 17.8015 50.1122 17.5699 50.1015C17.4574 50.0962 17.3482 50.0869 17.2597 50.0681C17.2189 50.0595 17.1538 50.0432 17.0896 50.0084C17.0428 49.9829 16.8627 49.8729 16.8627 49.6373C16.8627 49.3735 16.9575 48.3185 17.0348 47.5078C16.8964 47.5551 16.7549 47.6029 16.6103 47.6511C16.452 47.7192 16.2691 47.8003 16.0691 47.892C16.0268 48.5343 15.8479 49.5072 15.6789 50.3648C15.6255 50.6358 15.5756 50.8829 15.5291 51.1129C15.4862 51.325 15.4463 51.5226 15.4093 51.7109C15.3843 51.8384 15.3625 51.9525 15.3446 52.051C15.3512 52.0511 15.358 52.0511 15.3649 52.0512C15.6488 52.0536 16.0682 52.0401 16.5975 52.0128C17.6534 51.9584 19.1192 51.8509 20.7523 51.717C23.8556 51.4625 27.5501 51.1136 30.1522 50.8552C30.1355 50.627 30.1259 50.349 30.1213 50.0352C30.1119 49.4006 30.1225 48.577 30.148 47.6265C30.164 47.0306 30.1858 46.3837 30.2123 45.7005C30.2432 44.9042 30.2805 44.0582 30.3222 43.1859C30.4365 40.7932 30.5845 38.2006 30.7272 35.8876C30.8127 34.5013 30.8964 33.2151 30.9698 32.1322C30.9304 32.118 30.8775 32.1018 30.8083 32.0848C30.5383 32.0187 30.1258 31.9662 29.5871 31.9292C28.5164 31.8557 27.0232 31.848 25.3512 31.8823C22.1683 31.9475 18.3754 32.1638 15.7097 32.3534L15.8814 35.0994ZM17.8505 47.2215C17.7875 47.8671 17.6997 48.8092 17.6636 49.3202C17.8598 49.3265 18.1372 49.323 18.4844 49.3103C19.246 49.2825 20.3055 49.2119 21.4889 49.1189C23.7153 48.9438 26.3626 48.6906 28.2451 48.4981C28.3035 46.4494 28.3969 43.6048 28.5087 40.9402C28.2744 41.1698 27.9948 41.4859 27.6956 41.8495C27.0223 42.668 26.2857 43.6837 25.8131 44.3696C25.7319 44.4874 25.593 44.5517 25.4507 44.5372C25.3083 44.5228 25.1851 44.432 25.1292 44.3003L23.8424 41.268C23.8383 41.4821 23.7635 41.7011 23.6342 41.9175C23.4224 42.2722 23.0355 42.669 22.422 43.1096C22.5211 43.1696 22.6123 43.2387 22.6907 43.3184C22.831 43.4609 22.9416 43.6495 22.9619 43.8819C22.9819 44.1123 22.9088 44.3347 22.7784 44.5391C22.528 44.9315 22.0154 45.3378 21.2123 45.7778C20.4361 46.2029 19.3447 46.6826 17.8505 47.2215ZM24.3795 40.5259L25.5752 43.3436C26.0207 42.7199 26.5716 41.9814 27.0899 41.3513C27.4347 40.9321 27.7742 40.5499 28.0637 40.2807C28.2068 40.1476 28.3521 40.0285 28.4902 39.9474C28.5102 39.9357 28.5312 39.924 28.5531 39.9129C28.6219 38.3723 28.6965 36.9373 28.7733 35.8118C28.8141 35.2136 28.8558 34.6996 28.8979 34.3024C28.9105 34.1839 28.9235 34.0715 28.9372 33.9677C25.4884 34.087 19.5567 34.2891 17.8995 34.3341C17.9316 34.9246 17.9634 35.6746 17.9742 36.3588C17.981 36.7854 17.9796 37.1918 17.9645 37.5201C17.961 37.5972 17.9566 37.6712 17.9512 37.7412C19.5066 37.6768 21.0472 37.6694 22.1117 37.7804C22.4071 37.8113 22.6746 37.852 22.9002 37.9059C23.1175 37.9577 23.3308 38.0295 23.4923 38.1401C23.6624 38.2566 23.8466 38.4761 23.783 38.7855C23.7802 38.7993 23.777 38.8128 23.7733 38.8262C23.8142 38.8442 23.8544 38.8632 23.8937 38.883C24.093 38.9838 24.2909 39.1189 24.4326 39.301C24.582 39.4931 24.6677 39.7385 24.6187 40.0163C24.5867 40.1977 24.5017 40.3674 24.3795 40.5259ZM15.0782 34.823C14.6193 34.9706 14.1408 35.2699 13.6714 35.6588C13.0699 36.1572 12.4446 36.8353 11.8431 37.6373C10.8897 38.9085 10.132 39.4976 9.3986 39.9416C9.39743 37.2129 9.37549 33.2938 9.31079 30.0242C15.6079 29.9425 24.9871 29.8465 33.1643 29.8181C37.3396 29.8036 41.2001 29.8068 44.1766 29.8383C46.9312 29.8675 48.8935 29.9213 49.6635 30.0028C51.028 32.1988 52.4025 34.4277 53.0486 35.5196H31.5358C31.6167 34.2222 31.6951 33.025 31.7638 32.0169C31.7644 32.008 31.7647 31.9991 31.7647 31.9902C31.7647 31.7199 31.5694 31.5642 31.4517 31.494C31.3221 31.4167 31.1601 31.3635 30.9947 31.323C30.6576 31.2405 30.1908 31.1845 29.6408 31.1468C28.5342 31.0708 27.0128 31.0638 25.3351 31.0981C21.976 31.167 17.9489 31.4028 15.2655 31.5991C15.0511 31.6148 14.8893 31.8001 14.9027 32.0147L15.0782 34.823ZM31.4874 36.3039C31.3616 38.3609 31.2334 40.6134 31.1292 42.7356C31.1797 42.7304 31.2331 42.7253 31.2891 42.7204C31.6172 42.6916 32.0545 42.6661 32.5819 42.6432C33.6377 42.5974 35.0715 42.5615 36.7513 42.5315C39.4785 42.4828 42.863 42.4495 46.3476 42.4152C47.1561 42.4073 47.9701 42.3993 48.7824 42.391C53.0976 42.3472 57.3682 42.296 60.5594 42.2069C62.156 42.1623 63.4768 42.1084 64.3962 42.0415C64.8578 42.008 65.2078 41.9719 65.438 41.934C65.459 41.9305 65.4785 41.9271 65.4964 41.9238C65.5049 41.681 65.5213 41.3261 65.5406 40.908C65.5723 40.2201 65.612 39.3609 65.6375 38.5466C65.6619 37.7636 65.6738 37.0143 65.6558 36.4638C65.6505 36.301 65.6427 36.1608 65.6327 36.0453C65.6078 36.0573 65.5817 36.07 65.5545 36.0834C65.286 36.2155 64.9196 36.4057 64.4855 36.6364C63.6179 37.0974 62.4928 37.7125 61.3646 38.3292L61.3622 38.3305C60.2363 38.9461 59.1075 39.5632 58.2355 40.0265C57.7996 40.2581 57.4244 40.4531 57.1446 40.5907C57.0052 40.6592 56.8848 40.7159 56.7902 40.7561C56.7434 40.7761 56.6974 40.7944 56.6556 40.8084L56.6545 40.8088C56.6275 40.8178 56.5528 40.8428 56.4706 40.8428C56.3137 40.8428 56.1998 40.7594 56.1586 40.7279C56.1011 40.684 56.0482 40.6304 56.0023 40.579C55.9091 40.4747 55.8048 40.3344 55.6962 40.1761C55.477 39.8564 55.2113 39.4208 54.9354 38.9455C54.4314 38.0775 53.8795 37.0537 53.4875 36.3039H31.4874ZM49.15 29.1771C48.3913 27.9581 47.6692 26.8025 47.1187 25.9239C47.0216 25.769 47.0444 25.5677 47.1737 25.4384C47.2365 25.3756 47.3385 25.3019 47.4383 25.2333C47.5483 25.1577 47.6895 25.0657 47.8536 24.9618C47.9199 24.9198 47.9904 24.8755 48.0647 24.8293C47.2988 24.7849 46.2249 24.7396 44.9155 24.6946C42.6447 24.6167 39.7007 24.5408 36.5173 24.4705C30.3317 24.334 23.2464 24.2191 18.4487 24.1527C18.2945 24.5281 18.1068 24.8875 17.9042 25.2225C17.2857 26.2454 16.4933 27.0992 15.9445 27.5795C15.8528 27.6597 15.7289 27.6928 15.6094 27.6689C14.7345 27.4939 13.7381 26.8921 12.8786 26.2565C12.0766 25.6635 11.3489 25.0068 10.8796 24.5392H9.08458C9.09397 24.625 9.10281 24.717 9.11124 24.814C9.1402 25.1471 9.1662 25.5653 9.18963 26.049C9.23204 26.9245 9.26643 28.0238 9.29414 29.2401C15.5929 29.1583 24.9783 29.0622 33.1616 29.0338C37.3381 29.0193 41.2029 29.0224 44.1849 29.054C46.3805 29.0773 48.1205 29.116 49.15 29.1771ZM17.8896 23.3923C17.7491 23.4504 17.6493 23.5879 17.6471 23.7496C17.6462 23.8159 17.6618 23.8786 17.6901 23.9337C17.5619 24.2336 17.4067 24.5296 17.233 24.8167C16.7166 25.6709 16.0643 26.4014 15.5767 26.8549C14.9157 26.6709 14.1171 26.1969 13.3449 25.6259C12.511 25.0093 11.758 24.3176 11.3235 23.873C11.0217 23.5641 10.6586 23.0352 10.519 22.4713C10.3851 21.9302 10.4568 21.3799 10.9792 20.9089C11.5646 20.3811 12.009 20.1492 12.3375 20.0808C12.6424 20.0172 12.8697 20.0889 13.0703 20.248C13.2883 20.421 13.4849 20.7078 13.6668 21.0855C13.8468 21.4591 13.9958 21.8855 14.1379 22.3106C14.1955 22.483 14.3641 22.5933 14.5452 22.5769C14.7263 22.5604 14.8723 22.4217 14.898 22.2418C15.0909 20.8919 15.3976 20.086 15.7143 19.6551C15.8693 19.4442 16.0152 19.3385 16.1368 19.2901C16.2542 19.2434 16.3751 19.2394 16.507 19.2782C16.7906 19.3616 17.1285 19.6481 17.4307 20.1328C17.7256 20.6058 17.9526 21.2154 18.0432 21.8496C18.1147 22.3503 18.0492 22.8727 17.8896 23.3923ZM51.4447 48.1317C50.5444 48.151 49.3878 48.167 48.3617 48.1628C48.04 48.1614 47.7299 48.1581 47.4439 48.1522C48.6543 48.9861 50.0517 50.0715 51.3285 51.1191C51.2999 50.3724 51.3002 49.7427 51.3266 49.2198C51.3479 48.7982 51.3866 48.4356 51.4447 48.1317ZM56.3958 40.0678C56.3958 40.0678 56.3987 40.0669 56.4023 40.066C56.3968 40.0678 56.3958 40.0678 56.3958 40.0678ZM55.7974 25.3486C55.1931 25.7408 54.4874 26.1919 53.8451 26.5886C53.3806 26.8755 52.9454 27.1365 52.6045 27.3266C52.4348 27.4213 52.2829 27.5015 52.1598 27.5591C52.1565 27.5606 52.1531 27.5622 52.1498 27.5637C52.152 27.5699 52.1544 27.5762 52.1568 27.5826C52.2455 27.8213 52.4073 28.1584 52.6009 28.5214C52.7928 28.8811 53.0088 29.2531 53.1998 29.5575C53.3705 29.8295 53.5039 30.0193 53.5776 30.1075C53.6015 30.1081 53.6382 30.1065 53.69 30.0987C53.8363 30.0768 54.0338 30.0176 54.2633 29.9285C54.6371 29.7835 55.0456 29.5792 55.3603 29.4056C55.3944 28.3679 55.5667 26.9026 55.7974 25.3486ZM52.0943 27.3715C52.094 27.3673 52.0944 27.3683 52.0945 27.3735L52.0943 27.3715ZM57.0562 36.3118C57.0562 36.3118 57.0586 36.3111 57.061 36.3105C57.0563 36.312 57.0562 36.3118 57.0562 36.3118ZM59.0375 30.7535L59.0391 30.7529L59.0375 30.7535ZM16.2782 68.7836C16.3944 68.1008 16.4616 67.3014 16.424 66.4745C16.3213 64.2139 15.4525 61.8706 12.8169 60.9896C12.4256 60.8588 12.1407 60.8079 11.942 60.8072C11.7443 60.8066 11.6737 60.8548 11.6509 60.8767C11.6293 60.8974 11.5898 60.9526 11.5865 61.1049C11.5832 61.2596 11.6193 61.473 11.7068 61.7473C12.0616 62.8598 13.1173 64.5535 14.3392 66.2491C14.9786 67.1363 15.6538 68.0111 16.2782 68.7836ZM62.4129 10.9555C62.5423 10.9981 62.6838 11.0502 62.8368 11.1116C63.3454 11.316 64.0261 11.6433 64.8967 12.1398C66.5936 13.1074 69.0266 14.7265 72.3343 17.3561L74.4601 15.3938C74.1533 14.3906 73.4782 13.4227 72.5931 12.5153C71.646 11.5444 70.4827 10.6674 69.3429 9.91562C68.2044 9.16468 67.1005 8.54585 66.274 8.0867C66.2316 8.06313 66.1898 8.03993 66.1487 8.01711C65.793 7.81961 65.4891 7.65093 65.269 7.51855C65.2288 7.49438 65.19 7.4706 65.1531 7.44735C64.3717 8.41567 63.3289 9.73635 62.4129 10.9555ZM71.751 17.8945C68.5143 15.3272 66.1452 13.7547 64.5082 12.8211C63.6597 12.3372 63.0116 12.0272 62.5443 11.8394C62.2542 11.7228 62.0481 11.6593 61.9139 11.6272C61.4836 12.2136 61.1069 12.7487 60.831 13.1765C60.6779 13.4138 60.5604 13.6114 60.4824 13.7628C60.4533 13.8193 60.4317 13.8657 60.4163 13.9027C60.4336 13.922 60.4559 13.9453 60.484 13.9727C60.6022 14.0878 60.7849 14.2387 61.0289 14.4214C62.6706 15.6506 66.5701 17.9444 69.213 19.4424C69.3979 19.5472 69.5764 19.6479 69.7473 19.7441L71.751 17.8945ZM60.3669 13.8392C60.3669 13.8392 60.3687 13.8416 60.3708 13.8459C60.3678 13.8413 60.3669 13.8392 60.3669 13.8392ZM73.2919 25.5403C73.3888 25.734 73.3103 25.9696 73.1166 26.0665C73.0076 26.121 72.8478 26.2379 72.6479 26.4164C72.5437 26.5094 72.4343 26.6139 72.3223 26.7261C72.4723 26.8686 72.6186 27.0147 72.752 27.1599C72.9682 27.3952 73.1692 27.6478 73.2919 27.8933C73.3888 28.087 73.3103 28.3225 73.1166 28.4194C72.9228 28.5163 72.6873 28.4377 72.5904 28.244C72.5171 28.0973 72.3749 27.9087 72.1745 27.6906C72.0563 27.562 71.9242 27.4298 71.7852 27.2977C71.4487 27.6743 71.1396 28.0512 70.9381 28.3097C70.8049 28.4805 70.5585 28.5111 70.3877 28.378C70.2169 28.2448 70.1863 27.9984 70.3195 27.8276C70.5303 27.5571 70.8516 27.1652 71.2029 26.7723C71.0787 26.6646 70.9582 26.5618 70.846 26.4661L70.8117 26.4369C70.609 26.264 70.4227 26.1048 70.3109 25.993C70.1578 25.8399 70.1578 25.5916 70.3109 25.4384C70.4641 25.2853 70.7124 25.2853 70.8655 25.4384C70.9498 25.5227 71.1067 25.6576 71.3207 25.8401L71.3558 25.8701C71.4739 25.9708 71.6042 26.0819 71.7396 26.1997C71.8698 26.0684 71.9997 25.9436 72.1256 25.8312C72.3386 25.6412 72.5611 25.4673 72.7658 25.365C72.9595 25.2681 73.1951 25.3466 73.2919 25.5403ZM26.2644 37.9698C25.8224 38.1787 25.2635 38.2004 24.8207 37.7577C24.5476 37.4845 24.3755 37.1985 24.3067 36.9025C24.2371 36.6026 24.2811 36.3247 24.3865 36.0865C24.5881 35.6306 25.0107 35.3209 25.3148 35.1689C25.3546 35.149 25.3974 35.136 25.4416 35.1305C26.2598 35.0282 26.8904 35.1562 27.2263 35.5837C27.5677 36.0182 27.4613 36.572 27.2625 36.9695C27.0566 37.3815 26.6901 37.7685 26.2644 37.9698ZM25.6086 35.9006C26.3049 35.8254 26.5432 35.9838 26.6095 36.0683C26.6725 36.1485 26.7054 36.33 26.561 36.6188C26.4238 36.8931 26.1775 37.1433 25.9292 37.2607C25.6972 37.3703 25.5208 37.3486 25.3753 37.2031C25.1779 37.0057 25.0984 36.8441 25.0707 36.725C25.044 36.6099 25.0588 36.5054 25.1037 36.4037C25.1942 36.1991 25.4059 36.0144 25.6086 35.9006ZM5.36157 41.8965C5.64422 42.5611 5.99685 43.357 6.3931 44.2065C7.0917 45.7043 7.92259 47.3618 8.74183 48.7583C9.15156 49.4567 9.55512 50.0842 9.93478 50.5916C10.216 50.9675 10.4744 51.2642 10.7033 51.4742C10.9379 51.2646 11.1552 51.0761 11.3445 50.92C11.4509 50.8323 11.5543 50.7499 11.6508 50.6779C11.5749 50.5258 11.4962 50.3675 11.4149 50.2038C10.0768 47.5079 8.04759 43.3279 7.33788 41.5472C7.27773 41.3962 7.22572 41.2593 7.18382 41.1396C6.6513 41.3469 6.01992 41.6061 5.36157 41.8965ZM10.1215 52.0039C9.85293 51.7492 9.57937 51.4258 9.30678 51.0615C8.90342 50.5223 8.4835 49.8679 8.06534 49.1551C7.28539 47.8257 6.50023 46.2737 5.82699 44.8465L5.60458 44.9143C5.39742 44.9775 5.17827 44.8608 5.11509 44.6536C5.05192 44.4465 5.16864 44.2273 5.37581 44.1641L5.49269 44.1285C5.17259 43.4319 4.88556 42.7808 4.64673 42.2197C3.79448 42.615 2.94648 43.0459 2.24806 43.4693C1.84862 43.7115 1.50576 43.9465 1.24142 44.1665C1.04174 44.3326 0.902943 44.4771 0.816315 44.5963C0.985165 45.1719 1.24809 45.915 1.60679 46.7497C1.62106 46.7411 1.63548 46.7326 1.65002 46.7243C1.83016 46.6208 2.08913 46.5 2.35294 46.5C2.56952 46.5 2.7451 46.6756 2.7451 46.8922C2.7451 47.1088 2.56952 47.2843 2.35294 47.2843C2.30302 47.2843 2.19359 47.3166 2.04066 47.4044C2.00298 47.426 1.96624 47.449 1.93132 47.4721C3.06058 49.8811 4.88554 52.7621 7.40887 54.6158C7.78718 54.2399 8.24955 53.7858 8.73393 53.3182C9.19342 52.8746 9.67373 52.4179 10.1215 52.0039ZM4.64002 45.106C4.76016 45.2862 4.71146 45.5297 4.53126 45.6498L3.35478 46.4342C3.17458 46.5543 2.9311 46.5056 2.81096 46.3254C2.69082 46.1452 2.73952 45.9017 2.91973 45.7816L4.0962 44.9973C4.2764 44.8771 4.51988 44.9258 4.64002 45.106ZM31.6233 52.4968C31.9311 52.4911 32.2041 52.6593 32.4342 52.8894C32.9247 53.38 33.0516 53.9551 32.946 54.5141C32.8451 55.0476 32.5376 55.549 32.1969 55.9644C32.0028 56.2011 31.7896 56.4198 31.5794 56.6121C31.7388 56.9414 31.9252 57.0998 32.0969 57.1353C32.2083 57.1584 32.2856 57.1381 32.3576 57.0925C32.4422 57.0389 32.5352 56.9387 32.6335 56.7777C32.7888 56.5235 32.9063 56.2115 33.0284 55.8871C33.0671 55.7843 33.1063 55.6803 33.1472 55.5766C33.2251 55.3794 33.316 55.1682 33.4284 55.0066C33.5323 54.8573 33.7428 54.6273 34.0739 54.6649C34.3595 54.6973 34.5669 54.9202 34.7164 55.1288C34.8824 55.3603 35.0606 55.6952 35.2603 56.1447C35.3292 56.2997 35.3907 56.4291 35.4452 56.5363C35.4618 56.3969 35.4765 56.2406 35.4918 56.0724L35.4977 56.0075C35.5201 55.7594 35.5443 55.4924 35.5781 55.2471C35.6141 54.9862 35.665 54.7152 35.752 54.5016C35.8259 54.3202 36.0081 53.9875 36.3974 53.9924C36.5691 53.9946 36.7159 54.0681 36.8306 54.1518C36.947 54.2367 37.059 54.3529 37.169 54.4903C37.779 55.2529 37.6998 56.037 37.534 56.5809C37.8132 56.435 38.1837 56.2349 38.6727 55.9707C38.8967 55.8497 39.1456 55.7153 39.4219 55.5665C39.6126 55.4638 39.8504 55.5352 39.9531 55.7259C40.0558 55.9166 39.9845 56.1544 39.7938 56.2571C39.5279 56.4002 39.2857 56.5311 39.0653 56.6501C38.239 57.0965 37.7193 57.3773 37.4124 57.5182C37.3137 57.5635 37.2219 57.6015 37.1408 57.6259C37.1001 57.6381 37.0519 57.65 37.0005 57.6555C36.9522 57.6607 36.8752 57.6633 36.7904 57.6355C36.6934 57.6037 36.6007 57.5362 36.5431 57.4304C36.4921 57.3367 36.487 57.2464 36.4889 57.1926C36.4925 57.0934 36.5258 57.0007 36.5446 56.9506C36.5688 56.8859 36.5976 56.8173 36.6279 56.7451C36.8264 56.2718 37.089 55.6459 36.5565 54.9803C36.5178 54.9319 36.4839 54.8935 36.4547 54.8632C36.4169 54.9805 36.3838 55.1458 36.3551 55.3541C36.3239 55.5804 36.3014 55.8293 36.2785 56.0816L36.2729 56.1434C36.2487 56.4097 36.223 56.6828 36.1847 56.9075C36.1655 57.02 36.1413 57.1325 36.1081 57.2326C36.0781 57.3229 36.0264 57.4498 35.9268 57.5494C35.8721 57.6041 35.7951 57.6584 35.6939 57.6848C35.5905 57.7118 35.4906 57.7021 35.4051 57.6732C35.2524 57.6214 35.142 57.5078 35.0682 57.4171C34.9115 57.2247 34.7408 56.9069 34.5436 56.4632C34.3512 56.0303 34.1985 55.7525 34.079 55.5858C34.0611 55.5608 34.0449 55.5398 34.0306 55.5222C33.9859 55.6024 33.9357 55.7153 33.8768 55.8646C33.8468 55.9403 33.8151 56.0249 33.7813 56.1149C33.6556 56.4501 33.501 56.8621 33.3028 57.1866C33.1732 57.3987 33.0043 57.6112 32.7773 57.7551C32.5377 57.9069 32.2536 57.9686 31.9381 57.9034C31.4919 57.8111 31.1772 57.4947 30.9596 57.1157C30.8435 57.1984 30.7349 57.2688 30.6392 57.3239C30.5724 57.3624 30.506 57.3968 30.4442 57.4229C30.3971 57.4427 30.302 57.4804 30.1961 57.4804C29.9795 57.4804 29.8039 57.3048 29.8039 57.0883C29.8039 56.8909 29.9498 56.7275 30.1395 56.7001C30.1614 56.691 30.1975 56.6732 30.2476 56.6443C30.3468 56.5872 30.4793 56.499 30.6309 56.3839C30.6389 56.3778 30.6469 56.3716 30.655 56.3654C30.5002 55.8121 30.4424 55.1807 30.4666 54.6058C30.4936 53.9666 30.6254 53.31 30.9144 52.9069C31.0663 52.695 31.3009 52.5027 31.6233 52.4968ZM31.323 55.7673C31.4153 55.6714 31.5053 55.5709 31.5905 55.467C31.8931 55.0981 32.1093 54.7172 32.1753 54.3683C32.2365 54.0449 32.1733 53.7377 31.8796 53.444C31.7175 53.2819 31.6376 53.2809 31.6376 53.2809L31.636 53.2812L31.6338 53.282C31.6321 53.2828 31.6293 53.2842 31.6254 53.2867C31.6115 53.2954 31.5854 53.317 31.5519 53.3638C31.4008 53.5746 31.2756 54.038 31.2502 54.6388C31.2345 55.0122 31.2588 55.4046 31.323 55.7673ZM19.0422 61.3729C18.8399 62.9126 19.0862 64.9318 19.3175 66.3558C19.3635 66.6386 19.4084 66.8958 19.4486 67.119C19.6677 66.8211 19.8923 66.5012 20.1146 66.1666C21.0357 64.7808 21.8905 63.184 22.1785 61.864C22.3226 61.2039 22.3138 60.6617 22.1487 60.2593C21.9932 59.8805 21.6778 59.5733 21.0734 59.4086C20.3661 59.2159 19.9484 59.3748 19.6673 59.6758C19.3522 60.0131 19.1442 60.5965 19.0422 61.3729ZM20.4113 69.5452C21.5365 69.7084 22.8261 69.8305 23.8693 69.7957C24.5921 69.7715 25.1264 69.673 25.4145 69.5124C25.5491 69.4374 25.5872 69.3727 25.599 69.335C25.6105 69.2979 25.6212 69.2076 25.5316 69.0283C25.366 68.6971 25.072 68.5067 24.6355 68.4328C24.185 68.3565 23.6125 68.4126 22.9756 68.5685C22.1134 68.7796 21.1936 69.1581 20.4113 69.5452ZM24.7665 67.6595C25.3822 67.7638 25.9282 68.0677 26.2331 68.6776C26.3788 68.9689 26.4393 69.2747 26.3477 69.5684C26.2563 69.8617 26.0383 70.0626 25.7963 70.1975C25.3311 70.4568 24.6301 70.555 23.8954 70.5795C22.3962 70.6296 20.4619 70.3763 19.1439 70.1309C18.9832 70.1009 18.8579 69.9745 18.8295 69.8136C18.8011 69.6526 18.8754 69.4909 19.0161 69.4077C19.9499 68.8558 21.4181 68.1423 22.7891 67.8067C23.4725 67.6394 24.1646 67.5576 24.7665 67.6595Z"
        fill="currentColor"/>
</svg>
