<svg width="80" height="80" viewBox="0 0 80 80" fill="none" xmlns="http://www.w3.org/2000/svg">
  <path fill-rule="evenodd" clip-rule="evenodd"
        d="M50.0561 3.0061C50.5025 2.97773 50.9298 3.04939 51.2287 3.19886C51.6666 3.41778 51.9569 3.76455 52.1129 4.15632C54.2893 3.7276 58.1212 3.82709 60.6614 7.8323C64.2188 7.53304 72.1456 6.81282 77.4697 6.1473C77.5893 6.13234 77.7097 6.16863 77.8011 6.2472C77.8925 6.32578 77.9465 6.43933 77.9497 6.55984C77.9815 7.75749 78.0351 9.58762 78.0925 11.1854C78.1213 11.9845 78.1509 12.7241 78.1792 13.2969C78.1992 13.7012 78.2178 14.0049 78.2333 14.189C78.6425 14.4737 78.9778 14.8625 79.1969 15.3736C79.5621 16.2257 79.5412 17.0366 79.2624 17.7543C79.066 18.2598 78.7465 18.7075 78.3639 19.0903C78.3597 19.126 78.3544 19.1756 78.3485 19.239C78.3344 19.3914 78.3171 19.6238 78.3056 19.9363C78.2824 20.5612 78.2821 21.5066 78.3759 22.7724C79.059 31.9944 78.9498 36.3392 78.7999 37.3884L78.7975 37.388C78.7898 37.4442 78.7773 37.4982 78.7631 37.5309C78.7 37.6483 78.6014 37.6987 78.5857 37.7067L78.5843 37.7074C78.554 37.7232 78.5284 37.7318 78.5176 37.7353C78.494 37.7429 78.4749 37.7468 78.4688 37.748C78.4383 37.754 78.4022 37.757 78.3917 37.7578L78.3897 37.758C78.3494 37.7614 78.2797 37.7663 78.1763 37.7729C77.9677 37.7864 77.6094 37.8078 77.045 37.8399C75.9156 37.904 73.9571 38.0108 70.7103 38.1817C64.204 38.5242 50.3235 38.6095 44.2028 38.6095C43.9887 38.6095 43.8077 38.451 43.7794 38.2388C43.4938 36.0969 42.8376 30.5338 42.4951 25.3954C42.1538 20.2755 41.4992 13.0183 41.2145 10.0291C41.1933 9.80581 41.3483 9.6041 41.5696 9.56723L43.6483 9.22077C43.9948 8.55293 44.6404 8.10741 45.2999 7.80108C45.7312 7.60076 46.1944 7.44799 46.6357 7.32789L44.3737 5.63138C44.185 5.48983 44.1467 5.22207 44.2883 5.03333C44.4298 4.8446 44.6976 4.80635 44.8863 4.9479L47.1527 6.64771C47.1797 5.01634 47.7881 4.01429 48.6156 3.4764C49.0869 3.17003 49.6009 3.03503 50.0561 3.0061ZM47.5199 7.99106L47.7911 8.19445C47.9799 8.336 48.2476 8.29775 48.3892 8.10901C48.5307 7.92028 48.4925 7.65252 48.3038 7.51097L48.0284 7.30446C47.8813 5.4561 48.4734 4.5878 49.0812 4.19273C49.4108 3.97848 49.7779 3.87986 50.1103 3.85874C50.4515 3.83705 50.7184 3.89888 50.8466 3.96301C51.1663 4.12283 51.3393 4.40191 51.3852 4.72218C51.4833 5.40628 51.0098 6.144 50.1833 6.144C49.9648 6.144 49.7816 6.30888 49.7585 6.52617C49.7355 6.74346 49.8802 6.94309 50.0938 6.98887C50.963 7.17512 52.0617 7.95378 52.8484 8.87728C53.2369 9.33337 53.5235 9.79551 53.6651 10.1973C53.8097 10.6078 53.7782 10.8746 53.6725 11.0332C53.2697 11.6373 52.8519 11.9107 52.463 12.0072C52.0682 12.1053 51.6372 12.0374 51.1831 11.8331C50.2595 11.4176 49.3716 10.4956 48.8201 9.73734C48.7113 9.5877 48.5185 9.52514 48.3425 9.58236C48.1666 9.63957 48.0474 9.80357 48.0474 9.98859C48.0474 10.4455 47.6673 11.0028 47.0222 11.437C46.3847 11.8659 45.6529 12.0605 45.1535 11.945C44.8996 11.8863 44.707 11.7504 44.5849 11.5063C44.1891 10.7146 44.1875 10.1589 44.3418 9.75824C44.5309 9.26739 45.0033 8.88087 45.6598 8.57594C46.246 8.30368 46.9197 8.12384 47.5199 7.99106ZM43.397 10.1288L42.1026 10.3445C42.4041 13.5423 43.0197 20.4205 43.3475 25.3386C43.6702 30.1787 44.2732 35.4036 44.5776 37.755C50.8766 37.7516 64.3145 37.6628 70.6654 37.3285C73.9118 37.1577 75.869 37.0509 76.9965 36.9869C77.4549 36.9609 77.7756 36.9419 77.9898 36.9287C78.104 35.5124 78.1458 31.2322 77.5239 22.8355C77.4278 21.5382 77.4275 20.5613 77.4518 19.9047C77.4529 19.875 77.454 19.8459 77.4552 19.8175C76.9699 20.1302 76.4446 20.3702 75.9373 20.5258C75.7014 20.5982 75.4631 20.6542 75.2297 20.6898C75.3455 20.8277 75.4557 20.9722 75.5576 21.1228C75.9319 21.6759 76.208 22.3323 76.2088 23.0504C76.2095 23.7349 75.9598 24.4304 75.3886 25.0998C75.4012 26.2459 75.4055 27.1461 75.349 27.885C75.2893 28.665 75.1604 29.2944 74.886 29.8737C74.6116 30.453 74.2063 30.9514 73.6405 31.4917C73.0792 32.0278 72.3386 32.6244 71.3819 33.3897C70.3411 34.2224 68.7384 34.8122 66.9556 35.0895C65.1644 35.3682 63.1463 35.3386 61.2457 34.8924C59.3458 34.4463 57.5403 33.578 56.2064 32.1594C54.8653 30.7331 54.0279 28.7787 54.0279 26.2213C54.0279 24.4136 54.2843 22.8531 54.7295 21.5127C50.8452 21.3814 48.2978 19.9319 46.7296 18.0975C45.2083 16.3182 44.6326 14.2046 44.6237 12.6647C44.2915 12.5158 44.0078 12.2625 43.8208 11.8883C43.4979 11.2426 43.3629 10.6562 43.397 10.1288ZM45.4817 12.8323C45.53 14.1692 46.0546 15.9933 47.3789 17.5424C48.8128 19.2195 51.2114 20.6056 55.0474 20.666C55.7149 19.0808 56.6645 17.8425 57.757 16.8954C57.6808 16.7568 57.6318 16.6035 57.5976 16.4714C57.486 16.0411 57.4488 15.4884 57.4454 15.1187C57.4432 14.8828 57.6327 14.6897 57.8686 14.6876C58.1045 14.6854 58.2975 14.8748 58.2997 15.1108C58.3029 15.453 58.3386 15.9255 58.4246 16.257C58.433 16.2894 58.4415 16.3191 58.4501 16.346C59.2404 15.7748 60.0881 15.3401 60.9403 15.0195C61.3074 13.7211 61.5023 10.888 60.0693 8.49966C57.7788 4.68219 54.2602 4.59313 52.2482 5.00023C52.2164 5.60237 51.9293 6.21523 51.4187 6.60055C52.1859 7.02149 52.9313 7.65708 53.4988 8.32326C53.929 8.82831 54.2832 9.38072 54.4709 9.91337C54.5924 10.2581 54.6552 10.6304 54.5925 10.9821C54.7839 11.0686 54.9903 11.2012 55.1843 11.3952C55.3512 11.5621 55.3512 11.8325 55.1843 11.9994C55.0175 12.1662 54.7471 12.1662 54.5802 11.9994C54.4518 11.8709 54.3215 11.794 54.2154 11.7496L54.2114 11.7479C53.7583 12.3396 53.2375 12.6953 52.6689 12.8364C52.0328 12.9943 51.4009 12.8679 50.8326 12.6123C50.0022 12.2387 49.2413 11.5604 48.6637 10.9054C48.4047 11.4029 47.9649 11.8324 47.4991 12.1458C46.9097 12.5424 46.1715 12.8274 45.4817 12.8323ZM61.8899 14.7082C62.4544 14.5493 63.0121 14.4373 63.5475 14.3656C64.7804 14.2006 65.9341 14.2447 66.7993 14.4482C66.798 14.4409 66.7968 14.4336 66.7956 14.4264C66.7253 14.0025 66.7324 13.5466 66.9116 13.1313C67.0964 12.7028 67.4449 12.3635 67.9661 12.155C69.0076 11.7384 70.0031 12.0934 70.7624 12.6223C71.2082 12.9329 71.5978 13.319 71.9065 13.6949C72.1217 12.9303 72.2995 12.0954 72.3993 11.2216C72.4261 10.9872 72.6378 10.8189 72.8722 10.8457C73.1066 10.8725 73.2749 11.0842 73.2482 11.3186C73.1397 12.2674 72.9452 13.1691 72.7113 13.9885C73.3581 13.7995 74.1107 13.6358 74.8719 13.5633C75.6992 13.4845 76.5779 13.5093 77.348 13.7584C77.3406 13.6289 77.3332 13.4882 77.3259 13.339C77.2973 12.7606 77.2675 12.0166 77.2387 11.2161C77.1883 9.81199 77.1408 8.22976 77.1084 7.0528C71.9732 7.68041 64.7364 8.34303 61.1237 8.65058C62.206 10.8465 62.1752 13.2376 61.8899 14.7082ZM71.701 14.8578C71.7041 14.8687 71.7075 14.8793 71.7113 14.8898C71.7393 14.9185 71.7732 14.9449 71.8088 14.9683C71.7807 14.9306 71.7554 14.8863 71.7341 14.839L71.701 14.8578ZM71.5885 14.705C71.1381 15.998 70.6271 16.9803 70.3281 17.4475C70.2009 17.6462 70.2589 17.9104 70.4576 18.0376C70.6563 18.1648 70.9205 18.1068 71.0477 17.9081C71.387 17.3779 71.9257 16.3343 72.3952 14.9864C73.095 14.7415 74.0226 14.5024 74.9529 14.4138C75.9823 14.3158 76.9436 14.4089 77.614 14.806C77.9623 15.0122 78.237 15.3029 78.4116 15.7102C78.6872 16.3532 78.6652 16.9321 78.466 17.4448C78.2625 17.9686 77.8641 18.4459 77.3559 18.8419C76.8489 19.2369 76.2524 19.5354 75.6867 19.709C75.1617 19.8701 74.7028 19.9117 74.3823 19.8569C74.3321 19.8155 74.2819 19.7755 74.232 19.7367C73.7719 19.3791 73.3108 19.1129 72.9737 18.9865C72.7528 18.9037 72.5066 19.0156 72.4238 19.2365C72.3409 19.4574 72.4529 19.7036 72.6738 19.7865C72.9062 19.8736 73.2919 20.0881 73.7078 20.4113C73.7742 20.4629 73.8408 20.5169 73.9071 20.5729C73.9115 20.5768 73.9159 20.5806 73.9205 20.5843C74.2608 20.874 74.5918 21.22 74.85 21.6016C75.1622 22.063 75.3539 22.5547 75.3544 23.0513C75.3549 23.5174 75.1874 24.0332 74.709 24.5796C74.0998 24.8165 73.5771 24.9278 72.9115 24.9645C71.9449 25.0178 70.9786 24.8102 70.2552 24.1464C69.5357 23.4862 68.9791 22.3037 68.9791 20.2408C68.9791 20.0488 68.851 19.8804 68.666 19.8292C68.4809 19.7779 68.2845 19.8564 68.1857 20.0211C67.7837 20.691 67.0152 21.5455 66.1825 21.8948C65.7782 22.0644 65.3832 22.1056 65.0064 21.9795C64.6276 21.8526 64.205 21.5359 63.7881 20.8688C63.3126 20.108 63.2929 19.4996 63.4782 19.0106C63.6726 18.4975 64.1213 18.0406 64.7202 17.6662C65.3142 17.295 66.016 17.0307 66.6453 16.886C66.959 16.8138 67.247 16.7732 67.4871 16.7621C67.7352 16.7506 67.9017 16.7722 67.9897 16.8015C68.1652 16.86 68.3585 16.7989 68.4684 16.65C68.5783 16.5012 68.5799 16.2985 68.4724 16.148C68.2492 15.8355 68.0033 15.4095 67.8311 14.9648C67.83 14.9621 67.829 14.9593 67.8279 14.9566C67.7421 14.7338 67.6749 14.5065 67.6385 14.2866C67.5842 13.9593 67.6038 13.6837 67.696 13.4698C67.7826 13.2691 67.9503 13.0815 68.2834 12.9483C68.9506 12.6814 69.6367 12.8794 70.2741 13.3234C70.8395 13.7173 71.3088 14.2691 71.5885 14.705ZM67.0993 15.4333C66.4196 15.1559 65.1574 15.0121 63.6609 15.2125C62.0727 15.425 60.2924 16.0167 58.7815 17.1637C56.622 18.8029 54.8823 21.613 54.8823 26.2213C54.8823 28.5765 55.6468 30.3171 56.8288 31.5741C58.0179 32.8387 59.6565 33.6417 61.441 34.0607C63.2248 34.4795 65.1314 34.5087 66.8243 34.2453C68.5257 33.9807 69.9666 33.4278 70.8482 32.7226C71.8137 31.9501 72.5219 31.3787 73.0505 30.8738C73.5747 30.3732 73.9007 29.9579 74.1139 29.5079C74.327 29.058 74.4418 28.5426 74.4971 27.8199C74.5434 27.2142 74.5468 26.4834 74.5387 25.5441C74.1944 25.6508 73.8577 25.7236 73.4976 25.7694C73.5913 26.1363 73.6781 26.6108 73.6781 27.0757C73.6781 27.3116 73.4868 27.5029 73.2509 27.5029C73.015 27.5029 72.8237 27.3116 72.8237 27.0757C72.8237 26.6274 72.7205 26.1489 72.6281 25.8268C71.6137 25.8267 70.5339 25.5616 69.6776 24.7759C68.907 24.0689 68.3682 22.987 68.1895 21.4324C67.7325 21.9351 67.1546 22.4135 66.513 22.6827C65.9689 22.9109 65.3558 22.9974 64.7351 22.7896C64.1164 22.5824 63.5523 22.1035 63.0636 21.3216C62.4712 20.3737 62.384 19.4869 62.6793 18.7078C62.9655 17.9527 63.5848 17.3684 64.2674 16.9418C64.9549 16.5121 65.7482 16.2156 66.4538 16.0534C66.7618 15.9825 67.059 15.9359 67.3291 15.9158C67.2481 15.7627 67.1702 15.6008 67.0993 15.4333ZM16.3654 6.46293C16.1067 6.17751 15.7631 6.00505 15.2584 6.13123C14.7472 6.25903 14.4859 6.59106 14.3538 6.99289C14.2152 7.41456 14.2313 7.89213 14.2921 8.1961C14.3344 8.40735 14.2127 8.617 14.0083 8.68513C13.537 8.84225 13.2905 9.0183 13.1681 9.1637C13.0571 9.29563 13.0313 9.42076 13.0476 9.55114C13.0659 9.69766 13.1417 9.86909 13.271 10.049C13.3982 10.2259 13.56 10.3871 13.7129 10.5094C13.8546 10.6227 13.9092 10.8131 13.8492 10.9843C13.7891 11.1555 13.6275 11.2701 13.4461 11.2701C13.3527 11.2701 13.2737 11.2854 13.2079 11.3096C13.1865 11.3209 13.1653 11.3301 13.1448 11.3375C12.8997 11.4672 12.7167 11.8465 12.9738 12.3606C13.3584 13.1297 14.0832 13.629 14.9294 13.9294C15.5733 14.158 16.2621 14.2615 16.8616 14.284C16.8013 14.0493 16.7365 13.7913 16.6669 13.5079L16.6558 13.4625L14.9448 12.4965C14.7393 12.3805 14.6668 12.1199 14.7828 11.9145C14.8988 11.709 15.1593 11.6365 15.3648 11.7525L16.3806 12.326C16.2787 11.9002 16.1689 11.437 16.0507 10.9334C16.0206 10.9222 15.9918 10.9102 15.9649 10.8983C15.8083 10.8291 15.6284 10.7235 15.4545 10.6119C15.1021 10.3858 14.7132 10.0949 14.4624 9.89631C14.2774 9.74984 14.2462 9.48118 14.3927 9.29622C14.5392 9.11126 14.8078 9.08005 14.9928 9.22651C15.1998 9.39041 15.5025 9.61766 15.7885 9.80927C15.5998 8.99559 15.3927 8.09304 15.1654 7.09302C15.1131 6.86296 15.2572 6.63407 15.4873 6.58179C15.7173 6.5295 15.9462 6.67362 15.9985 6.90367C16.2181 7.86995 16.4189 8.74485 16.6022 9.53618C16.6898 9.37334 16.7914 9.17756 16.9086 8.94319C17.0141 8.73218 17.2707 8.64664 17.4817 8.75215C17.6927 8.85766 17.7782 9.11425 17.6727 9.32527C17.3292 10.0124 17.0982 10.4135 16.9438 10.635C16.9237 10.6639 16.9021 10.6939 16.8791 10.7237C17.0283 11.3594 17.1639 11.9304 17.2873 12.4426C17.3294 12.3946 17.3724 12.3463 17.4159 12.298C17.7194 11.9605 18.0534 11.6136 18.269 11.3964C18.4352 11.2289 18.7057 11.2279 18.8731 11.3941C19.0406 11.5603 19.0416 11.8308 18.8754 11.9982C18.667 12.2082 18.3431 12.5447 18.0511 12.8694C17.9049 13.0318 17.7696 13.1882 17.6617 13.3225C17.6117 13.3847 17.5715 13.4375 17.5402 13.4807C17.6115 13.7687 17.6773 14.0278 17.738 14.2608C17.777 14.2627 17.8157 14.2699 17.8529 14.2823C17.8839 14.2926 18.1203 14.3266 18.5118 14.0201C18.8958 13.7195 19.3929 13.1122 19.8883 11.9562C20.229 11.161 20.2382 10.7386 20.1776 10.5412C20.1362 10.4067 20.0489 10.3336 19.8607 10.3042C19.6515 10.2716 19.3789 10.3124 19.1345 10.3938C18.994 10.4407 18.8393 10.4114 18.7257 10.3166C18.612 10.2217 18.5556 10.0747 18.5765 9.92817C18.7374 8.80203 18.4859 8.29275 18.2469 8.06723C17.9974 7.83164 17.642 7.79089 17.3744 7.8444C17.1431 7.89067 16.918 7.74064 16.8718 7.50929C16.8107 7.204 16.6441 6.77028 16.3654 6.46293ZM17.0901 15.1431C16.764 15.142 16.407 15.1194 16.0374 15.0682C16.0888 15.4483 16.2014 15.8527 16.301 16.1484C16.6574 16.129 17.0157 16.1099 17.3753 16.0913C17.299 15.8654 17.2055 15.5592 17.0901 15.1431ZM18.2667 16.0461C18.2042 15.8854 18.111 15.6088 17.9775 15.1423C18.3019 15.1253 18.6715 14.9801 19.0384 14.6928C19.5729 14.2744 20.1437 13.529 20.6735 12.2927C20.9146 11.7303 21.0446 11.2487 21.0593 10.8429H22.3772C22.4288 10.8863 22.481 10.9298 22.5337 10.9735C20.4082 12.8108 19.8797 14.8047 19.9074 15.9688C19.3604 15.9933 18.8127 16.0191 18.2667 16.0461ZM27.0273 15.747C26.5163 15.754 25.9937 15.7638 25.4621 15.7759C25.5269 15.6454 25.6091 15.5167 25.7091 15.4168C25.8759 15.25 25.8759 14.9795 25.7091 14.8127C25.5423 14.6458 25.2718 14.6458 25.105 14.8127C24.8108 15.1069 24.6311 15.4968 24.5324 15.7993C23.3048 15.8329 22.038 15.8781 20.7613 15.9318C20.7463 15.0427 21.1515 13.2835 23.122 11.5945C23.1521 11.5686 23.1778 11.5395 23.1989 11.508C23.3031 11.5892 23.409 11.6706 23.5164 11.7519C23.3404 11.9001 23.1445 12.0742 22.9691 12.2496C22.8023 12.4164 22.8023 12.6869 22.9691 12.8537C23.1359 13.0205 23.4064 13.0205 23.5732 12.8537C23.7841 12.6428 24.0342 12.4291 24.2276 12.2726C24.8947 12.7448 25.608 13.2034 26.3434 13.6117C26.2174 13.7153 26.0855 13.8322 25.9593 13.9583C25.7925 14.1251 25.7925 14.3956 25.9593 14.5624C26.1262 14.7292 26.3966 14.7292 26.5635 14.5624C26.7747 14.3512 27.0089 14.1685 27.1787 14.0479C27.7024 14.3036 28.2379 14.5306 28.7757 14.7135C28.7775 14.8774 28.7806 15.0541 28.7837 15.2243C28.7857 15.3394 28.7877 15.4516 28.7892 15.555C28.7901 15.6184 28.7909 15.6784 28.7914 15.734C28.5368 15.7341 28.2782 15.7351 28.0159 15.7368M29.6337 14.9655C29.6349 15.0429 29.6363 15.1212 29.6377 15.199C29.6398 15.3163 29.6419 15.4325 29.6435 15.5425C29.6445 15.61 29.6453 15.6754 29.6458 15.737C31.5736 15.7519 33.2331 15.8226 34.4307 15.9724C34.6626 16.0013 34.8281 16.2112 34.8023 16.4434C34.7312 17.0834 34.6246 18.0647 34.5357 18.9283C34.445 19.8102 34.3778 20.5256 34.3778 20.668C34.3778 20.7829 34.3315 20.8929 34.2494 20.9733C34.1673 21.0537 34.0562 21.0976 33.9414 21.0951L33.0125 21.075L32.7395 22.2413C33.2739 22.4706 33.7422 22.6736 34.1218 22.8397C34.2291 22.8866 34.3124 22.9755 34.3522 23.0856C34.3921 23.1957 34.385 23.3174 34.3327 23.4221L33.4783 25.1308C33.3888 25.3099 33.1869 25.4027 32.9926 25.3542C32.707 25.2828 32.415 25.203 32.1182 25.116L29.6686 36.139C29.6228 36.3454 29.4329 36.4872 29.222 36.4725L29.2195 36.4724L29.0713 36.4619C28.9742 36.455 28.8338 36.445 28.66 36.4324C28.3124 36.4071 27.8311 36.3715 27.2962 36.3299C26.2284 36.2468 24.9405 36.1396 24.0783 36.0438C17.9546 35.3634 12.4558 35.4774 10.4863 35.6181C10.368 35.6266 10.2515 35.5855 10.1647 35.5047C10.0779 35.4238 10.0286 35.3106 10.0286 35.192L10.0286 35.191L10.0286 35.1886L10.0281 35.1782C10.0276 35.1691 10.0267 35.1572 10.0253 35.142C10.0226 35.1115 10.0184 35.072 10.0123 35.0231C10.0002 34.9252 9.982 34.7971 9.95792 34.6406C9.90982 34.3279 9.83979 33.9112 9.75257 33.4145C9.57822 32.4216 9.33661 31.1173 9.06803 29.7038C8.56053 27.033 7.9578 23.9782 7.53301 21.9101C7.21968 21.9207 6.9213 21.933 6.63492 21.9489C6.51769 21.9554 6.40295 21.9134 6.31766 21.8327C6.23237 21.752 6.18405 21.6398 6.18405 21.5224C6.18405 20.8292 6.09982 19.0076 5.76517 17.3344C5.74124 17.2147 5.76962 17.0905 5.84315 16.9932C5.91668 16.8958 6.02835 16.8345 6.14998 16.8248C7.01279 16.7557 7.99977 16.6809 9.07793 16.6039V16.3664C8.67061 16.3112 8.19731 16.1721 7.80103 15.8898C7.52074 15.6902 7.27346 15.4144 7.12726 15.045C6.98097 14.6754 6.94803 14.2428 7.0467 13.7494C7.21079 12.9289 7.62662 12.4165 8.16598 12.1565C8.28118 12.1009 8.39891 12.0584 8.51717 12.0268C8.31022 11.6404 8.19186 11.1137 8.25157 10.4314L4.296 10.555C4.51002 12.4479 4.72226 17.0882 4.2376 24.1148C3.97296 27.9516 3.95756 30.8737 4.04486 32.9641C4.12077 34.7821 4.27374 35.9535 4.40165 36.5483C4.52474 36.5696 4.69823 36.5945 4.93139 36.6221C5.42931 36.681 6.18194 36.7508 7.26077 36.8271C9.41759 36.9796 12.8646 37.1574 18.1588 37.3282C28.0244 37.6464 34.7079 37.9894 37.3121 38.1505C37.2811 37.7135 37.2706 37.1305 37.2729 36.4764C37.2764 35.4715 37.3111 34.2491 37.3639 33.0137C37.4691 30.552 37.6477 28.0018 37.8002 27.0107C38.3443 23.4737 38.2864 17.9018 38.2428 13.703C38.2341 12.8626 38.2259 12.0773 38.2233 11.3742C37.574 11.3931 36.5093 11.3908 35.5099 11.383C34.6414 11.3763 33.8113 11.3652 33.2959 11.3584C33.2637 11.3579 33.2328 11.3575 33.2031 11.3571C33.1621 12.6513 32.9166 13.9074 32.6517 14.8081C32.6061 14.963 32.4771 15.0789 32.3183 15.1078C31.4624 15.2635 30.5519 15.1906 29.6337 14.9655ZM33.1985 10.5027C33.2339 10.5031 33.2712 10.5036 33.3102 10.5042C33.8324 10.5111 34.6651 10.5221 35.5165 10.5287C36.8514 10.5391 38.2097 10.5382 38.6087 10.4999C38.7285 10.4883 38.8477 10.5279 38.9368 10.6089C39.0259 10.6899 39.0767 10.8047 39.0767 10.9251C39.0767 11.714 39.0864 12.6383 39.097 13.6485C39.1411 17.8454 39.2008 23.5253 38.6446 27.1406C38.5003 28.0784 38.3229 30.5832 38.2175 33.0502C38.165 34.2791 38.1307 35.4895 38.1272 36.4794C38.1237 37.488 38.153 38.2202 38.2141 38.5257C38.2401 38.6561 38.204 38.7912 38.1163 38.8912C38.0287 38.9911 37.8994 39.0446 37.7668 39.0357C35.6375 38.8938 28.7225 38.5237 18.1312 38.1821C12.8314 38.0111 9.37241 37.8329 7.2005 37.6793C6.11496 37.6025 5.34755 37.5317 4.83092 37.4705C4.57306 37.44 4.37329 37.4113 4.22561 37.3848C4.10043 37.3623 3.95695 37.3328 3.85712 37.2828C3.7496 37.2291 3.66971 37.1325 3.63705 37.0168C3.47281 36.4351 3.27958 35.115 3.19124 32.9997C3.10245 30.8733 3.11879 27.9194 3.38527 24.056C3.91533 16.3713 3.60377 11.6029 3.38922 10.2077C3.37063 10.0868 3.40475 9.96374 3.48293 9.86969C3.56111 9.77564 3.67585 9.7196 3.7981 9.71579L7.8788 9.58831C7.73906 9.37211 7.61436 9.13362 7.53082 8.88663C7.43324 8.59813 7.38177 8.26821 7.4578 7.9383C7.53669 7.59602 7.74328 7.29654 8.08298 7.07008C8.65281 6.69019 9.15555 6.56658 9.5799 6.64178C9.77619 6.67657 9.94171 6.75175 10.0755 6.84781C10.3417 6.68098 10.6848 6.54833 11.076 6.53923C11.6291 6.52637 12.2078 6.76157 12.7353 7.35363C12.8981 7.31748 13.085 7.30345 13.2793 7.33488C13.3231 7.34197 13.3668 7.3513 13.4101 7.36301C13.4311 7.15389 13.4726 6.9377 13.5422 6.72613C13.7447 6.10985 14.1954 5.51633 15.0512 5.30238C15.9134 5.08682 16.5666 5.41274 16.9984 5.88911C17.2968 6.21824 17.4933 6.61925 17.6099 6.96988C18.0025 6.97413 18.4599 7.09337 18.8334 7.44594C19.269 7.85713 19.513 8.51119 19.4778 9.45014C19.6473 9.43328 19.8222 9.43352 19.9923 9.46005C20.3173 9.51073 20.6495 9.66619 20.8561 9.98859H21.4079C21.1986 9.7946 21.0063 9.60938 20.8332 9.43629C20.6892 9.29231 20.6669 9.0667 20.7798 8.89728C21.6732 7.55721 22.9124 6.42478 24.5033 5.79979C26.098 5.17328 28.0127 5.07002 30.2287 5.73483C32.4179 6.39156 33.1081 8.49926 33.1985 10.5027ZM13.0591 8.17188C12.9514 8.17211 12.8473 8.20251 12.7827 8.23477C12.5981 8.3271 12.3738 8.27416 12.25 8.109C11.8031 7.51318 11.391 7.38649 11.0958 7.39336C10.7722 7.40089 10.4869 7.57134 10.3307 7.72757C10.2336 7.82467 10.0958 7.86917 9.96022 7.84717C9.82468 7.82518 9.70798 7.73937 9.64657 7.61655C9.63163 7.58668 9.57006 7.50771 9.43081 7.48303C9.29271 7.45856 9.01228 7.47735 8.55689 7.78094C8.38398 7.89622 8.31646 8.01679 8.29033 8.13017C8.26135 8.25592 8.27396 8.41725 8.34013 8.61289C8.47499 9.01161 8.78969 9.42703 9.04917 9.68651C9.15017 9.78751 9.19401 9.9323 9.166 10.0724C8.85912 11.6067 9.54339 11.9695 9.69464 12.0092C9.7221 12.0148 9.74924 12.0207 9.77604 12.027C9.92014 11.748 10.1473 11.4548 10.4748 11.2213C10.7902 10.9964 11.1851 10.8365 11.6633 10.7901C11.5811 10.7361 11.4946 10.6776 11.4036 10.6143C11.3412 10.6352 11.2655 10.6593 11.1785 10.6837C10.8996 10.7618 10.5044 10.8429 10.0286 10.8429C9.79272 10.8429 9.60147 10.6517 9.60147 10.4158C9.60147 10.1798 9.79272 9.98859 10.0286 9.98859C10.2051 9.98859 10.368 9.97455 10.5143 9.95318C10.0565 9.59447 9.51972 9.14975 8.89299 8.60136C8.71544 8.446 8.69745 8.17613 8.85281 7.99858C9.00816 7.82103 9.27804 7.80304 9.45559 7.95839C9.82711 8.28347 10.165 8.5702 10.4717 8.82263C10.4171 8.62922 10.5056 8.41816 10.692 8.32498C10.903 8.21947 11.1596 8.305 11.2651 8.51602C11.4907 8.96718 11.6111 9.32056 11.668 9.57501C11.6844 9.64812 11.6963 9.71675 11.7035 9.77985C11.7108 9.78513 11.7181 9.79037 11.7254 9.79558M11.7254 9.79558C11.9882 9.98402 12.2069 10.1282 12.3859 10.2365C12.2951 10.0595 12.2258 9.86433 12.1999 9.65711C12.1557 9.30336 12.242 8.93723 12.5145 8.6135C12.6541 8.44773 12.8357 8.30087 13.0591 8.17188M12.0169 11.6313C11.5374 11.6187 11.202 11.7521 10.9708 11.9169C10.6534 12.1433 10.4925 12.4575 10.4431 12.6552C10.4131 12.7749 10.333 12.8758 10.2231 12.932C10.1133 12.9881 9.98453 12.9941 9.87 12.9483C9.77217 12.9091 9.65154 12.8719 9.5177 12.8451C9.18597 12.7788 8.82625 12.7866 8.53696 12.9261C8.27129 13.0541 8.00345 13.322 7.88446 13.9169C7.81226 14.2779 7.84604 14.5395 7.92166 14.7306C7.99735 14.9218 8.12715 15.0732 8.29667 15.1939C8.64973 15.4454 9.14725 15.5419 9.50511 15.5419C9.74103 15.5419 9.93228 15.7331 9.93228 15.9691V16.5437C11.1326 16.4604 12.4274 16.3757 13.7765 16.2939C13.4505 16.1742 13.1006 16.0488 12.734 15.9212C12.582 15.934 12.368 15.9646 12.1567 16.0205C11.8902 16.091 11.7001 16.1832 11.6122 16.2711C11.4454 16.4379 11.1749 16.4379 11.0081 16.2711C10.8413 16.1043 10.8413 15.8338 11.0081 15.667C11.0956 15.5795 11.1976 15.5056 11.3059 15.4431C11.2455 15.4237 11.1848 15.4044 11.124 15.3851C10.3035 15.1251 9.45659 14.8781 8.64351 14.6748C8.41463 14.6176 8.27547 14.3856 8.33269 14.1568C8.38991 13.9279 8.62184 13.7887 8.85072 13.8459C9.26283 13.949 9.68224 14.0626 10.1015 14.1831C10.0603 14.079 10.0286 13.9594 10.0286 13.8332C10.0286 13.5973 10.2199 13.406 10.4558 13.406C10.6917 13.406 10.883 13.5973 10.883 13.8332C10.883 13.8307 10.8831 13.8295 10.8831 13.8295C10.8831 13.8295 10.8881 13.8596 10.9227 13.9268C10.9604 13.9999 11.0183 14.087 11.092 14.1818C11.2142 14.3389 11.3597 14.4914 11.4734 14.5997C11.7965 14.7027 12.1147 14.8074 12.4244 14.9119C12.4264 14.8153 12.4259 14.7035 12.4215 14.5757C12.4059 14.1241 12.3425 13.4971 12.1833 12.688C12.0216 12.3398 11.9667 11.97 12.0169 11.6313ZM13.2386 13.9833C13.2578 14.1902 13.2695 14.3777 13.2753 14.5462C13.2842 14.8027 13.2797 15.0223 13.2657 15.2022C14.0819 15.49 14.8057 15.763 15.3572 15.9801C15.2658 15.6445 15.1852 15.2586 15.1617 14.8941C14.9881 14.8483 14.8148 14.7953 14.6436 14.7346C14.1516 14.5599 13.6656 14.3161 13.2386 13.9833ZM15.791 17.0323C13.5601 17.1571 11.4192 17.2951 9.53514 17.4279C8.5001 17.5009 7.54272 17.5722 6.69068 17.639C6.91675 18.9502 7.00579 20.2731 7.03059 21.0741C7.55713 21.0514 8.11807 21.037 8.7302 21.0213C11.0718 20.9613 14.1627 20.8819 18.9429 20.2446C19.4319 20.1794 19.8878 20.1805 20.4566 20.1957C20.5803 20.199 20.7098 20.203 20.8469 20.2072C20.8793 20.2082 20.9122 20.2092 20.9455 20.2102C19.8936 19.9776 19.2495 19.4914 19.1629 18.7987C19.0786 18.1247 19.5708 17.5552 20.0899 17.2957C20.1177 17.2817 20.1471 17.2709 20.1773 17.2633C20.6454 17.1463 21.1027 17.1119 21.496 17.1681C21.8771 17.2225 22.2669 17.3737 22.4974 17.6965C22.6027 17.8439 22.6599 18.0049 22.6763 18.172C24.1701 18.7179 25.9217 19.4086 27.631 20.1043L33.5513 20.2321C33.5809 19.8802 33.631 19.374 33.6858 18.8408C33.7571 18.1482 33.8397 17.3808 33.9064 16.7731C32.7018 16.6514 31.0818 16.5952 29.2004 16.5889M29.8189 21.0061C30.5735 21.3207 31.2912 21.6235 31.9418 21.9005L32.1395 21.0562L29.8189 21.0061ZM22.4644 19.0042C22.3301 19.2388 22.1331 19.4821 21.8739 19.734C22.1848 19.9033 22.5352 20.09 22.9179 20.289C25.2342 21.4939 28.6987 23.1329 31.7122 24.0978C31.7743 24.0824 31.8407 24.0808 31.9074 24.0956C31.9989 24.1159 32.077 24.1642 32.1346 24.2295C32.3838 24.3049 32.6288 24.3752 32.8688 24.4395L33.3671 23.4427C32.9917 23.2797 32.5558 23.0917 32.0739 22.8857C30.7534 22.3209 29.0891 21.6209 27.3818 20.9253C25.6847 20.2339 23.9478 19.5481 22.4644 19.0042ZM31.2994 24.8623C28.2945 23.883 24.9081 22.283 22.6162 21.0951C21.8699 21.0935 21.2902 21.0756 20.8152 21.061C20.6801 21.0568 20.5534 21.0529 20.4338 21.0497C19.8716 21.0347 19.4732 21.0358 19.0558 21.0914C14.2245 21.7356 11.0676 21.8165 8.72393 21.8766C8.6142 21.8794 8.50625 21.8821 8.39999 21.8849C8.82385 23.9539 9.41113 26.9328 9.90737 29.5443C10.1763 30.9594 10.4187 32.2681 10.594 33.2667C10.6817 33.7657 10.7529 34.1893 10.8023 34.5107C10.8147 34.5912 10.8262 34.6681 10.8364 34.7399C13.127 34.6109 18.3732 34.5502 24.1727 35.1946C25.0192 35.2887 26.2943 35.395 27.3625 35.4781C27.8955 35.5196 28.3754 35.5551 28.7219 35.5803C28.7918 35.5854 28.8562 35.59 28.9145 35.5942L31.2994 24.8623ZM21.0243 19.3516C21.4352 19.0018 21.6578 18.7189 21.7594 18.5112C21.8675 18.2904 21.8171 18.2139 21.8022 18.193C21.7658 18.142 21.6483 18.0529 21.3752 18.0139C21.1253 17.9782 20.7992 17.9941 20.4326 18.0805C20.125 18.2501 19.989 18.5195 20.0106 18.6927C20.0268 18.8221 20.1756 19.1432 21.0243 19.3516ZM15.791 17.0323L16.0327 17.0188L15.791 17.0323ZM21.6921 9.08195C22.4856 7.99051 23.5283 7.10075 24.8157 6.59498C26.2112 6.04675 27.9275 5.93643 29.9832 6.55315C31.7382 7.07964 32.3437 8.87192 32.3546 10.9274C32.3612 12.1525 32.1511 13.3871 31.9053 14.3059C30.5425 14.4648 28.944 13.9867 27.3411 13.1745C26.3414 12.6679 25.3616 12.0425 24.4676 11.3935C23.8681 10.9584 23.3089 10.5141 22.8102 10.0903C22.3896 9.73283 22.0129 9.39074 21.6921 9.08195ZM53.1736 6.57117C53.1736 6.33524 53.3648 6.14399 53.6008 6.14399C53.7771 6.14399 54.049 6.1694 54.3295 6.24365C54.6031 6.31609 54.9364 6.44835 55.1843 6.69628C55.3512 6.86311 55.3512 7.13358 55.1843 7.3004C55.0175 7.46723 54.7471 7.46723 54.5802 7.3004C54.4864 7.2066 54.3213 7.12527 54.1108 7.06956C53.9072 7.01565 53.7092 6.99834 53.6008 6.99834C53.3648 6.99834 53.1736 6.80709 53.1736 6.57117ZM59.3451 10.0337C59.5561 10.1392 59.6417 10.3958 59.5361 10.6068C59.4826 10.7139 59.416 10.8989 59.3974 11.0789C59.378 11.268 59.4186 11.3577 59.4561 11.3952C59.6229 11.5621 59.6229 11.8325 59.4561 11.9994C59.2893 12.1662 59.0188 12.1662 58.852 11.9994C58.5478 11.6951 58.5172 11.2865 58.5476 10.9914C58.5789 10.6873 58.6831 10.4024 58.772 10.2247C58.8775 10.0137 59.1341 9.92818 59.3451 10.0337ZM22.1147 13.5311C22.2816 13.3643 22.552 13.3643 22.7189 13.5311C22.8857 13.6979 22.8857 13.9684 22.7189 14.1352C22.6131 14.241 22.2685 14.6577 21.9445 15.3058C21.839 15.5168 21.5824 15.6023 21.3714 15.4968C21.1604 15.3913 21.0749 15.1347 21.1804 14.9237C21.5398 14.2047 21.9357 13.7101 22.1147 13.5311ZM24.2506 13.5311C24.4174 13.3643 24.6879 13.3643 24.8547 13.5311C25.0216 13.6979 25.0216 13.9684 24.8547 14.1352C24.749 14.241 24.4044 14.6577 24.0804 15.3058C23.9749 15.5168 23.7183 15.6023 23.5073 15.4968C23.2963 15.3913 23.2107 15.1347 23.3162 14.9237C23.6757 14.2047 24.0716 13.7101 24.2506 13.5311ZM51.892 13.406C52.128 13.406 52.3192 13.5973 52.3192 13.8332V14.6875C52.3192 14.9235 52.128 15.1147 51.892 15.1147C51.6561 15.1147 51.4649 14.9235 51.4649 14.6875V13.8332C51.4649 13.5973 51.6561 13.406 51.892 13.406ZM47.4852 14.2823C47.709 14.2077 47.9509 14.3286 48.0255 14.5525C48.0909 14.7487 48.2086 15.041 48.3433 15.276C48.4114 15.3949 48.4733 15.4801 48.5222 15.53C48.529 15.5369 48.5348 15.5425 48.5396 15.5468C48.7447 15.5781 48.9018 15.7552 48.9018 15.9691C48.9018 16.205 48.7105 16.3962 48.4746 16.3962C48.2138 16.3962 48.0215 16.2398 47.9118 16.1278C47.7907 16.0042 47.687 15.8491 47.6021 15.701C47.4307 15.402 47.292 15.0535 47.215 14.8226C47.1404 14.5988 47.2614 14.3569 47.4852 14.2823ZM63.4039 16.6883C63.4785 16.9122 63.3576 17.1541 63.1337 17.2287C62.8958 17.308 62.5188 17.4028 62.1443 17.431C61.9569 17.4451 61.7536 17.4438 61.5613 17.4073C61.3722 17.3714 61.1565 17.2941 60.9879 17.1255C60.8211 16.9587 60.8211 16.6882 60.9879 16.5214C61.1547 16.3545 61.4252 16.3545 61.592 16.5214C61.5943 16.5236 61.6242 16.5496 61.7208 16.568C61.8141 16.5857 61.9365 16.5898 62.0802 16.579C62.3678 16.5574 62.6743 16.4813 62.8636 16.4182C63.0874 16.3436 63.3293 16.4645 63.4039 16.6883ZM51.4649 18.9593C51.4649 18.7234 51.6561 18.5321 51.892 18.5321C52.2091 18.5321 52.5035 18.6801 52.6941 18.7759C52.7043 18.781 52.7142 18.786 52.7239 18.7908C52.9622 18.91 53.0805 18.9593 53.1736 18.9593C53.4095 18.9593 53.6008 19.1506 53.6008 19.3865C53.6008 19.6224 53.4095 19.8137 53.1736 19.8137C52.8566 19.8137 52.5621 19.6657 52.3716 19.5699C52.3613 19.5648 52.3514 19.5598 52.3418 19.555C52.1034 19.4358 51.9852 19.3865 51.892 19.3865C51.6561 19.3865 51.4649 19.1952 51.4649 18.9593ZM58.4388 19.837C58.6619 19.9138 58.7804 20.1569 58.7036 20.38C58.6748 20.4637 58.6401 20.6 58.6306 20.721C58.6268 20.769 58.628 20.8034 58.6305 20.8248C58.7632 20.9867 58.76 21.2257 58.6142 21.3843C58.4546 21.558 58.1843 21.5694 58.0106 21.4097C57.875 21.285 57.8191 21.1271 57.7949 21.0067C57.7703 20.8836 57.7706 20.7596 57.7789 20.6541C57.7954 20.443 57.8502 20.2343 57.8958 20.1017C57.9726 19.8787 58.2158 19.7601 58.4388 19.837ZM63.3007 22.5019C63.4675 22.6687 63.4675 22.9391 63.3007 23.106C63.147 23.2597 62.8957 23.4884 62.6323 23.682C62.5008 23.7787 62.3573 23.8734 62.2149 23.9457C62.0832 24.0126 61.9049 24.0854 61.7171 24.0854C61.4812 24.0854 61.2899 23.8942 61.2899 23.6583C61.2899 23.4223 61.4812 23.2311 61.7171 23.2311C61.7137 23.2311 61.713 23.2309 61.713 23.2309C61.7158 23.2297 61.7516 23.2228 61.8281 23.1839C61.9135 23.1405 62.0156 23.075 62.1262 22.9937C62.3469 22.8314 62.5656 22.6329 62.6966 22.5019C62.8634 22.335 63.1339 22.335 63.3007 22.5019ZM21.3722 22.8756C21.4665 22.9385 21.5319 23.0362 21.5541 23.1473C21.7355 24.0541 21.7687 25.7742 21.7439 27.509C21.719 29.2569 21.6336 31.0745 21.5622 32.2194C21.5556 32.4317 21.4318 32.5795 21.3102 32.6608C21.1998 32.7346 21.0758 32.768 20.9804 32.7858C20.7837 32.8228 20.5416 32.8228 20.3104 32.8099C19.8376 32.7834 19.2819 32.6939 18.9156 32.6207C18.7537 32.5883 18.625 32.4656 18.5849 32.3054C18.4877 31.9166 18.4355 31.3145 18.4083 30.6274C18.3808 29.9296 18.3782 29.1095 18.3907 28.2654C18.4157 26.5768 18.5015 24.7757 18.573 23.6316C18.5851 23.4383 18.7257 23.2774 18.9156 23.2394L21.0515 22.8122C21.1626 22.79 21.2779 22.8128 21.3722 22.8756ZM13.8747 23.1956C13.8932 22.9742 14.0782 22.8039 14.3004 22.8039H16.4363C16.5549 22.8039 16.6681 22.8532 16.7489 22.94C16.8298 23.0268 16.8708 23.1432 16.8624 23.2615C16.6507 26.2253 16.7565 28.4465 16.8624 29.9287C16.8812 30.1918 16.9004 30.4359 16.9179 30.6584C16.9489 31.0535 16.9746 31.3807 16.9834 31.6259C16.9901 31.8136 16.9894 31.9976 16.9606 32.144C16.9466 32.2152 16.918 32.3229 16.8452 32.4211C16.7568 32.5404 16.6135 32.629 16.4363 32.629H14.7276C14.5274 32.629 14.354 32.4899 14.3106 32.2945C13.6131 29.1556 13.7312 24.9183 13.8747 23.1956ZM14.6971 23.6583C14.5782 25.4625 14.5263 29.0146 15.0743 31.7746H16.1323C16.132 31.74 16.1311 31.7007 16.1295 31.6564C16.1214 31.4283 16.0981 31.1323 16.0684 30.755C16.0507 30.5297 16.0306 30.2755 16.0102 29.9896C15.908 28.5588 15.8058 26.4473 15.9796 23.6583H14.6971ZM19.4059 24.0126C19.3397 25.1457 19.2675 26.7595 19.245 28.2781C19.2326 29.1143 19.2353 29.9174 19.262 30.5937C19.2824 31.1086 19.3161 31.5313 19.3627 31.8348C19.6736 31.8884 20.0431 31.9392 20.3582 31.9568C20.5079 31.9652 20.6304 31.9651 20.7221 31.9584C20.79 30.819 20.8664 29.126 20.8897 27.4968C20.9109 26.0108 20.8869 24.6164 20.7815 23.7375L19.4059 24.0126ZM23.6989 24.0641C23.7102 23.8368 23.8979 23.6583 24.1255 23.6583H26.2614C26.4784 23.6583 26.661 23.821 26.6858 24.0366C26.773 24.7949 26.7152 26.4804 26.6149 28.2322C26.5137 30.0024 26.3654 31.8927 26.2597 33.0936C26.2491 33.2146 26.1875 33.3253 26.0903 33.3981C25.9931 33.4709 25.8695 33.4989 25.7504 33.475L23.6145 33.0479C23.407 33.0063 23.2611 32.8191 23.2717 32.6077L23.6989 24.0641ZM24.5319 24.5126L24.1434 32.2824L25.4496 32.5436C25.5497 31.3589 25.6738 29.7244 25.762 28.1834C25.8478 26.6828 25.8971 25.3075 25.864 24.5126H24.5319ZM57.4454 24.5126C57.6813 24.5126 57.8725 24.7039 57.8725 24.9398C57.8725 25.0482 57.8898 25.2462 57.9437 25.4499C57.9995 25.6604 58.0808 25.8255 58.1746 25.9193C58.3414 26.0861 58.3414 26.3566 58.1746 26.5234C58.0078 26.6902 57.7373 26.6902 57.5705 26.5234C57.3225 26.2755 57.1903 25.9422 57.1178 25.6685C57.0436 25.388 57.0182 25.1161 57.0182 24.9398C57.0182 24.7039 57.2094 24.5126 57.4454 24.5126ZM67.5066 25.4121C68.3243 25.0032 68.9864 25.1973 69.2812 25.4921C69.448 25.6589 69.448 25.9294 69.2812 26.0962C69.1144 26.263 68.8439 26.263 68.6771 26.0962C68.6771 26.0962 68.6772 26.0965 68.6752 26.0953C68.6497 26.0793 68.3984 25.9214 67.8887 26.1762C67.6776 26.2817 67.421 26.1962 67.3155 25.9852C67.21 25.7742 67.2956 25.5176 67.5066 25.4121ZM64.5823 27.2008C64.7491 27.3676 64.7491 27.6381 64.5823 27.8049C64.4285 27.9587 64.1772 28.1873 63.9138 28.381C63.7824 28.4777 63.6388 28.5724 63.4964 28.6447C63.3647 28.7115 63.1865 28.7844 62.9987 28.7844C62.7627 28.7844 62.5715 28.5931 62.5715 28.3572C62.5715 28.1213 62.7627 27.93 62.9987 27.93C62.9958 27.93 62.9943 27.9299 62.9943 27.9299C62.9943 27.9299 63.0296 27.9235 63.1096 27.8829C63.1951 27.8395 63.2971 27.774 63.4077 27.6927C63.6285 27.5304 63.8471 27.3319 63.9781 27.2008C64.145 27.034 64.4154 27.034 64.5823 27.2008ZM58.4248 29.3367C58.5916 29.1699 58.8621 29.1699 59.0289 29.3367C59.1227 29.4305 59.2879 29.5118 59.4983 29.5675C59.702 29.6215 59.9 29.6388 60.0084 29.6388C60.2443 29.6388 60.4356 29.83 60.4356 30.0659C60.4356 30.3019 60.2443 30.4931 60.0084 30.4931C59.8321 30.4931 59.5602 30.4677 59.2797 30.3935C59.006 30.321 58.6728 30.1888 58.4248 29.9408C58.258 29.774 58.258 29.5035 58.4248 29.3367ZM68.6776 29.7384C68.9581 29.6642 69.23 29.6388 69.4063 29.6388C69.6423 29.6388 69.8335 29.83 69.8335 30.0659C69.8335 30.3019 69.6423 30.4931 69.4063 30.4931C69.2979 30.4931 69.0999 30.5104 68.8962 30.5643C68.6858 30.62 68.5207 30.7014 68.4268 30.7952C68.26 30.962 67.9895 30.962 67.8227 30.7952C67.6559 30.6283 67.6559 30.3579 67.8227 30.191C68.0707 29.9431 68.4039 29.8109 68.6776 29.7384ZM62.8076 32.5839C62.5966 32.4784 62.5111 32.2218 62.6166 32.0108C62.7221 31.7998 62.9787 31.7142 63.1897 31.8197C63.6994 32.0746 63.9507 31.9167 63.9763 31.9007C63.9782 31.8994 63.9781 31.8998 63.9781 31.8998C64.145 31.7329 64.4154 31.7329 64.5823 31.8998C64.7491 32.0666 64.7491 32.3371 64.5823 32.5039C64.2875 32.7987 63.6253 32.9928 62.8076 32.5839ZM46.1361 41.6387C46.1698 41.6266 46.2474 41.5997 46.3387 41.5997C46.4955 41.5997 46.6239 41.6625 46.708 41.7156C46.7971 41.7717 46.8776 41.8431 46.9475 41.9141C47.0876 42.0564 47.2271 42.2407 47.3541 42.4275C47.6102 42.804 47.8546 43.249 48.0023 43.5446C48.106 43.7519 48.0254 44.0041 47.8207 44.1129L47.628 44.2152C50.8227 44.3046 55.7646 44.4008 58.6318 44.3233C58.7175 43.9445 58.97 43.6431 59.2682 43.4311C59.6758 43.1413 60.2132 42.9775 60.7251 42.9362C61.2316 42.8953 61.7852 42.9688 62.2041 43.2353C62.4198 43.3725 62.6057 43.5654 62.7162 43.8219C62.7628 43.9302 62.7936 44.0441 62.809 44.1625C65.0171 44.1599 68.2366 44.1373 71.2343 44.0774C74.4522 44.0131 77.3763 43.9062 78.5405 43.7399C78.66 43.7228 78.7812 43.7571 78.874 43.8343C78.9669 43.9115 79.0227 44.0244 79.0277 44.145C79.1701 47.5623 79.5401 55.5877 79.8814 60.3651C80.226 65.1891 79.7385 70.4043 79.451 72.4169C79.4193 72.6388 79.2216 72.7984 78.998 72.7826L73.4576 72.3917C73.5957 73.7505 73.5527 74.8315 73.4705 75.4072C73.4523 75.5345 73.3777 75.6469 73.2674 75.7131C72.7227 76.0399 71.8929 76.2512 70.9778 76.3945C68.535 76.7769 65.0661 76.7314 63.1989 76.6276C63.0192 76.6176 62.8651 76.4962 62.8134 76.3239C62.3954 74.9304 62.1931 73.7609 62.1213 72.8161C62.1092 72.6568 62.1008 72.5038 62.0957 72.3572C57.275 72.3728 49.4717 72.645 46.1532 72.7833C46.0369 72.7882 45.9237 72.7454 45.8397 72.6648C45.7557 72.5842 45.7083 72.4729 45.7083 72.3565V63.2714C45.0474 62.9086 44.5446 62.5277 44.1935 62.1472C43.8077 61.7291 43.5724 61.2742 43.5724 60.8227C43.5724 60.1155 43.8849 59.6065 44.3129 59.2703C44.6101 59.0369 44.9558 58.8911 45.2801 58.8037C45.2611 55.4061 44.9722 50.6957 44.7752 47.4843C44.7364 46.8529 44.7013 46.2795 44.6724 45.7854L40.3547 48.0792C40.3355 48.9629 40.2354 51.5842 39.9407 57.0434C41.0813 58.2277 42.0485 59.9687 42.4876 62.4572C42.516 62.618 42.4503 62.7809 42.3182 62.8769C41.6655 63.3516 40.6464 64.0477 39.5042 64.7512C39.5069 65.9119 39.5294 67.5879 39.589 69.1206C39.6209 69.9417 39.6633 70.7175 39.7185 71.3492C39.7753 71.9984 39.8422 72.4477 39.9092 72.6486C39.9479 72.7648 39.9349 72.8921 39.8734 72.9981C39.8119 73.1041 39.7078 73.1785 39.5877 73.2026C38.135 73.4931 32.5304 74.4924 21.5624 74.4924C18.3561 74.4924 14.4371 74.4568 11.194 74.3855C9.57278 74.3499 8.11791 74.3053 7.00449 74.2516C6.44812 74.2248 5.97372 74.1956 5.60501 74.1638C5.25135 74.1332 4.95606 74.0976 4.78516 74.0488C4.63157 74.0049 4.5153 73.879 4.48375 73.7224C4.33413 72.9798 4.05329 70.4173 4.04822 65.8685C2.59623 63.5857 1.97589 61.1641 1.91696 59.4722C0.986334 58.9755 0.394161 58.402 0.139774 57.7495C-0.14303 57.0242 0.03058 56.3068 0.416426 55.68C0.797983 55.0602 1.40675 54.4907 2.08636 54.0006C2.69357 53.5627 3.37639 53.1746 4.04764 52.8593C4.03439 49.2021 3.76104 45.4341 3.62246 43.7711C3.61254 43.652 3.65292 43.5343 3.73381 43.4464C3.81469 43.3585 3.9287 43.3084 4.04816 43.3084C6.47473 43.3084 13.032 43.394 19.8751 43.7361C26.6831 44.0765 36.0601 43.594 39.8995 43.3096C40.018 43.3008 40.1347 43.3418 40.2218 43.4226C40.3088 43.5034 40.3582 43.6168 40.3582 43.7356V45.244C40.8367 44.9503 41.2962 44.6638 41.7324 44.3888C42.5702 43.8606 43.3185 43.3775 43.9527 42.9681C44.2473 42.7779 44.5172 42.6036 44.7601 42.4481C45.1405 42.2045 45.457 42.0053 45.6935 41.8663C45.811 41.7973 45.9159 41.7389 46.0025 41.6966C46.0456 41.6756 46.0912 41.655 46.1361 41.6387ZM39.5039 45.7632V44.1947C35.4063 44.4822 26.4353 44.9196 19.8324 44.5894C13.4035 44.268 7.2263 44.1736 4.51151 44.1637C4.65171 45.9339 4.87159 49.2043 4.89954 52.457C5.64793 52.1406 6.65295 51.833 7.81941 51.5542C9.36641 51.1843 11.2306 50.8573 13.2263 50.6279C17.17 50.1746 21.6684 50.0978 25.2684 50.848C28.3598 49.9066 31.209 49.44 32.9854 49.2963C35.2464 48.2368 37.5081 46.9641 39.5039 45.7632ZM31.1603 50.3748C29.9324 50.5618 28.4729 50.8521 26.9074 51.2689C27.3313 51.4012 27.7378 51.5488 28.1233 51.713C29.2756 51.1687 30.2989 50.7236 31.1603 50.3748ZM27.0687 52.2216C26.5209 52.0307 25.9311 51.8674 25.307 51.7299C24.0148 52.1313 22.6846 52.6169 21.3791 53.1979C21.8025 53.6127 22.1632 54.1094 22.4655 54.6745C24.1244 53.7235 25.6748 52.9075 27.0687 52.2216ZM22.8278 55.4516C24.7737 54.334 26.5687 53.404 28.1341 52.6539C28.5034 52.8282 28.8439 53.0184 29.1531 53.2248C27.4992 54.4065 25.5054 55.7264 23.3125 56.9935C23.1821 56.444 23.0211 55.9285 22.8278 55.4516ZM21.7259 55.1033C21.3965 54.4806 20.9999 53.974 20.5377 53.5877C18.8392 54.4064 17.2122 55.3916 15.7949 56.5668C16.2351 56.962 16.6226 57.4745 16.9305 58.125C18.5887 57.0046 20.1989 55.9986 21.7259 55.1033ZM17.2498 58.9407C18.9202 57.8067 20.5428 56.7895 22.0809 55.8856C22.2632 56.3554 22.4152 56.8728 22.5364 57.4348C21.7416 57.8797 20.924 58.3149 20.0899 58.7319C19.9824 58.7856 19.9075 58.8786 19.8738 58.9847C19.0068 59.1402 18.16 59.2648 17.3706 59.3609C17.3333 59.2161 17.2929 59.0761 17.2498 58.9407ZM16.512 59.4568C16.2091 58.3581 15.723 57.6347 15.1807 57.1643C14.5643 56.6296 13.8419 56.393 13.1493 56.3336C12.4984 56.2778 11.8869 56.3802 11.4465 56.5286C11.2765 56.5859 11.0887 56.5308 10.9766 56.3906C10.3664 55.6279 9.78139 55.4559 9.32722 55.4823C8.84357 55.5104 8.42459 55.7689 8.1948 55.9986C8.08039 56.1131 7.91116 56.153 7.75766 56.1018C5.77958 55.4425 4.72166 55.7477 4.16665 56.2271C3.6569 56.6673 3.45787 57.3484 3.44387 57.9312C4.38885 58.4233 5.94586 58.8523 8.36628 59.1165C8.41665 59.122 8.46564 59.1364 8.51096 59.1591C8.71474 59.261 8.85364 59.4259 8.95262 59.5858C9.05128 59.7452 9.12807 59.929 9.19412 60.1062C9.24085 60.2317 9.28305 60.3547 9.32496 60.4769C9.34731 60.5421 9.36957 60.607 9.3924 60.6719C9.39468 60.6779 9.39683 60.684 9.39884 60.6902C9.46172 60.8681 9.52927 61.0462 9.61477 61.2294C9.78446 61.5931 9.99921 61.9103 10.3136 62.1395C10.623 62.365 11.0651 62.5314 11.7373 62.5314C13.1046 62.5314 14.0305 61.7925 14.5847 61.023C14.596 61.0042 14.6087 60.9863 14.6226 60.9696C14.9033 60.5669 15.0828 60.1603 15.1712 59.851C15.2203 59.679 15.3714 59.5559 15.5497 59.5424C15.853 59.5195 16.1749 59.491 16.512 59.4568ZM15.1534 61.6847C14.4644 62.5685 13.3575 63.3858 11.7373 63.3858C10.9144 63.3858 10.2886 63.1784 9.81041 62.8299C9.3372 62.485 9.04466 62.0281 8.84057 61.5907C8.78263 61.4666 8.72956 61.3381 8.68067 61.211C6.17599 60.861 4.16134 60.4053 2.79797 59.8738C2.93575 61.4097 3.53916 63.5152 4.83369 65.5105C6.42093 67.957 9.0397 70.2279 13.1069 71.0841C15.821 71.6555 18.3189 71.8361 21.1996 71.006C21.1021 70.8922 21.0569 70.7511 21.0629 70.6077C21.0688 70.4673 21.1221 70.3481 21.1722 70.2621C21.2246 70.1723 21.292 70.0876 21.363 70.0099C21.4584 69.9055 21.5782 69.7948 21.7163 69.68C21.2511 69.7648 20.8369 69.8084 20.5034 69.8132C20.2558 69.8168 20.021 69.7999 19.8337 69.746C19.7414 69.7196 19.6281 69.6752 19.5303 69.593C19.4219 69.5019 19.3254 69.355 19.3281 69.1622C19.3305 68.9908 19.4114 68.8581 19.4792 68.7743C19.5502 68.6866 19.6406 68.6102 19.7354 68.5429C19.9258 68.4078 20.195 68.2671 20.5398 68.1193C21.1066 67.8764 21.6355 67.6288 22.1198 67.3872C21.8988 67.4373 21.6957 67.4782 21.5095 67.511C21.0565 67.5905 20.6899 67.6235 20.4007 67.6148C20.1275 67.6066 19.858 67.5601 19.6588 67.4178C19.5495 67.3397 19.4559 67.2282 19.41 67.0821C19.3649 66.9386 19.3781 66.8006 19.4127 66.6875C19.4772 66.4764 19.6302 66.301 19.7763 66.1707C20.0808 65.8991 20.5456 65.6559 21.0317 65.5344C21.6329 65.3841 22.3616 64.9618 23.0522 64.4604C23.208 64.3474 23.3596 64.232 23.5049 64.1171C23.3341 64.1279 23.1651 64.1333 23.0042 64.1333C22.6468 64.1333 22.2932 64.1069 22.0429 64.0379C21.9776 64.0199 21.9076 63.9958 21.8412 63.9624C21.7791 63.931 21.6919 63.8774 21.6221 63.7867C21.5422 63.6831 21.4934 63.5394 21.5239 63.3803C21.5507 63.2408 21.6288 63.1425 21.6876 63.0837C21.7498 63.0215 21.8289 62.9716 21.8864 62.9376C21.9531 62.8982 22.0332 62.8558 22.1218 62.8117C22.2996 62.7233 22.5313 62.6183 22.8001 62.5023C23.3389 62.2698 24.0459 61.9847 24.8118 61.6851C26.0377 61.2054 27.4231 60.685 28.5291 60.277C28.4293 60.1815 28.3804 60.0417 28.4025 59.9016C28.4293 59.7324 28.5546 59.5955 28.7208 59.5539C28.8145 59.5305 29.0258 59.4477 29.3725 59.258C29.7109 59.0729 30.1575 58.7976 30.7159 58.4079C31.747 57.6883 33.1503 56.5847 34.9448 54.9533C35.0234 54.8818 35.1259 54.8422 35.2321 54.8422C35.9408 54.8422 36.8958 55.0323 37.8855 55.5257C38.2965 55.7306 38.7147 55.9884 39.1246 56.3077C39.3518 52.0465 39.4517 49.6605 39.4873 48.54L34.22 51.3382C33.6537 51.9806 32.623 53.0748 31.3696 54.265C31.6864 54.8012 31.7428 55.3616 31.5631 55.9086C31.3818 56.4604 30.9732 56.9609 30.4483 57.4087C29.3983 58.3044 27.7456 59.1046 25.9027 59.7617C22.3237 61.0379 17.8335 61.8405 15.1534 61.6847ZM30.7209 54.8706C30.8341 55.1382 30.8339 55.3908 30.7514 55.6419C30.6388 55.9848 30.359 56.3618 29.8938 56.7587C28.9633 57.5525 27.4281 58.3108 25.6158 58.957C22.3105 60.1356 18.2547 60.8833 15.6854 60.8486C15.7708 60.6811 15.8412 60.5202 15.8973 60.3718C16.2727 60.3404 16.672 60.3013 17.0893 60.2541C18.9527 60.0436 21.188 59.6707 23.2894 59.099C24.6583 58.7266 25.9807 58.2672 27.11 57.7076C28.2174 57.159 29.1702 56.4991 29.7896 55.703C30.1078 55.4263 30.4192 55.1474 30.7209 54.8706ZM30.857 53.5733C31.8087 52.666 32.6234 51.8218 33.1882 51.2069C32.5206 51.7645 31.628 52.4705 30.5583 53.2603C30.6624 53.3614 30.7621 53.4657 30.857 53.5733ZM29.6718 53.9042C27.9327 55.1477 25.8194 56.5443 23.4911 57.8763C23.5061 57.9644 23.5204 58.0533 23.534 58.143C24.6967 57.8058 25.7925 57.4069 26.7307 56.9421C26.9092 56.8537 27.0811 56.7633 27.246 56.671C27.2586 56.6588 27.2722 56.6472 27.2866 56.6364C27.9206 56.1609 28.553 55.6438 29.1631 55.1155C29.4478 54.7319 29.6212 54.3305 29.6718 53.9042ZM22.7041 58.3705C22.7018 58.3547 22.6995 58.3389 22.6972 58.3232C22.6418 58.3538 22.5864 58.3844 22.5308 58.4149C22.5887 58.4003 22.6464 58.3855 22.7041 58.3705ZM29.8854 52.6946C29.6422 52.5165 29.3827 52.3506 29.1089 52.1961C30.3622 51.6196 31.4323 51.1749 32.2703 50.8566C31.6315 51.3774 30.8261 52.0045 29.8854 52.6946ZM34.0916 50.439L44.682 44.8129C44.7506 44.687 44.8811 44.5987 45.0348 44.5906C45.0561 44.5894 45.0773 44.5899 45.098 44.5919L45.5609 44.3459C45.6373 44.2364 45.7636 44.1647 45.9056 44.1628L47.0435 43.5583C46.9256 43.3457 46.7871 43.113 46.6476 42.9079C46.5326 42.7387 46.4264 42.6026 46.3387 42.5135C46.3318 42.5065 46.3253 42.5 46.3191 42.4941C46.2681 42.5212 46.2041 42.5572 46.1263 42.603C45.9055 42.7327 45.6014 42.9239 45.2208 43.1676C44.9824 43.3203 44.715 43.4929 44.422 43.682C43.786 44.0926 43.0296 44.5809 42.188 45.1115C39.8413 46.5909 36.8027 48.418 33.7261 49.8908L34.0916 50.439ZM46.4266 42.4422C46.432 42.4402 46.4311 42.441 46.4249 42.4428L46.4266 42.4422ZM46.1058 45.0239L45.5029 45.3442C45.5345 45.9069 45.5775 46.6092 45.6265 47.4068C45.794 50.1368 46.0301 53.9846 46.1088 57.1828C47.2551 53.2492 50.7746 47.3846 58.7197 45.1763C55.3348 45.2718 49.0204 45.12 46.1058 45.0239ZM59.2054 45.9298C50.2042 48.3094 47.0633 55.542 46.5802 59.0063C46.7075 59.1603 46.9608 59.3788 47.4121 59.6277C47.9666 59.9334 48.7832 60.2647 49.9348 60.57C52.238 61.1804 55.8448 61.6771 61.2899 61.6771C66.7379 61.6771 70.1533 61.1857 72.203 60.586C73.2288 60.2859 73.8934 59.9642 74.2968 59.6779C74.6578 59.4218 74.7617 59.2304 74.7868 59.1446C74.7703 59.031 74.7536 58.9193 74.737 58.8093C74.3645 56.3535 73.9648 54.8052 73.7071 54.1427C72.5574 51.1862 70.3423 49.2137 68.0136 47.9466C65.8061 46.7454 63.5203 46.1919 62.0113 46.0396C61.8086 46.3144 61.5695 46.5089 61.2994 46.62C60.958 46.7604 60.6132 46.7486 60.3106 46.6625C59.8615 46.5347 59.4665 46.2342 59.2054 45.9298ZM62.555 45.2445C64.145 45.4641 66.3172 46.0508 68.422 47.1961C70.874 48.5304 73.2609 50.6381 74.5034 53.833C74.784 54.5546 75.1734 56.0779 75.5357 58.3835C76.2144 58.557 76.7943 58.9857 77.0638 59.6014C77.3865 60.3387 77.212 61.2164 76.4751 62.0254C75.7491 62.8226 74.4592 63.5849 72.4448 64.2023C72.0664 64.3182 71.6612 64.4295 71.2279 64.5351C71.6585 66.0013 71.7516 67.3069 71.7285 68.1377C71.7697 68.1257 71.8091 68.114 71.8466 68.1028C72.0678 68.0364 72.3016 68.1578 72.3746 68.3768C72.5882 69.0176 72.7571 69.6448 72.8893 70.2457C72.9382 70.468 73.0233 70.6891 73.1203 70.9411C73.1279 70.9609 73.1356 70.9809 73.1434 71.0012C73.2052 71.1623 73.2726 71.3404 73.3244 71.5258L78.6586 71.9022C78.9426 69.6978 79.3475 64.8827 79.0292 60.426C78.7015 55.8385 78.348 48.2759 78.1935 44.6412C76.773 44.7841 74.0959 44.8748 71.2513 44.9316C68.1855 44.9929 64.8898 45.0151 62.6753 45.017C62.6384 45.0989 62.5971 45.1749 62.555 45.2445ZM70.8622 68.374C70.9106 67.6833 70.8666 66.3097 70.3928 64.7241C68.6471 65.0904 66.4989 65.3712 63.8774 65.521C59.5964 65.7656 56.1081 65.6622 53.3055 65.3468C53.3378 65.3633 53.3707 65.3796 53.4043 65.3958C53.9313 65.6495 54.5782 65.8455 55.2725 65.993C56.6606 66.2878 58.1762 66.376 59.1541 66.376C59.3671 66.376 59.5476 66.533 59.5771 66.744C59.6067 66.9549 59.4762 67.1554 59.2714 67.2139C58.5708 67.4141 57.8325 67.7689 57.1955 68.1614C56.6249 68.513 56.1629 68.878 55.8898 69.1642C55.9816 69.1458 56.0905 69.1199 56.2183 69.0842C56.5868 68.9812 57.0767 68.8079 57.7082 68.5448C60.0457 67.5708 61.7938 67.2668 63.0073 67.2757C63.9408 67.2825 64.6072 67.4756 64.9637 67.743C65.1524 67.8846 65.1907 68.1523 65.0491 68.341C64.9076 68.5298 64.6398 68.568 64.4511 68.4265C64.3379 68.3416 64.0359 68.2109 63.4961 68.1558C63.541 68.4639 63.5967 68.8021 63.6579 69.1033C63.7044 69.3327 63.752 69.5289 63.7973 69.6709C66.6533 69.3488 69.2783 68.7819 70.8622 68.374ZM62.9334 69.7599C62.893 69.6106 62.8553 69.444 62.8206 69.2734C62.746 68.9061 62.6802 68.493 62.6305 68.1378C61.5668 68.1889 60.0511 68.4941 58.0368 69.3334C57.3869 69.6042 56.8621 69.7914 56.4481 69.907C56.0461 70.0193 55.7079 70.0762 55.4496 70.0519C55.32 70.0396 55.1596 70.0027 55.0254 69.8928C54.8712 69.7665 54.8059 69.5894 54.8098 69.4175C54.8132 69.2666 54.8682 69.1322 54.9234 69.0301C54.9813 68.923 55.0582 68.8174 55.1436 68.7166C55.4785 68.3207 56.0683 67.8524 56.7474 67.434C56.9087 67.3346 57.077 67.2368 57.2504 67.1425C56.5576 67.0806 55.8125 66.9811 55.0949 66.8287C54.3629 66.6732 53.6441 66.4594 53.0337 66.1656C52.4969 65.9071 52.0127 65.5717 51.689 65.1306C49.4007 64.7715 47.8039 64.2598 46.5626 63.6958V71.9115C50.0915 71.7688 57.4525 71.5181 62.0874 71.5029C62.0852 71.3921 62.0821 71.288 62.0791 71.1884C62.0756 71.0714 62.0723 70.9604 62.0708 70.8516C62.0688 70.7052 62.0703 70.5619 62.0835 70.4325C62.0964 70.3061 62.123 70.1623 62.1894 70.0296C62.2561 69.8962 62.3874 69.8073 62.536 69.7949C62.6687 69.7839 62.8012 69.7722 62.9334 69.7599ZM55.5071 69.1978L55.5094 69.1985C55.5072 69.198 55.5071 69.1978 55.5071 69.1978ZM71.6891 69.0373C71.5879 69.0654 71.4801 69.0948 71.3659 69.1252C69.7459 69.5568 66.8069 70.21 63.6134 70.5506C63.3857 70.5748 63.1567 70.5975 62.9268 70.6185C62.9243 70.6802 62.9239 70.7532 62.925 70.8398C62.9262 70.9246 62.9291 71.0237 62.9324 71.1342C62.939 71.3616 62.9471 71.637 62.9443 71.9333C62.9431 72.0622 62.9448 72.1986 62.9501 72.3425C64.9752 72.2562 68.2237 71.8813 70.5304 70.9666C71.125 70.7308 71.6232 70.467 71.9976 70.1776C71.9102 69.8057 71.808 69.4245 71.6891 69.0373ZM72.247 71.0492C71.9328 71.2585 71.5781 71.4456 71.1977 71.6135C71.4078 72.4324 71.7053 73.9095 71.4607 75.4391C71.9532 75.3363 72.3562 75.2142 72.65 75.0749C72.7115 74.4548 72.728 73.3507 72.5504 71.9844C72.5254 71.7918 72.4499 71.5786 72.3458 71.3074C72.3372 71.285 72.3284 71.2621 72.3194 71.2389C72.2959 71.1781 72.2715 71.1147 72.247 71.0492ZM70.5637 75.5919C70.8605 74.1961 70.6053 72.7775 70.3959 71.929C68.0226 72.767 64.9599 73.1098 63.0156 73.1948C63.0989 73.9242 63.2627 74.7892 63.5475 75.7901C65.3693 75.8769 68.3558 75.8977 70.5637 75.5919ZM74.9396 60.2636C74.892 60.3013 74.8425 60.3383 74.7912 60.3747C74.2835 60.7349 73.5217 61.0904 72.4429 61.406C70.2836 62.0377 66.7777 62.5314 61.2899 62.5314C55.7993 62.5314 52.1136 62.0313 49.7159 61.3958C48.5171 61.0781 47.6312 60.7241 46.9995 60.3758C46.6324 60.1733 46.3371 59.9651 46.1158 59.7564C46.0794 59.8155 46.0554 59.8715 46.0409 59.9234C46.0054 60.0509 46.0152 60.1974 46.1105 60.3765C46.3174 60.7654 46.9051 61.2562 48.0553 61.7308C50.3254 62.6674 54.4751 63.4143 60.8609 63.3858C65.9589 63.363 69.4028 62.7916 71.6289 62.0992C72.742 61.753 73.5428 61.379 74.0915 61.034C74.5563 60.7417 74.8171 60.4849 74.9445 60.3028C74.9429 60.2897 74.9412 60.2767 74.9396 60.2636ZM45.2086 59.7293C45.0753 59.786 44.9497 59.8565 44.8406 59.9422C44.5991 60.1319 44.4267 60.4019 44.4267 60.8227C44.4267 60.9762 44.5126 61.2332 44.8214 61.5678C45.125 61.8968 45.6136 62.2659 46.3308 62.6347C47.5936 63.284 49.287 63.9049 52.0032 64.3145C54.9504 64.759 58.832 64.9535 63.8286 64.668C67.5445 64.4557 70.2583 63.9788 72.1944 63.3854C74.1376 62.7899 75.2631 62.0874 75.8435 61.4501C76.4131 60.8247 76.4363 60.2984 76.2812 59.944C76.1758 59.7033 75.9657 59.4878 75.6781 59.3424C75.7231 59.6628 75.7674 59.9962 75.8107 60.3425C75.8213 60.4272 75.8063 60.5131 75.7676 60.5892C75.5747 60.9684 75.1624 61.3699 74.5462 61.7572C73.9202 62.1509 73.0478 62.5526 71.8827 62.915C69.5522 63.6399 66.0189 64.2171 60.8647 64.2401C54.4351 64.2688 50.1532 63.5206 47.7295 62.5206C46.5328 62.0268 45.7081 61.439 45.3562 60.7778C45.178 60.4428 45.1197 60.0839 45.2086 59.7293ZM29.3723 60.8773C28.2076 61.3036 26.5546 61.9206 25.123 62.4807C24.3711 62.7749 23.6836 63.0521 23.161 63.2771C23.4455 63.2704 23.7492 63.2458 24.0284 63.2037C24.369 63.1523 24.6361 63.0801 24.7888 63.0037C24.9762 62.91 25.2039 62.966 25.3264 63.136C25.4489 63.306 25.4301 63.5397 25.2819 63.6878C24.9117 64.0581 24.2753 64.6283 23.5541 65.1518C22.8422 65.6686 22.0046 66.1718 21.2389 66.3633C20.9055 66.4466 20.5983 66.6053 20.4026 66.76C20.4104 66.7603 20.4183 66.7606 20.4264 66.7608C20.6362 66.7672 20.9403 66.7435 21.3617 66.6695C22.2032 66.5217 23.4598 66.1831 25.2649 65.546C25.4638 65.4758 25.6841 65.5613 25.7837 65.7473C25.8832 65.9332 25.8321 66.164 25.6633 66.2906C25.0641 66.74 23.2968 67.8672 20.8764 68.9045C20.8446 68.9181 20.8141 68.9315 20.7846 68.9446C21.6809 68.874 23.1029 68.5468 24.4895 67.8997C24.8829 67.6795 25.2735 67.4688 25.6362 67.279C25.8396 67.1726 26.0907 67.246 26.2049 67.4452C26.319 67.6444 26.2553 67.8981 26.0606 68.0198C25.6772 68.2594 25.2797 68.4724 24.88 68.6602C24.2619 69.0068 23.6427 69.3742 23.1221 69.7164C22.7246 69.9777 22.4031 70.2124 22.1837 70.4038C22.2173 70.4013 22.2531 70.3981 22.2914 70.3942C22.5642 70.3664 22.926 70.3062 23.3926 70.2056C24.3569 69.7824 25.3752 69.2457 26.4647 68.5753C26.6656 68.4516 26.9287 68.5143 27.0524 68.7152C27.176 68.9161 27.1134 69.1793 26.9125 69.3029C25.8093 69.9818 24.7696 70.5318 23.7769 70.9699C23.6005 71.1613 23.4615 71.3361 23.37 71.477C23.6819 71.4182 24.2141 71.2434 25.0546 70.867C26.0784 70.4084 27.5091 69.6748 29.4686 68.5672C31.1669 67.6073 32.241 66.9035 32.8866 66.4434C33.1584 66.2497 33.3539 66.0994 33.4878 65.9918C32.6465 64.4645 31.1758 62.2962 29.3723 60.8773ZM33.8879 66.7644C33.7555 66.8673 33.5888 66.9921 33.3824 67.1392C32.7081 67.6197 31.6081 68.3393 29.889 69.311C27.9185 70.4247 26.462 71.1727 25.4038 71.6467C24.3665 72.1113 23.6582 72.3385 23.2104 72.3543C22.998 72.3618 22.6929 72.3266 22.5121 72.069C22.378 71.878 22.3857 71.6682 22.4228 71.5095C18.9487 72.7418 16.0429 72.5753 12.9309 71.9202C9.22993 71.141 6.64207 69.2486 4.91078 67.0778C4.95276 70.3925 5.14522 72.4226 5.27286 73.2706C5.37753 73.284 5.51204 73.2982 5.67845 73.3126C6.03172 73.343 6.494 73.3717 7.04561 73.3982C8.14818 73.4514 9.59455 73.4958 11.2128 73.5313C14.4485 73.6025 18.3611 73.638 21.5624 73.638C31.5766 73.638 37.0733 72.8011 38.9895 72.4475C38.9405 72.1597 38.9009 71.807 38.8674 71.4236C38.8105 70.7723 38.7675 69.9812 38.7353 69.1538C38.6835 67.8208 38.6595 66.3828 38.6521 65.263C38.0853 65.5945 37.5025 65.9167 36.9303 66.206C36.0768 66.6376 35.2335 67.003 34.4951 67.2139C34.2917 67.2721 34.0764 67.1725 33.9889 66.98C33.9581 66.9122 33.9244 66.8402 33.8879 66.7644ZM34.6046 66.2848C35.1099 66.114 35.6726 65.8722 36.2625 65.584C35.7311 62.6506 34.6957 60.9988 33.672 60.1111M34.6022 59.8161C35.6315 60.8759 36.5464 62.5724 37.0555 65.1782C37.6598 64.8559 38.2704 64.5028 38.8546 64.1472C39.936 63.4889 40.9202 62.8262 41.5973 62.3432C41.1479 60.0587 40.2267 58.524 39.2036 57.5128C38.7506 57.065 38.2747 56.7168 37.8053 56.4506C37.2104 57.1691 36.4048 58.0306 35.7139 58.7325C35.3215 59.1311 34.9616 59.483 34.6929 59.7325C34.6617 59.7616 34.6314 59.7895 34.6022 59.8161ZM37.0097 56.0699C36.3982 55.8291 35.834 55.7215 35.3926 55.7005C34.1389 56.8346 33.0716 57.716 32.1842 58.3922C32.7465 58.5198 33.359 58.7865 33.9603 59.2447C34.005 59.2046 34.0555 59.1585 34.1115 59.1066C34.3679 58.8684 34.7183 58.5261 35.1051 58.1331C35.7374 57.4907 36.4548 56.7253 37.0097 56.0699ZM31.1208 59.1669C31.7295 59.0963 32.704 59.2726 33.67 60.1093L31.1208 59.1669ZM31.1208 59.1669C30.5812 59.54 30.1359 59.8143 29.7825 60.0076C29.7546 60.0228 29.7272 60.0377 29.7002 60.052L29.7023 60.0536C31.8605 61.67 33.5504 64.2693 34.4051 65.8932C34.4773 66.0304 34.5439 66.1612 34.6046 66.2848M23.1065 71.497C23.1065 71.497 23.1092 71.4972 23.1135 71.4985C23.1084 71.4978 23.1065 71.497 23.1065 71.497ZM23.2535 71.707C23.2531 71.7122 23.2521 71.7154 23.2521 71.7154C23.2521 71.7154 23.2521 71.7129 23.2535 71.707ZM8.35348 60.3007C8.3087 60.1891 8.26739 60.1021 8.22619 60.0355C8.20211 59.9966 8.18179 59.9709 8.1659 59.9539C5.58311 59.6639 3.86611 59.1773 2.80513 58.5539C2.08734 58.1322 1.63418 57.626 1.45185 57.0434C1.3008 56.5607 1.35237 56.0791 1.51918 55.6313C1.372 55.7964 1.24579 55.9625 1.14398 56.1279C0.84917 56.6068 0.779988 57.0396 0.935763 57.4392C1.09923 57.8584 1.549 58.3445 2.52774 58.8251C3.66803 59.3851 5.66122 59.901 8.35348 60.3007ZM4.6927 53.5014C3.73501 54.105 2.79977 54.9252 2.40643 55.7289C2.21462 56.1208 2.16851 56.4728 2.26722 56.7882C2.32472 56.972 2.43961 57.1697 2.64308 57.3722C2.75062 56.7498 3.03202 56.0781 3.60822 55.5805C4.45187 54.8518 5.79896 54.6025 7.79132 55.2155C8.14529 54.9321 8.6655 54.6649 9.27763 54.6294C9.98433 54.5883 10.7487 54.8595 11.4544 55.6348C11.8494 55.5301 12.3155 55.4613 12.813 55.4639C13.0584 54.1795 14.1329 52.1879 16.9919 51.8549C18.4223 51.6882 19.6411 51.9486 20.6342 52.5975C21.5951 52.1541 22.5703 51.7628 23.5361 51.4191C20.3617 50.9881 16.6615 51.093 13.3238 51.4767C11.3576 51.7027 9.5276 52.0242 8.01806 52.3851C6.50568 52.7467 5.34723 53.1403 4.6927 53.5014ZM19.6955 53.0503C18.9785 52.7153 18.118 52.5838 17.0908 52.7035C14.7536 52.9758 13.8854 54.5375 13.668 55.5412C14.1393 55.6259 14.6214 55.7861 15.0815 56.0502C16.4713 54.8701 18.0521 53.8786 19.6955 53.0503ZM59.7633 44.1274C59.5148 44.3041 59.4335 44.4891 59.4602 44.6783C59.4772 44.7984 59.5418 44.9653 59.7115 45.1775C59.7235 45.1924 59.7344 45.2081 59.7443 45.2245C59.8777 45.447 60.2036 45.7438 60.5444 45.8407C60.7029 45.8858 60.8457 45.8828 60.9744 45.8299C61.1031 45.7769 61.2642 45.6549 61.4244 45.3778C61.4744 45.2912 61.5369 45.2057 61.5904 45.1337C61.6026 45.1172 61.6146 45.1011 61.6264 45.0853C61.6704 45.0264 61.7115 44.9714 61.7524 44.9122C61.8559 44.7623 61.9242 44.632 61.9493 44.5062C61.9822 44.3415 61.9629 44.2327 61.9316 44.16C61.8999 44.0866 61.8421 44.0176 61.7456 43.9562C61.5401 43.8254 61.1953 43.7553 60.7939 43.7878C60.3979 43.8198 60.0179 43.9464 59.7633 44.1274ZM56.9872 47.8478C57.0754 48.0666 56.9695 48.3155 56.7506 48.4036C54.6716 49.2411 53.3309 50.2757 52.4608 51.1443C52.025 51.5794 51.7042 51.9759 51.465 52.2918C51.3812 52.4024 51.3095 52.5004 51.2441 52.5897C51.2144 52.6302 51.186 52.669 51.1584 52.7063C51.078 52.8151 50.9925 52.9285 50.9126 53.0084C50.7457 53.1752 50.4753 53.1752 50.3084 53.0084C50.1416 52.8416 50.1416 52.5711 50.3084 52.4043C50.3353 52.3774 50.3833 52.3177 50.4714 52.1984C50.4952 52.1663 50.5213 52.1306 50.5497 52.0919C50.6167 52.0003 50.6959 51.8923 50.7839 51.776C51.0386 51.4397 51.3853 51.0108 51.8572 50.5397C52.8027 49.5958 54.2386 48.4945 56.4314 47.6112C56.6502 47.523 56.8991 47.6289 56.9872 47.8478ZM62.5779 67.6917C62.578 67.6892 62.5783 67.6865 62.5785 67.6837L62.578 67.6861C62.5779 67.6879 62.5779 67.6898 62.5779 67.6917ZM63.0538 67.4379C63.2385 67.4573 63.3843 67.5473 63.4125 67.5831L63.4118 67.5807C63.4082 67.5691 63.4042 67.5568 63.4002 67.5458C63.2899 67.4618 63.1686 67.4335 63.0538 67.4379Z"
        fill="currentColor"/>
</svg>
