<svg width="12" height="12" version="1.1" viewBox="0 0 12 12" xmlns="http://www.w3.org/2000/svg">
  <path d="m6 1.6786c-1.2928 0-2.4535 0.5675-3.2459 1.4684l0.94631 0.94631c0.12374 0.12374 0.0361 0.33533-0.13889 0.33533h-2.8651c-0.10848 0-0.19643-0.08795-0.19643-0.19643v-2.8651c0-0.175 0.21158-0.26264 0.33533-0.1389l1.0841 1.0842c1.006-1.1124 2.4613-1.8123 4.0805-1.8123 2.8146 0 5.1347 2.1137 5.4608 4.8407 0.0386 0.32315-0.192 0.61645-0.5151 0.65509-0.3232 0.03865-0.6165-0.19199-0.6552-0.51514-0.256-2.1416-2.0798-3.8021-4.2905-3.8021zm-4.9457 4.3256c0.32315-0.03865 0.61644 0.19199 0.65509 0.51514 0.25611 2.1415 2.0799 3.8021 4.2906 3.8021 1.2928 0 2.4535-0.56749 3.2459-1.4683l-0.94623-0.94632c-0.12375-0.12375-0.03615-0.33534 0.13891-0.33534h2.8651c0.1085 0 0.1964 0.088 0.1964 0.19643v2.8651c0 0.1749-0.2116 0.2625-0.3353 0.1388l-1.0842-1.0841c-1.006 1.1124-2.4613 1.8123-4.0805 1.8123-2.8146 0-5.1347-2.1137-5.4608-4.8407-0.038641-0.32315 0.192-0.61645 0.51514-0.65509z" clip-rule="evenodd" fill="currentColor" fill-rule="evenodd"/>
</svg>
