<svg width="12" height="12" fill="currentColor" version="1.1" viewBox="0 0 12 12" xmlns="http://www.w3.org/2000/svg">
 <path d="m3.118 2.1371 1.5532-4.2e-5c0.38304 5.3e-6 0.69358-0.31052 0.69352-0.69356 0-0.38304-0.31043-0.69351-0.69347-0.69351l-3.2276 9.1e-7c-0.38304-6.48e-6 -0.69358 0.31051-0.69358 0.69356v3.2673c0 0.38305 0.31048 0.69351 0.69352 0.69351s0.69352-0.31046 0.69352-0.69351l5.25e-5 -1.5929 2.2327 2.2327c0.27085 0.27085 0.70996 0.27085 0.98086 0 0.27085-0.27085 0.27085-0.70998 0-0.98083z" stroke-width=".525"/>
 <path d="m8.882 9.8629-1.5532 5.25e-5c-0.38305 0-0.69357 0.31048-0.69356 0.69352 5.3e-6 0.38304 0.31047 0.69352 0.69351 0.69352h3.2276c0.38304 0 0.69356-0.31054 0.69356-0.69358l-2e-5 -3.1879c0-0.38304-0.31047-0.69352-0.69352-0.69352-0.38305 0-0.69352 0.31048-0.69352 0.69352l-6.31e-5 1.5135-2.2327-2.2327c-0.27085-0.27085-0.70999-0.27085-0.98084 0-0.27085 0.27085-0.27085 0.70996 0 0.9808z" stroke-width=".525"/>
</svg>
