<svg width="16" height="17" viewBox="0 0 16 17" fill="none" xmlns="http://www.w3.org/2000/svg">
<path d="M5.03168 15.0008C11.0694 15.0008 14.3718 9.99859 14.3718 5.66067C14.3718 5.51859 14.3718 5.37715 14.3622 5.23635C15.0047 4.77166 15.5593 4.19627 16 3.53715C15.4009 3.80263 14.7653 3.97672 14.1146 4.05363C14.7998 3.64338 15.3127 2.99813 15.5578 2.23795C14.9134 2.62032 14.2084 2.8898 13.4733 3.03475C12.9783 2.50847 12.3237 2.15998 11.6108 2.04321C10.8978 1.92644 10.1663 2.0479 9.52931 2.38879C8.89234 2.72968 8.38548 3.271 8.08716 3.92898C7.78884 4.58697 7.71569 5.32493 7.87904 6.02867C6.57392 5.96324 5.29715 5.62408 4.13161 5.03321C2.96607 4.44234 1.93782 3.61296 1.1136 2.59891C0.693819 3.32158 0.565248 4.17706 0.754066 4.99119C0.942885 5.80532 1.43489 6.51688 2.12992 6.98099C1.60751 6.96551 1.0965 6.82458 0.64 6.57011C0.64 6.58355 0.64 6.59763 0.64 6.61171C0.640207 7.36961 0.902567 8.10411 1.38258 8.69062C1.86259 9.27714 2.53071 9.67956 3.2736 9.82963C2.79032 9.96143 2.28325 9.9807 1.79136 9.88595C2.00113 10.5382 2.40951 11.1086 2.95941 11.5174C3.5093 11.9261 4.17319 12.1528 4.85824 12.1656C3.69583 13.0792 2.25988 13.5751 0.78144 13.5736C0.520258 13.5731 0.259331 13.5573 0 13.5263C1.50121 14.4896 3.24794 15.0006 5.03168 14.9983" fill="currentColor"/>
</svg>
